<?xml version="1.0" encoding="utf-8" standalone="no"?>
<!DOCTYPE svg PUBLIC "-//W3C//DTD SVG 1.1//EN"
  "http://www.w3.org/Graphics/SVG/1.1/DTD/svg11.dtd">
<svg xmlns:xlink="http://www.w3.org/1999/xlink" width="1440pt" height="1440pt" viewBox="0 0 1440 1440" xmlns="http://www.w3.org/2000/svg" version="1.1">
 <metadata>
  <rdf:RDF xmlns:dc="http://purl.org/dc/elements/1.1/" xmlns:cc="http://creativecommons.org/ns#" xmlns:rdf="http://www.w3.org/1999/02/22-rdf-syntax-ns#">
   <cc:Work>
    <dc:type rdf:resource="http://purl.org/dc/dcmitype/StillImage"/>
    <dc:date>2024-03-10T02:43:04.841163</dc:date>
    <dc:format>image/svg+xml</dc:format>
    <dc:creator>
     <cc:Agent>
      <dc:title>Matplotlib v3.8.3, https://matplotlib.org/</dc:title>
     </cc:Agent>
    </dc:creator>
   </cc:Work>
  </rdf:RDF>
 </metadata>
 <defs>
  <style type="text/css">*{stroke-linejoin: round; stroke-linecap: butt}</style>
 </defs>
 <g id="figure_1">
  <g id="patch_1">
   <path d="M 0 1440 
L 1440 1440 
L 1440 0 
L 0 0 
z
" style="fill: #ffffff"/>
  </g>
  <g id="axes_1">
   <g id="patch_2">
    <path d="M 686.56426 957.807952 
C 692.231464 957.807952 697.667317 955.556348 701.674636 951.549029 
C 705.681954 947.541711 707.933558 942.105858 707.933558 936.438654 
C 707.933558 930.77145 705.681954 925.335597 701.674636 921.328278 
C 697.667317 917.32096 692.231464 915.069356 686.56426 915.069356 
C 680.897056 915.069356 675.461203 917.32096 671.453885 921.328278 
C 667.446566 925.335597 665.194962 930.77145 665.194962 936.438654 
C 665.194962 942.105858 667.446566 947.541711 671.453885 951.549029 
C 675.461203 955.556348 680.897056 957.807952 686.56426 957.807952 
z
" clip-path="url(#p1535a1fa58)" style="fill: #9e0142; opacity: 0.5"/>
   </g>
   <g id="patch_3">
    <path d="M 928.324983 850.878555 
C 932.684487 850.878555 936.866024 849.146506 939.948658 846.063871 
C 943.031293 842.981237 944.763342 838.7997 944.763342 834.440197 
C 944.763342 830.080693 943.031293 825.899157 939.948658 822.816522 
C 936.866024 819.733888 932.684487 818.001838 928.324983 818.001838 
C 923.96548 818.001838 919.783943 819.733888 916.701309 822.816522 
C 913.618674 825.899157 911.886625 830.080693 911.886625 834.440197 
C 911.886625 838.7997 913.618674 842.981237 916.701309 846.063871 
C 919.783943 849.146506 923.96548 850.878555 928.324983 850.878555 
z
" clip-path="url(#p1535a1fa58)" style="fill: #b61b48; opacity: 0.5"/>
   </g>
   <g id="patch_4">
    <path d="M 917.344302 1087.05507 
C 948.775835 1087.05507 978.924246 1074.56719 1001.149696 1052.341739 
C 1023.375147 1030.116289 1035.863027 999.967878 1035.863027 968.536345 
C 1035.863027 937.104812 1023.375147 906.956401 1001.149696 884.730951 
C 978.924246 862.5055 948.775835 850.01762 917.344302 850.01762 
C 885.912769 850.01762 855.764358 862.5055 833.538908 884.730951 
C 811.313457 906.956401 798.825577 937.104812 798.825577 968.536345 
C 798.825577 999.967878 811.313457 1030.116289 833.538908 1052.341739 
C 855.764358 1074.56719 885.912769 1087.05507 917.344302 1087.05507 
z
" clip-path="url(#p1535a1fa58)" style="fill: #d0384e; opacity: 0.5"/>
   </g>
   <g id="patch_5">
    <path d="M 772.111457 1231.2 
C 790.071499 1231.2 807.298361 1224.0644 819.998027 1211.364733 
C 832.697694 1198.665066 839.833294 1181.438204 839.833294 1163.478163 
C 839.833294 1145.518122 832.697694 1128.29126 819.998027 1115.591593 
C 807.298361 1102.891926 790.071499 1095.756326 772.111457 1095.756326 
C 754.151416 1095.756326 736.924554 1102.891926 724.224887 1115.591593 
C 711.525221 1128.29126 704.389621 1145.518122 704.389621 1163.478163 
C 704.389621 1181.438204 711.525221 1198.665066 724.224887 1211.364733 
C 736.924554 1224.0644 754.151416 1231.2 772.111457 1231.2 
z
" clip-path="url(#p1535a1fa58)" style="fill: #df4e4b; opacity: 0.5"/>
   </g>
   <g id="patch_6">
    <path d="M 668.042761 856.570347 
C 671.931845 856.570347 675.662166 855.025198 678.412163 852.2752 
C 681.162161 849.525202 682.70731 845.794882 682.70731 841.905798 
C 682.70731 838.016714 681.162161 834.286393 678.412163 831.536396 
C 675.662166 828.786398 671.931845 827.241249 668.042761 827.241249 
C 664.153677 827.241249 660.423357 828.786398 657.673359 831.536396 
C 654.923361 834.286393 653.378212 838.016714 653.378212 841.905798 
C 653.378212 845.794882 654.923361 849.525202 657.673359 852.2752 
C 660.423357 855.025198 664.153677 856.570347 668.042761 856.570347 
z
" clip-path="url(#p1535a1fa58)" style="fill: #ee6445; opacity: 0.5"/>
   </g>
   <g id="patch_7">
    <path d="M 624.169009 810.059854 
C 625.801288 810.059854 627.366933 809.411343 628.521129 808.257147 
C 629.675325 807.102951 630.323836 805.537306 630.323836 803.905027 
C 630.323836 802.272747 629.675325 800.707102 628.521129 799.552906 
C 627.366933 798.398711 625.801288 797.750199 624.169009 797.750199 
C 622.53673 797.750199 620.971085 798.398711 619.816889 799.552906 
C 618.662693 800.707102 618.014182 802.272747 618.014182 803.905027 
C 618.014182 805.537306 618.662693 807.102951 619.816889 808.257147 
C 620.971085 809.411343 622.53673 810.059854 624.169009 810.059854 
z
" clip-path="url(#p1535a1fa58)" style="fill: #f67f4b; opacity: 0.5"/>
   </g>
   <g id="patch_8">
    <path d="M 781.198112 1096.138918 
C 792.487482 1096.138918 803.315989 1091.653604 811.298779 1083.670814 
C 819.28157 1075.688023 823.766884 1064.859516 823.766884 1053.570146 
C 823.766884 1042.280775 819.28157 1031.452269 811.298779 1023.469478 
C 803.315989 1015.486688 792.487482 1011.001373 781.198112 1011.001373 
C 769.908741 1011.001373 759.080234 1015.486688 751.097444 1023.469478 
C 743.114653 1031.452269 738.629339 1042.280775 738.629339 1053.570146 
C 738.629339 1064.859516 743.114653 1075.688023 751.097444 1083.670814 
C 759.080234 1091.653604 769.908741 1096.138918 781.198112 1096.138918 
z
" clip-path="url(#p1535a1fa58)" style="fill: #fa9b58; opacity: 0.5"/>
   </g>
   <g id="patch_9">
    <path d="M 645.497557 837.915986 
C 649.110115 837.915986 652.575198 836.480701 655.129663 833.926237 
C 657.684127 831.371773 659.119411 827.90669 659.119411 824.294132 
C 659.119411 820.681574 657.684127 817.216491 655.129663 814.662027 
C 652.575198 812.107563 649.110115 810.672278 645.497557 810.672278 
C 641.885 810.672278 638.419916 812.107563 635.865452 814.662027 
C 633.310988 817.216491 631.875704 820.681574 631.875704 824.294132 
C 631.875704 827.90669 633.310988 831.371773 635.865452 833.926237 
C 638.419916 836.480701 641.885 837.915986 645.497557 837.915986 
z
" clip-path="url(#p1535a1fa58)" style="fill: #fdb768; opacity: 0.5"/>
   </g>
   <g id="patch_10">
    <path d="M 836.117253 1121.052915 
C 842.986647 1121.052915 849.575613 1118.323676 854.433009 1113.46628 
C 859.290404 1108.608885 862.019643 1102.019919 862.019643 1095.150524 
C 862.019643 1088.28113 859.290404 1081.692164 854.433009 1076.834768 
C 849.575613 1071.977373 842.986647 1069.248134 836.117253 1069.248134 
C 829.247858 1069.248134 822.658892 1071.977373 817.801496 1076.834768 
C 812.944101 1081.692164 810.214862 1088.28113 810.214862 1095.150524 
C 810.214862 1102.019919 812.944101 1108.608885 817.801496 1113.46628 
C 822.658892 1118.323676 829.247858 1121.052915 836.117253 1121.052915 
z
" clip-path="url(#p1535a1fa58)" style="fill: #fece7c; opacity: 0.5"/>
   </g>
   <g id="patch_11">
    <path d="M 568.471036 479.868127 
C 602.505628 479.868127 635.150832 466.34604 659.216923 442.27995 
C 683.283013 418.213859 696.8051 385.568655 696.8051 351.534063 
C 696.8051 317.499472 683.283013 284.854267 659.216923 260.788177 
C 635.150832 236.722087 602.505628 223.2 568.471036 223.2 
C 534.436445 223.2 501.79124 236.722087 477.72515 260.788177 
C 453.659059 284.854267 440.136973 317.499472 440.136973 351.534063 
C 440.136973 385.568655 453.659059 418.213859 477.72515 442.27995 
C 501.79124 466.34604 534.436445 479.868127 568.471036 479.868127 
z
" clip-path="url(#p1535a1fa58)" style="fill: #fee28f; opacity: 0.5"/>
   </g>
   <g id="patch_12">
    <path d="M 853.034641 1155.037824 
C 857.617472 1155.037824 862.013218 1153.217046 865.253769 1149.976495 
C 868.49432 1146.735944 870.315098 1142.340198 870.315098 1137.757367 
C 870.315098 1133.174537 868.49432 1128.77879 865.253769 1125.538239 
C 862.013218 1122.297689 857.617472 1120.476911 853.034641 1120.476911 
C 848.451811 1120.476911 844.056064 1122.297689 840.815513 1125.538239 
C 837.574963 1128.77879 835.754185 1133.174537 835.754185 1137.757367 
C 835.754185 1142.340198 837.574963 1146.735944 840.815513 1149.976495 
C 844.056064 1153.217046 848.451811 1155.037824 853.034641 1155.037824 
z
" clip-path="url(#p1535a1fa58)" style="fill: #fff1a8; opacity: 0.5"/>
   </g>
   <g id="patch_13">
    <path d="M 626.894609 839.894122 
C 628.456983 839.894122 629.955576 839.273384 631.06034 838.168619 
C 632.165105 837.063855 632.785843 835.565262 632.785843 834.002889 
C 632.785843 832.440515 632.165105 830.941922 631.06034 829.837158 
C 629.955576 828.732393 628.456983 828.111655 626.894609 828.111655 
C 625.332236 828.111655 623.833643 828.732393 622.728879 829.837158 
C 621.624114 830.941922 621.003376 832.440515 621.003376 834.002889 
C 621.003376 835.565262 621.624114 837.063855 622.728879 838.168619 
C 623.833643 839.273384 625.332236 839.894122 626.894609 839.894122 
z
" clip-path="url(#p1535a1fa58)" style="fill: #ffffbe; opacity: 0.5"/>
   </g>
   <g id="patch_14">
    <path d="M 552.365894 840.077995 
C 567.462034 840.077995 581.941907 834.080235 592.616489 823.405652 
C 603.291072 812.73107 609.288832 798.251197 609.288832 783.155057 
C 609.288832 768.058918 603.291072 753.579045 592.616489 742.904462 
C 581.941907 732.22988 567.462034 726.23212 552.365894 726.23212 
C 537.269755 726.23212 522.789882 732.22988 512.115299 742.904462 
C 501.440717 753.579045 495.442957 768.058918 495.442957 783.155057 
C 495.442957 798.251197 501.440717 812.73107 512.115299 823.405652 
C 522.789882 834.080235 537.269755 840.077995 552.365894 840.077995 
z
" clip-path="url(#p1535a1fa58)" style="fill: #f4faad; opacity: 0.5"/>
   </g>
   <g id="patch_15">
    <path d="M 673.489251 874.259809 
C 675.924051 874.259809 678.259457 873.292453 679.981121 871.570789 
C 681.702785 869.849124 682.670142 867.513719 682.670142 865.078918 
C 682.670142 862.644117 681.702785 860.308711 679.981121 858.587047 
C 678.259457 856.865383 675.924051 855.898026 673.489251 855.898026 
C 671.05445 855.898026 668.719044 856.865383 666.99738 858.587047 
C 665.275716 860.308711 664.308359 862.644117 664.308359 865.078918 
C 664.308359 867.513719 665.275716 869.849124 666.99738 871.570789 
C 668.719044 873.292453 671.05445 874.259809 673.489251 874.259809 
z
" clip-path="url(#p1535a1fa58)" style="fill: #e8f69b; opacity: 0.5"/>
   </g>
   <g id="patch_16">
    <path d="M 693.183898 881.157857 
C 696.141829 881.157857 698.979008 879.982658 701.070581 877.891086 
C 703.162154 875.799513 704.337352 872.962334 704.337352 870.004403 
C 704.337352 867.046473 703.162154 864.209293 701.070581 862.11772 
C 698.979008 860.026148 696.141829 858.850949 693.183898 858.850949 
C 690.225968 858.850949 687.388788 860.026148 685.297216 862.11772 
C 683.205643 864.209293 682.030445 867.046473 682.030445 870.004403 
C 682.030445 872.962334 683.205643 875.799513 685.297216 877.891086 
C 687.388788 879.982658 690.225968 881.157857 693.183898 881.157857 
z
" clip-path="url(#p1535a1fa58)" style="fill: #d1ed9c; opacity: 0.5"/>
   </g>
   <g id="patch_17">
    <path d="M 613.382834 833.626206 
C 616.937065 833.626206 620.346202 832.214094 622.859424 829.700873 
C 625.372645 827.187652 626.784756 823.778515 626.784756 820.224283 
C 626.784756 816.670052 625.372645 813.260914 622.859424 810.747693 
C 620.346202 808.234472 616.937065 806.822361 613.382834 806.822361 
C 609.828602 806.822361 606.419465 808.234472 603.906243 810.747693 
C 601.393022 813.260914 599.980911 816.670052 599.980911 820.224283 
C 599.980911 823.778515 601.393022 827.187652 603.906243 829.700873 
C 606.419465 832.214094 609.828602 833.626206 613.382834 833.626206 
z
" clip-path="url(#p1535a1fa58)" style="fill: #b5e1a2; opacity: 0.5"/>
   </g>
   <g id="patch_18">
    <path d="M 835.354986 873.707998 
C 845.666132 873.707998 855.556348 869.611336 862.847429 862.320255 
C 870.138511 855.029173 874.235172 845.138957 874.235172 834.827811 
C 874.235172 824.516665 870.138511 814.626449 862.847429 807.335368 
C 855.556348 800.044287 845.666132 795.947625 835.354986 795.947625 
C 825.04384 795.947625 815.153624 800.044287 807.862543 807.335368 
C 800.571462 814.626449 796.4748 824.516665 796.4748 834.827811 
C 796.4748 845.138957 800.571462 855.029173 807.862543 862.320255 
C 815.153624 869.611336 825.04384 873.707998 835.354986 873.707998 
z
" clip-path="url(#p1535a1fa58)" style="fill: #97d5a4; opacity: 0.5"/>
   </g>
   <g id="patch_19">
    <path d="M 708.994459 1117.344952 
C 718.360239 1117.344952 727.343681 1113.623888 733.966287 1107.001282 
C 740.588893 1100.378676 744.309956 1091.395234 744.309956 1082.029455 
C 744.309956 1072.663675 740.588893 1063.680233 733.966287 1057.057627 
C 727.343681 1050.435021 718.360239 1046.713958 708.994459 1046.713958 
C 699.62868 1046.713958 690.645238 1050.435021 684.022632 1057.057627 
C 677.400026 1063.680233 673.678962 1072.663675 673.678962 1082.029455 
C 673.678962 1091.395234 677.400026 1100.378676 684.022632 1107.001282 
C 690.645238 1113.623888 699.62868 1117.344952 708.994459 1117.344952 
z
" clip-path="url(#p1535a1fa58)" style="fill: #79c9a5; opacity: 0.5"/>
   </g>
   <g id="patch_20">
    <path d="M 709.146052 1045.956281 
C 721.356784 1045.956281 733.069041 1041.104906 741.703332 1032.470615 
C 750.337624 1023.836323 755.188999 1012.124067 755.188999 999.913334 
C 755.188999 987.702602 750.337624 975.990346 741.703332 967.356054 
C 733.069041 958.721763 721.356784 953.870387 709.146052 953.870387 
C 696.93532 953.870387 685.223064 958.721763 676.588772 967.356054 
C 667.95448 975.990346 663.103105 987.702602 663.103105 999.913334 
C 663.103105 1012.124067 667.95448 1023.836323 676.588772 1032.470615 
C 685.223064 1041.104906 696.93532 1045.956281 709.146052 1045.956281 
z
" clip-path="url(#p1535a1fa58)" style="fill: #5cb7aa; opacity: 0.5"/>
   </g>
   <g id="patch_21">
    <path d="M 580.16927 728.389843 
C 613.144205 728.389843 644.773012 715.288762 668.089812 691.971962 
C 691.406613 668.655161 704.507693 637.026355 704.507693 604.051419 
C 704.507693 571.076484 691.406613 539.447678 668.089812 516.130877 
C 644.773012 492.814077 613.144205 479.712996 580.16927 479.712996 
C 547.194335 479.712996 515.565528 492.814077 492.248728 516.130877 
C 468.931928 539.447678 455.830847 571.076484 455.830847 604.051419 
C 455.830847 637.026355 468.931928 668.655161 492.248728 691.971962 
C 515.565528 715.288762 547.194335 728.389843 580.16927 728.389843 
z
" clip-path="url(#p1535a1fa58)" style="fill: #439bb5; opacity: 0.5"/>
   </g>
   <g id="patch_22">
    <path d="M 739.364941 942.330025 
C 750.873974 942.330025 761.913176 937.757438 770.051291 929.619323 
C 778.189406 921.481207 782.761993 910.442005 782.761993 898.932973 
C 782.761993 887.42394 778.189406 876.384738 770.051291 868.246623 
C 761.913176 860.108508 750.873974 855.53592 739.364941 855.53592 
C 727.855908 855.53592 716.816706 860.108508 708.678591 868.246623 
C 700.540476 876.384738 695.967889 887.42394 695.967889 898.932973 
C 695.967889 910.442005 700.540476 921.481207 708.678591 929.619323 
C 716.816706 937.757438 727.855908 942.330025 739.364941 942.330025 
z
" clip-path="url(#p1535a1fa58)" style="fill: #3682ba; opacity: 0.5"/>
   </g>
   <g id="patch_23">
    <path d="M 954.909363 855.519222 
C 958.022407 855.519222 961.008368 854.282397 963.209623 852.081142 
C 965.410878 849.879887 966.647704 846.893926 966.647704 843.780881 
C 966.647704 840.667837 965.410878 837.681876 963.209623 835.480621 
C 961.008368 833.279366 958.022407 832.04254 954.909363 832.04254 
C 951.796318 832.04254 948.810357 833.279366 946.609102 835.480621 
C 944.407847 837.681876 943.171022 840.667837 943.171022 843.780881 
C 943.171022 846.893926 944.407847 849.879887 946.609102 852.081142 
C 948.810357 854.282397 951.796318 855.519222 954.909363 855.519222 
z
" clip-path="url(#p1535a1fa58)" style="fill: #4b68ae; opacity: 0.5"/>
   </g>
   <g id="patch_24">
    <path d="M 893.066669 852.592741 
C 898.06059 852.592741 902.850645 850.608635 906.38188 847.0774 
C 909.913115 843.546165 911.897221 838.75611 911.897221 833.762189 
C 911.897221 828.768269 909.913115 823.978214 906.38188 820.446979 
C 902.850645 816.915743 898.06059 814.931638 893.066669 814.931638 
C 888.072748 814.931638 883.282693 816.915743 879.751458 820.446979 
C 876.220223 823.978214 874.236117 828.768269 874.236117 833.762189 
C 874.236117 838.75611 876.220223 843.546165 879.751458 847.0774 
C 883.282693 850.608635 888.072748 852.592741 893.066669 852.592741 
z
" clip-path="url(#p1535a1fa58)" style="fill: #5e4fa2; opacity: 0.5"/>
   </g>
   <g id="line2d_1">
    <path d="M 772.111457 1163.478163 
L 781.198112 1053.570146 
" clip-path="url(#p1535a1fa58)" style="fill: none; stroke: #808080; stroke-opacity: 0.3; stroke-width: 0.5; stroke-linecap: square"/>
   </g>
   <g id="line2d_2">
    <path d="M 772.111457 1163.478163 
L 917.344302 968.536345 
" clip-path="url(#p1535a1fa58)" style="fill: none; stroke: #808080; stroke-opacity: 0.3; stroke-width: 0.5; stroke-linecap: square"/>
   </g>
   <g id="line2d_3">
    <path d="M 772.111457 1163.478163 
L 708.994459 1082.029455 
" clip-path="url(#p1535a1fa58)" style="fill: none; stroke: #808080; stroke-opacity: 0.3; stroke-width: 0.5; stroke-linecap: square"/>
   </g>
   <g id="line2d_4">
    <path d="M 772.111457 1163.478163 
L 836.117253 1095.150524 
" clip-path="url(#p1535a1fa58)" style="fill: none; stroke: #808080; stroke-opacity: 0.3; stroke-width: 0.5; stroke-linecap: square"/>
   </g>
   <g id="line2d_5">
    <path d="M 772.111457 1163.478163 
L 853.034641 1137.757367 
" clip-path="url(#p1535a1fa58)" style="fill: none; stroke: #808080; stroke-opacity: 0.3; stroke-width: 0.5; stroke-linecap: square"/>
   </g>
   <g id="line2d_6">
    <path d="M 781.198112 1053.570146 
L 917.344302 968.536345 
" clip-path="url(#p1535a1fa58)" style="fill: none; stroke: #808080; stroke-opacity: 0.3; stroke-width: 0.5; stroke-linecap: square"/>
   </g>
   <g id="line2d_7">
    <path d="M 781.198112 1053.570146 
L 708.994459 1082.029455 
" clip-path="url(#p1535a1fa58)" style="fill: none; stroke: #808080; stroke-opacity: 0.3; stroke-width: 0.5; stroke-linecap: square"/>
   </g>
   <g id="line2d_8">
    <path d="M 781.198112 1053.570146 
L 836.117253 1095.150524 
" clip-path="url(#p1535a1fa58)" style="fill: none; stroke: #808080; stroke-opacity: 0.3; stroke-width: 0.5; stroke-linecap: square"/>
   </g>
   <g id="line2d_9">
    <path d="M 781.198112 1053.570146 
L 709.146052 999.913334 
" clip-path="url(#p1535a1fa58)" style="fill: none; stroke: #808080; stroke-opacity: 0.3; stroke-width: 0.5; stroke-linecap: square"/>
   </g>
   <g id="line2d_10">
    <path d="M 917.344302 968.536345 
L 739.364941 898.932973 
" clip-path="url(#p1535a1fa58)" style="fill: none; stroke: #808080; stroke-opacity: 0.3; stroke-width: 0.5; stroke-linecap: square"/>
   </g>
   <g id="line2d_11">
    <path d="M 917.344302 968.536345 
L 954.909363 843.780881 
" clip-path="url(#p1535a1fa58)" style="fill: none; stroke: #808080; stroke-opacity: 0.3; stroke-width: 0.5; stroke-linecap: square"/>
   </g>
   <g id="line2d_12">
    <path d="M 917.344302 968.536345 
L 893.066669 833.762189 
" clip-path="url(#p1535a1fa58)" style="fill: none; stroke: #808080; stroke-opacity: 0.3; stroke-width: 0.5; stroke-linecap: square"/>
   </g>
   <g id="line2d_13">
    <path d="M 917.344302 968.536345 
L 836.117253 1095.150524 
" clip-path="url(#p1535a1fa58)" style="fill: none; stroke: #808080; stroke-opacity: 0.3; stroke-width: 0.5; stroke-linecap: square"/>
   </g>
   <g id="line2d_14">
    <path d="M 917.344302 968.536345 
L 709.146052 999.913334 
" clip-path="url(#p1535a1fa58)" style="fill: none; stroke: #808080; stroke-opacity: 0.3; stroke-width: 0.5; stroke-linecap: square"/>
   </g>
   <g id="line2d_15">
    <path d="M 917.344302 968.536345 
L 928.324983 834.440197 
" clip-path="url(#p1535a1fa58)" style="fill: none; stroke: #808080; stroke-opacity: 0.3; stroke-width: 0.5; stroke-linecap: square"/>
   </g>
   <g id="line2d_16">
    <path d="M 917.344302 968.536345 
L 853.034641 1137.757367 
" clip-path="url(#p1535a1fa58)" style="fill: none; stroke: #808080; stroke-opacity: 0.3; stroke-width: 0.5; stroke-linecap: square"/>
   </g>
   <g id="line2d_17">
    <path d="M 917.344302 968.536345 
L 835.354986 834.827811 
" clip-path="url(#p1535a1fa58)" style="fill: none; stroke: #808080; stroke-opacity: 0.3; stroke-width: 0.5; stroke-linecap: square"/>
   </g>
   <g id="line2d_18">
    <path d="M 624.169009 803.905027 
L 613.382834 820.224283 
" clip-path="url(#p1535a1fa58)" style="fill: none; stroke: #808080; stroke-opacity: 0.3; stroke-width: 0.5; stroke-linecap: square"/>
   </g>
   <g id="line2d_19">
    <path d="M 624.169009 803.905027 
L 552.365894 783.155057 
" clip-path="url(#p1535a1fa58)" style="fill: none; stroke: #808080; stroke-opacity: 0.3; stroke-width: 0.5; stroke-linecap: square"/>
   </g>
   <g id="line2d_20">
    <path d="M 568.471036 351.534063 
L 580.16927 604.051419 
" clip-path="url(#p1535a1fa58)" style="fill: none; stroke: #808080; stroke-opacity: 0.3; stroke-width: 0.5; stroke-linecap: square"/>
   </g>
   <g id="line2d_21">
    <path d="M 708.994459 1082.029455 
L 709.146052 999.913334 
" clip-path="url(#p1535a1fa58)" style="fill: none; stroke: #808080; stroke-opacity: 0.3; stroke-width: 0.5; stroke-linecap: square"/>
   </g>
   <g id="line2d_22">
    <path d="M 739.364941 898.932973 
L 686.56426 936.438654 
" clip-path="url(#p1535a1fa58)" style="fill: none; stroke: #808080; stroke-opacity: 0.3; stroke-width: 0.5; stroke-linecap: square"/>
   </g>
   <g id="line2d_23">
    <path d="M 739.364941 898.932973 
L 693.183898 870.004403 
" clip-path="url(#p1535a1fa58)" style="fill: none; stroke: #808080; stroke-opacity: 0.3; stroke-width: 0.5; stroke-linecap: square"/>
   </g>
   <g id="line2d_24">
    <path d="M 739.364941 898.932973 
L 709.146052 999.913334 
" clip-path="url(#p1535a1fa58)" style="fill: none; stroke: #808080; stroke-opacity: 0.3; stroke-width: 0.5; stroke-linecap: square"/>
   </g>
   <g id="line2d_25">
    <path d="M 739.364941 898.932973 
L 835.354986 834.827811 
" clip-path="url(#p1535a1fa58)" style="fill: none; stroke: #808080; stroke-opacity: 0.3; stroke-width: 0.5; stroke-linecap: square"/>
   </g>
   <g id="line2d_26">
    <path d="M 673.489251 865.078918 
L 668.042761 841.905798 
" clip-path="url(#p1535a1fa58)" style="fill: none; stroke: #808080; stroke-opacity: 0.3; stroke-width: 0.5; stroke-linecap: square"/>
   </g>
   <g id="line2d_27">
    <path d="M 673.489251 865.078918 
L 693.183898 870.004403 
" clip-path="url(#p1535a1fa58)" style="fill: none; stroke: #808080; stroke-opacity: 0.3; stroke-width: 0.5; stroke-linecap: square"/>
   </g>
   <g id="line2d_28">
    <path d="M 686.56426 936.438654 
L 709.146052 999.913334 
" clip-path="url(#p1535a1fa58)" style="fill: none; stroke: #808080; stroke-opacity: 0.3; stroke-width: 0.5; stroke-linecap: square"/>
   </g>
   <g id="line2d_29">
    <path d="M 954.909363 843.780881 
L 928.324983 834.440197 
" clip-path="url(#p1535a1fa58)" style="fill: none; stroke: #808080; stroke-opacity: 0.3; stroke-width: 0.5; stroke-linecap: square"/>
   </g>
   <g id="line2d_30">
    <path d="M 613.382834 820.224283 
L 626.894609 834.002889 
" clip-path="url(#p1535a1fa58)" style="fill: none; stroke: #808080; stroke-opacity: 0.3; stroke-width: 0.5; stroke-linecap: square"/>
   </g>
   <g id="line2d_31">
    <path d="M 613.382834 820.224283 
L 645.497557 824.294132 
" clip-path="url(#p1535a1fa58)" style="fill: none; stroke: #808080; stroke-opacity: 0.3; stroke-width: 0.5; stroke-linecap: square"/>
   </g>
   <g id="line2d_32">
    <path d="M 613.382834 820.224283 
L 552.365894 783.155057 
" clip-path="url(#p1535a1fa58)" style="fill: none; stroke: #808080; stroke-opacity: 0.3; stroke-width: 0.5; stroke-linecap: square"/>
   </g>
   <g id="line2d_33">
    <path d="M 893.066669 833.762189 
L 928.324983 834.440197 
" clip-path="url(#p1535a1fa58)" style="fill: none; stroke: #808080; stroke-opacity: 0.3; stroke-width: 0.5; stroke-linecap: square"/>
   </g>
   <g id="line2d_34">
    <path d="M 893.066669 833.762189 
L 835.354986 834.827811 
" clip-path="url(#p1535a1fa58)" style="fill: none; stroke: #808080; stroke-opacity: 0.3; stroke-width: 0.5; stroke-linecap: square"/>
   </g>
   <g id="line2d_35">
    <path d="M 645.497557 824.294132 
L 626.894609 834.002889 
" clip-path="url(#p1535a1fa58)" style="fill: none; stroke: #808080; stroke-opacity: 0.3; stroke-width: 0.5; stroke-linecap: square"/>
   </g>
   <g id="line2d_36">
    <path d="M 645.497557 824.294132 
L 668.042761 841.905798 
" clip-path="url(#p1535a1fa58)" style="fill: none; stroke: #808080; stroke-opacity: 0.3; stroke-width: 0.5; stroke-linecap: square"/>
   </g>
   <g id="line2d_37">
    <path d="M 552.365894 783.155057 
L 580.16927 604.051419 
" clip-path="url(#p1535a1fa58)" style="fill: none; stroke: #808080; stroke-opacity: 0.3; stroke-width: 0.5; stroke-linecap: square"/>
   </g>
   <g id="text_1">
    <!-- ECU -->
    <g transform="translate(680.378166 938.094279) scale(0.06 -0.06)">
     <defs>
      <path id="DejaVuSans-45" d="M 628 4666 
L 3578 4666 
L 3578 4134 
L 1259 4134 
L 1259 2753 
L 3481 2753 
L 3481 2222 
L 1259 2222 
L 1259 531 
L 3634 531 
L 3634 0 
L 628 0 
L 628 4666 
z
" transform="scale(0.015625)"/>
      <path id="DejaVuSans-43" d="M 4122 4306 
L 4122 3641 
Q 3803 3938 3442 4084 
Q 3081 4231 2675 4231 
Q 1875 4231 1450 3742 
Q 1025 3253 1025 2328 
Q 1025 1406 1450 917 
Q 1875 428 2675 428 
Q 3081 428 3442 575 
Q 3803 722 4122 1019 
L 4122 359 
Q 3791 134 3420 21 
Q 3050 -91 2638 -91 
Q 1578 -91 968 557 
Q 359 1206 359 2328 
Q 359 3453 968 4101 
Q 1578 4750 2638 4750 
Q 3056 4750 3426 4639 
Q 3797 4528 4122 4306 
z
" transform="scale(0.015625)"/>
      <path id="DejaVuSans-55" d="M 556 4666 
L 1191 4666 
L 1191 1831 
Q 1191 1081 1462 751 
Q 1734 422 2344 422 
Q 2950 422 3222 751 
Q 3494 1081 3494 1831 
L 3494 4666 
L 4128 4666 
L 4128 1753 
Q 4128 841 3676 375 
Q 3225 -91 2344 -91 
Q 1459 -91 1007 375 
Q 556 841 556 1753 
L 556 4666 
z
" transform="scale(0.015625)"/>
     </defs>
     <use xlink:href="#DejaVuSans-45"/>
     <use xlink:href="#DejaVuSans-43" x="63.183594"/>
     <use xlink:href="#DejaVuSans-55" x="133.007812"/>
    </g>
   </g>
   <g id="text_2">
    <!-- SUR -->
    <g transform="translate(922.140296 836.095822) scale(0.06 -0.06)">
     <defs>
      <path id="DejaVuSans-53" d="M 3425 4513 
L 3425 3897 
Q 3066 4069 2747 4153 
Q 2428 4238 2131 4238 
Q 1616 4238 1336 4038 
Q 1056 3838 1056 3469 
Q 1056 3159 1242 3001 
Q 1428 2844 1947 2747 
L 2328 2669 
Q 3034 2534 3370 2195 
Q 3706 1856 3706 1288 
Q 3706 609 3251 259 
Q 2797 -91 1919 -91 
Q 1588 -91 1214 -16 
Q 841 59 441 206 
L 441 856 
Q 825 641 1194 531 
Q 1563 422 1919 422 
Q 2459 422 2753 634 
Q 3047 847 3047 1241 
Q 3047 1584 2836 1778 
Q 2625 1972 2144 2069 
L 1759 2144 
Q 1053 2284 737 2584 
Q 422 2884 422 3419 
Q 422 4038 858 4394 
Q 1294 4750 2059 4750 
Q 2388 4750 2728 4690 
Q 3069 4631 3425 4513 
z
" transform="scale(0.015625)"/>
      <path id="DejaVuSans-52" d="M 2841 2188 
Q 3044 2119 3236 1894 
Q 3428 1669 3622 1275 
L 4263 0 
L 3584 0 
L 2988 1197 
Q 2756 1666 2539 1819 
Q 2322 1972 1947 1972 
L 1259 1972 
L 1259 0 
L 628 0 
L 628 4666 
L 2053 4666 
Q 2853 4666 3247 4331 
Q 3641 3997 3641 3322 
Q 3641 2881 3436 2590 
Q 3231 2300 2841 2188 
z
M 1259 4147 
L 1259 2491 
L 2053 2491 
Q 2509 2491 2742 2702 
Q 2975 2913 2975 3322 
Q 2975 3731 2742 3939 
Q 2509 4147 2053 4147 
L 1259 4147 
z
" transform="scale(0.015625)"/>
     </defs>
     <use xlink:href="#DejaVuSans-53"/>
     <use xlink:href="#DejaVuSans-55" x="63.476562"/>
     <use xlink:href="#DejaVuSans-52" x="136.669922"/>
    </g>
   </g>
   <g id="text_3">
    <!-- BRA -->
    <g transform="translate(911.269302 970.19197) scale(0.06 -0.06)">
     <defs>
      <path id="DejaVuSans-42" d="M 1259 2228 
L 1259 519 
L 2272 519 
Q 2781 519 3026 730 
Q 3272 941 3272 1375 
Q 3272 1813 3026 2020 
Q 2781 2228 2272 2228 
L 1259 2228 
z
M 1259 4147 
L 1259 2741 
L 2194 2741 
Q 2656 2741 2882 2914 
Q 3109 3088 3109 3444 
Q 3109 3797 2882 3972 
Q 2656 4147 2194 4147 
L 1259 4147 
z
M 628 4666 
L 2241 4666 
Q 2963 4666 3353 4366 
Q 3744 4066 3744 3513 
Q 3744 3084 3544 2831 
Q 3344 2578 2956 2516 
Q 3422 2416 3680 2098 
Q 3938 1781 3938 1306 
Q 3938 681 3513 340 
Q 3088 0 2303 0 
L 628 0 
L 628 4666 
z
" transform="scale(0.015625)"/>
      <path id="DejaVuSans-41" d="M 2188 4044 
L 1331 1722 
L 3047 1722 
L 2188 4044 
z
M 1831 4666 
L 2547 4666 
L 4325 0 
L 3669 0 
L 3244 1197 
L 1141 1197 
L 716 0 
L 50 0 
L 1831 4666 
z
" transform="scale(0.015625)"/>
     </defs>
     <use xlink:href="#DejaVuSans-42"/>
     <use xlink:href="#DejaVuSans-52" x="68.603516"/>
     <use xlink:href="#DejaVuSans-41" x="134.085938"/>
    </g>
   </g>
   <g id="text_4">
    <!-- ARG -->
    <g transform="translate(765.650207 1165.133788) scale(0.06 -0.06)">
     <defs>
      <path id="DejaVuSans-47" d="M 3809 666 
L 3809 1919 
L 2778 1919 
L 2778 2438 
L 4434 2438 
L 4434 434 
Q 4069 175 3628 42 
Q 3188 -91 2688 -91 
Q 1594 -91 976 548 
Q 359 1188 359 2328 
Q 359 3472 976 4111 
Q 1594 4750 2688 4750 
Q 3144 4750 3555 4637 
Q 3966 4525 4313 4306 
L 4313 3634 
Q 3963 3931 3569 4081 
Q 3175 4231 2741 4231 
Q 1884 4231 1454 3753 
Q 1025 3275 1025 2328 
Q 1025 1384 1454 906 
Q 1884 428 2741 428 
Q 3075 428 3337 486 
Q 3600 544 3809 666 
z
" transform="scale(0.015625)"/>
     </defs>
     <use xlink:href="#DejaVuSans-41"/>
     <use xlink:href="#DejaVuSans-52" x="68.408203"/>
     <use xlink:href="#DejaVuSans-47" x="137.890625"/>
    </g>
   </g>
   <g id="text_5">
    <!-- NIC -->
    <g transform="translate(662.818542 843.561423) scale(0.06 -0.06)">
     <defs>
      <path id="DejaVuSans-4e" d="M 628 4666 
L 1478 4666 
L 3547 763 
L 3547 4666 
L 4159 4666 
L 4159 0 
L 3309 0 
L 1241 3903 
L 1241 0 
L 628 0 
L 628 4666 
z
" transform="scale(0.015625)"/>
      <path id="DejaVuSans-49" d="M 628 4666 
L 1259 4666 
L 1259 0 
L 628 0 
L 628 4666 
z
" transform="scale(0.015625)"/>
     </defs>
     <use xlink:href="#DejaVuSans-4e"/>
     <use xlink:href="#DejaVuSans-49" x="74.804688"/>
     <use xlink:href="#DejaVuSans-43" x="104.296875"/>
    </g>
   </g>
   <g id="text_6">
    <!-- BLZ -->
    <g transform="translate(618.384165 805.560652) scale(0.06 -0.06)">
     <defs>
      <path id="DejaVuSans-4c" d="M 628 4666 
L 1259 4666 
L 1259 531 
L 3531 531 
L 3531 0 
L 628 0 
L 628 4666 
z
" transform="scale(0.015625)"/>
      <path id="DejaVuSans-5a" d="M 359 4666 
L 4025 4666 
L 4025 4184 
L 1075 531 
L 4097 531 
L 4097 0 
L 288 0 
L 288 481 
L 3238 4134 
L 359 4134 
L 359 4666 
z
" transform="scale(0.015625)"/>
     </defs>
     <use xlink:href="#DejaVuSans-42"/>
     <use xlink:href="#DejaVuSans-4c" x="68.603516"/>
     <use xlink:href="#DejaVuSans-5a" x="124.316406"/>
    </g>
   </g>
   <g id="text_7">
    <!-- BOL -->
    <g transform="translate(775.159205 1055.225771) scale(0.06 -0.06)">
     <defs>
      <path id="DejaVuSans-4f" d="M 2522 4238 
Q 1834 4238 1429 3725 
Q 1025 3213 1025 2328 
Q 1025 1447 1429 934 
Q 1834 422 2522 422 
Q 3209 422 3611 934 
Q 4013 1447 4013 2328 
Q 4013 3213 3611 3725 
Q 3209 4238 2522 4238 
z
M 2522 4750 
Q 3503 4750 4090 4092 
Q 4678 3434 4678 2328 
Q 4678 1225 4090 567 
Q 3503 -91 2522 -91 
Q 1538 -91 948 565 
Q 359 1222 359 2328 
Q 359 3434 948 4092 
Q 1538 4750 2522 4750 
z
" transform="scale(0.015625)"/>
     </defs>
     <use xlink:href="#DejaVuSans-42"/>
     <use xlink:href="#DejaVuSans-4f" x="66.853516"/>
     <use xlink:href="#DejaVuSans-4c" x="145.564453"/>
    </g>
   </g>
   <g id="text_8">
    <!-- HND -->
    <g transform="translate(638.687089 825.949757) scale(0.06 -0.06)">
     <defs>
      <path id="DejaVuSans-48" d="M 628 4666 
L 1259 4666 
L 1259 2753 
L 3553 2753 
L 3553 4666 
L 4184 4666 
L 4184 0 
L 3553 0 
L 3553 2222 
L 1259 2222 
L 1259 0 
L 628 0 
L 628 4666 
z
" transform="scale(0.015625)"/>
      <path id="DejaVuSans-44" d="M 1259 4147 
L 1259 519 
L 2022 519 
Q 2988 519 3436 956 
Q 3884 1394 3884 2338 
Q 3884 3275 3436 3711 
Q 2988 4147 2022 4147 
L 1259 4147 
z
M 628 4666 
L 1925 4666 
Q 3281 4666 3915 4102 
Q 4550 3538 4550 2338 
Q 4550 1131 3912 565 
Q 3275 0 1925 0 
L 628 0 
L 628 4666 
z
" transform="scale(0.015625)"/>
     </defs>
     <use xlink:href="#DejaVuSans-48"/>
     <use xlink:href="#DejaVuSans-4e" x="75.195312"/>
     <use xlink:href="#DejaVuSans-44" x="150"/>
    </g>
   </g>
   <g id="text_9">
    <!-- PRY -->
    <g transform="translate(830.582721 1096.806149) scale(0.06 -0.06)">
     <defs>
      <path id="DejaVuSans-50" d="M 1259 4147 
L 1259 2394 
L 2053 2394 
Q 2494 2394 2734 2622 
Q 2975 2850 2975 3272 
Q 2975 3691 2734 3919 
Q 2494 4147 2053 4147 
L 1259 4147 
z
M 628 4666 
L 2053 4666 
Q 2838 4666 3239 4311 
Q 3641 3956 3641 3272 
Q 3641 2581 3239 2228 
Q 2838 1875 2053 1875 
L 1259 1875 
L 1259 0 
L 628 0 
L 628 4666 
z
" transform="scale(0.015625)"/>
      <path id="DejaVuSans-59" d="M -13 4666 
L 666 4666 
L 1959 2747 
L 3244 4666 
L 3922 4666 
L 2272 2222 
L 2272 0 
L 1638 0 
L 1638 2222 
L -13 4666 
z
" transform="scale(0.015625)"/>
     </defs>
     <use xlink:href="#DejaVuSans-50"/>
     <use xlink:href="#DejaVuSans-52" x="60.302734"/>
     <use xlink:href="#DejaVuSans-59" x="123.410156"/>
    </g>
   </g>
   <g id="text_10">
    <!-- CAN -->
    <g transform="translate(562.07963 353.189688) scale(0.06 -0.06)">
     <use xlink:href="#DejaVuSans-43"/>
     <use xlink:href="#DejaVuSans-41" x="69.824219"/>
     <use xlink:href="#DejaVuSans-4e" x="138.232422"/>
    </g>
   </g>
   <g id="text_11">
    <!-- URY -->
    <g transform="translate(847.113391 1139.412992) scale(0.06 -0.06)">
     <use xlink:href="#DejaVuSans-55"/>
     <use xlink:href="#DejaVuSans-52" x="73.193359"/>
     <use xlink:href="#DejaVuSans-59" x="136.300781"/>
    </g>
   </g>
   <g id="text_12">
    <!-- SLV -->
    <g transform="translate(621.596328 835.658514) scale(0.06 -0.06)">
     <defs>
      <path id="DejaVuSans-56" d="M 1831 0 
L 50 4666 
L 709 4666 
L 2188 738 
L 3669 4666 
L 4325 4666 
L 2547 0 
L 1831 0 
z
" transform="scale(0.015625)"/>
     </defs>
     <use xlink:href="#DejaVuSans-53"/>
     <use xlink:href="#DejaVuSans-4c" x="63.476562"/>
     <use xlink:href="#DejaVuSans-56" x="108.189453"/>
    </g>
   </g>
   <g id="text_13">
    <!-- MEX -->
    <g transform="translate(545.826832 784.810682) scale(0.06 -0.06)">
     <defs>
      <path id="DejaVuSans-4d" d="M 628 4666 
L 1569 4666 
L 2759 1491 
L 3956 4666 
L 4897 4666 
L 4897 0 
L 4281 0 
L 4281 4097 
L 3078 897 
L 2444 897 
L 1241 4097 
L 1241 0 
L 628 0 
L 628 4666 
z
" transform="scale(0.015625)"/>
      <path id="DejaVuSans-58" d="M 403 4666 
L 1081 4666 
L 2241 2931 
L 3406 4666 
L 4084 4666 
L 2584 2425 
L 4184 0 
L 3506 0 
L 2194 1984 
L 872 0 
L 191 0 
L 1856 2491 
L 403 4666 
z
" transform="scale(0.015625)"/>
     </defs>
     <use xlink:href="#DejaVuSans-4d"/>
     <use xlink:href="#DejaVuSans-45" x="86.279297"/>
     <use xlink:href="#DejaVuSans-58" x="149.462891"/>
    </g>
   </g>
   <g id="text_14">
    <!-- CRI -->
    <g transform="translate(668.424876 866.734543) scale(0.06 -0.06)">
     <use xlink:href="#DejaVuSans-43"/>
     <use xlink:href="#DejaVuSans-52" x="69.824219"/>
     <use xlink:href="#DejaVuSans-49" x="139.306641"/>
    </g>
   </g>
   <g id="text_15">
    <!-- PAN -->
    <g transform="translate(687.26968 871.660028) scale(0.06 -0.06)">
     <use xlink:href="#DejaVuSans-50"/>
     <use xlink:href="#DejaVuSans-41" x="53.927734"/>
     <use xlink:href="#DejaVuSans-4e" x="122.335938"/>
    </g>
   </g>
   <g id="text_16">
    <!-- GTM -->
    <g transform="translate(606.746271 821.879908) scale(0.06 -0.06)">
     <defs>
      <path id="DejaVuSans-54" d="M -19 4666 
L 3928 4666 
L 3928 4134 
L 2272 4134 
L 2272 0 
L 1638 0 
L 1638 4134 
L -19 4134 
L -19 4666 
z
" transform="scale(0.015625)"/>
     </defs>
     <use xlink:href="#DejaVuSans-47"/>
     <use xlink:href="#DejaVuSans-54" x="73.865234"/>
     <use xlink:href="#DejaVuSans-4d" x="134.949219"/>
    </g>
   </g>
   <g id="text_17">
    <!-- VEN -->
    <g transform="translate(829.162799 836.483436) scale(0.06 -0.06)">
     <use xlink:href="#DejaVuSans-56"/>
     <use xlink:href="#DejaVuSans-45" x="68.408203"/>
     <use xlink:href="#DejaVuSans-4e" x="131.591797"/>
    </g>
   </g>
   <g id="text_18">
    <!-- CHL -->
    <g transform="translate(702.971959 1083.68508) scale(0.06 -0.06)">
     <use xlink:href="#DejaVuSans-43"/>
     <use xlink:href="#DejaVuSans-48" x="69.824219"/>
     <use xlink:href="#DejaVuSans-4c" x="145.019531"/>
    </g>
   </g>
   <g id="text_19">
    <!-- PER -->
    <g transform="translate(703.35699 1001.568959) scale(0.06 -0.06)">
     <use xlink:href="#DejaVuSans-50"/>
     <use xlink:href="#DejaVuSans-45" x="60.302734"/>
     <use xlink:href="#DejaVuSans-52" x="123.486328"/>
    </g>
   </g>
   <g id="text_20">
    <!-- USA -->
    <g transform="translate(573.960676 605.707044) scale(0.06 -0.06)">
     <use xlink:href="#DejaVuSans-55"/>
     <use xlink:href="#DejaVuSans-53" x="73.193359"/>
     <use xlink:href="#DejaVuSans-41" x="138.544922"/>
    </g>
   </g>
   <g id="text_21">
    <!-- COL -->
    <g transform="translate(733.236972 900.588598) scale(0.06 -0.06)">
     <use xlink:href="#DejaVuSans-43"/>
     <use xlink:href="#DejaVuSans-4f" x="69.824219"/>
     <use xlink:href="#DejaVuSans-4c" x="148.535156"/>
    </g>
   </g>
   <g id="text_22">
    <!-- GUF -->
    <g transform="translate(948.663738 845.436506) scale(0.06 -0.06)">
     <defs>
      <path id="DejaVuSans-46" d="M 628 4666 
L 3309 4666 
L 3309 4134 
L 1259 4134 
L 1259 2759 
L 3109 2759 
L 3109 2228 
L 1259 2228 
L 1259 0 
L 628 0 
L 628 4666 
z
" transform="scale(0.015625)"/>
     </defs>
     <use xlink:href="#DejaVuSans-47"/>
     <use xlink:href="#DejaVuSans-55" x="77.490234"/>
     <use xlink:href="#DejaVuSans-46" x="150.683594"/>
    </g>
   </g>
   <g id="text_23">
    <!-- GUY -->
    <g transform="translate(886.714169 835.417814) scale(0.06 -0.06)">
     <use xlink:href="#DejaVuSans-47"/>
     <use xlink:href="#DejaVuSans-55" x="77.490234"/>
     <use xlink:href="#DejaVuSans-59" x="150.683594"/>
    </g>
   </g>
   <g id="text_24">
    <!-- A:4.50 -->
    <g transform="translate(776.654785 1108.524155) scale(0.04 -0.04)">
     <defs>
      <path id="DejaVuSans-3a" d="M 750 794 
L 1409 794 
L 1409 0 
L 750 0 
L 750 794 
z
M 750 3309 
L 1409 3309 
L 1409 2516 
L 750 2516 
L 750 3309 
z
" transform="scale(0.015625)"/>
      <path id="DejaVuSans-34" d="M 2419 4116 
L 825 1625 
L 2419 1625 
L 2419 4116 
z
M 2253 4666 
L 3047 4666 
L 3047 1625 
L 3713 1625 
L 3713 1100 
L 3047 1100 
L 3047 0 
L 2419 0 
L 2419 1100 
L 313 1100 
L 313 1709 
L 2253 4666 
z
" transform="scale(0.015625)"/>
      <path id="DejaVuSans-2e" d="M 684 794 
L 1344 794 
L 1344 0 
L 684 0 
L 684 794 
z
" transform="scale(0.015625)"/>
      <path id="DejaVuSans-35" d="M 691 4666 
L 3169 4666 
L 3169 4134 
L 1269 4134 
L 1269 2991 
Q 1406 3038 1543 3061 
Q 1681 3084 1819 3084 
Q 2600 3084 3056 2656 
Q 3513 2228 3513 1497 
Q 3513 744 3044 326 
Q 2575 -91 1722 -91 
Q 1428 -91 1123 -41 
Q 819 9 494 109 
L 494 744 
Q 775 591 1075 516 
Q 1375 441 1709 441 
Q 2250 441 2565 725 
Q 2881 1009 2881 1497 
Q 2881 1984 2565 2268 
Q 2250 2553 1709 2553 
Q 1456 2553 1204 2497 
Q 953 2441 691 2322 
L 691 4666 
z
" transform="scale(0.015625)"/>
      <path id="DejaVuSans-30" d="M 2034 4250 
Q 1547 4250 1301 3770 
Q 1056 3291 1056 2328 
Q 1056 1369 1301 889 
Q 1547 409 2034 409 
Q 2525 409 2770 889 
Q 3016 1369 3016 2328 
Q 3016 3291 2770 3770 
Q 2525 4250 2034 4250 
z
M 2034 4750 
Q 2819 4750 3233 4129 
Q 3647 3509 3647 2328 
Q 3647 1150 3233 529 
Q 2819 -91 2034 -91 
Q 1250 -91 836 529 
Q 422 1150 422 2328 
Q 422 3509 836 4129 
Q 1250 4750 2034 4750 
z
" transform="scale(0.015625)"/>
     </defs>
     <use xlink:href="#DejaVuSans-41"/>
     <use xlink:href="#DejaVuSans-3a" x="66.658203"/>
     <use xlink:href="#DejaVuSans-34" x="100.349609"/>
     <use xlink:href="#DejaVuSans-2e" x="163.972656"/>
     <use xlink:href="#DejaVuSans-35" x="195.759766"/>
     <use xlink:href="#DejaVuSans-30" x="259.382812"/>
    </g>
   </g>
   <g id="text_25">
    <!-- D:30.53 -->
    <g transform="translate(844.72788 1061.528129) scale(0.04 -0.04)">
     <defs>
      <path id="DejaVuSans-33" d="M 2597 2516 
Q 3050 2419 3304 2112 
Q 3559 1806 3559 1356 
Q 3559 666 3084 287 
Q 2609 -91 1734 -91 
Q 1441 -91 1130 -33 
Q 819 25 488 141 
L 488 750 
Q 750 597 1062 519 
Q 1375 441 1716 441 
Q 2309 441 2620 675 
Q 2931 909 2931 1356 
Q 2931 1769 2642 2001 
Q 2353 2234 1838 2234 
L 1294 2234 
L 1294 2753 
L 1863 2753 
Q 2328 2753 2575 2939 
Q 2822 3125 2822 3475 
Q 2822 3834 2567 4026 
Q 2313 4219 1838 4219 
Q 1578 4219 1281 4162 
Q 984 4106 628 3988 
L 628 4550 
Q 988 4650 1302 4700 
Q 1616 4750 1894 4750 
Q 2613 4750 3031 4423 
Q 3450 4097 3450 3541 
Q 3450 3153 3228 2886 
Q 3006 2619 2597 2516 
z
" transform="scale(0.015625)"/>
     </defs>
     <use xlink:href="#DejaVuSans-44"/>
     <use xlink:href="#DejaVuSans-3a" x="77.001953"/>
     <use xlink:href="#DejaVuSans-33" x="110.693359"/>
     <use xlink:href="#DejaVuSans-30" x="174.316406"/>
     <use xlink:href="#DejaVuSans-2e" x="237.939453"/>
     <use xlink:href="#DejaVuSans-35" x="269.726562"/>
     <use xlink:href="#DejaVuSans-33" x="333.349609"/>
    </g>
    <!-- A:8.96 -->
    <g transform="translate(844.72788 1066.007254) scale(0.04 -0.04)">
     <defs>
      <path id="DejaVuSans-38" d="M 2034 2216 
Q 1584 2216 1326 1975 
Q 1069 1734 1069 1313 
Q 1069 891 1326 650 
Q 1584 409 2034 409 
Q 2484 409 2743 651 
Q 3003 894 3003 1313 
Q 3003 1734 2745 1975 
Q 2488 2216 2034 2216 
z
M 1403 2484 
Q 997 2584 770 2862 
Q 544 3141 544 3541 
Q 544 4100 942 4425 
Q 1341 4750 2034 4750 
Q 2731 4750 3128 4425 
Q 3525 4100 3525 3541 
Q 3525 3141 3298 2862 
Q 3072 2584 2669 2484 
Q 3125 2378 3379 2068 
Q 3634 1759 3634 1313 
Q 3634 634 3220 271 
Q 2806 -91 2034 -91 
Q 1263 -91 848 271 
Q 434 634 434 1313 
Q 434 1759 690 2068 
Q 947 2378 1403 2484 
z
M 1172 3481 
Q 1172 3119 1398 2916 
Q 1625 2713 2034 2713 
Q 2441 2713 2670 2916 
Q 2900 3119 2900 3481 
Q 2900 3844 2670 4047 
Q 2441 4250 2034 4250 
Q 1625 4250 1398 4047 
Q 1172 3844 1172 3481 
z
" transform="scale(0.015625)"/>
      <path id="DejaVuSans-39" d="M 703 97 
L 703 672 
Q 941 559 1184 500 
Q 1428 441 1663 441 
Q 2288 441 2617 861 
Q 2947 1281 2994 2138 
Q 2813 1869 2534 1725 
Q 2256 1581 1919 1581 
Q 1219 1581 811 2004 
Q 403 2428 403 3163 
Q 403 3881 828 4315 
Q 1253 4750 1959 4750 
Q 2769 4750 3195 4129 
Q 3622 3509 3622 2328 
Q 3622 1225 3098 567 
Q 2575 -91 1691 -91 
Q 1453 -91 1209 -44 
Q 966 3 703 97 
z
M 1959 2075 
Q 2384 2075 2632 2365 
Q 2881 2656 2881 3163 
Q 2881 3666 2632 3958 
Q 2384 4250 1959 4250 
Q 1534 4250 1286 3958 
Q 1038 3666 1038 3163 
Q 1038 2656 1286 2365 
Q 1534 2075 1959 2075 
z
" transform="scale(0.015625)"/>
      <path id="DejaVuSans-36" d="M 2113 2584 
Q 1688 2584 1439 2293 
Q 1191 2003 1191 1497 
Q 1191 994 1439 701 
Q 1688 409 2113 409 
Q 2538 409 2786 701 
Q 3034 994 3034 1497 
Q 3034 2003 2786 2293 
Q 2538 2584 2113 2584 
z
M 3366 4563 
L 3366 3988 
Q 3128 4100 2886 4159 
Q 2644 4219 2406 4219 
Q 1781 4219 1451 3797 
Q 1122 3375 1075 2522 
Q 1259 2794 1537 2939 
Q 1816 3084 2150 3084 
Q 2853 3084 3261 2657 
Q 3669 2231 3669 1497 
Q 3669 778 3244 343 
Q 2819 -91 2113 -91 
Q 1303 -91 875 529 
Q 447 1150 447 2328 
Q 447 3434 972 4092 
Q 1497 4750 2381 4750 
Q 2619 4750 2861 4703 
Q 3103 4656 3366 4563 
z
" transform="scale(0.015625)"/>
     </defs>
     <use xlink:href="#DejaVuSans-41"/>
     <use xlink:href="#DejaVuSans-3a" x="66.658203"/>
     <use xlink:href="#DejaVuSans-38" x="100.349609"/>
     <use xlink:href="#DejaVuSans-2e" x="163.972656"/>
     <use xlink:href="#DejaVuSans-39" x="195.759766"/>
     <use xlink:href="#DejaVuSans-36" x="259.382812"/>
    </g>
   </g>
   <g id="text_26">
    <!-- A:8.96 -->
    <g transform="translate(844.72788 1066.007254) scale(0.04 -0.04)">
     <use xlink:href="#DejaVuSans-41"/>
     <use xlink:href="#DejaVuSans-3a" x="66.658203"/>
     <use xlink:href="#DejaVuSans-38" x="100.349609"/>
     <use xlink:href="#DejaVuSans-2e" x="163.972656"/>
     <use xlink:href="#DejaVuSans-39" x="195.759766"/>
     <use xlink:href="#DejaVuSans-36" x="259.382812"/>
    </g>
   </g>
   <g id="text_27">
    <!-- D:0.00 -->
    <g transform="translate(740.552958 1118.274684) scale(0.04 -0.04)">
     <use xlink:href="#DejaVuSans-44"/>
     <use xlink:href="#DejaVuSans-3a" x="77.001953"/>
     <use xlink:href="#DejaVuSans-30" x="110.693359"/>
     <use xlink:href="#DejaVuSans-2e" x="174.316406"/>
     <use xlink:href="#DejaVuSans-30" x="206.103516"/>
     <use xlink:href="#DejaVuSans-30" x="269.726562"/>
    </g>
    <!-- A:12.49 -->
    <g transform="translate(740.552958 1122.753809) scale(0.04 -0.04)">
     <defs>
      <path id="DejaVuSans-31" d="M 794 531 
L 1825 531 
L 1825 4091 
L 703 3866 
L 703 4441 
L 1819 4666 
L 2450 4666 
L 2450 531 
L 3481 531 
L 3481 0 
L 794 0 
L 794 531 
z
" transform="scale(0.015625)"/>
      <path id="DejaVuSans-32" d="M 1228 531 
L 3431 531 
L 3431 0 
L 469 0 
L 469 531 
Q 828 903 1448 1529 
Q 2069 2156 2228 2338 
Q 2531 2678 2651 2914 
Q 2772 3150 2772 3378 
Q 2772 3750 2511 3984 
Q 2250 4219 1831 4219 
Q 1534 4219 1204 4116 
Q 875 4013 500 3803 
L 500 4441 
Q 881 4594 1212 4672 
Q 1544 4750 1819 4750 
Q 2544 4750 2975 4387 
Q 3406 4025 3406 3419 
Q 3406 3131 3298 2873 
Q 3191 2616 2906 2266 
Q 2828 2175 2409 1742 
Q 1991 1309 1228 531 
z
" transform="scale(0.015625)"/>
     </defs>
     <use xlink:href="#DejaVuSans-41"/>
     <use xlink:href="#DejaVuSans-3a" x="66.658203"/>
     <use xlink:href="#DejaVuSans-31" x="100.349609"/>
     <use xlink:href="#DejaVuSans-32" x="163.972656"/>
     <use xlink:href="#DejaVuSans-2e" x="227.595703"/>
     <use xlink:href="#DejaVuSans-34" x="259.382812"/>
     <use xlink:href="#DejaVuSans-39" x="323.005859"/>
    </g>
   </g>
   <g id="text_28">
    <!-- A:12.49 -->
    <g transform="translate(740.552958 1122.753809) scale(0.04 -0.04)">
     <use xlink:href="#DejaVuSans-41"/>
     <use xlink:href="#DejaVuSans-3a" x="66.658203"/>
     <use xlink:href="#DejaVuSans-31" x="100.349609"/>
     <use xlink:href="#DejaVuSans-32" x="163.972656"/>
     <use xlink:href="#DejaVuSans-2e" x="227.595703"/>
     <use xlink:href="#DejaVuSans-34" x="259.382812"/>
     <use xlink:href="#DejaVuSans-39" x="323.005859"/>
    </g>
   </g>
   <g id="text_29">
    <!-- A:8.07 -->
    <g transform="translate(804.114355 1129.314344) scale(0.04 -0.04)">
     <defs>
      <path id="DejaVuSans-37" d="M 525 4666 
L 3525 4666 
L 3525 4397 
L 1831 0 
L 1172 0 
L 2766 4134 
L 525 4134 
L 525 4666 
z
" transform="scale(0.015625)"/>
     </defs>
     <use xlink:href="#DejaVuSans-41"/>
     <use xlink:href="#DejaVuSans-3a" x="66.658203"/>
     <use xlink:href="#DejaVuSans-38" x="100.349609"/>
     <use xlink:href="#DejaVuSans-2e" x="163.972656"/>
     <use xlink:href="#DejaVuSans-30" x="195.759766"/>
     <use xlink:href="#DejaVuSans-37" x="259.382812"/>
    </g>
   </g>
   <g id="text_30">
    <!-- A:5.84 -->
    <g transform="translate(812.573049 1150.617765) scale(0.04 -0.04)">
     <use xlink:href="#DejaVuSans-41"/>
     <use xlink:href="#DejaVuSans-3a" x="66.658203"/>
     <use xlink:href="#DejaVuSans-35" x="100.349609"/>
     <use xlink:href="#DejaVuSans-2e" x="163.972656"/>
     <use xlink:href="#DejaVuSans-38" x="195.759766"/>
     <use xlink:href="#DejaVuSans-34" x="259.382812"/>
    </g>
   </g>
   <g id="text_31">
    <!-- A:1.67 -->
    <g transform="translate(849.271207 1011.053245) scale(0.04 -0.04)">
     <use xlink:href="#DejaVuSans-41"/>
     <use xlink:href="#DejaVuSans-3a" x="66.658203"/>
     <use xlink:href="#DejaVuSans-31" x="100.349609"/>
     <use xlink:href="#DejaVuSans-2e" x="163.972656"/>
     <use xlink:href="#DejaVuSans-36" x="195.759766"/>
     <use xlink:href="#DejaVuSans-37" x="259.382812"/>
    </g>
   </g>
   <g id="text_32">
    <!-- A:24.28 -->
    <g transform="translate(745.096285 1067.7998) scale(0.04 -0.04)">
     <use xlink:href="#DejaVuSans-41"/>
     <use xlink:href="#DejaVuSans-3a" x="66.658203"/>
     <use xlink:href="#DejaVuSans-32" x="100.349609"/>
     <use xlink:href="#DejaVuSans-34" x="163.972656"/>
     <use xlink:href="#DejaVuSans-2e" x="227.595703"/>
     <use xlink:href="#DejaVuSans-32" x="259.382812"/>
     <use xlink:href="#DejaVuSans-38" x="323.005859"/>
    </g>
   </g>
   <g id="text_33">
    <!-- D:0.60 -->
    <g transform="translate(808.657682 1069.88121) scale(0.04 -0.04)">
     <use xlink:href="#DejaVuSans-44"/>
     <use xlink:href="#DejaVuSans-3a" x="77.001953"/>
     <use xlink:href="#DejaVuSans-30" x="110.693359"/>
     <use xlink:href="#DejaVuSans-2e" x="174.316406"/>
     <use xlink:href="#DejaVuSans-36" x="206.103516"/>
     <use xlink:href="#DejaVuSans-30" x="269.726562"/>
    </g>
    <!-- A:1.93 -->
    <g transform="translate(808.657682 1074.360335) scale(0.04 -0.04)">
     <use xlink:href="#DejaVuSans-41"/>
     <use xlink:href="#DejaVuSans-3a" x="66.658203"/>
     <use xlink:href="#DejaVuSans-31" x="100.349609"/>
     <use xlink:href="#DejaVuSans-2e" x="163.972656"/>
     <use xlink:href="#DejaVuSans-39" x="195.759766"/>
     <use xlink:href="#DejaVuSans-33" x="259.382812"/>
    </g>
   </g>
   <g id="text_34">
    <!-- A:1.93 -->
    <g transform="translate(808.657682 1074.360335) scale(0.04 -0.04)">
     <use xlink:href="#DejaVuSans-41"/>
     <use xlink:href="#DejaVuSans-3a" x="66.658203"/>
     <use xlink:href="#DejaVuSans-31" x="100.349609"/>
     <use xlink:href="#DejaVuSans-2e" x="163.972656"/>
     <use xlink:href="#DejaVuSans-39" x="195.759766"/>
     <use xlink:href="#DejaVuSans-33" x="259.382812"/>
    </g>
   </g>
   <g id="text_35">
    <!-- D:1.38 -->
    <g transform="translate(745.172082 1022.262615) scale(0.04 -0.04)">
     <use xlink:href="#DejaVuSans-44"/>
     <use xlink:href="#DejaVuSans-3a" x="77.001953"/>
     <use xlink:href="#DejaVuSans-31" x="110.693359"/>
     <use xlink:href="#DejaVuSans-2e" x="174.316406"/>
     <use xlink:href="#DejaVuSans-33" x="206.103516"/>
     <use xlink:href="#DejaVuSans-38" x="269.726562"/>
    </g>
    <!-- A:2.34 -->
    <g transform="translate(745.172082 1026.74174) scale(0.04 -0.04)">
     <use xlink:href="#DejaVuSans-41"/>
     <use xlink:href="#DejaVuSans-3a" x="66.658203"/>
     <use xlink:href="#DejaVuSans-32" x="100.349609"/>
     <use xlink:href="#DejaVuSans-2e" x="163.972656"/>
     <use xlink:href="#DejaVuSans-33" x="195.759766"/>
     <use xlink:href="#DejaVuSans-34" x="259.382812"/>
    </g>
   </g>
   <g id="text_36">
    <!-- A:2.34 -->
    <g transform="translate(745.172082 1026.74174) scale(0.04 -0.04)">
     <use xlink:href="#DejaVuSans-41"/>
     <use xlink:href="#DejaVuSans-3a" x="66.658203"/>
     <use xlink:href="#DejaVuSans-32" x="100.349609"/>
     <use xlink:href="#DejaVuSans-2e" x="163.972656"/>
     <use xlink:href="#DejaVuSans-33" x="195.759766"/>
     <use xlink:href="#DejaVuSans-34" x="259.382812"/>
    </g>
   </g>
   <g id="text_37">
    <!-- D:18.03 -->
    <g transform="translate(828.354622 929.255534) scale(0.04 -0.04)">
     <use xlink:href="#DejaVuSans-44"/>
     <use xlink:href="#DejaVuSans-3a" x="77.001953"/>
     <use xlink:href="#DejaVuSans-31" x="110.693359"/>
     <use xlink:href="#DejaVuSans-38" x="174.316406"/>
     <use xlink:href="#DejaVuSans-2e" x="237.939453"/>
     <use xlink:href="#DejaVuSans-30" x="269.726562"/>
     <use xlink:href="#DejaVuSans-33" x="333.349609"/>
    </g>
    <!-- A:10.06 -->
    <g transform="translate(828.354622 933.734659) scale(0.04 -0.04)">
     <use xlink:href="#DejaVuSans-41"/>
     <use xlink:href="#DejaVuSans-3a" x="66.658203"/>
     <use xlink:href="#DejaVuSans-31" x="100.349609"/>
     <use xlink:href="#DejaVuSans-30" x="163.972656"/>
     <use xlink:href="#DejaVuSans-2e" x="227.595703"/>
     <use xlink:href="#DejaVuSans-30" x="259.382812"/>
     <use xlink:href="#DejaVuSans-36" x="323.005859"/>
    </g>
   </g>
   <g id="text_38">
    <!-- A:10.06 -->
    <g transform="translate(828.354622 933.734659) scale(0.04 -0.04)">
     <use xlink:href="#DejaVuSans-41"/>
     <use xlink:href="#DejaVuSans-3a" x="66.658203"/>
     <use xlink:href="#DejaVuSans-31" x="100.349609"/>
     <use xlink:href="#DejaVuSans-30" x="163.972656"/>
     <use xlink:href="#DejaVuSans-2e" x="227.595703"/>
     <use xlink:href="#DejaVuSans-30" x="259.382812"/>
     <use xlink:href="#DejaVuSans-36" x="323.005859"/>
    </g>
   </g>
   <g id="text_39">
    <!-- D:0.02 -->
    <g transform="translate(936.126832 901.679488) scale(0.04 -0.04)">
     <use xlink:href="#DejaVuSans-44"/>
     <use xlink:href="#DejaVuSans-3a" x="77.001953"/>
     <use xlink:href="#DejaVuSans-30" x="110.693359"/>
     <use xlink:href="#DejaVuSans-2e" x="174.316406"/>
     <use xlink:href="#DejaVuSans-30" x="206.103516"/>
     <use xlink:href="#DejaVuSans-32" x="269.726562"/>
    </g>
    <!-- A:4.79 -->
    <g transform="translate(936.126832 906.158613) scale(0.04 -0.04)">
     <use xlink:href="#DejaVuSans-41"/>
     <use xlink:href="#DejaVuSans-3a" x="66.658203"/>
     <use xlink:href="#DejaVuSans-34" x="100.349609"/>
     <use xlink:href="#DejaVuSans-2e" x="163.972656"/>
     <use xlink:href="#DejaVuSans-37" x="195.759766"/>
     <use xlink:href="#DejaVuSans-39" x="259.382812"/>
    </g>
   </g>
   <g id="text_40">
    <!-- A:4.79 -->
    <g transform="translate(936.126832 906.158613) scale(0.04 -0.04)">
     <use xlink:href="#DejaVuSans-41"/>
     <use xlink:href="#DejaVuSans-3a" x="66.658203"/>
     <use xlink:href="#DejaVuSans-34" x="100.349609"/>
     <use xlink:href="#DejaVuSans-2e" x="163.972656"/>
     <use xlink:href="#DejaVuSans-37" x="195.759766"/>
     <use xlink:href="#DejaVuSans-39" x="259.382812"/>
    </g>
   </g>
   <g id="text_41">
    <!-- A:2.62 -->
    <g transform="translate(905.205485 901.149267) scale(0.04 -0.04)">
     <use xlink:href="#DejaVuSans-41"/>
     <use xlink:href="#DejaVuSans-3a" x="66.658203"/>
     <use xlink:href="#DejaVuSans-32" x="100.349609"/>
     <use xlink:href="#DejaVuSans-2e" x="163.972656"/>
     <use xlink:href="#DejaVuSans-36" x="195.759766"/>
     <use xlink:href="#DejaVuSans-32" x="259.382812"/>
    </g>
   </g>
   <g id="text_42">
    <!-- D:4.16 -->
    <g transform="translate(876.730777 1027.36431) scale(0.04 -0.04)">
     <use xlink:href="#DejaVuSans-44"/>
     <use xlink:href="#DejaVuSans-3a" x="77.001953"/>
     <use xlink:href="#DejaVuSans-34" x="110.693359"/>
     <use xlink:href="#DejaVuSans-2e" x="174.316406"/>
     <use xlink:href="#DejaVuSans-31" x="206.103516"/>
     <use xlink:href="#DejaVuSans-36" x="269.726562"/>
    </g>
    <!-- A:10.94 -->
    <g transform="translate(876.730777 1031.843435) scale(0.04 -0.04)">
     <use xlink:href="#DejaVuSans-41"/>
     <use xlink:href="#DejaVuSans-3a" x="66.658203"/>
     <use xlink:href="#DejaVuSans-31" x="100.349609"/>
     <use xlink:href="#DejaVuSans-30" x="163.972656"/>
     <use xlink:href="#DejaVuSans-2e" x="227.595703"/>
     <use xlink:href="#DejaVuSans-39" x="259.382812"/>
     <use xlink:href="#DejaVuSans-34" x="323.005859"/>
    </g>
   </g>
   <g id="text_43">
    <!-- A:10.94 -->
    <g transform="translate(876.730777 1031.843435) scale(0.04 -0.04)">
     <use xlink:href="#DejaVuSans-41"/>
     <use xlink:href="#DejaVuSans-3a" x="66.658203"/>
     <use xlink:href="#DejaVuSans-31" x="100.349609"/>
     <use xlink:href="#DejaVuSans-30" x="163.972656"/>
     <use xlink:href="#DejaVuSans-2e" x="227.595703"/>
     <use xlink:href="#DejaVuSans-39" x="259.382812"/>
     <use xlink:href="#DejaVuSans-34" x="323.005859"/>
    </g>
   </g>
   <g id="text_44">
    <!-- D:27.95 -->
    <g transform="translate(813.245177 979.745715) scale(0.04 -0.04)">
     <use xlink:href="#DejaVuSans-44"/>
     <use xlink:href="#DejaVuSans-3a" x="77.001953"/>
     <use xlink:href="#DejaVuSans-32" x="110.693359"/>
     <use xlink:href="#DejaVuSans-37" x="174.316406"/>
     <use xlink:href="#DejaVuSans-2e" x="237.939453"/>
     <use xlink:href="#DejaVuSans-39" x="269.726562"/>
     <use xlink:href="#DejaVuSans-35" x="333.349609"/>
    </g>
    <!-- A:4.76 -->
    <g transform="translate(813.245177 984.22484) scale(0.04 -0.04)">
     <use xlink:href="#DejaVuSans-41"/>
     <use xlink:href="#DejaVuSans-3a" x="66.658203"/>
     <use xlink:href="#DejaVuSans-34" x="100.349609"/>
     <use xlink:href="#DejaVuSans-2e" x="163.972656"/>
     <use xlink:href="#DejaVuSans-37" x="195.759766"/>
     <use xlink:href="#DejaVuSans-36" x="259.382812"/>
    </g>
   </g>
   <g id="text_45">
    <!-- A:4.76 -->
    <g transform="translate(813.245177 984.22484) scale(0.04 -0.04)">
     <use xlink:href="#DejaVuSans-41"/>
     <use xlink:href="#DejaVuSans-3a" x="66.658203"/>
     <use xlink:href="#DejaVuSans-34" x="100.349609"/>
     <use xlink:href="#DejaVuSans-2e" x="163.972656"/>
     <use xlink:href="#DejaVuSans-37" x="195.759766"/>
     <use xlink:href="#DejaVuSans-36" x="259.382812"/>
    </g>
   </g>
   <g id="text_46">
    <!-- A:4.87 -->
    <g transform="translate(922.834643 901.488271) scale(0.04 -0.04)">
     <use xlink:href="#DejaVuSans-41"/>
     <use xlink:href="#DejaVuSans-3a" x="66.658203"/>
     <use xlink:href="#DejaVuSans-34" x="100.349609"/>
     <use xlink:href="#DejaVuSans-2e" x="163.972656"/>
     <use xlink:href="#DejaVuSans-38" x="195.759766"/>
     <use xlink:href="#DejaVuSans-37" x="259.382812"/>
    </g>
   </g>
   <g id="text_47">
    <!-- D:33.31 -->
    <g transform="translate(885.189472 1048.667731) scale(0.04 -0.04)">
     <use xlink:href="#DejaVuSans-44"/>
     <use xlink:href="#DejaVuSans-3a" x="77.001953"/>
     <use xlink:href="#DejaVuSans-33" x="110.693359"/>
     <use xlink:href="#DejaVuSans-33" x="174.316406"/>
     <use xlink:href="#DejaVuSans-2e" x="237.939453"/>
     <use xlink:href="#DejaVuSans-33" x="269.726562"/>
     <use xlink:href="#DejaVuSans-31" x="333.349609"/>
    </g>
    <!-- A:10.18 -->
    <g transform="translate(885.189472 1053.146856) scale(0.04 -0.04)">
     <use xlink:href="#DejaVuSans-41"/>
     <use xlink:href="#DejaVuSans-3a" x="66.658203"/>
     <use xlink:href="#DejaVuSans-31" x="100.349609"/>
     <use xlink:href="#DejaVuSans-30" x="163.972656"/>
     <use xlink:href="#DejaVuSans-2e" x="227.595703"/>
     <use xlink:href="#DejaVuSans-31" x="259.382812"/>
     <use xlink:href="#DejaVuSans-38" x="323.005859"/>
    </g>
   </g>
   <g id="text_48">
    <!-- A:10.18 -->
    <g transform="translate(885.189472 1053.146856) scale(0.04 -0.04)">
     <use xlink:href="#DejaVuSans-41"/>
     <use xlink:href="#DejaVuSans-3a" x="66.658203"/>
     <use xlink:href="#DejaVuSans-31" x="100.349609"/>
     <use xlink:href="#DejaVuSans-30" x="163.972656"/>
     <use xlink:href="#DejaVuSans-2e" x="227.595703"/>
     <use xlink:href="#DejaVuSans-31" x="259.382812"/>
     <use xlink:href="#DejaVuSans-38" x="323.005859"/>
    </g>
   </g>
   <g id="text_49">
    <!-- A:0.05 -->
    <g transform="translate(876.349644 901.682078) scale(0.04 -0.04)">
     <use xlink:href="#DejaVuSans-41"/>
     <use xlink:href="#DejaVuSans-3a" x="66.658203"/>
     <use xlink:href="#DejaVuSans-30" x="100.349609"/>
     <use xlink:href="#DejaVuSans-2e" x="163.972656"/>
     <use xlink:href="#DejaVuSans-30" x="195.759766"/>
     <use xlink:href="#DejaVuSans-35" x="259.382812"/>
    </g>
   </g>
   <g id="text_50">
    <!-- D:0.03 -->
    <g transform="translate(618.775921 807.58553) scale(0.04 -0.04)">
     <use xlink:href="#DejaVuSans-44"/>
     <use xlink:href="#DejaVuSans-3a" x="77.001953"/>
     <use xlink:href="#DejaVuSans-30" x="110.693359"/>
     <use xlink:href="#DejaVuSans-2e" x="174.316406"/>
     <use xlink:href="#DejaVuSans-30" x="206.103516"/>
     <use xlink:href="#DejaVuSans-33" x="269.726562"/>
    </g>
    <!-- A:3.34 -->
    <g transform="translate(618.775921 812.064655) scale(0.04 -0.04)">
     <use xlink:href="#DejaVuSans-41"/>
     <use xlink:href="#DejaVuSans-3a" x="66.658203"/>
     <use xlink:href="#DejaVuSans-33" x="100.349609"/>
     <use xlink:href="#DejaVuSans-2e" x="163.972656"/>
     <use xlink:href="#DejaVuSans-33" x="195.759766"/>
     <use xlink:href="#DejaVuSans-34" x="259.382812"/>
    </g>
   </g>
   <g id="text_51">
    <!-- A:3.34 -->
    <g transform="translate(618.775921 812.064655) scale(0.04 -0.04)">
     <use xlink:href="#DejaVuSans-41"/>
     <use xlink:href="#DejaVuSans-3a" x="66.658203"/>
     <use xlink:href="#DejaVuSans-33" x="100.349609"/>
     <use xlink:href="#DejaVuSans-2e" x="163.972656"/>
     <use xlink:href="#DejaVuSans-33" x="195.759766"/>
     <use xlink:href="#DejaVuSans-34" x="259.382812"/>
    </g>
   </g>
   <g id="text_52">
    <!-- D:18.49 -->
    <g transform="translate(588.267452 789.050917) scale(0.04 -0.04)">
     <use xlink:href="#DejaVuSans-44"/>
     <use xlink:href="#DejaVuSans-3a" x="77.001953"/>
     <use xlink:href="#DejaVuSans-31" x="110.693359"/>
     <use xlink:href="#DejaVuSans-38" x="174.316406"/>
     <use xlink:href="#DejaVuSans-2e" x="237.939453"/>
     <use xlink:href="#DejaVuSans-34" x="269.726562"/>
     <use xlink:href="#DejaVuSans-39" x="333.349609"/>
    </g>
    <!-- A:4.22 -->
    <g transform="translate(588.267452 793.530042) scale(0.04 -0.04)">
     <use xlink:href="#DejaVuSans-41"/>
     <use xlink:href="#DejaVuSans-3a" x="66.658203"/>
     <use xlink:href="#DejaVuSans-34" x="100.349609"/>
     <use xlink:href="#DejaVuSans-2e" x="163.972656"/>
     <use xlink:href="#DejaVuSans-32" x="195.759766"/>
     <use xlink:href="#DejaVuSans-32" x="259.382812"/>
    </g>
   </g>
   <g id="text_53">
    <!-- A:4.22 -->
    <g transform="translate(588.267452 793.530042) scale(0.04 -0.04)">
     <use xlink:href="#DejaVuSans-41"/>
     <use xlink:href="#DejaVuSans-3a" x="66.658203"/>
     <use xlink:href="#DejaVuSans-34" x="100.349609"/>
     <use xlink:href="#DejaVuSans-2e" x="163.972656"/>
     <use xlink:href="#DejaVuSans-32" x="195.759766"/>
     <use xlink:href="#DejaVuSans-32" x="259.382812"/>
    </g>
   </g>
   <g id="text_54">
    <!-- D:0.05 -->
    <g transform="translate(574.320153 473.313616) scale(0.04 -0.04)">
     <use xlink:href="#DejaVuSans-44"/>
     <use xlink:href="#DejaVuSans-3a" x="77.001953"/>
     <use xlink:href="#DejaVuSans-30" x="110.693359"/>
     <use xlink:href="#DejaVuSans-2e" x="174.316406"/>
     <use xlink:href="#DejaVuSans-30" x="206.103516"/>
     <use xlink:href="#DejaVuSans-35" x="269.726562"/>
    </g>
    <!-- A:4.36 -->
    <g transform="translate(574.320153 477.792741) scale(0.04 -0.04)">
     <use xlink:href="#DejaVuSans-41"/>
     <use xlink:href="#DejaVuSans-3a" x="66.658203"/>
     <use xlink:href="#DejaVuSans-34" x="100.349609"/>
     <use xlink:href="#DejaVuSans-2e" x="163.972656"/>
     <use xlink:href="#DejaVuSans-33" x="195.759766"/>
     <use xlink:href="#DejaVuSans-36" x="259.382812"/>
    </g>
   </g>
   <g id="text_55">
    <!-- A:4.36 -->
    <g transform="translate(574.320153 477.792741) scale(0.04 -0.04)">
     <use xlink:href="#DejaVuSans-41"/>
     <use xlink:href="#DejaVuSans-3a" x="66.658203"/>
     <use xlink:href="#DejaVuSans-34" x="100.349609"/>
     <use xlink:href="#DejaVuSans-2e" x="163.972656"/>
     <use xlink:href="#DejaVuSans-33" x="195.759766"/>
     <use xlink:href="#DejaVuSans-36" x="259.382812"/>
    </g>
   </g>
   <g id="text_56">
    <!-- D:0.93 -->
    <g transform="translate(709.070256 1036.49227) scale(0.04 -0.04)">
     <use xlink:href="#DejaVuSans-44"/>
     <use xlink:href="#DejaVuSans-3a" x="77.001953"/>
     <use xlink:href="#DejaVuSans-30" x="110.693359"/>
     <use xlink:href="#DejaVuSans-2e" x="174.316406"/>
     <use xlink:href="#DejaVuSans-39" x="206.103516"/>
     <use xlink:href="#DejaVuSans-33" x="269.726562"/>
    </g>
    <!-- A:7.86 -->
    <g transform="translate(709.070256 1040.971395) scale(0.04 -0.04)">
     <use xlink:href="#DejaVuSans-41"/>
     <use xlink:href="#DejaVuSans-3a" x="66.658203"/>
     <use xlink:href="#DejaVuSans-37" x="100.349609"/>
     <use xlink:href="#DejaVuSans-2e" x="163.972656"/>
     <use xlink:href="#DejaVuSans-38" x="195.759766"/>
     <use xlink:href="#DejaVuSans-36" x="259.382812"/>
    </g>
   </g>
   <g id="text_57">
    <!-- A:7.86 -->
    <g transform="translate(709.070256 1040.971395) scale(0.04 -0.04)">
     <use xlink:href="#DejaVuSans-41"/>
     <use xlink:href="#DejaVuSans-3a" x="66.658203"/>
     <use xlink:href="#DejaVuSans-37" x="100.349609"/>
     <use xlink:href="#DejaVuSans-2e" x="163.972656"/>
     <use xlink:href="#DejaVuSans-38" x="195.759766"/>
     <use xlink:href="#DejaVuSans-36" x="259.382812"/>
    </g>
   </g>
   <g id="text_58">
    <!-- A:6.72 -->
    <g transform="translate(712.964601 917.685813) scale(0.04 -0.04)">
     <use xlink:href="#DejaVuSans-41"/>
     <use xlink:href="#DejaVuSans-3a" x="66.658203"/>
     <use xlink:href="#DejaVuSans-36" x="100.349609"/>
     <use xlink:href="#DejaVuSans-2e" x="163.972656"/>
     <use xlink:href="#DejaVuSans-37" x="195.759766"/>
     <use xlink:href="#DejaVuSans-32" x="259.382812"/>
    </g>
   </g>
   <g id="text_59">
    <!-- A:0.03 -->
    <g transform="translate(716.27442 884.468688) scale(0.04 -0.04)">
     <use xlink:href="#DejaVuSans-41"/>
     <use xlink:href="#DejaVuSans-3a" x="66.658203"/>
     <use xlink:href="#DejaVuSans-30" x="100.349609"/>
     <use xlink:href="#DejaVuSans-2e" x="163.972656"/>
     <use xlink:href="#DejaVuSans-30" x="195.759766"/>
     <use xlink:href="#DejaVuSans-33" x="259.382812"/>
    </g>
   </g>
   <g id="text_60">
    <!-- D:17.85 -->
    <g transform="translate(724.255497 944.944029) scale(0.04 -0.04)">
     <use xlink:href="#DejaVuSans-44"/>
     <use xlink:href="#DejaVuSans-3a" x="77.001953"/>
     <use xlink:href="#DejaVuSans-31" x="110.693359"/>
     <use xlink:href="#DejaVuSans-37" x="174.316406"/>
     <use xlink:href="#DejaVuSans-2e" x="237.939453"/>
     <use xlink:href="#DejaVuSans-38" x="269.726562"/>
     <use xlink:href="#DejaVuSans-35" x="333.349609"/>
    </g>
    <!-- A:0.40 -->
    <g transform="translate(724.255497 949.423154) scale(0.04 -0.04)">
     <use xlink:href="#DejaVuSans-41"/>
     <use xlink:href="#DejaVuSans-3a" x="66.658203"/>
     <use xlink:href="#DejaVuSans-30" x="100.349609"/>
     <use xlink:href="#DejaVuSans-2e" x="163.972656"/>
     <use xlink:href="#DejaVuSans-34" x="195.759766"/>
     <use xlink:href="#DejaVuSans-30" x="259.382812"/>
    </g>
   </g>
   <g id="text_61">
    <!-- A:0.40 -->
    <g transform="translate(724.255497 949.423154) scale(0.04 -0.04)">
     <use xlink:href="#DejaVuSans-41"/>
     <use xlink:href="#DejaVuSans-3a" x="66.658203"/>
     <use xlink:href="#DejaVuSans-30" x="100.349609"/>
     <use xlink:href="#DejaVuSans-2e" x="163.972656"/>
     <use xlink:href="#DejaVuSans-34" x="195.759766"/>
     <use xlink:href="#DejaVuSans-30" x="259.382812"/>
    </g>
   </g>
   <g id="text_62">
    <!-- D:40.29 -->
    <g transform="translate(787.359964 862.401267) scale(0.04 -0.04)">
     <use xlink:href="#DejaVuSans-44"/>
     <use xlink:href="#DejaVuSans-3a" x="77.001953"/>
     <use xlink:href="#DejaVuSans-34" x="110.693359"/>
     <use xlink:href="#DejaVuSans-30" x="174.316406"/>
     <use xlink:href="#DejaVuSans-2e" x="237.939453"/>
     <use xlink:href="#DejaVuSans-32" x="269.726562"/>
     <use xlink:href="#DejaVuSans-39" x="333.349609"/>
    </g>
    <!-- A:0.03 -->
    <g transform="translate(787.359964 866.880392) scale(0.04 -0.04)">
     <use xlink:href="#DejaVuSans-41"/>
     <use xlink:href="#DejaVuSans-3a" x="66.658203"/>
     <use xlink:href="#DejaVuSans-30" x="100.349609"/>
     <use xlink:href="#DejaVuSans-2e" x="163.972656"/>
     <use xlink:href="#DejaVuSans-30" x="195.759766"/>
     <use xlink:href="#DejaVuSans-33" x="259.382812"/>
    </g>
   </g>
   <g id="text_63">
    <!-- A:0.03 -->
    <g transform="translate(787.359964 866.880392) scale(0.04 -0.04)">
     <use xlink:href="#DejaVuSans-41"/>
     <use xlink:href="#DejaVuSans-3a" x="66.658203"/>
     <use xlink:href="#DejaVuSans-30" x="100.349609"/>
     <use xlink:href="#DejaVuSans-2e" x="163.972656"/>
     <use xlink:href="#DejaVuSans-30" x="195.759766"/>
     <use xlink:href="#DejaVuSans-33" x="259.382812"/>
    </g>
   </g>
   <g id="text_64">
    <!-- A:2.89 -->
    <g transform="translate(670.766006 853.492358) scale(0.04 -0.04)">
     <use xlink:href="#DejaVuSans-41"/>
     <use xlink:href="#DejaVuSans-3a" x="66.658203"/>
     <use xlink:href="#DejaVuSans-32" x="100.349609"/>
     <use xlink:href="#DejaVuSans-2e" x="163.972656"/>
     <use xlink:href="#DejaVuSans-38" x="195.759766"/>
     <use xlink:href="#DejaVuSans-39" x="259.382812"/>
    </g>
   </g>
   <g id="text_65">
    <!-- A:0.00 -->
    <g transform="translate(683.336574 867.54166) scale(0.04 -0.04)">
     <use xlink:href="#DejaVuSans-41"/>
     <use xlink:href="#DejaVuSans-3a" x="66.658203"/>
     <use xlink:href="#DejaVuSans-30" x="100.349609"/>
     <use xlink:href="#DejaVuSans-2e" x="163.972656"/>
     <use xlink:href="#DejaVuSans-30" x="195.759766"/>
     <use xlink:href="#DejaVuSans-30" x="259.382812"/>
    </g>
   </g>
   <g id="text_66">
    <!-- A:4.98 -->
    <g transform="translate(697.855156 968.175994) scale(0.04 -0.04)">
     <use xlink:href="#DejaVuSans-41"/>
     <use xlink:href="#DejaVuSans-3a" x="66.658203"/>
     <use xlink:href="#DejaVuSans-34" x="100.349609"/>
     <use xlink:href="#DejaVuSans-2e" x="163.972656"/>
     <use xlink:href="#DejaVuSans-39" x="195.759766"/>
     <use xlink:href="#DejaVuSans-38" x="259.382812"/>
    </g>
   </g>
   <g id="text_67">
    <!-- D:0.00 -->
    <g transform="translate(941.617173 834.631414) scale(0.04 -0.04)">
     <use xlink:href="#DejaVuSans-44"/>
     <use xlink:href="#DejaVuSans-3a" x="77.001953"/>
     <use xlink:href="#DejaVuSans-30" x="110.693359"/>
     <use xlink:href="#DejaVuSans-2e" x="174.316406"/>
     <use xlink:href="#DejaVuSans-30" x="206.103516"/>
     <use xlink:href="#DejaVuSans-30" x="269.726562"/>
    </g>
    <!-- A:10.76 -->
    <g transform="translate(941.617173 839.110539) scale(0.04 -0.04)">
     <use xlink:href="#DejaVuSans-41"/>
     <use xlink:href="#DejaVuSans-3a" x="66.658203"/>
     <use xlink:href="#DejaVuSans-31" x="100.349609"/>
     <use xlink:href="#DejaVuSans-30" x="163.972656"/>
     <use xlink:href="#DejaVuSans-2e" x="227.595703"/>
     <use xlink:href="#DejaVuSans-37" x="259.382812"/>
     <use xlink:href="#DejaVuSans-36" x="323.005859"/>
    </g>
   </g>
   <g id="text_68">
    <!-- A:10.76 -->
    <g transform="translate(941.617173 839.110539) scale(0.04 -0.04)">
     <use xlink:href="#DejaVuSans-41"/>
     <use xlink:href="#DejaVuSans-3a" x="66.658203"/>
     <use xlink:href="#DejaVuSans-31" x="100.349609"/>
     <use xlink:href="#DejaVuSans-30" x="163.972656"/>
     <use xlink:href="#DejaVuSans-2e" x="227.595703"/>
     <use xlink:href="#DejaVuSans-37" x="259.382812"/>
     <use xlink:href="#DejaVuSans-36" x="323.005859"/>
    </g>
   </g>
   <g id="text_69">
    <!-- D:0.03 -->
    <g transform="translate(620.138721 822.634461) scale(0.04 -0.04)">
     <use xlink:href="#DejaVuSans-44"/>
     <use xlink:href="#DejaVuSans-3a" x="77.001953"/>
     <use xlink:href="#DejaVuSans-30" x="110.693359"/>
     <use xlink:href="#DejaVuSans-2e" x="174.316406"/>
     <use xlink:href="#DejaVuSans-30" x="206.103516"/>
     <use xlink:href="#DejaVuSans-33" x="269.726562"/>
    </g>
    <!-- A:3.91 -->
    <g transform="translate(620.138721 827.113586) scale(0.04 -0.04)">
     <use xlink:href="#DejaVuSans-41"/>
     <use xlink:href="#DejaVuSans-3a" x="66.658203"/>
     <use xlink:href="#DejaVuSans-33" x="100.349609"/>
     <use xlink:href="#DejaVuSans-2e" x="163.972656"/>
     <use xlink:href="#DejaVuSans-39" x="195.759766"/>
     <use xlink:href="#DejaVuSans-31" x="259.382812"/>
    </g>
   </g>
   <g id="text_70">
    <!-- A:3.91 -->
    <g transform="translate(620.138721 827.113586) scale(0.04 -0.04)">
     <use xlink:href="#DejaVuSans-41"/>
     <use xlink:href="#DejaVuSans-3a" x="66.658203"/>
     <use xlink:href="#DejaVuSans-33" x="100.349609"/>
     <use xlink:href="#DejaVuSans-2e" x="163.972656"/>
     <use xlink:href="#DejaVuSans-39" x="195.759766"/>
     <use xlink:href="#DejaVuSans-31" x="259.382812"/>
    </g>
   </g>
   <g id="text_71">
    <!-- D:19.79 -->
    <g transform="translate(629.440195 817.780083) scale(0.04 -0.04)">
     <use xlink:href="#DejaVuSans-44"/>
     <use xlink:href="#DejaVuSans-3a" x="77.001953"/>
     <use xlink:href="#DejaVuSans-31" x="110.693359"/>
     <use xlink:href="#DejaVuSans-39" x="174.316406"/>
     <use xlink:href="#DejaVuSans-2e" x="237.939453"/>
     <use xlink:href="#DejaVuSans-37" x="269.726562"/>
     <use xlink:href="#DejaVuSans-39" x="333.349609"/>
    </g>
    <!-- A:0.26 -->
    <g transform="translate(629.440195 822.259208) scale(0.04 -0.04)">
     <use xlink:href="#DejaVuSans-41"/>
     <use xlink:href="#DejaVuSans-3a" x="66.658203"/>
     <use xlink:href="#DejaVuSans-30" x="100.349609"/>
     <use xlink:href="#DejaVuSans-2e" x="163.972656"/>
     <use xlink:href="#DejaVuSans-32" x="195.759766"/>
     <use xlink:href="#DejaVuSans-36" x="259.382812"/>
    </g>
   </g>
   <g id="text_72">
    <!-- A:0.26 -->
    <g transform="translate(629.440195 822.259208) scale(0.04 -0.04)">
     <use xlink:href="#DejaVuSans-41"/>
     <use xlink:href="#DejaVuSans-3a" x="66.658203"/>
     <use xlink:href="#DejaVuSans-30" x="100.349609"/>
     <use xlink:href="#DejaVuSans-2e" x="163.972656"/>
     <use xlink:href="#DejaVuSans-32" x="195.759766"/>
     <use xlink:href="#DejaVuSans-36" x="259.382812"/>
    </g>
   </g>
   <g id="text_73">
    <!-- D:1.52 -->
    <g transform="translate(582.874364 797.210545) scale(0.04 -0.04)">
     <use xlink:href="#DejaVuSans-44"/>
     <use xlink:href="#DejaVuSans-3a" x="77.001953"/>
     <use xlink:href="#DejaVuSans-31" x="110.693359"/>
     <use xlink:href="#DejaVuSans-2e" x="174.316406"/>
     <use xlink:href="#DejaVuSans-35" x="206.103516"/>
     <use xlink:href="#DejaVuSans-32" x="269.726562"/>
    </g>
    <!-- A:0.64 -->
    <g transform="translate(582.874364 801.68967) scale(0.04 -0.04)">
     <use xlink:href="#DejaVuSans-41"/>
     <use xlink:href="#DejaVuSans-3a" x="66.658203"/>
     <use xlink:href="#DejaVuSans-30" x="100.349609"/>
     <use xlink:href="#DejaVuSans-2e" x="163.972656"/>
     <use xlink:href="#DejaVuSans-36" x="195.759766"/>
     <use xlink:href="#DejaVuSans-34" x="259.382812"/>
    </g>
   </g>
   <g id="text_74">
    <!-- A:0.64 -->
    <g transform="translate(582.874364 801.68967) scale(0.04 -0.04)">
     <use xlink:href="#DejaVuSans-41"/>
     <use xlink:href="#DejaVuSans-3a" x="66.658203"/>
     <use xlink:href="#DejaVuSans-30" x="100.349609"/>
     <use xlink:href="#DejaVuSans-2e" x="163.972656"/>
     <use xlink:href="#DejaVuSans-36" x="195.759766"/>
     <use xlink:href="#DejaVuSans-34" x="259.382812"/>
    </g>
   </g>
   <g id="text_75">
    <!-- A:9.63 -->
    <g transform="translate(910.695826 834.101193) scale(0.04 -0.04)">
     <use xlink:href="#DejaVuSans-41"/>
     <use xlink:href="#DejaVuSans-3a" x="66.658203"/>
     <use xlink:href="#DejaVuSans-39" x="100.349609"/>
     <use xlink:href="#DejaVuSans-2e" x="163.972656"/>
     <use xlink:href="#DejaVuSans-36" x="195.759766"/>
     <use xlink:href="#DejaVuSans-33" x="259.382812"/>
    </g>
   </g>
   <g id="text_76">
    <!-- D:0.02 -->
    <g transform="translate(864.210828 829.815875) scale(0.04 -0.04)">
     <use xlink:href="#DejaVuSans-44"/>
     <use xlink:href="#DejaVuSans-3a" x="77.001953"/>
     <use xlink:href="#DejaVuSans-30" x="110.693359"/>
     <use xlink:href="#DejaVuSans-2e" x="174.316406"/>
     <use xlink:href="#DejaVuSans-30" x="206.103516"/>
     <use xlink:href="#DejaVuSans-32" x="269.726562"/>
    </g>
    <!-- A:13.48 -->
    <g transform="translate(864.210828 834.295) scale(0.04 -0.04)">
     <use xlink:href="#DejaVuSans-41"/>
     <use xlink:href="#DejaVuSans-3a" x="66.658203"/>
     <use xlink:href="#DejaVuSans-31" x="100.349609"/>
     <use xlink:href="#DejaVuSans-33" x="163.972656"/>
     <use xlink:href="#DejaVuSans-2e" x="227.595703"/>
     <use xlink:href="#DejaVuSans-34" x="259.382812"/>
     <use xlink:href="#DejaVuSans-38" x="323.005859"/>
    </g>
   </g>
   <g id="text_77">
    <!-- A:13.48 -->
    <g transform="translate(864.210828 834.295) scale(0.04 -0.04)">
     <use xlink:href="#DejaVuSans-41"/>
     <use xlink:href="#DejaVuSans-3a" x="66.658203"/>
     <use xlink:href="#DejaVuSans-31" x="100.349609"/>
     <use xlink:href="#DejaVuSans-33" x="163.972656"/>
     <use xlink:href="#DejaVuSans-2e" x="227.595703"/>
     <use xlink:href="#DejaVuSans-34" x="259.382812"/>
     <use xlink:href="#DejaVuSans-38" x="323.005859"/>
    </g>
   </g>
   <g id="text_78">
    <!-- D:7.54 -->
    <g transform="translate(636.196083 824.669385) scale(0.04 -0.04)">
     <use xlink:href="#DejaVuSans-44"/>
     <use xlink:href="#DejaVuSans-3a" x="77.001953"/>
     <use xlink:href="#DejaVuSans-37" x="110.693359"/>
     <use xlink:href="#DejaVuSans-2e" x="174.316406"/>
     <use xlink:href="#DejaVuSans-35" x="206.103516"/>
     <use xlink:href="#DejaVuSans-34" x="269.726562"/>
    </g>
    <!-- A:0.55 -->
    <g transform="translate(636.196083 829.14851) scale(0.04 -0.04)">
     <use xlink:href="#DejaVuSans-41"/>
     <use xlink:href="#DejaVuSans-3a" x="66.658203"/>
     <use xlink:href="#DejaVuSans-30" x="100.349609"/>
     <use xlink:href="#DejaVuSans-2e" x="163.972656"/>
     <use xlink:href="#DejaVuSans-35" x="195.759766"/>
     <use xlink:href="#DejaVuSans-35" x="259.382812"/>
    </g>
   </g>
   <g id="text_79">
    <!-- A:0.55 -->
    <g transform="translate(636.196083 829.14851) scale(0.04 -0.04)">
     <use xlink:href="#DejaVuSans-41"/>
     <use xlink:href="#DejaVuSans-3a" x="66.658203"/>
     <use xlink:href="#DejaVuSans-30" x="100.349609"/>
     <use xlink:href="#DejaVuSans-2e" x="163.972656"/>
     <use xlink:href="#DejaVuSans-35" x="195.759766"/>
     <use xlink:href="#DejaVuSans-35" x="259.382812"/>
    </g>
   </g>
   <g id="text_80">
    <!-- D:1.14 -->
    <g transform="translate(656.770159 828.62084) scale(0.04 -0.04)">
     <use xlink:href="#DejaVuSans-44"/>
     <use xlink:href="#DejaVuSans-3a" x="77.001953"/>
     <use xlink:href="#DejaVuSans-31" x="110.693359"/>
     <use xlink:href="#DejaVuSans-2e" x="174.316406"/>
     <use xlink:href="#DejaVuSans-31" x="206.103516"/>
     <use xlink:href="#DejaVuSans-34" x="269.726562"/>
    </g>
    <!-- A:8.41 -->
    <g transform="translate(656.770159 833.099965) scale(0.04 -0.04)">
     <use xlink:href="#DejaVuSans-41"/>
     <use xlink:href="#DejaVuSans-3a" x="66.658203"/>
     <use xlink:href="#DejaVuSans-38" x="100.349609"/>
     <use xlink:href="#DejaVuSans-2e" x="163.972656"/>
     <use xlink:href="#DejaVuSans-34" x="195.759766"/>
     <use xlink:href="#DejaVuSans-31" x="259.382812"/>
    </g>
   </g>
   <g id="text_81">
    <!-- A:8.41 -->
    <g transform="translate(656.770159 833.099965) scale(0.04 -0.04)">
     <use xlink:href="#DejaVuSans-41"/>
     <use xlink:href="#DejaVuSans-3a" x="66.658203"/>
     <use xlink:href="#DejaVuSans-38" x="100.349609"/>
     <use xlink:href="#DejaVuSans-2e" x="163.972656"/>
     <use xlink:href="#DejaVuSans-34" x="195.759766"/>
     <use xlink:href="#DejaVuSans-31" x="259.382812"/>
    </g>
   </g>
   <g id="text_82">
    <!-- A:5.34 -->
    <g transform="translate(566.267582 693.603238) scale(0.04 -0.04)">
     <use xlink:href="#DejaVuSans-41"/>
     <use xlink:href="#DejaVuSans-3a" x="66.658203"/>
     <use xlink:href="#DejaVuSans-35" x="100.349609"/>
     <use xlink:href="#DejaVuSans-2e" x="163.972656"/>
     <use xlink:href="#DejaVuSans-33" x="195.759766"/>
     <use xlink:href="#DejaVuSans-34" x="259.382812"/>
    </g>
   </g>
   <g id="text_83">
    <!-- Area Americas (n:23 k:74) -->
    <g transform="translate(659.327812 153.362625) scale(0.12 -0.12)">
     <defs>
      <path id="DejaVuSans-72" d="M 2631 2963 
Q 2534 3019 2420 3045 
Q 2306 3072 2169 3072 
Q 1681 3072 1420 2755 
Q 1159 2438 1159 1844 
L 1159 0 
L 581 0 
L 581 3500 
L 1159 3500 
L 1159 2956 
Q 1341 3275 1631 3429 
Q 1922 3584 2338 3584 
Q 2397 3584 2469 3576 
Q 2541 3569 2628 3553 
L 2631 2963 
z
" transform="scale(0.015625)"/>
      <path id="DejaVuSans-65" d="M 3597 1894 
L 3597 1613 
L 953 1613 
Q 991 1019 1311 708 
Q 1631 397 2203 397 
Q 2534 397 2845 478 
Q 3156 559 3463 722 
L 3463 178 
Q 3153 47 2828 -22 
Q 2503 -91 2169 -91 
Q 1331 -91 842 396 
Q 353 884 353 1716 
Q 353 2575 817 3079 
Q 1281 3584 2069 3584 
Q 2775 3584 3186 3129 
Q 3597 2675 3597 1894 
z
M 3022 2063 
Q 3016 2534 2758 2815 
Q 2500 3097 2075 3097 
Q 1594 3097 1305 2825 
Q 1016 2553 972 2059 
L 3022 2063 
z
" transform="scale(0.015625)"/>
      <path id="DejaVuSans-61" d="M 2194 1759 
Q 1497 1759 1228 1600 
Q 959 1441 959 1056 
Q 959 750 1161 570 
Q 1363 391 1709 391 
Q 2188 391 2477 730 
Q 2766 1069 2766 1631 
L 2766 1759 
L 2194 1759 
z
M 3341 1997 
L 3341 0 
L 2766 0 
L 2766 531 
Q 2569 213 2275 61 
Q 1981 -91 1556 -91 
Q 1019 -91 701 211 
Q 384 513 384 1019 
Q 384 1609 779 1909 
Q 1175 2209 1959 2209 
L 2766 2209 
L 2766 2266 
Q 2766 2663 2505 2880 
Q 2244 3097 1772 3097 
Q 1472 3097 1187 3025 
Q 903 2953 641 2809 
L 641 3341 
Q 956 3463 1253 3523 
Q 1550 3584 1831 3584 
Q 2591 3584 2966 3190 
Q 3341 2797 3341 1997 
z
" transform="scale(0.015625)"/>
      <path id="DejaVuSans-20" transform="scale(0.015625)"/>
      <path id="DejaVuSans-6d" d="M 3328 2828 
Q 3544 3216 3844 3400 
Q 4144 3584 4550 3584 
Q 5097 3584 5394 3201 
Q 5691 2819 5691 2113 
L 5691 0 
L 5113 0 
L 5113 2094 
Q 5113 2597 4934 2840 
Q 4756 3084 4391 3084 
Q 3944 3084 3684 2787 
Q 3425 2491 3425 1978 
L 3425 0 
L 2847 0 
L 2847 2094 
Q 2847 2600 2669 2842 
Q 2491 3084 2119 3084 
Q 1678 3084 1418 2786 
Q 1159 2488 1159 1978 
L 1159 0 
L 581 0 
L 581 3500 
L 1159 3500 
L 1159 2956 
Q 1356 3278 1631 3431 
Q 1906 3584 2284 3584 
Q 2666 3584 2933 3390 
Q 3200 3197 3328 2828 
z
" transform="scale(0.015625)"/>
      <path id="DejaVuSans-69" d="M 603 3500 
L 1178 3500 
L 1178 0 
L 603 0 
L 603 3500 
z
M 603 4863 
L 1178 4863 
L 1178 4134 
L 603 4134 
L 603 4863 
z
" transform="scale(0.015625)"/>
      <path id="DejaVuSans-63" d="M 3122 3366 
L 3122 2828 
Q 2878 2963 2633 3030 
Q 2388 3097 2138 3097 
Q 1578 3097 1268 2742 
Q 959 2388 959 1747 
Q 959 1106 1268 751 
Q 1578 397 2138 397 
Q 2388 397 2633 464 
Q 2878 531 3122 666 
L 3122 134 
Q 2881 22 2623 -34 
Q 2366 -91 2075 -91 
Q 1284 -91 818 406 
Q 353 903 353 1747 
Q 353 2603 823 3093 
Q 1294 3584 2113 3584 
Q 2378 3584 2631 3529 
Q 2884 3475 3122 3366 
z
" transform="scale(0.015625)"/>
      <path id="DejaVuSans-73" d="M 2834 3397 
L 2834 2853 
Q 2591 2978 2328 3040 
Q 2066 3103 1784 3103 
Q 1356 3103 1142 2972 
Q 928 2841 928 2578 
Q 928 2378 1081 2264 
Q 1234 2150 1697 2047 
L 1894 2003 
Q 2506 1872 2764 1633 
Q 3022 1394 3022 966 
Q 3022 478 2636 193 
Q 2250 -91 1575 -91 
Q 1294 -91 989 -36 
Q 684 19 347 128 
L 347 722 
Q 666 556 975 473 
Q 1284 391 1588 391 
Q 1994 391 2212 530 
Q 2431 669 2431 922 
Q 2431 1156 2273 1281 
Q 2116 1406 1581 1522 
L 1381 1569 
Q 847 1681 609 1914 
Q 372 2147 372 2553 
Q 372 3047 722 3315 
Q 1072 3584 1716 3584 
Q 2034 3584 2315 3537 
Q 2597 3491 2834 3397 
z
" transform="scale(0.015625)"/>
      <path id="DejaVuSans-28" d="M 1984 4856 
Q 1566 4138 1362 3434 
Q 1159 2731 1159 2009 
Q 1159 1288 1364 580 
Q 1569 -128 1984 -844 
L 1484 -844 
Q 1016 -109 783 600 
Q 550 1309 550 2009 
Q 550 2706 781 3412 
Q 1013 4119 1484 4856 
L 1984 4856 
z
" transform="scale(0.015625)"/>
      <path id="DejaVuSans-6e" d="M 3513 2113 
L 3513 0 
L 2938 0 
L 2938 2094 
Q 2938 2591 2744 2837 
Q 2550 3084 2163 3084 
Q 1697 3084 1428 2787 
Q 1159 2491 1159 1978 
L 1159 0 
L 581 0 
L 581 3500 
L 1159 3500 
L 1159 2956 
Q 1366 3272 1645 3428 
Q 1925 3584 2291 3584 
Q 2894 3584 3203 3211 
Q 3513 2838 3513 2113 
z
" transform="scale(0.015625)"/>
      <path id="DejaVuSans-6b" d="M 581 4863 
L 1159 4863 
L 1159 1991 
L 2875 3500 
L 3609 3500 
L 1753 1863 
L 3688 0 
L 2938 0 
L 1159 1709 
L 1159 0 
L 581 0 
L 581 4863 
z
" transform="scale(0.015625)"/>
      <path id="DejaVuSans-29" d="M 513 4856 
L 1013 4856 
Q 1481 4119 1714 3412 
Q 1947 2706 1947 2009 
Q 1947 1309 1714 600 
Q 1481 -109 1013 -844 
L 513 -844 
Q 928 -128 1133 580 
Q 1338 1288 1338 2009 
Q 1338 2731 1133 3434 
Q 928 4138 513 4856 
z
" transform="scale(0.015625)"/>
     </defs>
     <use xlink:href="#DejaVuSans-41"/>
     <use xlink:href="#DejaVuSans-72" x="68.408203"/>
     <use xlink:href="#DejaVuSans-65" x="107.271484"/>
     <use xlink:href="#DejaVuSans-61" x="168.794922"/>
     <use xlink:href="#DejaVuSans-20" x="230.074219"/>
     <use xlink:href="#DejaVuSans-41" x="261.861328"/>
     <use xlink:href="#DejaVuSans-6d" x="330.269531"/>
     <use xlink:href="#DejaVuSans-65" x="427.681641"/>
     <use xlink:href="#DejaVuSans-72" x="489.205078"/>
     <use xlink:href="#DejaVuSans-69" x="530.318359"/>
     <use xlink:href="#DejaVuSans-63" x="558.101562"/>
     <use xlink:href="#DejaVuSans-61" x="613.082031"/>
     <use xlink:href="#DejaVuSans-73" x="674.361328"/>
     <use xlink:href="#DejaVuSans-20" x="726.460938"/>
     <use xlink:href="#DejaVuSans-28" x="758.248047"/>
     <use xlink:href="#DejaVuSans-6e" x="797.261719"/>
     <use xlink:href="#DejaVuSans-3a" x="860.640625"/>
     <use xlink:href="#DejaVuSans-32" x="894.332031"/>
     <use xlink:href="#DejaVuSans-33" x="957.955078"/>
     <use xlink:href="#DejaVuSans-20" x="1021.578125"/>
     <use xlink:href="#DejaVuSans-6b" x="1053.365234"/>
     <use xlink:href="#DejaVuSans-3a" x="1111.275391"/>
     <use xlink:href="#DejaVuSans-37" x="1144.966797"/>
     <use xlink:href="#DejaVuSans-34" x="1208.589844"/>
     <use xlink:href="#DejaVuSans-29" x="1272.212891"/>
    </g>
    <!-- Score: 22088.38, max. Overlap: 0.35, avg. Distance: 6.04, avg. Angle: 5.57 -->
    <g transform="translate(511.8525 166.8) scale(0.12 -0.12)">
     <defs>
      <path id="DejaVuSans-6f" d="M 1959 3097 
Q 1497 3097 1228 2736 
Q 959 2375 959 1747 
Q 959 1119 1226 758 
Q 1494 397 1959 397 
Q 2419 397 2687 759 
Q 2956 1122 2956 1747 
Q 2956 2369 2687 2733 
Q 2419 3097 1959 3097 
z
M 1959 3584 
Q 2709 3584 3137 3096 
Q 3566 2609 3566 1747 
Q 3566 888 3137 398 
Q 2709 -91 1959 -91 
Q 1206 -91 779 398 
Q 353 888 353 1747 
Q 353 2609 779 3096 
Q 1206 3584 1959 3584 
z
" transform="scale(0.015625)"/>
      <path id="DejaVuSans-2c" d="M 750 794 
L 1409 794 
L 1409 256 
L 897 -744 
L 494 -744 
L 750 256 
L 750 794 
z
" transform="scale(0.015625)"/>
      <path id="DejaVuSans-78" d="M 3513 3500 
L 2247 1797 
L 3578 0 
L 2900 0 
L 1881 1375 
L 863 0 
L 184 0 
L 1544 1831 
L 300 3500 
L 978 3500 
L 1906 2253 
L 2834 3500 
L 3513 3500 
z
" transform="scale(0.015625)"/>
      <path id="DejaVuSans-76" d="M 191 3500 
L 800 3500 
L 1894 563 
L 2988 3500 
L 3597 3500 
L 2284 0 
L 1503 0 
L 191 3500 
z
" transform="scale(0.015625)"/>
      <path id="DejaVuSans-6c" d="M 603 4863 
L 1178 4863 
L 1178 0 
L 603 0 
L 603 4863 
z
" transform="scale(0.015625)"/>
      <path id="DejaVuSans-70" d="M 1159 525 
L 1159 -1331 
L 581 -1331 
L 581 3500 
L 1159 3500 
L 1159 2969 
Q 1341 3281 1617 3432 
Q 1894 3584 2278 3584 
Q 2916 3584 3314 3078 
Q 3713 2572 3713 1747 
Q 3713 922 3314 415 
Q 2916 -91 2278 -91 
Q 1894 -91 1617 61 
Q 1341 213 1159 525 
z
M 3116 1747 
Q 3116 2381 2855 2742 
Q 2594 3103 2138 3103 
Q 1681 3103 1420 2742 
Q 1159 2381 1159 1747 
Q 1159 1113 1420 752 
Q 1681 391 2138 391 
Q 2594 391 2855 752 
Q 3116 1113 3116 1747 
z
" transform="scale(0.015625)"/>
      <path id="DejaVuSans-67" d="M 2906 1791 
Q 2906 2416 2648 2759 
Q 2391 3103 1925 3103 
Q 1463 3103 1205 2759 
Q 947 2416 947 1791 
Q 947 1169 1205 825 
Q 1463 481 1925 481 
Q 2391 481 2648 825 
Q 2906 1169 2906 1791 
z
M 3481 434 
Q 3481 -459 3084 -895 
Q 2688 -1331 1869 -1331 
Q 1566 -1331 1297 -1286 
Q 1028 -1241 775 -1147 
L 775 -588 
Q 1028 -725 1275 -790 
Q 1522 -856 1778 -856 
Q 2344 -856 2625 -561 
Q 2906 -266 2906 331 
L 2906 616 
Q 2728 306 2450 153 
Q 2172 0 1784 0 
Q 1141 0 747 490 
Q 353 981 353 1791 
Q 353 2603 747 3093 
Q 1141 3584 1784 3584 
Q 2172 3584 2450 3431 
Q 2728 3278 2906 2969 
L 2906 3500 
L 3481 3500 
L 3481 434 
z
" transform="scale(0.015625)"/>
      <path id="DejaVuSans-74" d="M 1172 4494 
L 1172 3500 
L 2356 3500 
L 2356 3053 
L 1172 3053 
L 1172 1153 
Q 1172 725 1289 603 
Q 1406 481 1766 481 
L 2356 481 
L 2356 0 
L 1766 0 
Q 1100 0 847 248 
Q 594 497 594 1153 
L 594 3053 
L 172 3053 
L 172 3500 
L 594 3500 
L 594 4494 
L 1172 4494 
z
" transform="scale(0.015625)"/>
     </defs>
     <use xlink:href="#DejaVuSans-53"/>
     <use xlink:href="#DejaVuSans-63" x="63.476562"/>
     <use xlink:href="#DejaVuSans-6f" x="118.457031"/>
     <use xlink:href="#DejaVuSans-72" x="179.638672"/>
     <use xlink:href="#DejaVuSans-65" x="218.501953"/>
     <use xlink:href="#DejaVuSans-3a" x="280.025391"/>
     <use xlink:href="#DejaVuSans-20" x="313.716797"/>
     <use xlink:href="#DejaVuSans-32" x="345.503906"/>
     <use xlink:href="#DejaVuSans-32" x="409.126953"/>
     <use xlink:href="#DejaVuSans-30" x="472.75"/>
     <use xlink:href="#DejaVuSans-38" x="536.373047"/>
     <use xlink:href="#DejaVuSans-38" x="599.996094"/>
     <use xlink:href="#DejaVuSans-2e" x="663.619141"/>
     <use xlink:href="#DejaVuSans-33" x="695.40625"/>
     <use xlink:href="#DejaVuSans-38" x="759.029297"/>
     <use xlink:href="#DejaVuSans-2c" x="822.652344"/>
     <use xlink:href="#DejaVuSans-20" x="854.439453"/>
     <use xlink:href="#DejaVuSans-6d" x="886.226562"/>
     <use xlink:href="#DejaVuSans-61" x="983.638672"/>
     <use xlink:href="#DejaVuSans-78" x="1044.917969"/>
     <use xlink:href="#DejaVuSans-2e" x="1104.097656"/>
     <use xlink:href="#DejaVuSans-20" x="1135.884766"/>
     <use xlink:href="#DejaVuSans-4f" x="1167.671875"/>
     <use xlink:href="#DejaVuSans-76" x="1246.382812"/>
     <use xlink:href="#DejaVuSans-65" x="1305.5625"/>
     <use xlink:href="#DejaVuSans-72" x="1367.085938"/>
     <use xlink:href="#DejaVuSans-6c" x="1408.199219"/>
     <use xlink:href="#DejaVuSans-61" x="1435.982422"/>
     <use xlink:href="#DejaVuSans-70" x="1497.261719"/>
     <use xlink:href="#DejaVuSans-3a" x="1560.738281"/>
     <use xlink:href="#DejaVuSans-20" x="1594.429688"/>
     <use xlink:href="#DejaVuSans-30" x="1626.216797"/>
     <use xlink:href="#DejaVuSans-2e" x="1689.839844"/>
     <use xlink:href="#DejaVuSans-33" x="1721.626953"/>
     <use xlink:href="#DejaVuSans-35" x="1785.25"/>
     <use xlink:href="#DejaVuSans-2c" x="1848.873047"/>
     <use xlink:href="#DejaVuSans-20" x="1880.660156"/>
     <use xlink:href="#DejaVuSans-61" x="1912.447266"/>
     <use xlink:href="#DejaVuSans-76" x="1973.726562"/>
     <use xlink:href="#DejaVuSans-67" x="2032.90625"/>
     <use xlink:href="#DejaVuSans-2e" x="2096.382812"/>
     <use xlink:href="#DejaVuSans-20" x="2128.169922"/>
     <use xlink:href="#DejaVuSans-44" x="2159.957031"/>
     <use xlink:href="#DejaVuSans-69" x="2236.958984"/>
     <use xlink:href="#DejaVuSans-73" x="2264.742188"/>
     <use xlink:href="#DejaVuSans-74" x="2316.841797"/>
     <use xlink:href="#DejaVuSans-61" x="2356.050781"/>
     <use xlink:href="#DejaVuSans-6e" x="2417.330078"/>
     <use xlink:href="#DejaVuSans-63" x="2480.708984"/>
     <use xlink:href="#DejaVuSans-65" x="2535.689453"/>
     <use xlink:href="#DejaVuSans-3a" x="2597.212891"/>
     <use xlink:href="#DejaVuSans-20" x="2630.904297"/>
     <use xlink:href="#DejaVuSans-36" x="2662.691406"/>
     <use xlink:href="#DejaVuSans-2e" x="2726.314453"/>
     <use xlink:href="#DejaVuSans-30" x="2758.101562"/>
     <use xlink:href="#DejaVuSans-34" x="2821.724609"/>
     <use xlink:href="#DejaVuSans-2c" x="2885.347656"/>
     <use xlink:href="#DejaVuSans-20" x="2917.134766"/>
     <use xlink:href="#DejaVuSans-61" x="2948.921875"/>
     <use xlink:href="#DejaVuSans-76" x="3010.201172"/>
     <use xlink:href="#DejaVuSans-67" x="3069.380859"/>
     <use xlink:href="#DejaVuSans-2e" x="3132.857422"/>
     <use xlink:href="#DejaVuSans-20" x="3164.644531"/>
     <use xlink:href="#DejaVuSans-41" x="3196.431641"/>
     <use xlink:href="#DejaVuSans-6e" x="3264.839844"/>
     <use xlink:href="#DejaVuSans-67" x="3328.21875"/>
     <use xlink:href="#DejaVuSans-6c" x="3391.695312"/>
     <use xlink:href="#DejaVuSans-65" x="3419.478516"/>
     <use xlink:href="#DejaVuSans-3a" x="3481.001953"/>
     <use xlink:href="#DejaVuSans-20" x="3514.693359"/>
     <use xlink:href="#DejaVuSans-35" x="3546.480469"/>
     <use xlink:href="#DejaVuSans-2e" x="3610.103516"/>
     <use xlink:href="#DejaVuSans-35" x="3641.890625"/>
     <use xlink:href="#DejaVuSans-37" x="3705.513672"/>
    </g>
   </g>
  </g>
 </g>
 <defs>
  <clipPath id="p1535a1fa58">
   <rect x="410.35067" y="172.8" width="655.29866" height="1108.8"/>
  </clipPath>
 </defs>
</svg>
