<?xml version="1.0" encoding="utf-8" standalone="no"?>
<!DOCTYPE svg PUBLIC "-//W3C//DTD SVG 1.1//EN"
  "http://www.w3.org/Graphics/SVG/1.1/DTD/svg11.dtd">
<svg xmlns:xlink="http://www.w3.org/1999/xlink" width="1440pt" height="1440pt" viewBox="0 0 1440 1440" xmlns="http://www.w3.org/2000/svg" version="1.1">
 <metadata>
  <rdf:RDF xmlns:dc="http://purl.org/dc/elements/1.1/" xmlns:cc="http://creativecommons.org/ns#" xmlns:rdf="http://www.w3.org/1999/02/22-rdf-syntax-ns#">
   <cc:Work>
    <dc:type rdf:resource="http://purl.org/dc/dcmitype/StillImage"/>
    <dc:date>2024-03-18T21:05:02.525477</dc:date>
    <dc:format>image/svg+xml</dc:format>
    <dc:creator>
     <cc:Agent>
      <dc:title>Matplotlib v3.8.3, https://matplotlib.org/</dc:title>
     </cc:Agent>
    </dc:creator>
   </cc:Work>
  </rdf:RDF>
 </metadata>
 <defs>
  <style type="text/css">*{stroke-linejoin: round; stroke-linecap: butt}</style>
 </defs>
 <g id="figure_1">
  <g id="patch_1">
   <path d="M 0 1440 
L 1440 1440 
L 1440 0 
L 0 0 
z
" style="fill: #ffffff"/>
  </g>
  <g id="axes_1">
   <g id="patch_2">
    <path d="M 688.751076 959.840393 
C 694.415659 959.840393 699.848998 957.58983 703.854464 953.584365 
C 707.859929 949.5789 710.110491 944.145561 710.110491 938.480978 
C 710.110491 932.816395 707.859929 927.383056 703.854464 923.377591 
C 699.848998 919.372126 694.415659 917.121563 688.751076 917.121563 
C 683.086493 917.121563 677.653154 919.372126 673.647689 923.377591 
C 669.642224 927.383056 667.391662 932.816395 667.391662 938.480978 
C 667.391662 944.145561 669.642224 949.5789 673.647689 953.584365 
C 677.653154 957.58983 683.086493 959.840393 688.751076 959.840393 
z
" clip-path="url(#pcea7c59bcd)" style="fill: #9e0142; opacity: 0.5"/>
   </g>
   <g id="patch_3">
    <path d="M 929.217885 851.657649 
C 933.575372 851.657649 937.754975 849.926401 940.836184 846.845192 
C 943.917392 843.763983 945.64864 839.584381 945.64864 835.226894 
C 945.64864 830.869406 943.917392 826.689804 940.836184 823.608595 
C 937.754975 820.527386 933.575372 818.796138 929.217885 818.796138 
C 924.860398 818.796138 920.680795 820.527386 917.599586 823.608595 
C 914.518378 826.689804 912.78713 830.869406 912.78713 835.226894 
C 912.78713 839.584381 914.518378 843.763983 917.599586 846.845192 
C 920.680795 849.926401 924.860398 851.657649 929.217885 851.657649 
z
" clip-path="url(#pcea7c59bcd)" style="fill: #b61b48; opacity: 0.5"/>
   </g>
   <g id="patch_4">
    <path d="M 915.957123 1087.314266 
C 947.374119 1087.314266 977.508586 1074.832161 999.723757 1052.61699 
C 1021.938928 1030.401819 1034.421033 1000.267352 1034.421033 968.850356 
C 1034.421033 937.433359 1021.938928 907.298892 999.723757 885.083721 
C 977.508586 862.86855 947.374119 850.386445 915.957123 850.386445 
C 884.540127 850.386445 854.40566 862.86855 832.190489 885.083721 
C 809.975318 907.298892 797.493213 937.433359 797.493213 968.850356 
C 797.493213 1000.267352 809.975318 1030.401819 832.190489 1052.61699 
C 854.40566 1074.832161 884.540127 1087.314266 915.957123 1087.314266 
z
" clip-path="url(#pcea7c59bcd)" style="fill: #d0384e; opacity: 0.5"/>
   </g>
   <g id="patch_5">
    <path d="M 777.049503 1231.2 
C 795.001237 1231.2 812.220132 1224.0677 824.913925 1211.373907 
C 837.607718 1198.680114 844.740018 1181.461219 844.740018 1163.509485 
C 844.740018 1145.55775 837.607718 1128.338856 824.913925 1115.645062 
C 812.220132 1102.951269 795.001237 1095.818969 777.049503 1095.818969 
C 759.097768 1095.818969 741.878873 1102.951269 729.18508 1115.645062 
C 716.491287 1128.338856 709.358987 1145.55775 709.358987 1163.509485 
C 709.358987 1181.461219 716.491287 1198.680114 729.18508 1211.373907 
C 741.878873 1224.0677 759.097768 1231.2 777.049503 1231.2 
z
" clip-path="url(#pcea7c59bcd)" style="fill: #df4e4b; opacity: 0.5"/>
   </g>
   <g id="patch_6">
    <path d="M 668.575914 855.713117 
C 672.463199 855.713117 676.191795 854.168682 678.94052 851.419956 
C 681.689246 848.671231 683.233681 844.942635 683.233681 841.05535 
C 683.233681 837.168065 681.689246 833.439469 678.94052 830.690744 
C 676.191795 827.942018 672.463199 826.397583 668.575914 826.397583 
C 664.688629 826.397583 660.960033 827.942018 658.211308 830.690744 
C 655.462582 833.439469 653.918147 837.168065 653.918147 841.05535 
C 653.918147 844.942635 655.462582 848.671231 658.211308 851.419956 
C 660.960033 854.168682 664.688629 855.713117 668.575914 855.713117 
z
" clip-path="url(#pcea7c59bcd)" style="fill: #ee6445; opacity: 0.5"/>
   </g>
   <g id="patch_7">
    <path d="M 625.525888 809.78843 
C 627.157412 809.78843 628.722333 809.140218 629.875995 807.986556 
C 631.029657 806.832894 631.677869 805.267973 631.677869 803.636449 
C 631.677869 802.004925 631.029657 800.440004 629.875995 799.286342 
C 628.722333 798.13268 627.157412 797.484468 625.525888 797.484468 
C 623.894364 797.484468 622.329443 798.13268 621.175781 799.286342 
C 620.022119 800.440004 619.373907 802.004925 619.373907 803.636449 
C 619.373907 805.267973 620.022119 806.832894 621.175781 807.986556 
C 622.329443 809.140218 623.894364 809.78843 625.525888 809.78843 
z
" clip-path="url(#pcea7c59bcd)" style="fill: #f67f4b; opacity: 0.5"/>
   </g>
   <g id="patch_8">
    <path d="M 780.041645 1096.34678 
C 791.325794 1096.34678 802.149292 1091.86354 810.128391 1083.884442 
C 818.107489 1075.905343 822.590729 1065.081845 822.590729 1053.797696 
C 822.590729 1042.513546 818.107489 1031.690048 810.128391 1023.710949 
C 802.149292 1015.731851 791.325794 1011.248611 780.041645 1011.248611 
C 768.757496 1011.248611 757.933997 1015.731851 749.954899 1023.710949 
C 741.9758 1031.690048 737.49256 1042.513546 737.49256 1053.797696 
C 737.49256 1065.081845 741.9758 1075.905343 749.954899 1083.884442 
C 757.933997 1091.86354 768.757496 1096.34678 780.041645 1096.34678 
z
" clip-path="url(#pcea7c59bcd)" style="fill: #fa9b58; opacity: 0.5"/>
   </g>
   <g id="patch_9">
    <path d="M 645.86108 837.869144 
C 649.471967 837.869144 652.935447 836.434524 655.48873 833.881241 
C 658.042013 831.327958 659.476633 827.864478 659.476633 824.253591 
C 659.476633 820.642704 658.042013 817.179223 655.48873 814.62594 
C 652.935447 812.072658 649.471967 810.638037 645.86108 810.638037 
C 642.250193 810.638037 638.786712 812.072658 636.23343 814.62594 
C 633.680147 817.179223 632.245526 820.642704 632.245526 824.253591 
C 632.245526 827.864478 633.680147 831.327958 636.23343 833.881241 
C 638.786712 836.434524 642.250193 837.869144 645.86108 837.869144 
z
" clip-path="url(#pcea7c59bcd)" style="fill: #fdb768; opacity: 0.5"/>
   </g>
   <g id="patch_10">
    <path d="M 836.887359 1117.802545 
C 843.753576 1117.802545 850.339495 1115.074568 855.194644 1110.219419 
C 860.049792 1105.36427 862.777769 1098.778351 862.777769 1091.912134 
C 862.777769 1085.045917 860.049792 1078.459998 855.194644 1073.604849 
C 850.339495 1068.7497 843.753576 1066.021723 836.887359 1066.021723 
C 830.021141 1066.021723 823.435222 1068.7497 818.580074 1073.604849 
C 813.724925 1078.459998 810.996948 1085.045917 810.996948 1091.912134 
C 810.996948 1098.778351 813.724925 1105.36427 818.580074 1110.219419 
C 823.435222 1115.074568 830.021141 1117.802545 836.887359 1117.802545 
z
" clip-path="url(#pcea7c59bcd)" style="fill: #fece7c; opacity: 0.5"/>
   </g>
   <g id="patch_11">
    <path d="M 569.853675 479.749417 
C 603.872526 479.749417 636.502632 466.233585 660.557592 442.178625 
C 684.612552 418.123665 698.128384 385.493559 698.128384 351.474709 
C 698.128384 317.455858 684.612552 284.825752 660.557592 260.770792 
C 636.502632 236.715833 603.872526 223.2 569.853675 223.2 
C 535.834825 223.2 503.204719 236.715833 479.149759 260.770792 
C 455.094799 284.825752 441.578967 317.455858 441.578967 351.474709 
C 441.578967 385.493559 455.094799 418.123665 479.149759 442.178625 
C 503.204719 466.233585 535.834825 479.749417 569.853675 479.749417 
z
" clip-path="url(#pcea7c59bcd)" style="fill: #fee28f; opacity: 0.5"/>
   </g>
   <g id="patch_12">
    <path d="M 857.425926 1154.448834 
C 862.006637 1154.448834 866.400351 1152.628898 869.639403 1149.389847 
C 872.878454 1146.150795 874.69839 1141.757081 874.69839 1137.17637 
C 874.69839 1132.595659 872.878454 1128.201945 869.639403 1124.962894 
C 866.400351 1121.723842 862.006637 1119.903906 857.425926 1119.903906 
C 852.845215 1119.903906 848.451501 1121.723842 845.21245 1124.962894 
C 841.973398 1128.201945 840.153462 1132.595659 840.153462 1137.17637 
C 840.153462 1141.757081 841.973398 1146.150795 845.21245 1149.389847 
C 848.451501 1152.628898 852.845215 1154.448834 857.425926 1154.448834 
z
" clip-path="url(#pcea7c59bcd)" style="fill: #fff1a8; opacity: 0.5"/>
   </g>
   <g id="patch_13">
    <path d="M 628.250228 839.608899 
C 629.811878 839.608899 631.309778 838.988449 632.414032 837.884195 
C 633.518286 836.779941 634.138736 835.282041 634.138736 833.720391 
C 634.138736 832.15874 633.518286 830.66084 632.414032 829.556586 
C 631.309778 828.452333 629.811878 827.831882 628.250228 827.831882 
C 626.688577 827.831882 625.190677 828.452333 624.086423 829.556586 
C 622.98217 830.66084 622.361719 832.15874 622.361719 833.720391 
C 622.361719 835.282041 622.98217 836.779941 624.086423 837.884195 
C 625.190677 838.988449 626.688577 839.608899 628.250228 839.608899 
z
" clip-path="url(#pcea7c59bcd)" style="fill: #ffffbe; opacity: 0.5"/>
   </g>
   <g id="patch_14">
    <path d="M 553.755982 839.792687 
C 568.84514 839.792687 583.318316 833.797701 593.987961 823.128056 
C 604.657607 812.45841 610.652592 797.985234 610.652592 782.896077 
C 610.652592 767.806919 604.657607 753.333743 593.987961 742.664098 
C 583.318316 731.994452 568.84514 725.999466 553.755982 725.999466 
C 538.666825 725.999466 524.193649 731.994452 513.524003 742.664098 
C 502.854357 753.333743 496.859372 767.806919 496.859372 782.896077 
C 496.859372 797.985234 502.854357 812.45841 513.524003 823.128056 
C 524.193649 833.797701 538.666825 839.792687 553.755982 839.792687 
z
" clip-path="url(#pcea7c59bcd)" style="fill: #f4faad; opacity: 0.5"/>
   </g>
   <g id="patch_15">
    <path d="M 673.694176 873.481007 
C 676.12785 873.481007 678.462176 872.514098 680.183044 870.79323 
C 681.903912 869.072362 682.870821 866.738036 682.870821 864.304361 
C 682.870821 861.870687 681.903912 859.536361 680.183044 857.815493 
C 678.462176 856.094625 676.12785 855.127716 673.694176 855.127716 
C 671.260501 855.127716 668.926175 856.094625 667.205308 857.815493 
C 665.48444 859.536361 664.51753 861.870687 664.51753 864.304361 
C 664.51753 866.738036 665.48444 869.072362 667.205308 870.79323 
C 668.926175 872.514098 671.260501 873.481007 673.694176 873.481007 
z
" clip-path="url(#pcea7c59bcd)" style="fill: #e8f69b; opacity: 0.5"/>
   </g>
   <g id="patch_16">
    <path d="M 693.327308 880.703638 
C 696.28387 880.703638 699.119738 879.528983 701.210343 877.438378 
C 703.300948 875.347773 704.475603 872.511905 704.475603 869.555343 
C 704.475603 866.598781 703.300948 863.762913 701.210343 861.672308 
C 699.119738 859.581703 696.28387 858.407048 693.327308 858.407048 
C 690.370745 858.407048 687.534878 859.581703 685.444273 861.672308 
C 683.353667 863.762913 682.179013 866.598781 682.179013 869.555343 
C 682.179013 872.511905 683.353667 875.347773 685.444273 877.438378 
C 687.534878 879.528983 690.370745 880.703638 693.327308 880.703638 
z
" clip-path="url(#pcea7c59bcd)" style="fill: #d1ed9c; opacity: 0.5"/>
   </g>
   <g id="patch_17">
    <path d="M 614.744701 833.343882 
C 618.297288 833.343882 621.704849 831.932424 624.216908 829.420365 
C 626.728967 826.908307 628.140425 823.500746 628.140425 819.948158 
C 628.140425 816.395571 626.728967 812.98801 624.216908 810.475951 
C 621.704849 807.963892 618.297288 806.552434 614.744701 806.552434 
C 611.192114 806.552434 607.784553 807.963892 605.272494 810.475951 
C 602.760435 812.98801 601.348977 816.395571 601.348977 819.948158 
C 601.348977 823.500746 602.760435 826.908307 605.272494 829.420365 
C 607.784553 831.932424 611.192114 833.343882 614.744701 833.343882 
z
" clip-path="url(#pcea7c59bcd)" style="fill: #b5e1a2; opacity: 0.5"/>
   </g>
   <g id="patch_18">
    <path d="M 836.502382 872.754444 
C 846.808759 872.754444 856.694401 868.659677 863.98211 861.371968 
C 871.269819 854.084259 875.364586 844.198617 875.364586 833.89224 
C 875.364586 823.585863 871.269819 813.700221 863.98211 806.412512 
C 856.694401 799.124803 846.808759 795.030036 836.502382 795.030036 
C 826.196005 795.030036 816.310363 799.124803 809.022654 806.412512 
C 801.734945 813.700221 797.640178 823.585863 797.640178 833.89224 
C 797.640178 844.198617 801.734945 854.084259 809.022654 861.371968 
C 816.310363 868.659677 826.196005 872.754444 836.502382 872.754444 
z
" clip-path="url(#pcea7c59bcd)" style="fill: #97d5a4; opacity: 0.5"/>
   </g>
   <g id="patch_19">
    <path d="M 709.468492 1121.105978 
C 718.829939 1121.105978 727.809227 1117.386636 734.42877 1110.767092 
C 741.048313 1104.147549 744.767655 1095.168262 744.767655 1085.806814 
C 744.767655 1076.445367 741.048313 1067.466079 734.42877 1060.846536 
C 727.809227 1054.226993 718.829939 1050.507651 709.468492 1050.507651 
C 700.107044 1050.507651 691.127757 1054.226993 684.508214 1060.846536 
C 677.88867 1067.466079 674.169328 1076.445367 674.169328 1085.806814 
C 674.169328 1095.168262 677.88867 1104.147549 684.508214 1110.767092 
C 691.127757 1117.386636 700.107044 1121.105978 709.468492 1121.105978 
z
" clip-path="url(#pcea7c59bcd)" style="fill: #79c9a5; opacity: 0.5"/>
   </g>
   <g id="patch_20">
    <path d="M 707.786444 1048.842366 
C 719.991529 1048.842366 731.698368 1043.993235 740.328666 1035.362937 
C 748.958965 1026.732638 753.808096 1015.025799 753.808096 1002.820714 
C 753.808096 990.61563 748.958965 978.90879 740.328666 970.278492 
C 731.698368 961.648194 719.991529 956.799062 707.786444 956.799062 
C 695.581359 956.799062 683.87452 961.648194 675.244222 970.278492 
C 666.613924 978.90879 661.764792 990.61563 661.764792 1002.820714 
C 661.764792 1015.025799 666.613924 1026.732638 675.244222 1035.362937 
C 683.87452 1043.993235 695.581359 1048.842366 707.786444 1048.842366 
z
" clip-path="url(#pcea7c59bcd)" style="fill: #5cb7aa; opacity: 0.5"/>
   </g>
   <g id="patch_21">
    <path d="M 581.546499 728.156191 
C 614.506183 728.156191 646.120361 715.06117 669.426378 691.755153 
C 692.732394 668.449137 705.827415 636.834959 705.827415 603.875275 
C 705.827415 570.91559 692.732394 539.301412 669.426378 515.995396 
C 646.120361 492.68938 614.506183 479.594358 581.546499 479.594358 
C 548.586815 479.594358 516.972636 492.68938 493.66662 515.995396 
C 470.360604 539.301412 457.265583 570.91559 457.265583 603.875275 
C 457.265583 636.834959 470.360604 668.449137 493.66662 691.755153 
C 516.972636 715.06117 548.586815 728.156191 581.546499 728.156191 
z
" clip-path="url(#pcea7c59bcd)" style="fill: #439bb5; opacity: 0.5"/>
   </g>
   <g id="patch_22">
    <path d="M 739.561342 941.831189 
C 751.065052 941.831189 762.099148 937.260716 770.233499 929.126365 
C 778.367851 920.992014 782.938323 909.957917 782.938323 898.454208 
C 782.938323 886.950498 778.367851 875.916401 770.233499 867.78205 
C 762.099148 859.647699 751.065052 855.077227 739.561342 855.077227 
C 728.057632 855.077227 717.023536 859.647699 708.889185 867.78205 
C 700.754833 875.916401 696.184361 886.950498 696.184361 898.454208 
C 696.184361 909.957917 700.754833 920.992014 708.889185 929.126365 
C 717.023536 937.260716 728.057632 941.831189 739.561342 941.831189 
z
" clip-path="url(#pcea7c59bcd)" style="fill: #3682ba; opacity: 0.5"/>
   </g>
   <g id="patch_23">
    <path d="M 956.113273 855.226773 
C 959.224878 855.226773 962.209458 853.99052 964.409695 851.790283 
C 966.609932 849.590046 967.846185 846.605466 967.846185 843.493861 
C 967.846185 840.382257 966.609932 837.397676 964.409695 835.19744 
C 962.209458 832.997203 959.224878 831.760949 956.113273 831.760949 
C 953.001669 831.760949 950.017088 832.997203 947.816852 835.19744 
C 945.616615 837.397676 944.380361 840.382257 944.380361 843.493861 
C 944.380361 846.605466 945.616615 849.590046 947.816852 851.790283 
C 950.017088 853.99052 953.001669 855.226773 956.113273 855.226773 
z
" clip-path="url(#pcea7c59bcd)" style="fill: #4b68ae; opacity: 0.5"/>
   </g>
   <g id="patch_24">
    <path d="M 894.18022 851.855501 
C 899.171831 851.855501 903.959671 849.872313 907.489273 846.342711 
C 911.018875 842.813109 913.002063 838.025269 913.002063 833.033658 
C 913.002063 828.042047 911.018875 823.254208 907.489273 819.724606 
C 903.959671 816.195004 899.171831 814.211816 894.18022 814.211816 
C 889.188609 814.211816 884.40077 816.195004 880.871168 819.724606 
C 877.341566 823.254208 875.358378 828.042047 875.358378 833.033658 
C 875.358378 838.025269 877.341566 842.813109 880.871168 846.342711 
C 884.40077 849.872313 889.188609 851.855501 894.18022 851.855501 
z
" clip-path="url(#pcea7c59bcd)" style="fill: #5e4fa2; opacity: 0.5"/>
   </g>
   <g id="line2d_1">
    <path d="M 777.049503 1163.509485 
L 780.041645 1053.797696 
" clip-path="url(#pcea7c59bcd)" style="fill: none; stroke: #808080; stroke-opacity: 0.3; stroke-width: 0.5; stroke-linecap: square"/>
   </g>
   <g id="line2d_2">
    <path d="M 777.049503 1163.509485 
L 915.957123 968.850356 
" clip-path="url(#pcea7c59bcd)" style="fill: none; stroke: #808080; stroke-opacity: 0.3; stroke-width: 0.5; stroke-linecap: square"/>
   </g>
   <g id="line2d_3">
    <path d="M 777.049503 1163.509485 
L 709.468492 1085.806814 
" clip-path="url(#pcea7c59bcd)" style="fill: none; stroke: #808080; stroke-opacity: 0.3; stroke-width: 0.5; stroke-linecap: square"/>
   </g>
   <g id="line2d_4">
    <path d="M 777.049503 1163.509485 
L 836.887359 1091.912134 
" clip-path="url(#pcea7c59bcd)" style="fill: none; stroke: #808080; stroke-opacity: 0.3; stroke-width: 0.5; stroke-linecap: square"/>
   </g>
   <g id="line2d_5">
    <path d="M 777.049503 1163.509485 
L 857.425926 1137.17637 
" clip-path="url(#pcea7c59bcd)" style="fill: none; stroke: #808080; stroke-opacity: 0.3; stroke-width: 0.5; stroke-linecap: square"/>
   </g>
   <g id="line2d_6">
    <path d="M 780.041645 1053.797696 
L 915.957123 968.850356 
" clip-path="url(#pcea7c59bcd)" style="fill: none; stroke: #808080; stroke-opacity: 0.3; stroke-width: 0.5; stroke-linecap: square"/>
   </g>
   <g id="line2d_7">
    <path d="M 780.041645 1053.797696 
L 709.468492 1085.806814 
" clip-path="url(#pcea7c59bcd)" style="fill: none; stroke: #808080; stroke-opacity: 0.3; stroke-width: 0.5; stroke-linecap: square"/>
   </g>
   <g id="line2d_8">
    <path d="M 780.041645 1053.797696 
L 836.887359 1091.912134 
" clip-path="url(#pcea7c59bcd)" style="fill: none; stroke: #808080; stroke-opacity: 0.3; stroke-width: 0.5; stroke-linecap: square"/>
   </g>
   <g id="line2d_9">
    <path d="M 780.041645 1053.797696 
L 707.786444 1002.820714 
" clip-path="url(#pcea7c59bcd)" style="fill: none; stroke: #808080; stroke-opacity: 0.3; stroke-width: 0.5; stroke-linecap: square"/>
   </g>
   <g id="line2d_10">
    <path d="M 915.957123 968.850356 
L 739.561342 898.454208 
" clip-path="url(#pcea7c59bcd)" style="fill: none; stroke: #808080; stroke-opacity: 0.3; stroke-width: 0.5; stroke-linecap: square"/>
   </g>
   <g id="line2d_11">
    <path d="M 915.957123 968.850356 
L 956.113273 843.493861 
" clip-path="url(#pcea7c59bcd)" style="fill: none; stroke: #808080; stroke-opacity: 0.3; stroke-width: 0.5; stroke-linecap: square"/>
   </g>
   <g id="line2d_12">
    <path d="M 915.957123 968.850356 
L 894.18022 833.033658 
" clip-path="url(#pcea7c59bcd)" style="fill: none; stroke: #808080; stroke-opacity: 0.3; stroke-width: 0.5; stroke-linecap: square"/>
   </g>
   <g id="line2d_13">
    <path d="M 915.957123 968.850356 
L 836.887359 1091.912134 
" clip-path="url(#pcea7c59bcd)" style="fill: none; stroke: #808080; stroke-opacity: 0.3; stroke-width: 0.5; stroke-linecap: square"/>
   </g>
   <g id="line2d_14">
    <path d="M 915.957123 968.850356 
L 707.786444 1002.820714 
" clip-path="url(#pcea7c59bcd)" style="fill: none; stroke: #808080; stroke-opacity: 0.3; stroke-width: 0.5; stroke-linecap: square"/>
   </g>
   <g id="line2d_15">
    <path d="M 915.957123 968.850356 
L 929.217885 835.226894 
" clip-path="url(#pcea7c59bcd)" style="fill: none; stroke: #808080; stroke-opacity: 0.3; stroke-width: 0.5; stroke-linecap: square"/>
   </g>
   <g id="line2d_16">
    <path d="M 915.957123 968.850356 
L 857.425926 1137.17637 
" clip-path="url(#pcea7c59bcd)" style="fill: none; stroke: #808080; stroke-opacity: 0.3; stroke-width: 0.5; stroke-linecap: square"/>
   </g>
   <g id="line2d_17">
    <path d="M 915.957123 968.850356 
L 836.502382 833.89224 
" clip-path="url(#pcea7c59bcd)" style="fill: none; stroke: #808080; stroke-opacity: 0.3; stroke-width: 0.5; stroke-linecap: square"/>
   </g>
   <g id="line2d_18">
    <path d="M 625.525888 803.636449 
L 614.744701 819.948158 
" clip-path="url(#pcea7c59bcd)" style="fill: none; stroke: #808080; stroke-opacity: 0.3; stroke-width: 0.5; stroke-linecap: square"/>
   </g>
   <g id="line2d_19">
    <path d="M 625.525888 803.636449 
L 553.755982 782.896077 
" clip-path="url(#pcea7c59bcd)" style="fill: none; stroke: #808080; stroke-opacity: 0.3; stroke-width: 0.5; stroke-linecap: square"/>
   </g>
   <g id="line2d_20">
    <path d="M 569.853675 351.474709 
L 581.546499 603.875275 
" clip-path="url(#pcea7c59bcd)" style="fill: none; stroke: #808080; stroke-opacity: 0.3; stroke-width: 0.5; stroke-linecap: square"/>
   </g>
   <g id="line2d_21">
    <path d="M 709.468492 1085.806814 
L 707.786444 1002.820714 
" clip-path="url(#pcea7c59bcd)" style="fill: none; stroke: #808080; stroke-opacity: 0.3; stroke-width: 0.5; stroke-linecap: square"/>
   </g>
   <g id="line2d_22">
    <path d="M 739.561342 898.454208 
L 688.751076 938.480978 
" clip-path="url(#pcea7c59bcd)" style="fill: none; stroke: #808080; stroke-opacity: 0.3; stroke-width: 0.5; stroke-linecap: square"/>
   </g>
   <g id="line2d_23">
    <path d="M 739.561342 898.454208 
L 693.327308 869.555343 
" clip-path="url(#pcea7c59bcd)" style="fill: none; stroke: #808080; stroke-opacity: 0.3; stroke-width: 0.5; stroke-linecap: square"/>
   </g>
   <g id="line2d_24">
    <path d="M 739.561342 898.454208 
L 707.786444 1002.820714 
" clip-path="url(#pcea7c59bcd)" style="fill: none; stroke: #808080; stroke-opacity: 0.3; stroke-width: 0.5; stroke-linecap: square"/>
   </g>
   <g id="line2d_25">
    <path d="M 739.561342 898.454208 
L 836.502382 833.89224 
" clip-path="url(#pcea7c59bcd)" style="fill: none; stroke: #808080; stroke-opacity: 0.3; stroke-width: 0.5; stroke-linecap: square"/>
   </g>
   <g id="line2d_26">
    <path d="M 673.694176 864.304361 
L 668.575914 841.05535 
" clip-path="url(#pcea7c59bcd)" style="fill: none; stroke: #808080; stroke-opacity: 0.3; stroke-width: 0.5; stroke-linecap: square"/>
   </g>
   <g id="line2d_27">
    <path d="M 673.694176 864.304361 
L 693.327308 869.555343 
" clip-path="url(#pcea7c59bcd)" style="fill: none; stroke: #808080; stroke-opacity: 0.3; stroke-width: 0.5; stroke-linecap: square"/>
   </g>
   <g id="line2d_28">
    <path d="M 688.751076 938.480978 
L 707.786444 1002.820714 
" clip-path="url(#pcea7c59bcd)" style="fill: none; stroke: #808080; stroke-opacity: 0.3; stroke-width: 0.5; stroke-linecap: square"/>
   </g>
   <g id="line2d_29">
    <path d="M 956.113273 843.493861 
L 929.217885 835.226894 
" clip-path="url(#pcea7c59bcd)" style="fill: none; stroke: #808080; stroke-opacity: 0.3; stroke-width: 0.5; stroke-linecap: square"/>
   </g>
   <g id="line2d_30">
    <path d="M 614.744701 819.948158 
L 628.250228 833.720391 
" clip-path="url(#pcea7c59bcd)" style="fill: none; stroke: #808080; stroke-opacity: 0.3; stroke-width: 0.5; stroke-linecap: square"/>
   </g>
   <g id="line2d_31">
    <path d="M 614.744701 819.948158 
L 645.86108 824.253591 
" clip-path="url(#pcea7c59bcd)" style="fill: none; stroke: #808080; stroke-opacity: 0.3; stroke-width: 0.5; stroke-linecap: square"/>
   </g>
   <g id="line2d_32">
    <path d="M 614.744701 819.948158 
L 553.755982 782.896077 
" clip-path="url(#pcea7c59bcd)" style="fill: none; stroke: #808080; stroke-opacity: 0.3; stroke-width: 0.5; stroke-linecap: square"/>
   </g>
   <g id="line2d_33">
    <path d="M 894.18022 833.033658 
L 929.217885 835.226894 
" clip-path="url(#pcea7c59bcd)" style="fill: none; stroke: #808080; stroke-opacity: 0.3; stroke-width: 0.5; stroke-linecap: square"/>
   </g>
   <g id="line2d_34">
    <path d="M 894.18022 833.033658 
L 836.502382 833.89224 
" clip-path="url(#pcea7c59bcd)" style="fill: none; stroke: #808080; stroke-opacity: 0.3; stroke-width: 0.5; stroke-linecap: square"/>
   </g>
   <g id="line2d_35">
    <path d="M 645.86108 824.253591 
L 628.250228 833.720391 
" clip-path="url(#pcea7c59bcd)" style="fill: none; stroke: #808080; stroke-opacity: 0.3; stroke-width: 0.5; stroke-linecap: square"/>
   </g>
   <g id="line2d_36">
    <path d="M 645.86108 824.253591 
L 668.575914 841.05535 
" clip-path="url(#pcea7c59bcd)" style="fill: none; stroke: #808080; stroke-opacity: 0.3; stroke-width: 0.5; stroke-linecap: square"/>
   </g>
   <g id="line2d_37">
    <path d="M 553.755982 782.896077 
L 581.546499 603.875275 
" clip-path="url(#pcea7c59bcd)" style="fill: none; stroke: #808080; stroke-opacity: 0.3; stroke-width: 0.5; stroke-linecap: square"/>
   </g>
   <g id="text_1">
    <!-- ECU -->
    <g transform="translate(682.564983 940.136603) scale(0.06 -0.06)">
     <defs>
      <path id="DejaVuSans-45" d="M 628 4666 
L 3578 4666 
L 3578 4134 
L 1259 4134 
L 1259 2753 
L 3481 2753 
L 3481 2222 
L 1259 2222 
L 1259 531 
L 3634 531 
L 3634 0 
L 628 0 
L 628 4666 
z
" transform="scale(0.015625)"/>
      <path id="DejaVuSans-43" d="M 4122 4306 
L 4122 3641 
Q 3803 3938 3442 4084 
Q 3081 4231 2675 4231 
Q 1875 4231 1450 3742 
Q 1025 3253 1025 2328 
Q 1025 1406 1450 917 
Q 1875 428 2675 428 
Q 3081 428 3442 575 
Q 3803 722 4122 1019 
L 4122 359 
Q 3791 134 3420 21 
Q 3050 -91 2638 -91 
Q 1578 -91 968 557 
Q 359 1206 359 2328 
Q 359 3453 968 4101 
Q 1578 4750 2638 4750 
Q 3056 4750 3426 4639 
Q 3797 4528 4122 4306 
z
" transform="scale(0.015625)"/>
      <path id="DejaVuSans-55" d="M 556 4666 
L 1191 4666 
L 1191 1831 
Q 1191 1081 1462 751 
Q 1734 422 2344 422 
Q 2950 422 3222 751 
Q 3494 1081 3494 1831 
L 3494 4666 
L 4128 4666 
L 4128 1753 
Q 4128 841 3676 375 
Q 3225 -91 2344 -91 
Q 1459 -91 1007 375 
Q 556 841 556 1753 
L 556 4666 
z
" transform="scale(0.015625)"/>
     </defs>
     <use xlink:href="#DejaVuSans-45"/>
     <use xlink:href="#DejaVuSans-43" x="63.183594"/>
     <use xlink:href="#DejaVuSans-55" x="133.007812"/>
    </g>
   </g>
   <g id="text_2">
    <!-- SUR -->
    <g transform="translate(923.033197 836.882519) scale(0.06 -0.06)">
     <defs>
      <path id="DejaVuSans-53" d="M 3425 4513 
L 3425 3897 
Q 3066 4069 2747 4153 
Q 2428 4238 2131 4238 
Q 1616 4238 1336 4038 
Q 1056 3838 1056 3469 
Q 1056 3159 1242 3001 
Q 1428 2844 1947 2747 
L 2328 2669 
Q 3034 2534 3370 2195 
Q 3706 1856 3706 1288 
Q 3706 609 3251 259 
Q 2797 -91 1919 -91 
Q 1588 -91 1214 -16 
Q 841 59 441 206 
L 441 856 
Q 825 641 1194 531 
Q 1563 422 1919 422 
Q 2459 422 2753 634 
Q 3047 847 3047 1241 
Q 3047 1584 2836 1778 
Q 2625 1972 2144 2069 
L 1759 2144 
Q 1053 2284 737 2584 
Q 422 2884 422 3419 
Q 422 4038 858 4394 
Q 1294 4750 2059 4750 
Q 2388 4750 2728 4690 
Q 3069 4631 3425 4513 
z
" transform="scale(0.015625)"/>
      <path id="DejaVuSans-52" d="M 2841 2188 
Q 3044 2119 3236 1894 
Q 3428 1669 3622 1275 
L 4263 0 
L 3584 0 
L 2988 1197 
Q 2756 1666 2539 1819 
Q 2322 1972 1947 1972 
L 1259 1972 
L 1259 0 
L 628 0 
L 628 4666 
L 2053 4666 
Q 2853 4666 3247 4331 
Q 3641 3997 3641 3322 
Q 3641 2881 3436 2590 
Q 3231 2300 2841 2188 
z
M 1259 4147 
L 1259 2491 
L 2053 2491 
Q 2509 2491 2742 2702 
Q 2975 2913 2975 3322 
Q 2975 3731 2742 3939 
Q 2509 4147 2053 4147 
L 1259 4147 
z
" transform="scale(0.015625)"/>
     </defs>
     <use xlink:href="#DejaVuSans-53"/>
     <use xlink:href="#DejaVuSans-55" x="63.476562"/>
     <use xlink:href="#DejaVuSans-52" x="136.669922"/>
    </g>
   </g>
   <g id="text_3">
    <!-- BRA -->
    <g transform="translate(909.882123 970.505981) scale(0.06 -0.06)">
     <defs>
      <path id="DejaVuSans-42" d="M 1259 2228 
L 1259 519 
L 2272 519 
Q 2781 519 3026 730 
Q 3272 941 3272 1375 
Q 3272 1813 3026 2020 
Q 2781 2228 2272 2228 
L 1259 2228 
z
M 1259 4147 
L 1259 2741 
L 2194 2741 
Q 2656 2741 2882 2914 
Q 3109 3088 3109 3444 
Q 3109 3797 2882 3972 
Q 2656 4147 2194 4147 
L 1259 4147 
z
M 628 4666 
L 2241 4666 
Q 2963 4666 3353 4366 
Q 3744 4066 3744 3513 
Q 3744 3084 3544 2831 
Q 3344 2578 2956 2516 
Q 3422 2416 3680 2098 
Q 3938 1781 3938 1306 
Q 3938 681 3513 340 
Q 3088 0 2303 0 
L 628 0 
L 628 4666 
z
" transform="scale(0.015625)"/>
      <path id="DejaVuSans-41" d="M 2188 4044 
L 1331 1722 
L 3047 1722 
L 2188 4044 
z
M 1831 4666 
L 2547 4666 
L 4325 0 
L 3669 0 
L 3244 1197 
L 1141 1197 
L 716 0 
L 50 0 
L 1831 4666 
z
" transform="scale(0.015625)"/>
     </defs>
     <use xlink:href="#DejaVuSans-42"/>
     <use xlink:href="#DejaVuSans-52" x="68.603516"/>
     <use xlink:href="#DejaVuSans-41" x="134.085938"/>
    </g>
   </g>
   <g id="text_4">
    <!-- ARG -->
    <g transform="translate(770.588253 1165.16511) scale(0.06 -0.06)">
     <defs>
      <path id="DejaVuSans-47" d="M 3809 666 
L 3809 1919 
L 2778 1919 
L 2778 2438 
L 4434 2438 
L 4434 434 
Q 4069 175 3628 42 
Q 3188 -91 2688 -91 
Q 1594 -91 976 548 
Q 359 1188 359 2328 
Q 359 3472 976 4111 
Q 1594 4750 2688 4750 
Q 3144 4750 3555 4637 
Q 3966 4525 4313 4306 
L 4313 3634 
Q 3963 3931 3569 4081 
Q 3175 4231 2741 4231 
Q 1884 4231 1454 3753 
Q 1025 3275 1025 2328 
Q 1025 1384 1454 906 
Q 1884 428 2741 428 
Q 3075 428 3337 486 
Q 3600 544 3809 666 
z
" transform="scale(0.015625)"/>
     </defs>
     <use xlink:href="#DejaVuSans-41"/>
     <use xlink:href="#DejaVuSans-52" x="68.408203"/>
     <use xlink:href="#DejaVuSans-47" x="137.890625"/>
    </g>
   </g>
   <g id="text_5">
    <!-- NIC -->
    <g transform="translate(663.351695 842.710975) scale(0.06 -0.06)">
     <defs>
      <path id="DejaVuSans-4e" d="M 628 4666 
L 1478 4666 
L 3547 763 
L 3547 4666 
L 4159 4666 
L 4159 0 
L 3309 0 
L 1241 3903 
L 1241 0 
L 628 0 
L 628 4666 
z
" transform="scale(0.015625)"/>
      <path id="DejaVuSans-49" d="M 628 4666 
L 1259 4666 
L 1259 0 
L 628 0 
L 628 4666 
z
" transform="scale(0.015625)"/>
     </defs>
     <use xlink:href="#DejaVuSans-4e"/>
     <use xlink:href="#DejaVuSans-49" x="74.804688"/>
     <use xlink:href="#DejaVuSans-43" x="104.296875"/>
    </g>
   </g>
   <g id="text_6">
    <!-- BLZ -->
    <g transform="translate(619.741044 805.292074) scale(0.06 -0.06)">
     <defs>
      <path id="DejaVuSans-4c" d="M 628 4666 
L 1259 4666 
L 1259 531 
L 3531 531 
L 3531 0 
L 628 0 
L 628 4666 
z
" transform="scale(0.015625)"/>
      <path id="DejaVuSans-5a" d="M 359 4666 
L 4025 4666 
L 4025 4184 
L 1075 531 
L 4097 531 
L 4097 0 
L 288 0 
L 288 481 
L 3238 4134 
L 359 4134 
L 359 4666 
z
" transform="scale(0.015625)"/>
     </defs>
     <use xlink:href="#DejaVuSans-42"/>
     <use xlink:href="#DejaVuSans-4c" x="68.603516"/>
     <use xlink:href="#DejaVuSans-5a" x="124.316406"/>
    </g>
   </g>
   <g id="text_7">
    <!-- BOL -->
    <g transform="translate(774.002738 1055.453321) scale(0.06 -0.06)">
     <defs>
      <path id="DejaVuSans-4f" d="M 2522 4238 
Q 1834 4238 1429 3725 
Q 1025 3213 1025 2328 
Q 1025 1447 1429 934 
Q 1834 422 2522 422 
Q 3209 422 3611 934 
Q 4013 1447 4013 2328 
Q 4013 3213 3611 3725 
Q 3209 4238 2522 4238 
z
M 2522 4750 
Q 3503 4750 4090 4092 
Q 4678 3434 4678 2328 
Q 4678 1225 4090 567 
Q 3503 -91 2522 -91 
Q 1538 -91 948 565 
Q 359 1222 359 2328 
Q 359 3434 948 4092 
Q 1538 4750 2522 4750 
z
" transform="scale(0.015625)"/>
     </defs>
     <use xlink:href="#DejaVuSans-42"/>
     <use xlink:href="#DejaVuSans-4f" x="66.853516"/>
     <use xlink:href="#DejaVuSans-4c" x="145.564453"/>
    </g>
   </g>
   <g id="text_8">
    <!-- HND -->
    <g transform="translate(639.050611 825.909216) scale(0.06 -0.06)">
     <defs>
      <path id="DejaVuSans-48" d="M 628 4666 
L 1259 4666 
L 1259 2753 
L 3553 2753 
L 3553 4666 
L 4184 4666 
L 4184 0 
L 3553 0 
L 3553 2222 
L 1259 2222 
L 1259 0 
L 628 0 
L 628 4666 
z
" transform="scale(0.015625)"/>
      <path id="DejaVuSans-44" d="M 1259 4147 
L 1259 519 
L 2022 519 
Q 2988 519 3436 956 
Q 3884 1394 3884 2338 
Q 3884 3275 3436 3711 
Q 2988 4147 2022 4147 
L 1259 4147 
z
M 628 4666 
L 1925 4666 
Q 3281 4666 3915 4102 
Q 4550 3538 4550 2338 
Q 4550 1131 3912 565 
Q 3275 0 1925 0 
L 628 0 
L 628 4666 
z
" transform="scale(0.015625)"/>
     </defs>
     <use xlink:href="#DejaVuSans-48"/>
     <use xlink:href="#DejaVuSans-4e" x="75.195312"/>
     <use xlink:href="#DejaVuSans-44" x="150"/>
    </g>
   </g>
   <g id="text_9">
    <!-- PRY -->
    <g transform="translate(831.352827 1093.567759) scale(0.06 -0.06)">
     <defs>
      <path id="DejaVuSans-50" d="M 1259 4147 
L 1259 2394 
L 2053 2394 
Q 2494 2394 2734 2622 
Q 2975 2850 2975 3272 
Q 2975 3691 2734 3919 
Q 2494 4147 2053 4147 
L 1259 4147 
z
M 628 4666 
L 2053 4666 
Q 2838 4666 3239 4311 
Q 3641 3956 3641 3272 
Q 3641 2581 3239 2228 
Q 2838 1875 2053 1875 
L 1259 1875 
L 1259 0 
L 628 0 
L 628 4666 
z
" transform="scale(0.015625)"/>
      <path id="DejaVuSans-59" d="M -13 4666 
L 666 4666 
L 1959 2747 
L 3244 4666 
L 3922 4666 
L 2272 2222 
L 2272 0 
L 1638 0 
L 1638 2222 
L -13 4666 
z
" transform="scale(0.015625)"/>
     </defs>
     <use xlink:href="#DejaVuSans-50"/>
     <use xlink:href="#DejaVuSans-52" x="60.302734"/>
     <use xlink:href="#DejaVuSans-59" x="123.410156"/>
    </g>
   </g>
   <g id="text_10">
    <!-- CAN -->
    <g transform="translate(563.462269 353.130334) scale(0.06 -0.06)">
     <use xlink:href="#DejaVuSans-43"/>
     <use xlink:href="#DejaVuSans-41" x="69.824219"/>
     <use xlink:href="#DejaVuSans-4e" x="138.232422"/>
    </g>
   </g>
   <g id="text_11">
    <!-- URY -->
    <g transform="translate(851.504676 1138.831995) scale(0.06 -0.06)">
     <use xlink:href="#DejaVuSans-55"/>
     <use xlink:href="#DejaVuSans-52" x="73.193359"/>
     <use xlink:href="#DejaVuSans-59" x="136.300781"/>
    </g>
   </g>
   <g id="text_12">
    <!-- SLV -->
    <g transform="translate(622.951946 835.376016) scale(0.06 -0.06)">
     <defs>
      <path id="DejaVuSans-56" d="M 1831 0 
L 50 4666 
L 709 4666 
L 2188 738 
L 3669 4666 
L 4325 4666 
L 2547 0 
L 1831 0 
z
" transform="scale(0.015625)"/>
     </defs>
     <use xlink:href="#DejaVuSans-53"/>
     <use xlink:href="#DejaVuSans-4c" x="63.476562"/>
     <use xlink:href="#DejaVuSans-56" x="108.189453"/>
    </g>
   </g>
   <g id="text_13">
    <!-- MEX -->
    <g transform="translate(547.21692 784.551702) scale(0.06 -0.06)">
     <defs>
      <path id="DejaVuSans-4d" d="M 628 4666 
L 1569 4666 
L 2759 1491 
L 3956 4666 
L 4897 4666 
L 4897 0 
L 4281 0 
L 4281 4097 
L 3078 897 
L 2444 897 
L 1241 4097 
L 1241 0 
L 628 0 
L 628 4666 
z
" transform="scale(0.015625)"/>
      <path id="DejaVuSans-58" d="M 403 4666 
L 1081 4666 
L 2241 2931 
L 3406 4666 
L 4084 4666 
L 2584 2425 
L 4184 0 
L 3506 0 
L 2194 1984 
L 872 0 
L 191 0 
L 1856 2491 
L 403 4666 
z
" transform="scale(0.015625)"/>
     </defs>
     <use xlink:href="#DejaVuSans-4d"/>
     <use xlink:href="#DejaVuSans-45" x="86.279297"/>
     <use xlink:href="#DejaVuSans-58" x="149.462891"/>
    </g>
   </g>
   <g id="text_14">
    <!-- CRI -->
    <g transform="translate(668.629801 865.959986) scale(0.06 -0.06)">
     <use xlink:href="#DejaVuSans-43"/>
     <use xlink:href="#DejaVuSans-52" x="69.824219"/>
     <use xlink:href="#DejaVuSans-49" x="139.306641"/>
    </g>
   </g>
   <g id="text_15">
    <!-- PAN -->
    <g transform="translate(687.413089 871.210968) scale(0.06 -0.06)">
     <use xlink:href="#DejaVuSans-50"/>
     <use xlink:href="#DejaVuSans-41" x="53.927734"/>
     <use xlink:href="#DejaVuSans-4e" x="122.335938"/>
    </g>
   </g>
   <g id="text_16">
    <!-- GTM -->
    <g transform="translate(608.108138 821.603783) scale(0.06 -0.06)">
     <defs>
      <path id="DejaVuSans-54" d="M -19 4666 
L 3928 4666 
L 3928 4134 
L 2272 4134 
L 2272 0 
L 1638 0 
L 1638 4134 
L -19 4134 
L -19 4666 
z
" transform="scale(0.015625)"/>
     </defs>
     <use xlink:href="#DejaVuSans-47"/>
     <use xlink:href="#DejaVuSans-54" x="73.865234"/>
     <use xlink:href="#DejaVuSans-4d" x="134.949219"/>
    </g>
   </g>
   <g id="text_17">
    <!-- VEN -->
    <g transform="translate(830.310195 835.547865) scale(0.06 -0.06)">
     <use xlink:href="#DejaVuSans-56"/>
     <use xlink:href="#DejaVuSans-45" x="68.408203"/>
     <use xlink:href="#DejaVuSans-4e" x="131.591797"/>
    </g>
   </g>
   <g id="text_18">
    <!-- CHL -->
    <g transform="translate(703.445992 1087.462439) scale(0.06 -0.06)">
     <use xlink:href="#DejaVuSans-43"/>
     <use xlink:href="#DejaVuSans-48" x="69.824219"/>
     <use xlink:href="#DejaVuSans-4c" x="145.019531"/>
    </g>
   </g>
   <g id="text_19">
    <!-- PER -->
    <g transform="translate(701.997382 1004.476339) scale(0.06 -0.06)">
     <use xlink:href="#DejaVuSans-50"/>
     <use xlink:href="#DejaVuSans-45" x="60.302734"/>
     <use xlink:href="#DejaVuSans-52" x="123.486328"/>
    </g>
   </g>
   <g id="text_20">
    <!-- USA -->
    <g transform="translate(575.337905 605.5309) scale(0.06 -0.06)">
     <use xlink:href="#DejaVuSans-55"/>
     <use xlink:href="#DejaVuSans-53" x="73.193359"/>
     <use xlink:href="#DejaVuSans-41" x="138.544922"/>
    </g>
   </g>
   <g id="text_21">
    <!-- COL -->
    <g transform="translate(733.433373 900.109833) scale(0.06 -0.06)">
     <use xlink:href="#DejaVuSans-43"/>
     <use xlink:href="#DejaVuSans-4f" x="69.824219"/>
     <use xlink:href="#DejaVuSans-4c" x="148.535156"/>
    </g>
   </g>
   <g id="text_22">
    <!-- GUF -->
    <g transform="translate(949.867648 845.149486) scale(0.06 -0.06)">
     <defs>
      <path id="DejaVuSans-46" d="M 628 4666 
L 3309 4666 
L 3309 4134 
L 1259 4134 
L 1259 2759 
L 3109 2759 
L 3109 2228 
L 1259 2228 
L 1259 0 
L 628 0 
L 628 4666 
z
" transform="scale(0.015625)"/>
     </defs>
     <use xlink:href="#DejaVuSans-47"/>
     <use xlink:href="#DejaVuSans-55" x="77.490234"/>
     <use xlink:href="#DejaVuSans-46" x="150.683594"/>
    </g>
   </g>
   <g id="text_23">
    <!-- GUY -->
    <g transform="translate(887.82772 834.689283) scale(0.06 -0.06)">
     <use xlink:href="#DejaVuSans-47"/>
     <use xlink:href="#DejaVuSans-55" x="77.490234"/>
     <use xlink:href="#DejaVuSans-59" x="150.683594"/>
    </g>
   </g>
   <g id="text_24">
    <!-- A:2.74 -->
    <g transform="translate(778.545574 1108.65359) scale(0.04 -0.04)">
     <defs>
      <path id="DejaVuSans-3a" d="M 750 794 
L 1409 794 
L 1409 0 
L 750 0 
L 750 794 
z
M 750 3309 
L 1409 3309 
L 1409 2516 
L 750 2516 
L 750 3309 
z
" transform="scale(0.015625)"/>
      <path id="DejaVuSans-32" d="M 1228 531 
L 3431 531 
L 3431 0 
L 469 0 
L 469 531 
Q 828 903 1448 1529 
Q 2069 2156 2228 2338 
Q 2531 2678 2651 2914 
Q 2772 3150 2772 3378 
Q 2772 3750 2511 3984 
Q 2250 4219 1831 4219 
Q 1534 4219 1204 4116 
Q 875 4013 500 3803 
L 500 4441 
Q 881 4594 1212 4672 
Q 1544 4750 1819 4750 
Q 2544 4750 2975 4387 
Q 3406 4025 3406 3419 
Q 3406 3131 3298 2873 
Q 3191 2616 2906 2266 
Q 2828 2175 2409 1742 
Q 1991 1309 1228 531 
z
" transform="scale(0.015625)"/>
      <path id="DejaVuSans-2e" d="M 684 794 
L 1344 794 
L 1344 0 
L 684 0 
L 684 794 
z
" transform="scale(0.015625)"/>
      <path id="DejaVuSans-37" d="M 525 4666 
L 3525 4666 
L 3525 4397 
L 1831 0 
L 1172 0 
L 2766 4134 
L 525 4134 
L 525 4666 
z
" transform="scale(0.015625)"/>
      <path id="DejaVuSans-34" d="M 2419 4116 
L 825 1625 
L 2419 1625 
L 2419 4116 
z
M 2253 4666 
L 3047 4666 
L 3047 1625 
L 3713 1625 
L 3713 1100 
L 3047 1100 
L 3047 0 
L 2419 0 
L 2419 1100 
L 313 1100 
L 313 1709 
L 2253 4666 
z
" transform="scale(0.015625)"/>
     </defs>
     <use xlink:href="#DejaVuSans-41"/>
     <use xlink:href="#DejaVuSans-3a" x="66.658203"/>
     <use xlink:href="#DejaVuSans-32" x="100.349609"/>
     <use xlink:href="#DejaVuSans-2e" x="163.972656"/>
     <use xlink:href="#DejaVuSans-37" x="195.759766"/>
     <use xlink:href="#DejaVuSans-34" x="259.382812"/>
    </g>
   </g>
   <g id="text_25">
    <!-- D:28.46 -->
    <g transform="translate(846.503313 1061.700795) scale(0.04 -0.04)">
     <defs>
      <path id="DejaVuSans-38" d="M 2034 2216 
Q 1584 2216 1326 1975 
Q 1069 1734 1069 1313 
Q 1069 891 1326 650 
Q 1584 409 2034 409 
Q 2484 409 2743 651 
Q 3003 894 3003 1313 
Q 3003 1734 2745 1975 
Q 2488 2216 2034 2216 
z
M 1403 2484 
Q 997 2584 770 2862 
Q 544 3141 544 3541 
Q 544 4100 942 4425 
Q 1341 4750 2034 4750 
Q 2731 4750 3128 4425 
Q 3525 4100 3525 3541 
Q 3525 3141 3298 2862 
Q 3072 2584 2669 2484 
Q 3125 2378 3379 2068 
Q 3634 1759 3634 1313 
Q 3634 634 3220 271 
Q 2806 -91 2034 -91 
Q 1263 -91 848 271 
Q 434 634 434 1313 
Q 434 1759 690 2068 
Q 947 2378 1403 2484 
z
M 1172 3481 
Q 1172 3119 1398 2916 
Q 1625 2713 2034 2713 
Q 2441 2713 2670 2916 
Q 2900 3119 2900 3481 
Q 2900 3844 2670 4047 
Q 2441 4250 2034 4250 
Q 1625 4250 1398 4047 
Q 1172 3844 1172 3481 
z
" transform="scale(0.015625)"/>
      <path id="DejaVuSans-36" d="M 2113 2584 
Q 1688 2584 1439 2293 
Q 1191 2003 1191 1497 
Q 1191 994 1439 701 
Q 1688 409 2113 409 
Q 2538 409 2786 701 
Q 3034 994 3034 1497 
Q 3034 2003 2786 2293 
Q 2538 2584 2113 2584 
z
M 3366 4563 
L 3366 3988 
Q 3128 4100 2886 4159 
Q 2644 4219 2406 4219 
Q 1781 4219 1451 3797 
Q 1122 3375 1075 2522 
Q 1259 2794 1537 2939 
Q 1816 3084 2150 3084 
Q 2853 3084 3261 2657 
Q 3669 2231 3669 1497 
Q 3669 778 3244 343 
Q 2819 -91 2113 -91 
Q 1303 -91 875 529 
Q 447 1150 447 2328 
Q 447 3434 972 4092 
Q 1497 4750 2381 4750 
Q 2619 4750 2861 4703 
Q 3103 4656 3366 4563 
z
" transform="scale(0.015625)"/>
     </defs>
     <use xlink:href="#DejaVuSans-44"/>
     <use xlink:href="#DejaVuSans-3a" x="77.001953"/>
     <use xlink:href="#DejaVuSans-32" x="110.693359"/>
     <use xlink:href="#DejaVuSans-38" x="174.316406"/>
     <use xlink:href="#DejaVuSans-2e" x="237.939453"/>
     <use xlink:href="#DejaVuSans-34" x="269.726562"/>
     <use xlink:href="#DejaVuSans-36" x="333.349609"/>
    </g>
    <!-- A:8.31 -->
    <g transform="translate(846.503313 1066.17992) scale(0.04 -0.04)">
     <defs>
      <path id="DejaVuSans-33" d="M 2597 2516 
Q 3050 2419 3304 2112 
Q 3559 1806 3559 1356 
Q 3559 666 3084 287 
Q 2609 -91 1734 -91 
Q 1441 -91 1130 -33 
Q 819 25 488 141 
L 488 750 
Q 750 597 1062 519 
Q 1375 441 1716 441 
Q 2309 441 2620 675 
Q 2931 909 2931 1356 
Q 2931 1769 2642 2001 
Q 2353 2234 1838 2234 
L 1294 2234 
L 1294 2753 
L 1863 2753 
Q 2328 2753 2575 2939 
Q 2822 3125 2822 3475 
Q 2822 3834 2567 4026 
Q 2313 4219 1838 4219 
Q 1578 4219 1281 4162 
Q 984 4106 628 3988 
L 628 4550 
Q 988 4650 1302 4700 
Q 1616 4750 1894 4750 
Q 2613 4750 3031 4423 
Q 3450 4097 3450 3541 
Q 3450 3153 3228 2886 
Q 3006 2619 2597 2516 
z
" transform="scale(0.015625)"/>
      <path id="DejaVuSans-31" d="M 794 531 
L 1825 531 
L 1825 4091 
L 703 3866 
L 703 4441 
L 1819 4666 
L 2450 4666 
L 2450 531 
L 3481 531 
L 3481 0 
L 794 0 
L 794 531 
z
" transform="scale(0.015625)"/>
     </defs>
     <use xlink:href="#DejaVuSans-41"/>
     <use xlink:href="#DejaVuSans-3a" x="66.658203"/>
     <use xlink:href="#DejaVuSans-38" x="100.349609"/>
     <use xlink:href="#DejaVuSans-2e" x="163.972656"/>
     <use xlink:href="#DejaVuSans-33" x="195.759766"/>
     <use xlink:href="#DejaVuSans-31" x="259.382812"/>
    </g>
   </g>
   <g id="text_26">
    <!-- A:8.31 -->
    <g transform="translate(846.503313 1066.17992) scale(0.04 -0.04)">
     <use xlink:href="#DejaVuSans-41"/>
     <use xlink:href="#DejaVuSans-3a" x="66.658203"/>
     <use xlink:href="#DejaVuSans-38" x="100.349609"/>
     <use xlink:href="#DejaVuSans-2e" x="163.972656"/>
     <use xlink:href="#DejaVuSans-33" x="195.759766"/>
     <use xlink:href="#DejaVuSans-31" x="259.382812"/>
    </g>
   </g>
   <g id="text_27">
    <!-- A:10.69 -->
    <g transform="translate(743.258997 1124.65815) scale(0.04 -0.04)">
     <defs>
      <path id="DejaVuSans-30" d="M 2034 4250 
Q 1547 4250 1301 3770 
Q 1056 3291 1056 2328 
Q 1056 1369 1301 889 
Q 1547 409 2034 409 
Q 2525 409 2770 889 
Q 3016 1369 3016 2328 
Q 3016 3291 2770 3770 
Q 2525 4250 2034 4250 
z
M 2034 4750 
Q 2819 4750 3233 4129 
Q 3647 3509 3647 2328 
Q 3647 1150 3233 529 
Q 2819 -91 2034 -91 
Q 1250 -91 836 529 
Q 422 1150 422 2328 
Q 422 3509 836 4129 
Q 1250 4750 2034 4750 
z
" transform="scale(0.015625)"/>
      <path id="DejaVuSans-39" d="M 703 97 
L 703 672 
Q 941 559 1184 500 
Q 1428 441 1663 441 
Q 2288 441 2617 861 
Q 2947 1281 2994 2138 
Q 2813 1869 2534 1725 
Q 2256 1581 1919 1581 
Q 1219 1581 811 2004 
Q 403 2428 403 3163 
Q 403 3881 828 4315 
Q 1253 4750 1959 4750 
Q 2769 4750 3195 4129 
Q 3622 3509 3622 2328 
Q 3622 1225 3098 567 
Q 2575 -91 1691 -91 
Q 1453 -91 1209 -44 
Q 966 3 703 97 
z
M 1959 2075 
Q 2384 2075 2632 2365 
Q 2881 2656 2881 3163 
Q 2881 3666 2632 3958 
Q 2384 4250 1959 4250 
Q 1534 4250 1286 3958 
Q 1038 3666 1038 3163 
Q 1038 2656 1286 2365 
Q 1534 2075 1959 2075 
z
" transform="scale(0.015625)"/>
     </defs>
     <use xlink:href="#DejaVuSans-41"/>
     <use xlink:href="#DejaVuSans-3a" x="66.658203"/>
     <use xlink:href="#DejaVuSans-31" x="100.349609"/>
     <use xlink:href="#DejaVuSans-30" x="163.972656"/>
     <use xlink:href="#DejaVuSans-2e" x="227.595703"/>
     <use xlink:href="#DejaVuSans-36" x="259.382812"/>
     <use xlink:href="#DejaVuSans-39" x="323.005859"/>
    </g>
   </g>
   <g id="text_28">
    <!-- A:6.26 -->
    <g transform="translate(806.968431 1127.710809) scale(0.04 -0.04)">
     <use xlink:href="#DejaVuSans-41"/>
     <use xlink:href="#DejaVuSans-3a" x="66.658203"/>
     <use xlink:href="#DejaVuSans-36" x="100.349609"/>
     <use xlink:href="#DejaVuSans-2e" x="163.972656"/>
     <use xlink:href="#DejaVuSans-32" x="195.759766"/>
     <use xlink:href="#DejaVuSans-36" x="259.382812"/>
    </g>
   </g>
   <g id="text_29">
    <!-- A:6.12 -->
    <g transform="translate(817.237714 1150.342927) scale(0.04 -0.04)">
     <use xlink:href="#DejaVuSans-41"/>
     <use xlink:href="#DejaVuSans-3a" x="66.658203"/>
     <use xlink:href="#DejaVuSans-36" x="100.349609"/>
     <use xlink:href="#DejaVuSans-2e" x="163.972656"/>
     <use xlink:href="#DejaVuSans-31" x="195.759766"/>
     <use xlink:href="#DejaVuSans-32" x="259.382812"/>
    </g>
   </g>
   <g id="text_30">
    <!-- A:1.66 -->
    <g transform="translate(847.999384 1011.324026) scale(0.04 -0.04)">
     <use xlink:href="#DejaVuSans-41"/>
     <use xlink:href="#DejaVuSans-3a" x="66.658203"/>
     <use xlink:href="#DejaVuSans-31" x="100.349609"/>
     <use xlink:href="#DejaVuSans-2e" x="163.972656"/>
     <use xlink:href="#DejaVuSans-36" x="195.759766"/>
     <use xlink:href="#DejaVuSans-36" x="259.382812"/>
    </g>
   </g>
   <g id="text_31">
    <!-- A:22.68 -->
    <g transform="translate(744.755068 1069.802255) scale(0.04 -0.04)">
     <use xlink:href="#DejaVuSans-41"/>
     <use xlink:href="#DejaVuSans-3a" x="66.658203"/>
     <use xlink:href="#DejaVuSans-32" x="100.349609"/>
     <use xlink:href="#DejaVuSans-32" x="163.972656"/>
     <use xlink:href="#DejaVuSans-2e" x="227.595703"/>
     <use xlink:href="#DejaVuSans-36" x="259.382812"/>
     <use xlink:href="#DejaVuSans-38" x="323.005859"/>
    </g>
   </g>
   <g id="text_32">
    <!-- D:0.00 -->
    <g transform="translate(808.464502 1068.37579) scale(0.04 -0.04)">
     <use xlink:href="#DejaVuSans-44"/>
     <use xlink:href="#DejaVuSans-3a" x="77.001953"/>
     <use xlink:href="#DejaVuSans-30" x="110.693359"/>
     <use xlink:href="#DejaVuSans-2e" x="174.316406"/>
     <use xlink:href="#DejaVuSans-30" x="206.103516"/>
     <use xlink:href="#DejaVuSans-30" x="269.726562"/>
    </g>
    <!-- A:3.76 -->
    <g transform="translate(808.464502 1072.854915) scale(0.04 -0.04)">
     <use xlink:href="#DejaVuSans-41"/>
     <use xlink:href="#DejaVuSans-3a" x="66.658203"/>
     <use xlink:href="#DejaVuSans-33" x="100.349609"/>
     <use xlink:href="#DejaVuSans-2e" x="163.972656"/>
     <use xlink:href="#DejaVuSans-37" x="195.759766"/>
     <use xlink:href="#DejaVuSans-36" x="259.382812"/>
    </g>
   </g>
   <g id="text_33">
    <!-- A:3.76 -->
    <g transform="translate(808.464502 1072.854915) scale(0.04 -0.04)">
     <use xlink:href="#DejaVuSans-41"/>
     <use xlink:href="#DejaVuSans-3a" x="66.658203"/>
     <use xlink:href="#DejaVuSans-33" x="100.349609"/>
     <use xlink:href="#DejaVuSans-2e" x="163.972656"/>
     <use xlink:href="#DejaVuSans-37" x="195.759766"/>
     <use xlink:href="#DejaVuSans-36" x="259.382812"/>
    </g>
   </g>
   <g id="text_34">
    <!-- A:1.52 -->
    <g transform="translate(743.914044 1028.309205) scale(0.04 -0.04)">
     <defs>
      <path id="DejaVuSans-35" d="M 691 4666 
L 3169 4666 
L 3169 4134 
L 1269 4134 
L 1269 2991 
Q 1406 3038 1543 3061 
Q 1681 3084 1819 3084 
Q 2600 3084 3056 2656 
Q 3513 2228 3513 1497 
Q 3513 744 3044 326 
Q 2575 -91 1722 -91 
Q 1428 -91 1123 -41 
Q 819 9 494 109 
L 494 744 
Q 775 591 1075 516 
Q 1375 441 1709 441 
Q 2250 441 2565 725 
Q 2881 1009 2881 1497 
Q 2881 1984 2565 2268 
Q 2250 2553 1709 2553 
Q 1456 2553 1204 2497 
Q 953 2441 691 2322 
L 691 4666 
z
" transform="scale(0.015625)"/>
     </defs>
     <use xlink:href="#DejaVuSans-41"/>
     <use xlink:href="#DejaVuSans-3a" x="66.658203"/>
     <use xlink:href="#DejaVuSans-31" x="100.349609"/>
     <use xlink:href="#DejaVuSans-2e" x="163.972656"/>
     <use xlink:href="#DejaVuSans-35" x="195.759766"/>
     <use xlink:href="#DejaVuSans-32" x="259.382812"/>
    </g>
   </g>
   <g id="text_35">
    <!-- D:17.35 -->
    <g transform="translate(827.759233 929.173157) scale(0.04 -0.04)">
     <use xlink:href="#DejaVuSans-44"/>
     <use xlink:href="#DejaVuSans-3a" x="77.001953"/>
     <use xlink:href="#DejaVuSans-31" x="110.693359"/>
     <use xlink:href="#DejaVuSans-37" x="174.316406"/>
     <use xlink:href="#DejaVuSans-2e" x="237.939453"/>
     <use xlink:href="#DejaVuSans-33" x="269.726562"/>
     <use xlink:href="#DejaVuSans-35" x="333.349609"/>
    </g>
    <!-- A:9.84 -->
    <g transform="translate(827.759233 933.652282) scale(0.04 -0.04)">
     <use xlink:href="#DejaVuSans-41"/>
     <use xlink:href="#DejaVuSans-3a" x="66.658203"/>
     <use xlink:href="#DejaVuSans-39" x="100.349609"/>
     <use xlink:href="#DejaVuSans-2e" x="163.972656"/>
     <use xlink:href="#DejaVuSans-38" x="195.759766"/>
     <use xlink:href="#DejaVuSans-34" x="259.382812"/>
    </g>
   </g>
   <g id="text_36">
    <!-- A:9.84 -->
    <g transform="translate(827.759233 933.652282) scale(0.04 -0.04)">
     <use xlink:href="#DejaVuSans-41"/>
     <use xlink:href="#DejaVuSans-3a" x="66.658203"/>
     <use xlink:href="#DejaVuSans-39" x="100.349609"/>
     <use xlink:href="#DejaVuSans-2e" x="163.972656"/>
     <use xlink:href="#DejaVuSans-38" x="195.759766"/>
     <use xlink:href="#DejaVuSans-34" x="259.382812"/>
    </g>
   </g>
   <g id="text_37">
    <!-- D:1.10 -->
    <g transform="translate(936.035198 901.692983) scale(0.04 -0.04)">
     <use xlink:href="#DejaVuSans-44"/>
     <use xlink:href="#DejaVuSans-3a" x="77.001953"/>
     <use xlink:href="#DejaVuSans-31" x="110.693359"/>
     <use xlink:href="#DejaVuSans-2e" x="174.316406"/>
     <use xlink:href="#DejaVuSans-31" x="206.103516"/>
     <use xlink:href="#DejaVuSans-30" x="269.726562"/>
    </g>
    <!-- A:5.35 -->
    <g transform="translate(936.035198 906.172108) scale(0.04 -0.04)">
     <use xlink:href="#DejaVuSans-41"/>
     <use xlink:href="#DejaVuSans-3a" x="66.658203"/>
     <use xlink:href="#DejaVuSans-35" x="100.349609"/>
     <use xlink:href="#DejaVuSans-2e" x="163.972656"/>
     <use xlink:href="#DejaVuSans-33" x="195.759766"/>
     <use xlink:href="#DejaVuSans-35" x="259.382812"/>
    </g>
   </g>
   <g id="text_38">
    <!-- A:5.35 -->
    <g transform="translate(936.035198 906.172108) scale(0.04 -0.04)">
     <use xlink:href="#DejaVuSans-41"/>
     <use xlink:href="#DejaVuSans-3a" x="66.658203"/>
     <use xlink:href="#DejaVuSans-35" x="100.349609"/>
     <use xlink:href="#DejaVuSans-2e" x="163.972656"/>
     <use xlink:href="#DejaVuSans-33" x="195.759766"/>
     <use xlink:href="#DejaVuSans-35" x="259.382812"/>
    </g>
   </g>
   <g id="text_39">
    <!-- D:0.19 -->
    <g transform="translate(905.068672 896.462882) scale(0.04 -0.04)">
     <use xlink:href="#DejaVuSans-44"/>
     <use xlink:href="#DejaVuSans-3a" x="77.001953"/>
     <use xlink:href="#DejaVuSans-30" x="110.693359"/>
     <use xlink:href="#DejaVuSans-2e" x="174.316406"/>
     <use xlink:href="#DejaVuSans-31" x="206.103516"/>
     <use xlink:href="#DejaVuSans-39" x="269.726562"/>
    </g>
    <!-- A:3.23 -->
    <g transform="translate(905.068672 900.942007) scale(0.04 -0.04)">
     <use xlink:href="#DejaVuSans-41"/>
     <use xlink:href="#DejaVuSans-3a" x="66.658203"/>
     <use xlink:href="#DejaVuSans-33" x="100.349609"/>
     <use xlink:href="#DejaVuSans-2e" x="163.972656"/>
     <use xlink:href="#DejaVuSans-32" x="195.759766"/>
     <use xlink:href="#DejaVuSans-33" x="259.382812"/>
    </g>
   </g>
   <g id="text_40">
    <!-- A:3.23 -->
    <g transform="translate(905.068672 900.942007) scale(0.04 -0.04)">
     <use xlink:href="#DejaVuSans-41"/>
     <use xlink:href="#DejaVuSans-3a" x="66.658203"/>
     <use xlink:href="#DejaVuSans-33" x="100.349609"/>
     <use xlink:href="#DejaVuSans-2e" x="163.972656"/>
     <use xlink:href="#DejaVuSans-32" x="195.759766"/>
     <use xlink:href="#DejaVuSans-33" x="259.382812"/>
    </g>
   </g>
   <g id="text_41">
    <!-- D:1.33 -->
    <g transform="translate(876.422241 1025.90212) scale(0.04 -0.04)">
     <use xlink:href="#DejaVuSans-44"/>
     <use xlink:href="#DejaVuSans-3a" x="77.001953"/>
     <use xlink:href="#DejaVuSans-31" x="110.693359"/>
     <use xlink:href="#DejaVuSans-2e" x="174.316406"/>
     <use xlink:href="#DejaVuSans-33" x="206.103516"/>
     <use xlink:href="#DejaVuSans-33" x="269.726562"/>
    </g>
    <!-- A:10.96 -->
    <g transform="translate(876.422241 1030.381245) scale(0.04 -0.04)">
     <use xlink:href="#DejaVuSans-41"/>
     <use xlink:href="#DejaVuSans-3a" x="66.658203"/>
     <use xlink:href="#DejaVuSans-31" x="100.349609"/>
     <use xlink:href="#DejaVuSans-30" x="163.972656"/>
     <use xlink:href="#DejaVuSans-2e" x="227.595703"/>
     <use xlink:href="#DejaVuSans-39" x="259.382812"/>
     <use xlink:href="#DejaVuSans-36" x="323.005859"/>
    </g>
   </g>
   <g id="text_42">
    <!-- A:10.96 -->
    <g transform="translate(876.422241 1030.381245) scale(0.04 -0.04)">
     <use xlink:href="#DejaVuSans-41"/>
     <use xlink:href="#DejaVuSans-3a" x="66.658203"/>
     <use xlink:href="#DejaVuSans-31" x="100.349609"/>
     <use xlink:href="#DejaVuSans-30" x="163.972656"/>
     <use xlink:href="#DejaVuSans-2e" x="227.595703"/>
     <use xlink:href="#DejaVuSans-39" x="259.382812"/>
     <use xlink:href="#DejaVuSans-36" x="323.005859"/>
    </g>
   </g>
   <g id="text_43">
    <!-- D:28.23 -->
    <g transform="translate(811.871784 981.35641) scale(0.04 -0.04)">
     <use xlink:href="#DejaVuSans-44"/>
     <use xlink:href="#DejaVuSans-3a" x="77.001953"/>
     <use xlink:href="#DejaVuSans-32" x="110.693359"/>
     <use xlink:href="#DejaVuSans-38" x="174.316406"/>
     <use xlink:href="#DejaVuSans-2e" x="237.939453"/>
     <use xlink:href="#DejaVuSans-32" x="269.726562"/>
     <use xlink:href="#DejaVuSans-33" x="333.349609"/>
    </g>
    <!-- A:5.15 -->
    <g transform="translate(811.871784 985.835535) scale(0.04 -0.04)">
     <use xlink:href="#DejaVuSans-41"/>
     <use xlink:href="#DejaVuSans-3a" x="66.658203"/>
     <use xlink:href="#DejaVuSans-35" x="100.349609"/>
     <use xlink:href="#DejaVuSans-2e" x="163.972656"/>
     <use xlink:href="#DejaVuSans-31" x="195.759766"/>
     <use xlink:href="#DejaVuSans-35" x="259.382812"/>
    </g>
   </g>
   <g id="text_44">
    <!-- A:5.15 -->
    <g transform="translate(811.871784 985.835535) scale(0.04 -0.04)">
     <use xlink:href="#DejaVuSans-41"/>
     <use xlink:href="#DejaVuSans-3a" x="66.658203"/>
     <use xlink:href="#DejaVuSans-35" x="100.349609"/>
     <use xlink:href="#DejaVuSans-2e" x="163.972656"/>
     <use xlink:href="#DejaVuSans-31" x="195.759766"/>
     <use xlink:href="#DejaVuSans-35" x="259.382812"/>
    </g>
   </g>
   <g id="text_45">
    <!-- A:5.42 -->
    <g transform="translate(922.587504 902.038625) scale(0.04 -0.04)">
     <use xlink:href="#DejaVuSans-41"/>
     <use xlink:href="#DejaVuSans-3a" x="66.658203"/>
     <use xlink:href="#DejaVuSans-35" x="100.349609"/>
     <use xlink:href="#DejaVuSans-2e" x="163.972656"/>
     <use xlink:href="#DejaVuSans-34" x="195.759766"/>
     <use xlink:href="#DejaVuSans-32" x="259.382812"/>
    </g>
   </g>
   <g id="text_46">
    <!-- D:31.29 -->
    <g transform="translate(886.691525 1048.534238) scale(0.04 -0.04)">
     <use xlink:href="#DejaVuSans-44"/>
     <use xlink:href="#DejaVuSans-3a" x="77.001953"/>
     <use xlink:href="#DejaVuSans-33" x="110.693359"/>
     <use xlink:href="#DejaVuSans-31" x="174.316406"/>
     <use xlink:href="#DejaVuSans-2e" x="237.939453"/>
     <use xlink:href="#DejaVuSans-32" x="269.726562"/>
     <use xlink:href="#DejaVuSans-39" x="333.349609"/>
    </g>
    <!-- A:9.27 -->
    <g transform="translate(886.691525 1053.013363) scale(0.04 -0.04)">
     <use xlink:href="#DejaVuSans-41"/>
     <use xlink:href="#DejaVuSans-3a" x="66.658203"/>
     <use xlink:href="#DejaVuSans-39" x="100.349609"/>
     <use xlink:href="#DejaVuSans-2e" x="163.972656"/>
     <use xlink:href="#DejaVuSans-32" x="195.759766"/>
     <use xlink:href="#DejaVuSans-37" x="259.382812"/>
    </g>
   </g>
   <g id="text_47">
    <!-- A:9.27 -->
    <g transform="translate(886.691525 1053.013363) scale(0.04 -0.04)">
     <use xlink:href="#DejaVuSans-41"/>
     <use xlink:href="#DejaVuSans-3a" x="66.658203"/>
     <use xlink:href="#DejaVuSans-39" x="100.349609"/>
     <use xlink:href="#DejaVuSans-2e" x="163.972656"/>
     <use xlink:href="#DejaVuSans-32" x="195.759766"/>
     <use xlink:href="#DejaVuSans-37" x="259.382812"/>
    </g>
   </g>
   <g id="text_48">
    <!-- A:0.52 -->
    <g transform="translate(876.229753 901.371298) scale(0.04 -0.04)">
     <use xlink:href="#DejaVuSans-41"/>
     <use xlink:href="#DejaVuSans-3a" x="66.658203"/>
     <use xlink:href="#DejaVuSans-30" x="100.349609"/>
     <use xlink:href="#DejaVuSans-2e" x="163.972656"/>
     <use xlink:href="#DejaVuSans-35" x="195.759766"/>
     <use xlink:href="#DejaVuSans-32" x="259.382812"/>
    </g>
   </g>
   <g id="text_49">
    <!-- D:0.03 -->
    <g transform="translate(620.135294 807.313179) scale(0.04 -0.04)">
     <use xlink:href="#DejaVuSans-44"/>
     <use xlink:href="#DejaVuSans-3a" x="77.001953"/>
     <use xlink:href="#DejaVuSans-30" x="110.693359"/>
     <use xlink:href="#DejaVuSans-2e" x="174.316406"/>
     <use xlink:href="#DejaVuSans-30" x="206.103516"/>
     <use xlink:href="#DejaVuSans-33" x="269.726562"/>
    </g>
    <!-- A:3.34 -->
    <g transform="translate(620.135294 811.792304) scale(0.04 -0.04)">
     <use xlink:href="#DejaVuSans-41"/>
     <use xlink:href="#DejaVuSans-3a" x="66.658203"/>
     <use xlink:href="#DejaVuSans-33" x="100.349609"/>
     <use xlink:href="#DejaVuSans-2e" x="163.972656"/>
     <use xlink:href="#DejaVuSans-33" x="195.759766"/>
     <use xlink:href="#DejaVuSans-34" x="259.382812"/>
    </g>
   </g>
   <g id="text_50">
    <!-- A:3.34 -->
    <g transform="translate(620.135294 811.792304) scale(0.04 -0.04)">
     <use xlink:href="#DejaVuSans-41"/>
     <use xlink:href="#DejaVuSans-3a" x="66.658203"/>
     <use xlink:href="#DejaVuSans-33" x="100.349609"/>
     <use xlink:href="#DejaVuSans-2e" x="163.972656"/>
     <use xlink:href="#DejaVuSans-33" x="195.759766"/>
     <use xlink:href="#DejaVuSans-34" x="259.382812"/>
    </g>
   </g>
   <g id="text_51">
    <!-- D:18.49 -->
    <g transform="translate(589.640935 788.787138) scale(0.04 -0.04)">
     <use xlink:href="#DejaVuSans-44"/>
     <use xlink:href="#DejaVuSans-3a" x="77.001953"/>
     <use xlink:href="#DejaVuSans-31" x="110.693359"/>
     <use xlink:href="#DejaVuSans-38" x="174.316406"/>
     <use xlink:href="#DejaVuSans-2e" x="237.939453"/>
     <use xlink:href="#DejaVuSans-34" x="269.726562"/>
     <use xlink:href="#DejaVuSans-39" x="333.349609"/>
    </g>
    <!-- A:4.22 -->
    <g transform="translate(589.640935 793.266263) scale(0.04 -0.04)">
     <use xlink:href="#DejaVuSans-41"/>
     <use xlink:href="#DejaVuSans-3a" x="66.658203"/>
     <use xlink:href="#DejaVuSans-34" x="100.349609"/>
     <use xlink:href="#DejaVuSans-2e" x="163.972656"/>
     <use xlink:href="#DejaVuSans-32" x="195.759766"/>
     <use xlink:href="#DejaVuSans-32" x="259.382812"/>
    </g>
   </g>
   <g id="text_52">
    <!-- A:4.22 -->
    <g transform="translate(589.640935 793.266263) scale(0.04 -0.04)">
     <use xlink:href="#DejaVuSans-41"/>
     <use xlink:href="#DejaVuSans-3a" x="66.658203"/>
     <use xlink:href="#DejaVuSans-34" x="100.349609"/>
     <use xlink:href="#DejaVuSans-2e" x="163.972656"/>
     <use xlink:href="#DejaVuSans-32" x="195.759766"/>
     <use xlink:href="#DejaVuSans-32" x="259.382812"/>
    </g>
   </g>
   <g id="text_53">
    <!-- D:0.05 -->
    <g transform="translate(575.700087 473.195867) scale(0.04 -0.04)">
     <use xlink:href="#DejaVuSans-44"/>
     <use xlink:href="#DejaVuSans-3a" x="77.001953"/>
     <use xlink:href="#DejaVuSans-30" x="110.693359"/>
     <use xlink:href="#DejaVuSans-2e" x="174.316406"/>
     <use xlink:href="#DejaVuSans-30" x="206.103516"/>
     <use xlink:href="#DejaVuSans-35" x="269.726562"/>
    </g>
    <!-- A:4.36 -->
    <g transform="translate(575.700087 477.674992) scale(0.04 -0.04)">
     <use xlink:href="#DejaVuSans-41"/>
     <use xlink:href="#DejaVuSans-3a" x="66.658203"/>
     <use xlink:href="#DejaVuSans-34" x="100.349609"/>
     <use xlink:href="#DejaVuSans-2e" x="163.972656"/>
     <use xlink:href="#DejaVuSans-33" x="195.759766"/>
     <use xlink:href="#DejaVuSans-36" x="259.382812"/>
    </g>
   </g>
   <g id="text_54">
    <!-- A:4.36 -->
    <g transform="translate(575.700087 477.674992) scale(0.04 -0.04)">
     <use xlink:href="#DejaVuSans-41"/>
     <use xlink:href="#DejaVuSans-3a" x="66.658203"/>
     <use xlink:href="#DejaVuSans-34" x="100.349609"/>
     <use xlink:href="#DejaVuSans-2e" x="163.972656"/>
     <use xlink:href="#DejaVuSans-33" x="195.759766"/>
     <use xlink:href="#DejaVuSans-36" x="259.382812"/>
    </g>
   </g>
   <g id="text_55">
    <!-- D:2.07 -->
    <g transform="translate(708.627468 1039.834639) scale(0.04 -0.04)">
     <use xlink:href="#DejaVuSans-44"/>
     <use xlink:href="#DejaVuSans-3a" x="77.001953"/>
     <use xlink:href="#DejaVuSans-32" x="110.693359"/>
     <use xlink:href="#DejaVuSans-2e" x="174.316406"/>
     <use xlink:href="#DejaVuSans-30" x="206.103516"/>
     <use xlink:href="#DejaVuSans-37" x="269.726562"/>
    </g>
    <!-- A:7.15 -->
    <g transform="translate(708.627468 1044.313764) scale(0.04 -0.04)">
     <use xlink:href="#DejaVuSans-41"/>
     <use xlink:href="#DejaVuSans-3a" x="66.658203"/>
     <use xlink:href="#DejaVuSans-37" x="100.349609"/>
     <use xlink:href="#DejaVuSans-2e" x="163.972656"/>
     <use xlink:href="#DejaVuSans-31" x="195.759766"/>
     <use xlink:href="#DejaVuSans-35" x="259.382812"/>
    </g>
   </g>
   <g id="text_56">
    <!-- A:7.15 -->
    <g transform="translate(708.627468 1044.313764) scale(0.04 -0.04)">
     <use xlink:href="#DejaVuSans-41"/>
     <use xlink:href="#DejaVuSans-3a" x="66.658203"/>
     <use xlink:href="#DejaVuSans-37" x="100.349609"/>
     <use xlink:href="#DejaVuSans-2e" x="163.972656"/>
     <use xlink:href="#DejaVuSans-31" x="195.759766"/>
     <use xlink:href="#DejaVuSans-35" x="259.382812"/>
    </g>
   </g>
   <g id="text_57">
    <!-- A:5.14 -->
    <g transform="translate(714.156209 918.467593) scale(0.04 -0.04)">
     <use xlink:href="#DejaVuSans-41"/>
     <use xlink:href="#DejaVuSans-3a" x="66.658203"/>
     <use xlink:href="#DejaVuSans-35" x="100.349609"/>
     <use xlink:href="#DejaVuSans-2e" x="163.972656"/>
     <use xlink:href="#DejaVuSans-31" x="195.759766"/>
     <use xlink:href="#DejaVuSans-34" x="259.382812"/>
    </g>
   </g>
   <g id="text_58">
    <!-- A:0.00 -->
    <g transform="translate(716.444325 884.004775) scale(0.04 -0.04)">
     <use xlink:href="#DejaVuSans-41"/>
     <use xlink:href="#DejaVuSans-3a" x="66.658203"/>
     <use xlink:href="#DejaVuSans-30" x="100.349609"/>
     <use xlink:href="#DejaVuSans-2e" x="163.972656"/>
     <use xlink:href="#DejaVuSans-30" x="195.759766"/>
     <use xlink:href="#DejaVuSans-30" x="259.382812"/>
    </g>
   </g>
   <g id="text_59">
    <!-- D:22.03 -->
    <g transform="translate(723.673893 946.158336) scale(0.04 -0.04)">
     <use xlink:href="#DejaVuSans-44"/>
     <use xlink:href="#DejaVuSans-3a" x="77.001953"/>
     <use xlink:href="#DejaVuSans-32" x="110.693359"/>
     <use xlink:href="#DejaVuSans-32" x="174.316406"/>
     <use xlink:href="#DejaVuSans-2e" x="237.939453"/>
     <use xlink:href="#DejaVuSans-30" x="269.726562"/>
     <use xlink:href="#DejaVuSans-33" x="333.349609"/>
    </g>
    <!-- A:0.55 -->
    <g transform="translate(723.673893 950.637461) scale(0.04 -0.04)">
     <use xlink:href="#DejaVuSans-41"/>
     <use xlink:href="#DejaVuSans-3a" x="66.658203"/>
     <use xlink:href="#DejaVuSans-30" x="100.349609"/>
     <use xlink:href="#DejaVuSans-2e" x="163.972656"/>
     <use xlink:href="#DejaVuSans-35" x="195.759766"/>
     <use xlink:href="#DejaVuSans-35" x="259.382812"/>
    </g>
   </g>
   <g id="text_60">
    <!-- A:0.55 -->
    <g transform="translate(723.673893 950.637461) scale(0.04 -0.04)">
     <use xlink:href="#DejaVuSans-41"/>
     <use xlink:href="#DejaVuSans-3a" x="66.658203"/>
     <use xlink:href="#DejaVuSans-30" x="100.349609"/>
     <use xlink:href="#DejaVuSans-2e" x="163.972656"/>
     <use xlink:href="#DejaVuSans-35" x="195.759766"/>
     <use xlink:href="#DejaVuSans-35" x="259.382812"/>
    </g>
   </g>
   <g id="text_61">
    <!-- D:41.63 -->
    <g transform="translate(788.031862 861.694099) scale(0.04 -0.04)">
     <use xlink:href="#DejaVuSans-44"/>
     <use xlink:href="#DejaVuSans-3a" x="77.001953"/>
     <use xlink:href="#DejaVuSans-34" x="110.693359"/>
     <use xlink:href="#DejaVuSans-31" x="174.316406"/>
     <use xlink:href="#DejaVuSans-2e" x="237.939453"/>
     <use xlink:href="#DejaVuSans-36" x="269.726562"/>
     <use xlink:href="#DejaVuSans-33" x="333.349609"/>
    </g>
    <!-- A:0.01 -->
    <g transform="translate(788.031862 866.173224) scale(0.04 -0.04)">
     <use xlink:href="#DejaVuSans-41"/>
     <use xlink:href="#DejaVuSans-3a" x="66.658203"/>
     <use xlink:href="#DejaVuSans-30" x="100.349609"/>
     <use xlink:href="#DejaVuSans-2e" x="163.972656"/>
     <use xlink:href="#DejaVuSans-30" x="195.759766"/>
     <use xlink:href="#DejaVuSans-31" x="259.382812"/>
    </g>
   </g>
   <g id="text_62">
    <!-- A:0.01 -->
    <g transform="translate(788.031862 866.173224) scale(0.04 -0.04)">
     <use xlink:href="#DejaVuSans-41"/>
     <use xlink:href="#DejaVuSans-3a" x="66.658203"/>
     <use xlink:href="#DejaVuSans-30" x="100.349609"/>
     <use xlink:href="#DejaVuSans-2e" x="163.972656"/>
     <use xlink:href="#DejaVuSans-30" x="195.759766"/>
     <use xlink:href="#DejaVuSans-31" x="259.382812"/>
    </g>
   </g>
   <g id="text_63">
    <!-- A:3.34 -->
    <g transform="translate(671.135045 852.679856) scale(0.04 -0.04)">
     <use xlink:href="#DejaVuSans-41"/>
     <use xlink:href="#DejaVuSans-3a" x="66.658203"/>
     <use xlink:href="#DejaVuSans-33" x="100.349609"/>
     <use xlink:href="#DejaVuSans-2e" x="163.972656"/>
     <use xlink:href="#DejaVuSans-33" x="195.759766"/>
     <use xlink:href="#DejaVuSans-34" x="259.382812"/>
    </g>
   </g>
   <g id="text_64">
    <!-- A:0.52 -->
    <g transform="translate(683.510742 866.929852) scale(0.04 -0.04)">
     <use xlink:href="#DejaVuSans-41"/>
     <use xlink:href="#DejaVuSans-3a" x="66.658203"/>
     <use xlink:href="#DejaVuSans-30" x="100.349609"/>
     <use xlink:href="#DejaVuSans-2e" x="163.972656"/>
     <use xlink:href="#DejaVuSans-35" x="195.759766"/>
     <use xlink:href="#DejaVuSans-32" x="259.382812"/>
    </g>
   </g>
   <g id="text_65">
    <!-- A:3.26 -->
    <g transform="translate(698.26876 970.650846) scale(0.04 -0.04)">
     <use xlink:href="#DejaVuSans-41"/>
     <use xlink:href="#DejaVuSans-3a" x="66.658203"/>
     <use xlink:href="#DejaVuSans-33" x="100.349609"/>
     <use xlink:href="#DejaVuSans-2e" x="163.972656"/>
     <use xlink:href="#DejaVuSans-32" x="195.759766"/>
     <use xlink:href="#DejaVuSans-36" x="259.382812"/>
    </g>
   </g>
   <g id="text_66">
    <!-- A:9.49 -->
    <g transform="translate(942.665579 839.360377) scale(0.04 -0.04)">
     <use xlink:href="#DejaVuSans-41"/>
     <use xlink:href="#DejaVuSans-3a" x="66.658203"/>
     <use xlink:href="#DejaVuSans-39" x="100.349609"/>
     <use xlink:href="#DejaVuSans-2e" x="163.972656"/>
     <use xlink:href="#DejaVuSans-34" x="195.759766"/>
     <use xlink:href="#DejaVuSans-39" x="259.382812"/>
    </g>
   </g>
   <g id="text_67">
    <!-- D:0.03 -->
    <g transform="translate(621.497464 822.355149) scale(0.04 -0.04)">
     <use xlink:href="#DejaVuSans-44"/>
     <use xlink:href="#DejaVuSans-3a" x="77.001953"/>
     <use xlink:href="#DejaVuSans-30" x="110.693359"/>
     <use xlink:href="#DejaVuSans-2e" x="174.316406"/>
     <use xlink:href="#DejaVuSans-30" x="206.103516"/>
     <use xlink:href="#DejaVuSans-33" x="269.726562"/>
    </g>
    <!-- A:3.91 -->
    <g transform="translate(621.497464 826.834274) scale(0.04 -0.04)">
     <use xlink:href="#DejaVuSans-41"/>
     <use xlink:href="#DejaVuSans-3a" x="66.658203"/>
     <use xlink:href="#DejaVuSans-33" x="100.349609"/>
     <use xlink:href="#DejaVuSans-2e" x="163.972656"/>
     <use xlink:href="#DejaVuSans-39" x="195.759766"/>
     <use xlink:href="#DejaVuSans-31" x="259.382812"/>
    </g>
   </g>
   <g id="text_68">
    <!-- A:3.91 -->
    <g transform="translate(621.497464 826.834274) scale(0.04 -0.04)">
     <use xlink:href="#DejaVuSans-41"/>
     <use xlink:href="#DejaVuSans-3a" x="66.658203"/>
     <use xlink:href="#DejaVuSans-33" x="100.349609"/>
     <use xlink:href="#DejaVuSans-2e" x="163.972656"/>
     <use xlink:href="#DejaVuSans-39" x="195.759766"/>
     <use xlink:href="#DejaVuSans-31" x="259.382812"/>
    </g>
   </g>
   <g id="text_69">
    <!-- D:16.30 -->
    <g transform="translate(630.30289 817.621749) scale(0.04 -0.04)">
     <use xlink:href="#DejaVuSans-44"/>
     <use xlink:href="#DejaVuSans-3a" x="77.001953"/>
     <use xlink:href="#DejaVuSans-31" x="110.693359"/>
     <use xlink:href="#DejaVuSans-36" x="174.316406"/>
     <use xlink:href="#DejaVuSans-2e" x="237.939453"/>
     <use xlink:href="#DejaVuSans-33" x="269.726562"/>
     <use xlink:href="#DejaVuSans-30" x="333.349609"/>
    </g>
    <!-- A:0.10 -->
    <g transform="translate(630.30289 822.100874) scale(0.04 -0.04)">
     <use xlink:href="#DejaVuSans-41"/>
     <use xlink:href="#DejaVuSans-3a" x="66.658203"/>
     <use xlink:href="#DejaVuSans-30" x="100.349609"/>
     <use xlink:href="#DejaVuSans-2e" x="163.972656"/>
     <use xlink:href="#DejaVuSans-31" x="195.759766"/>
     <use xlink:href="#DejaVuSans-30" x="259.382812"/>
    </g>
   </g>
   <g id="text_70">
    <!-- A:0.10 -->
    <g transform="translate(630.30289 822.100874) scale(0.04 -0.04)">
     <use xlink:href="#DejaVuSans-41"/>
     <use xlink:href="#DejaVuSans-3a" x="66.658203"/>
     <use xlink:href="#DejaVuSans-30" x="100.349609"/>
     <use xlink:href="#DejaVuSans-2e" x="163.972656"/>
     <use xlink:href="#DejaVuSans-31" x="195.759766"/>
     <use xlink:href="#DejaVuSans-30" x="259.382812"/>
    </g>
   </g>
   <g id="text_71">
    <!-- D:1.52 -->
    <g transform="translate(584.250342 796.942992) scale(0.04 -0.04)">
     <use xlink:href="#DejaVuSans-44"/>
     <use xlink:href="#DejaVuSans-3a" x="77.001953"/>
     <use xlink:href="#DejaVuSans-31" x="110.693359"/>
     <use xlink:href="#DejaVuSans-2e" x="174.316406"/>
     <use xlink:href="#DejaVuSans-35" x="206.103516"/>
     <use xlink:href="#DejaVuSans-32" x="269.726562"/>
    </g>
    <!-- A:0.64 -->
    <g transform="translate(584.250342 801.422117) scale(0.04 -0.04)">
     <use xlink:href="#DejaVuSans-41"/>
     <use xlink:href="#DejaVuSans-3a" x="66.658203"/>
     <use xlink:href="#DejaVuSans-30" x="100.349609"/>
     <use xlink:href="#DejaVuSans-2e" x="163.972656"/>
     <use xlink:href="#DejaVuSans-36" x="195.759766"/>
     <use xlink:href="#DejaVuSans-34" x="259.382812"/>
    </g>
   </g>
   <g id="text_72">
    <!-- A:0.64 -->
    <g transform="translate(584.250342 801.422117) scale(0.04 -0.04)">
     <use xlink:href="#DejaVuSans-41"/>
     <use xlink:href="#DejaVuSans-3a" x="66.658203"/>
     <use xlink:href="#DejaVuSans-30" x="100.349609"/>
     <use xlink:href="#DejaVuSans-2e" x="163.972656"/>
     <use xlink:href="#DejaVuSans-36" x="195.759766"/>
     <use xlink:href="#DejaVuSans-34" x="259.382812"/>
    </g>
   </g>
   <g id="text_73">
    <!-- A:8.25 -->
    <g transform="translate(911.699053 834.130276) scale(0.04 -0.04)">
     <use xlink:href="#DejaVuSans-41"/>
     <use xlink:href="#DejaVuSans-3a" x="66.658203"/>
     <use xlink:href="#DejaVuSans-38" x="100.349609"/>
     <use xlink:href="#DejaVuSans-2e" x="163.972656"/>
     <use xlink:href="#DejaVuSans-32" x="195.759766"/>
     <use xlink:href="#DejaVuSans-35" x="259.382812"/>
    </g>
   </g>
   <g id="text_74">
    <!-- D:0.00 -->
    <g transform="translate(865.341301 828.983824) scale(0.04 -0.04)">
     <use xlink:href="#DejaVuSans-44"/>
     <use xlink:href="#DejaVuSans-3a" x="77.001953"/>
     <use xlink:href="#DejaVuSans-30" x="110.693359"/>
     <use xlink:href="#DejaVuSans-2e" x="174.316406"/>
     <use xlink:href="#DejaVuSans-30" x="206.103516"/>
     <use xlink:href="#DejaVuSans-30" x="269.726562"/>
    </g>
    <!-- A:13.36 -->
    <g transform="translate(865.341301 833.462949) scale(0.04 -0.04)">
     <use xlink:href="#DejaVuSans-41"/>
     <use xlink:href="#DejaVuSans-3a" x="66.658203"/>
     <use xlink:href="#DejaVuSans-31" x="100.349609"/>
     <use xlink:href="#DejaVuSans-33" x="163.972656"/>
     <use xlink:href="#DejaVuSans-2e" x="227.595703"/>
     <use xlink:href="#DejaVuSans-33" x="259.382812"/>
     <use xlink:href="#DejaVuSans-36" x="323.005859"/>
    </g>
   </g>
   <g id="text_75">
    <!-- A:13.36 -->
    <g transform="translate(865.341301 833.462949) scale(0.04 -0.04)">
     <use xlink:href="#DejaVuSans-41"/>
     <use xlink:href="#DejaVuSans-3a" x="66.658203"/>
     <use xlink:href="#DejaVuSans-31" x="100.349609"/>
     <use xlink:href="#DejaVuSans-33" x="163.972656"/>
     <use xlink:href="#DejaVuSans-2e" x="227.595703"/>
     <use xlink:href="#DejaVuSans-33" x="259.382812"/>
     <use xlink:href="#DejaVuSans-36" x="323.005859"/>
    </g>
   </g>
   <g id="text_76">
    <!-- D:2.51 -->
    <g transform="translate(637.055654 824.507866) scale(0.04 -0.04)">
     <use xlink:href="#DejaVuSans-44"/>
     <use xlink:href="#DejaVuSans-3a" x="77.001953"/>
     <use xlink:href="#DejaVuSans-32" x="110.693359"/>
     <use xlink:href="#DejaVuSans-2e" x="174.316406"/>
     <use xlink:href="#DejaVuSans-35" x="206.103516"/>
     <use xlink:href="#DejaVuSans-31" x="269.726562"/>
    </g>
    <!-- A:0.94 -->
    <g transform="translate(637.055654 828.986991) scale(0.04 -0.04)">
     <use xlink:href="#DejaVuSans-41"/>
     <use xlink:href="#DejaVuSans-3a" x="66.658203"/>
     <use xlink:href="#DejaVuSans-30" x="100.349609"/>
     <use xlink:href="#DejaVuSans-2e" x="163.972656"/>
     <use xlink:href="#DejaVuSans-39" x="195.759766"/>
     <use xlink:href="#DejaVuSans-34" x="259.382812"/>
    </g>
   </g>
   <g id="text_77">
    <!-- A:0.94 -->
    <g transform="translate(637.055654 828.986991) scale(0.04 -0.04)">
     <use xlink:href="#DejaVuSans-41"/>
     <use xlink:href="#DejaVuSans-3a" x="66.658203"/>
     <use xlink:href="#DejaVuSans-30" x="100.349609"/>
     <use xlink:href="#DejaVuSans-2e" x="163.972656"/>
     <use xlink:href="#DejaVuSans-39" x="195.759766"/>
     <use xlink:href="#DejaVuSans-34" x="259.382812"/>
    </g>
   </g>
   <g id="text_78">
    <!-- A:9.24 -->
    <g transform="translate(657.218497 832.65447) scale(0.04 -0.04)">
     <use xlink:href="#DejaVuSans-41"/>
     <use xlink:href="#DejaVuSans-3a" x="66.658203"/>
     <use xlink:href="#DejaVuSans-39" x="100.349609"/>
     <use xlink:href="#DejaVuSans-2e" x="163.972656"/>
     <use xlink:href="#DejaVuSans-32" x="195.759766"/>
     <use xlink:href="#DejaVuSans-34" x="259.382812"/>
    </g>
   </g>
   <g id="text_79">
    <!-- A:5.34 -->
    <g transform="translate(567.65124 693.385676) scale(0.04 -0.04)">
     <use xlink:href="#DejaVuSans-41"/>
     <use xlink:href="#DejaVuSans-3a" x="66.658203"/>
     <use xlink:href="#DejaVuSans-35" x="100.349609"/>
     <use xlink:href="#DejaVuSans-2e" x="163.972656"/>
     <use xlink:href="#DejaVuSans-33" x="195.759766"/>
     <use xlink:href="#DejaVuSans-34" x="259.382812"/>
    </g>
   </g>
   <g id="text_80">
    <!-- Area Americas (n:23 k:74) -->
    <g transform="translate(659.327813 153.362625) scale(0.12 -0.12)">
     <defs>
      <path id="DejaVuSans-72" d="M 2631 2963 
Q 2534 3019 2420 3045 
Q 2306 3072 2169 3072 
Q 1681 3072 1420 2755 
Q 1159 2438 1159 1844 
L 1159 0 
L 581 0 
L 581 3500 
L 1159 3500 
L 1159 2956 
Q 1341 3275 1631 3429 
Q 1922 3584 2338 3584 
Q 2397 3584 2469 3576 
Q 2541 3569 2628 3553 
L 2631 2963 
z
" transform="scale(0.015625)"/>
      <path id="DejaVuSans-65" d="M 3597 1894 
L 3597 1613 
L 953 1613 
Q 991 1019 1311 708 
Q 1631 397 2203 397 
Q 2534 397 2845 478 
Q 3156 559 3463 722 
L 3463 178 
Q 3153 47 2828 -22 
Q 2503 -91 2169 -91 
Q 1331 -91 842 396 
Q 353 884 353 1716 
Q 353 2575 817 3079 
Q 1281 3584 2069 3584 
Q 2775 3584 3186 3129 
Q 3597 2675 3597 1894 
z
M 3022 2063 
Q 3016 2534 2758 2815 
Q 2500 3097 2075 3097 
Q 1594 3097 1305 2825 
Q 1016 2553 972 2059 
L 3022 2063 
z
" transform="scale(0.015625)"/>
      <path id="DejaVuSans-61" d="M 2194 1759 
Q 1497 1759 1228 1600 
Q 959 1441 959 1056 
Q 959 750 1161 570 
Q 1363 391 1709 391 
Q 2188 391 2477 730 
Q 2766 1069 2766 1631 
L 2766 1759 
L 2194 1759 
z
M 3341 1997 
L 3341 0 
L 2766 0 
L 2766 531 
Q 2569 213 2275 61 
Q 1981 -91 1556 -91 
Q 1019 -91 701 211 
Q 384 513 384 1019 
Q 384 1609 779 1909 
Q 1175 2209 1959 2209 
L 2766 2209 
L 2766 2266 
Q 2766 2663 2505 2880 
Q 2244 3097 1772 3097 
Q 1472 3097 1187 3025 
Q 903 2953 641 2809 
L 641 3341 
Q 956 3463 1253 3523 
Q 1550 3584 1831 3584 
Q 2591 3584 2966 3190 
Q 3341 2797 3341 1997 
z
" transform="scale(0.015625)"/>
      <path id="DejaVuSans-20" transform="scale(0.015625)"/>
      <path id="DejaVuSans-6d" d="M 3328 2828 
Q 3544 3216 3844 3400 
Q 4144 3584 4550 3584 
Q 5097 3584 5394 3201 
Q 5691 2819 5691 2113 
L 5691 0 
L 5113 0 
L 5113 2094 
Q 5113 2597 4934 2840 
Q 4756 3084 4391 3084 
Q 3944 3084 3684 2787 
Q 3425 2491 3425 1978 
L 3425 0 
L 2847 0 
L 2847 2094 
Q 2847 2600 2669 2842 
Q 2491 3084 2119 3084 
Q 1678 3084 1418 2786 
Q 1159 2488 1159 1978 
L 1159 0 
L 581 0 
L 581 3500 
L 1159 3500 
L 1159 2956 
Q 1356 3278 1631 3431 
Q 1906 3584 2284 3584 
Q 2666 3584 2933 3390 
Q 3200 3197 3328 2828 
z
" transform="scale(0.015625)"/>
      <path id="DejaVuSans-69" d="M 603 3500 
L 1178 3500 
L 1178 0 
L 603 0 
L 603 3500 
z
M 603 4863 
L 1178 4863 
L 1178 4134 
L 603 4134 
L 603 4863 
z
" transform="scale(0.015625)"/>
      <path id="DejaVuSans-63" d="M 3122 3366 
L 3122 2828 
Q 2878 2963 2633 3030 
Q 2388 3097 2138 3097 
Q 1578 3097 1268 2742 
Q 959 2388 959 1747 
Q 959 1106 1268 751 
Q 1578 397 2138 397 
Q 2388 397 2633 464 
Q 2878 531 3122 666 
L 3122 134 
Q 2881 22 2623 -34 
Q 2366 -91 2075 -91 
Q 1284 -91 818 406 
Q 353 903 353 1747 
Q 353 2603 823 3093 
Q 1294 3584 2113 3584 
Q 2378 3584 2631 3529 
Q 2884 3475 3122 3366 
z
" transform="scale(0.015625)"/>
      <path id="DejaVuSans-73" d="M 2834 3397 
L 2834 2853 
Q 2591 2978 2328 3040 
Q 2066 3103 1784 3103 
Q 1356 3103 1142 2972 
Q 928 2841 928 2578 
Q 928 2378 1081 2264 
Q 1234 2150 1697 2047 
L 1894 2003 
Q 2506 1872 2764 1633 
Q 3022 1394 3022 966 
Q 3022 478 2636 193 
Q 2250 -91 1575 -91 
Q 1294 -91 989 -36 
Q 684 19 347 128 
L 347 722 
Q 666 556 975 473 
Q 1284 391 1588 391 
Q 1994 391 2212 530 
Q 2431 669 2431 922 
Q 2431 1156 2273 1281 
Q 2116 1406 1581 1522 
L 1381 1569 
Q 847 1681 609 1914 
Q 372 2147 372 2553 
Q 372 3047 722 3315 
Q 1072 3584 1716 3584 
Q 2034 3584 2315 3537 
Q 2597 3491 2834 3397 
z
" transform="scale(0.015625)"/>
      <path id="DejaVuSans-28" d="M 1984 4856 
Q 1566 4138 1362 3434 
Q 1159 2731 1159 2009 
Q 1159 1288 1364 580 
Q 1569 -128 1984 -844 
L 1484 -844 
Q 1016 -109 783 600 
Q 550 1309 550 2009 
Q 550 2706 781 3412 
Q 1013 4119 1484 4856 
L 1984 4856 
z
" transform="scale(0.015625)"/>
      <path id="DejaVuSans-6e" d="M 3513 2113 
L 3513 0 
L 2938 0 
L 2938 2094 
Q 2938 2591 2744 2837 
Q 2550 3084 2163 3084 
Q 1697 3084 1428 2787 
Q 1159 2491 1159 1978 
L 1159 0 
L 581 0 
L 581 3500 
L 1159 3500 
L 1159 2956 
Q 1366 3272 1645 3428 
Q 1925 3584 2291 3584 
Q 2894 3584 3203 3211 
Q 3513 2838 3513 2113 
z
" transform="scale(0.015625)"/>
      <path id="DejaVuSans-6b" d="M 581 4863 
L 1159 4863 
L 1159 1991 
L 2875 3500 
L 3609 3500 
L 1753 1863 
L 3688 0 
L 2938 0 
L 1159 1709 
L 1159 0 
L 581 0 
L 581 4863 
z
" transform="scale(0.015625)"/>
      <path id="DejaVuSans-29" d="M 513 4856 
L 1013 4856 
Q 1481 4119 1714 3412 
Q 1947 2706 1947 2009 
Q 1947 1309 1714 600 
Q 1481 -109 1013 -844 
L 513 -844 
Q 928 -128 1133 580 
Q 1338 1288 1338 2009 
Q 1338 2731 1133 3434 
Q 928 4138 513 4856 
z
" transform="scale(0.015625)"/>
     </defs>
     <use xlink:href="#DejaVuSans-41"/>
     <use xlink:href="#DejaVuSans-72" x="68.408203"/>
     <use xlink:href="#DejaVuSans-65" x="107.271484"/>
     <use xlink:href="#DejaVuSans-61" x="168.794922"/>
     <use xlink:href="#DejaVuSans-20" x="230.074219"/>
     <use xlink:href="#DejaVuSans-41" x="261.861328"/>
     <use xlink:href="#DejaVuSans-6d" x="330.269531"/>
     <use xlink:href="#DejaVuSans-65" x="427.681641"/>
     <use xlink:href="#DejaVuSans-72" x="489.205078"/>
     <use xlink:href="#DejaVuSans-69" x="530.318359"/>
     <use xlink:href="#DejaVuSans-63" x="558.101562"/>
     <use xlink:href="#DejaVuSans-61" x="613.082031"/>
     <use xlink:href="#DejaVuSans-73" x="674.361328"/>
     <use xlink:href="#DejaVuSans-20" x="726.460938"/>
     <use xlink:href="#DejaVuSans-28" x="758.248047"/>
     <use xlink:href="#DejaVuSans-6e" x="797.261719"/>
     <use xlink:href="#DejaVuSans-3a" x="860.640625"/>
     <use xlink:href="#DejaVuSans-32" x="894.332031"/>
     <use xlink:href="#DejaVuSans-33" x="957.955078"/>
     <use xlink:href="#DejaVuSans-20" x="1021.578125"/>
     <use xlink:href="#DejaVuSans-6b" x="1053.365234"/>
     <use xlink:href="#DejaVuSans-3a" x="1111.275391"/>
     <use xlink:href="#DejaVuSans-37" x="1144.966797"/>
     <use xlink:href="#DejaVuSans-34" x="1208.589844"/>
     <use xlink:href="#DejaVuSans-29" x="1272.212891"/>
    </g>
    <!-- Score: 23748.07, max. Overlap: 0.46, avg. Distance: 5.75, avg. Angle: 5.32 -->
    <g transform="translate(511.8525 166.8) scale(0.12 -0.12)">
     <defs>
      <path id="DejaVuSans-6f" d="M 1959 3097 
Q 1497 3097 1228 2736 
Q 959 2375 959 1747 
Q 959 1119 1226 758 
Q 1494 397 1959 397 
Q 2419 397 2687 759 
Q 2956 1122 2956 1747 
Q 2956 2369 2687 2733 
Q 2419 3097 1959 3097 
z
M 1959 3584 
Q 2709 3584 3137 3096 
Q 3566 2609 3566 1747 
Q 3566 888 3137 398 
Q 2709 -91 1959 -91 
Q 1206 -91 779 398 
Q 353 888 353 1747 
Q 353 2609 779 3096 
Q 1206 3584 1959 3584 
z
" transform="scale(0.015625)"/>
      <path id="DejaVuSans-2c" d="M 750 794 
L 1409 794 
L 1409 256 
L 897 -744 
L 494 -744 
L 750 256 
L 750 794 
z
" transform="scale(0.015625)"/>
      <path id="DejaVuSans-78" d="M 3513 3500 
L 2247 1797 
L 3578 0 
L 2900 0 
L 1881 1375 
L 863 0 
L 184 0 
L 1544 1831 
L 300 3500 
L 978 3500 
L 1906 2253 
L 2834 3500 
L 3513 3500 
z
" transform="scale(0.015625)"/>
      <path id="DejaVuSans-76" d="M 191 3500 
L 800 3500 
L 1894 563 
L 2988 3500 
L 3597 3500 
L 2284 0 
L 1503 0 
L 191 3500 
z
" transform="scale(0.015625)"/>
      <path id="DejaVuSans-6c" d="M 603 4863 
L 1178 4863 
L 1178 0 
L 603 0 
L 603 4863 
z
" transform="scale(0.015625)"/>
      <path id="DejaVuSans-70" d="M 1159 525 
L 1159 -1331 
L 581 -1331 
L 581 3500 
L 1159 3500 
L 1159 2969 
Q 1341 3281 1617 3432 
Q 1894 3584 2278 3584 
Q 2916 3584 3314 3078 
Q 3713 2572 3713 1747 
Q 3713 922 3314 415 
Q 2916 -91 2278 -91 
Q 1894 -91 1617 61 
Q 1341 213 1159 525 
z
M 3116 1747 
Q 3116 2381 2855 2742 
Q 2594 3103 2138 3103 
Q 1681 3103 1420 2742 
Q 1159 2381 1159 1747 
Q 1159 1113 1420 752 
Q 1681 391 2138 391 
Q 2594 391 2855 752 
Q 3116 1113 3116 1747 
z
" transform="scale(0.015625)"/>
      <path id="DejaVuSans-67" d="M 2906 1791 
Q 2906 2416 2648 2759 
Q 2391 3103 1925 3103 
Q 1463 3103 1205 2759 
Q 947 2416 947 1791 
Q 947 1169 1205 825 
Q 1463 481 1925 481 
Q 2391 481 2648 825 
Q 2906 1169 2906 1791 
z
M 3481 434 
Q 3481 -459 3084 -895 
Q 2688 -1331 1869 -1331 
Q 1566 -1331 1297 -1286 
Q 1028 -1241 775 -1147 
L 775 -588 
Q 1028 -725 1275 -790 
Q 1522 -856 1778 -856 
Q 2344 -856 2625 -561 
Q 2906 -266 2906 331 
L 2906 616 
Q 2728 306 2450 153 
Q 2172 0 1784 0 
Q 1141 0 747 490 
Q 353 981 353 1791 
Q 353 2603 747 3093 
Q 1141 3584 1784 3584 
Q 2172 3584 2450 3431 
Q 2728 3278 2906 2969 
L 2906 3500 
L 3481 3500 
L 3481 434 
z
" transform="scale(0.015625)"/>
      <path id="DejaVuSans-74" d="M 1172 4494 
L 1172 3500 
L 2356 3500 
L 2356 3053 
L 1172 3053 
L 1172 1153 
Q 1172 725 1289 603 
Q 1406 481 1766 481 
L 2356 481 
L 2356 0 
L 1766 0 
Q 1100 0 847 248 
Q 594 497 594 1153 
L 594 3053 
L 172 3053 
L 172 3500 
L 594 3500 
L 594 4494 
L 1172 4494 
z
" transform="scale(0.015625)"/>
     </defs>
     <use xlink:href="#DejaVuSans-53"/>
     <use xlink:href="#DejaVuSans-63" x="63.476562"/>
     <use xlink:href="#DejaVuSans-6f" x="118.457031"/>
     <use xlink:href="#DejaVuSans-72" x="179.638672"/>
     <use xlink:href="#DejaVuSans-65" x="218.501953"/>
     <use xlink:href="#DejaVuSans-3a" x="280.025391"/>
     <use xlink:href="#DejaVuSans-20" x="313.716797"/>
     <use xlink:href="#DejaVuSans-32" x="345.503906"/>
     <use xlink:href="#DejaVuSans-33" x="409.126953"/>
     <use xlink:href="#DejaVuSans-37" x="472.75"/>
     <use xlink:href="#DejaVuSans-34" x="536.373047"/>
     <use xlink:href="#DejaVuSans-38" x="599.996094"/>
     <use xlink:href="#DejaVuSans-2e" x="663.619141"/>
     <use xlink:href="#DejaVuSans-30" x="695.40625"/>
     <use xlink:href="#DejaVuSans-37" x="759.029297"/>
     <use xlink:href="#DejaVuSans-2c" x="822.652344"/>
     <use xlink:href="#DejaVuSans-20" x="854.439453"/>
     <use xlink:href="#DejaVuSans-6d" x="886.226562"/>
     <use xlink:href="#DejaVuSans-61" x="983.638672"/>
     <use xlink:href="#DejaVuSans-78" x="1044.917969"/>
     <use xlink:href="#DejaVuSans-2e" x="1104.097656"/>
     <use xlink:href="#DejaVuSans-20" x="1135.884766"/>
     <use xlink:href="#DejaVuSans-4f" x="1167.671875"/>
     <use xlink:href="#DejaVuSans-76" x="1246.382812"/>
     <use xlink:href="#DejaVuSans-65" x="1305.5625"/>
     <use xlink:href="#DejaVuSans-72" x="1367.085938"/>
     <use xlink:href="#DejaVuSans-6c" x="1408.199219"/>
     <use xlink:href="#DejaVuSans-61" x="1435.982422"/>
     <use xlink:href="#DejaVuSans-70" x="1497.261719"/>
     <use xlink:href="#DejaVuSans-3a" x="1560.738281"/>
     <use xlink:href="#DejaVuSans-20" x="1594.429688"/>
     <use xlink:href="#DejaVuSans-30" x="1626.216797"/>
     <use xlink:href="#DejaVuSans-2e" x="1689.839844"/>
     <use xlink:href="#DejaVuSans-34" x="1721.626953"/>
     <use xlink:href="#DejaVuSans-36" x="1785.25"/>
     <use xlink:href="#DejaVuSans-2c" x="1848.873047"/>
     <use xlink:href="#DejaVuSans-20" x="1880.660156"/>
     <use xlink:href="#DejaVuSans-61" x="1912.447266"/>
     <use xlink:href="#DejaVuSans-76" x="1973.726562"/>
     <use xlink:href="#DejaVuSans-67" x="2032.90625"/>
     <use xlink:href="#DejaVuSans-2e" x="2096.382812"/>
     <use xlink:href="#DejaVuSans-20" x="2128.169922"/>
     <use xlink:href="#DejaVuSans-44" x="2159.957031"/>
     <use xlink:href="#DejaVuSans-69" x="2236.958984"/>
     <use xlink:href="#DejaVuSans-73" x="2264.742188"/>
     <use xlink:href="#DejaVuSans-74" x="2316.841797"/>
     <use xlink:href="#DejaVuSans-61" x="2356.050781"/>
     <use xlink:href="#DejaVuSans-6e" x="2417.330078"/>
     <use xlink:href="#DejaVuSans-63" x="2480.708984"/>
     <use xlink:href="#DejaVuSans-65" x="2535.689453"/>
     <use xlink:href="#DejaVuSans-3a" x="2597.212891"/>
     <use xlink:href="#DejaVuSans-20" x="2630.904297"/>
     <use xlink:href="#DejaVuSans-35" x="2662.691406"/>
     <use xlink:href="#DejaVuSans-2e" x="2726.314453"/>
     <use xlink:href="#DejaVuSans-37" x="2758.101562"/>
     <use xlink:href="#DejaVuSans-35" x="2821.724609"/>
     <use xlink:href="#DejaVuSans-2c" x="2885.347656"/>
     <use xlink:href="#DejaVuSans-20" x="2917.134766"/>
     <use xlink:href="#DejaVuSans-61" x="2948.921875"/>
     <use xlink:href="#DejaVuSans-76" x="3010.201172"/>
     <use xlink:href="#DejaVuSans-67" x="3069.380859"/>
     <use xlink:href="#DejaVuSans-2e" x="3132.857422"/>
     <use xlink:href="#DejaVuSans-20" x="3164.644531"/>
     <use xlink:href="#DejaVuSans-41" x="3196.431641"/>
     <use xlink:href="#DejaVuSans-6e" x="3264.839844"/>
     <use xlink:href="#DejaVuSans-67" x="3328.21875"/>
     <use xlink:href="#DejaVuSans-6c" x="3391.695312"/>
     <use xlink:href="#DejaVuSans-65" x="3419.478516"/>
     <use xlink:href="#DejaVuSans-3a" x="3481.001953"/>
     <use xlink:href="#DejaVuSans-20" x="3514.693359"/>
     <use xlink:href="#DejaVuSans-35" x="3546.480469"/>
     <use xlink:href="#DejaVuSans-2e" x="3610.103516"/>
     <use xlink:href="#DejaVuSans-33" x="3641.890625"/>
     <use xlink:href="#DejaVuSans-32" x="3705.513672"/>
    </g>
   </g>
  </g>
 </g>
 <defs>
  <clipPath id="pcea7c59bcd">
   <rect x="411.936864" y="172.8" width="652.126273" height="1108.8"/>
  </clipPath>
 </defs>
</svg>
