<?xml version="1.0" encoding="utf-8" standalone="no"?>
<!DOCTYPE svg PUBLIC "-//W3C//DTD SVG 1.1//EN"
  "http://www.w3.org/Graphics/SVG/1.1/DTD/svg11.dtd">
<svg xmlns:xlink="http://www.w3.org/1999/xlink" width="1440pt" height="1440pt" viewBox="0 0 1440 1440" xmlns="http://www.w3.org/2000/svg" version="1.1">
 <metadata>
  <rdf:RDF xmlns:dc="http://purl.org/dc/elements/1.1/" xmlns:cc="http://creativecommons.org/ns#" xmlns:rdf="http://www.w3.org/1999/02/22-rdf-syntax-ns#">
   <cc:Work>
    <dc:type rdf:resource="http://purl.org/dc/dcmitype/StillImage"/>
    <dc:date>2024-03-09T15:31:11.207404</dc:date>
    <dc:format>image/svg+xml</dc:format>
    <dc:creator>
     <cc:Agent>
      <dc:title>Matplotlib v3.8.3, https://matplotlib.org/</dc:title>
     </cc:Agent>
    </dc:creator>
   </cc:Work>
  </rdf:RDF>
 </metadata>
 <defs>
  <style type="text/css">*{stroke-linejoin: round; stroke-linecap: butt}</style>
 </defs>
 <g id="figure_1">
  <g id="patch_1">
   <path d="M 0 1440 
L 1440 1440 
L 1440 0 
L 0 0 
z
" style="fill: #ffffff"/>
  </g>
  <g id="axes_1">
   <g id="patch_2">
    <path d="M 452.52562 342.231431 
C 455.207621 342.231431 457.780136 341.165861 459.676597 339.269399 
C 461.573058 337.372938 462.638628 334.800424 462.638628 332.118423 
C 462.638628 329.436422 461.573058 326.863907 459.676597 324.967446 
C 457.780136 323.070985 455.207621 322.005414 452.52562 322.005414 
C 449.843619 322.005414 447.271104 323.070985 445.374643 324.967446 
C 443.478182 326.863907 442.412612 329.436422 442.412612 332.118423 
C 442.412612 334.800424 443.478182 337.372938 445.374643 339.269399 
C 447.271104 341.165861 449.843619 342.231431 452.52562 342.231431 
z
" clip-path="url(#p10026b9842)" style="fill: #9e0142; opacity: 0.5"/>
   </g>
   <g id="patch_3">
    <path d="M 560.271509 424.449869 
C 565.289074 424.449869 570.101808 422.456369 573.649762 418.908415 
C 577.197716 415.360461 579.191215 410.547727 579.191215 405.530163 
C 579.191215 400.512598 577.197716 395.699864 573.649762 392.15191 
C 570.101808 388.603956 565.289074 386.610456 560.271509 386.610456 
C 555.253944 386.610456 550.441211 388.603956 546.893257 392.15191 
C 543.345303 395.699864 541.351803 400.512598 541.351803 405.530163 
C 541.351803 410.547727 543.345303 415.360461 546.893257 418.908415 
C 550.441211 422.456369 555.253944 424.449869 560.271509 424.449869 
z
" clip-path="url(#p10026b9842)" style="fill: #b11747; opacity: 0.5"/>
   </g>
   <g id="patch_4">
    <path d="M 478.698241 394.915542 
C 480.888086 394.915542 482.988535 394.045508 484.536989 392.497054 
C 486.085443 390.948599 486.955478 388.84815 486.955478 386.658305 
C 486.955478 384.468461 486.085443 382.368011 484.536989 380.819557 
C 482.988535 379.271103 480.888086 378.401069 478.698241 378.401069 
C 476.508396 378.401069 474.407947 379.271103 472.859493 380.819557 
C 471.311039 382.368011 470.441004 384.468461 470.441004 386.658305 
C 470.441004 388.84815 471.311039 390.948599 472.859493 392.497054 
C 474.407947 394.045508 476.508396 394.915542 478.698241 394.915542 
z
" clip-path="url(#p10026b9842)" style="fill: #c72e4c; opacity: 0.5"/>
   </g>
   <g id="patch_5">
    <path d="M 450.458005 383.595214 
C 454.089452 383.595214 457.572652 382.152425 460.140473 379.584604 
C 462.708294 377.016784 464.151083 373.533583 464.151083 369.902136 
C 464.151083 366.270689 462.708294 362.787488 460.140473 360.219668 
C 457.572652 357.651847 454.089452 356.209058 450.458005 356.209058 
C 446.826558 356.209058 443.343357 357.651847 440.775536 360.219668 
C 438.207716 362.787488 436.764927 366.270689 436.764927 369.902136 
C 436.764927 373.533583 438.207716 377.016784 440.775536 379.584604 
C 443.343357 382.152425 446.826558 383.595214 450.458005 383.595214 
z
" clip-path="url(#p10026b9842)" style="fill: #d9444d; opacity: 0.5"/>
   </g>
   <g id="patch_6">
    <path d="M 485.1458 372.681014 
C 491.983588 372.681014 498.542239 369.964332 503.377285 365.129285 
C 508.212331 360.294239 510.929013 353.735589 510.929013 346.8978 
C 510.929013 340.060012 508.212331 333.501362 503.377285 328.666315 
C 498.542239 323.831269 491.983588 321.114587 485.1458 321.114587 
C 478.308012 321.114587 471.749361 323.831269 466.914315 328.666315 
C 462.079269 333.501362 459.362587 340.060012 459.362587 346.8978 
C 459.362587 353.735589 462.079269 360.294239 466.914315 365.129285 
C 471.749361 369.964332 478.308012 372.681014 485.1458 372.681014 
z
" clip-path="url(#p10026b9842)" style="fill: #e55749; opacity: 0.5"/>
   </g>
   <g id="patch_7">
    <path d="M 687.373394 975.370365 
C 708.913052 975.370365 729.573402 966.812568 744.804241 951.581729 
C 760.03508 936.35089 768.592877 915.69054 768.592877 894.150881 
C 768.592877 872.611223 760.03508 851.950873 744.804241 836.720034 
C 729.573402 821.489195 708.913052 812.931398 687.373394 812.931398 
C 665.833735 812.931398 645.173385 821.489195 629.942546 836.720034 
C 614.711707 851.950873 606.15391 872.611223 606.15391 894.150881 
C 606.15391 915.69054 614.711707 936.35089 629.942546 951.581729 
C 645.173385 966.812568 665.833735 975.370365 687.373394 975.370365 
z
" clip-path="url(#p10026b9842)" style="fill: #f26944; opacity: 0.5"/>
   </g>
   <g id="patch_8">
    <path d="M 837.46206 805.256796 
C 910.968792 805.256796 981.474775 776.052261 1033.451883 724.075153 
C 1085.428992 672.098044 1114.633526 601.592062 1114.633526 528.08533 
C 1114.633526 454.578598 1085.428992 384.072615 1033.451883 332.095507 
C 981.474775 280.118398 910.968792 250.913864 837.46206 250.913864 
C 763.955328 250.913864 693.449346 280.118398 641.472237 332.095507 
C 589.495128 384.072615 560.290594 454.578598 560.290594 528.08533 
C 560.290594 601.592062 589.495128 672.098044 641.472237 724.075153 
C 693.449346 776.052261 763.955328 805.256796 837.46206 805.256796 
z
" clip-path="url(#p10026b9842)" style="fill: #f7814c; opacity: 0.5"/>
   </g>
   <g id="patch_9">
    <path d="M 521.697135 620.668937 
C 527.061138 620.668937 532.206166 618.537796 535.999089 614.744873 
C 539.792011 610.951951 541.923152 605.806922 541.923152 600.44292 
C 541.923152 595.078918 539.792011 589.933889 535.999089 586.140966 
C 532.206166 582.348044 527.061138 580.216903 521.697135 580.216903 
C 516.333133 580.216903 511.188104 582.348044 507.395182 586.140966 
C 503.602259 589.933889 501.471119 595.078918 501.471119 600.44292 
C 501.471119 605.806922 503.602259 610.951951 507.395182 614.744873 
C 511.188104 618.537796 516.333133 620.668937 521.697135 620.668937 
z
" clip-path="url(#p10026b9842)" style="fill: #fa9857; opacity: 0.5"/>
   </g>
   <g id="patch_10">
    <path d="M 541.072205 249.451061 
C 543.754206 249.451061 546.326721 248.385491 548.223182 246.48903 
C 550.119643 244.592569 551.185214 242.020054 551.185214 239.338053 
C 551.185214 236.656052 550.119643 234.083538 548.223182 232.187076 
C 546.326721 230.290615 543.754206 229.225045 541.072205 229.225045 
C 538.390204 229.225045 535.81769 230.290615 533.921229 232.187076 
C 532.024767 234.083538 530.959197 236.656052 530.959197 239.338053 
C 530.959197 242.020054 532.024767 244.592569 533.921229 246.48903 
C 535.81769 248.385491 538.390204 249.451061 541.072205 249.451061 
z
" clip-path="url(#p10026b9842)" style="fill: #fdb163; opacity: 0.5"/>
   </g>
   <g id="patch_11">
    <path d="M 557.050213 242.324665 
C 558.598668 242.324665 560.083909 241.709458 561.178832 240.614535 
C 562.273754 239.519613 562.888962 238.034371 562.888962 236.485917 
C 562.888962 234.937463 562.273754 233.452221 561.178832 232.357298 
C 560.083909 231.262376 558.598668 230.647169 557.050213 230.647169 
C 555.501759 230.647169 554.016517 231.262376 552.921595 232.357298 
C 551.826673 233.452221 551.211465 234.937463 551.211465 236.485917 
C 551.211465 238.034371 551.826673 239.519613 552.921595 240.614535 
C 554.016517 241.709458 555.501759 242.324665 557.050213 242.324665 
z
" clip-path="url(#p10026b9842)" style="fill: #fdc574; opacity: 0.5"/>
   </g>
   <g id="patch_12">
    <path d="M 431.96827 400.637669 
C 435.253037 400.637669 438.403711 399.332618 440.726392 397.009936 
C 443.049073 394.687255 444.354125 391.536582 444.354125 388.251814 
C 444.354125 384.967047 443.049073 381.816373 440.726392 379.493692 
C 438.403711 377.171011 435.253037 375.865959 431.96827 375.865959 
C 428.683503 375.865959 425.532829 377.171011 423.210148 379.493692 
C 420.887467 381.816373 419.582415 384.967047 419.582415 388.251814 
C 419.582415 391.536582 420.887467 394.687255 423.210148 397.009936 
C 425.532829 399.332618 428.683503 400.637669 431.96827 400.637669 
z
" clip-path="url(#p10026b9842)" style="fill: #fed884; opacity: 0.5"/>
   </g>
   <g id="patch_13">
    <path d="M 654.455965 817.636847 
C 664.06387 817.636847 673.279553 813.819586 680.073368 807.025771 
C 686.867183 800.231957 690.684444 791.016273 690.684444 781.408368 
C 690.684444 771.800463 686.867183 762.58478 680.073368 755.790965 
C 673.279553 748.99715 664.06387 745.179889 654.455965 745.179889 
C 644.84806 745.179889 635.632376 748.99715 628.838561 755.790965 
C 622.044747 762.58478 618.227486 771.800463 618.227486 781.408368 
C 618.227486 791.016273 622.044747 800.231957 628.838561 807.025771 
C 635.632376 813.819586 644.84806 817.636847 654.455965 817.636847 
z
" clip-path="url(#p10026b9842)" style="fill: #fee797; opacity: 0.5"/>
   </g>
   <g id="patch_14">
    <path d="M 507.292158 577.818791 
C 521.356691 577.818791 534.84707 572.230893 544.792196 562.285767 
C 554.737323 552.34064 560.325221 538.850261 560.325221 524.785728 
C 560.325221 510.721196 554.737323 497.230816 544.792196 487.28569 
C 534.84707 477.340563 521.356691 471.752665 507.292158 471.752665 
C 493.227625 471.752665 479.737246 477.340563 469.792119 487.28569 
C 459.846993 497.230816 454.259095 510.721196 454.259095 524.785728 
C 454.259095 538.850261 459.846993 552.34064 469.792119 562.285767 
C 479.737246 572.230893 493.227625 577.818791 507.292158 577.818791 
z
" clip-path="url(#p10026b9842)" style="fill: #fff3ac; opacity: 0.5"/>
   </g>
   <g id="patch_15">
    <path d="M 491.107913 321.692329 
C 492.656367 321.692329 494.141609 321.077121 495.236532 319.982199 
C 496.331454 318.887276 496.946661 317.402035 496.946661 315.85358 
C 496.946661 314.305126 496.331454 312.819884 495.236532 311.724962 
C 494.141609 310.63004 492.656367 310.014832 491.107913 310.014832 
C 489.559459 310.014832 488.074217 310.63004 486.979295 311.724962 
C 485.884373 312.819884 485.269165 314.305126 485.269165 315.85358 
C 485.269165 317.402035 485.884373 318.887276 486.979295 319.982199 
C 488.074217 321.077121 489.559459 321.692329 491.107913 321.692329 
z
" clip-path="url(#p10026b9842)" style="fill: #ffffbe; opacity: 0.5"/>
   </g>
   <g id="patch_16">
    <path d="M 453.554916 353.877667 
C 455.10337 353.877667 456.588612 353.262459 457.683534 352.167537 
C 458.778457 351.072614 459.393664 349.587373 459.393664 348.038918 
C 459.393664 346.490464 458.778457 345.005222 457.683534 343.9103 
C 456.588612 342.815378 455.10337 342.20017 453.554916 342.20017 
C 452.006462 342.20017 450.52122 342.815378 449.426298 343.9103 
C 448.331375 345.005222 447.716168 346.490464 447.716168 348.038918 
C 447.716168 349.587373 448.331375 351.072614 449.426298 352.167537 
C 450.52122 353.262459 452.006462 353.877667 453.554916 353.877667 
z
" clip-path="url(#p10026b9842)" style="fill: #f6fbb0; opacity: 0.5"/>
   </g>
   <g id="patch_17">
    <path d="M 612.815685 760.702038 
C 620.078578 760.702038 627.04498 757.81646 632.180621 752.680818 
C 637.316262 747.545177 640.201841 740.578775 640.201841 733.315882 
C 640.201841 726.052988 637.316262 719.086586 632.180621 713.950945 
C 627.04498 708.815304 620.078578 705.929726 612.815685 705.929726 
C 605.552791 705.929726 598.586389 708.815304 593.450748 713.950945 
C 588.315107 719.086586 585.429529 726.052988 585.429529 733.315882 
C 585.429529 740.578775 588.315107 747.545177 593.450748 752.680818 
C 598.586389 757.81646 605.552791 760.702038 612.815685 760.702038 
z
" clip-path="url(#p10026b9842)" style="fill: #ecf7a1; opacity: 0.5"/>
   </g>
   <g id="patch_18">
    <path d="M 515.230295 378.686079 
C 518.127188 378.686079 520.905821 377.535132 522.954233 375.486719 
C 525.002645 373.438307 526.153593 370.659674 526.153593 367.762782 
C 526.153593 364.865889 525.002645 362.087256 522.954233 360.038844 
C 520.905821 357.990432 518.127188 356.839484 515.230295 356.839484 
C 512.333403 356.839484 509.55477 357.990432 507.506358 360.038844 
C 505.457945 362.087256 504.306998 364.865889 504.306998 367.762782 
C 504.306998 370.659674 505.457945 373.438307 507.506358 375.486719 
C 509.55477 377.535132 512.333403 378.686079 515.230295 378.686079 
z
" clip-path="url(#p10026b9842)" style="fill: #ddf19a; opacity: 0.5"/>
   </g>
   <g id="patch_19">
    <path d="M 490.745641 607.741228 
C 493.642534 607.741228 496.421167 606.59028 498.469579 604.541868 
C 500.517991 602.493456 501.668939 599.714823 501.668939 596.81793 
C 501.668939 593.921038 500.517991 591.142405 498.469579 589.093993 
C 496.421167 587.045581 493.642534 585.894633 490.745641 585.894633 
C 487.848749 585.894633 485.070116 587.045581 483.021704 589.093993 
C 480.973291 591.142405 479.822344 593.921038 479.822344 596.81793 
C 479.822344 599.714823 480.973291 602.493456 483.021704 604.541868 
C 485.070116 606.59028 487.848749 607.741228 490.745641 607.741228 
z
" clip-path="url(#p10026b9842)" style="fill: #c6e89f; opacity: 0.5"/>
   </g>
   <g id="patch_20">
    <path d="M 603.99221 345.674613 
C 620.232533 345.674613 635.809882 339.222264 647.293525 327.738621 
C 658.777167 316.254978 665.229516 300.67763 665.229516 284.437306 
C 665.229516 268.196983 658.777167 252.619635 647.293525 241.135992 
C 635.809882 229.652349 620.232533 223.2 603.99221 223.2 
C 587.751886 223.2 572.174538 229.652349 560.690895 241.135992 
C 549.207252 252.619635 542.754903 268.196983 542.754903 284.437306 
C 542.754903 300.67763 549.207252 316.254978 560.690895 327.738621 
C 572.174538 339.222264 587.751886 345.674613 603.99221 345.674613 
z
" clip-path="url(#p10026b9842)" style="fill: #aedea3; opacity: 0.5"/>
   </g>
   <g id="patch_21">
    <path d="M 815.337201 980.339935 
C 828.968875 980.339935 842.044065 974.924014 851.683114 965.284965 
C 861.322163 955.645916 866.738085 942.570725 866.738085 928.939051 
C 866.738085 915.307377 861.322163 902.232187 851.683114 892.593138 
C 842.044065 882.954089 828.968875 877.538167 815.337201 877.538167 
C 801.705527 877.538167 788.630336 882.954089 778.991287 892.593138 
C 769.352238 902.232187 763.936317 915.307377 763.936317 928.939051 
C 763.936317 942.570725 769.352238 955.645916 778.991287 965.284965 
C 788.630336 974.924014 801.705527 980.339935 815.337201 980.339935 
z
" clip-path="url(#p10026b9842)" style="fill: #94d4a4; opacity: 0.5"/>
   </g>
   <g id="patch_22">
    <path d="M 535.663032 363.234281 
C 542.412587 363.234281 548.886606 360.552655 553.659262 355.779999 
C 558.431918 351.007343 561.113545 344.533323 561.113545 337.783768 
C 561.113545 331.034214 558.431918 324.560194 553.659262 319.787538 
C 548.886606 315.014882 542.412587 312.333256 535.663032 312.333256 
C 528.913477 312.333256 522.439458 315.014882 517.666802 319.787538 
C 512.894146 324.560194 510.212519 331.034214 510.212519 337.783768 
C 510.212519 344.533323 512.894146 351.007343 517.666802 355.779999 
C 522.439458 360.552655 528.913477 363.234281 535.663032 363.234281 
z
" clip-path="url(#p10026b9842)" style="fill: #7ccaa5; opacity: 0.5"/>
   </g>
   <g id="patch_23">
    <path d="M 472.186313 838.632499 
C 502.331497 838.632499 531.246071 826.65569 552.561935 805.339826 
C 573.877799 784.023962 585.854607 755.109389 585.854607 724.964205 
C 585.854607 694.819021 573.877799 665.904447 552.561935 644.588583 
C 531.246071 623.272719 502.331497 611.295911 472.186313 611.295911 
C 442.041129 611.295911 413.126555 623.272719 391.810691 644.588583 
C 370.494827 665.904447 358.518019 694.819021 358.518019 724.964205 
C 358.518019 755.109389 370.494827 784.023962 391.810691 805.339826 
C 413.126555 826.65569 442.041129 838.632499 472.186313 838.632499 
z
" clip-path="url(#p10026b9842)" style="fill: #62bda7; opacity: 0.5"/>
   </g>
   <g id="patch_24">
    <path d="M 754.957064 1003.441541 
C 761.881961 1003.441541 768.524165 1000.69025 773.420807 995.793608 
C 778.317449 990.896967 781.068739 984.254763 781.068739 977.329866 
C 781.068739 970.404969 778.317449 963.762765 773.420807 958.866123 
C 768.524165 953.969481 761.881961 951.218191 754.957064 951.218191 
C 748.032167 951.218191 741.389963 953.969481 736.493322 958.866123 
C 731.59668 963.762765 728.845389 970.404969 728.845389 977.329866 
C 728.845389 984.254763 731.59668 990.896967 736.493322 995.793608 
C 741.389963 1000.69025 748.032167 1003.441541 754.957064 1003.441541 
z
" clip-path="url(#p10026b9842)" style="fill: #4ea7b0; opacity: 0.5"/>
   </g>
   <g id="patch_25">
    <path d="M 961.57538 1231.2 
C 1002.922294 1231.2 1042.581312 1214.772697 1071.817995 1185.536014 
C 1101.054678 1156.299331 1117.481981 1116.640313 1117.481981 1075.293399 
C 1117.481981 1033.946486 1101.054678 994.287468 1071.817995 965.050785 
C 1042.581312 935.814102 1002.922294 919.386799 961.57538 919.386799 
C 920.228467 919.386799 880.569449 935.814102 851.332766 965.050785 
C 822.096083 994.287468 805.66878 1033.946486 805.66878 1075.293399 
C 805.66878 1116.640313 822.096083 1156.299331 851.332766 1185.536014 
C 880.569449 1214.772697 920.228467 1231.2 961.57538 1231.2 
z
" clip-path="url(#p10026b9842)" style="fill: #3990ba; opacity: 0.5"/>
   </g>
   <g id="patch_26">
    <path d="M 469.057069 382.208142 
C 470.605523 382.208142 472.090765 381.592934 473.185687 380.498012 
C 474.280609 379.40309 474.895817 377.917848 474.895817 376.369394 
C 474.895817 374.82094 474.280609 373.335698 473.185687 372.240775 
C 472.090765 371.145853 470.605523 370.530646 469.057069 370.530646 
C 467.508615 370.530646 466.023373 371.145853 464.92845 372.240775 
C 463.833528 373.335698 463.218321 374.82094 463.218321 376.369394 
C 463.218321 377.917848 463.833528 379.40309 464.92845 380.498012 
C 466.023373 381.592934 467.508615 382.208142 469.057069 382.208142 
z
" clip-path="url(#p10026b9842)" style="fill: #3d79b6; opacity: 0.5"/>
   </g>
   <g id="patch_27">
    <path d="M 455.056406 611.516872 
C 462.152314 611.516872 468.958547 608.697638 473.976112 603.680073 
C 478.993677 598.662508 481.812911 591.856275 481.812911 584.760367 
C 481.812911 577.664459 478.993677 570.858226 473.976112 565.840661 
C 468.958547 560.823096 462.152314 558.003862 455.056406 558.003862 
C 447.960498 558.003862 441.154264 560.823096 436.1367 565.840661 
C 431.119135 570.858226 428.299901 577.664459 428.299901 584.760367 
C 428.299901 591.856275 431.119135 598.662508 436.1367 603.680073 
C 441.154264 608.697638 447.960498 611.516872 455.056406 611.516872 
z
" clip-path="url(#p10026b9842)" style="fill: #4e63ac; opacity: 0.5"/>
   </g>
   <g id="patch_28">
    <path d="M 581.948375 392.367154 
C 588.51791 392.367154 594.819257 389.75705 599.46462 385.111688 
C 604.109982 380.466325 606.720085 374.164978 606.720085 367.595443 
C 606.720085 361.025909 604.109982 354.724562 599.46462 350.079199 
C 594.819257 345.433837 588.51791 342.823733 581.948375 342.823733 
C 575.378841 342.823733 569.077493 345.433837 564.432131 350.079199 
C 559.786769 354.724562 557.176665 361.025909 557.176665 367.595443 
C 557.176665 374.164978 559.786769 380.466325 564.432131 385.111688 
C 569.077493 389.75705 575.378841 392.367154 581.948375 392.367154 
z
" clip-path="url(#p10026b9842)" style="fill: #5e4fa2; opacity: 0.5"/>
   </g>
   <g id="line2d_1">
    <path d="M 612.815685 733.315882 
L 472.186313 724.964205 
" clip-path="url(#p10026b9842)" style="fill: none; stroke: #808080; stroke-opacity: 0.3; stroke-width: 0.5; stroke-linecap: square"/>
   </g>
   <g id="line2d_2">
    <path d="M 612.815685 733.315882 
L 654.455965 781.408368 
" clip-path="url(#p10026b9842)" style="fill: none; stroke: #808080; stroke-opacity: 0.3; stroke-width: 0.5; stroke-linecap: square"/>
   </g>
   <g id="line2d_3">
    <path d="M 453.554916 348.038918 
L 450.458005 369.902136 
" clip-path="url(#p10026b9842)" style="fill: none; stroke: #808080; stroke-opacity: 0.3; stroke-width: 0.5; stroke-linecap: square"/>
   </g>
   <g id="line2d_4">
    <path d="M 453.554916 348.038918 
L 485.1458 346.8978 
" clip-path="url(#p10026b9842)" style="fill: none; stroke: #808080; stroke-opacity: 0.3; stroke-width: 0.5; stroke-linecap: square"/>
   </g>
   <g id="line2d_5">
    <path d="M 453.554916 348.038918 
L 452.52562 332.118423 
" clip-path="url(#p10026b9842)" style="fill: none; stroke: #808080; stroke-opacity: 0.3; stroke-width: 0.5; stroke-linecap: square"/>
   </g>
   <g id="line2d_6">
    <path d="M 469.057069 376.369394 
L 450.458005 369.902136 
" clip-path="url(#p10026b9842)" style="fill: none; stroke: #808080; stroke-opacity: 0.3; stroke-width: 0.5; stroke-linecap: square"/>
   </g>
   <g id="line2d_7">
    <path d="M 469.057069 376.369394 
L 485.1458 346.8978 
" clip-path="url(#p10026b9842)" style="fill: none; stroke: #808080; stroke-opacity: 0.3; stroke-width: 0.5; stroke-linecap: square"/>
   </g>
   <g id="line2d_8">
    <path d="M 469.057069 376.369394 
L 478.698241 386.658305 
" clip-path="url(#p10026b9842)" style="fill: none; stroke: #808080; stroke-opacity: 0.3; stroke-width: 0.5; stroke-linecap: square"/>
   </g>
   <g id="line2d_9">
    <path d="M 837.46206 528.08533 
L 472.186313 724.964205 
" clip-path="url(#p10026b9842)" style="fill: none; stroke: #808080; stroke-opacity: 0.3; stroke-width: 0.5; stroke-linecap: square"/>
   </g>
   <g id="line2d_10">
    <path d="M 837.46206 528.08533 
L 581.948375 367.595443 
" clip-path="url(#p10026b9842)" style="fill: none; stroke: #808080; stroke-opacity: 0.3; stroke-width: 0.5; stroke-linecap: square"/>
   </g>
   <g id="line2d_11">
    <path d="M 837.46206 528.08533 
L 654.455965 781.408368 
" clip-path="url(#p10026b9842)" style="fill: none; stroke: #808080; stroke-opacity: 0.3; stroke-width: 0.5; stroke-linecap: square"/>
   </g>
   <g id="line2d_12">
    <path d="M 837.46206 528.08533 
L 507.292158 524.785728 
" clip-path="url(#p10026b9842)" style="fill: none; stroke: #808080; stroke-opacity: 0.3; stroke-width: 0.5; stroke-linecap: square"/>
   </g>
   <g id="line2d_13">
    <path d="M 837.46206 528.08533 
L 521.697135 600.44292 
" clip-path="url(#p10026b9842)" style="fill: none; stroke: #808080; stroke-opacity: 0.3; stroke-width: 0.5; stroke-linecap: square"/>
   </g>
   <g id="line2d_14">
    <path d="M 837.46206 528.08533 
L 603.99221 284.437306 
" clip-path="url(#p10026b9842)" style="fill: none; stroke: #808080; stroke-opacity: 0.3; stroke-width: 0.5; stroke-linecap: square"/>
   </g>
   <g id="line2d_15">
    <path d="M 515.230295 367.762782 
L 485.1458 346.8978 
" clip-path="url(#p10026b9842)" style="fill: none; stroke: #808080; stroke-opacity: 0.3; stroke-width: 0.5; stroke-linecap: square"/>
   </g>
   <g id="line2d_16">
    <path d="M 515.230295 367.762782 
L 535.663032 337.783768 
" clip-path="url(#p10026b9842)" style="fill: none; stroke: #808080; stroke-opacity: 0.3; stroke-width: 0.5; stroke-linecap: square"/>
   </g>
   <g id="line2d_17">
    <path d="M 485.1458 346.8978 
L 491.107913 315.85358 
" clip-path="url(#p10026b9842)" style="fill: none; stroke: #808080; stroke-opacity: 0.3; stroke-width: 0.5; stroke-linecap: square"/>
   </g>
   <g id="line2d_18">
    <path d="M 485.1458 346.8978 
L 450.458005 369.902136 
" clip-path="url(#p10026b9842)" style="fill: none; stroke: #808080; stroke-opacity: 0.3; stroke-width: 0.5; stroke-linecap: square"/>
   </g>
   <g id="line2d_19">
    <path d="M 485.1458 346.8978 
L 452.52562 332.118423 
" clip-path="url(#p10026b9842)" style="fill: none; stroke: #808080; stroke-opacity: 0.3; stroke-width: 0.5; stroke-linecap: square"/>
   </g>
   <g id="line2d_20">
    <path d="M 485.1458 346.8978 
L 535.663032 337.783768 
" clip-path="url(#p10026b9842)" style="fill: none; stroke: #808080; stroke-opacity: 0.3; stroke-width: 0.5; stroke-linecap: square"/>
   </g>
   <g id="line2d_21">
    <path d="M 431.96827 388.251814 
L 450.458005 369.902136 
" clip-path="url(#p10026b9842)" style="fill: none; stroke: #808080; stroke-opacity: 0.3; stroke-width: 0.5; stroke-linecap: square"/>
   </g>
   <g id="line2d_22">
    <path d="M 557.050213 236.485917 
L 603.99221 284.437306 
" clip-path="url(#p10026b9842)" style="fill: none; stroke: #808080; stroke-opacity: 0.3; stroke-width: 0.5; stroke-linecap: square"/>
   </g>
   <g id="line2d_23">
    <path d="M 557.050213 236.485917 
L 541.072205 239.338053 
" clip-path="url(#p10026b9842)" style="fill: none; stroke: #808080; stroke-opacity: 0.3; stroke-width: 0.5; stroke-linecap: square"/>
   </g>
   <g id="line2d_24">
    <path d="M 450.458005 369.902136 
L 478.698241 386.658305 
" clip-path="url(#p10026b9842)" style="fill: none; stroke: #808080; stroke-opacity: 0.3; stroke-width: 0.5; stroke-linecap: square"/>
   </g>
   <g id="line2d_25">
    <path d="M 961.57538 1075.293399 
L 815.337201 928.939051 
" clip-path="url(#p10026b9842)" style="fill: none; stroke: #808080; stroke-opacity: 0.3; stroke-width: 0.5; stroke-linecap: square"/>
   </g>
   <g id="line2d_26">
    <path d="M 472.186313 724.964205 
L 654.455965 781.408368 
" clip-path="url(#p10026b9842)" style="fill: none; stroke: #808080; stroke-opacity: 0.3; stroke-width: 0.5; stroke-linecap: square"/>
   </g>
   <g id="line2d_27">
    <path d="M 472.186313 724.964205 
L 507.292158 524.785728 
" clip-path="url(#p10026b9842)" style="fill: none; stroke: #808080; stroke-opacity: 0.3; stroke-width: 0.5; stroke-linecap: square"/>
   </g>
   <g id="line2d_28">
    <path d="M 472.186313 724.964205 
L 521.697135 600.44292 
" clip-path="url(#p10026b9842)" style="fill: none; stroke: #808080; stroke-opacity: 0.3; stroke-width: 0.5; stroke-linecap: square"/>
   </g>
   <g id="line2d_29">
    <path d="M 490.745641 596.81793 
L 521.697135 600.44292 
" clip-path="url(#p10026b9842)" style="fill: none; stroke: #808080; stroke-opacity: 0.3; stroke-width: 0.5; stroke-linecap: square"/>
   </g>
   <g id="line2d_30">
    <path d="M 490.745641 596.81793 
L 455.056406 584.760367 
" clip-path="url(#p10026b9842)" style="fill: none; stroke: #808080; stroke-opacity: 0.3; stroke-width: 0.5; stroke-linecap: square"/>
   </g>
   <g id="line2d_31">
    <path d="M 754.957064 977.329866 
L 687.373394 894.150881 
" clip-path="url(#p10026b9842)" style="fill: none; stroke: #808080; stroke-opacity: 0.3; stroke-width: 0.5; stroke-linecap: square"/>
   </g>
   <g id="line2d_32">
    <path d="M 581.948375 367.595443 
L 603.99221 284.437306 
" clip-path="url(#p10026b9842)" style="fill: none; stroke: #808080; stroke-opacity: 0.3; stroke-width: 0.5; stroke-linecap: square"/>
   </g>
   <g id="line2d_33">
    <path d="M 581.948375 367.595443 
L 560.271509 405.530163 
" clip-path="url(#p10026b9842)" style="fill: none; stroke: #808080; stroke-opacity: 0.3; stroke-width: 0.5; stroke-linecap: square"/>
   </g>
   <g id="line2d_34">
    <path d="M 654.455965 781.408368 
L 687.373394 894.150881 
" clip-path="url(#p10026b9842)" style="fill: none; stroke: #808080; stroke-opacity: 0.3; stroke-width: 0.5; stroke-linecap: square"/>
   </g>
   <g id="line2d_35">
    <path d="M 815.337201 928.939051 
L 687.373394 894.150881 
" clip-path="url(#p10026b9842)" style="fill: none; stroke: #808080; stroke-opacity: 0.3; stroke-width: 0.5; stroke-linecap: square"/>
   </g>
   <g id="line2d_36">
    <path d="M 535.663032 337.783768 
L 603.99221 284.437306 
" clip-path="url(#p10026b9842)" style="fill: none; stroke: #808080; stroke-opacity: 0.3; stroke-width: 0.5; stroke-linecap: square"/>
   </g>
   <g id="text_1">
    <!-- NLD -->
    <g transform="translate(446.299682 333.774048) scale(0.06 -0.06)">
     <defs>
      <path id="DejaVuSans-4e" d="M 628 4666 
L 1478 4666 
L 3547 763 
L 3547 4666 
L 4159 4666 
L 4159 0 
L 3309 0 
L 1241 3903 
L 1241 0 
L 628 0 
L 628 4666 
z
" transform="scale(0.015625)"/>
      <path id="DejaVuSans-4c" d="M 628 4666 
L 1259 4666 
L 1259 531 
L 3531 531 
L 3531 0 
L 628 0 
L 628 4666 
z
" transform="scale(0.015625)"/>
      <path id="DejaVuSans-44" d="M 1259 4147 
L 1259 519 
L 2022 519 
Q 2988 519 3436 956 
Q 3884 1394 3884 2338 
Q 3884 3275 3436 3711 
Q 2988 4147 2022 4147 
L 1259 4147 
z
M 628 4666 
L 1925 4666 
Q 3281 4666 3915 4102 
Q 4550 3538 4550 2338 
Q 4550 1131 3912 565 
Q 3275 0 1925 0 
L 628 0 
L 628 4666 
z
" transform="scale(0.015625)"/>
     </defs>
     <use xlink:href="#DejaVuSans-4e"/>
     <use xlink:href="#DejaVuSans-4c" x="74.804688"/>
     <use xlink:href="#DejaVuSans-44" x="130.517578"/>
    </g>
   </g>
   <g id="text_2">
    <!-- UZB -->
    <g transform="translate(554.015103 407.185788) scale(0.06 -0.06)">
     <defs>
      <path id="DejaVuSans-55" d="M 556 4666 
L 1191 4666 
L 1191 1831 
Q 1191 1081 1462 751 
Q 1734 422 2344 422 
Q 2950 422 3222 751 
Q 3494 1081 3494 1831 
L 3494 4666 
L 4128 4666 
L 4128 1753 
Q 4128 841 3676 375 
Q 3225 -91 2344 -91 
Q 1459 -91 1007 375 
Q 556 841 556 1753 
L 556 4666 
z
" transform="scale(0.015625)"/>
      <path id="DejaVuSans-5a" d="M 359 4666 
L 4025 4666 
L 4025 4184 
L 1075 531 
L 4097 531 
L 4097 0 
L 288 0 
L 288 481 
L 3238 4134 
L 359 4134 
L 359 4666 
z
" transform="scale(0.015625)"/>
      <path id="DejaVuSans-42" d="M 1259 2228 
L 1259 519 
L 2272 519 
Q 2781 519 3026 730 
Q 3272 941 3272 1375 
Q 3272 1813 3026 2020 
Q 2781 2228 2272 2228 
L 1259 2228 
z
M 1259 4147 
L 1259 2741 
L 2194 2741 
Q 2656 2741 2882 2914 
Q 3109 3088 3109 3444 
Q 3109 3797 2882 3972 
Q 2656 4147 2194 4147 
L 1259 4147 
z
M 628 4666 
L 2241 4666 
Q 2963 4666 3353 4366 
Q 3744 4066 3744 3513 
Q 3744 3084 3544 2831 
Q 3344 2578 2956 2516 
Q 3422 2416 3680 2098 
Q 3938 1781 3938 1306 
Q 3938 681 3513 340 
Q 3088 0 2303 0 
L 628 0 
L 628 4666 
z
" transform="scale(0.015625)"/>
     </defs>
     <use xlink:href="#DejaVuSans-55"/>
     <use xlink:href="#DejaVuSans-5a" x="71.443359"/>
     <use xlink:href="#DejaVuSans-42" x="139.949219"/>
    </g>
   </g>
   <g id="text_3">
    <!-- ITA -->
    <g transform="translate(474.16121 388.31393) scale(0.06 -0.06)">
     <defs>
      <path id="DejaVuSans-49" d="M 628 4666 
L 1259 4666 
L 1259 0 
L 628 0 
L 628 4666 
z
" transform="scale(0.015625)"/>
      <path id="DejaVuSans-54" d="M -19 4666 
L 3928 4666 
L 3928 4134 
L 2272 4134 
L 2272 0 
L 1638 0 
L 1638 4134 
L -19 4134 
L -19 4666 
z
" transform="scale(0.015625)"/>
      <path id="DejaVuSans-41" d="M 2188 4044 
L 1331 1722 
L 3047 1722 
L 2188 4044 
z
M 1831 4666 
L 2547 4666 
L 4325 0 
L 3669 0 
L 3244 1197 
L 1141 1197 
L 716 0 
L 50 0 
L 1831 4666 
z
" transform="scale(0.015625)"/>
     </defs>
     <use xlink:href="#DejaVuSans-49"/>
     <use xlink:href="#DejaVuSans-54" x="29.492188"/>
     <use xlink:href="#DejaVuSans-41" x="82.826172"/>
    </g>
   </g>
   <g id="text_4">
    <!-- FRA -->
    <g transform="translate(444.715817 371.557761) scale(0.06 -0.06)">
     <defs>
      <path id="DejaVuSans-46" d="M 628 4666 
L 3309 4666 
L 3309 4134 
L 1259 4134 
L 1259 2759 
L 3109 2759 
L 3109 2228 
L 1259 2228 
L 1259 0 
L 628 0 
L 628 4666 
z
" transform="scale(0.015625)"/>
      <path id="DejaVuSans-52" d="M 2841 2188 
Q 3044 2119 3236 1894 
Q 3428 1669 3622 1275 
L 4263 0 
L 3584 0 
L 2988 1197 
Q 2756 1666 2539 1819 
Q 2322 1972 1947 1972 
L 1259 1972 
L 1259 0 
L 628 0 
L 628 4666 
L 2053 4666 
Q 2853 4666 3247 4331 
Q 3641 3997 3641 3322 
Q 3641 2881 3436 2590 
Q 3231 2300 2841 2188 
z
M 1259 4147 
L 1259 2491 
L 2053 2491 
Q 2509 2491 2742 2702 
Q 2975 2913 2975 3322 
Q 2975 3731 2742 3939 
Q 2509 4147 2053 4147 
L 1259 4147 
z
" transform="scale(0.015625)"/>
     </defs>
     <use xlink:href="#DejaVuSans-46"/>
     <use xlink:href="#DejaVuSans-52" x="57.519531"/>
     <use xlink:href="#DejaVuSans-41" x="123.001953"/>
    </g>
   </g>
   <g id="text_5">
    <!-- DEU -->
    <g transform="translate(478.74455 348.553425) scale(0.06 -0.06)">
     <defs>
      <path id="DejaVuSans-45" d="M 628 4666 
L 3578 4666 
L 3578 4134 
L 1259 4134 
L 1259 2753 
L 3481 2753 
L 3481 2222 
L 1259 2222 
L 1259 531 
L 3634 531 
L 3634 0 
L 628 0 
L 628 4666 
z
" transform="scale(0.015625)"/>
     </defs>
     <use xlink:href="#DejaVuSans-44"/>
     <use xlink:href="#DejaVuSans-45" x="77.001953"/>
     <use xlink:href="#DejaVuSans-55" x="140.185547"/>
    </g>
   </g>
   <g id="text_6">
    <!-- THA -->
    <g transform="translate(681.232769 895.806506) scale(0.06 -0.06)">
     <defs>
      <path id="DejaVuSans-48" d="M 628 4666 
L 1259 4666 
L 1259 2753 
L 3553 2753 
L 3553 4666 
L 4184 4666 
L 4184 0 
L 3553 0 
L 3553 2222 
L 1259 2222 
L 1259 0 
L 628 0 
L 628 4666 
z
" transform="scale(0.015625)"/>
     </defs>
     <use xlink:href="#DejaVuSans-54"/>
     <use xlink:href="#DejaVuSans-48" x="61.083984"/>
     <use xlink:href="#DejaVuSans-41" x="136.279297"/>
    </g>
   </g>
   <g id="text_7">
    <!-- CHN -->
    <g transform="translate(830.866748 529.740955) scale(0.06 -0.06)">
     <defs>
      <path id="DejaVuSans-43" d="M 4122 4306 
L 4122 3641 
Q 3803 3938 3442 4084 
Q 3081 4231 2675 4231 
Q 1875 4231 1450 3742 
Q 1025 3253 1025 2328 
Q 1025 1406 1450 917 
Q 1875 428 2675 428 
Q 3081 428 3442 575 
Q 3803 722 4122 1019 
L 4122 359 
Q 3791 134 3420 21 
Q 3050 -91 2638 -91 
Q 1578 -91 968 557 
Q 359 1206 359 2328 
Q 359 3453 968 4101 
Q 1578 4750 2638 4750 
Q 3056 4750 3426 4639 
Q 3797 4528 4122 4306 
z
" transform="scale(0.015625)"/>
     </defs>
     <use xlink:href="#DejaVuSans-43"/>
     <use xlink:href="#DejaVuSans-48" x="69.824219"/>
     <use xlink:href="#DejaVuSans-4e" x="145.019531"/>
    </g>
   </g>
   <g id="text_8">
    <!-- PAK -->
    <g transform="translate(516.059948 602.098545) scale(0.06 -0.06)">
     <defs>
      <path id="DejaVuSans-50" d="M 1259 4147 
L 1259 2394 
L 2053 2394 
Q 2494 2394 2734 2622 
Q 2975 2850 2975 3272 
Q 2975 3691 2734 3919 
Q 2494 4147 2053 4147 
L 1259 4147 
z
M 628 4666 
L 2053 4666 
Q 2838 4666 3239 4311 
Q 3641 3956 3641 3272 
Q 3641 2581 3239 2228 
Q 2838 1875 2053 1875 
L 1259 1875 
L 1259 0 
L 628 0 
L 628 4666 
z
" transform="scale(0.015625)"/>
      <path id="DejaVuSans-4b" d="M 628 4666 
L 1259 4666 
L 1259 2694 
L 3353 4666 
L 4166 4666 
L 1850 2491 
L 4331 0 
L 3500 0 
L 1259 2247 
L 1259 0 
L 628 0 
L 628 4666 
z
" transform="scale(0.015625)"/>
     </defs>
     <use xlink:href="#DejaVuSans-50"/>
     <use xlink:href="#DejaVuSans-41" x="53.927734"/>
     <use xlink:href="#DejaVuSans-4b" x="122.335938"/>
    </g>
   </g>
   <g id="text_9">
    <!-- SWE -->
    <g transform="translate(534.305799 240.993678) scale(0.06 -0.06)">
     <defs>
      <path id="DejaVuSans-53" d="M 3425 4513 
L 3425 3897 
Q 3066 4069 2747 4153 
Q 2428 4238 2131 4238 
Q 1616 4238 1336 4038 
Q 1056 3838 1056 3469 
Q 1056 3159 1242 3001 
Q 1428 2844 1947 2747 
L 2328 2669 
Q 3034 2534 3370 2195 
Q 3706 1856 3706 1288 
Q 3706 609 3251 259 
Q 2797 -91 1919 -91 
Q 1588 -91 1214 -16 
Q 841 59 441 206 
L 441 856 
Q 825 641 1194 531 
Q 1563 422 1919 422 
Q 2459 422 2753 634 
Q 3047 847 3047 1241 
Q 3047 1584 2836 1778 
Q 2625 1972 2144 2069 
L 1759 2144 
Q 1053 2284 737 2584 
Q 422 2884 422 3419 
Q 422 4038 858 4394 
Q 1294 4750 2059 4750 
Q 2388 4750 2728 4690 
Q 3069 4631 3425 4513 
z
" transform="scale(0.015625)"/>
      <path id="DejaVuSans-57" d="M 213 4666 
L 850 4666 
L 1831 722 
L 2809 4666 
L 3519 4666 
L 4500 722 
L 5478 4666 
L 6119 4666 
L 4947 0 
L 4153 0 
L 3169 4050 
L 2175 0 
L 1381 0 
L 213 4666 
z
" transform="scale(0.015625)"/>
     </defs>
     <use xlink:href="#DejaVuSans-53"/>
     <use xlink:href="#DejaVuSans-57" x="63.476562"/>
     <use xlink:href="#DejaVuSans-45" x="162.353516"/>
    </g>
   </g>
   <g id="text_10">
    <!-- FIN -->
    <g transform="translate(552.19537 238.141542) scale(0.06 -0.06)">
     <use xlink:href="#DejaVuSans-46"/>
     <use xlink:href="#DejaVuSans-49" x="57.519531"/>
     <use xlink:href="#DejaVuSans-4e" x="87.011719"/>
    </g>
   </g>
   <g id="text_11">
    <!-- ESP -->
    <g transform="translate(426.359208 389.907439) scale(0.06 -0.06)">
     <use xlink:href="#DejaVuSans-45"/>
     <use xlink:href="#DejaVuSans-53" x="63.183594"/>
     <use xlink:href="#DejaVuSans-50" x="126.660156"/>
    </g>
   </g>
   <g id="text_12">
    <!-- MMR -->
    <g transform="translate(647.194558 783.063993) scale(0.06 -0.06)">
     <defs>
      <path id="DejaVuSans-4d" d="M 628 4666 
L 1569 4666 
L 2759 1491 
L 3956 4666 
L 4897 4666 
L 4897 0 
L 4281 0 
L 4281 4097 
L 3078 897 
L 2444 897 
L 1241 4097 
L 1241 0 
L 628 0 
L 628 4666 
z
" transform="scale(0.015625)"/>
     </defs>
     <use xlink:href="#DejaVuSans-4d"/>
     <use xlink:href="#DejaVuSans-4d" x="86.279297"/>
     <use xlink:href="#DejaVuSans-52" x="172.558594"/>
    </g>
   </g>
   <g id="text_13">
    <!-- NPL -->
    <g transform="translate(501.567314 526.441353) scale(0.06 -0.06)">
     <use xlink:href="#DejaVuSans-4e"/>
     <use xlink:href="#DejaVuSans-50" x="74.804688"/>
     <use xlink:href="#DejaVuSans-4c" x="135.107422"/>
    </g>
   </g>
   <g id="text_14">
    <!-- DNK -->
    <g transform="translate(484.586195 317.509205) scale(0.06 -0.06)">
     <use xlink:href="#DejaVuSans-44"/>
     <use xlink:href="#DejaVuSans-4e" x="77.001953"/>
     <use xlink:href="#DejaVuSans-4b" x="151.806641"/>
    </g>
   </g>
   <g id="text_15">
    <!-- BEL -->
    <g transform="translate(447.929447 349.694543) scale(0.06 -0.06)">
     <use xlink:href="#DejaVuSans-42"/>
     <use xlink:href="#DejaVuSans-45" x="68.603516"/>
     <use xlink:href="#DejaVuSans-4c" x="131.787109"/>
    </g>
   </g>
   <g id="text_16">
    <!-- BGD -->
    <g transform="translate(606.175372 734.971507) scale(0.06 -0.06)">
     <defs>
      <path id="DejaVuSans-47" d="M 3809 666 
L 3809 1919 
L 2778 1919 
L 2778 2438 
L 4434 2438 
L 4434 434 
Q 4069 175 3628 42 
Q 3188 -91 2688 -91 
Q 1594 -91 976 548 
Q 359 1188 359 2328 
Q 359 3472 976 4111 
Q 1594 4750 2688 4750 
Q 3144 4750 3555 4637 
Q 3966 4525 4313 4306 
L 4313 3634 
Q 3963 3931 3569 4081 
Q 3175 4231 2741 4231 
Q 1884 4231 1454 3753 
Q 1025 3275 1025 2328 
Q 1025 1384 1454 906 
Q 1884 428 2741 428 
Q 3075 428 3337 486 
Q 3600 544 3809 666 
z
" transform="scale(0.015625)"/>
     </defs>
     <use xlink:href="#DejaVuSans-42"/>
     <use xlink:href="#DejaVuSans-47" x="66.853516"/>
     <use xlink:href="#DejaVuSans-44" x="144.34375"/>
    </g>
   </g>
   <g id="text_17">
    <!-- CZE -->
    <g transform="translate(509.184827 369.418407) scale(0.06 -0.06)">
     <use xlink:href="#DejaVuSans-43"/>
     <use xlink:href="#DejaVuSans-5a" x="69.824219"/>
     <use xlink:href="#DejaVuSans-45" x="138.330078"/>
    </g>
   </g>
   <g id="text_18">
    <!-- IRN -->
    <g transform="translate(485.531735 598.473555) scale(0.06 -0.06)">
     <use xlink:href="#DejaVuSans-49"/>
     <use xlink:href="#DejaVuSans-52" x="29.492188"/>
     <use xlink:href="#DejaVuSans-4e" x="98.974609"/>
    </g>
   </g>
   <g id="text_19">
    <!-- RUS -->
    <g transform="translate(597.807522 286.092931) scale(0.06 -0.06)">
     <use xlink:href="#DejaVuSans-52"/>
     <use xlink:href="#DejaVuSans-55" x="69.482422"/>
     <use xlink:href="#DejaVuSans-53" x="142.675781"/>
    </g>
   </g>
   <g id="text_20">
    <!-- MYS -->
    <g transform="translate(809.011888 930.594676) scale(0.06 -0.06)">
     <defs>
      <path id="DejaVuSans-59" d="M -13 4666 
L 666 4666 
L 1959 2747 
L 3244 4666 
L 3922 4666 
L 2272 2222 
L 2272 0 
L 1638 0 
L 1638 2222 
L -13 4666 
z
" transform="scale(0.015625)"/>
     </defs>
     <use xlink:href="#DejaVuSans-4d"/>
     <use xlink:href="#DejaVuSans-59" x="86.279297"/>
     <use xlink:href="#DejaVuSans-53" x="147.363281"/>
    </g>
   </g>
   <g id="text_21">
    <!-- POL -->
    <g transform="translate(529.821001 339.439393) scale(0.06 -0.06)">
     <defs>
      <path id="DejaVuSans-4f" d="M 2522 4238 
Q 1834 4238 1429 3725 
Q 1025 3213 1025 2328 
Q 1025 1447 1429 934 
Q 1834 422 2522 422 
Q 3209 422 3611 934 
Q 4013 1447 4013 2328 
Q 4013 3213 3611 3725 
Q 3209 4238 2522 4238 
z
M 2522 4750 
Q 3503 4750 4090 4092 
Q 4678 3434 4678 2328 
Q 4678 1225 4090 567 
Q 3503 -91 2522 -91 
Q 1538 -91 948 565 
Q 359 1222 359 2328 
Q 359 3434 948 4092 
Q 1538 4750 2522 4750 
z
" transform="scale(0.015625)"/>
     </defs>
     <use xlink:href="#DejaVuSans-50"/>
     <use xlink:href="#DejaVuSans-4f" x="60.302734"/>
     <use xlink:href="#DejaVuSans-4c" x="139.013672"/>
    </g>
   </g>
   <g id="text_22">
    <!-- IND -->
    <g transform="translate(466.746938 726.61983) scale(0.06 -0.06)">
     <use xlink:href="#DejaVuSans-49"/>
     <use xlink:href="#DejaVuSans-4e" x="29.492188"/>
     <use xlink:href="#DejaVuSans-44" x="104.296875"/>
    </g>
   </g>
   <g id="text_23">
    <!-- KHM -->
    <g transform="translate(748.145189 978.985491) scale(0.06 -0.06)">
     <use xlink:href="#DejaVuSans-4b"/>
     <use xlink:href="#DejaVuSans-48" x="65.576172"/>
     <use xlink:href="#DejaVuSans-4d" x="140.771484"/>
    </g>
   </g>
   <g id="text_24">
    <!-- IDN -->
    <g transform="translate(956.136005 1076.949024) scale(0.06 -0.06)">
     <use xlink:href="#DejaVuSans-49"/>
     <use xlink:href="#DejaVuSans-44" x="29.492188"/>
     <use xlink:href="#DejaVuSans-4e" x="106.494141"/>
    </g>
   </g>
   <g id="text_25">
    <!-- CHE -->
    <g transform="translate(462.810506 378.025019) scale(0.06 -0.06)">
     <use xlink:href="#DejaVuSans-43"/>
     <use xlink:href="#DejaVuSans-48" x="69.824219"/>
     <use xlink:href="#DejaVuSans-45" x="145.019531"/>
    </g>
   </g>
   <g id="text_26">
    <!-- TUR -->
    <g transform="translate(448.943906 586.415992) scale(0.06 -0.06)">
     <use xlink:href="#DejaVuSans-54"/>
     <use xlink:href="#DejaVuSans-55" x="61.083984"/>
     <use xlink:href="#DejaVuSans-52" x="134.277344"/>
    </g>
   </g>
   <g id="text_27">
    <!-- KAZ -->
    <g transform="translate(575.926344 369.251068) scale(0.06 -0.06)">
     <use xlink:href="#DejaVuSans-4b"/>
     <use xlink:href="#DejaVuSans-41" x="63.826172"/>
     <use xlink:href="#DejaVuSans-5a" x="132.234375"/>
    </g>
   </g>
   <g id="text_28">
    <!-- A:11.39 -->
    <g transform="translate(542.500999 729.140043) scale(0.04 -0.04)">
     <defs>
      <path id="DejaVuSans-3a" d="M 750 794 
L 1409 794 
L 1409 0 
L 750 0 
L 750 794 
z
M 750 3309 
L 1409 3309 
L 1409 2516 
L 750 2516 
L 750 3309 
z
" transform="scale(0.015625)"/>
      <path id="DejaVuSans-31" d="M 794 531 
L 1825 531 
L 1825 4091 
L 703 3866 
L 703 4441 
L 1819 4666 
L 2450 4666 
L 2450 531 
L 3481 531 
L 3481 0 
L 794 0 
L 794 531 
z
" transform="scale(0.015625)"/>
      <path id="DejaVuSans-2e" d="M 684 794 
L 1344 794 
L 1344 0 
L 684 0 
L 684 794 
z
" transform="scale(0.015625)"/>
      <path id="DejaVuSans-33" d="M 2597 2516 
Q 3050 2419 3304 2112 
Q 3559 1806 3559 1356 
Q 3559 666 3084 287 
Q 2609 -91 1734 -91 
Q 1441 -91 1130 -33 
Q 819 25 488 141 
L 488 750 
Q 750 597 1062 519 
Q 1375 441 1716 441 
Q 2309 441 2620 675 
Q 2931 909 2931 1356 
Q 2931 1769 2642 2001 
Q 2353 2234 1838 2234 
L 1294 2234 
L 1294 2753 
L 1863 2753 
Q 2328 2753 2575 2939 
Q 2822 3125 2822 3475 
Q 2822 3834 2567 4026 
Q 2313 4219 1838 4219 
Q 1578 4219 1281 4162 
Q 984 4106 628 3988 
L 628 4550 
Q 988 4650 1302 4700 
Q 1616 4750 1894 4750 
Q 2613 4750 3031 4423 
Q 3450 4097 3450 3541 
Q 3450 3153 3228 2886 
Q 3006 2619 2597 2516 
z
" transform="scale(0.015625)"/>
      <path id="DejaVuSans-39" d="M 703 97 
L 703 672 
Q 941 559 1184 500 
Q 1428 441 1663 441 
Q 2288 441 2617 861 
Q 2947 1281 2994 2138 
Q 2813 1869 2534 1725 
Q 2256 1581 1919 1581 
Q 1219 1581 811 2004 
Q 403 2428 403 3163 
Q 403 3881 828 4315 
Q 1253 4750 1959 4750 
Q 2769 4750 3195 4129 
Q 3622 3509 3622 2328 
Q 3622 1225 3098 567 
Q 2575 -91 1691 -91 
Q 1453 -91 1209 -44 
Q 966 3 703 97 
z
M 1959 2075 
Q 2384 2075 2632 2365 
Q 2881 2656 2881 3163 
Q 2881 3666 2632 3958 
Q 2384 4250 1959 4250 
Q 1534 4250 1286 3958 
Q 1038 3666 1038 3163 
Q 1038 2656 1286 2365 
Q 1534 2075 1959 2075 
z
" transform="scale(0.015625)"/>
     </defs>
     <use xlink:href="#DejaVuSans-41"/>
     <use xlink:href="#DejaVuSans-3a" x="66.658203"/>
     <use xlink:href="#DejaVuSans-31" x="100.349609"/>
     <use xlink:href="#DejaVuSans-31" x="163.972656"/>
     <use xlink:href="#DejaVuSans-2e" x="227.595703"/>
     <use xlink:href="#DejaVuSans-33" x="259.382812"/>
     <use xlink:href="#DejaVuSans-39" x="323.005859"/>
    </g>
   </g>
   <g id="text_29">
    <!-- A:19.49 -->
    <g transform="translate(633.635825 757.362125) scale(0.04 -0.04)">
     <defs>
      <path id="DejaVuSans-34" d="M 2419 4116 
L 825 1625 
L 2419 1625 
L 2419 4116 
z
M 2253 4666 
L 3047 4666 
L 3047 1625 
L 3713 1625 
L 3713 1100 
L 3047 1100 
L 3047 0 
L 2419 0 
L 2419 1100 
L 313 1100 
L 313 1709 
L 2253 4666 
z
" transform="scale(0.015625)"/>
     </defs>
     <use xlink:href="#DejaVuSans-41"/>
     <use xlink:href="#DejaVuSans-3a" x="66.658203"/>
     <use xlink:href="#DejaVuSans-31" x="100.349609"/>
     <use xlink:href="#DejaVuSans-39" x="163.972656"/>
     <use xlink:href="#DejaVuSans-2e" x="227.595703"/>
     <use xlink:href="#DejaVuSans-34" x="259.382812"/>
     <use xlink:href="#DejaVuSans-39" x="323.005859"/>
    </g>
   </g>
   <g id="text_30">
    <!-- D:13.05 -->
    <g transform="translate(452.00646 354.491402) scale(0.04 -0.04)">
     <defs>
      <path id="DejaVuSans-30" d="M 2034 4250 
Q 1547 4250 1301 3770 
Q 1056 3291 1056 2328 
Q 1056 1369 1301 889 
Q 1547 409 2034 409 
Q 2525 409 2770 889 
Q 3016 1369 3016 2328 
Q 3016 3291 2770 3770 
Q 2525 4250 2034 4250 
z
M 2034 4750 
Q 2819 4750 3233 4129 
Q 3647 3509 3647 2328 
Q 3647 1150 3233 529 
Q 2819 -91 2034 -91 
Q 1250 -91 836 529 
Q 422 1150 422 2328 
Q 422 3509 836 4129 
Q 1250 4750 2034 4750 
z
" transform="scale(0.015625)"/>
      <path id="DejaVuSans-35" d="M 691 4666 
L 3169 4666 
L 3169 4134 
L 1269 4134 
L 1269 2991 
Q 1406 3038 1543 3061 
Q 1681 3084 1819 3084 
Q 2600 3084 3056 2656 
Q 3513 2228 3513 1497 
Q 3513 744 3044 326 
Q 2575 -91 1722 -91 
Q 1428 -91 1123 -41 
Q 819 9 494 109 
L 494 744 
Q 775 591 1075 516 
Q 1375 441 1709 441 
Q 2250 441 2565 725 
Q 2881 1009 2881 1497 
Q 2881 1984 2565 2268 
Q 2250 2553 1709 2553 
Q 1456 2553 1204 2497 
Q 953 2441 691 2322 
L 691 4666 
z
" transform="scale(0.015625)"/>
     </defs>
     <use xlink:href="#DejaVuSans-44"/>
     <use xlink:href="#DejaVuSans-3a" x="77.001953"/>
     <use xlink:href="#DejaVuSans-31" x="110.693359"/>
     <use xlink:href="#DejaVuSans-33" x="174.316406"/>
     <use xlink:href="#DejaVuSans-2e" x="237.939453"/>
     <use xlink:href="#DejaVuSans-30" x="269.726562"/>
     <use xlink:href="#DejaVuSans-35" x="333.349609"/>
    </g>
    <!-- A:8.09 -->
    <g transform="translate(452.00646 358.970527) scale(0.04 -0.04)">
     <defs>
      <path id="DejaVuSans-38" d="M 2034 2216 
Q 1584 2216 1326 1975 
Q 1069 1734 1069 1313 
Q 1069 891 1326 650 
Q 1584 409 2034 409 
Q 2484 409 2743 651 
Q 3003 894 3003 1313 
Q 3003 1734 2745 1975 
Q 2488 2216 2034 2216 
z
M 1403 2484 
Q 997 2584 770 2862 
Q 544 3141 544 3541 
Q 544 4100 942 4425 
Q 1341 4750 2034 4750 
Q 2731 4750 3128 4425 
Q 3525 4100 3525 3541 
Q 3525 3141 3298 2862 
Q 3072 2584 2669 2484 
Q 3125 2378 3379 2068 
Q 3634 1759 3634 1313 
Q 3634 634 3220 271 
Q 2806 -91 2034 -91 
Q 1263 -91 848 271 
Q 434 634 434 1313 
Q 434 1759 690 2068 
Q 947 2378 1403 2484 
z
M 1172 3481 
Q 1172 3119 1398 2916 
Q 1625 2713 2034 2713 
Q 2441 2713 2670 2916 
Q 2900 3119 2900 3481 
Q 2900 3844 2670 4047 
Q 2441 4250 2034 4250 
Q 1625 4250 1398 4047 
Q 1172 3844 1172 3481 
z
" transform="scale(0.015625)"/>
     </defs>
     <use xlink:href="#DejaVuSans-41"/>
     <use xlink:href="#DejaVuSans-3a" x="66.658203"/>
     <use xlink:href="#DejaVuSans-38" x="100.349609"/>
     <use xlink:href="#DejaVuSans-2e" x="163.972656"/>
     <use xlink:href="#DejaVuSans-30" x="195.759766"/>
     <use xlink:href="#DejaVuSans-39" x="259.382812"/>
    </g>
   </g>
   <g id="text_31">
    <!-- A:8.09 -->
    <g transform="translate(452.00646 358.970527) scale(0.04 -0.04)">
     <use xlink:href="#DejaVuSans-41"/>
     <use xlink:href="#DejaVuSans-3a" x="66.658203"/>
     <use xlink:href="#DejaVuSans-38" x="100.349609"/>
     <use xlink:href="#DejaVuSans-2e" x="163.972656"/>
     <use xlink:href="#DejaVuSans-30" x="195.759766"/>
     <use xlink:href="#DejaVuSans-39" x="259.382812"/>
    </g>
   </g>
   <g id="text_32">
    <!-- A:0.12 -->
    <g transform="translate(469.350358 347.468359) scale(0.04 -0.04)">
     <defs>
      <path id="DejaVuSans-32" d="M 1228 531 
L 3431 531 
L 3431 0 
L 469 0 
L 469 531 
Q 828 903 1448 1529 
Q 2069 2156 2228 2338 
Q 2531 2678 2651 2914 
Q 2772 3150 2772 3378 
Q 2772 3750 2511 3984 
Q 2250 4219 1831 4219 
Q 1534 4219 1204 4116 
Q 875 4013 500 3803 
L 500 4441 
Q 881 4594 1212 4672 
Q 1544 4750 1819 4750 
Q 2544 4750 2975 4387 
Q 3406 4025 3406 3419 
Q 3406 3131 3298 2873 
Q 3191 2616 2906 2266 
Q 2828 2175 2409 1742 
Q 1991 1309 1228 531 
z
" transform="scale(0.015625)"/>
     </defs>
     <use xlink:href="#DejaVuSans-41"/>
     <use xlink:href="#DejaVuSans-3a" x="66.658203"/>
     <use xlink:href="#DejaVuSans-30" x="100.349609"/>
     <use xlink:href="#DejaVuSans-2e" x="163.972656"/>
     <use xlink:href="#DejaVuSans-31" x="195.759766"/>
     <use xlink:href="#DejaVuSans-32" x="259.382812"/>
    </g>
   </g>
   <g id="text_33">
    <!-- D:0.01 -->
    <g transform="translate(453.040268 335.599546) scale(0.04 -0.04)">
     <use xlink:href="#DejaVuSans-44"/>
     <use xlink:href="#DejaVuSans-3a" x="77.001953"/>
     <use xlink:href="#DejaVuSans-30" x="110.693359"/>
     <use xlink:href="#DejaVuSans-2e" x="174.316406"/>
     <use xlink:href="#DejaVuSans-30" x="206.103516"/>
     <use xlink:href="#DejaVuSans-31" x="269.726562"/>
    </g>
    <!-- A:27.96 -->
    <g transform="translate(453.040268 340.078671) scale(0.04 -0.04)">
     <defs>
      <path id="DejaVuSans-37" d="M 525 4666 
L 3525 4666 
L 3525 4397 
L 1831 0 
L 1172 0 
L 2766 4134 
L 525 4134 
L 525 4666 
z
" transform="scale(0.015625)"/>
      <path id="DejaVuSans-36" d="M 2113 2584 
Q 1688 2584 1439 2293 
Q 1191 2003 1191 1497 
Q 1191 994 1439 701 
Q 1688 409 2113 409 
Q 2538 409 2786 701 
Q 3034 994 3034 1497 
Q 3034 2003 2786 2293 
Q 2538 2584 2113 2584 
z
M 3366 4563 
L 3366 3988 
Q 3128 4100 2886 4159 
Q 2644 4219 2406 4219 
Q 1781 4219 1451 3797 
Q 1122 3375 1075 2522 
Q 1259 2794 1537 2939 
Q 1816 3084 2150 3084 
Q 2853 3084 3261 2657 
Q 3669 2231 3669 1497 
Q 3669 778 3244 343 
Q 2819 -91 2113 -91 
Q 1303 -91 875 529 
Q 447 1150 447 2328 
Q 447 3434 972 4092 
Q 1497 4750 2381 4750 
Q 2619 4750 2861 4703 
Q 3103 4656 3366 4563 
z
" transform="scale(0.015625)"/>
     </defs>
     <use xlink:href="#DejaVuSans-41"/>
     <use xlink:href="#DejaVuSans-3a" x="66.658203"/>
     <use xlink:href="#DejaVuSans-32" x="100.349609"/>
     <use xlink:href="#DejaVuSans-37" x="163.972656"/>
     <use xlink:href="#DejaVuSans-2e" x="227.595703"/>
     <use xlink:href="#DejaVuSans-39" x="259.382812"/>
     <use xlink:href="#DejaVuSans-36" x="323.005859"/>
    </g>
   </g>
   <g id="text_34">
    <!-- A:27.96 -->
    <g transform="translate(453.040268 340.078671) scale(0.04 -0.04)">
     <use xlink:href="#DejaVuSans-41"/>
     <use xlink:href="#DejaVuSans-3a" x="66.658203"/>
     <use xlink:href="#DejaVuSans-32" x="100.349609"/>
     <use xlink:href="#DejaVuSans-37" x="163.972656"/>
     <use xlink:href="#DejaVuSans-2e" x="227.595703"/>
     <use xlink:href="#DejaVuSans-39" x="259.382812"/>
     <use xlink:href="#DejaVuSans-36" x="323.005859"/>
    </g>
   </g>
   <g id="text_35">
    <!-- D:0.82 -->
    <g transform="translate(459.757537 368.65664) scale(0.04 -0.04)">
     <use xlink:href="#DejaVuSans-44"/>
     <use xlink:href="#DejaVuSans-3a" x="77.001953"/>
     <use xlink:href="#DejaVuSans-30" x="110.693359"/>
     <use xlink:href="#DejaVuSans-2e" x="174.316406"/>
     <use xlink:href="#DejaVuSans-38" x="206.103516"/>
     <use xlink:href="#DejaVuSans-32" x="269.726562"/>
    </g>
    <!-- A:15.91 -->
    <g transform="translate(459.757537 373.135765) scale(0.04 -0.04)">
     <use xlink:href="#DejaVuSans-41"/>
     <use xlink:href="#DejaVuSans-3a" x="66.658203"/>
     <use xlink:href="#DejaVuSans-31" x="100.349609"/>
     <use xlink:href="#DejaVuSans-35" x="163.972656"/>
     <use xlink:href="#DejaVuSans-2e" x="227.595703"/>
     <use xlink:href="#DejaVuSans-39" x="259.382812"/>
     <use xlink:href="#DejaVuSans-31" x="323.005859"/>
    </g>
   </g>
   <g id="text_36">
    <!-- A:15.91 -->
    <g transform="translate(459.757537 373.135765) scale(0.04 -0.04)">
     <use xlink:href="#DejaVuSans-41"/>
     <use xlink:href="#DejaVuSans-3a" x="66.658203"/>
     <use xlink:href="#DejaVuSans-31" x="100.349609"/>
     <use xlink:href="#DejaVuSans-35" x="163.972656"/>
     <use xlink:href="#DejaVuSans-2e" x="227.595703"/>
     <use xlink:href="#DejaVuSans-39" x="259.382812"/>
     <use xlink:href="#DejaVuSans-31" x="323.005859"/>
    </g>
   </g>
   <g id="text_37">
    <!-- D:6.18 -->
    <g transform="translate(477.101434 357.154472) scale(0.04 -0.04)">
     <use xlink:href="#DejaVuSans-44"/>
     <use xlink:href="#DejaVuSans-3a" x="77.001953"/>
     <use xlink:href="#DejaVuSans-36" x="110.693359"/>
     <use xlink:href="#DejaVuSans-2e" x="174.316406"/>
     <use xlink:href="#DejaVuSans-31" x="206.103516"/>
     <use xlink:href="#DejaVuSans-38" x="269.726562"/>
    </g>
    <!-- A:8.11 -->
    <g transform="translate(477.101434 361.633597) scale(0.04 -0.04)">
     <use xlink:href="#DejaVuSans-41"/>
     <use xlink:href="#DejaVuSans-3a" x="66.658203"/>
     <use xlink:href="#DejaVuSans-38" x="100.349609"/>
     <use xlink:href="#DejaVuSans-2e" x="163.972656"/>
     <use xlink:href="#DejaVuSans-31" x="195.759766"/>
     <use xlink:href="#DejaVuSans-31" x="259.382812"/>
    </g>
   </g>
   <g id="text_38">
    <!-- A:8.11 -->
    <g transform="translate(477.101434 361.633597) scale(0.04 -0.04)">
     <use xlink:href="#DejaVuSans-41"/>
     <use xlink:href="#DejaVuSans-3a" x="66.658203"/>
     <use xlink:href="#DejaVuSans-38" x="100.349609"/>
     <use xlink:href="#DejaVuSans-2e" x="163.972656"/>
     <use xlink:href="#DejaVuSans-31" x="195.759766"/>
     <use xlink:href="#DejaVuSans-31" x="259.382812"/>
    </g>
   </g>
   <g id="text_39">
    <!-- D:0.03 -->
    <g transform="translate(473.877655 377.034725) scale(0.04 -0.04)">
     <use xlink:href="#DejaVuSans-44"/>
     <use xlink:href="#DejaVuSans-3a" x="77.001953"/>
     <use xlink:href="#DejaVuSans-30" x="110.693359"/>
     <use xlink:href="#DejaVuSans-2e" x="174.316406"/>
     <use xlink:href="#DejaVuSans-30" x="206.103516"/>
     <use xlink:href="#DejaVuSans-33" x="269.726562"/>
    </g>
    <!-- A:3.15 -->
    <g transform="translate(473.877655 381.51385) scale(0.04 -0.04)">
     <use xlink:href="#DejaVuSans-41"/>
     <use xlink:href="#DejaVuSans-3a" x="66.658203"/>
     <use xlink:href="#DejaVuSans-33" x="100.349609"/>
     <use xlink:href="#DejaVuSans-2e" x="163.972656"/>
     <use xlink:href="#DejaVuSans-31" x="195.759766"/>
     <use xlink:href="#DejaVuSans-35" x="259.382812"/>
    </g>
   </g>
   <g id="text_40">
    <!-- A:3.15 -->
    <g transform="translate(473.877655 381.51385) scale(0.04 -0.04)">
     <use xlink:href="#DejaVuSans-41"/>
     <use xlink:href="#DejaVuSans-3a" x="66.658203"/>
     <use xlink:href="#DejaVuSans-33" x="100.349609"/>
     <use xlink:href="#DejaVuSans-2e" x="163.972656"/>
     <use xlink:href="#DejaVuSans-31" x="195.759766"/>
     <use xlink:href="#DejaVuSans-35" x="259.382812"/>
    </g>
   </g>
   <g id="text_41">
    <!-- D:6.17 -->
    <g transform="translate(654.824187 622.045642) scale(0.04 -0.04)">
     <use xlink:href="#DejaVuSans-44"/>
     <use xlink:href="#DejaVuSans-3a" x="77.001953"/>
     <use xlink:href="#DejaVuSans-36" x="110.693359"/>
     <use xlink:href="#DejaVuSans-2e" x="174.316406"/>
     <use xlink:href="#DejaVuSans-31" x="206.103516"/>
     <use xlink:href="#DejaVuSans-37" x="269.726562"/>
    </g>
    <!-- A:0.08 -->
    <g transform="translate(654.824187 626.524767) scale(0.04 -0.04)">
     <use xlink:href="#DejaVuSans-41"/>
     <use xlink:href="#DejaVuSans-3a" x="66.658203"/>
     <use xlink:href="#DejaVuSans-30" x="100.349609"/>
     <use xlink:href="#DejaVuSans-2e" x="163.972656"/>
     <use xlink:href="#DejaVuSans-30" x="195.759766"/>
     <use xlink:href="#DejaVuSans-38" x="259.382812"/>
    </g>
   </g>
   <g id="text_42">
    <!-- A:0.08 -->
    <g transform="translate(654.824187 626.524767) scale(0.04 -0.04)">
     <use xlink:href="#DejaVuSans-41"/>
     <use xlink:href="#DejaVuSans-3a" x="66.658203"/>
     <use xlink:href="#DejaVuSans-30" x="100.349609"/>
     <use xlink:href="#DejaVuSans-2e" x="163.972656"/>
     <use xlink:href="#DejaVuSans-30" x="195.759766"/>
     <use xlink:href="#DejaVuSans-38" x="259.382812"/>
    </g>
   </g>
   <g id="text_43">
    <!-- A:7.10 -->
    <g transform="translate(709.705218 447.840387) scale(0.04 -0.04)">
     <use xlink:href="#DejaVuSans-41"/>
     <use xlink:href="#DejaVuSans-3a" x="66.658203"/>
     <use xlink:href="#DejaVuSans-37" x="100.349609"/>
     <use xlink:href="#DejaVuSans-2e" x="163.972656"/>
     <use xlink:href="#DejaVuSans-31" x="195.759766"/>
     <use xlink:href="#DejaVuSans-30" x="259.382812"/>
    </g>
   </g>
   <g id="text_44">
    <!-- A:4.19 -->
    <g transform="translate(745.959012 654.746849) scale(0.04 -0.04)">
     <use xlink:href="#DejaVuSans-41"/>
     <use xlink:href="#DejaVuSans-3a" x="66.658203"/>
     <use xlink:href="#DejaVuSans-34" x="100.349609"/>
     <use xlink:href="#DejaVuSans-2e" x="163.972656"/>
     <use xlink:href="#DejaVuSans-31" x="195.759766"/>
     <use xlink:href="#DejaVuSans-39" x="259.382812"/>
    </g>
   </g>
   <g id="text_45">
    <!-- A:10.56 -->
    <g transform="translate(672.377109 526.435529) scale(0.04 -0.04)">
     <use xlink:href="#DejaVuSans-41"/>
     <use xlink:href="#DejaVuSans-3a" x="66.658203"/>
     <use xlink:href="#DejaVuSans-31" x="100.349609"/>
     <use xlink:href="#DejaVuSans-30" x="163.972656"/>
     <use xlink:href="#DejaVuSans-2e" x="227.595703"/>
     <use xlink:href="#DejaVuSans-35" x="259.382812"/>
     <use xlink:href="#DejaVuSans-36" x="323.005859"/>
    </g>
   </g>
   <g id="text_46">
    <!-- D:8.93 -->
    <g transform="translate(679.579598 559.785) scale(0.04 -0.04)">
     <use xlink:href="#DejaVuSans-44"/>
     <use xlink:href="#DejaVuSans-3a" x="77.001953"/>
     <use xlink:href="#DejaVuSans-38" x="110.693359"/>
     <use xlink:href="#DejaVuSans-2e" x="174.316406"/>
     <use xlink:href="#DejaVuSans-39" x="206.103516"/>
     <use xlink:href="#DejaVuSans-33" x="269.726562"/>
    </g>
    <!-- A:2.65 -->
    <g transform="translate(679.579598 564.264125) scale(0.04 -0.04)">
     <use xlink:href="#DejaVuSans-41"/>
     <use xlink:href="#DejaVuSans-3a" x="66.658203"/>
     <use xlink:href="#DejaVuSans-32" x="100.349609"/>
     <use xlink:href="#DejaVuSans-2e" x="163.972656"/>
     <use xlink:href="#DejaVuSans-36" x="195.759766"/>
     <use xlink:href="#DejaVuSans-35" x="259.382812"/>
    </g>
   </g>
   <g id="text_47">
    <!-- A:2.65 -->
    <g transform="translate(679.579598 564.264125) scale(0.04 -0.04)">
     <use xlink:href="#DejaVuSans-41"/>
     <use xlink:href="#DejaVuSans-3a" x="66.658203"/>
     <use xlink:href="#DejaVuSans-32" x="100.349609"/>
     <use xlink:href="#DejaVuSans-2e" x="163.972656"/>
     <use xlink:href="#DejaVuSans-36" x="195.759766"/>
     <use xlink:href="#DejaVuSans-35" x="259.382812"/>
    </g>
   </g>
   <g id="text_48">
    <!-- A:18.04 -->
    <g transform="translate(720.727135 406.261318) scale(0.04 -0.04)">
     <use xlink:href="#DejaVuSans-41"/>
     <use xlink:href="#DejaVuSans-3a" x="66.658203"/>
     <use xlink:href="#DejaVuSans-31" x="100.349609"/>
     <use xlink:href="#DejaVuSans-38" x="163.972656"/>
     <use xlink:href="#DejaVuSans-2e" x="227.595703"/>
     <use xlink:href="#DejaVuSans-30" x="259.382812"/>
     <use xlink:href="#DejaVuSans-34" x="323.005859"/>
    </g>
   </g>
   <g id="text_49">
    <!-- A:13.49 -->
    <g transform="translate(500.188048 357.330291) scale(0.04 -0.04)">
     <use xlink:href="#DejaVuSans-41"/>
     <use xlink:href="#DejaVuSans-3a" x="66.658203"/>
     <use xlink:href="#DejaVuSans-31" x="100.349609"/>
     <use xlink:href="#DejaVuSans-33" x="163.972656"/>
     <use xlink:href="#DejaVuSans-2e" x="227.595703"/>
     <use xlink:href="#DejaVuSans-34" x="259.382812"/>
     <use xlink:href="#DejaVuSans-39" x="323.005859"/>
    </g>
   </g>
   <g id="text_50">
    <!-- A:16.48 -->
    <g transform="translate(525.446664 352.773275) scale(0.04 -0.04)">
     <use xlink:href="#DejaVuSans-41"/>
     <use xlink:href="#DejaVuSans-3a" x="66.658203"/>
     <use xlink:href="#DejaVuSans-31" x="100.349609"/>
     <use xlink:href="#DejaVuSans-36" x="163.972656"/>
     <use xlink:href="#DejaVuSans-2e" x="227.595703"/>
     <use xlink:href="#DejaVuSans-34" x="259.382812"/>
     <use xlink:href="#DejaVuSans-38" x="323.005859"/>
    </g>
   </g>
   <g id="text_51">
    <!-- A:0.24 -->
    <g transform="translate(488.126857 331.37569) scale(0.04 -0.04)">
     <use xlink:href="#DejaVuSans-41"/>
     <use xlink:href="#DejaVuSans-3a" x="66.658203"/>
     <use xlink:href="#DejaVuSans-30" x="100.349609"/>
     <use xlink:href="#DejaVuSans-2e" x="163.972656"/>
     <use xlink:href="#DejaVuSans-32" x="195.759766"/>
     <use xlink:href="#DejaVuSans-34" x="259.382812"/>
    </g>
   </g>
   <g id="text_52">
    <!-- D:5.44 -->
    <g transform="translate(467.801902 353.920843) scale(0.04 -0.04)">
     <use xlink:href="#DejaVuSans-44"/>
     <use xlink:href="#DejaVuSans-3a" x="77.001953"/>
     <use xlink:href="#DejaVuSans-35" x="110.693359"/>
     <use xlink:href="#DejaVuSans-2e" x="174.316406"/>
     <use xlink:href="#DejaVuSans-34" x="206.103516"/>
     <use xlink:href="#DejaVuSans-34" x="269.726562"/>
    </g>
    <!-- A:1.10 -->
    <g transform="translate(467.801902 358.399968) scale(0.04 -0.04)">
     <use xlink:href="#DejaVuSans-41"/>
     <use xlink:href="#DejaVuSans-3a" x="66.658203"/>
     <use xlink:href="#DejaVuSans-31" x="100.349609"/>
     <use xlink:href="#DejaVuSans-2e" x="163.972656"/>
     <use xlink:href="#DejaVuSans-31" x="195.759766"/>
     <use xlink:href="#DejaVuSans-30" x="259.382812"/>
    </g>
   </g>
   <g id="text_53">
    <!-- A:1.10 -->
    <g transform="translate(467.801902 358.399968) scale(0.04 -0.04)">
     <use xlink:href="#DejaVuSans-41"/>
     <use xlink:href="#DejaVuSans-3a" x="66.658203"/>
     <use xlink:href="#DejaVuSans-31" x="100.349609"/>
     <use xlink:href="#DejaVuSans-2e" x="163.972656"/>
     <use xlink:href="#DejaVuSans-31" x="195.759766"/>
     <use xlink:href="#DejaVuSans-30" x="259.382812"/>
    </g>
   </g>
   <g id="text_54">
    <!-- A:0.41 -->
    <g transform="translate(468.83571 339.508112) scale(0.04 -0.04)">
     <use xlink:href="#DejaVuSans-41"/>
     <use xlink:href="#DejaVuSans-3a" x="66.658203"/>
     <use xlink:href="#DejaVuSans-30" x="100.349609"/>
     <use xlink:href="#DejaVuSans-2e" x="163.972656"/>
     <use xlink:href="#DejaVuSans-34" x="195.759766"/>
     <use xlink:href="#DejaVuSans-31" x="259.382812"/>
    </g>
   </g>
   <g id="text_55">
    <!-- D:0.19 -->
    <g transform="translate(510.404416 337.861659) scale(0.04 -0.04)">
     <use xlink:href="#DejaVuSans-44"/>
     <use xlink:href="#DejaVuSans-3a" x="77.001953"/>
     <use xlink:href="#DejaVuSans-30" x="110.693359"/>
     <use xlink:href="#DejaVuSans-2e" x="174.316406"/>
     <use xlink:href="#DejaVuSans-31" x="206.103516"/>
     <use xlink:href="#DejaVuSans-39" x="269.726562"/>
    </g>
    <!-- A:2.80 -->
    <g transform="translate(510.404416 342.340784) scale(0.04 -0.04)">
     <use xlink:href="#DejaVuSans-41"/>
     <use xlink:href="#DejaVuSans-3a" x="66.658203"/>
     <use xlink:href="#DejaVuSans-32" x="100.349609"/>
     <use xlink:href="#DejaVuSans-2e" x="163.972656"/>
     <use xlink:href="#DejaVuSans-38" x="195.759766"/>
     <use xlink:href="#DejaVuSans-30" x="259.382812"/>
    </g>
   </g>
   <g id="text_56">
    <!-- A:2.80 -->
    <g transform="translate(510.404416 342.340784) scale(0.04 -0.04)">
     <use xlink:href="#DejaVuSans-41"/>
     <use xlink:href="#DejaVuSans-3a" x="66.658203"/>
     <use xlink:href="#DejaVuSans-32" x="100.349609"/>
     <use xlink:href="#DejaVuSans-2e" x="163.972656"/>
     <use xlink:href="#DejaVuSans-38" x="195.759766"/>
     <use xlink:href="#DejaVuSans-30" x="259.382812"/>
    </g>
   </g>
   <g id="text_57">
    <!-- A:0.12 -->
    <g transform="translate(441.213137 379.076975) scale(0.04 -0.04)">
     <use xlink:href="#DejaVuSans-41"/>
     <use xlink:href="#DejaVuSans-3a" x="66.658203"/>
     <use xlink:href="#DejaVuSans-30" x="100.349609"/>
     <use xlink:href="#DejaVuSans-2e" x="163.972656"/>
     <use xlink:href="#DejaVuSans-31" x="195.759766"/>
     <use xlink:href="#DejaVuSans-32" x="259.382812"/>
    </g>
   </g>
   <g id="text_58">
    <!-- D:0.04 -->
    <g transform="translate(580.521212 255.982487) scale(0.04 -0.04)">
     <use xlink:href="#DejaVuSans-44"/>
     <use xlink:href="#DejaVuSans-3a" x="77.001953"/>
     <use xlink:href="#DejaVuSans-30" x="110.693359"/>
     <use xlink:href="#DejaVuSans-2e" x="174.316406"/>
     <use xlink:href="#DejaVuSans-30" x="206.103516"/>
     <use xlink:href="#DejaVuSans-34" x="269.726562"/>
    </g>
    <!-- A:23.62 -->
    <g transform="translate(580.521212 260.461612) scale(0.04 -0.04)">
     <use xlink:href="#DejaVuSans-41"/>
     <use xlink:href="#DejaVuSans-3a" x="66.658203"/>
     <use xlink:href="#DejaVuSans-32" x="100.349609"/>
     <use xlink:href="#DejaVuSans-33" x="163.972656"/>
     <use xlink:href="#DejaVuSans-2e" x="227.595703"/>
     <use xlink:href="#DejaVuSans-36" x="259.382812"/>
     <use xlink:href="#DejaVuSans-32" x="323.005859"/>
    </g>
   </g>
   <g id="text_59">
    <!-- A:23.62 -->
    <g transform="translate(580.521212 260.461612) scale(0.04 -0.04)">
     <use xlink:href="#DejaVuSans-41"/>
     <use xlink:href="#DejaVuSans-3a" x="66.658203"/>
     <use xlink:href="#DejaVuSans-32" x="100.349609"/>
     <use xlink:href="#DejaVuSans-33" x="163.972656"/>
     <use xlink:href="#DejaVuSans-2e" x="227.595703"/>
     <use xlink:href="#DejaVuSans-36" x="259.382812"/>
     <use xlink:href="#DejaVuSans-32" x="323.005859"/>
    </g>
   </g>
   <g id="text_60">
    <!-- D:1.75 -->
    <g transform="translate(549.061209 233.43286) scale(0.04 -0.04)">
     <use xlink:href="#DejaVuSans-44"/>
     <use xlink:href="#DejaVuSans-3a" x="77.001953"/>
     <use xlink:href="#DejaVuSans-31" x="110.693359"/>
     <use xlink:href="#DejaVuSans-2e" x="174.316406"/>
     <use xlink:href="#DejaVuSans-37" x="206.103516"/>
     <use xlink:href="#DejaVuSans-35" x="269.726562"/>
    </g>
    <!-- A:0.10 -->
    <g transform="translate(549.061209 237.911985) scale(0.04 -0.04)">
     <use xlink:href="#DejaVuSans-41"/>
     <use xlink:href="#DejaVuSans-3a" x="66.658203"/>
     <use xlink:href="#DejaVuSans-30" x="100.349609"/>
     <use xlink:href="#DejaVuSans-2e" x="163.972656"/>
     <use xlink:href="#DejaVuSans-31" x="195.759766"/>
     <use xlink:href="#DejaVuSans-30" x="259.382812"/>
    </g>
   </g>
   <g id="text_61">
    <!-- A:0.10 -->
    <g transform="translate(549.061209 237.911985) scale(0.04 -0.04)">
     <use xlink:href="#DejaVuSans-41"/>
     <use xlink:href="#DejaVuSans-3a" x="66.658203"/>
     <use xlink:href="#DejaVuSans-30" x="100.349609"/>
     <use xlink:href="#DejaVuSans-2e" x="163.972656"/>
     <use xlink:href="#DejaVuSans-31" x="195.759766"/>
     <use xlink:href="#DejaVuSans-30" x="259.382812"/>
    </g>
   </g>
   <g id="text_62">
    <!-- D:49.60 -->
    <g transform="translate(464.578123 373.801096) scale(0.04 -0.04)">
     <use xlink:href="#DejaVuSans-44"/>
     <use xlink:href="#DejaVuSans-3a" x="77.001953"/>
     <use xlink:href="#DejaVuSans-34" x="110.693359"/>
     <use xlink:href="#DejaVuSans-39" x="174.316406"/>
     <use xlink:href="#DejaVuSans-2e" x="237.939453"/>
     <use xlink:href="#DejaVuSans-36" x="269.726562"/>
     <use xlink:href="#DejaVuSans-30" x="333.349609"/>
    </g>
    <!-- A:7.88 -->
    <g transform="translate(464.578123 378.280221) scale(0.04 -0.04)">
     <use xlink:href="#DejaVuSans-41"/>
     <use xlink:href="#DejaVuSans-3a" x="66.658203"/>
     <use xlink:href="#DejaVuSans-37" x="100.349609"/>
     <use xlink:href="#DejaVuSans-2e" x="163.972656"/>
     <use xlink:href="#DejaVuSans-38" x="195.759766"/>
     <use xlink:href="#DejaVuSans-38" x="259.382812"/>
    </g>
   </g>
   <g id="text_63">
    <!-- A:7.88 -->
    <g transform="translate(464.578123 378.280221) scale(0.04 -0.04)">
     <use xlink:href="#DejaVuSans-41"/>
     <use xlink:href="#DejaVuSans-3a" x="66.658203"/>
     <use xlink:href="#DejaVuSans-37" x="100.349609"/>
     <use xlink:href="#DejaVuSans-2e" x="163.972656"/>
     <use xlink:href="#DejaVuSans-38" x="195.759766"/>
     <use xlink:href="#DejaVuSans-38" x="259.382812"/>
    </g>
   </g>
   <g id="text_64">
    <!-- A:0.01 -->
    <g transform="translate(888.456291 1002.116225) scale(0.04 -0.04)">
     <use xlink:href="#DejaVuSans-41"/>
     <use xlink:href="#DejaVuSans-3a" x="66.658203"/>
     <use xlink:href="#DejaVuSans-30" x="100.349609"/>
     <use xlink:href="#DejaVuSans-2e" x="163.972656"/>
     <use xlink:href="#DejaVuSans-30" x="195.759766"/>
     <use xlink:href="#DejaVuSans-31" x="259.382812"/>
    </g>
   </g>
   <g id="text_65">
    <!-- D:27.29 -->
    <g transform="translate(563.321139 748.707162) scale(0.04 -0.04)">
     <use xlink:href="#DejaVuSans-44"/>
     <use xlink:href="#DejaVuSans-3a" x="77.001953"/>
     <use xlink:href="#DejaVuSans-32" x="110.693359"/>
     <use xlink:href="#DejaVuSans-37" x="174.316406"/>
     <use xlink:href="#DejaVuSans-2e" x="237.939453"/>
     <use xlink:href="#DejaVuSans-32" x="269.726562"/>
     <use xlink:href="#DejaVuSans-39" x="333.349609"/>
    </g>
    <!-- A:12.58 -->
    <g transform="translate(563.321139 753.186287) scale(0.04 -0.04)">
     <use xlink:href="#DejaVuSans-41"/>
     <use xlink:href="#DejaVuSans-3a" x="66.658203"/>
     <use xlink:href="#DejaVuSans-31" x="100.349609"/>
     <use xlink:href="#DejaVuSans-32" x="163.972656"/>
     <use xlink:href="#DejaVuSans-2e" x="227.595703"/>
     <use xlink:href="#DejaVuSans-35" x="259.382812"/>
     <use xlink:href="#DejaVuSans-38" x="323.005859"/>
    </g>
   </g>
   <g id="text_66">
    <!-- A:12.58 -->
    <g transform="translate(563.321139 753.186287) scale(0.04 -0.04)">
     <use xlink:href="#DejaVuSans-41"/>
     <use xlink:href="#DejaVuSans-3a" x="66.658203"/>
     <use xlink:href="#DejaVuSans-31" x="100.349609"/>
     <use xlink:href="#DejaVuSans-32" x="163.972656"/>
     <use xlink:href="#DejaVuSans-2e" x="227.595703"/>
     <use xlink:href="#DejaVuSans-35" x="259.382812"/>
     <use xlink:href="#DejaVuSans-38" x="323.005859"/>
    </g>
   </g>
   <g id="text_67">
    <!-- D:21.91 -->
    <g transform="translate(489.739235 620.395842) scale(0.04 -0.04)">
     <use xlink:href="#DejaVuSans-44"/>
     <use xlink:href="#DejaVuSans-3a" x="77.001953"/>
     <use xlink:href="#DejaVuSans-32" x="110.693359"/>
     <use xlink:href="#DejaVuSans-31" x="174.316406"/>
     <use xlink:href="#DejaVuSans-2e" x="237.939453"/>
     <use xlink:href="#DejaVuSans-39" x="269.726562"/>
     <use xlink:href="#DejaVuSans-31" x="333.349609"/>
    </g>
    <!-- A:17.35 -->
    <g transform="translate(489.739235 624.874967) scale(0.04 -0.04)">
     <use xlink:href="#DejaVuSans-41"/>
     <use xlink:href="#DejaVuSans-3a" x="66.658203"/>
     <use xlink:href="#DejaVuSans-31" x="100.349609"/>
     <use xlink:href="#DejaVuSans-37" x="163.972656"/>
     <use xlink:href="#DejaVuSans-2e" x="227.595703"/>
     <use xlink:href="#DejaVuSans-33" x="259.382812"/>
     <use xlink:href="#DejaVuSans-35" x="323.005859"/>
    </g>
   </g>
   <g id="text_68">
    <!-- A:17.35 -->
    <g transform="translate(489.739235 624.874967) scale(0.04 -0.04)">
     <use xlink:href="#DejaVuSans-41"/>
     <use xlink:href="#DejaVuSans-3a" x="66.658203"/>
     <use xlink:href="#DejaVuSans-31" x="100.349609"/>
     <use xlink:href="#DejaVuSans-37" x="163.972656"/>
     <use xlink:href="#DejaVuSans-2e" x="227.595703"/>
     <use xlink:href="#DejaVuSans-33" x="259.382812"/>
     <use xlink:href="#DejaVuSans-35" x="323.005859"/>
    </g>
   </g>
   <g id="text_69">
    <!-- D:0.08 -->
    <g transform="translate(496.941724 658.224437) scale(0.04 -0.04)">
     <use xlink:href="#DejaVuSans-44"/>
     <use xlink:href="#DejaVuSans-3a" x="77.001953"/>
     <use xlink:href="#DejaVuSans-30" x="110.693359"/>
     <use xlink:href="#DejaVuSans-2e" x="174.316406"/>
     <use xlink:href="#DejaVuSans-30" x="206.103516"/>
     <use xlink:href="#DejaVuSans-38" x="269.726562"/>
    </g>
    <!-- A:31.49 -->
    <g transform="translate(496.941724 662.703562) scale(0.04 -0.04)">
     <use xlink:href="#DejaVuSans-41"/>
     <use xlink:href="#DejaVuSans-3a" x="66.658203"/>
     <use xlink:href="#DejaVuSans-33" x="100.349609"/>
     <use xlink:href="#DejaVuSans-31" x="163.972656"/>
     <use xlink:href="#DejaVuSans-2e" x="227.595703"/>
     <use xlink:href="#DejaVuSans-34" x="259.382812"/>
     <use xlink:href="#DejaVuSans-39" x="323.005859"/>
    </g>
   </g>
   <g id="text_70">
    <!-- A:31.49 -->
    <g transform="translate(496.941724 662.703562) scale(0.04 -0.04)">
     <use xlink:href="#DejaVuSans-41"/>
     <use xlink:href="#DejaVuSans-3a" x="66.658203"/>
     <use xlink:href="#DejaVuSans-33" x="100.349609"/>
     <use xlink:href="#DejaVuSans-31" x="163.972656"/>
     <use xlink:href="#DejaVuSans-2e" x="227.595703"/>
     <use xlink:href="#DejaVuSans-34" x="259.382812"/>
     <use xlink:href="#DejaVuSans-39" x="323.005859"/>
    </g>
   </g>
   <g id="text_71">
    <!-- D:0.04 -->
    <g transform="translate(506.221388 594.1513) scale(0.04 -0.04)">
     <use xlink:href="#DejaVuSans-44"/>
     <use xlink:href="#DejaVuSans-3a" x="77.001953"/>
     <use xlink:href="#DejaVuSans-30" x="110.693359"/>
     <use xlink:href="#DejaVuSans-2e" x="174.316406"/>
     <use xlink:href="#DejaVuSans-30" x="206.103516"/>
     <use xlink:href="#DejaVuSans-34" x="269.726562"/>
    </g>
    <!-- A:0.02 -->
    <g transform="translate(506.221388 598.630425) scale(0.04 -0.04)">
     <use xlink:href="#DejaVuSans-41"/>
     <use xlink:href="#DejaVuSans-3a" x="66.658203"/>
     <use xlink:href="#DejaVuSans-30" x="100.349609"/>
     <use xlink:href="#DejaVuSans-2e" x="163.972656"/>
     <use xlink:href="#DejaVuSans-30" x="195.759766"/>
     <use xlink:href="#DejaVuSans-32" x="259.382812"/>
    </g>
   </g>
   <g id="text_72">
    <!-- A:0.02 -->
    <g transform="translate(506.221388 598.630425) scale(0.04 -0.04)">
     <use xlink:href="#DejaVuSans-41"/>
     <use xlink:href="#DejaVuSans-3a" x="66.658203"/>
     <use xlink:href="#DejaVuSans-30" x="100.349609"/>
     <use xlink:href="#DejaVuSans-2e" x="163.972656"/>
     <use xlink:href="#DejaVuSans-30" x="195.759766"/>
     <use xlink:href="#DejaVuSans-32" x="259.382812"/>
    </g>
   </g>
   <g id="text_73">
    <!-- A:1.44 -->
    <g transform="translate(472.901024 590.789149) scale(0.04 -0.04)">
     <use xlink:href="#DejaVuSans-41"/>
     <use xlink:href="#DejaVuSans-3a" x="66.658203"/>
     <use xlink:href="#DejaVuSans-31" x="100.349609"/>
     <use xlink:href="#DejaVuSans-2e" x="163.972656"/>
     <use xlink:href="#DejaVuSans-34" x="195.759766"/>
     <use xlink:href="#DejaVuSans-34" x="259.382812"/>
    </g>
   </g>
   <g id="text_74">
    <!-- A:16.17 -->
    <g transform="translate(721.165229 935.740374) scale(0.04 -0.04)">
     <use xlink:href="#DejaVuSans-41"/>
     <use xlink:href="#DejaVuSans-3a" x="66.658203"/>
     <use xlink:href="#DejaVuSans-31" x="100.349609"/>
     <use xlink:href="#DejaVuSans-36" x="163.972656"/>
     <use xlink:href="#DejaVuSans-2e" x="227.595703"/>
     <use xlink:href="#DejaVuSans-31" x="259.382812"/>
     <use xlink:href="#DejaVuSans-37" x="323.005859"/>
    </g>
   </g>
   <g id="text_75">
    <!-- D:0.02 -->
    <g transform="translate(592.970293 321.53725) scale(0.04 -0.04)">
     <use xlink:href="#DejaVuSans-44"/>
     <use xlink:href="#DejaVuSans-3a" x="77.001953"/>
     <use xlink:href="#DejaVuSans-30" x="110.693359"/>
     <use xlink:href="#DejaVuSans-2e" x="174.316406"/>
     <use xlink:href="#DejaVuSans-30" x="206.103516"/>
     <use xlink:href="#DejaVuSans-32" x="269.726562"/>
    </g>
    <!-- A:30.33 -->
    <g transform="translate(592.970293 326.016375) scale(0.04 -0.04)">
     <use xlink:href="#DejaVuSans-41"/>
     <use xlink:href="#DejaVuSans-3a" x="66.658203"/>
     <use xlink:href="#DejaVuSans-33" x="100.349609"/>
     <use xlink:href="#DejaVuSans-30" x="163.972656"/>
     <use xlink:href="#DejaVuSans-2e" x="227.595703"/>
     <use xlink:href="#DejaVuSans-33" x="259.382812"/>
     <use xlink:href="#DejaVuSans-33" x="323.005859"/>
    </g>
   </g>
   <g id="text_76">
    <!-- A:30.33 -->
    <g transform="translate(592.970293 326.016375) scale(0.04 -0.04)">
     <use xlink:href="#DejaVuSans-41"/>
     <use xlink:href="#DejaVuSans-3a" x="66.658203"/>
     <use xlink:href="#DejaVuSans-33" x="100.349609"/>
     <use xlink:href="#DejaVuSans-30" x="163.972656"/>
     <use xlink:href="#DejaVuSans-2e" x="227.595703"/>
     <use xlink:href="#DejaVuSans-33" x="259.382812"/>
     <use xlink:href="#DejaVuSans-33" x="323.005859"/>
    </g>
   </g>
   <g id="text_77">
    <!-- A:0.00 -->
    <g transform="translate(571.109942 386.562803) scale(0.04 -0.04)">
     <use xlink:href="#DejaVuSans-41"/>
     <use xlink:href="#DejaVuSans-3a" x="66.658203"/>
     <use xlink:href="#DejaVuSans-30" x="100.349609"/>
     <use xlink:href="#DejaVuSans-2e" x="163.972656"/>
     <use xlink:href="#DejaVuSans-30" x="195.759766"/>
     <use xlink:href="#DejaVuSans-30" x="259.382812"/>
    </g>
   </g>
   <g id="text_78">
    <!-- D:0.00 -->
    <g transform="translate(670.914679 833.3005) scale(0.04 -0.04)">
     <use xlink:href="#DejaVuSans-44"/>
     <use xlink:href="#DejaVuSans-3a" x="77.001953"/>
     <use xlink:href="#DejaVuSans-30" x="110.693359"/>
     <use xlink:href="#DejaVuSans-2e" x="174.316406"/>
     <use xlink:href="#DejaVuSans-30" x="206.103516"/>
     <use xlink:href="#DejaVuSans-30" x="269.726562"/>
    </g>
    <!-- A:0.18 -->
    <g transform="translate(670.914679 837.779625) scale(0.04 -0.04)">
     <use xlink:href="#DejaVuSans-41"/>
     <use xlink:href="#DejaVuSans-3a" x="66.658203"/>
     <use xlink:href="#DejaVuSans-30" x="100.349609"/>
     <use xlink:href="#DejaVuSans-2e" x="163.972656"/>
     <use xlink:href="#DejaVuSans-31" x="195.759766"/>
     <use xlink:href="#DejaVuSans-38" x="259.382812"/>
    </g>
   </g>
   <g id="text_79">
    <!-- A:0.18 -->
    <g transform="translate(670.914679 837.779625) scale(0.04 -0.04)">
     <use xlink:href="#DejaVuSans-41"/>
     <use xlink:href="#DejaVuSans-3a" x="66.658203"/>
     <use xlink:href="#DejaVuSans-30" x="100.349609"/>
     <use xlink:href="#DejaVuSans-2e" x="163.972656"/>
     <use xlink:href="#DejaVuSans-31" x="195.759766"/>
     <use xlink:href="#DejaVuSans-38" x="259.382812"/>
    </g>
   </g>
   <g id="text_80">
    <!-- A:16.55 -->
    <g transform="translate(751.355297 911.544966) scale(0.04 -0.04)">
     <use xlink:href="#DejaVuSans-41"/>
     <use xlink:href="#DejaVuSans-3a" x="66.658203"/>
     <use xlink:href="#DejaVuSans-31" x="100.349609"/>
     <use xlink:href="#DejaVuSans-36" x="163.972656"/>
     <use xlink:href="#DejaVuSans-2e" x="227.595703"/>
     <use xlink:href="#DejaVuSans-35" x="259.382812"/>
     <use xlink:href="#DejaVuSans-35" x="323.005859"/>
    </g>
   </g>
   <g id="text_81">
    <!-- A:17.93 -->
    <g transform="translate(569.827621 311.110537) scale(0.04 -0.04)">
     <use xlink:href="#DejaVuSans-41"/>
     <use xlink:href="#DejaVuSans-3a" x="66.658203"/>
     <use xlink:href="#DejaVuSans-31" x="100.349609"/>
     <use xlink:href="#DejaVuSans-37" x="163.972656"/>
     <use xlink:href="#DejaVuSans-2e" x="227.595703"/>
     <use xlink:href="#DejaVuSans-39" x="259.382812"/>
     <use xlink:href="#DejaVuSans-33" x="323.005859"/>
    </g>
   </g>
   <g id="text_82">
    <!-- Instant Noodle Consumption Eurasia (n:27 k:72) -->
    <g transform="translate(593.369063 153.362625) scale(0.12 -0.12)">
     <defs>
      <path id="DejaVuSans-6e" d="M 3513 2113 
L 3513 0 
L 2938 0 
L 2938 2094 
Q 2938 2591 2744 2837 
Q 2550 3084 2163 3084 
Q 1697 3084 1428 2787 
Q 1159 2491 1159 1978 
L 1159 0 
L 581 0 
L 581 3500 
L 1159 3500 
L 1159 2956 
Q 1366 3272 1645 3428 
Q 1925 3584 2291 3584 
Q 2894 3584 3203 3211 
Q 3513 2838 3513 2113 
z
" transform="scale(0.015625)"/>
      <path id="DejaVuSans-73" d="M 2834 3397 
L 2834 2853 
Q 2591 2978 2328 3040 
Q 2066 3103 1784 3103 
Q 1356 3103 1142 2972 
Q 928 2841 928 2578 
Q 928 2378 1081 2264 
Q 1234 2150 1697 2047 
L 1894 2003 
Q 2506 1872 2764 1633 
Q 3022 1394 3022 966 
Q 3022 478 2636 193 
Q 2250 -91 1575 -91 
Q 1294 -91 989 -36 
Q 684 19 347 128 
L 347 722 
Q 666 556 975 473 
Q 1284 391 1588 391 
Q 1994 391 2212 530 
Q 2431 669 2431 922 
Q 2431 1156 2273 1281 
Q 2116 1406 1581 1522 
L 1381 1569 
Q 847 1681 609 1914 
Q 372 2147 372 2553 
Q 372 3047 722 3315 
Q 1072 3584 1716 3584 
Q 2034 3584 2315 3537 
Q 2597 3491 2834 3397 
z
" transform="scale(0.015625)"/>
      <path id="DejaVuSans-74" d="M 1172 4494 
L 1172 3500 
L 2356 3500 
L 2356 3053 
L 1172 3053 
L 1172 1153 
Q 1172 725 1289 603 
Q 1406 481 1766 481 
L 2356 481 
L 2356 0 
L 1766 0 
Q 1100 0 847 248 
Q 594 497 594 1153 
L 594 3053 
L 172 3053 
L 172 3500 
L 594 3500 
L 594 4494 
L 1172 4494 
z
" transform="scale(0.015625)"/>
      <path id="DejaVuSans-61" d="M 2194 1759 
Q 1497 1759 1228 1600 
Q 959 1441 959 1056 
Q 959 750 1161 570 
Q 1363 391 1709 391 
Q 2188 391 2477 730 
Q 2766 1069 2766 1631 
L 2766 1759 
L 2194 1759 
z
M 3341 1997 
L 3341 0 
L 2766 0 
L 2766 531 
Q 2569 213 2275 61 
Q 1981 -91 1556 -91 
Q 1019 -91 701 211 
Q 384 513 384 1019 
Q 384 1609 779 1909 
Q 1175 2209 1959 2209 
L 2766 2209 
L 2766 2266 
Q 2766 2663 2505 2880 
Q 2244 3097 1772 3097 
Q 1472 3097 1187 3025 
Q 903 2953 641 2809 
L 641 3341 
Q 956 3463 1253 3523 
Q 1550 3584 1831 3584 
Q 2591 3584 2966 3190 
Q 3341 2797 3341 1997 
z
" transform="scale(0.015625)"/>
      <path id="DejaVuSans-20" transform="scale(0.015625)"/>
      <path id="DejaVuSans-6f" d="M 1959 3097 
Q 1497 3097 1228 2736 
Q 959 2375 959 1747 
Q 959 1119 1226 758 
Q 1494 397 1959 397 
Q 2419 397 2687 759 
Q 2956 1122 2956 1747 
Q 2956 2369 2687 2733 
Q 2419 3097 1959 3097 
z
M 1959 3584 
Q 2709 3584 3137 3096 
Q 3566 2609 3566 1747 
Q 3566 888 3137 398 
Q 2709 -91 1959 -91 
Q 1206 -91 779 398 
Q 353 888 353 1747 
Q 353 2609 779 3096 
Q 1206 3584 1959 3584 
z
" transform="scale(0.015625)"/>
      <path id="DejaVuSans-64" d="M 2906 2969 
L 2906 4863 
L 3481 4863 
L 3481 0 
L 2906 0 
L 2906 525 
Q 2725 213 2448 61 
Q 2172 -91 1784 -91 
Q 1150 -91 751 415 
Q 353 922 353 1747 
Q 353 2572 751 3078 
Q 1150 3584 1784 3584 
Q 2172 3584 2448 3432 
Q 2725 3281 2906 2969 
z
M 947 1747 
Q 947 1113 1208 752 
Q 1469 391 1925 391 
Q 2381 391 2643 752 
Q 2906 1113 2906 1747 
Q 2906 2381 2643 2742 
Q 2381 3103 1925 3103 
Q 1469 3103 1208 2742 
Q 947 2381 947 1747 
z
" transform="scale(0.015625)"/>
      <path id="DejaVuSans-6c" d="M 603 4863 
L 1178 4863 
L 1178 0 
L 603 0 
L 603 4863 
z
" transform="scale(0.015625)"/>
      <path id="DejaVuSans-65" d="M 3597 1894 
L 3597 1613 
L 953 1613 
Q 991 1019 1311 708 
Q 1631 397 2203 397 
Q 2534 397 2845 478 
Q 3156 559 3463 722 
L 3463 178 
Q 3153 47 2828 -22 
Q 2503 -91 2169 -91 
Q 1331 -91 842 396 
Q 353 884 353 1716 
Q 353 2575 817 3079 
Q 1281 3584 2069 3584 
Q 2775 3584 3186 3129 
Q 3597 2675 3597 1894 
z
M 3022 2063 
Q 3016 2534 2758 2815 
Q 2500 3097 2075 3097 
Q 1594 3097 1305 2825 
Q 1016 2553 972 2059 
L 3022 2063 
z
" transform="scale(0.015625)"/>
      <path id="DejaVuSans-75" d="M 544 1381 
L 544 3500 
L 1119 3500 
L 1119 1403 
Q 1119 906 1312 657 
Q 1506 409 1894 409 
Q 2359 409 2629 706 
Q 2900 1003 2900 1516 
L 2900 3500 
L 3475 3500 
L 3475 0 
L 2900 0 
L 2900 538 
Q 2691 219 2414 64 
Q 2138 -91 1772 -91 
Q 1169 -91 856 284 
Q 544 659 544 1381 
z
M 1991 3584 
L 1991 3584 
z
" transform="scale(0.015625)"/>
      <path id="DejaVuSans-6d" d="M 3328 2828 
Q 3544 3216 3844 3400 
Q 4144 3584 4550 3584 
Q 5097 3584 5394 3201 
Q 5691 2819 5691 2113 
L 5691 0 
L 5113 0 
L 5113 2094 
Q 5113 2597 4934 2840 
Q 4756 3084 4391 3084 
Q 3944 3084 3684 2787 
Q 3425 2491 3425 1978 
L 3425 0 
L 2847 0 
L 2847 2094 
Q 2847 2600 2669 2842 
Q 2491 3084 2119 3084 
Q 1678 3084 1418 2786 
Q 1159 2488 1159 1978 
L 1159 0 
L 581 0 
L 581 3500 
L 1159 3500 
L 1159 2956 
Q 1356 3278 1631 3431 
Q 1906 3584 2284 3584 
Q 2666 3584 2933 3390 
Q 3200 3197 3328 2828 
z
" transform="scale(0.015625)"/>
      <path id="DejaVuSans-70" d="M 1159 525 
L 1159 -1331 
L 581 -1331 
L 581 3500 
L 1159 3500 
L 1159 2969 
Q 1341 3281 1617 3432 
Q 1894 3584 2278 3584 
Q 2916 3584 3314 3078 
Q 3713 2572 3713 1747 
Q 3713 922 3314 415 
Q 2916 -91 2278 -91 
Q 1894 -91 1617 61 
Q 1341 213 1159 525 
z
M 3116 1747 
Q 3116 2381 2855 2742 
Q 2594 3103 2138 3103 
Q 1681 3103 1420 2742 
Q 1159 2381 1159 1747 
Q 1159 1113 1420 752 
Q 1681 391 2138 391 
Q 2594 391 2855 752 
Q 3116 1113 3116 1747 
z
" transform="scale(0.015625)"/>
      <path id="DejaVuSans-69" d="M 603 3500 
L 1178 3500 
L 1178 0 
L 603 0 
L 603 3500 
z
M 603 4863 
L 1178 4863 
L 1178 4134 
L 603 4134 
L 603 4863 
z
" transform="scale(0.015625)"/>
      <path id="DejaVuSans-72" d="M 2631 2963 
Q 2534 3019 2420 3045 
Q 2306 3072 2169 3072 
Q 1681 3072 1420 2755 
Q 1159 2438 1159 1844 
L 1159 0 
L 581 0 
L 581 3500 
L 1159 3500 
L 1159 2956 
Q 1341 3275 1631 3429 
Q 1922 3584 2338 3584 
Q 2397 3584 2469 3576 
Q 2541 3569 2628 3553 
L 2631 2963 
z
" transform="scale(0.015625)"/>
      <path id="DejaVuSans-28" d="M 1984 4856 
Q 1566 4138 1362 3434 
Q 1159 2731 1159 2009 
Q 1159 1288 1364 580 
Q 1569 -128 1984 -844 
L 1484 -844 
Q 1016 -109 783 600 
Q 550 1309 550 2009 
Q 550 2706 781 3412 
Q 1013 4119 1484 4856 
L 1984 4856 
z
" transform="scale(0.015625)"/>
      <path id="DejaVuSans-6b" d="M 581 4863 
L 1159 4863 
L 1159 1991 
L 2875 3500 
L 3609 3500 
L 1753 1863 
L 3688 0 
L 2938 0 
L 1159 1709 
L 1159 0 
L 581 0 
L 581 4863 
z
" transform="scale(0.015625)"/>
      <path id="DejaVuSans-29" d="M 513 4856 
L 1013 4856 
Q 1481 4119 1714 3412 
Q 1947 2706 1947 2009 
Q 1947 1309 1714 600 
Q 1481 -109 1013 -844 
L 513 -844 
Q 928 -128 1133 580 
Q 1338 1288 1338 2009 
Q 1338 2731 1133 3434 
Q 928 4138 513 4856 
z
" transform="scale(0.015625)"/>
     </defs>
     <use xlink:href="#DejaVuSans-49"/>
     <use xlink:href="#DejaVuSans-6e" x="29.492188"/>
     <use xlink:href="#DejaVuSans-73" x="92.871094"/>
     <use xlink:href="#DejaVuSans-74" x="144.970703"/>
     <use xlink:href="#DejaVuSans-61" x="184.179688"/>
     <use xlink:href="#DejaVuSans-6e" x="245.458984"/>
     <use xlink:href="#DejaVuSans-74" x="308.837891"/>
     <use xlink:href="#DejaVuSans-20" x="348.046875"/>
     <use xlink:href="#DejaVuSans-4e" x="379.833984"/>
     <use xlink:href="#DejaVuSans-6f" x="454.638672"/>
     <use xlink:href="#DejaVuSans-6f" x="515.820312"/>
     <use xlink:href="#DejaVuSans-64" x="577.001953"/>
     <use xlink:href="#DejaVuSans-6c" x="640.478516"/>
     <use xlink:href="#DejaVuSans-65" x="668.261719"/>
     <use xlink:href="#DejaVuSans-20" x="729.785156"/>
     <use xlink:href="#DejaVuSans-43" x="761.572266"/>
     <use xlink:href="#DejaVuSans-6f" x="831.396484"/>
     <use xlink:href="#DejaVuSans-6e" x="892.578125"/>
     <use xlink:href="#DejaVuSans-73" x="955.957031"/>
     <use xlink:href="#DejaVuSans-75" x="1008.056641"/>
     <use xlink:href="#DejaVuSans-6d" x="1071.435547"/>
     <use xlink:href="#DejaVuSans-70" x="1168.847656"/>
     <use xlink:href="#DejaVuSans-74" x="1232.324219"/>
     <use xlink:href="#DejaVuSans-69" x="1271.533203"/>
     <use xlink:href="#DejaVuSans-6f" x="1299.316406"/>
     <use xlink:href="#DejaVuSans-6e" x="1360.498047"/>
     <use xlink:href="#DejaVuSans-20" x="1423.876953"/>
     <use xlink:href="#DejaVuSans-45" x="1455.664062"/>
     <use xlink:href="#DejaVuSans-75" x="1518.847656"/>
     <use xlink:href="#DejaVuSans-72" x="1582.226562"/>
     <use xlink:href="#DejaVuSans-61" x="1623.339844"/>
     <use xlink:href="#DejaVuSans-73" x="1684.619141"/>
     <use xlink:href="#DejaVuSans-69" x="1736.71875"/>
     <use xlink:href="#DejaVuSans-61" x="1764.501953"/>
     <use xlink:href="#DejaVuSans-20" x="1825.78125"/>
     <use xlink:href="#DejaVuSans-28" x="1857.568359"/>
     <use xlink:href="#DejaVuSans-6e" x="1896.582031"/>
     <use xlink:href="#DejaVuSans-3a" x="1959.960938"/>
     <use xlink:href="#DejaVuSans-32" x="1993.652344"/>
     <use xlink:href="#DejaVuSans-37" x="2057.275391"/>
     <use xlink:href="#DejaVuSans-20" x="2120.898438"/>
     <use xlink:href="#DejaVuSans-6b" x="2152.685547"/>
     <use xlink:href="#DejaVuSans-3a" x="2210.595703"/>
     <use xlink:href="#DejaVuSans-37" x="2244.287109"/>
     <use xlink:href="#DejaVuSans-32" x="2307.910156"/>
     <use xlink:href="#DejaVuSans-29" x="2371.533203"/>
    </g>
    <!-- Score: 15390.13, max. Overlap: 0.32, avg. Distance: 3.93, avg. Angle: 9.64 -->
    <g transform="translate(511.8525 166.8) scale(0.12 -0.12)">
     <defs>
      <path id="DejaVuSans-63" d="M 3122 3366 
L 3122 2828 
Q 2878 2963 2633 3030 
Q 2388 3097 2138 3097 
Q 1578 3097 1268 2742 
Q 959 2388 959 1747 
Q 959 1106 1268 751 
Q 1578 397 2138 397 
Q 2388 397 2633 464 
Q 2878 531 3122 666 
L 3122 134 
Q 2881 22 2623 -34 
Q 2366 -91 2075 -91 
Q 1284 -91 818 406 
Q 353 903 353 1747 
Q 353 2603 823 3093 
Q 1294 3584 2113 3584 
Q 2378 3584 2631 3529 
Q 2884 3475 3122 3366 
z
" transform="scale(0.015625)"/>
      <path id="DejaVuSans-2c" d="M 750 794 
L 1409 794 
L 1409 256 
L 897 -744 
L 494 -744 
L 750 256 
L 750 794 
z
" transform="scale(0.015625)"/>
      <path id="DejaVuSans-78" d="M 3513 3500 
L 2247 1797 
L 3578 0 
L 2900 0 
L 1881 1375 
L 863 0 
L 184 0 
L 1544 1831 
L 300 3500 
L 978 3500 
L 1906 2253 
L 2834 3500 
L 3513 3500 
z
" transform="scale(0.015625)"/>
      <path id="DejaVuSans-76" d="M 191 3500 
L 800 3500 
L 1894 563 
L 2988 3500 
L 3597 3500 
L 2284 0 
L 1503 0 
L 191 3500 
z
" transform="scale(0.015625)"/>
      <path id="DejaVuSans-67" d="M 2906 1791 
Q 2906 2416 2648 2759 
Q 2391 3103 1925 3103 
Q 1463 3103 1205 2759 
Q 947 2416 947 1791 
Q 947 1169 1205 825 
Q 1463 481 1925 481 
Q 2391 481 2648 825 
Q 2906 1169 2906 1791 
z
M 3481 434 
Q 3481 -459 3084 -895 
Q 2688 -1331 1869 -1331 
Q 1566 -1331 1297 -1286 
Q 1028 -1241 775 -1147 
L 775 -588 
Q 1028 -725 1275 -790 
Q 1522 -856 1778 -856 
Q 2344 -856 2625 -561 
Q 2906 -266 2906 331 
L 2906 616 
Q 2728 306 2450 153 
Q 2172 0 1784 0 
Q 1141 0 747 490 
Q 353 981 353 1791 
Q 353 2603 747 3093 
Q 1141 3584 1784 3584 
Q 2172 3584 2450 3431 
Q 2728 3278 2906 2969 
L 2906 3500 
L 3481 3500 
L 3481 434 
z
" transform="scale(0.015625)"/>
     </defs>
     <use xlink:href="#DejaVuSans-53"/>
     <use xlink:href="#DejaVuSans-63" x="63.476562"/>
     <use xlink:href="#DejaVuSans-6f" x="118.457031"/>
     <use xlink:href="#DejaVuSans-72" x="179.638672"/>
     <use xlink:href="#DejaVuSans-65" x="218.501953"/>
     <use xlink:href="#DejaVuSans-3a" x="280.025391"/>
     <use xlink:href="#DejaVuSans-20" x="313.716797"/>
     <use xlink:href="#DejaVuSans-31" x="345.503906"/>
     <use xlink:href="#DejaVuSans-35" x="409.126953"/>
     <use xlink:href="#DejaVuSans-33" x="472.75"/>
     <use xlink:href="#DejaVuSans-39" x="536.373047"/>
     <use xlink:href="#DejaVuSans-30" x="599.996094"/>
     <use xlink:href="#DejaVuSans-2e" x="663.619141"/>
     <use xlink:href="#DejaVuSans-31" x="695.40625"/>
     <use xlink:href="#DejaVuSans-33" x="759.029297"/>
     <use xlink:href="#DejaVuSans-2c" x="822.652344"/>
     <use xlink:href="#DejaVuSans-20" x="854.439453"/>
     <use xlink:href="#DejaVuSans-6d" x="886.226562"/>
     <use xlink:href="#DejaVuSans-61" x="983.638672"/>
     <use xlink:href="#DejaVuSans-78" x="1044.917969"/>
     <use xlink:href="#DejaVuSans-2e" x="1104.097656"/>
     <use xlink:href="#DejaVuSans-20" x="1135.884766"/>
     <use xlink:href="#DejaVuSans-4f" x="1167.671875"/>
     <use xlink:href="#DejaVuSans-76" x="1246.382812"/>
     <use xlink:href="#DejaVuSans-65" x="1305.5625"/>
     <use xlink:href="#DejaVuSans-72" x="1367.085938"/>
     <use xlink:href="#DejaVuSans-6c" x="1408.199219"/>
     <use xlink:href="#DejaVuSans-61" x="1435.982422"/>
     <use xlink:href="#DejaVuSans-70" x="1497.261719"/>
     <use xlink:href="#DejaVuSans-3a" x="1560.738281"/>
     <use xlink:href="#DejaVuSans-20" x="1594.429688"/>
     <use xlink:href="#DejaVuSans-30" x="1626.216797"/>
     <use xlink:href="#DejaVuSans-2e" x="1689.839844"/>
     <use xlink:href="#DejaVuSans-33" x="1721.626953"/>
     <use xlink:href="#DejaVuSans-32" x="1785.25"/>
     <use xlink:href="#DejaVuSans-2c" x="1848.873047"/>
     <use xlink:href="#DejaVuSans-20" x="1880.660156"/>
     <use xlink:href="#DejaVuSans-61" x="1912.447266"/>
     <use xlink:href="#DejaVuSans-76" x="1973.726562"/>
     <use xlink:href="#DejaVuSans-67" x="2032.90625"/>
     <use xlink:href="#DejaVuSans-2e" x="2096.382812"/>
     <use xlink:href="#DejaVuSans-20" x="2128.169922"/>
     <use xlink:href="#DejaVuSans-44" x="2159.957031"/>
     <use xlink:href="#DejaVuSans-69" x="2236.958984"/>
     <use xlink:href="#DejaVuSans-73" x="2264.742188"/>
     <use xlink:href="#DejaVuSans-74" x="2316.841797"/>
     <use xlink:href="#DejaVuSans-61" x="2356.050781"/>
     <use xlink:href="#DejaVuSans-6e" x="2417.330078"/>
     <use xlink:href="#DejaVuSans-63" x="2480.708984"/>
     <use xlink:href="#DejaVuSans-65" x="2535.689453"/>
     <use xlink:href="#DejaVuSans-3a" x="2597.212891"/>
     <use xlink:href="#DejaVuSans-20" x="2630.904297"/>
     <use xlink:href="#DejaVuSans-33" x="2662.691406"/>
     <use xlink:href="#DejaVuSans-2e" x="2726.314453"/>
     <use xlink:href="#DejaVuSans-39" x="2758.101562"/>
     <use xlink:href="#DejaVuSans-33" x="2821.724609"/>
     <use xlink:href="#DejaVuSans-2c" x="2885.347656"/>
     <use xlink:href="#DejaVuSans-20" x="2917.134766"/>
     <use xlink:href="#DejaVuSans-61" x="2948.921875"/>
     <use xlink:href="#DejaVuSans-76" x="3010.201172"/>
     <use xlink:href="#DejaVuSans-67" x="3069.380859"/>
     <use xlink:href="#DejaVuSans-2e" x="3132.857422"/>
     <use xlink:href="#DejaVuSans-20" x="3164.644531"/>
     <use xlink:href="#DejaVuSans-41" x="3196.431641"/>
     <use xlink:href="#DejaVuSans-6e" x="3264.839844"/>
     <use xlink:href="#DejaVuSans-67" x="3328.21875"/>
     <use xlink:href="#DejaVuSans-6c" x="3391.695312"/>
     <use xlink:href="#DejaVuSans-65" x="3419.478516"/>
     <use xlink:href="#DejaVuSans-3a" x="3481.001953"/>
     <use xlink:href="#DejaVuSans-20" x="3514.693359"/>
     <use xlink:href="#DejaVuSans-39" x="3546.480469"/>
     <use xlink:href="#DejaVuSans-2e" x="3610.103516"/>
     <use xlink:href="#DejaVuSans-36" x="3641.890625"/>
     <use xlink:href="#DejaVuSans-34" x="3705.513672"/>
    </g>
   </g>
  </g>
 </g>
 <defs>
  <clipPath id="p10026b9842">
   <rect x="320.569821" y="172.8" width="834.860358" height="1108.8"/>
  </clipPath>
 </defs>
</svg>
