<?xml version="1.0" encoding="utf-8" standalone="no"?>
<!DOCTYPE svg PUBLIC "-//W3C//DTD SVG 1.1//EN"
  "http://www.w3.org/Graphics/SVG/1.1/DTD/svg11.dtd">
<svg xmlns:xlink="http://www.w3.org/1999/xlink" width="1440pt" height="1440pt" viewBox="0 0 1440 1440" xmlns="http://www.w3.org/2000/svg" version="1.1">
 <metadata>
  <rdf:RDF xmlns:dc="http://purl.org/dc/elements/1.1/" xmlns:cc="http://creativecommons.org/ns#" xmlns:rdf="http://www.w3.org/1999/02/22-rdf-syntax-ns#">
   <cc:Work>
    <dc:type rdf:resource="http://purl.org/dc/dcmitype/StillImage"/>
    <dc:date>2024-03-13T19:17:07.852080</dc:date>
    <dc:format>image/svg+xml</dc:format>
    <dc:creator>
     <cc:Agent>
      <dc:title>Matplotlib v3.8.3, https://matplotlib.org/</dc:title>
     </cc:Agent>
    </dc:creator>
   </cc:Work>
  </rdf:RDF>
 </metadata>
 <defs>
  <style type="text/css">*{stroke-linejoin: round; stroke-linecap: butt}</style>
 </defs>
 <g id="figure_1">
  <g id="patch_1">
   <path d="M 0 1440 
L 1440 1440 
L 1440 0 
L 0 0 
z
" style="fill: #ffffff"/>
  </g>
  <g id="axes_1">
   <g id="patch_2">
    <path d="M 449.142075 341.627981 
C 451.825908 341.627981 454.400178 340.561683 456.297935 338.663927 
C 458.195691 336.766171 459.261989 334.1919 459.261989 331.508067 
C 459.261989 328.824235 458.195691 326.249964 456.297935 324.352208 
C 454.400178 322.454452 451.825908 321.388154 449.142075 321.388154 
C 446.458243 321.388154 443.883972 322.454452 441.986216 324.352208 
C 440.08846 326.249964 439.022162 328.824235 439.022162 331.508067 
C 439.022162 334.1919 440.08846 336.766171 441.986216 338.663927 
C 443.883972 340.561683 446.458243 341.627981 449.142075 341.627981 
z
" clip-path="url(#p9a847a06f8)" style="fill: #9e0142; opacity: 0.5"/>
   </g>
   <g id="patch_3">
    <path d="M 556.752797 423.791092 
C 561.773788 423.791092 566.589808 421.796231 570.140184 418.245855 
C 573.690561 414.695478 575.685422 409.879459 575.685422 404.858468 
C 575.685422 399.837477 573.690561 395.021458 570.140184 391.471081 
C 566.589808 387.920705 561.773788 385.925844 556.752797 385.925844 
C 551.731807 385.925844 546.915787 387.920705 543.365411 391.471081 
C 539.815034 395.021458 537.820173 399.837477 537.820173 404.858468 
C 537.820173 409.879459 539.815034 414.695478 543.365411 418.245855 
C 546.915787 421.796231 551.731807 423.791092 556.752797 423.791092 
z
" clip-path="url(#p9a847a06f8)" style="fill: #b11747; opacity: 0.5"/>
   </g>
   <g id="patch_4">
    <path d="M 477.018564 389.073385 
C 479.209904 389.073385 481.311788 388.202757 482.861299 386.653245 
C 484.41081 385.103734 485.281439 383.001851 485.281439 380.810511 
C 485.281439 378.619171 484.41081 376.517287 482.861299 374.967776 
C 481.311788 373.418265 479.209904 372.547636 477.018564 372.547636 
C 474.827225 372.547636 472.725341 373.418265 471.17583 374.967776 
C 469.626318 376.517287 468.75569 378.619171 468.75569 380.810511 
C 468.75569 383.001851 469.626318 385.103734 471.17583 386.653245 
C 472.725341 388.202757 474.827225 389.073385 477.018564 389.073385 
z
" clip-path="url(#p9a847a06f8)" style="fill: #c72e4c; opacity: 0.5"/>
   </g>
   <g id="patch_5">
    <path d="M 447.051497 383.740418 
C 450.685423 383.740418 454.171002 382.296644 456.740576 379.72707 
C 459.31015 377.157496 460.753924 373.671917 460.753924 370.037991 
C 460.753924 366.404065 459.31015 362.918486 456.740576 360.348912 
C 454.171002 357.779338 450.685423 356.335564 447.051497 356.335564 
C 443.417571 356.335564 439.931991 357.779338 437.362417 360.348912 
C 434.792844 362.918486 433.349069 366.404065 433.349069 370.037991 
C 433.349069 373.671917 434.792844 377.157496 437.362417 379.72707 
C 439.931991 382.296644 443.417571 383.740418 447.051497 383.740418 
z
" clip-path="url(#p9a847a06f8)" style="fill: #d9444d; opacity: 0.5"/>
   </g>
   <g id="patch_6">
    <path d="M 482.538063 370.278524 
C 489.38052 370.278524 495.943649 367.559987 500.781996 362.721639 
C 505.620344 357.883291 508.338881 351.320163 508.338881 344.477706 
C 508.338881 337.635249 505.620344 331.072121 500.781996 326.233773 
C 495.943649 321.395425 489.38052 318.676888 482.538063 318.676888 
C 475.695607 318.676888 469.132478 321.395425 464.29413 326.233773 
C 459.455783 331.072121 456.737246 337.635249 456.737246 344.477706 
C 456.737246 351.320163 459.455783 357.883291 464.29413 362.721639 
C 469.132478 367.559987 475.695607 370.278524 482.538063 370.278524 
z
" clip-path="url(#p9a847a06f8)" style="fill: #e55749; opacity: 0.5"/>
   </g>
   <g id="patch_7">
    <path d="M 683.926646 977.811809 
C 705.481012 977.811809 726.155468 969.248169 741.396706 954.00693 
C 756.637944 938.765692 765.201585 918.091236 765.201585 896.536871 
C 765.201585 874.982505 756.637944 854.308049 741.396706 839.066811 
C 726.155468 823.825573 705.481012 815.261932 683.926646 815.261932 
C 662.372281 815.261932 641.697825 823.825573 626.456587 839.066811 
C 611.215348 854.308049 602.651708 874.982505 602.651708 896.536871 
C 602.651708 918.091236 611.215348 938.765692 626.456587 954.00693 
C 641.697825 969.248169 662.372281 977.811809 683.926646 977.811809 
z
" clip-path="url(#p9a847a06f8)" style="fill: #f26944; opacity: 0.5"/>
   </g>
   <g id="patch_8">
    <path d="M 837.064234 805.145463 
C 910.621155 805.145463 981.175277 775.920989 1033.187874 723.908391 
C 1085.200472 671.895794 1114.424946 601.341671 1114.424946 527.78475 
C 1114.424946 454.22783 1085.200472 383.673707 1033.187874 331.66111 
C 981.175277 279.648512 910.621155 250.424038 837.064234 250.424038 
C 763.507313 250.424038 692.953191 279.648512 640.940593 331.66111 
C 588.927996 383.673707 559.703521 454.22783 559.703521 527.78475 
C 559.703521 601.341671 588.927996 671.895794 640.940593 723.908391 
C 692.953191 775.920989 763.507313 805.145463 837.064234 805.145463 
z
" clip-path="url(#p9a847a06f8)" style="fill: #f7814c; opacity: 0.5"/>
   </g>
   <g id="patch_9">
    <path d="M 517.548065 620.01865 
C 522.91573 620.01865 528.064272 617.886054 531.859784 614.090542 
C 535.655296 610.295029 537.787892 605.146488 537.787892 599.778823 
C 537.787892 594.411158 535.655296 589.262617 531.859784 585.467104 
C 528.064272 581.671592 522.91573 579.538996 517.548065 579.538996 
C 512.1804 579.538996 507.031859 581.671592 503.236347 585.467104 
C 499.440834 589.262617 497.308239 594.411158 497.308239 599.778823 
C 497.308239 605.146488 499.440834 610.295029 503.236347 614.090542 
C 507.031859 617.886054 512.1804 620.01865 517.548065 620.01865 
z
" clip-path="url(#p9a847a06f8)" style="fill: #fa9857; opacity: 0.5"/>
   </g>
   <g id="patch_10">
    <path d="M 538.487878 248.887011 
C 541.171711 248.887011 543.745982 247.820714 545.643738 245.922958 
C 547.541494 244.025201 548.607792 241.450931 548.607792 238.767098 
C 548.607792 236.083266 547.541494 233.508995 545.643738 231.611239 
C 543.745982 229.713483 541.171711 228.647185 538.487878 228.647185 
C 535.804046 228.647185 533.229775 229.713483 531.332019 231.611239 
C 529.434263 233.508995 528.367965 236.083266 528.367965 238.767098 
C 528.367965 241.450931 529.434263 244.025201 531.332019 245.922958 
C 533.229775 247.820714 535.804046 248.887011 538.487878 248.887011 
z
" clip-path="url(#p9a847a06f8)" style="fill: #fdb163; opacity: 0.5"/>
   </g>
   <g id="patch_11">
    <path d="M 554.134678 241.569858 
C 555.684189 241.569858 557.170445 240.954231 558.266115 239.858561 
C 559.361785 238.762891 559.977412 237.276635 559.977412 235.727124 
C 559.977412 234.177612 559.361785 232.691356 558.266115 231.595686 
C 557.170445 230.500017 555.684189 229.884389 554.134678 229.884389 
C 552.585166 229.884389 551.09891 230.500017 550.003241 231.595686 
C 548.907571 232.691356 548.291943 234.177612 548.291943 235.727124 
C 548.291943 237.276635 548.907571 238.762891 550.003241 239.858561 
C 551.09891 240.954231 552.585166 241.569858 554.134678 241.569858 
z
" clip-path="url(#p9a847a06f8)" style="fill: #fdc574; opacity: 0.5"/>
   </g>
   <g id="patch_12">
    <path d="M 428.598344 400.88536 
C 431.885354 400.88536 435.038179 399.579417 437.362446 397.25515 
C 439.686713 394.930883 440.992656 391.778058 440.992656 388.491048 
C 440.992656 385.204038 439.686713 382.051213 437.362446 379.726946 
C 435.038179 377.402679 431.885354 376.096736 428.598344 376.096736 
C 425.311335 376.096736 422.158509 377.402679 419.834242 379.726946 
C 417.509975 382.051213 416.204033 385.204038 416.204033 388.491048 
C 416.204033 391.778058 417.509975 394.930883 419.834242 397.25515 
C 422.158509 399.579417 425.311335 400.88536 428.598344 400.88536 
z
" clip-path="url(#p9a847a06f8)" style="fill: #fed884; opacity: 0.5"/>
   </g>
   <g id="patch_13">
    <path d="M 655.951037 819.129348 
C 665.565502 819.129348 674.787478 815.309481 681.585931 808.511027 
C 688.384384 801.712574 692.204252 792.490598 692.204252 782.876133 
C 692.204252 773.261668 688.384384 764.039692 681.585931 757.241239 
C 674.787478 750.442785 665.565502 746.622918 655.951037 746.622918 
C 646.336572 746.622918 637.114596 750.442785 630.316143 757.241239 
C 623.517689 764.039692 619.697822 773.261668 619.697822 782.876133 
C 619.697822 792.490598 623.517689 801.712574 630.316143 808.511027 
C 637.114596 815.309481 646.336572 819.129348 655.951037 819.129348 
z
" clip-path="url(#p9a847a06f8)" style="fill: #fee797; opacity: 0.5"/>
   </g>
   <g id="patch_14">
    <path d="M 507.62254 579.23408 
C 521.696676 579.23408 535.196266 573.642367 545.148183 563.69045 
C 555.1001 553.738533 560.691813 540.238943 560.691813 526.164807 
C 560.691813 512.090672 555.1001 498.591081 545.148183 488.639165 
C 535.196266 478.687248 521.696676 473.095535 507.62254 473.095535 
C 493.548405 473.095535 480.048814 478.687248 470.096898 488.639165 
C 460.144981 498.591081 454.553268 512.090672 454.553268 526.164807 
C 454.553268 540.238943 460.144981 553.738533 470.096898 563.69045 
C 480.048814 573.642367 493.548405 579.23408 507.62254 579.23408 
z
" clip-path="url(#p9a847a06f8)" style="fill: #fff3ac; opacity: 0.5"/>
   </g>
   <g id="patch_15">
    <path d="M 488.712821 319.418554 
C 490.262332 319.418554 491.748588 318.802926 492.844258 317.707256 
C 493.939928 316.611586 494.555555 315.12533 494.555555 313.575819 
C 494.555555 312.026308 493.939928 310.540052 492.844258 309.444382 
C 491.748588 308.348712 490.262332 307.733084 488.712821 307.733084 
C 487.163309 307.733084 485.677053 308.348712 484.581383 309.444382 
C 483.485713 310.540052 482.870086 312.026308 482.870086 313.575819 
C 482.870086 315.12533 483.485713 316.611586 484.581383 317.707256 
C 485.677053 318.802926 487.163309 319.418554 488.712821 319.418554 
z
" clip-path="url(#p9a847a06f8)" style="fill: #ffffbe; opacity: 0.5"/>
   </g>
   <g id="patch_16">
    <path d="M 450.798944 353.240545 
C 452.348455 353.240545 453.834711 352.624918 454.930381 351.529248 
C 456.026051 350.433578 456.641679 348.947322 456.641679 347.397811 
C 456.641679 345.848299 456.026051 344.362043 454.930381 343.266373 
C 453.834711 342.170703 452.348455 341.555076 450.798944 341.555076 
C 449.249433 341.555076 447.763177 342.170703 446.667507 343.266373 
C 445.571837 344.362043 444.956209 345.848299 444.956209 347.397811 
C 444.956209 348.947322 445.571837 350.433578 446.667507 351.529248 
C 447.763177 352.624918 449.249433 353.240545 450.798944 353.240545 
z
" clip-path="url(#p9a847a06f8)" style="fill: #f6fbb0; opacity: 0.5"/>
   </g>
   <g id="patch_17">
    <path d="M 614.983483 761.927065 
C 622.251335 761.927065 629.222493 759.039517 634.361641 753.900369 
C 639.500789 748.761221 642.388337 741.790063 642.388337 734.52221 
C 642.388337 727.254358 639.500789 720.283199 634.361641 715.144052 
C 629.222493 710.004904 622.251335 707.117356 614.983483 707.117356 
C 607.71563 707.117356 600.744472 710.004904 595.605324 715.144052 
C 590.466176 720.283199 587.578628 727.254358 587.578628 734.52221 
C 587.578628 741.790063 590.466176 748.761221 595.605324 753.900369 
C 600.744472 759.039517 607.71563 761.927065 614.983483 761.927065 
z
" clip-path="url(#p9a847a06f8)" style="fill: #ecf7a1; opacity: 0.5"/>
   </g>
   <g id="patch_18">
    <path d="M 511.335881 378.274475 
C 514.234751 378.274475 517.015281 377.122741 519.065092 375.072931 
C 521.114903 373.02312 522.266636 370.242589 522.266636 367.343719 
C 522.266636 364.444849 521.114903 361.664319 519.065092 359.614508 
C 517.015281 357.564697 514.234751 356.412964 511.335881 356.412964 
C 508.43701 356.412964 505.65648 357.564697 503.606669 359.614508 
C 501.556858 361.664319 500.405125 364.444849 500.405125 367.343719 
C 500.405125 370.242589 501.556858 373.02312 503.606669 375.072931 
C 505.65648 377.122741 508.43701 378.274475 511.335881 378.274475 
z
" clip-path="url(#p9a847a06f8)" style="fill: #ddf19a; opacity: 0.5"/>
   </g>
   <g id="patch_19">
    <path d="M 486.726072 607.083141 
C 489.624943 607.083141 492.405473 605.931408 494.455284 603.881597 
C 496.505094 601.831786 497.656828 599.051256 497.656828 596.152386 
C 497.656828 593.253515 496.505094 590.472985 494.455284 588.423174 
C 492.405473 586.373363 489.624943 585.22163 486.726072 585.22163 
C 483.827202 585.22163 481.046672 586.373363 478.996861 588.423174 
C 476.94705 590.472985 475.795317 593.253515 475.795317 596.152386 
C 475.795317 599.051256 476.94705 601.831786 478.996861 603.881597 
C 481.046672 605.931408 483.827202 607.083141 486.726072 607.083141 
z
" clip-path="url(#p9a847a06f8)" style="fill: #c6e89f; opacity: 0.5"/>
   </g>
   <g id="patch_20">
    <path d="M 603.689936 345.758236 
C 619.941348 345.758236 635.529332 339.301482 647.020815 327.809998 
C 658.512299 316.318514 664.969054 300.73053 664.969054 284.479118 
C 664.969054 268.227706 658.512299 252.639722 647.020815 241.148238 
C 635.529332 229.656754 619.941348 223.2 603.689936 223.2 
C 587.438523 223.2 571.850539 229.656754 560.359056 241.148238 
C 548.867572 252.639722 542.410818 268.227706 542.410818 284.479118 
C 542.410818 300.73053 548.867572 316.318514 560.359056 327.809998 
C 571.850539 339.301482 587.438523 345.758236 603.689936 345.758236 
z
" clip-path="url(#p9a847a06f8)" style="fill: #aedea3; opacity: 0.5"/>
   </g>
   <g id="patch_21">
    <path d="M 812.803903 980.059274 
C 826.444884 980.059274 839.529003 974.639654 849.174633 964.994024 
C 858.820263 955.348394 864.239883 942.264275 864.239883 928.623294 
C 864.239883 914.982313 858.820263 901.898195 849.174633 892.252564 
C 839.529003 882.606934 826.444884 877.187315 812.803903 877.187315 
C 799.162922 877.187315 786.078804 882.606934 776.433173 892.252564 
C 766.787543 901.898195 761.367924 914.982313 761.367924 928.623294 
C 761.367924 942.264275 766.787543 955.348394 776.433173 964.994024 
C 786.078804 974.639654 799.162922 980.059274 812.803903 980.059274 
z
" clip-path="url(#p9a847a06f8)" style="fill: #94d4a4; opacity: 0.5"/>
   </g>
   <g id="patch_22">
    <path d="M 533.289496 363.915529 
C 540.04366 363.915529 546.522099 361.232072 551.298014 356.456157 
C 556.073929 351.680242 558.757386 345.201803 558.757386 338.447639 
C 558.757386 331.693476 556.073929 325.215036 551.298014 320.439122 
C 546.522099 315.663207 540.04366 312.979749 533.289496 312.979749 
C 526.535333 312.979749 520.056893 315.663207 515.280979 320.439122 
C 510.505064 325.215036 507.821607 331.693476 507.821607 338.447639 
C 507.821607 345.201803 510.505064 351.680242 515.280979 356.456157 
C 520.056893 361.232072 526.535333 363.915529 533.289496 363.915529 
z
" clip-path="url(#p9a847a06f8)" style="fill: #7ccaa5; opacity: 0.5"/>
   </g>
   <g id="patch_23">
    <path d="M 474.67564 840.466962 
C 504.841406 840.466962 533.775722 828.481976 555.10614 807.151558 
C 576.436558 785.82114 588.421544 756.886824 588.421544 726.721057 
C 588.421544 696.555291 576.436558 667.620975 555.10614 646.290557 
C 533.775722 624.960139 504.841406 612.975153 474.67564 612.975153 
C 444.509873 612.975153 415.575558 624.960139 394.24514 646.290557 
C 372.914722 667.620975 360.929736 696.555291 360.929736 726.721057 
C 360.929736 756.886824 372.914722 785.82114 394.24514 807.151558 
C 415.575558 828.481976 444.509873 840.466962 474.67564 840.466962 
z
" clip-path="url(#p9a847a06f8)" style="fill: #62bda7; opacity: 0.5"/>
   </g>
   <g id="patch_24">
    <path d="M 753.273502 1004.139753 
C 760.203128 1004.139753 766.849867 1001.386584 771.749852 996.486599 
C 776.649837 991.586614 779.403006 984.939875 779.403006 978.010249 
C 779.403006 971.080624 776.649837 964.433885 771.749852 959.5339 
C 766.849867 954.633915 760.203128 951.880746 753.273502 951.880746 
C 746.343877 951.880746 739.697138 954.633915 734.797153 959.5339 
C 729.897168 964.433885 727.143999 971.080624 727.143999 978.010249 
C 727.143999 984.939875 729.897168 991.586614 734.797153 996.486599 
C 739.697138 1001.386584 746.343877 1004.139753 753.273502 1004.139753 
z
" clip-path="url(#p9a847a06f8)" style="fill: #4ea7b0; opacity: 0.5"/>
   </g>
   <g id="patch_25">
    <path d="M 959.057214 1231.2 
C 1000.432359 1231.2 1040.118455 1214.761481 1069.3751 1185.504836 
C 1098.631745 1156.24819 1115.070264 1116.562094 1115.070264 1075.18695 
C 1115.070264 1033.811805 1098.631745 994.125709 1069.3751 964.869064 
C 1040.118455 935.612419 1000.432359 919.173899 959.057214 919.173899 
C 917.68207 919.173899 877.995974 935.612419 848.739328 964.869064 
C 819.482683 994.125709 803.044164 1033.811805 803.044164 1075.18695 
C 803.044164 1116.562094 819.482683 1156.24819 848.739328 1185.504836 
C 877.995974 1214.761481 917.68207 1231.2 959.057214 1231.2 
z
" clip-path="url(#p9a847a06f8)" style="fill: #3990ba; opacity: 0.5"/>
   </g>
   <g id="patch_26">
    <path d="M 466.450137 377.405862 
C 467.999649 377.405862 469.485905 376.790234 470.581575 375.694565 
C 471.677245 374.598895 472.292872 373.112639 472.292872 371.563127 
C 472.292872 370.013616 471.677245 368.52736 470.581575 367.43169 
C 469.485905 366.33602 467.999649 365.720393 466.450137 365.720393 
C 464.900626 365.720393 463.41437 366.33602 462.3187 367.43169 
C 461.22303 368.52736 460.607403 370.013616 460.607403 371.563127 
C 460.607403 373.112639 461.22303 374.598895 462.3187 375.694565 
C 463.41437 376.790234 464.900626 377.405862 466.450137 377.405862 
z
" clip-path="url(#p9a847a06f8)" style="fill: #3d79b6; opacity: 0.5"/>
   </g>
   <g id="patch_27">
    <path d="M 451.658872 609.532302 
C 458.759625 609.532302 465.570506 606.711143 470.591496 601.690152 
C 475.612487 596.669162 478.433646 589.858281 478.433646 582.757528 
C 478.433646 575.656775 475.612487 568.845895 470.591496 563.824904 
C 465.570506 558.803913 458.759625 555.982754 451.658872 555.982754 
C 444.558119 555.982754 437.747239 558.803913 432.726248 563.824904 
C 427.705257 568.845895 424.884098 575.656775 424.884098 582.757528 
C 424.884098 589.858281 427.705257 596.669162 432.726248 601.690152 
C 437.747239 606.711143 444.558119 609.532302 451.658872 609.532302 
z
" clip-path="url(#p9a847a06f8)" style="fill: #4e63ac; opacity: 0.5"/>
   </g>
   <g id="patch_28">
    <path d="M 578.052394 391.579612 
C 584.626414 391.579612 590.932064 388.967727 595.580598 384.319193 
C 600.229132 379.670658 602.841018 373.365008 602.841018 366.790989 
C 602.841018 360.216969 600.229132 353.911319 595.580598 349.262785 
C 590.932064 344.614251 584.626414 342.002365 578.052394 342.002365 
C 571.478374 342.002365 565.172724 344.614251 560.52419 349.262785 
C 555.875656 353.911319 553.26377 360.216969 553.26377 366.790989 
C 553.26377 373.365008 555.875656 379.670658 560.52419 384.319193 
C 565.172724 388.967727 571.478374 391.579612 578.052394 391.579612 
z
" clip-path="url(#p9a847a06f8)" style="fill: #5e4fa2; opacity: 0.5"/>
   </g>
   <g id="line2d_1">
    <path d="M 614.983483 734.52221 
L 474.67564 726.721057 
" clip-path="url(#p9a847a06f8)" style="fill: none; stroke: #808080; stroke-opacity: 0.3; stroke-width: 0.5; stroke-linecap: square"/>
   </g>
   <g id="line2d_2">
    <path d="M 614.983483 734.52221 
L 655.951037 782.876133 
" clip-path="url(#p9a847a06f8)" style="fill: none; stroke: #808080; stroke-opacity: 0.3; stroke-width: 0.5; stroke-linecap: square"/>
   </g>
   <g id="line2d_3">
    <path d="M 450.798944 347.397811 
L 447.051497 370.037991 
" clip-path="url(#p9a847a06f8)" style="fill: none; stroke: #808080; stroke-opacity: 0.3; stroke-width: 0.5; stroke-linecap: square"/>
   </g>
   <g id="line2d_4">
    <path d="M 450.798944 347.397811 
L 482.538063 344.477706 
" clip-path="url(#p9a847a06f8)" style="fill: none; stroke: #808080; stroke-opacity: 0.3; stroke-width: 0.5; stroke-linecap: square"/>
   </g>
   <g id="line2d_5">
    <path d="M 450.798944 347.397811 
L 449.142075 331.508067 
" clip-path="url(#p9a847a06f8)" style="fill: none; stroke: #808080; stroke-opacity: 0.3; stroke-width: 0.5; stroke-linecap: square"/>
   </g>
   <g id="line2d_6">
    <path d="M 466.450137 371.563127 
L 447.051497 370.037991 
" clip-path="url(#p9a847a06f8)" style="fill: none; stroke: #808080; stroke-opacity: 0.3; stroke-width: 0.5; stroke-linecap: square"/>
   </g>
   <g id="line2d_7">
    <path d="M 466.450137 371.563127 
L 482.538063 344.477706 
" clip-path="url(#p9a847a06f8)" style="fill: none; stroke: #808080; stroke-opacity: 0.3; stroke-width: 0.5; stroke-linecap: square"/>
   </g>
   <g id="line2d_8">
    <path d="M 466.450137 371.563127 
L 477.018564 380.810511 
" clip-path="url(#p9a847a06f8)" style="fill: none; stroke: #808080; stroke-opacity: 0.3; stroke-width: 0.5; stroke-linecap: square"/>
   </g>
   <g id="line2d_9">
    <path d="M 837.064234 527.78475 
L 474.67564 726.721057 
" clip-path="url(#p9a847a06f8)" style="fill: none; stroke: #808080; stroke-opacity: 0.3; stroke-width: 0.5; stroke-linecap: square"/>
   </g>
   <g id="line2d_10">
    <path d="M 837.064234 527.78475 
L 578.052394 366.790989 
" clip-path="url(#p9a847a06f8)" style="fill: none; stroke: #808080; stroke-opacity: 0.3; stroke-width: 0.5; stroke-linecap: square"/>
   </g>
   <g id="line2d_11">
    <path d="M 837.064234 527.78475 
L 655.951037 782.876133 
" clip-path="url(#p9a847a06f8)" style="fill: none; stroke: #808080; stroke-opacity: 0.3; stroke-width: 0.5; stroke-linecap: square"/>
   </g>
   <g id="line2d_12">
    <path d="M 837.064234 527.78475 
L 507.62254 526.164807 
" clip-path="url(#p9a847a06f8)" style="fill: none; stroke: #808080; stroke-opacity: 0.3; stroke-width: 0.5; stroke-linecap: square"/>
   </g>
   <g id="line2d_13">
    <path d="M 837.064234 527.78475 
L 517.548065 599.778823 
" clip-path="url(#p9a847a06f8)" style="fill: none; stroke: #808080; stroke-opacity: 0.3; stroke-width: 0.5; stroke-linecap: square"/>
   </g>
   <g id="line2d_14">
    <path d="M 837.064234 527.78475 
L 603.689936 284.479118 
" clip-path="url(#p9a847a06f8)" style="fill: none; stroke: #808080; stroke-opacity: 0.3; stroke-width: 0.5; stroke-linecap: square"/>
   </g>
   <g id="line2d_15">
    <path d="M 511.335881 367.343719 
L 482.538063 344.477706 
" clip-path="url(#p9a847a06f8)" style="fill: none; stroke: #808080; stroke-opacity: 0.3; stroke-width: 0.5; stroke-linecap: square"/>
   </g>
   <g id="line2d_16">
    <path d="M 511.335881 367.343719 
L 533.289496 338.447639 
" clip-path="url(#p9a847a06f8)" style="fill: none; stroke: #808080; stroke-opacity: 0.3; stroke-width: 0.5; stroke-linecap: square"/>
   </g>
   <g id="line2d_17">
    <path d="M 482.538063 344.477706 
L 488.712821 313.575819 
" clip-path="url(#p9a847a06f8)" style="fill: none; stroke: #808080; stroke-opacity: 0.3; stroke-width: 0.5; stroke-linecap: square"/>
   </g>
   <g id="line2d_18">
    <path d="M 482.538063 344.477706 
L 447.051497 370.037991 
" clip-path="url(#p9a847a06f8)" style="fill: none; stroke: #808080; stroke-opacity: 0.3; stroke-width: 0.5; stroke-linecap: square"/>
   </g>
   <g id="line2d_19">
    <path d="M 482.538063 344.477706 
L 449.142075 331.508067 
" clip-path="url(#p9a847a06f8)" style="fill: none; stroke: #808080; stroke-opacity: 0.3; stroke-width: 0.5; stroke-linecap: square"/>
   </g>
   <g id="line2d_20">
    <path d="M 482.538063 344.477706 
L 533.289496 338.447639 
" clip-path="url(#p9a847a06f8)" style="fill: none; stroke: #808080; stroke-opacity: 0.3; stroke-width: 0.5; stroke-linecap: square"/>
   </g>
   <g id="line2d_21">
    <path d="M 428.598344 388.491048 
L 447.051497 370.037991 
" clip-path="url(#p9a847a06f8)" style="fill: none; stroke: #808080; stroke-opacity: 0.3; stroke-width: 0.5; stroke-linecap: square"/>
   </g>
   <g id="line2d_22">
    <path d="M 554.134678 235.727124 
L 603.689936 284.479118 
" clip-path="url(#p9a847a06f8)" style="fill: none; stroke: #808080; stroke-opacity: 0.3; stroke-width: 0.5; stroke-linecap: square"/>
   </g>
   <g id="line2d_23">
    <path d="M 554.134678 235.727124 
L 538.487878 238.767098 
" clip-path="url(#p9a847a06f8)" style="fill: none; stroke: #808080; stroke-opacity: 0.3; stroke-width: 0.5; stroke-linecap: square"/>
   </g>
   <g id="line2d_24">
    <path d="M 447.051497 370.037991 
L 477.018564 380.810511 
" clip-path="url(#p9a847a06f8)" style="fill: none; stroke: #808080; stroke-opacity: 0.3; stroke-width: 0.5; stroke-linecap: square"/>
   </g>
   <g id="line2d_25">
    <path d="M 959.057214 1075.18695 
L 812.803903 928.623294 
" clip-path="url(#p9a847a06f8)" style="fill: none; stroke: #808080; stroke-opacity: 0.3; stroke-width: 0.5; stroke-linecap: square"/>
   </g>
   <g id="line2d_26">
    <path d="M 474.67564 726.721057 
L 655.951037 782.876133 
" clip-path="url(#p9a847a06f8)" style="fill: none; stroke: #808080; stroke-opacity: 0.3; stroke-width: 0.5; stroke-linecap: square"/>
   </g>
   <g id="line2d_27">
    <path d="M 474.67564 726.721057 
L 507.62254 526.164807 
" clip-path="url(#p9a847a06f8)" style="fill: none; stroke: #808080; stroke-opacity: 0.3; stroke-width: 0.5; stroke-linecap: square"/>
   </g>
   <g id="line2d_28">
    <path d="M 474.67564 726.721057 
L 517.548065 599.778823 
" clip-path="url(#p9a847a06f8)" style="fill: none; stroke: #808080; stroke-opacity: 0.3; stroke-width: 0.5; stroke-linecap: square"/>
   </g>
   <g id="line2d_29">
    <path d="M 486.726072 596.152386 
L 517.548065 599.778823 
" clip-path="url(#p9a847a06f8)" style="fill: none; stroke: #808080; stroke-opacity: 0.3; stroke-width: 0.5; stroke-linecap: square"/>
   </g>
   <g id="line2d_30">
    <path d="M 486.726072 596.152386 
L 451.658872 582.757528 
" clip-path="url(#p9a847a06f8)" style="fill: none; stroke: #808080; stroke-opacity: 0.3; stroke-width: 0.5; stroke-linecap: square"/>
   </g>
   <g id="line2d_31">
    <path d="M 753.273502 978.010249 
L 683.926646 896.536871 
" clip-path="url(#p9a847a06f8)" style="fill: none; stroke: #808080; stroke-opacity: 0.3; stroke-width: 0.5; stroke-linecap: square"/>
   </g>
   <g id="line2d_32">
    <path d="M 578.052394 366.790989 
L 603.689936 284.479118 
" clip-path="url(#p9a847a06f8)" style="fill: none; stroke: #808080; stroke-opacity: 0.3; stroke-width: 0.5; stroke-linecap: square"/>
   </g>
   <g id="line2d_33">
    <path d="M 578.052394 366.790989 
L 556.752797 404.858468 
" clip-path="url(#p9a847a06f8)" style="fill: none; stroke: #808080; stroke-opacity: 0.3; stroke-width: 0.5; stroke-linecap: square"/>
   </g>
   <g id="line2d_34">
    <path d="M 655.951037 782.876133 
L 683.926646 896.536871 
" clip-path="url(#p9a847a06f8)" style="fill: none; stroke: #808080; stroke-opacity: 0.3; stroke-width: 0.5; stroke-linecap: square"/>
   </g>
   <g id="line2d_35">
    <path d="M 812.803903 928.623294 
L 683.926646 896.536871 
" clip-path="url(#p9a847a06f8)" style="fill: none; stroke: #808080; stroke-opacity: 0.3; stroke-width: 0.5; stroke-linecap: square"/>
   </g>
   <g id="line2d_36">
    <path d="M 533.289496 338.447639 
L 603.689936 284.479118 
" clip-path="url(#p9a847a06f8)" style="fill: none; stroke: #808080; stroke-opacity: 0.3; stroke-width: 0.5; stroke-linecap: square"/>
   </g>
   <g id="text_1">
    <!-- NLD -->
    <g transform="translate(442.916138 333.163692) scale(0.06 -0.06)">
     <defs>
      <path id="DejaVuSans-4e" d="M 628 4666 
L 1478 4666 
L 3547 763 
L 3547 4666 
L 4159 4666 
L 4159 0 
L 3309 0 
L 1241 3903 
L 1241 0 
L 628 0 
L 628 4666 
z
" transform="scale(0.015625)"/>
      <path id="DejaVuSans-4c" d="M 628 4666 
L 1259 4666 
L 1259 531 
L 3531 531 
L 3531 0 
L 628 0 
L 628 4666 
z
" transform="scale(0.015625)"/>
      <path id="DejaVuSans-44" d="M 1259 4147 
L 1259 519 
L 2022 519 
Q 2988 519 3436 956 
Q 3884 1394 3884 2338 
Q 3884 3275 3436 3711 
Q 2988 4147 2022 4147 
L 1259 4147 
z
M 628 4666 
L 1925 4666 
Q 3281 4666 3915 4102 
Q 4550 3538 4550 2338 
Q 4550 1131 3912 565 
Q 3275 0 1925 0 
L 628 0 
L 628 4666 
z
" transform="scale(0.015625)"/>
     </defs>
     <use xlink:href="#DejaVuSans-4e"/>
     <use xlink:href="#DejaVuSans-4c" x="74.804688"/>
     <use xlink:href="#DejaVuSans-44" x="130.517578"/>
    </g>
   </g>
   <g id="text_2">
    <!-- UZB -->
    <g transform="translate(550.496391 406.514093) scale(0.06 -0.06)">
     <defs>
      <path id="DejaVuSans-55" d="M 556 4666 
L 1191 4666 
L 1191 1831 
Q 1191 1081 1462 751 
Q 1734 422 2344 422 
Q 2950 422 3222 751 
Q 3494 1081 3494 1831 
L 3494 4666 
L 4128 4666 
L 4128 1753 
Q 4128 841 3676 375 
Q 3225 -91 2344 -91 
Q 1459 -91 1007 375 
Q 556 841 556 1753 
L 556 4666 
z
" transform="scale(0.015625)"/>
      <path id="DejaVuSans-5a" d="M 359 4666 
L 4025 4666 
L 4025 4184 
L 1075 531 
L 4097 531 
L 4097 0 
L 288 0 
L 288 481 
L 3238 4134 
L 359 4134 
L 359 4666 
z
" transform="scale(0.015625)"/>
      <path id="DejaVuSans-42" d="M 1259 2228 
L 1259 519 
L 2272 519 
Q 2781 519 3026 730 
Q 3272 941 3272 1375 
Q 3272 1813 3026 2020 
Q 2781 2228 2272 2228 
L 1259 2228 
z
M 1259 4147 
L 1259 2741 
L 2194 2741 
Q 2656 2741 2882 2914 
Q 3109 3088 3109 3444 
Q 3109 3797 2882 3972 
Q 2656 4147 2194 4147 
L 1259 4147 
z
M 628 4666 
L 2241 4666 
Q 2963 4666 3353 4366 
Q 3744 4066 3744 3513 
Q 3744 3084 3544 2831 
Q 3344 2578 2956 2516 
Q 3422 2416 3680 2098 
Q 3938 1781 3938 1306 
Q 3938 681 3513 340 
Q 3088 0 2303 0 
L 628 0 
L 628 4666 
z
" transform="scale(0.015625)"/>
     </defs>
     <use xlink:href="#DejaVuSans-55"/>
     <use xlink:href="#DejaVuSans-5a" x="71.443359"/>
     <use xlink:href="#DejaVuSans-42" x="139.949219"/>
    </g>
   </g>
   <g id="text_3">
    <!-- ITA -->
    <g transform="translate(472.481533 382.466136) scale(0.06 -0.06)">
     <defs>
      <path id="DejaVuSans-49" d="M 628 4666 
L 1259 4666 
L 1259 0 
L 628 0 
L 628 4666 
z
" transform="scale(0.015625)"/>
      <path id="DejaVuSans-54" d="M -19 4666 
L 3928 4666 
L 3928 4134 
L 2272 4134 
L 2272 0 
L 1638 0 
L 1638 4134 
L -19 4134 
L -19 4666 
z
" transform="scale(0.015625)"/>
      <path id="DejaVuSans-41" d="M 2188 4044 
L 1331 1722 
L 3047 1722 
L 2188 4044 
z
M 1831 4666 
L 2547 4666 
L 4325 0 
L 3669 0 
L 3244 1197 
L 1141 1197 
L 716 0 
L 50 0 
L 1831 4666 
z
" transform="scale(0.015625)"/>
     </defs>
     <use xlink:href="#DejaVuSans-49"/>
     <use xlink:href="#DejaVuSans-54" x="29.492188"/>
     <use xlink:href="#DejaVuSans-41" x="82.826172"/>
    </g>
   </g>
   <g id="text_4">
    <!-- FRA -->
    <g transform="translate(441.309309 371.693616) scale(0.06 -0.06)">
     <defs>
      <path id="DejaVuSans-46" d="M 628 4666 
L 3309 4666 
L 3309 4134 
L 1259 4134 
L 1259 2759 
L 3109 2759 
L 3109 2228 
L 1259 2228 
L 1259 0 
L 628 0 
L 628 4666 
z
" transform="scale(0.015625)"/>
      <path id="DejaVuSans-52" d="M 2841 2188 
Q 3044 2119 3236 1894 
Q 3428 1669 3622 1275 
L 4263 0 
L 3584 0 
L 2988 1197 
Q 2756 1666 2539 1819 
Q 2322 1972 1947 1972 
L 1259 1972 
L 1259 0 
L 628 0 
L 628 4666 
L 2053 4666 
Q 2853 4666 3247 4331 
Q 3641 3997 3641 3322 
Q 3641 2881 3436 2590 
Q 3231 2300 2841 2188 
z
M 1259 4147 
L 1259 2491 
L 2053 2491 
Q 2509 2491 2742 2702 
Q 2975 2913 2975 3322 
Q 2975 3731 2742 3939 
Q 2509 4147 2053 4147 
L 1259 4147 
z
" transform="scale(0.015625)"/>
     </defs>
     <use xlink:href="#DejaVuSans-46"/>
     <use xlink:href="#DejaVuSans-52" x="57.519531"/>
     <use xlink:href="#DejaVuSans-41" x="123.001953"/>
    </g>
   </g>
   <g id="text_5">
    <!-- DEU -->
    <g transform="translate(476.136813 346.133331) scale(0.06 -0.06)">
     <defs>
      <path id="DejaVuSans-45" d="M 628 4666 
L 3578 4666 
L 3578 4134 
L 1259 4134 
L 1259 2753 
L 3481 2753 
L 3481 2222 
L 1259 2222 
L 1259 531 
L 3634 531 
L 3634 0 
L 628 0 
L 628 4666 
z
" transform="scale(0.015625)"/>
     </defs>
     <use xlink:href="#DejaVuSans-44"/>
     <use xlink:href="#DejaVuSans-45" x="77.001953"/>
     <use xlink:href="#DejaVuSans-55" x="140.185547"/>
    </g>
   </g>
   <g id="text_6">
    <!-- THA -->
    <g transform="translate(677.786021 898.192496) scale(0.06 -0.06)">
     <defs>
      <path id="DejaVuSans-48" d="M 628 4666 
L 1259 4666 
L 1259 2753 
L 3553 2753 
L 3553 4666 
L 4184 4666 
L 4184 0 
L 3553 0 
L 3553 2222 
L 1259 2222 
L 1259 0 
L 628 0 
L 628 4666 
z
" transform="scale(0.015625)"/>
     </defs>
     <use xlink:href="#DejaVuSans-54"/>
     <use xlink:href="#DejaVuSans-48" x="61.083984"/>
     <use xlink:href="#DejaVuSans-41" x="136.279297"/>
    </g>
   </g>
   <g id="text_7">
    <!-- CHN -->
    <g transform="translate(830.468921 529.440375) scale(0.06 -0.06)">
     <defs>
      <path id="DejaVuSans-43" d="M 4122 4306 
L 4122 3641 
Q 3803 3938 3442 4084 
Q 3081 4231 2675 4231 
Q 1875 4231 1450 3742 
Q 1025 3253 1025 2328 
Q 1025 1406 1450 917 
Q 1875 428 2675 428 
Q 3081 428 3442 575 
Q 3803 722 4122 1019 
L 4122 359 
Q 3791 134 3420 21 
Q 3050 -91 2638 -91 
Q 1578 -91 968 557 
Q 359 1206 359 2328 
Q 359 3453 968 4101 
Q 1578 4750 2638 4750 
Q 3056 4750 3426 4639 
Q 3797 4528 4122 4306 
z
" transform="scale(0.015625)"/>
     </defs>
     <use xlink:href="#DejaVuSans-43"/>
     <use xlink:href="#DejaVuSans-48" x="69.824219"/>
     <use xlink:href="#DejaVuSans-4e" x="145.019531"/>
    </g>
   </g>
   <g id="text_8">
    <!-- PAK -->
    <g transform="translate(511.910878 601.434448) scale(0.06 -0.06)">
     <defs>
      <path id="DejaVuSans-50" d="M 1259 4147 
L 1259 2394 
L 2053 2394 
Q 2494 2394 2734 2622 
Q 2975 2850 2975 3272 
Q 2975 3691 2734 3919 
Q 2494 4147 2053 4147 
L 1259 4147 
z
M 628 4666 
L 2053 4666 
Q 2838 4666 3239 4311 
Q 3641 3956 3641 3272 
Q 3641 2581 3239 2228 
Q 2838 1875 2053 1875 
L 1259 1875 
L 1259 0 
L 628 0 
L 628 4666 
z
" transform="scale(0.015625)"/>
      <path id="DejaVuSans-4b" d="M 628 4666 
L 1259 4666 
L 1259 2694 
L 3353 4666 
L 4166 4666 
L 1850 2491 
L 4331 0 
L 3500 0 
L 1259 2247 
L 1259 0 
L 628 0 
L 628 4666 
z
" transform="scale(0.015625)"/>
     </defs>
     <use xlink:href="#DejaVuSans-50"/>
     <use xlink:href="#DejaVuSans-41" x="53.927734"/>
     <use xlink:href="#DejaVuSans-4b" x="122.335938"/>
    </g>
   </g>
   <g id="text_9">
    <!-- SWE -->
    <g transform="translate(531.721472 240.422723) scale(0.06 -0.06)">
     <defs>
      <path id="DejaVuSans-53" d="M 3425 4513 
L 3425 3897 
Q 3066 4069 2747 4153 
Q 2428 4238 2131 4238 
Q 1616 4238 1336 4038 
Q 1056 3838 1056 3469 
Q 1056 3159 1242 3001 
Q 1428 2844 1947 2747 
L 2328 2669 
Q 3034 2534 3370 2195 
Q 3706 1856 3706 1288 
Q 3706 609 3251 259 
Q 2797 -91 1919 -91 
Q 1588 -91 1214 -16 
Q 841 59 441 206 
L 441 856 
Q 825 641 1194 531 
Q 1563 422 1919 422 
Q 2459 422 2753 634 
Q 3047 847 3047 1241 
Q 3047 1584 2836 1778 
Q 2625 1972 2144 2069 
L 1759 2144 
Q 1053 2284 737 2584 
Q 422 2884 422 3419 
Q 422 4038 858 4394 
Q 1294 4750 2059 4750 
Q 2388 4750 2728 4690 
Q 3069 4631 3425 4513 
z
" transform="scale(0.015625)"/>
      <path id="DejaVuSans-57" d="M 213 4666 
L 850 4666 
L 1831 722 
L 2809 4666 
L 3519 4666 
L 4500 722 
L 5478 4666 
L 6119 4666 
L 4947 0 
L 4153 0 
L 3169 4050 
L 2175 0 
L 1381 0 
L 213 4666 
z
" transform="scale(0.015625)"/>
     </defs>
     <use xlink:href="#DejaVuSans-53"/>
     <use xlink:href="#DejaVuSans-57" x="63.476562"/>
     <use xlink:href="#DejaVuSans-45" x="162.353516"/>
    </g>
   </g>
   <g id="text_10">
    <!-- FIN -->
    <g transform="translate(549.279834 237.382749) scale(0.06 -0.06)">
     <use xlink:href="#DejaVuSans-46"/>
     <use xlink:href="#DejaVuSans-49" x="57.519531"/>
     <use xlink:href="#DejaVuSans-4e" x="87.011719"/>
    </g>
   </g>
   <g id="text_11">
    <!-- ESP -->
    <g transform="translate(422.989282 390.146673) scale(0.06 -0.06)">
     <use xlink:href="#DejaVuSans-45"/>
     <use xlink:href="#DejaVuSans-53" x="63.183594"/>
     <use xlink:href="#DejaVuSans-50" x="126.660156"/>
    </g>
   </g>
   <g id="text_12">
    <!-- MMR -->
    <g transform="translate(648.689631 784.531758) scale(0.06 -0.06)">
     <defs>
      <path id="DejaVuSans-4d" d="M 628 4666 
L 1569 4666 
L 2759 1491 
L 3956 4666 
L 4897 4666 
L 4897 0 
L 4281 0 
L 4281 4097 
L 3078 897 
L 2444 897 
L 1241 4097 
L 1241 0 
L 628 0 
L 628 4666 
z
" transform="scale(0.015625)"/>
     </defs>
     <use xlink:href="#DejaVuSans-4d"/>
     <use xlink:href="#DejaVuSans-4d" x="86.279297"/>
     <use xlink:href="#DejaVuSans-52" x="172.558594"/>
    </g>
   </g>
   <g id="text_13">
    <!-- NPL -->
    <g transform="translate(501.897697 527.820432) scale(0.06 -0.06)">
     <use xlink:href="#DejaVuSans-4e"/>
     <use xlink:href="#DejaVuSans-50" x="74.804688"/>
     <use xlink:href="#DejaVuSans-4c" x="135.107422"/>
    </g>
   </g>
   <g id="text_14">
    <!-- DNK -->
    <g transform="translate(482.191102 315.231444) scale(0.06 -0.06)">
     <use xlink:href="#DejaVuSans-44"/>
     <use xlink:href="#DejaVuSans-4e" x="77.001953"/>
     <use xlink:href="#DejaVuSans-4b" x="151.806641"/>
    </g>
   </g>
   <g id="text_15">
    <!-- BEL -->
    <g transform="translate(445.173475 349.053436) scale(0.06 -0.06)">
     <use xlink:href="#DejaVuSans-42"/>
     <use xlink:href="#DejaVuSans-45" x="68.603516"/>
     <use xlink:href="#DejaVuSans-4c" x="131.787109"/>
    </g>
   </g>
   <g id="text_16">
    <!-- BGD -->
    <g transform="translate(608.34317 736.177835) scale(0.06 -0.06)">
     <defs>
      <path id="DejaVuSans-47" d="M 3809 666 
L 3809 1919 
L 2778 1919 
L 2778 2438 
L 4434 2438 
L 4434 434 
Q 4069 175 3628 42 
Q 3188 -91 2688 -91 
Q 1594 -91 976 548 
Q 359 1188 359 2328 
Q 359 3472 976 4111 
Q 1594 4750 2688 4750 
Q 3144 4750 3555 4637 
Q 3966 4525 4313 4306 
L 4313 3634 
Q 3963 3931 3569 4081 
Q 3175 4231 2741 4231 
Q 1884 4231 1454 3753 
Q 1025 3275 1025 2328 
Q 1025 1384 1454 906 
Q 1884 428 2741 428 
Q 3075 428 3337 486 
Q 3600 544 3809 666 
z
" transform="scale(0.015625)"/>
     </defs>
     <use xlink:href="#DejaVuSans-42"/>
     <use xlink:href="#DejaVuSans-47" x="66.853516"/>
     <use xlink:href="#DejaVuSans-44" x="144.34375"/>
    </g>
   </g>
   <g id="text_17">
    <!-- CZE -->
    <g transform="translate(505.290412 368.999344) scale(0.06 -0.06)">
     <use xlink:href="#DejaVuSans-43"/>
     <use xlink:href="#DejaVuSans-5a" x="69.824219"/>
     <use xlink:href="#DejaVuSans-45" x="138.330078"/>
    </g>
   </g>
   <g id="text_18">
    <!-- IRN -->
    <g transform="translate(481.512166 597.808011) scale(0.06 -0.06)">
     <use xlink:href="#DejaVuSans-49"/>
     <use xlink:href="#DejaVuSans-52" x="29.492188"/>
     <use xlink:href="#DejaVuSans-4e" x="98.974609"/>
    </g>
   </g>
   <g id="text_19">
    <!-- RUS -->
    <g transform="translate(597.505248 286.134743) scale(0.06 -0.06)">
     <use xlink:href="#DejaVuSans-52"/>
     <use xlink:href="#DejaVuSans-55" x="69.482422"/>
     <use xlink:href="#DejaVuSans-53" x="142.675781"/>
    </g>
   </g>
   <g id="text_20">
    <!-- MYS -->
    <g transform="translate(806.478591 930.278919) scale(0.06 -0.06)">
     <defs>
      <path id="DejaVuSans-59" d="M -13 4666 
L 666 4666 
L 1959 2747 
L 3244 4666 
L 3922 4666 
L 2272 2222 
L 2272 0 
L 1638 0 
L 1638 2222 
L -13 4666 
z
" transform="scale(0.015625)"/>
     </defs>
     <use xlink:href="#DejaVuSans-4d"/>
     <use xlink:href="#DejaVuSans-59" x="86.279297"/>
     <use xlink:href="#DejaVuSans-53" x="147.363281"/>
    </g>
   </g>
   <g id="text_21">
    <!-- POL -->
    <g transform="translate(527.447465 340.103264) scale(0.06 -0.06)">
     <defs>
      <path id="DejaVuSans-4f" d="M 2522 4238 
Q 1834 4238 1429 3725 
Q 1025 3213 1025 2328 
Q 1025 1447 1429 934 
Q 1834 422 2522 422 
Q 3209 422 3611 934 
Q 4013 1447 4013 2328 
Q 4013 3213 3611 3725 
Q 3209 4238 2522 4238 
z
M 2522 4750 
Q 3503 4750 4090 4092 
Q 4678 3434 4678 2328 
Q 4678 1225 4090 567 
Q 3503 -91 2522 -91 
Q 1538 -91 948 565 
Q 359 1222 359 2328 
Q 359 3434 948 4092 
Q 1538 4750 2522 4750 
z
" transform="scale(0.015625)"/>
     </defs>
     <use xlink:href="#DejaVuSans-50"/>
     <use xlink:href="#DejaVuSans-4f" x="60.302734"/>
     <use xlink:href="#DejaVuSans-4c" x="139.013672"/>
    </g>
   </g>
   <g id="text_22">
    <!-- IND -->
    <g transform="translate(469.236265 728.376682) scale(0.06 -0.06)">
     <use xlink:href="#DejaVuSans-49"/>
     <use xlink:href="#DejaVuSans-4e" x="29.492188"/>
     <use xlink:href="#DejaVuSans-44" x="104.296875"/>
    </g>
   </g>
   <g id="text_23">
    <!-- KHM -->
    <g transform="translate(746.461627 979.665874) scale(0.06 -0.06)">
     <use xlink:href="#DejaVuSans-4b"/>
     <use xlink:href="#DejaVuSans-48" x="65.576172"/>
     <use xlink:href="#DejaVuSans-4d" x="140.771484"/>
    </g>
   </g>
   <g id="text_24">
    <!-- IDN -->
    <g transform="translate(953.617839 1076.842575) scale(0.06 -0.06)">
     <use xlink:href="#DejaVuSans-49"/>
     <use xlink:href="#DejaVuSans-44" x="29.492188"/>
     <use xlink:href="#DejaVuSans-4e" x="106.494141"/>
    </g>
   </g>
   <g id="text_25">
    <!-- CHE -->
    <g transform="translate(460.203575 373.218752) scale(0.06 -0.06)">
     <use xlink:href="#DejaVuSans-43"/>
     <use xlink:href="#DejaVuSans-48" x="69.824219"/>
     <use xlink:href="#DejaVuSans-45" x="145.019531"/>
    </g>
   </g>
   <g id="text_26">
    <!-- TUR -->
    <g transform="translate(445.546372 584.413153) scale(0.06 -0.06)">
     <use xlink:href="#DejaVuSans-54"/>
     <use xlink:href="#DejaVuSans-55" x="61.083984"/>
     <use xlink:href="#DejaVuSans-52" x="134.277344"/>
    </g>
   </g>
   <g id="text_27">
    <!-- KAZ -->
    <g transform="translate(572.030363 368.446614) scale(0.06 -0.06)">
     <use xlink:href="#DejaVuSans-4b"/>
     <use xlink:href="#DejaVuSans-41" x="63.826172"/>
     <use xlink:href="#DejaVuSans-5a" x="132.234375"/>
    </g>
   </g>
   <g id="text_28">
    <!-- A:11.27 -->
    <g transform="translate(544.829561 730.621634) scale(0.04 -0.04)">
     <defs>
      <path id="DejaVuSans-3a" d="M 750 794 
L 1409 794 
L 1409 0 
L 750 0 
L 750 794 
z
M 750 3309 
L 1409 3309 
L 1409 2516 
L 750 2516 
L 750 3309 
z
" transform="scale(0.015625)"/>
      <path id="DejaVuSans-31" d="M 794 531 
L 1825 531 
L 1825 4091 
L 703 3866 
L 703 4441 
L 1819 4666 
L 2450 4666 
L 2450 531 
L 3481 531 
L 3481 0 
L 794 0 
L 794 531 
z
" transform="scale(0.015625)"/>
      <path id="DejaVuSans-2e" d="M 684 794 
L 1344 794 
L 1344 0 
L 684 0 
L 684 794 
z
" transform="scale(0.015625)"/>
      <path id="DejaVuSans-32" d="M 1228 531 
L 3431 531 
L 3431 0 
L 469 0 
L 469 531 
Q 828 903 1448 1529 
Q 2069 2156 2228 2338 
Q 2531 2678 2651 2914 
Q 2772 3150 2772 3378 
Q 2772 3750 2511 3984 
Q 2250 4219 1831 4219 
Q 1534 4219 1204 4116 
Q 875 4013 500 3803 
L 500 4441 
Q 881 4594 1212 4672 
Q 1544 4750 1819 4750 
Q 2544 4750 2975 4387 
Q 3406 4025 3406 3419 
Q 3406 3131 3298 2873 
Q 3191 2616 2906 2266 
Q 2828 2175 2409 1742 
Q 1991 1309 1228 531 
z
" transform="scale(0.015625)"/>
      <path id="DejaVuSans-37" d="M 525 4666 
L 3525 4666 
L 3525 4397 
L 1831 0 
L 1172 0 
L 2766 4134 
L 525 4134 
L 525 4666 
z
" transform="scale(0.015625)"/>
     </defs>
     <use xlink:href="#DejaVuSans-41"/>
     <use xlink:href="#DejaVuSans-3a" x="66.658203"/>
     <use xlink:href="#DejaVuSans-31" x="100.349609"/>
     <use xlink:href="#DejaVuSans-31" x="163.972656"/>
     <use xlink:href="#DejaVuSans-2e" x="227.595703"/>
     <use xlink:href="#DejaVuSans-32" x="259.382812"/>
     <use xlink:href="#DejaVuSans-37" x="323.005859"/>
    </g>
   </g>
   <g id="text_29">
    <!-- A:19.83 -->
    <g transform="translate(635.46726 758.699172) scale(0.04 -0.04)">
     <defs>
      <path id="DejaVuSans-39" d="M 703 97 
L 703 672 
Q 941 559 1184 500 
Q 1428 441 1663 441 
Q 2288 441 2617 861 
Q 2947 1281 2994 2138 
Q 2813 1869 2534 1725 
Q 2256 1581 1919 1581 
Q 1219 1581 811 2004 
Q 403 2428 403 3163 
Q 403 3881 828 4315 
Q 1253 4750 1959 4750 
Q 2769 4750 3195 4129 
Q 3622 3509 3622 2328 
Q 3622 1225 3098 567 
Q 2575 -91 1691 -91 
Q 1453 -91 1209 -44 
Q 966 3 703 97 
z
M 1959 2075 
Q 2384 2075 2632 2365 
Q 2881 2656 2881 3163 
Q 2881 3666 2632 3958 
Q 2384 4250 1959 4250 
Q 1534 4250 1286 3958 
Q 1038 3666 1038 3163 
Q 1038 2656 1286 2365 
Q 1534 2075 1959 2075 
z
" transform="scale(0.015625)"/>
      <path id="DejaVuSans-38" d="M 2034 2216 
Q 1584 2216 1326 1975 
Q 1069 1734 1069 1313 
Q 1069 891 1326 650 
Q 1584 409 2034 409 
Q 2484 409 2743 651 
Q 3003 894 3003 1313 
Q 3003 1734 2745 1975 
Q 2488 2216 2034 2216 
z
M 1403 2484 
Q 997 2584 770 2862 
Q 544 3141 544 3541 
Q 544 4100 942 4425 
Q 1341 4750 2034 4750 
Q 2731 4750 3128 4425 
Q 3525 4100 3525 3541 
Q 3525 3141 3298 2862 
Q 3072 2584 2669 2484 
Q 3125 2378 3379 2068 
Q 3634 1759 3634 1313 
Q 3634 634 3220 271 
Q 2806 -91 2034 -91 
Q 1263 -91 848 271 
Q 434 634 434 1313 
Q 434 1759 690 2068 
Q 947 2378 1403 2484 
z
M 1172 3481 
Q 1172 3119 1398 2916 
Q 1625 2713 2034 2713 
Q 2441 2713 2670 2916 
Q 2900 3119 2900 3481 
Q 2900 3844 2670 4047 
Q 2441 4250 2034 4250 
Q 1625 4250 1398 4047 
Q 1172 3844 1172 3481 
z
" transform="scale(0.015625)"/>
      <path id="DejaVuSans-33" d="M 2597 2516 
Q 3050 2419 3304 2112 
Q 3559 1806 3559 1356 
Q 3559 666 3084 287 
Q 2609 -91 1734 -91 
Q 1441 -91 1130 -33 
Q 819 25 488 141 
L 488 750 
Q 750 597 1062 519 
Q 1375 441 1716 441 
Q 2309 441 2620 675 
Q 2931 909 2931 1356 
Q 2931 1769 2642 2001 
Q 2353 2234 1838 2234 
L 1294 2234 
L 1294 2753 
L 1863 2753 
Q 2328 2753 2575 2939 
Q 2822 3125 2822 3475 
Q 2822 3834 2567 4026 
Q 2313 4219 1838 4219 
Q 1578 4219 1281 4162 
Q 984 4106 628 3988 
L 628 4550 
Q 988 4650 1302 4700 
Q 1616 4750 1894 4750 
Q 2613 4750 3031 4423 
Q 3450 4097 3450 3541 
Q 3450 3153 3228 2886 
Q 3006 2619 2597 2516 
z
" transform="scale(0.015625)"/>
     </defs>
     <use xlink:href="#DejaVuSans-41"/>
     <use xlink:href="#DejaVuSans-3a" x="66.658203"/>
     <use xlink:href="#DejaVuSans-31" x="100.349609"/>
     <use xlink:href="#DejaVuSans-39" x="163.972656"/>
     <use xlink:href="#DejaVuSans-2e" x="227.595703"/>
     <use xlink:href="#DejaVuSans-38" x="259.382812"/>
     <use xlink:href="#DejaVuSans-33" x="323.005859"/>
    </g>
   </g>
   <g id="text_30">
    <!-- D:17.41 -->
    <g transform="translate(448.92522 354.238776) scale(0.04 -0.04)">
     <defs>
      <path id="DejaVuSans-34" d="M 2419 4116 
L 825 1625 
L 2419 1625 
L 2419 4116 
z
M 2253 4666 
L 3047 4666 
L 3047 1625 
L 3713 1625 
L 3713 1100 
L 3047 1100 
L 3047 0 
L 2419 0 
L 2419 1100 
L 313 1100 
L 313 1709 
L 2253 4666 
z
" transform="scale(0.015625)"/>
     </defs>
     <use xlink:href="#DejaVuSans-44"/>
     <use xlink:href="#DejaVuSans-3a" x="77.001953"/>
     <use xlink:href="#DejaVuSans-31" x="110.693359"/>
     <use xlink:href="#DejaVuSans-37" x="174.316406"/>
     <use xlink:href="#DejaVuSans-2e" x="237.939453"/>
     <use xlink:href="#DejaVuSans-34" x="269.726562"/>
     <use xlink:href="#DejaVuSans-31" x="333.349609"/>
    </g>
    <!-- A:7.35 -->
    <g transform="translate(448.92522 358.717901) scale(0.04 -0.04)">
     <defs>
      <path id="DejaVuSans-35" d="M 691 4666 
L 3169 4666 
L 3169 4134 
L 1269 4134 
L 1269 2991 
Q 1406 3038 1543 3061 
Q 1681 3084 1819 3084 
Q 2600 3084 3056 2656 
Q 3513 2228 3513 1497 
Q 3513 744 3044 326 
Q 2575 -91 1722 -91 
Q 1428 -91 1123 -41 
Q 819 9 494 109 
L 494 744 
Q 775 591 1075 516 
Q 1375 441 1709 441 
Q 2250 441 2565 725 
Q 2881 1009 2881 1497 
Q 2881 1984 2565 2268 
Q 2250 2553 1709 2553 
Q 1456 2553 1204 2497 
Q 953 2441 691 2322 
L 691 4666 
z
" transform="scale(0.015625)"/>
     </defs>
     <use xlink:href="#DejaVuSans-41"/>
     <use xlink:href="#DejaVuSans-3a" x="66.658203"/>
     <use xlink:href="#DejaVuSans-37" x="100.349609"/>
     <use xlink:href="#DejaVuSans-2e" x="163.972656"/>
     <use xlink:href="#DejaVuSans-33" x="195.759766"/>
     <use xlink:href="#DejaVuSans-35" x="259.382812"/>
    </g>
   </g>
   <g id="text_31">
    <!-- A:7.35 -->
    <g transform="translate(448.92522 358.717901) scale(0.04 -0.04)">
     <use xlink:href="#DejaVuSans-41"/>
     <use xlink:href="#DejaVuSans-3a" x="66.658203"/>
     <use xlink:href="#DejaVuSans-37" x="100.349609"/>
     <use xlink:href="#DejaVuSans-2e" x="163.972656"/>
     <use xlink:href="#DejaVuSans-33" x="195.759766"/>
     <use xlink:href="#DejaVuSans-35" x="259.382812"/>
    </g>
   </g>
   <g id="text_32">
    <!-- D:0.73 -->
    <g transform="translate(466.668504 341.458633) scale(0.04 -0.04)">
     <defs>
      <path id="DejaVuSans-30" d="M 2034 4250 
Q 1547 4250 1301 3770 
Q 1056 3291 1056 2328 
Q 1056 1369 1301 889 
Q 1547 409 2034 409 
Q 2525 409 2770 889 
Q 3016 1369 3016 2328 
Q 3016 3291 2770 3770 
Q 2525 4250 2034 4250 
z
M 2034 4750 
Q 2819 4750 3233 4129 
Q 3647 3509 3647 2328 
Q 3647 1150 3233 529 
Q 2819 -91 2034 -91 
Q 1250 -91 836 529 
Q 422 1150 422 2328 
Q 422 3509 836 4129 
Q 1250 4750 2034 4750 
z
" transform="scale(0.015625)"/>
     </defs>
     <use xlink:href="#DejaVuSans-44"/>
     <use xlink:href="#DejaVuSans-3a" x="77.001953"/>
     <use xlink:href="#DejaVuSans-30" x="110.693359"/>
     <use xlink:href="#DejaVuSans-2e" x="174.316406"/>
     <use xlink:href="#DejaVuSans-37" x="206.103516"/>
     <use xlink:href="#DejaVuSans-33" x="269.726562"/>
    </g>
    <!-- A:1.65 -->
    <g transform="translate(466.668504 345.937758) scale(0.04 -0.04)">
     <defs>
      <path id="DejaVuSans-36" d="M 2113 2584 
Q 1688 2584 1439 2293 
Q 1191 2003 1191 1497 
Q 1191 994 1439 701 
Q 1688 409 2113 409 
Q 2538 409 2786 701 
Q 3034 994 3034 1497 
Q 3034 2003 2786 2293 
Q 2538 2584 2113 2584 
z
M 3366 4563 
L 3366 3988 
Q 3128 4100 2886 4159 
Q 2644 4219 2406 4219 
Q 1781 4219 1451 3797 
Q 1122 3375 1075 2522 
Q 1259 2794 1537 2939 
Q 1816 3084 2150 3084 
Q 2853 3084 3261 2657 
Q 3669 2231 3669 1497 
Q 3669 778 3244 343 
Q 2819 -91 2113 -91 
Q 1303 -91 875 529 
Q 447 1150 447 2328 
Q 447 3434 972 4092 
Q 1497 4750 2381 4750 
Q 2619 4750 2861 4703 
Q 3103 4656 3366 4563 
z
" transform="scale(0.015625)"/>
     </defs>
     <use xlink:href="#DejaVuSans-41"/>
     <use xlink:href="#DejaVuSans-3a" x="66.658203"/>
     <use xlink:href="#DejaVuSans-31" x="100.349609"/>
     <use xlink:href="#DejaVuSans-2e" x="163.972656"/>
     <use xlink:href="#DejaVuSans-36" x="195.759766"/>
     <use xlink:href="#DejaVuSans-35" x="259.382812"/>
    </g>
   </g>
   <g id="text_33">
    <!-- A:1.65 -->
    <g transform="translate(466.668504 345.937758) scale(0.04 -0.04)">
     <use xlink:href="#DejaVuSans-41"/>
     <use xlink:href="#DejaVuSans-3a" x="66.658203"/>
     <use xlink:href="#DejaVuSans-31" x="100.349609"/>
     <use xlink:href="#DejaVuSans-2e" x="163.972656"/>
     <use xlink:href="#DejaVuSans-36" x="195.759766"/>
     <use xlink:href="#DejaVuSans-35" x="259.382812"/>
    </g>
   </g>
   <g id="text_34">
    <!-- D:0.08 -->
    <g transform="translate(449.97051 334.973814) scale(0.04 -0.04)">
     <use xlink:href="#DejaVuSans-44"/>
     <use xlink:href="#DejaVuSans-3a" x="77.001953"/>
     <use xlink:href="#DejaVuSans-30" x="110.693359"/>
     <use xlink:href="#DejaVuSans-2e" x="174.316406"/>
     <use xlink:href="#DejaVuSans-30" x="206.103516"/>
     <use xlink:href="#DejaVuSans-38" x="269.726562"/>
    </g>
    <!-- A:29.22 -->
    <g transform="translate(449.97051 339.452939) scale(0.04 -0.04)">
     <use xlink:href="#DejaVuSans-41"/>
     <use xlink:href="#DejaVuSans-3a" x="66.658203"/>
     <use xlink:href="#DejaVuSans-32" x="100.349609"/>
     <use xlink:href="#DejaVuSans-39" x="163.972656"/>
     <use xlink:href="#DejaVuSans-2e" x="227.595703"/>
     <use xlink:href="#DejaVuSans-32" x="259.382812"/>
     <use xlink:href="#DejaVuSans-32" x="323.005859"/>
    </g>
   </g>
   <g id="text_35">
    <!-- A:29.22 -->
    <g transform="translate(449.97051 339.452939) scale(0.04 -0.04)">
     <use xlink:href="#DejaVuSans-41"/>
     <use xlink:href="#DejaVuSans-3a" x="66.658203"/>
     <use xlink:href="#DejaVuSans-32" x="100.349609"/>
     <use xlink:href="#DejaVuSans-39" x="163.972656"/>
     <use xlink:href="#DejaVuSans-2e" x="227.595703"/>
     <use xlink:href="#DejaVuSans-32" x="259.382812"/>
     <use xlink:href="#DejaVuSans-32" x="323.005859"/>
    </g>
   </g>
   <g id="text_36">
    <!-- A:7.75 -->
    <g transform="translate(456.750817 370.800559) scale(0.04 -0.04)">
     <use xlink:href="#DejaVuSans-41"/>
     <use xlink:href="#DejaVuSans-3a" x="66.658203"/>
     <use xlink:href="#DejaVuSans-37" x="100.349609"/>
     <use xlink:href="#DejaVuSans-2e" x="163.972656"/>
     <use xlink:href="#DejaVuSans-37" x="195.759766"/>
     <use xlink:href="#DejaVuSans-35" x="259.382812"/>
    </g>
   </g>
   <g id="text_37">
    <!-- A:9.26 -->
    <g transform="translate(474.4941 358.020417) scale(0.04 -0.04)">
     <use xlink:href="#DejaVuSans-41"/>
     <use xlink:href="#DejaVuSans-3a" x="66.658203"/>
     <use xlink:href="#DejaVuSans-39" x="100.349609"/>
     <use xlink:href="#DejaVuSans-2e" x="163.972656"/>
     <use xlink:href="#DejaVuSans-32" x="195.759766"/>
     <use xlink:href="#DejaVuSans-36" x="259.382812"/>
    </g>
   </g>
   <g id="text_38">
    <!-- A:0.00 -->
    <g transform="translate(471.734351 376.186819) scale(0.04 -0.04)">
     <use xlink:href="#DejaVuSans-41"/>
     <use xlink:href="#DejaVuSans-3a" x="66.658203"/>
     <use xlink:href="#DejaVuSans-30" x="100.349609"/>
     <use xlink:href="#DejaVuSans-2e" x="163.972656"/>
     <use xlink:href="#DejaVuSans-30" x="195.759766"/>
     <use xlink:href="#DejaVuSans-30" x="259.382812"/>
    </g>
   </g>
   <g id="text_39">
    <!-- D:5.70 -->
    <g transform="translate(655.869937 622.773779) scale(0.04 -0.04)">
     <use xlink:href="#DejaVuSans-44"/>
     <use xlink:href="#DejaVuSans-3a" x="77.001953"/>
     <use xlink:href="#DejaVuSans-35" x="110.693359"/>
     <use xlink:href="#DejaVuSans-2e" x="174.316406"/>
     <use xlink:href="#DejaVuSans-37" x="206.103516"/>
     <use xlink:href="#DejaVuSans-30" x="269.726562"/>
    </g>
    <!-- A:0.33 -->
    <g transform="translate(655.869937 627.252904) scale(0.04 -0.04)">
     <use xlink:href="#DejaVuSans-41"/>
     <use xlink:href="#DejaVuSans-3a" x="66.658203"/>
     <use xlink:href="#DejaVuSans-30" x="100.349609"/>
     <use xlink:href="#DejaVuSans-2e" x="163.972656"/>
     <use xlink:href="#DejaVuSans-33" x="195.759766"/>
     <use xlink:href="#DejaVuSans-33" x="259.382812"/>
    </g>
   </g>
   <g id="text_40">
    <!-- A:0.33 -->
    <g transform="translate(655.869937 627.252904) scale(0.04 -0.04)">
     <use xlink:href="#DejaVuSans-41"/>
     <use xlink:href="#DejaVuSans-3a" x="66.658203"/>
     <use xlink:href="#DejaVuSans-30" x="100.349609"/>
     <use xlink:href="#DejaVuSans-2e" x="163.972656"/>
     <use xlink:href="#DejaVuSans-33" x="195.759766"/>
     <use xlink:href="#DejaVuSans-33" x="259.382812"/>
    </g>
   </g>
   <g id="text_41">
    <!-- D:0.93 -->
    <g transform="translate(707.558314 442.808744) scale(0.04 -0.04)">
     <use xlink:href="#DejaVuSans-44"/>
     <use xlink:href="#DejaVuSans-3a" x="77.001953"/>
     <use xlink:href="#DejaVuSans-30" x="110.693359"/>
     <use xlink:href="#DejaVuSans-2e" x="174.316406"/>
     <use xlink:href="#DejaVuSans-39" x="206.103516"/>
     <use xlink:href="#DejaVuSans-33" x="269.726562"/>
    </g>
    <!-- A:6.95 -->
    <g transform="translate(707.558314 447.287869) scale(0.04 -0.04)">
     <use xlink:href="#DejaVuSans-41"/>
     <use xlink:href="#DejaVuSans-3a" x="66.658203"/>
     <use xlink:href="#DejaVuSans-36" x="100.349609"/>
     <use xlink:href="#DejaVuSans-2e" x="163.972656"/>
     <use xlink:href="#DejaVuSans-39" x="195.759766"/>
     <use xlink:href="#DejaVuSans-35" x="259.382812"/>
    </g>
   </g>
   <g id="text_42">
    <!-- A:6.95 -->
    <g transform="translate(707.558314 447.287869) scale(0.04 -0.04)">
     <use xlink:href="#DejaVuSans-41"/>
     <use xlink:href="#DejaVuSans-3a" x="66.658203"/>
     <use xlink:href="#DejaVuSans-36" x="100.349609"/>
     <use xlink:href="#DejaVuSans-2e" x="163.972656"/>
     <use xlink:href="#DejaVuSans-39" x="195.759766"/>
     <use xlink:href="#DejaVuSans-35" x="259.382812"/>
    </g>
   </g>
   <g id="text_43">
    <!-- A:3.93 -->
    <g transform="translate(746.507635 655.330442) scale(0.04 -0.04)">
     <use xlink:href="#DejaVuSans-41"/>
     <use xlink:href="#DejaVuSans-3a" x="66.658203"/>
     <use xlink:href="#DejaVuSans-33" x="100.349609"/>
     <use xlink:href="#DejaVuSans-2e" x="163.972656"/>
     <use xlink:href="#DejaVuSans-39" x="195.759766"/>
     <use xlink:href="#DejaVuSans-33" x="259.382812"/>
    </g>
   </g>
   <g id="text_44">
    <!-- A:10.40 -->
    <g transform="translate(672.343387 526.974779) scale(0.04 -0.04)">
     <use xlink:href="#DejaVuSans-41"/>
     <use xlink:href="#DejaVuSans-3a" x="66.658203"/>
     <use xlink:href="#DejaVuSans-31" x="100.349609"/>
     <use xlink:href="#DejaVuSans-30" x="163.972656"/>
     <use xlink:href="#DejaVuSans-2e" x="227.595703"/>
     <use xlink:href="#DejaVuSans-34" x="259.382812"/>
     <use xlink:href="#DejaVuSans-30" x="323.005859"/>
    </g>
   </g>
   <g id="text_45">
    <!-- D:10.06 -->
    <g transform="translate(677.306149 559.302662) scale(0.04 -0.04)">
     <use xlink:href="#DejaVuSans-44"/>
     <use xlink:href="#DejaVuSans-3a" x="77.001953"/>
     <use xlink:href="#DejaVuSans-31" x="110.693359"/>
     <use xlink:href="#DejaVuSans-30" x="174.316406"/>
     <use xlink:href="#DejaVuSans-2e" x="237.939453"/>
     <use xlink:href="#DejaVuSans-30" x="269.726562"/>
     <use xlink:href="#DejaVuSans-36" x="333.349609"/>
    </g>
    <!-- A:2.54 -->
    <g transform="translate(677.306149 563.781787) scale(0.04 -0.04)">
     <use xlink:href="#DejaVuSans-41"/>
     <use xlink:href="#DejaVuSans-3a" x="66.658203"/>
     <use xlink:href="#DejaVuSans-32" x="100.349609"/>
     <use xlink:href="#DejaVuSans-2e" x="163.972656"/>
     <use xlink:href="#DejaVuSans-35" x="195.759766"/>
     <use xlink:href="#DejaVuSans-34" x="259.382812"/>
    </g>
   </g>
   <g id="text_46">
    <!-- A:2.54 -->
    <g transform="translate(677.306149 563.781787) scale(0.04 -0.04)">
     <use xlink:href="#DejaVuSans-41"/>
     <use xlink:href="#DejaVuSans-3a" x="66.658203"/>
     <use xlink:href="#DejaVuSans-32" x="100.349609"/>
     <use xlink:href="#DejaVuSans-2e" x="163.972656"/>
     <use xlink:href="#DejaVuSans-35" x="195.759766"/>
     <use xlink:href="#DejaVuSans-34" x="259.382812"/>
    </g>
   </g>
   <g id="text_47">
    <!-- A:18.05 -->
    <g transform="translate(720.377085 406.131934) scale(0.04 -0.04)">
     <use xlink:href="#DejaVuSans-41"/>
     <use xlink:href="#DejaVuSans-3a" x="66.658203"/>
     <use xlink:href="#DejaVuSans-31" x="100.349609"/>
     <use xlink:href="#DejaVuSans-38" x="163.972656"/>
     <use xlink:href="#DejaVuSans-2e" x="227.595703"/>
     <use xlink:href="#DejaVuSans-30" x="259.382812"/>
     <use xlink:href="#DejaVuSans-35" x="323.005859"/>
    </g>
   </g>
   <g id="text_48">
    <!-- D:0.11 -->
    <g transform="translate(496.936972 351.431588) scale(0.04 -0.04)">
     <use xlink:href="#DejaVuSans-44"/>
     <use xlink:href="#DejaVuSans-3a" x="77.001953"/>
     <use xlink:href="#DejaVuSans-30" x="110.693359"/>
     <use xlink:href="#DejaVuSans-2e" x="174.316406"/>
     <use xlink:href="#DejaVuSans-31" x="206.103516"/>
     <use xlink:href="#DejaVuSans-31" x="269.726562"/>
    </g>
    <!-- A:15.55 -->
    <g transform="translate(496.936972 355.910713) scale(0.04 -0.04)">
     <use xlink:href="#DejaVuSans-41"/>
     <use xlink:href="#DejaVuSans-3a" x="66.658203"/>
     <use xlink:href="#DejaVuSans-31" x="100.349609"/>
     <use xlink:href="#DejaVuSans-35" x="163.972656"/>
     <use xlink:href="#DejaVuSans-2e" x="227.595703"/>
     <use xlink:href="#DejaVuSans-35" x="259.382812"/>
     <use xlink:href="#DejaVuSans-35" x="323.005859"/>
    </g>
   </g>
   <g id="text_49">
    <!-- A:15.55 -->
    <g transform="translate(496.936972 355.910713) scale(0.04 -0.04)">
     <use xlink:href="#DejaVuSans-41"/>
     <use xlink:href="#DejaVuSans-3a" x="66.658203"/>
     <use xlink:href="#DejaVuSans-31" x="100.349609"/>
     <use xlink:href="#DejaVuSans-35" x="163.972656"/>
     <use xlink:href="#DejaVuSans-2e" x="227.595703"/>
     <use xlink:href="#DejaVuSans-35" x="259.382812"/>
     <use xlink:href="#DejaVuSans-35" x="323.005859"/>
    </g>
   </g>
   <g id="text_50">
    <!-- A:14.84 -->
    <g transform="translate(522.312689 352.895679) scale(0.04 -0.04)">
     <use xlink:href="#DejaVuSans-41"/>
     <use xlink:href="#DejaVuSans-3a" x="66.658203"/>
     <use xlink:href="#DejaVuSans-31" x="100.349609"/>
     <use xlink:href="#DejaVuSans-34" x="163.972656"/>
     <use xlink:href="#DejaVuSans-2e" x="227.595703"/>
     <use xlink:href="#DejaVuSans-38" x="259.382812"/>
     <use xlink:href="#DejaVuSans-34" x="323.005859"/>
    </g>
   </g>
   <g id="text_51">
    <!-- A:0.01 -->
    <g transform="translate(485.625442 329.026763) scale(0.04 -0.04)">
     <use xlink:href="#DejaVuSans-41"/>
     <use xlink:href="#DejaVuSans-3a" x="66.658203"/>
     <use xlink:href="#DejaVuSans-30" x="100.349609"/>
     <use xlink:href="#DejaVuSans-2e" x="163.972656"/>
     <use xlink:href="#DejaVuSans-30" x="195.759766"/>
     <use xlink:href="#DejaVuSans-31" x="259.382812"/>
    </g>
   </g>
   <g id="text_52">
    <!-- D:10.71 -->
    <g transform="translate(464.79478 352.778724) scale(0.04 -0.04)">
     <use xlink:href="#DejaVuSans-44"/>
     <use xlink:href="#DejaVuSans-3a" x="77.001953"/>
     <use xlink:href="#DejaVuSans-31" x="110.693359"/>
     <use xlink:href="#DejaVuSans-30" x="174.316406"/>
     <use xlink:href="#DejaVuSans-2e" x="237.939453"/>
     <use xlink:href="#DejaVuSans-37" x="269.726562"/>
     <use xlink:href="#DejaVuSans-31" x="333.349609"/>
    </g>
    <!-- A:0.13 -->
    <g transform="translate(464.79478 357.257849) scale(0.04 -0.04)">
     <use xlink:href="#DejaVuSans-41"/>
     <use xlink:href="#DejaVuSans-3a" x="66.658203"/>
     <use xlink:href="#DejaVuSans-30" x="100.349609"/>
     <use xlink:href="#DejaVuSans-2e" x="163.972656"/>
     <use xlink:href="#DejaVuSans-31" x="195.759766"/>
     <use xlink:href="#DejaVuSans-33" x="259.382812"/>
    </g>
   </g>
   <g id="text_53">
    <!-- A:0.13 -->
    <g transform="translate(464.79478 357.257849) scale(0.04 -0.04)">
     <use xlink:href="#DejaVuSans-41"/>
     <use xlink:href="#DejaVuSans-3a" x="66.658203"/>
     <use xlink:href="#DejaVuSans-30" x="100.349609"/>
     <use xlink:href="#DejaVuSans-2e" x="163.972656"/>
     <use xlink:href="#DejaVuSans-31" x="195.759766"/>
     <use xlink:href="#DejaVuSans-33" x="259.382812"/>
    </g>
   </g>
   <g id="text_54">
    <!-- A:2.16 -->
    <g transform="translate(465.840069 337.992887) scale(0.04 -0.04)">
     <use xlink:href="#DejaVuSans-41"/>
     <use xlink:href="#DejaVuSans-3a" x="66.658203"/>
     <use xlink:href="#DejaVuSans-32" x="100.349609"/>
     <use xlink:href="#DejaVuSans-2e" x="163.972656"/>
     <use xlink:href="#DejaVuSans-31" x="195.759766"/>
     <use xlink:href="#DejaVuSans-36" x="259.382812"/>
    </g>
   </g>
   <g id="text_55">
    <!-- A:0.88 -->
    <g transform="translate(507.91378 341.462673) scale(0.04 -0.04)">
     <use xlink:href="#DejaVuSans-41"/>
     <use xlink:href="#DejaVuSans-3a" x="66.658203"/>
     <use xlink:href="#DejaVuSans-30" x="100.349609"/>
     <use xlink:href="#DejaVuSans-2e" x="163.972656"/>
     <use xlink:href="#DejaVuSans-38" x="195.759766"/>
     <use xlink:href="#DejaVuSans-38" x="259.382812"/>
    </g>
   </g>
   <g id="text_56">
    <!-- A:0.00 -->
    <g transform="translate(437.824921 379.26452) scale(0.04 -0.04)">
     <use xlink:href="#DejaVuSans-41"/>
     <use xlink:href="#DejaVuSans-3a" x="66.658203"/>
     <use xlink:href="#DejaVuSans-30" x="100.349609"/>
     <use xlink:href="#DejaVuSans-2e" x="163.972656"/>
     <use xlink:href="#DejaVuSans-30" x="195.759766"/>
     <use xlink:href="#DejaVuSans-30" x="259.382812"/>
    </g>
   </g>
   <g id="text_57">
    <!-- D:3.57 -->
    <g transform="translate(578.912307 255.623996) scale(0.04 -0.04)">
     <use xlink:href="#DejaVuSans-44"/>
     <use xlink:href="#DejaVuSans-3a" x="77.001953"/>
     <use xlink:href="#DejaVuSans-33" x="110.693359"/>
     <use xlink:href="#DejaVuSans-2e" x="174.316406"/>
     <use xlink:href="#DejaVuSans-35" x="206.103516"/>
     <use xlink:href="#DejaVuSans-37" x="269.726562"/>
    </g>
    <!-- A:23.02 -->
    <g transform="translate(578.912307 260.103121) scale(0.04 -0.04)">
     <use xlink:href="#DejaVuSans-41"/>
     <use xlink:href="#DejaVuSans-3a" x="66.658203"/>
     <use xlink:href="#DejaVuSans-32" x="100.349609"/>
     <use xlink:href="#DejaVuSans-33" x="163.972656"/>
     <use xlink:href="#DejaVuSans-2e" x="227.595703"/>
     <use xlink:href="#DejaVuSans-30" x="259.382812"/>
     <use xlink:href="#DejaVuSans-32" x="323.005859"/>
    </g>
   </g>
   <g id="text_58">
    <!-- A:23.02 -->
    <g transform="translate(578.912307 260.103121) scale(0.04 -0.04)">
     <use xlink:href="#DejaVuSans-41"/>
     <use xlink:href="#DejaVuSans-3a" x="66.658203"/>
     <use xlink:href="#DejaVuSans-32" x="100.349609"/>
     <use xlink:href="#DejaVuSans-33" x="163.972656"/>
     <use xlink:href="#DejaVuSans-2e" x="227.595703"/>
     <use xlink:href="#DejaVuSans-30" x="259.382812"/>
     <use xlink:href="#DejaVuSans-32" x="323.005859"/>
    </g>
   </g>
   <g id="text_59">
    <!-- A:0.38 -->
    <g transform="translate(546.311278 237.247111) scale(0.04 -0.04)">
     <use xlink:href="#DejaVuSans-41"/>
     <use xlink:href="#DejaVuSans-3a" x="66.658203"/>
     <use xlink:href="#DejaVuSans-30" x="100.349609"/>
     <use xlink:href="#DejaVuSans-2e" x="163.972656"/>
     <use xlink:href="#DejaVuSans-33" x="195.759766"/>
     <use xlink:href="#DejaVuSans-38" x="259.382812"/>
    </g>
   </g>
   <g id="text_60">
    <!-- D:44.98 -->
    <g transform="translate(462.035031 370.945126) scale(0.04 -0.04)">
     <use xlink:href="#DejaVuSans-44"/>
     <use xlink:href="#DejaVuSans-3a" x="77.001953"/>
     <use xlink:href="#DejaVuSans-34" x="110.693359"/>
     <use xlink:href="#DejaVuSans-34" x="174.316406"/>
     <use xlink:href="#DejaVuSans-2e" x="237.939453"/>
     <use xlink:href="#DejaVuSans-39" x="269.726562"/>
     <use xlink:href="#DejaVuSans-38" x="333.349609"/>
    </g>
    <!-- A:1.82 -->
    <g transform="translate(462.035031 375.424251) scale(0.04 -0.04)">
     <use xlink:href="#DejaVuSans-41"/>
     <use xlink:href="#DejaVuSans-3a" x="66.658203"/>
     <use xlink:href="#DejaVuSans-31" x="100.349609"/>
     <use xlink:href="#DejaVuSans-2e" x="163.972656"/>
     <use xlink:href="#DejaVuSans-38" x="195.759766"/>
     <use xlink:href="#DejaVuSans-32" x="259.382812"/>
    </g>
   </g>
   <g id="text_61">
    <!-- A:1.82 -->
    <g transform="translate(462.035031 375.424251) scale(0.04 -0.04)">
     <use xlink:href="#DejaVuSans-41"/>
     <use xlink:href="#DejaVuSans-3a" x="66.658203"/>
     <use xlink:href="#DejaVuSans-31" x="100.349609"/>
     <use xlink:href="#DejaVuSans-2e" x="163.972656"/>
     <use xlink:href="#DejaVuSans-38" x="195.759766"/>
     <use xlink:href="#DejaVuSans-32" x="259.382812"/>
    </g>
   </g>
   <g id="text_62">
    <!-- A:0.03 -->
    <g transform="translate(885.930559 1001.905122) scale(0.04 -0.04)">
     <use xlink:href="#DejaVuSans-41"/>
     <use xlink:href="#DejaVuSans-3a" x="66.658203"/>
     <use xlink:href="#DejaVuSans-30" x="100.349609"/>
     <use xlink:href="#DejaVuSans-2e" x="163.972656"/>
     <use xlink:href="#DejaVuSans-30" x="195.759766"/>
     <use xlink:href="#DejaVuSans-33" x="259.382812"/>
    </g>
   </g>
   <g id="text_63">
    <!-- D:26.52 -->
    <g transform="translate(565.313338 750.31947) scale(0.04 -0.04)">
     <use xlink:href="#DejaVuSans-44"/>
     <use xlink:href="#DejaVuSans-3a" x="77.001953"/>
     <use xlink:href="#DejaVuSans-32" x="110.693359"/>
     <use xlink:href="#DejaVuSans-36" x="174.316406"/>
     <use xlink:href="#DejaVuSans-2e" x="237.939453"/>
     <use xlink:href="#DejaVuSans-35" x="269.726562"/>
     <use xlink:href="#DejaVuSans-32" x="333.349609"/>
    </g>
    <!-- A:12.58 -->
    <g transform="translate(565.313338 754.798595) scale(0.04 -0.04)">
     <use xlink:href="#DejaVuSans-41"/>
     <use xlink:href="#DejaVuSans-3a" x="66.658203"/>
     <use xlink:href="#DejaVuSans-31" x="100.349609"/>
     <use xlink:href="#DejaVuSans-32" x="163.972656"/>
     <use xlink:href="#DejaVuSans-2e" x="227.595703"/>
     <use xlink:href="#DejaVuSans-35" x="259.382812"/>
     <use xlink:href="#DejaVuSans-38" x="323.005859"/>
    </g>
   </g>
   <g id="text_64">
    <!-- A:12.58 -->
    <g transform="translate(565.313338 754.798595) scale(0.04 -0.04)">
     <use xlink:href="#DejaVuSans-41"/>
     <use xlink:href="#DejaVuSans-3a" x="66.658203"/>
     <use xlink:href="#DejaVuSans-31" x="100.349609"/>
     <use xlink:href="#DejaVuSans-32" x="163.972656"/>
     <use xlink:href="#DejaVuSans-2e" x="227.595703"/>
     <use xlink:href="#DejaVuSans-35" x="259.382812"/>
     <use xlink:href="#DejaVuSans-38" x="323.005859"/>
    </g>
   </g>
   <g id="text_65">
    <!-- D:21.84 -->
    <g transform="translate(491.14909 621.963807) scale(0.04 -0.04)">
     <use xlink:href="#DejaVuSans-44"/>
     <use xlink:href="#DejaVuSans-3a" x="77.001953"/>
     <use xlink:href="#DejaVuSans-32" x="110.693359"/>
     <use xlink:href="#DejaVuSans-31" x="174.316406"/>
     <use xlink:href="#DejaVuSans-2e" x="237.939453"/>
     <use xlink:href="#DejaVuSans-38" x="269.726562"/>
     <use xlink:href="#DejaVuSans-34" x="333.349609"/>
    </g>
    <!-- A:17.70 -->
    <g transform="translate(491.14909 626.442932) scale(0.04 -0.04)">
     <use xlink:href="#DejaVuSans-41"/>
     <use xlink:href="#DejaVuSans-3a" x="66.658203"/>
     <use xlink:href="#DejaVuSans-31" x="100.349609"/>
     <use xlink:href="#DejaVuSans-37" x="163.972656"/>
     <use xlink:href="#DejaVuSans-2e" x="227.595703"/>
     <use xlink:href="#DejaVuSans-37" x="259.382812"/>
     <use xlink:href="#DejaVuSans-30" x="323.005859"/>
    </g>
   </g>
   <g id="text_66">
    <!-- A:17.70 -->
    <g transform="translate(491.14909 626.442932) scale(0.04 -0.04)">
     <use xlink:href="#DejaVuSans-41"/>
     <use xlink:href="#DejaVuSans-3a" x="66.658203"/>
     <use xlink:href="#DejaVuSans-31" x="100.349609"/>
     <use xlink:href="#DejaVuSans-37" x="163.972656"/>
     <use xlink:href="#DejaVuSans-2e" x="227.595703"/>
     <use xlink:href="#DejaVuSans-37" x="259.382812"/>
     <use xlink:href="#DejaVuSans-30" x="323.005859"/>
    </g>
   </g>
   <g id="text_67">
    <!-- D:0.00 -->
    <g transform="translate(496.111853 658.770815) scale(0.04 -0.04)">
     <use xlink:href="#DejaVuSans-44"/>
     <use xlink:href="#DejaVuSans-3a" x="77.001953"/>
     <use xlink:href="#DejaVuSans-30" x="110.693359"/>
     <use xlink:href="#DejaVuSans-2e" x="174.316406"/>
     <use xlink:href="#DejaVuSans-30" x="206.103516"/>
     <use xlink:href="#DejaVuSans-30" x="269.726562"/>
    </g>
    <!-- A:29.81 -->
    <g transform="translate(496.111853 663.24994) scale(0.04 -0.04)">
     <use xlink:href="#DejaVuSans-41"/>
     <use xlink:href="#DejaVuSans-3a" x="66.658203"/>
     <use xlink:href="#DejaVuSans-32" x="100.349609"/>
     <use xlink:href="#DejaVuSans-39" x="163.972656"/>
     <use xlink:href="#DejaVuSans-2e" x="227.595703"/>
     <use xlink:href="#DejaVuSans-38" x="259.382812"/>
     <use xlink:href="#DejaVuSans-31" x="323.005859"/>
    </g>
   </g>
   <g id="text_68">
    <!-- A:29.81 -->
    <g transform="translate(496.111853 663.24994) scale(0.04 -0.04)">
     <use xlink:href="#DejaVuSans-41"/>
     <use xlink:href="#DejaVuSans-3a" x="66.658203"/>
     <use xlink:href="#DejaVuSans-32" x="100.349609"/>
     <use xlink:href="#DejaVuSans-39" x="163.972656"/>
     <use xlink:href="#DejaVuSans-2e" x="227.595703"/>
     <use xlink:href="#DejaVuSans-38" x="259.382812"/>
     <use xlink:href="#DejaVuSans-31" x="323.005859"/>
    </g>
   </g>
   <g id="text_69">
    <!-- A:0.00 -->
    <g transform="translate(502.137069 597.965604) scale(0.04 -0.04)">
     <use xlink:href="#DejaVuSans-41"/>
     <use xlink:href="#DejaVuSans-3a" x="66.658203"/>
     <use xlink:href="#DejaVuSans-30" x="100.349609"/>
     <use xlink:href="#DejaVuSans-2e" x="163.972656"/>
     <use xlink:href="#DejaVuSans-30" x="195.759766"/>
     <use xlink:href="#DejaVuSans-30" x="259.382812"/>
    </g>
   </g>
   <g id="text_70">
    <!-- A:0.19 -->
    <g transform="translate(469.192472 589.454957) scale(0.04 -0.04)">
     <use xlink:href="#DejaVuSans-41"/>
     <use xlink:href="#DejaVuSans-3a" x="66.658203"/>
     <use xlink:href="#DejaVuSans-30" x="100.349609"/>
     <use xlink:href="#DejaVuSans-2e" x="163.972656"/>
     <use xlink:href="#DejaVuSans-31" x="195.759766"/>
     <use xlink:href="#DejaVuSans-39" x="259.382812"/>
    </g>
   </g>
   <g id="text_71">
    <!-- A:15.44 -->
    <g transform="translate(718.600074 937.27356) scale(0.04 -0.04)">
     <use xlink:href="#DejaVuSans-41"/>
     <use xlink:href="#DejaVuSans-3a" x="66.658203"/>
     <use xlink:href="#DejaVuSans-31" x="100.349609"/>
     <use xlink:href="#DejaVuSans-35" x="163.972656"/>
     <use xlink:href="#DejaVuSans-2e" x="227.595703"/>
     <use xlink:href="#DejaVuSans-34" x="259.382812"/>
     <use xlink:href="#DejaVuSans-34" x="323.005859"/>
    </g>
   </g>
   <g id="text_72">
    <!-- D:0.17 -->
    <g transform="translate(590.871165 321.155928) scale(0.04 -0.04)">
     <use xlink:href="#DejaVuSans-44"/>
     <use xlink:href="#DejaVuSans-3a" x="77.001953"/>
     <use xlink:href="#DejaVuSans-30" x="110.693359"/>
     <use xlink:href="#DejaVuSans-2e" x="174.316406"/>
     <use xlink:href="#DejaVuSans-31" x="206.103516"/>
     <use xlink:href="#DejaVuSans-37" x="269.726562"/>
    </g>
    <!-- A:28.97 -->
    <g transform="translate(590.871165 325.635053) scale(0.04 -0.04)">
     <use xlink:href="#DejaVuSans-41"/>
     <use xlink:href="#DejaVuSans-3a" x="66.658203"/>
     <use xlink:href="#DejaVuSans-32" x="100.349609"/>
     <use xlink:href="#DejaVuSans-38" x="163.972656"/>
     <use xlink:href="#DejaVuSans-2e" x="227.595703"/>
     <use xlink:href="#DejaVuSans-39" x="259.382812"/>
     <use xlink:href="#DejaVuSans-37" x="323.005859"/>
    </g>
   </g>
   <g id="text_73">
    <!-- A:28.97 -->
    <g transform="translate(590.871165 325.635053) scale(0.04 -0.04)">
     <use xlink:href="#DejaVuSans-41"/>
     <use xlink:href="#DejaVuSans-3a" x="66.658203"/>
     <use xlink:href="#DejaVuSans-32" x="100.349609"/>
     <use xlink:href="#DejaVuSans-38" x="163.972656"/>
     <use xlink:href="#DejaVuSans-2e" x="227.595703"/>
     <use xlink:href="#DejaVuSans-39" x="259.382812"/>
     <use xlink:href="#DejaVuSans-37" x="323.005859"/>
    </g>
   </g>
   <g id="text_74">
    <!-- A:0.29 -->
    <g transform="translate(567.402596 385.824728) scale(0.04 -0.04)">
     <use xlink:href="#DejaVuSans-41"/>
     <use xlink:href="#DejaVuSans-3a" x="66.658203"/>
     <use xlink:href="#DejaVuSans-30" x="100.349609"/>
     <use xlink:href="#DejaVuSans-2e" x="163.972656"/>
     <use xlink:href="#DejaVuSans-32" x="195.759766"/>
     <use xlink:href="#DejaVuSans-39" x="259.382812"/>
    </g>
   </g>
   <g id="text_75">
    <!-- A:1.18 -->
    <g transform="translate(669.938842 839.706502) scale(0.04 -0.04)">
     <use xlink:href="#DejaVuSans-41"/>
     <use xlink:href="#DejaVuSans-3a" x="66.658203"/>
     <use xlink:href="#DejaVuSans-31" x="100.349609"/>
     <use xlink:href="#DejaVuSans-2e" x="163.972656"/>
     <use xlink:href="#DejaVuSans-31" x="195.759766"/>
     <use xlink:href="#DejaVuSans-38" x="259.382812"/>
    </g>
   </g>
   <g id="text_76">
    <!-- D:0.08 -->
    <g transform="translate(748.365275 908.100957) scale(0.04 -0.04)">
     <use xlink:href="#DejaVuSans-44"/>
     <use xlink:href="#DejaVuSans-3a" x="77.001953"/>
     <use xlink:href="#DejaVuSans-30" x="110.693359"/>
     <use xlink:href="#DejaVuSans-2e" x="174.316406"/>
     <use xlink:href="#DejaVuSans-30" x="206.103516"/>
     <use xlink:href="#DejaVuSans-38" x="269.726562"/>
    </g>
    <!-- A:17.23 -->
    <g transform="translate(748.365275 912.580082) scale(0.04 -0.04)">
     <use xlink:href="#DejaVuSans-41"/>
     <use xlink:href="#DejaVuSans-3a" x="66.658203"/>
     <use xlink:href="#DejaVuSans-31" x="100.349609"/>
     <use xlink:href="#DejaVuSans-37" x="163.972656"/>
     <use xlink:href="#DejaVuSans-2e" x="227.595703"/>
     <use xlink:href="#DejaVuSans-32" x="259.382812"/>
     <use xlink:href="#DejaVuSans-33" x="323.005859"/>
    </g>
   </g>
   <g id="text_77">
    <!-- A:17.23 -->
    <g transform="translate(748.365275 912.580082) scale(0.04 -0.04)">
     <use xlink:href="#DejaVuSans-41"/>
     <use xlink:href="#DejaVuSans-3a" x="66.658203"/>
     <use xlink:href="#DejaVuSans-31" x="100.349609"/>
     <use xlink:href="#DejaVuSans-37" x="163.972656"/>
     <use xlink:href="#DejaVuSans-2e" x="227.595703"/>
     <use xlink:href="#DejaVuSans-32" x="259.382812"/>
     <use xlink:href="#DejaVuSans-33" x="323.005859"/>
    </g>
   </g>
   <g id="text_78">
    <!-- D:2.26 -->
    <g transform="translate(568.489716 306.984254) scale(0.04 -0.04)">
     <use xlink:href="#DejaVuSans-44"/>
     <use xlink:href="#DejaVuSans-3a" x="77.001953"/>
     <use xlink:href="#DejaVuSans-32" x="110.693359"/>
     <use xlink:href="#DejaVuSans-2e" x="174.316406"/>
     <use xlink:href="#DejaVuSans-32" x="206.103516"/>
     <use xlink:href="#DejaVuSans-36" x="269.726562"/>
    </g>
    <!-- A:17.65 -->
    <g transform="translate(568.489716 311.463379) scale(0.04 -0.04)">
     <use xlink:href="#DejaVuSans-41"/>
     <use xlink:href="#DejaVuSans-3a" x="66.658203"/>
     <use xlink:href="#DejaVuSans-31" x="100.349609"/>
     <use xlink:href="#DejaVuSans-37" x="163.972656"/>
     <use xlink:href="#DejaVuSans-2e" x="227.595703"/>
     <use xlink:href="#DejaVuSans-36" x="259.382812"/>
     <use xlink:href="#DejaVuSans-35" x="323.005859"/>
    </g>
   </g>
   <g id="text_79">
    <!-- A:17.65 -->
    <g transform="translate(568.489716 311.463379) scale(0.04 -0.04)">
     <use xlink:href="#DejaVuSans-41"/>
     <use xlink:href="#DejaVuSans-3a" x="66.658203"/>
     <use xlink:href="#DejaVuSans-31" x="100.349609"/>
     <use xlink:href="#DejaVuSans-37" x="163.972656"/>
     <use xlink:href="#DejaVuSans-2e" x="227.595703"/>
     <use xlink:href="#DejaVuSans-36" x="259.382812"/>
     <use xlink:href="#DejaVuSans-35" x="323.005859"/>
    </g>
   </g>
   <g id="text_80">
    <!-- Instant Noodle Consumption Eurasia (n:27 k:72) -->
    <g transform="translate(593.369063 153.362625) scale(0.12 -0.12)">
     <defs>
      <path id="DejaVuSans-6e" d="M 3513 2113 
L 3513 0 
L 2938 0 
L 2938 2094 
Q 2938 2591 2744 2837 
Q 2550 3084 2163 3084 
Q 1697 3084 1428 2787 
Q 1159 2491 1159 1978 
L 1159 0 
L 581 0 
L 581 3500 
L 1159 3500 
L 1159 2956 
Q 1366 3272 1645 3428 
Q 1925 3584 2291 3584 
Q 2894 3584 3203 3211 
Q 3513 2838 3513 2113 
z
" transform="scale(0.015625)"/>
      <path id="DejaVuSans-73" d="M 2834 3397 
L 2834 2853 
Q 2591 2978 2328 3040 
Q 2066 3103 1784 3103 
Q 1356 3103 1142 2972 
Q 928 2841 928 2578 
Q 928 2378 1081 2264 
Q 1234 2150 1697 2047 
L 1894 2003 
Q 2506 1872 2764 1633 
Q 3022 1394 3022 966 
Q 3022 478 2636 193 
Q 2250 -91 1575 -91 
Q 1294 -91 989 -36 
Q 684 19 347 128 
L 347 722 
Q 666 556 975 473 
Q 1284 391 1588 391 
Q 1994 391 2212 530 
Q 2431 669 2431 922 
Q 2431 1156 2273 1281 
Q 2116 1406 1581 1522 
L 1381 1569 
Q 847 1681 609 1914 
Q 372 2147 372 2553 
Q 372 3047 722 3315 
Q 1072 3584 1716 3584 
Q 2034 3584 2315 3537 
Q 2597 3491 2834 3397 
z
" transform="scale(0.015625)"/>
      <path id="DejaVuSans-74" d="M 1172 4494 
L 1172 3500 
L 2356 3500 
L 2356 3053 
L 1172 3053 
L 1172 1153 
Q 1172 725 1289 603 
Q 1406 481 1766 481 
L 2356 481 
L 2356 0 
L 1766 0 
Q 1100 0 847 248 
Q 594 497 594 1153 
L 594 3053 
L 172 3053 
L 172 3500 
L 594 3500 
L 594 4494 
L 1172 4494 
z
" transform="scale(0.015625)"/>
      <path id="DejaVuSans-61" d="M 2194 1759 
Q 1497 1759 1228 1600 
Q 959 1441 959 1056 
Q 959 750 1161 570 
Q 1363 391 1709 391 
Q 2188 391 2477 730 
Q 2766 1069 2766 1631 
L 2766 1759 
L 2194 1759 
z
M 3341 1997 
L 3341 0 
L 2766 0 
L 2766 531 
Q 2569 213 2275 61 
Q 1981 -91 1556 -91 
Q 1019 -91 701 211 
Q 384 513 384 1019 
Q 384 1609 779 1909 
Q 1175 2209 1959 2209 
L 2766 2209 
L 2766 2266 
Q 2766 2663 2505 2880 
Q 2244 3097 1772 3097 
Q 1472 3097 1187 3025 
Q 903 2953 641 2809 
L 641 3341 
Q 956 3463 1253 3523 
Q 1550 3584 1831 3584 
Q 2591 3584 2966 3190 
Q 3341 2797 3341 1997 
z
" transform="scale(0.015625)"/>
      <path id="DejaVuSans-20" transform="scale(0.015625)"/>
      <path id="DejaVuSans-6f" d="M 1959 3097 
Q 1497 3097 1228 2736 
Q 959 2375 959 1747 
Q 959 1119 1226 758 
Q 1494 397 1959 397 
Q 2419 397 2687 759 
Q 2956 1122 2956 1747 
Q 2956 2369 2687 2733 
Q 2419 3097 1959 3097 
z
M 1959 3584 
Q 2709 3584 3137 3096 
Q 3566 2609 3566 1747 
Q 3566 888 3137 398 
Q 2709 -91 1959 -91 
Q 1206 -91 779 398 
Q 353 888 353 1747 
Q 353 2609 779 3096 
Q 1206 3584 1959 3584 
z
" transform="scale(0.015625)"/>
      <path id="DejaVuSans-64" d="M 2906 2969 
L 2906 4863 
L 3481 4863 
L 3481 0 
L 2906 0 
L 2906 525 
Q 2725 213 2448 61 
Q 2172 -91 1784 -91 
Q 1150 -91 751 415 
Q 353 922 353 1747 
Q 353 2572 751 3078 
Q 1150 3584 1784 3584 
Q 2172 3584 2448 3432 
Q 2725 3281 2906 2969 
z
M 947 1747 
Q 947 1113 1208 752 
Q 1469 391 1925 391 
Q 2381 391 2643 752 
Q 2906 1113 2906 1747 
Q 2906 2381 2643 2742 
Q 2381 3103 1925 3103 
Q 1469 3103 1208 2742 
Q 947 2381 947 1747 
z
" transform="scale(0.015625)"/>
      <path id="DejaVuSans-6c" d="M 603 4863 
L 1178 4863 
L 1178 0 
L 603 0 
L 603 4863 
z
" transform="scale(0.015625)"/>
      <path id="DejaVuSans-65" d="M 3597 1894 
L 3597 1613 
L 953 1613 
Q 991 1019 1311 708 
Q 1631 397 2203 397 
Q 2534 397 2845 478 
Q 3156 559 3463 722 
L 3463 178 
Q 3153 47 2828 -22 
Q 2503 -91 2169 -91 
Q 1331 -91 842 396 
Q 353 884 353 1716 
Q 353 2575 817 3079 
Q 1281 3584 2069 3584 
Q 2775 3584 3186 3129 
Q 3597 2675 3597 1894 
z
M 3022 2063 
Q 3016 2534 2758 2815 
Q 2500 3097 2075 3097 
Q 1594 3097 1305 2825 
Q 1016 2553 972 2059 
L 3022 2063 
z
" transform="scale(0.015625)"/>
      <path id="DejaVuSans-75" d="M 544 1381 
L 544 3500 
L 1119 3500 
L 1119 1403 
Q 1119 906 1312 657 
Q 1506 409 1894 409 
Q 2359 409 2629 706 
Q 2900 1003 2900 1516 
L 2900 3500 
L 3475 3500 
L 3475 0 
L 2900 0 
L 2900 538 
Q 2691 219 2414 64 
Q 2138 -91 1772 -91 
Q 1169 -91 856 284 
Q 544 659 544 1381 
z
M 1991 3584 
L 1991 3584 
z
" transform="scale(0.015625)"/>
      <path id="DejaVuSans-6d" d="M 3328 2828 
Q 3544 3216 3844 3400 
Q 4144 3584 4550 3584 
Q 5097 3584 5394 3201 
Q 5691 2819 5691 2113 
L 5691 0 
L 5113 0 
L 5113 2094 
Q 5113 2597 4934 2840 
Q 4756 3084 4391 3084 
Q 3944 3084 3684 2787 
Q 3425 2491 3425 1978 
L 3425 0 
L 2847 0 
L 2847 2094 
Q 2847 2600 2669 2842 
Q 2491 3084 2119 3084 
Q 1678 3084 1418 2786 
Q 1159 2488 1159 1978 
L 1159 0 
L 581 0 
L 581 3500 
L 1159 3500 
L 1159 2956 
Q 1356 3278 1631 3431 
Q 1906 3584 2284 3584 
Q 2666 3584 2933 3390 
Q 3200 3197 3328 2828 
z
" transform="scale(0.015625)"/>
      <path id="DejaVuSans-70" d="M 1159 525 
L 1159 -1331 
L 581 -1331 
L 581 3500 
L 1159 3500 
L 1159 2969 
Q 1341 3281 1617 3432 
Q 1894 3584 2278 3584 
Q 2916 3584 3314 3078 
Q 3713 2572 3713 1747 
Q 3713 922 3314 415 
Q 2916 -91 2278 -91 
Q 1894 -91 1617 61 
Q 1341 213 1159 525 
z
M 3116 1747 
Q 3116 2381 2855 2742 
Q 2594 3103 2138 3103 
Q 1681 3103 1420 2742 
Q 1159 2381 1159 1747 
Q 1159 1113 1420 752 
Q 1681 391 2138 391 
Q 2594 391 2855 752 
Q 3116 1113 3116 1747 
z
" transform="scale(0.015625)"/>
      <path id="DejaVuSans-69" d="M 603 3500 
L 1178 3500 
L 1178 0 
L 603 0 
L 603 3500 
z
M 603 4863 
L 1178 4863 
L 1178 4134 
L 603 4134 
L 603 4863 
z
" transform="scale(0.015625)"/>
      <path id="DejaVuSans-72" d="M 2631 2963 
Q 2534 3019 2420 3045 
Q 2306 3072 2169 3072 
Q 1681 3072 1420 2755 
Q 1159 2438 1159 1844 
L 1159 0 
L 581 0 
L 581 3500 
L 1159 3500 
L 1159 2956 
Q 1341 3275 1631 3429 
Q 1922 3584 2338 3584 
Q 2397 3584 2469 3576 
Q 2541 3569 2628 3553 
L 2631 2963 
z
" transform="scale(0.015625)"/>
      <path id="DejaVuSans-28" d="M 1984 4856 
Q 1566 4138 1362 3434 
Q 1159 2731 1159 2009 
Q 1159 1288 1364 580 
Q 1569 -128 1984 -844 
L 1484 -844 
Q 1016 -109 783 600 
Q 550 1309 550 2009 
Q 550 2706 781 3412 
Q 1013 4119 1484 4856 
L 1984 4856 
z
" transform="scale(0.015625)"/>
      <path id="DejaVuSans-6b" d="M 581 4863 
L 1159 4863 
L 1159 1991 
L 2875 3500 
L 3609 3500 
L 1753 1863 
L 3688 0 
L 2938 0 
L 1159 1709 
L 1159 0 
L 581 0 
L 581 4863 
z
" transform="scale(0.015625)"/>
      <path id="DejaVuSans-29" d="M 513 4856 
L 1013 4856 
Q 1481 4119 1714 3412 
Q 1947 2706 1947 2009 
Q 1947 1309 1714 600 
Q 1481 -109 1013 -844 
L 513 -844 
Q 928 -128 1133 580 
Q 1338 1288 1338 2009 
Q 1338 2731 1133 3434 
Q 928 4138 513 4856 
z
" transform="scale(0.015625)"/>
     </defs>
     <use xlink:href="#DejaVuSans-49"/>
     <use xlink:href="#DejaVuSans-6e" x="29.492188"/>
     <use xlink:href="#DejaVuSans-73" x="92.871094"/>
     <use xlink:href="#DejaVuSans-74" x="144.970703"/>
     <use xlink:href="#DejaVuSans-61" x="184.179688"/>
     <use xlink:href="#DejaVuSans-6e" x="245.458984"/>
     <use xlink:href="#DejaVuSans-74" x="308.837891"/>
     <use xlink:href="#DejaVuSans-20" x="348.046875"/>
     <use xlink:href="#DejaVuSans-4e" x="379.833984"/>
     <use xlink:href="#DejaVuSans-6f" x="454.638672"/>
     <use xlink:href="#DejaVuSans-6f" x="515.820312"/>
     <use xlink:href="#DejaVuSans-64" x="577.001953"/>
     <use xlink:href="#DejaVuSans-6c" x="640.478516"/>
     <use xlink:href="#DejaVuSans-65" x="668.261719"/>
     <use xlink:href="#DejaVuSans-20" x="729.785156"/>
     <use xlink:href="#DejaVuSans-43" x="761.572266"/>
     <use xlink:href="#DejaVuSans-6f" x="831.396484"/>
     <use xlink:href="#DejaVuSans-6e" x="892.578125"/>
     <use xlink:href="#DejaVuSans-73" x="955.957031"/>
     <use xlink:href="#DejaVuSans-75" x="1008.056641"/>
     <use xlink:href="#DejaVuSans-6d" x="1071.435547"/>
     <use xlink:href="#DejaVuSans-70" x="1168.847656"/>
     <use xlink:href="#DejaVuSans-74" x="1232.324219"/>
     <use xlink:href="#DejaVuSans-69" x="1271.533203"/>
     <use xlink:href="#DejaVuSans-6f" x="1299.316406"/>
     <use xlink:href="#DejaVuSans-6e" x="1360.498047"/>
     <use xlink:href="#DejaVuSans-20" x="1423.876953"/>
     <use xlink:href="#DejaVuSans-45" x="1455.664062"/>
     <use xlink:href="#DejaVuSans-75" x="1518.847656"/>
     <use xlink:href="#DejaVuSans-72" x="1582.226562"/>
     <use xlink:href="#DejaVuSans-61" x="1623.339844"/>
     <use xlink:href="#DejaVuSans-73" x="1684.619141"/>
     <use xlink:href="#DejaVuSans-69" x="1736.71875"/>
     <use xlink:href="#DejaVuSans-61" x="1764.501953"/>
     <use xlink:href="#DejaVuSans-20" x="1825.78125"/>
     <use xlink:href="#DejaVuSans-28" x="1857.568359"/>
     <use xlink:href="#DejaVuSans-6e" x="1896.582031"/>
     <use xlink:href="#DejaVuSans-3a" x="1959.960938"/>
     <use xlink:href="#DejaVuSans-32" x="1993.652344"/>
     <use xlink:href="#DejaVuSans-37" x="2057.275391"/>
     <use xlink:href="#DejaVuSans-20" x="2120.898438"/>
     <use xlink:href="#DejaVuSans-6b" x="2152.685547"/>
     <use xlink:href="#DejaVuSans-3a" x="2210.595703"/>
     <use xlink:href="#DejaVuSans-37" x="2244.287109"/>
     <use xlink:href="#DejaVuSans-32" x="2307.910156"/>
     <use xlink:href="#DejaVuSans-29" x="2371.533203"/>
    </g>
    <!-- Score: 16521.02, max. Overlap: 0.44, avg. Distance: 4.03, avg. Angle: 9.12 -->
    <g transform="translate(511.8525 166.8) scale(0.12 -0.12)">
     <defs>
      <path id="DejaVuSans-63" d="M 3122 3366 
L 3122 2828 
Q 2878 2963 2633 3030 
Q 2388 3097 2138 3097 
Q 1578 3097 1268 2742 
Q 959 2388 959 1747 
Q 959 1106 1268 751 
Q 1578 397 2138 397 
Q 2388 397 2633 464 
Q 2878 531 3122 666 
L 3122 134 
Q 2881 22 2623 -34 
Q 2366 -91 2075 -91 
Q 1284 -91 818 406 
Q 353 903 353 1747 
Q 353 2603 823 3093 
Q 1294 3584 2113 3584 
Q 2378 3584 2631 3529 
Q 2884 3475 3122 3366 
z
" transform="scale(0.015625)"/>
      <path id="DejaVuSans-2c" d="M 750 794 
L 1409 794 
L 1409 256 
L 897 -744 
L 494 -744 
L 750 256 
L 750 794 
z
" transform="scale(0.015625)"/>
      <path id="DejaVuSans-78" d="M 3513 3500 
L 2247 1797 
L 3578 0 
L 2900 0 
L 1881 1375 
L 863 0 
L 184 0 
L 1544 1831 
L 300 3500 
L 978 3500 
L 1906 2253 
L 2834 3500 
L 3513 3500 
z
" transform="scale(0.015625)"/>
      <path id="DejaVuSans-76" d="M 191 3500 
L 800 3500 
L 1894 563 
L 2988 3500 
L 3597 3500 
L 2284 0 
L 1503 0 
L 191 3500 
z
" transform="scale(0.015625)"/>
      <path id="DejaVuSans-67" d="M 2906 1791 
Q 2906 2416 2648 2759 
Q 2391 3103 1925 3103 
Q 1463 3103 1205 2759 
Q 947 2416 947 1791 
Q 947 1169 1205 825 
Q 1463 481 1925 481 
Q 2391 481 2648 825 
Q 2906 1169 2906 1791 
z
M 3481 434 
Q 3481 -459 3084 -895 
Q 2688 -1331 1869 -1331 
Q 1566 -1331 1297 -1286 
Q 1028 -1241 775 -1147 
L 775 -588 
Q 1028 -725 1275 -790 
Q 1522 -856 1778 -856 
Q 2344 -856 2625 -561 
Q 2906 -266 2906 331 
L 2906 616 
Q 2728 306 2450 153 
Q 2172 0 1784 0 
Q 1141 0 747 490 
Q 353 981 353 1791 
Q 353 2603 747 3093 
Q 1141 3584 1784 3584 
Q 2172 3584 2450 3431 
Q 2728 3278 2906 2969 
L 2906 3500 
L 3481 3500 
L 3481 434 
z
" transform="scale(0.015625)"/>
     </defs>
     <use xlink:href="#DejaVuSans-53"/>
     <use xlink:href="#DejaVuSans-63" x="63.476562"/>
     <use xlink:href="#DejaVuSans-6f" x="118.457031"/>
     <use xlink:href="#DejaVuSans-72" x="179.638672"/>
     <use xlink:href="#DejaVuSans-65" x="218.501953"/>
     <use xlink:href="#DejaVuSans-3a" x="280.025391"/>
     <use xlink:href="#DejaVuSans-20" x="313.716797"/>
     <use xlink:href="#DejaVuSans-31" x="345.503906"/>
     <use xlink:href="#DejaVuSans-36" x="409.126953"/>
     <use xlink:href="#DejaVuSans-35" x="472.75"/>
     <use xlink:href="#DejaVuSans-32" x="536.373047"/>
     <use xlink:href="#DejaVuSans-31" x="599.996094"/>
     <use xlink:href="#DejaVuSans-2e" x="663.619141"/>
     <use xlink:href="#DejaVuSans-30" x="695.40625"/>
     <use xlink:href="#DejaVuSans-32" x="759.029297"/>
     <use xlink:href="#DejaVuSans-2c" x="822.652344"/>
     <use xlink:href="#DejaVuSans-20" x="854.439453"/>
     <use xlink:href="#DejaVuSans-6d" x="886.226562"/>
     <use xlink:href="#DejaVuSans-61" x="983.638672"/>
     <use xlink:href="#DejaVuSans-78" x="1044.917969"/>
     <use xlink:href="#DejaVuSans-2e" x="1104.097656"/>
     <use xlink:href="#DejaVuSans-20" x="1135.884766"/>
     <use xlink:href="#DejaVuSans-4f" x="1167.671875"/>
     <use xlink:href="#DejaVuSans-76" x="1246.382812"/>
     <use xlink:href="#DejaVuSans-65" x="1305.5625"/>
     <use xlink:href="#DejaVuSans-72" x="1367.085938"/>
     <use xlink:href="#DejaVuSans-6c" x="1408.199219"/>
     <use xlink:href="#DejaVuSans-61" x="1435.982422"/>
     <use xlink:href="#DejaVuSans-70" x="1497.261719"/>
     <use xlink:href="#DejaVuSans-3a" x="1560.738281"/>
     <use xlink:href="#DejaVuSans-20" x="1594.429688"/>
     <use xlink:href="#DejaVuSans-30" x="1626.216797"/>
     <use xlink:href="#DejaVuSans-2e" x="1689.839844"/>
     <use xlink:href="#DejaVuSans-34" x="1721.626953"/>
     <use xlink:href="#DejaVuSans-34" x="1785.25"/>
     <use xlink:href="#DejaVuSans-2c" x="1848.873047"/>
     <use xlink:href="#DejaVuSans-20" x="1880.660156"/>
     <use xlink:href="#DejaVuSans-61" x="1912.447266"/>
     <use xlink:href="#DejaVuSans-76" x="1973.726562"/>
     <use xlink:href="#DejaVuSans-67" x="2032.90625"/>
     <use xlink:href="#DejaVuSans-2e" x="2096.382812"/>
     <use xlink:href="#DejaVuSans-20" x="2128.169922"/>
     <use xlink:href="#DejaVuSans-44" x="2159.957031"/>
     <use xlink:href="#DejaVuSans-69" x="2236.958984"/>
     <use xlink:href="#DejaVuSans-73" x="2264.742188"/>
     <use xlink:href="#DejaVuSans-74" x="2316.841797"/>
     <use xlink:href="#DejaVuSans-61" x="2356.050781"/>
     <use xlink:href="#DejaVuSans-6e" x="2417.330078"/>
     <use xlink:href="#DejaVuSans-63" x="2480.708984"/>
     <use xlink:href="#DejaVuSans-65" x="2535.689453"/>
     <use xlink:href="#DejaVuSans-3a" x="2597.212891"/>
     <use xlink:href="#DejaVuSans-20" x="2630.904297"/>
     <use xlink:href="#DejaVuSans-34" x="2662.691406"/>
     <use xlink:href="#DejaVuSans-2e" x="2726.314453"/>
     <use xlink:href="#DejaVuSans-30" x="2758.101562"/>
     <use xlink:href="#DejaVuSans-33" x="2821.724609"/>
     <use xlink:href="#DejaVuSans-2c" x="2885.347656"/>
     <use xlink:href="#DejaVuSans-20" x="2917.134766"/>
     <use xlink:href="#DejaVuSans-61" x="2948.921875"/>
     <use xlink:href="#DejaVuSans-76" x="3010.201172"/>
     <use xlink:href="#DejaVuSans-67" x="3069.380859"/>
     <use xlink:href="#DejaVuSans-2e" x="3132.857422"/>
     <use xlink:href="#DejaVuSans-20" x="3164.644531"/>
     <use xlink:href="#DejaVuSans-41" x="3196.431641"/>
     <use xlink:href="#DejaVuSans-6e" x="3264.839844"/>
     <use xlink:href="#DejaVuSans-67" x="3328.21875"/>
     <use xlink:href="#DejaVuSans-6c" x="3391.695312"/>
     <use xlink:href="#DejaVuSans-65" x="3419.478516"/>
     <use xlink:href="#DejaVuSans-3a" x="3481.001953"/>
     <use xlink:href="#DejaVuSans-20" x="3514.693359"/>
     <use xlink:href="#DejaVuSans-39" x="3546.480469"/>
     <use xlink:href="#DejaVuSans-2e" x="3610.103516"/>
     <use xlink:href="#DejaVuSans-31" x="3641.890625"/>
     <use xlink:href="#DejaVuSans-32" x="3705.513672"/>
    </g>
   </g>
  </g>
 </g>
 <defs>
  <clipPath id="p9a847a06f8">
   <rect x="323.222709" y="172.8" width="829.554582" height="1108.8"/>
  </clipPath>
 </defs>
</svg>
