<?xml version="1.0" encoding="utf-8" standalone="no"?>
<!DOCTYPE svg PUBLIC "-//W3C//DTD SVG 1.1//EN"
  "http://www.w3.org/Graphics/SVG/1.1/DTD/svg11.dtd">
<svg xmlns:xlink="http://www.w3.org/1999/xlink" width="1440pt" height="1440pt" viewBox="0 0 1440 1440" xmlns="http://www.w3.org/2000/svg" version="1.1">
 <metadata>
  <rdf:RDF xmlns:dc="http://purl.org/dc/elements/1.1/" xmlns:cc="http://creativecommons.org/ns#" xmlns:rdf="http://www.w3.org/1999/02/22-rdf-syntax-ns#">
   <cc:Work>
    <dc:type rdf:resource="http://purl.org/dc/dcmitype/StillImage"/>
    <dc:date>2024-03-18T21:05:09.626246</dc:date>
    <dc:format>image/svg+xml</dc:format>
    <dc:creator>
     <cc:Agent>
      <dc:title>Matplotlib v3.8.3, https://matplotlib.org/</dc:title>
     </cc:Agent>
    </dc:creator>
   </cc:Work>
  </rdf:RDF>
 </metadata>
 <defs>
  <style type="text/css">*{stroke-linejoin: round; stroke-linecap: butt}</style>
 </defs>
 <g id="figure_1">
  <g id="patch_1">
   <path d="M 0 1440 
L 1440 1440 
L 1440 0 
L 0 0 
z
" style="fill: #ffffff"/>
  </g>
  <g id="axes_1">
   <g id="patch_2">
    <path d="M 449.053338 341.628406 
C 451.737169 341.628406 454.311438 340.562108 456.209194 338.664353 
C 458.106949 336.766598 459.173246 334.192328 459.173246 331.508497 
C 459.173246 328.824666 458.106949 326.250397 456.209194 324.352641 
C 454.311438 322.454886 451.737169 321.388589 449.053338 321.388589 
C 446.369507 321.388589 443.795237 322.454886 441.897482 324.352641 
C 439.999727 326.250397 438.933429 328.824666 438.933429 331.508497 
C 438.933429 334.192328 439.999727 336.766598 441.897482 338.664353 
C 443.795237 340.562108 446.369507 341.628406 449.053338 341.628406 
z
" clip-path="url(#pabd4736fef)" style="fill: #9e0142; opacity: 0.5"/>
   </g>
   <g id="patch_3">
    <path d="M 556.664009 423.791478 
C 561.684997 423.791478 566.501014 421.796618 570.051389 418.246243 
C 573.601764 414.695869 575.596624 409.879851 575.596624 404.858863 
C 575.596624 399.837875 573.601764 395.021857 570.051389 391.471482 
C 566.501014 387.921108 561.684997 385.926248 556.664009 385.926248 
C 551.64302 385.926248 546.827003 387.921108 543.276628 391.471482 
C 539.726253 395.021857 537.731394 399.837875 537.731394 404.858863 
C 537.731394 409.879851 539.726253 414.695869 543.276628 418.246243 
C 546.827003 421.796618 551.64302 423.791478 556.664009 423.791478 
z
" clip-path="url(#pabd4736fef)" style="fill: #b11747; opacity: 0.5"/>
   </g>
   <g id="patch_4">
    <path d="M 476.900238 389.011529 
C 479.091577 389.011529 481.19346 388.140901 482.74297 386.59139 
C 484.292481 385.04188 485.163109 382.939997 485.163109 380.748658 
C 485.163109 378.55732 484.292481 376.455437 482.74297 374.905927 
C 481.19346 373.356416 479.091577 372.485788 476.900238 372.485788 
C 474.708899 372.485788 472.607017 373.356416 471.057506 374.905927 
C 469.507996 376.455437 468.637368 378.55732 468.637368 380.748658 
C 468.637368 382.939997 469.507996 385.04188 471.057506 386.59139 
C 472.607017 388.140901 474.708899 389.011529 476.900238 389.011529 
z
" clip-path="url(#pabd4736fef)" style="fill: #c72e4c; opacity: 0.5"/>
   </g>
   <g id="patch_5">
    <path d="M 446.952184 383.73423 
C 450.586109 383.73423 454.071686 382.290456 456.641259 379.720884 
C 459.210832 377.151311 460.654605 373.665734 460.654605 370.031809 
C 460.654605 366.397885 459.210832 362.912307 456.641259 360.342734 
C 454.071686 357.773162 450.586109 356.329388 446.952184 356.329388 
C 443.31826 356.329388 439.832682 357.773162 437.26311 360.342734 
C 434.693537 362.912307 433.249764 366.397885 433.249764 370.031809 
C 433.249764 373.665734 434.693537 377.151311 437.26311 379.720884 
C 439.832682 382.290456 443.31826 383.73423 446.952184 383.73423 
z
" clip-path="url(#pabd4736fef)" style="fill: #d9444d; opacity: 0.5"/>
   </g>
   <g id="patch_6">
    <path d="M 482.441671 370.257294 
C 489.284124 370.257294 495.84725 367.538758 500.685595 362.700413 
C 505.52394 357.862068 508.242476 351.298942 508.242476 344.456489 
C 508.242476 337.614035 505.52394 331.05091 500.685595 326.212564 
C 495.84725 321.374219 489.284124 318.655683 482.441671 318.655683 
C 475.599217 318.655683 469.036092 321.374219 464.197746 326.212564 
C 459.359401 331.05091 456.640865 337.614035 456.640865 344.456489 
C 456.640865 351.298942 459.359401 357.862068 464.197746 362.700413 
C 469.036092 367.538758 475.599217 370.257294 482.441671 370.257294 
z
" clip-path="url(#pabd4736fef)" style="fill: #e55749; opacity: 0.5"/>
   </g>
   <g id="patch_7">
    <path d="M 683.837797 977.81193 
C 705.392152 977.81193 726.066598 969.248294 741.307829 954.007063 
C 756.54906 938.765832 765.112696 918.091386 765.112696 896.53703 
C 765.112696 874.982675 756.54906 854.308229 741.307829 839.066998 
C 726.066598 823.825767 705.392152 815.262131 683.837797 815.262131 
C 662.283441 815.262131 641.608995 823.825767 626.367764 839.066998 
C 611.126534 854.308229 602.562897 874.982675 602.562897 896.53703 
C 602.562897 918.091386 611.126534 938.765832 626.367764 954.007063 
C 641.608995 969.248294 662.283441 977.81193 683.837797 977.81193 
z
" clip-path="url(#pabd4736fef)" style="fill: #f26944; opacity: 0.5"/>
   </g>
   <g id="patch_8">
    <path d="M 836.487734 804.925002 
C 910.04462 804.925002 980.598708 775.700541 1032.611281 723.687969 
C 1084.623854 671.675396 1113.848314 601.121307 1113.848314 527.564422 
C 1113.848314 454.007536 1084.623854 383.453447 1032.611281 331.440875 
C 980.598708 279.428302 910.04462 250.203842 836.487734 250.203842 
C 762.930848 250.203842 692.37676 279.428302 640.364187 331.440875 
C 588.351614 383.453447 559.127154 454.007536 559.127154 527.564422 
C 559.127154 601.121307 588.351614 671.675396 640.364187 723.687969 
C 692.37676 775.700541 762.930848 804.925002 836.487734 804.925002 
z
" clip-path="url(#pabd4736fef)" style="fill: #f7814c; opacity: 0.5"/>
   </g>
   <g id="patch_9">
    <path d="M 517.415577 620.020138 
C 522.78324 620.020138 527.931779 617.887544 531.727289 614.092033 
C 535.522799 610.296523 537.655394 605.147984 537.655394 599.780322 
C 537.655394 594.412659 535.522799 589.26412 531.727289 585.46861 
C 527.931779 581.673099 522.78324 579.540505 517.415577 579.540505 
C 512.047915 579.540505 506.899376 581.673099 503.103866 585.46861 
C 499.308355 589.26412 497.175761 594.412659 497.175761 599.780322 
C 497.175761 605.147984 499.308355 610.296523 503.103866 614.092033 
C 506.899376 617.887544 512.047915 620.020138 517.415577 620.020138 
z
" clip-path="url(#pabd4736fef)" style="fill: #fa9857; opacity: 0.5"/>
   </g>
   <g id="patch_10">
    <path d="M 538.399098 248.887481 
C 541.082929 248.887481 543.657199 247.821184 545.554954 245.923428 
C 547.452709 244.025673 548.519007 241.451404 548.519007 238.767572 
C 548.519007 236.083741 547.452709 233.509472 545.554954 231.611717 
C 543.657199 229.713961 541.082929 228.647664 538.399098 228.647664 
C 535.715267 228.647664 533.140998 229.713961 531.243242 231.611717 
C 529.345487 233.509472 528.27919 236.083741 528.27919 238.767572 
C 528.27919 241.451404 529.345487 244.025673 531.243242 245.923428 
C 533.140998 247.821184 535.715267 248.887481 538.399098 248.887481 
z
" clip-path="url(#pabd4736fef)" style="fill: #fdb163; opacity: 0.5"/>
   </g>
   <g id="patch_11">
    <path d="M 554.04589 241.570331 
C 555.595401 241.570331 557.081656 240.954704 558.177325 239.859035 
C 559.272995 238.763365 559.888622 237.27711 559.888622 235.7276 
C 559.888622 234.178089 559.272995 232.691834 558.177325 231.596164 
C 557.081656 230.500495 555.595401 229.884868 554.04589 229.884868 
C 552.49638 229.884868 551.010124 230.500495 549.914455 231.596164 
C 548.818785 232.691834 548.203158 234.178089 548.203158 235.7276 
C 548.203158 237.27711 548.818785 238.763365 549.914455 239.859035 
C 551.010124 240.954704 552.49638 241.570331 554.04589 241.570331 
z
" clip-path="url(#pabd4736fef)" style="fill: #fdc574; opacity: 0.5"/>
   </g>
   <g id="patch_12">
    <path d="M 428.509617 400.885757 
C 431.796625 400.885757 434.949449 399.579815 437.273715 397.255549 
C 439.59798 394.931283 440.903923 391.778459 440.903923 388.491451 
C 440.903923 385.204442 439.59798 382.051619 437.273715 379.727353 
C 434.949449 377.403087 431.796625 376.097145 428.509617 376.097145 
C 425.222608 376.097145 422.069785 377.403087 419.745519 379.727353 
C 417.421253 382.051619 416.115311 385.204442 416.115311 388.491451 
C 416.115311 391.778459 417.421253 394.931283 419.745519 397.255549 
C 422.069785 399.579815 425.222608 400.885757 428.509617 400.885757 
z
" clip-path="url(#pabd4736fef)" style="fill: #fed884; opacity: 0.5"/>
   </g>
   <g id="patch_13">
    <path d="M 655.927721 819.142121 
C 665.542182 819.142121 674.764153 815.322255 681.562603 808.523805 
C 688.361053 801.725355 692.180919 792.503383 692.180919 782.888923 
C 692.180919 773.274463 688.361053 764.052491 681.562603 757.254041 
C 674.764153 750.455591 665.542182 746.635725 655.927721 746.635725 
C 646.313261 746.635725 637.091289 750.455591 630.292839 757.254041 
C 623.494389 764.052491 619.674523 773.274463 619.674523 782.888923 
C 619.674523 792.503383 623.494389 801.725355 630.292839 808.523805 
C 637.091289 815.322255 646.313261 819.142121 655.927721 819.142121 
z
" clip-path="url(#pabd4736fef)" style="fill: #fee797; opacity: 0.5"/>
   </g>
   <g id="patch_14">
    <path d="M 507.533775 579.234392 
C 521.607904 579.234392 535.107488 573.642681 545.0594 563.690769 
C 555.011312 553.738857 560.603023 540.239273 560.603023 526.165144 
C 560.603023 512.091015 555.011312 498.591432 545.0594 488.63952 
C 535.107488 478.687608 521.607904 473.095897 507.533775 473.095897 
C 493.459646 473.095897 479.960062 478.687608 470.00815 488.63952 
C 460.056238 498.591432 454.464527 512.091015 454.464527 526.165144 
C 454.464527 540.239273 460.056238 553.738857 470.00815 563.690769 
C 479.960062 573.642681 493.459646 579.234392 507.533775 579.234392 
z
" clip-path="url(#pabd4736fef)" style="fill: #fff3ac; opacity: 0.5"/>
   </g>
   <g id="patch_15">
    <path d="M 488.624064 319.418989 
C 490.173575 319.418989 491.65983 318.803362 492.7555 317.707693 
C 493.851169 316.612023 494.466796 315.125768 494.466796 313.576258 
C 494.466796 312.026747 493.851169 310.540492 492.7555 309.444822 
C 491.65983 308.349153 490.173575 307.733526 488.624064 307.733526 
C 487.074554 307.733526 485.588298 308.349153 484.492629 309.444822 
C 483.39696 310.540492 482.781332 312.026747 482.781332 313.576258 
C 482.781332 315.125768 483.39696 316.612023 484.492629 317.707693 
C 485.588298 318.803362 487.074554 319.418989 488.624064 319.418989 
z
" clip-path="url(#pabd4736fef)" style="fill: #ffffbe; opacity: 0.5"/>
   </g>
   <g id="patch_16">
    <path d="M 450.710206 353.240965 
C 452.259716 353.240965 453.745972 352.625338 454.841641 351.529668 
C 455.937311 350.433999 456.552938 348.947744 456.552938 347.398233 
C 456.552938 345.848723 455.937311 344.362467 454.841641 343.266798 
C 453.745972 342.171128 452.259716 341.555501 450.710206 341.555501 
C 449.160695 341.555501 447.67444 342.171128 446.578771 343.266798 
C 445.483101 344.362467 444.867474 345.848723 444.867474 347.398233 
C 444.867474 348.947744 445.483101 350.433999 446.578771 351.529668 
C 447.67444 352.625338 449.160695 353.240965 450.710206 353.240965 
z
" clip-path="url(#pabd4736fef)" style="fill: #f6fbb0; opacity: 0.5"/>
   </g>
   <g id="patch_17">
    <path d="M 614.969664 761.979228 
C 622.237513 761.979228 629.208668 759.091681 634.347813 753.952536 
C 639.486959 748.813391 642.374506 741.842235 642.374506 734.574387 
C 642.374506 727.306538 639.486959 720.335382 634.347813 715.196237 
C 629.208668 710.057092 622.237513 707.169545 614.969664 707.169545 
C 607.701815 707.169545 600.73066 710.057092 595.591515 715.196237 
C 590.452369 720.335382 587.564822 727.306538 587.564822 734.574387 
C 587.564822 741.842235 590.452369 748.813391 595.591515 753.952536 
C 600.73066 759.091681 607.701815 761.979228 614.969664 761.979228 
z
" clip-path="url(#pabd4736fef)" style="fill: #ecf7a1; opacity: 0.5"/>
   </g>
   <g id="patch_18">
    <path d="M 511.247113 378.274882 
C 514.145982 378.274882 516.926511 377.12315 518.976321 375.07334 
C 521.026131 373.02353 522.177864 370.243001 522.177864 367.344132 
C 522.177864 364.445263 521.026131 361.664734 518.976321 359.614924 
C 516.926511 357.565114 514.145982 356.413382 511.247113 356.413382 
C 508.348245 356.413382 505.567716 357.565114 503.517906 359.614924 
C 501.468096 361.664734 500.316363 364.445263 500.316363 367.344132 
C 500.316363 370.243001 501.468096 373.02353 503.517906 375.07334 
C 505.567716 377.12315 508.348245 378.274882 511.247113 378.274882 
z
" clip-path="url(#pabd4736fef)" style="fill: #ddf19a; opacity: 0.5"/>
   </g>
   <g id="patch_19">
    <path d="M 486.609484 607.086934 
C 489.508352 607.086934 492.288881 605.935201 494.338691 603.885392 
C 496.388501 601.835582 497.540234 599.055053 497.540234 596.156184 
C 497.540234 593.257315 496.388501 590.476786 494.338691 588.426976 
C 492.288881 586.377166 489.508352 585.225433 486.609484 585.225433 
C 483.710615 585.225433 480.930086 586.377166 478.880276 588.426976 
C 476.830466 590.476786 475.678733 593.257315 475.678733 596.156184 
C 475.678733 599.055053 476.830466 601.835582 478.880276 603.885392 
C 480.930086 605.935201 483.710615 607.086934 486.609484 607.086934 
z
" clip-path="url(#pabd4736fef)" style="fill: #c6e89f; opacity: 0.5"/>
   </g>
   <g id="patch_20">
    <path d="M 603.214238 345.758177 
C 619.465643 345.758177 635.053619 339.301426 646.545098 327.809948 
C 658.036576 316.31847 664.493327 300.730493 664.493327 284.479089 
C 664.493327 268.227684 658.036576 252.639708 646.545098 241.14823 
C 635.053619 229.656751 619.465643 223.2 603.214238 223.2 
C 586.962834 223.2 571.374857 229.656751 559.883379 241.14823 
C 548.391901 252.639708 541.93515 268.227684 541.93515 284.479089 
C 541.93515 300.730493 548.391901 316.31847 559.883379 327.809948 
C 571.374857 339.301426 586.962834 345.758177 603.214238 345.758177 
z
" clip-path="url(#pabd4736fef)" style="fill: #aedea3; opacity: 0.5"/>
   </g>
   <g id="patch_21">
    <path d="M 812.714992 980.059394 
C 826.355967 980.059394 839.440079 974.639777 849.085704 964.994151 
C 858.73133 955.348526 864.150947 942.264414 864.150947 928.623439 
C 864.150947 914.982464 858.73133 901.898352 849.085704 892.252726 
C 839.440079 882.607101 826.355967 877.187484 812.714992 877.187484 
C 799.074017 877.187484 785.989905 882.607101 776.344279 892.252726 
C 766.698654 901.898352 761.279037 914.982464 761.279037 928.623439 
C 761.279037 942.264414 766.698654 955.348526 776.344279 964.994151 
C 785.989905 974.639777 799.074017 980.059394 812.714992 980.059394 
z
" clip-path="url(#pabd4736fef)" style="fill: #94d4a4; opacity: 0.5"/>
   </g>
   <g id="patch_22">
    <path d="M 533.200719 363.915944 
C 539.954879 363.915944 546.433315 361.232487 551.209228 356.456575 
C 555.98514 351.680663 558.668596 345.202226 558.668596 338.448066 
C 558.668596 331.693906 555.98514 325.215469 551.209228 320.439557 
C 546.433315 315.663644 539.954879 312.980188 533.200719 312.980188 
C 526.446559 312.980188 519.968122 315.663644 515.19221 320.439557 
C 510.416297 325.215469 507.732841 331.693906 507.732841 338.448066 
C 507.732841 345.202226 510.416297 351.680663 515.19221 356.456575 
C 519.968122 361.232487 526.446559 363.915944 533.200719 363.915944 
z
" clip-path="url(#pabd4736fef)" style="fill: #7ccaa5; opacity: 0.5"/>
   </g>
   <g id="patch_23">
    <path d="M 474.764641 840.521292 
C 504.930393 840.521292 533.864695 828.536312 555.195103 807.205904 
C 576.525511 785.875496 588.510491 756.941194 588.510491 726.775442 
C 588.510491 696.60969 576.525511 667.675388 555.195103 646.34498 
C 533.864695 625.014572 504.930393 613.029592 474.764641 613.029592 
C 444.598889 613.029592 415.664587 625.014572 394.334179 646.34498 
C 373.003772 667.675388 361.018791 696.60969 361.018791 726.775442 
C 361.018791 756.941194 373.003772 785.875496 394.334179 807.205904 
C 415.664587 828.536312 444.598889 840.521292 474.764641 840.521292 
z
" clip-path="url(#pabd4736fef)" style="fill: #62bda7; opacity: 0.5"/>
   </g>
   <g id="patch_24">
    <path d="M 753.18462 1004.139862 
C 760.114242 1004.139862 766.760977 1001.386694 771.66096 996.486711 
C 776.560943 991.586728 779.314111 984.939992 779.314111 978.01037 
C 779.314111 971.080748 776.560943 964.434013 771.66096 959.53403 
C 766.760977 954.634047 760.114242 951.880879 753.18462 951.880879 
C 746.254998 951.880879 739.608262 954.634047 734.708279 959.53403 
C 729.808296 964.434013 727.055128 971.080748 727.055128 978.01037 
C 727.055128 984.939992 729.808296 991.586728 734.708279 996.486711 
C 739.608262 1001.386694 746.254998 1004.139862 753.18462 1004.139862 
z
" clip-path="url(#pabd4736fef)" style="fill: #4ea7b0; opacity: 0.5"/>
   </g>
   <g id="patch_25">
    <path d="M 958.968233 1231.2 
C 1000.343358 1231.2 1040.029435 1214.761489 1069.286066 1185.504857 
C 1098.542697 1156.248226 1114.981209 1116.562149 1114.981209 1075.187024 
C 1114.981209 1033.811899 1098.542697 994.125822 1069.286066 964.869191 
C 1040.029435 935.61256 1000.343358 919.174048 958.968233 919.174048 
C 917.593108 919.174048 877.907031 935.61256 848.6504 964.869191 
C 819.393769 994.125822 802.955257 1033.811899 802.955257 1075.187024 
C 802.955257 1116.562149 819.393769 1156.248226 848.6504 1185.504857 
C 877.907031 1214.761489 917.593108 1231.2 958.968233 1231.2 
z
" clip-path="url(#pabd4736fef)" style="fill: #3990ba; opacity: 0.5"/>
   </g>
   <g id="patch_26">
    <path d="M 466.340433 377.349775 
C 467.889943 377.349775 469.376199 376.734148 470.471868 375.638479 
C 471.567537 374.542809 472.183165 373.056554 472.183165 371.507044 
C 472.183165 369.957533 471.567537 368.471278 470.471868 367.375608 
C 469.376199 366.279939 467.889943 365.664312 466.340433 365.664312 
C 464.790922 365.664312 463.304667 366.279939 462.208997 367.375608 
C 461.113328 368.471278 460.497701 369.957533 460.497701 371.507044 
C 460.497701 373.056554 461.113328 374.542809 462.208997 375.638479 
C 463.304667 376.734148 464.790922 377.349775 466.340433 377.349775 
z
" clip-path="url(#pabd4736fef)" style="fill: #3d79b6; opacity: 0.5"/>
   </g>
   <g id="patch_27">
    <path d="M 451.561947 609.527736 
C 458.662696 609.527736 465.473573 606.706579 470.494562 601.68559 
C 475.51555 596.664602 478.336708 589.853725 478.336708 582.752975 
C 478.336708 575.652226 475.51555 568.841348 470.494562 563.82036 
C 465.473573 558.799372 458.662696 555.978214 451.561947 555.978214 
C 444.461197 555.978214 437.65032 558.799372 432.629332 563.82036 
C 427.608343 568.841348 424.787186 575.652226 424.787186 582.752975 
C 424.787186 589.853725 427.608343 596.664602 432.629332 601.68559 
C 437.65032 606.706579 444.461197 609.527736 451.561947 609.527736 
z
" clip-path="url(#pabd4736fef)" style="fill: #4e63ac; opacity: 0.5"/>
   </g>
   <g id="patch_28">
    <path d="M 577.963595 391.580014 
C 584.537612 391.580014 590.843259 388.968129 595.491791 384.319597 
C 600.140323 379.671065 602.752207 373.365418 602.752207 366.791402 
C 602.752207 360.217385 600.140323 353.911738 595.491791 349.263206 
C 590.843259 344.614674 584.537612 342.00279 577.963595 342.00279 
C 571.389578 342.00279 565.083931 344.614674 560.4354 349.263206 
C 555.786868 353.911738 553.174983 360.217385 553.174983 366.791402 
C 553.174983 373.365418 555.786868 379.671065 560.4354 384.319597 
C 565.083931 388.968129 571.389578 391.580014 577.963595 391.580014 
z
" clip-path="url(#pabd4736fef)" style="fill: #5e4fa2; opacity: 0.5"/>
   </g>
   <g id="line2d_1">
    <path d="M 614.969664 734.574387 
L 474.764641 726.775442 
" clip-path="url(#pabd4736fef)" style="fill: none; stroke: #808080; stroke-opacity: 0.3; stroke-width: 0.5; stroke-linecap: square"/>
   </g>
   <g id="line2d_2">
    <path d="M 614.969664 734.574387 
L 655.927721 782.888923 
" clip-path="url(#pabd4736fef)" style="fill: none; stroke: #808080; stroke-opacity: 0.3; stroke-width: 0.5; stroke-linecap: square"/>
   </g>
   <g id="line2d_3">
    <path d="M 450.710206 347.398233 
L 446.952184 370.031809 
" clip-path="url(#pabd4736fef)" style="fill: none; stroke: #808080; stroke-opacity: 0.3; stroke-width: 0.5; stroke-linecap: square"/>
   </g>
   <g id="line2d_4">
    <path d="M 450.710206 347.398233 
L 482.441671 344.456489 
" clip-path="url(#pabd4736fef)" style="fill: none; stroke: #808080; stroke-opacity: 0.3; stroke-width: 0.5; stroke-linecap: square"/>
   </g>
   <g id="line2d_5">
    <path d="M 450.710206 347.398233 
L 449.053338 331.508497 
" clip-path="url(#pabd4736fef)" style="fill: none; stroke: #808080; stroke-opacity: 0.3; stroke-width: 0.5; stroke-linecap: square"/>
   </g>
   <g id="line2d_6">
    <path d="M 466.340433 371.507044 
L 446.952184 370.031809 
" clip-path="url(#pabd4736fef)" style="fill: none; stroke: #808080; stroke-opacity: 0.3; stroke-width: 0.5; stroke-linecap: square"/>
   </g>
   <g id="line2d_7">
    <path d="M 466.340433 371.507044 
L 482.441671 344.456489 
" clip-path="url(#pabd4736fef)" style="fill: none; stroke: #808080; stroke-opacity: 0.3; stroke-width: 0.5; stroke-linecap: square"/>
   </g>
   <g id="line2d_8">
    <path d="M 466.340433 371.507044 
L 476.900238 380.748658 
" clip-path="url(#pabd4736fef)" style="fill: none; stroke: #808080; stroke-opacity: 0.3; stroke-width: 0.5; stroke-linecap: square"/>
   </g>
   <g id="line2d_9">
    <path d="M 836.487734 527.564422 
L 474.764641 726.775442 
" clip-path="url(#pabd4736fef)" style="fill: none; stroke: #808080; stroke-opacity: 0.3; stroke-width: 0.5; stroke-linecap: square"/>
   </g>
   <g id="line2d_10">
    <path d="M 836.487734 527.564422 
L 577.963595 366.791402 
" clip-path="url(#pabd4736fef)" style="fill: none; stroke: #808080; stroke-opacity: 0.3; stroke-width: 0.5; stroke-linecap: square"/>
   </g>
   <g id="line2d_11">
    <path d="M 836.487734 527.564422 
L 655.927721 782.888923 
" clip-path="url(#pabd4736fef)" style="fill: none; stroke: #808080; stroke-opacity: 0.3; stroke-width: 0.5; stroke-linecap: square"/>
   </g>
   <g id="line2d_12">
    <path d="M 836.487734 527.564422 
L 507.533775 526.165144 
" clip-path="url(#pabd4736fef)" style="fill: none; stroke: #808080; stroke-opacity: 0.3; stroke-width: 0.5; stroke-linecap: square"/>
   </g>
   <g id="line2d_13">
    <path d="M 836.487734 527.564422 
L 517.415577 599.780322 
" clip-path="url(#pabd4736fef)" style="fill: none; stroke: #808080; stroke-opacity: 0.3; stroke-width: 0.5; stroke-linecap: square"/>
   </g>
   <g id="line2d_14">
    <path d="M 836.487734 527.564422 
L 603.214238 284.479089 
" clip-path="url(#pabd4736fef)" style="fill: none; stroke: #808080; stroke-opacity: 0.3; stroke-width: 0.5; stroke-linecap: square"/>
   </g>
   <g id="line2d_15">
    <path d="M 511.247113 367.344132 
L 482.441671 344.456489 
" clip-path="url(#pabd4736fef)" style="fill: none; stroke: #808080; stroke-opacity: 0.3; stroke-width: 0.5; stroke-linecap: square"/>
   </g>
   <g id="line2d_16">
    <path d="M 511.247113 367.344132 
L 533.200719 338.448066 
" clip-path="url(#pabd4736fef)" style="fill: none; stroke: #808080; stroke-opacity: 0.3; stroke-width: 0.5; stroke-linecap: square"/>
   </g>
   <g id="line2d_17">
    <path d="M 482.441671 344.456489 
L 488.624064 313.576258 
" clip-path="url(#pabd4736fef)" style="fill: none; stroke: #808080; stroke-opacity: 0.3; stroke-width: 0.5; stroke-linecap: square"/>
   </g>
   <g id="line2d_18">
    <path d="M 482.441671 344.456489 
L 446.952184 370.031809 
" clip-path="url(#pabd4736fef)" style="fill: none; stroke: #808080; stroke-opacity: 0.3; stroke-width: 0.5; stroke-linecap: square"/>
   </g>
   <g id="line2d_19">
    <path d="M 482.441671 344.456489 
L 449.053338 331.508497 
" clip-path="url(#pabd4736fef)" style="fill: none; stroke: #808080; stroke-opacity: 0.3; stroke-width: 0.5; stroke-linecap: square"/>
   </g>
   <g id="line2d_20">
    <path d="M 482.441671 344.456489 
L 533.200719 338.448066 
" clip-path="url(#pabd4736fef)" style="fill: none; stroke: #808080; stroke-opacity: 0.3; stroke-width: 0.5; stroke-linecap: square"/>
   </g>
   <g id="line2d_21">
    <path d="M 428.509617 388.491451 
L 446.952184 370.031809 
" clip-path="url(#pabd4736fef)" style="fill: none; stroke: #808080; stroke-opacity: 0.3; stroke-width: 0.5; stroke-linecap: square"/>
   </g>
   <g id="line2d_22">
    <path d="M 554.04589 235.7276 
L 603.214238 284.479089 
" clip-path="url(#pabd4736fef)" style="fill: none; stroke: #808080; stroke-opacity: 0.3; stroke-width: 0.5; stroke-linecap: square"/>
   </g>
   <g id="line2d_23">
    <path d="M 554.04589 235.7276 
L 538.399098 238.767572 
" clip-path="url(#pabd4736fef)" style="fill: none; stroke: #808080; stroke-opacity: 0.3; stroke-width: 0.5; stroke-linecap: square"/>
   </g>
   <g id="line2d_24">
    <path d="M 446.952184 370.031809 
L 476.900238 380.748658 
" clip-path="url(#pabd4736fef)" style="fill: none; stroke: #808080; stroke-opacity: 0.3; stroke-width: 0.5; stroke-linecap: square"/>
   </g>
   <g id="line2d_25">
    <path d="M 958.968233 1075.187024 
L 812.714992 928.623439 
" clip-path="url(#pabd4736fef)" style="fill: none; stroke: #808080; stroke-opacity: 0.3; stroke-width: 0.5; stroke-linecap: square"/>
   </g>
   <g id="line2d_26">
    <path d="M 474.764641 726.775442 
L 655.927721 782.888923 
" clip-path="url(#pabd4736fef)" style="fill: none; stroke: #808080; stroke-opacity: 0.3; stroke-width: 0.5; stroke-linecap: square"/>
   </g>
   <g id="line2d_27">
    <path d="M 474.764641 726.775442 
L 507.533775 526.165144 
" clip-path="url(#pabd4736fef)" style="fill: none; stroke: #808080; stroke-opacity: 0.3; stroke-width: 0.5; stroke-linecap: square"/>
   </g>
   <g id="line2d_28">
    <path d="M 474.764641 726.775442 
L 517.415577 599.780322 
" clip-path="url(#pabd4736fef)" style="fill: none; stroke: #808080; stroke-opacity: 0.3; stroke-width: 0.5; stroke-linecap: square"/>
   </g>
   <g id="line2d_29">
    <path d="M 486.609484 596.156184 
L 517.415577 599.780322 
" clip-path="url(#pabd4736fef)" style="fill: none; stroke: #808080; stroke-opacity: 0.3; stroke-width: 0.5; stroke-linecap: square"/>
   </g>
   <g id="line2d_30">
    <path d="M 486.609484 596.156184 
L 451.561947 582.752975 
" clip-path="url(#pabd4736fef)" style="fill: none; stroke: #808080; stroke-opacity: 0.3; stroke-width: 0.5; stroke-linecap: square"/>
   </g>
   <g id="line2d_31">
    <path d="M 753.18462 978.01037 
L 683.837797 896.53703 
" clip-path="url(#pabd4736fef)" style="fill: none; stroke: #808080; stroke-opacity: 0.3; stroke-width: 0.5; stroke-linecap: square"/>
   </g>
   <g id="line2d_32">
    <path d="M 577.963595 366.791402 
L 603.214238 284.479089 
" clip-path="url(#pabd4736fef)" style="fill: none; stroke: #808080; stroke-opacity: 0.3; stroke-width: 0.5; stroke-linecap: square"/>
   </g>
   <g id="line2d_33">
    <path d="M 577.963595 366.791402 
L 556.664009 404.858863 
" clip-path="url(#pabd4736fef)" style="fill: none; stroke: #808080; stroke-opacity: 0.3; stroke-width: 0.5; stroke-linecap: square"/>
   </g>
   <g id="line2d_34">
    <path d="M 655.927721 782.888923 
L 683.837797 896.53703 
" clip-path="url(#pabd4736fef)" style="fill: none; stroke: #808080; stroke-opacity: 0.3; stroke-width: 0.5; stroke-linecap: square"/>
   </g>
   <g id="line2d_35">
    <path d="M 812.714992 928.623439 
L 683.837797 896.53703 
" clip-path="url(#pabd4736fef)" style="fill: none; stroke: #808080; stroke-opacity: 0.3; stroke-width: 0.5; stroke-linecap: square"/>
   </g>
   <g id="line2d_36">
    <path d="M 533.200719 338.448066 
L 603.214238 284.479089 
" clip-path="url(#pabd4736fef)" style="fill: none; stroke: #808080; stroke-opacity: 0.3; stroke-width: 0.5; stroke-linecap: square"/>
   </g>
   <g id="text_1">
    <!-- NLD -->
    <g transform="translate(442.8274 333.164122) scale(0.06 -0.06)">
     <defs>
      <path id="DejaVuSans-4e" d="M 628 4666 
L 1478 4666 
L 3547 763 
L 3547 4666 
L 4159 4666 
L 4159 0 
L 3309 0 
L 1241 3903 
L 1241 0 
L 628 0 
L 628 4666 
z
" transform="scale(0.015625)"/>
      <path id="DejaVuSans-4c" d="M 628 4666 
L 1259 4666 
L 1259 531 
L 3531 531 
L 3531 0 
L 628 0 
L 628 4666 
z
" transform="scale(0.015625)"/>
      <path id="DejaVuSans-44" d="M 1259 4147 
L 1259 519 
L 2022 519 
Q 2988 519 3436 956 
Q 3884 1394 3884 2338 
Q 3884 3275 3436 3711 
Q 2988 4147 2022 4147 
L 1259 4147 
z
M 628 4666 
L 1925 4666 
Q 3281 4666 3915 4102 
Q 4550 3538 4550 2338 
Q 4550 1131 3912 565 
Q 3275 0 1925 0 
L 628 0 
L 628 4666 
z
" transform="scale(0.015625)"/>
     </defs>
     <use xlink:href="#DejaVuSans-4e"/>
     <use xlink:href="#DejaVuSans-4c" x="74.804688"/>
     <use xlink:href="#DejaVuSans-44" x="130.517578"/>
    </g>
   </g>
   <g id="text_2">
    <!-- UZB -->
    <g transform="translate(550.407602 406.514488) scale(0.06 -0.06)">
     <defs>
      <path id="DejaVuSans-55" d="M 556 4666 
L 1191 4666 
L 1191 1831 
Q 1191 1081 1462 751 
Q 1734 422 2344 422 
Q 2950 422 3222 751 
Q 3494 1081 3494 1831 
L 3494 4666 
L 4128 4666 
L 4128 1753 
Q 4128 841 3676 375 
Q 3225 -91 2344 -91 
Q 1459 -91 1007 375 
Q 556 841 556 1753 
L 556 4666 
z
" transform="scale(0.015625)"/>
      <path id="DejaVuSans-5a" d="M 359 4666 
L 4025 4666 
L 4025 4184 
L 1075 531 
L 4097 531 
L 4097 0 
L 288 0 
L 288 481 
L 3238 4134 
L 359 4134 
L 359 4666 
z
" transform="scale(0.015625)"/>
      <path id="DejaVuSans-42" d="M 1259 2228 
L 1259 519 
L 2272 519 
Q 2781 519 3026 730 
Q 3272 941 3272 1375 
Q 3272 1813 3026 2020 
Q 2781 2228 2272 2228 
L 1259 2228 
z
M 1259 4147 
L 1259 2741 
L 2194 2741 
Q 2656 2741 2882 2914 
Q 3109 3088 3109 3444 
Q 3109 3797 2882 3972 
Q 2656 4147 2194 4147 
L 1259 4147 
z
M 628 4666 
L 2241 4666 
Q 2963 4666 3353 4366 
Q 3744 4066 3744 3513 
Q 3744 3084 3544 2831 
Q 3344 2578 2956 2516 
Q 3422 2416 3680 2098 
Q 3938 1781 3938 1306 
Q 3938 681 3513 340 
Q 3088 0 2303 0 
L 628 0 
L 628 4666 
z
" transform="scale(0.015625)"/>
     </defs>
     <use xlink:href="#DejaVuSans-55"/>
     <use xlink:href="#DejaVuSans-5a" x="71.443359"/>
     <use xlink:href="#DejaVuSans-42" x="139.949219"/>
    </g>
   </g>
   <g id="text_3">
    <!-- ITA -->
    <g transform="translate(472.363207 382.404283) scale(0.06 -0.06)">
     <defs>
      <path id="DejaVuSans-49" d="M 628 4666 
L 1259 4666 
L 1259 0 
L 628 0 
L 628 4666 
z
" transform="scale(0.015625)"/>
      <path id="DejaVuSans-54" d="M -19 4666 
L 3928 4666 
L 3928 4134 
L 2272 4134 
L 2272 0 
L 1638 0 
L 1638 4134 
L -19 4134 
L -19 4666 
z
" transform="scale(0.015625)"/>
      <path id="DejaVuSans-41" d="M 2188 4044 
L 1331 1722 
L 3047 1722 
L 2188 4044 
z
M 1831 4666 
L 2547 4666 
L 4325 0 
L 3669 0 
L 3244 1197 
L 1141 1197 
L 716 0 
L 50 0 
L 1831 4666 
z
" transform="scale(0.015625)"/>
     </defs>
     <use xlink:href="#DejaVuSans-49"/>
     <use xlink:href="#DejaVuSans-54" x="29.492188"/>
     <use xlink:href="#DejaVuSans-41" x="82.826172"/>
    </g>
   </g>
   <g id="text_4">
    <!-- FRA -->
    <g transform="translate(441.209997 371.687434) scale(0.06 -0.06)">
     <defs>
      <path id="DejaVuSans-46" d="M 628 4666 
L 3309 4666 
L 3309 4134 
L 1259 4134 
L 1259 2759 
L 3109 2759 
L 3109 2228 
L 1259 2228 
L 1259 0 
L 628 0 
L 628 4666 
z
" transform="scale(0.015625)"/>
      <path id="DejaVuSans-52" d="M 2841 2188 
Q 3044 2119 3236 1894 
Q 3428 1669 3622 1275 
L 4263 0 
L 3584 0 
L 2988 1197 
Q 2756 1666 2539 1819 
Q 2322 1972 1947 1972 
L 1259 1972 
L 1259 0 
L 628 0 
L 628 4666 
L 2053 4666 
Q 2853 4666 3247 4331 
Q 3641 3997 3641 3322 
Q 3641 2881 3436 2590 
Q 3231 2300 2841 2188 
z
M 1259 4147 
L 1259 2491 
L 2053 2491 
Q 2509 2491 2742 2702 
Q 2975 2913 2975 3322 
Q 2975 3731 2742 3939 
Q 2509 4147 2053 4147 
L 1259 4147 
z
" transform="scale(0.015625)"/>
     </defs>
     <use xlink:href="#DejaVuSans-46"/>
     <use xlink:href="#DejaVuSans-52" x="57.519531"/>
     <use xlink:href="#DejaVuSans-41" x="123.001953"/>
    </g>
   </g>
   <g id="text_5">
    <!-- DEU -->
    <g transform="translate(476.040421 346.112114) scale(0.06 -0.06)">
     <defs>
      <path id="DejaVuSans-45" d="M 628 4666 
L 3578 4666 
L 3578 4134 
L 1259 4134 
L 1259 2753 
L 3481 2753 
L 3481 2222 
L 1259 2222 
L 1259 531 
L 3634 531 
L 3634 0 
L 628 0 
L 628 4666 
z
" transform="scale(0.015625)"/>
     </defs>
     <use xlink:href="#DejaVuSans-44"/>
     <use xlink:href="#DejaVuSans-45" x="77.001953"/>
     <use xlink:href="#DejaVuSans-55" x="140.185547"/>
    </g>
   </g>
   <g id="text_6">
    <!-- THA -->
    <g transform="translate(677.697172 898.192655) scale(0.06 -0.06)">
     <defs>
      <path id="DejaVuSans-48" d="M 628 4666 
L 1259 4666 
L 1259 2753 
L 3553 2753 
L 3553 4666 
L 4184 4666 
L 4184 0 
L 3553 0 
L 3553 2222 
L 1259 2222 
L 1259 0 
L 628 0 
L 628 4666 
z
" transform="scale(0.015625)"/>
     </defs>
     <use xlink:href="#DejaVuSans-54"/>
     <use xlink:href="#DejaVuSans-48" x="61.083984"/>
     <use xlink:href="#DejaVuSans-41" x="136.279297"/>
    </g>
   </g>
   <g id="text_7">
    <!-- CHN -->
    <g transform="translate(829.892422 529.220047) scale(0.06 -0.06)">
     <defs>
      <path id="DejaVuSans-43" d="M 4122 4306 
L 4122 3641 
Q 3803 3938 3442 4084 
Q 3081 4231 2675 4231 
Q 1875 4231 1450 3742 
Q 1025 3253 1025 2328 
Q 1025 1406 1450 917 
Q 1875 428 2675 428 
Q 3081 428 3442 575 
Q 3803 722 4122 1019 
L 4122 359 
Q 3791 134 3420 21 
Q 3050 -91 2638 -91 
Q 1578 -91 968 557 
Q 359 1206 359 2328 
Q 359 3453 968 4101 
Q 1578 4750 2638 4750 
Q 3056 4750 3426 4639 
Q 3797 4528 4122 4306 
z
" transform="scale(0.015625)"/>
     </defs>
     <use xlink:href="#DejaVuSans-43"/>
     <use xlink:href="#DejaVuSans-48" x="69.824219"/>
     <use xlink:href="#DejaVuSans-4e" x="145.019531"/>
    </g>
   </g>
   <g id="text_8">
    <!-- PAK -->
    <g transform="translate(511.77839 601.435947) scale(0.06 -0.06)">
     <defs>
      <path id="DejaVuSans-50" d="M 1259 4147 
L 1259 2394 
L 2053 2394 
Q 2494 2394 2734 2622 
Q 2975 2850 2975 3272 
Q 2975 3691 2734 3919 
Q 2494 4147 2053 4147 
L 1259 4147 
z
M 628 4666 
L 2053 4666 
Q 2838 4666 3239 4311 
Q 3641 3956 3641 3272 
Q 3641 2581 3239 2228 
Q 2838 1875 2053 1875 
L 1259 1875 
L 1259 0 
L 628 0 
L 628 4666 
z
" transform="scale(0.015625)"/>
      <path id="DejaVuSans-4b" d="M 628 4666 
L 1259 4666 
L 1259 2694 
L 3353 4666 
L 4166 4666 
L 1850 2491 
L 4331 0 
L 3500 0 
L 1259 2247 
L 1259 0 
L 628 0 
L 628 4666 
z
" transform="scale(0.015625)"/>
     </defs>
     <use xlink:href="#DejaVuSans-50"/>
     <use xlink:href="#DejaVuSans-41" x="53.927734"/>
     <use xlink:href="#DejaVuSans-4b" x="122.335938"/>
    </g>
   </g>
   <g id="text_9">
    <!-- SWE -->
    <g transform="translate(531.632692 240.423197) scale(0.06 -0.06)">
     <defs>
      <path id="DejaVuSans-53" d="M 3425 4513 
L 3425 3897 
Q 3066 4069 2747 4153 
Q 2428 4238 2131 4238 
Q 1616 4238 1336 4038 
Q 1056 3838 1056 3469 
Q 1056 3159 1242 3001 
Q 1428 2844 1947 2747 
L 2328 2669 
Q 3034 2534 3370 2195 
Q 3706 1856 3706 1288 
Q 3706 609 3251 259 
Q 2797 -91 1919 -91 
Q 1588 -91 1214 -16 
Q 841 59 441 206 
L 441 856 
Q 825 641 1194 531 
Q 1563 422 1919 422 
Q 2459 422 2753 634 
Q 3047 847 3047 1241 
Q 3047 1584 2836 1778 
Q 2625 1972 2144 2069 
L 1759 2144 
Q 1053 2284 737 2584 
Q 422 2884 422 3419 
Q 422 4038 858 4394 
Q 1294 4750 2059 4750 
Q 2388 4750 2728 4690 
Q 3069 4631 3425 4513 
z
" transform="scale(0.015625)"/>
      <path id="DejaVuSans-57" d="M 213 4666 
L 850 4666 
L 1831 722 
L 2809 4666 
L 3519 4666 
L 4500 722 
L 5478 4666 
L 6119 4666 
L 4947 0 
L 4153 0 
L 3169 4050 
L 2175 0 
L 1381 0 
L 213 4666 
z
" transform="scale(0.015625)"/>
     </defs>
     <use xlink:href="#DejaVuSans-53"/>
     <use xlink:href="#DejaVuSans-57" x="63.476562"/>
     <use xlink:href="#DejaVuSans-45" x="162.353516"/>
    </g>
   </g>
   <g id="text_10">
    <!-- FIN -->
    <g transform="translate(549.191046 237.383225) scale(0.06 -0.06)">
     <use xlink:href="#DejaVuSans-46"/>
     <use xlink:href="#DejaVuSans-49" x="57.519531"/>
     <use xlink:href="#DejaVuSans-4e" x="87.011719"/>
    </g>
   </g>
   <g id="text_11">
    <!-- ESP -->
    <g transform="translate(422.900554 390.147076) scale(0.06 -0.06)">
     <use xlink:href="#DejaVuSans-45"/>
     <use xlink:href="#DejaVuSans-53" x="63.183594"/>
     <use xlink:href="#DejaVuSans-50" x="126.660156"/>
    </g>
   </g>
   <g id="text_12">
    <!-- MMR -->
    <g transform="translate(648.666315 784.544548) scale(0.06 -0.06)">
     <defs>
      <path id="DejaVuSans-4d" d="M 628 4666 
L 1569 4666 
L 2759 1491 
L 3956 4666 
L 4897 4666 
L 4897 0 
L 4281 0 
L 4281 4097 
L 3078 897 
L 2444 897 
L 1241 4097 
L 1241 0 
L 628 0 
L 628 4666 
z
" transform="scale(0.015625)"/>
     </defs>
     <use xlink:href="#DejaVuSans-4d"/>
     <use xlink:href="#DejaVuSans-4d" x="86.279297"/>
     <use xlink:href="#DejaVuSans-52" x="172.558594"/>
    </g>
   </g>
   <g id="text_13">
    <!-- NPL -->
    <g transform="translate(501.808931 527.820769) scale(0.06 -0.06)">
     <use xlink:href="#DejaVuSans-4e"/>
     <use xlink:href="#DejaVuSans-50" x="74.804688"/>
     <use xlink:href="#DejaVuSans-4c" x="135.107422"/>
    </g>
   </g>
   <g id="text_14">
    <!-- DNK -->
    <g transform="translate(482.102346 315.231883) scale(0.06 -0.06)">
     <use xlink:href="#DejaVuSans-44"/>
     <use xlink:href="#DejaVuSans-4e" x="77.001953"/>
     <use xlink:href="#DejaVuSans-4b" x="151.806641"/>
    </g>
   </g>
   <g id="text_15">
    <!-- BEL -->
    <g transform="translate(445.084737 349.053858) scale(0.06 -0.06)">
     <use xlink:href="#DejaVuSans-42"/>
     <use xlink:href="#DejaVuSans-45" x="68.603516"/>
     <use xlink:href="#DejaVuSans-4c" x="131.787109"/>
    </g>
   </g>
   <g id="text_16">
    <!-- BGD -->
    <g transform="translate(608.329351 736.230012) scale(0.06 -0.06)">
     <defs>
      <path id="DejaVuSans-47" d="M 3809 666 
L 3809 1919 
L 2778 1919 
L 2778 2438 
L 4434 2438 
L 4434 434 
Q 4069 175 3628 42 
Q 3188 -91 2688 -91 
Q 1594 -91 976 548 
Q 359 1188 359 2328 
Q 359 3472 976 4111 
Q 1594 4750 2688 4750 
Q 3144 4750 3555 4637 
Q 3966 4525 4313 4306 
L 4313 3634 
Q 3963 3931 3569 4081 
Q 3175 4231 2741 4231 
Q 1884 4231 1454 3753 
Q 1025 3275 1025 2328 
Q 1025 1384 1454 906 
Q 1884 428 2741 428 
Q 3075 428 3337 486 
Q 3600 544 3809 666 
z
" transform="scale(0.015625)"/>
     </defs>
     <use xlink:href="#DejaVuSans-42"/>
     <use xlink:href="#DejaVuSans-47" x="66.853516"/>
     <use xlink:href="#DejaVuSans-44" x="144.34375"/>
    </g>
   </g>
   <g id="text_17">
    <!-- CZE -->
    <g transform="translate(505.201645 368.999757) scale(0.06 -0.06)">
     <use xlink:href="#DejaVuSans-43"/>
     <use xlink:href="#DejaVuSans-5a" x="69.824219"/>
     <use xlink:href="#DejaVuSans-45" x="138.330078"/>
    </g>
   </g>
   <g id="text_18">
    <!-- IRN -->
    <g transform="translate(481.395577 597.811809) scale(0.06 -0.06)">
     <use xlink:href="#DejaVuSans-49"/>
     <use xlink:href="#DejaVuSans-52" x="29.492188"/>
     <use xlink:href="#DejaVuSans-4e" x="98.974609"/>
    </g>
   </g>
   <g id="text_19">
    <!-- RUS -->
    <g transform="translate(597.029551 286.134714) scale(0.06 -0.06)">
     <use xlink:href="#DejaVuSans-52"/>
     <use xlink:href="#DejaVuSans-55" x="69.482422"/>
     <use xlink:href="#DejaVuSans-53" x="142.675781"/>
    </g>
   </g>
   <g id="text_20">
    <!-- MYS -->
    <g transform="translate(806.389679 930.279064) scale(0.06 -0.06)">
     <defs>
      <path id="DejaVuSans-59" d="M -13 4666 
L 666 4666 
L 1959 2747 
L 3244 4666 
L 3922 4666 
L 2272 2222 
L 2272 0 
L 1638 0 
L 1638 2222 
L -13 4666 
z
" transform="scale(0.015625)"/>
     </defs>
     <use xlink:href="#DejaVuSans-4d"/>
     <use xlink:href="#DejaVuSans-59" x="86.279297"/>
     <use xlink:href="#DejaVuSans-53" x="147.363281"/>
    </g>
   </g>
   <g id="text_21">
    <!-- POL -->
    <g transform="translate(527.358687 340.103691) scale(0.06 -0.06)">
     <defs>
      <path id="DejaVuSans-4f" d="M 2522 4238 
Q 1834 4238 1429 3725 
Q 1025 3213 1025 2328 
Q 1025 1447 1429 934 
Q 1834 422 2522 422 
Q 3209 422 3611 934 
Q 4013 1447 4013 2328 
Q 4013 3213 3611 3725 
Q 3209 4238 2522 4238 
z
M 2522 4750 
Q 3503 4750 4090 4092 
Q 4678 3434 4678 2328 
Q 4678 1225 4090 567 
Q 3503 -91 2522 -91 
Q 1538 -91 948 565 
Q 359 1222 359 2328 
Q 359 3434 948 4092 
Q 1538 4750 2522 4750 
z
" transform="scale(0.015625)"/>
     </defs>
     <use xlink:href="#DejaVuSans-50"/>
     <use xlink:href="#DejaVuSans-4f" x="60.302734"/>
     <use xlink:href="#DejaVuSans-4c" x="139.013672"/>
    </g>
   </g>
   <g id="text_22">
    <!-- IND -->
    <g transform="translate(469.325266 728.431067) scale(0.06 -0.06)">
     <use xlink:href="#DejaVuSans-49"/>
     <use xlink:href="#DejaVuSans-4e" x="29.492188"/>
     <use xlink:href="#DejaVuSans-44" x="104.296875"/>
    </g>
   </g>
   <g id="text_23">
    <!-- KHM -->
    <g transform="translate(746.372745 979.665995) scale(0.06 -0.06)">
     <use xlink:href="#DejaVuSans-4b"/>
     <use xlink:href="#DejaVuSans-48" x="65.576172"/>
     <use xlink:href="#DejaVuSans-4d" x="140.771484"/>
    </g>
   </g>
   <g id="text_24">
    <!-- IDN -->
    <g transform="translate(953.528858 1076.842649) scale(0.06 -0.06)">
     <use xlink:href="#DejaVuSans-49"/>
     <use xlink:href="#DejaVuSans-44" x="29.492188"/>
     <use xlink:href="#DejaVuSans-4e" x="106.494141"/>
    </g>
   </g>
   <g id="text_25">
    <!-- CHE -->
    <g transform="translate(460.09387 373.162669) scale(0.06 -0.06)">
     <use xlink:href="#DejaVuSans-43"/>
     <use xlink:href="#DejaVuSans-48" x="69.824219"/>
     <use xlink:href="#DejaVuSans-45" x="145.019531"/>
    </g>
   </g>
   <g id="text_26">
    <!-- TUR -->
    <g transform="translate(445.449447 584.4086) scale(0.06 -0.06)">
     <use xlink:href="#DejaVuSans-54"/>
     <use xlink:href="#DejaVuSans-55" x="61.083984"/>
     <use xlink:href="#DejaVuSans-52" x="134.277344"/>
    </g>
   </g>
   <g id="text_27">
    <!-- KAZ -->
    <g transform="translate(571.941564 368.447027) scale(0.06 -0.06)">
     <use xlink:href="#DejaVuSans-4b"/>
     <use xlink:href="#DejaVuSans-41" x="63.826172"/>
     <use xlink:href="#DejaVuSans-5a" x="132.234375"/>
    </g>
   </g>
   <g id="text_28">
    <!-- A:11.27 -->
    <g transform="translate(544.867153 730.674914) scale(0.04 -0.04)">
     <defs>
      <path id="DejaVuSans-3a" d="M 750 794 
L 1409 794 
L 1409 0 
L 750 0 
L 750 794 
z
M 750 3309 
L 1409 3309 
L 1409 2516 
L 750 2516 
L 750 3309 
z
" transform="scale(0.015625)"/>
      <path id="DejaVuSans-31" d="M 794 531 
L 1825 531 
L 1825 4091 
L 703 3866 
L 703 4441 
L 1819 4666 
L 2450 4666 
L 2450 531 
L 3481 531 
L 3481 0 
L 794 0 
L 794 531 
z
" transform="scale(0.015625)"/>
      <path id="DejaVuSans-2e" d="M 684 794 
L 1344 794 
L 1344 0 
L 684 0 
L 684 794 
z
" transform="scale(0.015625)"/>
      <path id="DejaVuSans-32" d="M 1228 531 
L 3431 531 
L 3431 0 
L 469 0 
L 469 531 
Q 828 903 1448 1529 
Q 2069 2156 2228 2338 
Q 2531 2678 2651 2914 
Q 2772 3150 2772 3378 
Q 2772 3750 2511 3984 
Q 2250 4219 1831 4219 
Q 1534 4219 1204 4116 
Q 875 4013 500 3803 
L 500 4441 
Q 881 4594 1212 4672 
Q 1544 4750 1819 4750 
Q 2544 4750 2975 4387 
Q 3406 4025 3406 3419 
Q 3406 3131 3298 2873 
Q 3191 2616 2906 2266 
Q 2828 2175 2409 1742 
Q 1991 1309 1228 531 
z
" transform="scale(0.015625)"/>
      <path id="DejaVuSans-37" d="M 525 4666 
L 3525 4666 
L 3525 4397 
L 1831 0 
L 1172 0 
L 2766 4134 
L 525 4134 
L 525 4666 
z
" transform="scale(0.015625)"/>
     </defs>
     <use xlink:href="#DejaVuSans-41"/>
     <use xlink:href="#DejaVuSans-3a" x="66.658203"/>
     <use xlink:href="#DejaVuSans-31" x="100.349609"/>
     <use xlink:href="#DejaVuSans-31" x="163.972656"/>
     <use xlink:href="#DejaVuSans-2e" x="227.595703"/>
     <use xlink:href="#DejaVuSans-32" x="259.382812"/>
     <use xlink:href="#DejaVuSans-37" x="323.005859"/>
    </g>
   </g>
   <g id="text_29">
    <!-- A:19.82 -->
    <g transform="translate(635.448693 758.731655) scale(0.04 -0.04)">
     <defs>
      <path id="DejaVuSans-39" d="M 703 97 
L 703 672 
Q 941 559 1184 500 
Q 1428 441 1663 441 
Q 2288 441 2617 861 
Q 2947 1281 2994 2138 
Q 2813 1869 2534 1725 
Q 2256 1581 1919 1581 
Q 1219 1581 811 2004 
Q 403 2428 403 3163 
Q 403 3881 828 4315 
Q 1253 4750 1959 4750 
Q 2769 4750 3195 4129 
Q 3622 3509 3622 2328 
Q 3622 1225 3098 567 
Q 2575 -91 1691 -91 
Q 1453 -91 1209 -44 
Q 966 3 703 97 
z
M 1959 2075 
Q 2384 2075 2632 2365 
Q 2881 2656 2881 3163 
Q 2881 3666 2632 3958 
Q 2384 4250 1959 4250 
Q 1534 4250 1286 3958 
Q 1038 3666 1038 3163 
Q 1038 2656 1286 2365 
Q 1534 2075 1959 2075 
z
" transform="scale(0.015625)"/>
      <path id="DejaVuSans-38" d="M 2034 2216 
Q 1584 2216 1326 1975 
Q 1069 1734 1069 1313 
Q 1069 891 1326 650 
Q 1584 409 2034 409 
Q 2484 409 2743 651 
Q 3003 894 3003 1313 
Q 3003 1734 2745 1975 
Q 2488 2216 2034 2216 
z
M 1403 2484 
Q 997 2584 770 2862 
Q 544 3141 544 3541 
Q 544 4100 942 4425 
Q 1341 4750 2034 4750 
Q 2731 4750 3128 4425 
Q 3525 4100 3525 3541 
Q 3525 3141 3298 2862 
Q 3072 2584 2669 2484 
Q 3125 2378 3379 2068 
Q 3634 1759 3634 1313 
Q 3634 634 3220 271 
Q 2806 -91 2034 -91 
Q 1263 -91 848 271 
Q 434 634 434 1313 
Q 434 1759 690 2068 
Q 947 2378 1403 2484 
z
M 1172 3481 
Q 1172 3119 1398 2916 
Q 1625 2713 2034 2713 
Q 2441 2713 2670 2916 
Q 2900 3119 2900 3481 
Q 2900 3844 2670 4047 
Q 2441 4250 2034 4250 
Q 1625 4250 1398 4047 
Q 1172 3844 1172 3481 
z
" transform="scale(0.015625)"/>
     </defs>
     <use xlink:href="#DejaVuSans-41"/>
     <use xlink:href="#DejaVuSans-3a" x="66.658203"/>
     <use xlink:href="#DejaVuSans-31" x="100.349609"/>
     <use xlink:href="#DejaVuSans-39" x="163.972656"/>
     <use xlink:href="#DejaVuSans-2e" x="227.595703"/>
     <use xlink:href="#DejaVuSans-38" x="259.382812"/>
     <use xlink:href="#DejaVuSans-32" x="323.005859"/>
    </g>
   </g>
   <g id="text_30">
    <!-- D:17.39 -->
    <g transform="translate(448.831195 354.235896) scale(0.04 -0.04)">
     <defs>
      <path id="DejaVuSans-33" d="M 2597 2516 
Q 3050 2419 3304 2112 
Q 3559 1806 3559 1356 
Q 3559 666 3084 287 
Q 2609 -91 1734 -91 
Q 1441 -91 1130 -33 
Q 819 25 488 141 
L 488 750 
Q 750 597 1062 519 
Q 1375 441 1716 441 
Q 2309 441 2620 675 
Q 2931 909 2931 1356 
Q 2931 1769 2642 2001 
Q 2353 2234 1838 2234 
L 1294 2234 
L 1294 2753 
L 1863 2753 
Q 2328 2753 2575 2939 
Q 2822 3125 2822 3475 
Q 2822 3834 2567 4026 
Q 2313 4219 1838 4219 
Q 1578 4219 1281 4162 
Q 984 4106 628 3988 
L 628 4550 
Q 988 4650 1302 4700 
Q 1616 4750 1894 4750 
Q 2613 4750 3031 4423 
Q 3450 4097 3450 3541 
Q 3450 3153 3228 2886 
Q 3006 2619 2597 2516 
z
" transform="scale(0.015625)"/>
     </defs>
     <use xlink:href="#DejaVuSans-44"/>
     <use xlink:href="#DejaVuSans-3a" x="77.001953"/>
     <use xlink:href="#DejaVuSans-31" x="110.693359"/>
     <use xlink:href="#DejaVuSans-37" x="174.316406"/>
     <use xlink:href="#DejaVuSans-2e" x="237.939453"/>
     <use xlink:href="#DejaVuSans-33" x="269.726562"/>
     <use xlink:href="#DejaVuSans-39" x="333.349609"/>
    </g>
    <!-- A:7.33 -->
    <g transform="translate(448.831195 358.715021) scale(0.04 -0.04)">
     <use xlink:href="#DejaVuSans-41"/>
     <use xlink:href="#DejaVuSans-3a" x="66.658203"/>
     <use xlink:href="#DejaVuSans-37" x="100.349609"/>
     <use xlink:href="#DejaVuSans-2e" x="163.972656"/>
     <use xlink:href="#DejaVuSans-33" x="195.759766"/>
     <use xlink:href="#DejaVuSans-33" x="259.382812"/>
    </g>
   </g>
   <g id="text_31">
    <!-- A:7.33 -->
    <g transform="translate(448.831195 358.715021) scale(0.04 -0.04)">
     <use xlink:href="#DejaVuSans-41"/>
     <use xlink:href="#DejaVuSans-3a" x="66.658203"/>
     <use xlink:href="#DejaVuSans-37" x="100.349609"/>
     <use xlink:href="#DejaVuSans-2e" x="163.972656"/>
     <use xlink:href="#DejaVuSans-33" x="195.759766"/>
     <use xlink:href="#DejaVuSans-33" x="259.382812"/>
    </g>
   </g>
   <g id="text_32">
    <!-- D:0.71 -->
    <g transform="translate(466.575938 341.448236) scale(0.04 -0.04)">
     <defs>
      <path id="DejaVuSans-30" d="M 2034 4250 
Q 1547 4250 1301 3770 
Q 1056 3291 1056 2328 
Q 1056 1369 1301 889 
Q 1547 409 2034 409 
Q 2525 409 2770 889 
Q 3016 1369 3016 2328 
Q 3016 3291 2770 3770 
Q 2525 4250 2034 4250 
z
M 2034 4750 
Q 2819 4750 3233 4129 
Q 3647 3509 3647 2328 
Q 3647 1150 3233 529 
Q 2819 -91 2034 -91 
Q 1250 -91 836 529 
Q 422 1150 422 2328 
Q 422 3509 836 4129 
Q 1250 4750 2034 4750 
z
" transform="scale(0.015625)"/>
     </defs>
     <use xlink:href="#DejaVuSans-44"/>
     <use xlink:href="#DejaVuSans-3a" x="77.001953"/>
     <use xlink:href="#DejaVuSans-30" x="110.693359"/>
     <use xlink:href="#DejaVuSans-2e" x="174.316406"/>
     <use xlink:href="#DejaVuSans-37" x="206.103516"/>
     <use xlink:href="#DejaVuSans-31" x="269.726562"/>
    </g>
    <!-- A:1.67 -->
    <g transform="translate(466.575938 345.927361) scale(0.04 -0.04)">
     <defs>
      <path id="DejaVuSans-36" d="M 2113 2584 
Q 1688 2584 1439 2293 
Q 1191 2003 1191 1497 
Q 1191 994 1439 701 
Q 1688 409 2113 409 
Q 2538 409 2786 701 
Q 3034 994 3034 1497 
Q 3034 2003 2786 2293 
Q 2538 2584 2113 2584 
z
M 3366 4563 
L 3366 3988 
Q 3128 4100 2886 4159 
Q 2644 4219 2406 4219 
Q 1781 4219 1451 3797 
Q 1122 3375 1075 2522 
Q 1259 2794 1537 2939 
Q 1816 3084 2150 3084 
Q 2853 3084 3261 2657 
Q 3669 2231 3669 1497 
Q 3669 778 3244 343 
Q 2819 -91 2113 -91 
Q 1303 -91 875 529 
Q 447 1150 447 2328 
Q 447 3434 972 4092 
Q 1497 4750 2381 4750 
Q 2619 4750 2861 4703 
Q 3103 4656 3366 4563 
z
" transform="scale(0.015625)"/>
     </defs>
     <use xlink:href="#DejaVuSans-41"/>
     <use xlink:href="#DejaVuSans-3a" x="66.658203"/>
     <use xlink:href="#DejaVuSans-31" x="100.349609"/>
     <use xlink:href="#DejaVuSans-2e" x="163.972656"/>
     <use xlink:href="#DejaVuSans-36" x="195.759766"/>
     <use xlink:href="#DejaVuSans-37" x="259.382812"/>
    </g>
   </g>
   <g id="text_33">
    <!-- A:1.67 -->
    <g transform="translate(466.575938 345.927361) scale(0.04 -0.04)">
     <use xlink:href="#DejaVuSans-41"/>
     <use xlink:href="#DejaVuSans-3a" x="66.658203"/>
     <use xlink:href="#DejaVuSans-31" x="100.349609"/>
     <use xlink:href="#DejaVuSans-2e" x="163.972656"/>
     <use xlink:href="#DejaVuSans-36" x="195.759766"/>
     <use xlink:href="#DejaVuSans-37" x="259.382812"/>
    </g>
   </g>
   <g id="text_34">
    <!-- D:0.08 -->
    <g transform="translate(449.881772 334.97424) scale(0.04 -0.04)">
     <use xlink:href="#DejaVuSans-44"/>
     <use xlink:href="#DejaVuSans-3a" x="77.001953"/>
     <use xlink:href="#DejaVuSans-30" x="110.693359"/>
     <use xlink:href="#DejaVuSans-2e" x="174.316406"/>
     <use xlink:href="#DejaVuSans-30" x="206.103516"/>
     <use xlink:href="#DejaVuSans-38" x="269.726562"/>
    </g>
    <!-- A:29.22 -->
    <g transform="translate(449.881772 339.453365) scale(0.04 -0.04)">
     <use xlink:href="#DejaVuSans-41"/>
     <use xlink:href="#DejaVuSans-3a" x="66.658203"/>
     <use xlink:href="#DejaVuSans-32" x="100.349609"/>
     <use xlink:href="#DejaVuSans-39" x="163.972656"/>
     <use xlink:href="#DejaVuSans-2e" x="227.595703"/>
     <use xlink:href="#DejaVuSans-32" x="259.382812"/>
     <use xlink:href="#DejaVuSans-32" x="323.005859"/>
    </g>
   </g>
   <g id="text_35">
    <!-- A:29.22 -->
    <g transform="translate(449.881772 339.453365) scale(0.04 -0.04)">
     <use xlink:href="#DejaVuSans-41"/>
     <use xlink:href="#DejaVuSans-3a" x="66.658203"/>
     <use xlink:href="#DejaVuSans-32" x="100.349609"/>
     <use xlink:href="#DejaVuSans-39" x="163.972656"/>
     <use xlink:href="#DejaVuSans-2e" x="227.595703"/>
     <use xlink:href="#DejaVuSans-32" x="259.382812"/>
     <use xlink:href="#DejaVuSans-32" x="323.005859"/>
    </g>
   </g>
   <g id="text_36">
    <!-- A:7.67 -->
    <g transform="translate(456.646309 370.769426) scale(0.04 -0.04)">
     <use xlink:href="#DejaVuSans-41"/>
     <use xlink:href="#DejaVuSans-3a" x="66.658203"/>
     <use xlink:href="#DejaVuSans-37" x="100.349609"/>
     <use xlink:href="#DejaVuSans-2e" x="163.972656"/>
     <use xlink:href="#DejaVuSans-36" x="195.759766"/>
     <use xlink:href="#DejaVuSans-37" x="259.382812"/>
    </g>
   </g>
   <g id="text_37">
    <!-- A:9.29 -->
    <g transform="translate(474.391052 357.981766) scale(0.04 -0.04)">
     <use xlink:href="#DejaVuSans-41"/>
     <use xlink:href="#DejaVuSans-3a" x="66.658203"/>
     <use xlink:href="#DejaVuSans-39" x="100.349609"/>
     <use xlink:href="#DejaVuSans-2e" x="163.972656"/>
     <use xlink:href="#DejaVuSans-32" x="195.759766"/>
     <use xlink:href="#DejaVuSans-39" x="259.382812"/>
    </g>
   </g>
   <g id="text_38">
    <!-- A:0.00 -->
    <g transform="translate(471.620336 376.127851) scale(0.04 -0.04)">
     <use xlink:href="#DejaVuSans-41"/>
     <use xlink:href="#DejaVuSans-3a" x="66.658203"/>
     <use xlink:href="#DejaVuSans-30" x="100.349609"/>
     <use xlink:href="#DejaVuSans-2e" x="163.972656"/>
     <use xlink:href="#DejaVuSans-30" x="195.759766"/>
     <use xlink:href="#DejaVuSans-30" x="259.382812"/>
    </g>
   </g>
   <g id="text_39">
    <!-- D:5.59 -->
    <g transform="translate(655.626188 622.690807) scale(0.04 -0.04)">
     <defs>
      <path id="DejaVuSans-35" d="M 691 4666 
L 3169 4666 
L 3169 4134 
L 1269 4134 
L 1269 2991 
Q 1406 3038 1543 3061 
Q 1681 3084 1819 3084 
Q 2600 3084 3056 2656 
Q 3513 2228 3513 1497 
Q 3513 744 3044 326 
Q 2575 -91 1722 -91 
Q 1428 -91 1123 -41 
Q 819 9 494 109 
L 494 744 
Q 775 591 1075 516 
Q 1375 441 1709 441 
Q 2250 441 2565 725 
Q 2881 1009 2881 1497 
Q 2881 1984 2565 2268 
Q 2250 2553 1709 2553 
Q 1456 2553 1204 2497 
Q 953 2441 691 2322 
L 691 4666 
z
" transform="scale(0.015625)"/>
     </defs>
     <use xlink:href="#DejaVuSans-44"/>
     <use xlink:href="#DejaVuSans-3a" x="77.001953"/>
     <use xlink:href="#DejaVuSans-35" x="110.693359"/>
     <use xlink:href="#DejaVuSans-2e" x="174.316406"/>
     <use xlink:href="#DejaVuSans-35" x="206.103516"/>
     <use xlink:href="#DejaVuSans-39" x="269.726562"/>
    </g>
    <!-- A:0.37 -->
    <g transform="translate(655.626188 627.169932) scale(0.04 -0.04)">
     <use xlink:href="#DejaVuSans-41"/>
     <use xlink:href="#DejaVuSans-3a" x="66.658203"/>
     <use xlink:href="#DejaVuSans-30" x="100.349609"/>
     <use xlink:href="#DejaVuSans-2e" x="163.972656"/>
     <use xlink:href="#DejaVuSans-33" x="195.759766"/>
     <use xlink:href="#DejaVuSans-37" x="259.382812"/>
    </g>
   </g>
   <g id="text_40">
    <!-- A:0.37 -->
    <g transform="translate(655.626188 627.169932) scale(0.04 -0.04)">
     <use xlink:href="#DejaVuSans-41"/>
     <use xlink:href="#DejaVuSans-3a" x="66.658203"/>
     <use xlink:href="#DejaVuSans-30" x="100.349609"/>
     <use xlink:href="#DejaVuSans-2e" x="163.972656"/>
     <use xlink:href="#DejaVuSans-33" x="195.759766"/>
     <use xlink:href="#DejaVuSans-37" x="259.382812"/>
    </g>
   </g>
   <g id="text_41">
    <!-- D:0.76 -->
    <g transform="translate(707.225665 442.698787) scale(0.04 -0.04)">
     <use xlink:href="#DejaVuSans-44"/>
     <use xlink:href="#DejaVuSans-3a" x="77.001953"/>
     <use xlink:href="#DejaVuSans-30" x="110.693359"/>
     <use xlink:href="#DejaVuSans-2e" x="174.316406"/>
     <use xlink:href="#DejaVuSans-37" x="206.103516"/>
     <use xlink:href="#DejaVuSans-36" x="269.726562"/>
    </g>
    <!-- A:6.95 -->
    <g transform="translate(707.225665 447.177912) scale(0.04 -0.04)">
     <use xlink:href="#DejaVuSans-41"/>
     <use xlink:href="#DejaVuSans-3a" x="66.658203"/>
     <use xlink:href="#DejaVuSans-36" x="100.349609"/>
     <use xlink:href="#DejaVuSans-2e" x="163.972656"/>
     <use xlink:href="#DejaVuSans-39" x="195.759766"/>
     <use xlink:href="#DejaVuSans-35" x="259.382812"/>
    </g>
   </g>
   <g id="text_42">
    <!-- A:6.95 -->
    <g transform="translate(707.225665 447.177912) scale(0.04 -0.04)">
     <use xlink:href="#DejaVuSans-41"/>
     <use xlink:href="#DejaVuSans-3a" x="66.658203"/>
     <use xlink:href="#DejaVuSans-36" x="100.349609"/>
     <use xlink:href="#DejaVuSans-2e" x="163.972656"/>
     <use xlink:href="#DejaVuSans-39" x="195.759766"/>
     <use xlink:href="#DejaVuSans-35" x="259.382812"/>
    </g>
   </g>
   <g id="text_43">
    <!-- A:3.87 -->
    <g transform="translate(746.207728 655.226672) scale(0.04 -0.04)">
     <use xlink:href="#DejaVuSans-41"/>
     <use xlink:href="#DejaVuSans-3a" x="66.658203"/>
     <use xlink:href="#DejaVuSans-33" x="100.349609"/>
     <use xlink:href="#DejaVuSans-2e" x="163.972656"/>
     <use xlink:href="#DejaVuSans-38" x="195.759766"/>
     <use xlink:href="#DejaVuSans-37" x="259.382812"/>
    </g>
   </g>
   <g id="text_44">
    <!-- A:10.38 -->
    <g transform="translate(672.010755 526.864783) scale(0.04 -0.04)">
     <use xlink:href="#DejaVuSans-41"/>
     <use xlink:href="#DejaVuSans-3a" x="66.658203"/>
     <use xlink:href="#DejaVuSans-31" x="100.349609"/>
     <use xlink:href="#DejaVuSans-30" x="163.972656"/>
     <use xlink:href="#DejaVuSans-2e" x="227.595703"/>
     <use xlink:href="#DejaVuSans-33" x="259.382812"/>
     <use xlink:href="#DejaVuSans-38" x="323.005859"/>
    </g>
   </g>
   <g id="text_45">
    <!-- D:9.93 -->
    <g transform="translate(676.951656 559.193247) scale(0.04 -0.04)">
     <use xlink:href="#DejaVuSans-44"/>
     <use xlink:href="#DejaVuSans-3a" x="77.001953"/>
     <use xlink:href="#DejaVuSans-39" x="110.693359"/>
     <use xlink:href="#DejaVuSans-2e" x="174.316406"/>
     <use xlink:href="#DejaVuSans-39" x="206.103516"/>
     <use xlink:href="#DejaVuSans-33" x="269.726562"/>
    </g>
    <!-- A:2.57 -->
    <g transform="translate(676.951656 563.672372) scale(0.04 -0.04)">
     <use xlink:href="#DejaVuSans-41"/>
     <use xlink:href="#DejaVuSans-3a" x="66.658203"/>
     <use xlink:href="#DejaVuSans-32" x="100.349609"/>
     <use xlink:href="#DejaVuSans-2e" x="163.972656"/>
     <use xlink:href="#DejaVuSans-35" x="195.759766"/>
     <use xlink:href="#DejaVuSans-37" x="259.382812"/>
    </g>
   </g>
   <g id="text_46">
    <!-- A:2.57 -->
    <g transform="translate(676.951656 563.672372) scale(0.04 -0.04)">
     <use xlink:href="#DejaVuSans-41"/>
     <use xlink:href="#DejaVuSans-3a" x="66.658203"/>
     <use xlink:href="#DejaVuSans-32" x="100.349609"/>
     <use xlink:href="#DejaVuSans-2e" x="163.972656"/>
     <use xlink:href="#DejaVuSans-35" x="195.759766"/>
     <use xlink:href="#DejaVuSans-37" x="259.382812"/>
    </g>
   </g>
   <g id="text_47">
    <!-- A:18.06 -->
    <g transform="translate(719.850986 406.021755) scale(0.04 -0.04)">
     <use xlink:href="#DejaVuSans-41"/>
     <use xlink:href="#DejaVuSans-3a" x="66.658203"/>
     <use xlink:href="#DejaVuSans-31" x="100.349609"/>
     <use xlink:href="#DejaVuSans-38" x="163.972656"/>
     <use xlink:href="#DejaVuSans-2e" x="227.595703"/>
     <use xlink:href="#DejaVuSans-30" x="259.382812"/>
     <use xlink:href="#DejaVuSans-36" x="323.005859"/>
    </g>
   </g>
   <g id="text_48">
    <!-- D:0.16 -->
    <g transform="translate(496.844392 351.421185) scale(0.04 -0.04)">
     <use xlink:href="#DejaVuSans-44"/>
     <use xlink:href="#DejaVuSans-3a" x="77.001953"/>
     <use xlink:href="#DejaVuSans-30" x="110.693359"/>
     <use xlink:href="#DejaVuSans-2e" x="174.316406"/>
     <use xlink:href="#DejaVuSans-31" x="206.103516"/>
     <use xlink:href="#DejaVuSans-36" x="269.726562"/>
    </g>
    <!-- A:15.56 -->
    <g transform="translate(496.844392 355.90031) scale(0.04 -0.04)">
     <use xlink:href="#DejaVuSans-41"/>
     <use xlink:href="#DejaVuSans-3a" x="66.658203"/>
     <use xlink:href="#DejaVuSans-31" x="100.349609"/>
     <use xlink:href="#DejaVuSans-35" x="163.972656"/>
     <use xlink:href="#DejaVuSans-2e" x="227.595703"/>
     <use xlink:href="#DejaVuSans-35" x="259.382812"/>
     <use xlink:href="#DejaVuSans-36" x="323.005859"/>
    </g>
   </g>
   <g id="text_49">
    <!-- A:15.56 -->
    <g transform="translate(496.844392 355.90031) scale(0.04 -0.04)">
     <use xlink:href="#DejaVuSans-41"/>
     <use xlink:href="#DejaVuSans-3a" x="66.658203"/>
     <use xlink:href="#DejaVuSans-31" x="100.349609"/>
     <use xlink:href="#DejaVuSans-35" x="163.972656"/>
     <use xlink:href="#DejaVuSans-2e" x="227.595703"/>
     <use xlink:href="#DejaVuSans-35" x="259.382812"/>
     <use xlink:href="#DejaVuSans-36" x="323.005859"/>
    </g>
   </g>
   <g id="text_50">
    <!-- A:14.84 -->
    <g transform="translate(522.223916 352.896099) scale(0.04 -0.04)">
     <defs>
      <path id="DejaVuSans-34" d="M 2419 4116 
L 825 1625 
L 2419 1625 
L 2419 4116 
z
M 2253 4666 
L 3047 4666 
L 3047 1625 
L 3713 1625 
L 3713 1100 
L 3047 1100 
L 3047 0 
L 2419 0 
L 2419 1100 
L 313 1100 
L 313 1709 
L 2253 4666 
z
" transform="scale(0.015625)"/>
     </defs>
     <use xlink:href="#DejaVuSans-41"/>
     <use xlink:href="#DejaVuSans-3a" x="66.658203"/>
     <use xlink:href="#DejaVuSans-31" x="100.349609"/>
     <use xlink:href="#DejaVuSans-34" x="163.972656"/>
     <use xlink:href="#DejaVuSans-2e" x="227.595703"/>
     <use xlink:href="#DejaVuSans-38" x="259.382812"/>
     <use xlink:href="#DejaVuSans-34" x="323.005859"/>
    </g>
   </g>
   <g id="text_51">
    <!-- A:0.01 -->
    <g transform="translate(485.532867 329.016373) scale(0.04 -0.04)">
     <use xlink:href="#DejaVuSans-41"/>
     <use xlink:href="#DejaVuSans-3a" x="66.658203"/>
     <use xlink:href="#DejaVuSans-30" x="100.349609"/>
     <use xlink:href="#DejaVuSans-2e" x="163.972656"/>
     <use xlink:href="#DejaVuSans-30" x="195.759766"/>
     <use xlink:href="#DejaVuSans-31" x="259.382812"/>
    </g>
   </g>
   <g id="text_52">
    <!-- D:10.74 -->
    <g transform="translate(464.696928 352.765024) scale(0.04 -0.04)">
     <use xlink:href="#DejaVuSans-44"/>
     <use xlink:href="#DejaVuSans-3a" x="77.001953"/>
     <use xlink:href="#DejaVuSans-31" x="110.693359"/>
     <use xlink:href="#DejaVuSans-30" x="174.316406"/>
     <use xlink:href="#DejaVuSans-2e" x="237.939453"/>
     <use xlink:href="#DejaVuSans-37" x="269.726562"/>
     <use xlink:href="#DejaVuSans-34" x="333.349609"/>
    </g>
    <!-- A:0.13 -->
    <g transform="translate(464.696928 357.244149) scale(0.04 -0.04)">
     <use xlink:href="#DejaVuSans-41"/>
     <use xlink:href="#DejaVuSans-3a" x="66.658203"/>
     <use xlink:href="#DejaVuSans-30" x="100.349609"/>
     <use xlink:href="#DejaVuSans-2e" x="163.972656"/>
     <use xlink:href="#DejaVuSans-31" x="195.759766"/>
     <use xlink:href="#DejaVuSans-33" x="259.382812"/>
    </g>
   </g>
   <g id="text_53">
    <!-- A:0.13 -->
    <g transform="translate(464.696928 357.244149) scale(0.04 -0.04)">
     <use xlink:href="#DejaVuSans-41"/>
     <use xlink:href="#DejaVuSans-3a" x="66.658203"/>
     <use xlink:href="#DejaVuSans-30" x="100.349609"/>
     <use xlink:href="#DejaVuSans-2e" x="163.972656"/>
     <use xlink:href="#DejaVuSans-31" x="195.759766"/>
     <use xlink:href="#DejaVuSans-33" x="259.382812"/>
    </g>
   </g>
   <g id="text_54">
    <!-- A:2.18 -->
    <g transform="translate(465.747504 337.982493) scale(0.04 -0.04)">
     <use xlink:href="#DejaVuSans-41"/>
     <use xlink:href="#DejaVuSans-3a" x="66.658203"/>
     <use xlink:href="#DejaVuSans-32" x="100.349609"/>
     <use xlink:href="#DejaVuSans-2e" x="163.972656"/>
     <use xlink:href="#DejaVuSans-31" x="195.759766"/>
     <use xlink:href="#DejaVuSans-38" x="259.382812"/>
    </g>
   </g>
   <g id="text_55">
    <!-- A:0.86 -->
    <g transform="translate(507.821195 341.452277) scale(0.04 -0.04)">
     <use xlink:href="#DejaVuSans-41"/>
     <use xlink:href="#DejaVuSans-3a" x="66.658203"/>
     <use xlink:href="#DejaVuSans-30" x="100.349609"/>
     <use xlink:href="#DejaVuSans-2e" x="163.972656"/>
     <use xlink:href="#DejaVuSans-38" x="195.759766"/>
     <use xlink:href="#DejaVuSans-36" x="259.382812"/>
    </g>
   </g>
   <g id="text_56">
    <!-- A:0.01 -->
    <g transform="translate(437.730901 379.26163) scale(0.04 -0.04)">
     <use xlink:href="#DejaVuSans-41"/>
     <use xlink:href="#DejaVuSans-3a" x="66.658203"/>
     <use xlink:href="#DejaVuSans-30" x="100.349609"/>
     <use xlink:href="#DejaVuSans-2e" x="163.972656"/>
     <use xlink:href="#DejaVuSans-30" x="195.759766"/>
     <use xlink:href="#DejaVuSans-31" x="259.382812"/>
    </g>
   </g>
   <g id="text_57">
    <!-- D:3.16 -->
    <g transform="translate(578.630064 255.624219) scale(0.04 -0.04)">
     <use xlink:href="#DejaVuSans-44"/>
     <use xlink:href="#DejaVuSans-3a" x="77.001953"/>
     <use xlink:href="#DejaVuSans-33" x="110.693359"/>
     <use xlink:href="#DejaVuSans-2e" x="174.316406"/>
     <use xlink:href="#DejaVuSans-31" x="206.103516"/>
     <use xlink:href="#DejaVuSans-36" x="269.726562"/>
    </g>
    <!-- A:23.15 -->
    <g transform="translate(578.630064 260.103344) scale(0.04 -0.04)">
     <use xlink:href="#DejaVuSans-41"/>
     <use xlink:href="#DejaVuSans-3a" x="66.658203"/>
     <use xlink:href="#DejaVuSans-32" x="100.349609"/>
     <use xlink:href="#DejaVuSans-33" x="163.972656"/>
     <use xlink:href="#DejaVuSans-2e" x="227.595703"/>
     <use xlink:href="#DejaVuSans-31" x="259.382812"/>
     <use xlink:href="#DejaVuSans-35" x="323.005859"/>
    </g>
   </g>
   <g id="text_58">
    <!-- A:23.15 -->
    <g transform="translate(578.630064 260.103344) scale(0.04 -0.04)">
     <use xlink:href="#DejaVuSans-41"/>
     <use xlink:href="#DejaVuSans-3a" x="66.658203"/>
     <use xlink:href="#DejaVuSans-32" x="100.349609"/>
     <use xlink:href="#DejaVuSans-33" x="163.972656"/>
     <use xlink:href="#DejaVuSans-2e" x="227.595703"/>
     <use xlink:href="#DejaVuSans-31" x="259.382812"/>
     <use xlink:href="#DejaVuSans-35" x="323.005859"/>
    </g>
   </g>
   <g id="text_59">
    <!-- A:0.38 -->
    <g transform="translate(546.222494 237.247586) scale(0.04 -0.04)">
     <use xlink:href="#DejaVuSans-41"/>
     <use xlink:href="#DejaVuSans-3a" x="66.658203"/>
     <use xlink:href="#DejaVuSans-30" x="100.349609"/>
     <use xlink:href="#DejaVuSans-2e" x="163.972656"/>
     <use xlink:href="#DejaVuSans-33" x="195.759766"/>
     <use xlink:href="#DejaVuSans-38" x="259.382812"/>
    </g>
   </g>
   <g id="text_60">
    <!-- D:44.81 -->
    <g transform="translate(461.926211 370.911109) scale(0.04 -0.04)">
     <use xlink:href="#DejaVuSans-44"/>
     <use xlink:href="#DejaVuSans-3a" x="77.001953"/>
     <use xlink:href="#DejaVuSans-34" x="110.693359"/>
     <use xlink:href="#DejaVuSans-34" x="174.316406"/>
     <use xlink:href="#DejaVuSans-2e" x="237.939453"/>
     <use xlink:href="#DejaVuSans-38" x="269.726562"/>
     <use xlink:href="#DejaVuSans-31" x="333.349609"/>
    </g>
    <!-- A:1.77 -->
    <g transform="translate(461.926211 375.390234) scale(0.04 -0.04)">
     <use xlink:href="#DejaVuSans-41"/>
     <use xlink:href="#DejaVuSans-3a" x="66.658203"/>
     <use xlink:href="#DejaVuSans-31" x="100.349609"/>
     <use xlink:href="#DejaVuSans-2e" x="163.972656"/>
     <use xlink:href="#DejaVuSans-37" x="195.759766"/>
     <use xlink:href="#DejaVuSans-37" x="259.382812"/>
    </g>
   </g>
   <g id="text_61">
    <!-- A:1.77 -->
    <g transform="translate(461.926211 375.390234) scale(0.04 -0.04)">
     <use xlink:href="#DejaVuSans-41"/>
     <use xlink:href="#DejaVuSans-3a" x="66.658203"/>
     <use xlink:href="#DejaVuSans-31" x="100.349609"/>
     <use xlink:href="#DejaVuSans-2e" x="163.972656"/>
     <use xlink:href="#DejaVuSans-37" x="195.759766"/>
     <use xlink:href="#DejaVuSans-37" x="259.382812"/>
    </g>
   </g>
   <g id="text_62">
    <!-- A:0.03 -->
    <g transform="translate(885.841612 1001.905232) scale(0.04 -0.04)">
     <use xlink:href="#DejaVuSans-41"/>
     <use xlink:href="#DejaVuSans-3a" x="66.658203"/>
     <use xlink:href="#DejaVuSans-30" x="100.349609"/>
     <use xlink:href="#DejaVuSans-2e" x="163.972656"/>
     <use xlink:href="#DejaVuSans-30" x="195.759766"/>
     <use xlink:href="#DejaVuSans-33" x="259.382812"/>
    </g>
   </g>
   <g id="text_63">
    <!-- D:26.44 -->
    <g transform="translate(565.346181 750.353057) scale(0.04 -0.04)">
     <use xlink:href="#DejaVuSans-44"/>
     <use xlink:href="#DejaVuSans-3a" x="77.001953"/>
     <use xlink:href="#DejaVuSans-32" x="110.693359"/>
     <use xlink:href="#DejaVuSans-36" x="174.316406"/>
     <use xlink:href="#DejaVuSans-2e" x="237.939453"/>
     <use xlink:href="#DejaVuSans-34" x="269.726562"/>
     <use xlink:href="#DejaVuSans-34" x="333.349609"/>
    </g>
    <!-- A:12.58 -->
    <g transform="translate(565.346181 754.832182) scale(0.04 -0.04)">
     <use xlink:href="#DejaVuSans-41"/>
     <use xlink:href="#DejaVuSans-3a" x="66.658203"/>
     <use xlink:href="#DejaVuSans-31" x="100.349609"/>
     <use xlink:href="#DejaVuSans-32" x="163.972656"/>
     <use xlink:href="#DejaVuSans-2e" x="227.595703"/>
     <use xlink:href="#DejaVuSans-35" x="259.382812"/>
     <use xlink:href="#DejaVuSans-38" x="323.005859"/>
    </g>
   </g>
   <g id="text_64">
    <!-- A:12.58 -->
    <g transform="translate(565.346181 754.832182) scale(0.04 -0.04)">
     <use xlink:href="#DejaVuSans-41"/>
     <use xlink:href="#DejaVuSans-3a" x="66.658203"/>
     <use xlink:href="#DejaVuSans-31" x="100.349609"/>
     <use xlink:href="#DejaVuSans-32" x="163.972656"/>
     <use xlink:href="#DejaVuSans-2e" x="227.595703"/>
     <use xlink:href="#DejaVuSans-35" x="259.382812"/>
     <use xlink:href="#DejaVuSans-38" x="323.005859"/>
    </g>
   </g>
   <g id="text_65">
    <!-- D:21.85 -->
    <g transform="translate(491.149208 621.991168) scale(0.04 -0.04)">
     <use xlink:href="#DejaVuSans-44"/>
     <use xlink:href="#DejaVuSans-3a" x="77.001953"/>
     <use xlink:href="#DejaVuSans-32" x="110.693359"/>
     <use xlink:href="#DejaVuSans-31" x="174.316406"/>
     <use xlink:href="#DejaVuSans-2e" x="237.939453"/>
     <use xlink:href="#DejaVuSans-38" x="269.726562"/>
     <use xlink:href="#DejaVuSans-35" x="333.349609"/>
    </g>
    <!-- A:17.73 -->
    <g transform="translate(491.149208 626.470293) scale(0.04 -0.04)">
     <use xlink:href="#DejaVuSans-41"/>
     <use xlink:href="#DejaVuSans-3a" x="66.658203"/>
     <use xlink:href="#DejaVuSans-31" x="100.349609"/>
     <use xlink:href="#DejaVuSans-37" x="163.972656"/>
     <use xlink:href="#DejaVuSans-2e" x="227.595703"/>
     <use xlink:href="#DejaVuSans-37" x="259.382812"/>
     <use xlink:href="#DejaVuSans-33" x="323.005859"/>
    </g>
   </g>
   <g id="text_66">
    <!-- A:17.73 -->
    <g transform="translate(491.149208 626.470293) scale(0.04 -0.04)">
     <use xlink:href="#DejaVuSans-41"/>
     <use xlink:href="#DejaVuSans-3a" x="66.658203"/>
     <use xlink:href="#DejaVuSans-31" x="100.349609"/>
     <use xlink:href="#DejaVuSans-37" x="163.972656"/>
     <use xlink:href="#DejaVuSans-2e" x="227.595703"/>
     <use xlink:href="#DejaVuSans-37" x="259.382812"/>
     <use xlink:href="#DejaVuSans-33" x="323.005859"/>
    </g>
   </g>
   <g id="text_67">
    <!-- A:29.75 -->
    <g transform="translate(496.090109 663.277882) scale(0.04 -0.04)">
     <use xlink:href="#DejaVuSans-41"/>
     <use xlink:href="#DejaVuSans-3a" x="66.658203"/>
     <use xlink:href="#DejaVuSans-32" x="100.349609"/>
     <use xlink:href="#DejaVuSans-39" x="163.972656"/>
     <use xlink:href="#DejaVuSans-2e" x="227.595703"/>
     <use xlink:href="#DejaVuSans-37" x="259.382812"/>
     <use xlink:href="#DejaVuSans-35" x="323.005859"/>
    </g>
   </g>
   <g id="text_68">
    <!-- A:0.00 -->
    <g transform="translate(502.01253 597.968253) scale(0.04 -0.04)">
     <use xlink:href="#DejaVuSans-41"/>
     <use xlink:href="#DejaVuSans-3a" x="66.658203"/>
     <use xlink:href="#DejaVuSans-30" x="100.349609"/>
     <use xlink:href="#DejaVuSans-2e" x="163.972656"/>
     <use xlink:href="#DejaVuSans-30" x="195.759766"/>
     <use xlink:href="#DejaVuSans-30" x="259.382812"/>
    </g>
   </g>
   <g id="text_69">
    <!-- A:0.18 -->
    <g transform="translate(469.085715 589.45458) scale(0.04 -0.04)">
     <use xlink:href="#DejaVuSans-41"/>
     <use xlink:href="#DejaVuSans-3a" x="66.658203"/>
     <use xlink:href="#DejaVuSans-30" x="100.349609"/>
     <use xlink:href="#DejaVuSans-2e" x="163.972656"/>
     <use xlink:href="#DejaVuSans-31" x="195.759766"/>
     <use xlink:href="#DejaVuSans-38" x="259.382812"/>
    </g>
   </g>
   <g id="text_70">
    <!-- A:15.44 -->
    <g transform="translate(718.511208 937.2737) scale(0.04 -0.04)">
     <use xlink:href="#DejaVuSans-41"/>
     <use xlink:href="#DejaVuSans-3a" x="66.658203"/>
     <use xlink:href="#DejaVuSans-31" x="100.349609"/>
     <use xlink:href="#DejaVuSans-35" x="163.972656"/>
     <use xlink:href="#DejaVuSans-2e" x="227.595703"/>
     <use xlink:href="#DejaVuSans-34" x="259.382812"/>
     <use xlink:href="#DejaVuSans-34" x="323.005859"/>
    </g>
   </g>
   <g id="text_71">
    <!-- D:0.04 -->
    <g transform="translate(590.588917 321.15612) scale(0.04 -0.04)">
     <use xlink:href="#DejaVuSans-44"/>
     <use xlink:href="#DejaVuSans-3a" x="77.001953"/>
     <use xlink:href="#DejaVuSans-30" x="110.693359"/>
     <use xlink:href="#DejaVuSans-2e" x="174.316406"/>
     <use xlink:href="#DejaVuSans-30" x="206.103516"/>
     <use xlink:href="#DejaVuSans-34" x="269.726562"/>
    </g>
    <!-- A:29.11 -->
    <g transform="translate(590.588917 325.635245) scale(0.04 -0.04)">
     <use xlink:href="#DejaVuSans-41"/>
     <use xlink:href="#DejaVuSans-3a" x="66.658203"/>
     <use xlink:href="#DejaVuSans-32" x="100.349609"/>
     <use xlink:href="#DejaVuSans-39" x="163.972656"/>
     <use xlink:href="#DejaVuSans-2e" x="227.595703"/>
     <use xlink:href="#DejaVuSans-31" x="259.382812"/>
     <use xlink:href="#DejaVuSans-31" x="323.005859"/>
    </g>
   </g>
   <g id="text_72">
    <!-- A:29.11 -->
    <g transform="translate(590.588917 325.635245) scale(0.04 -0.04)">
     <use xlink:href="#DejaVuSans-41"/>
     <use xlink:href="#DejaVuSans-3a" x="66.658203"/>
     <use xlink:href="#DejaVuSans-32" x="100.349609"/>
     <use xlink:href="#DejaVuSans-39" x="163.972656"/>
     <use xlink:href="#DejaVuSans-2e" x="227.595703"/>
     <use xlink:href="#DejaVuSans-31" x="259.382812"/>
     <use xlink:href="#DejaVuSans-31" x="323.005859"/>
    </g>
   </g>
   <g id="text_73">
    <!-- A:0.29 -->
    <g transform="translate(567.313802 385.825132) scale(0.04 -0.04)">
     <use xlink:href="#DejaVuSans-41"/>
     <use xlink:href="#DejaVuSans-3a" x="66.658203"/>
     <use xlink:href="#DejaVuSans-30" x="100.349609"/>
     <use xlink:href="#DejaVuSans-2e" x="163.972656"/>
     <use xlink:href="#DejaVuSans-32" x="195.759766"/>
     <use xlink:href="#DejaVuSans-39" x="259.382812"/>
    </g>
   </g>
   <g id="text_74">
    <!-- A:1.19 -->
    <g transform="translate(669.882759 839.712977) scale(0.04 -0.04)">
     <use xlink:href="#DejaVuSans-41"/>
     <use xlink:href="#DejaVuSans-3a" x="66.658203"/>
     <use xlink:href="#DejaVuSans-31" x="100.349609"/>
     <use xlink:href="#DejaVuSans-2e" x="163.972656"/>
     <use xlink:href="#DejaVuSans-31" x="195.759766"/>
     <use xlink:href="#DejaVuSans-39" x="259.382812"/>
    </g>
   </g>
   <g id="text_75">
    <!-- D:0.08 -->
    <g transform="translate(748.276394 908.10111) scale(0.04 -0.04)">
     <use xlink:href="#DejaVuSans-44"/>
     <use xlink:href="#DejaVuSans-3a" x="77.001953"/>
     <use xlink:href="#DejaVuSans-30" x="110.693359"/>
     <use xlink:href="#DejaVuSans-2e" x="174.316406"/>
     <use xlink:href="#DejaVuSans-30" x="206.103516"/>
     <use xlink:href="#DejaVuSans-38" x="269.726562"/>
    </g>
    <!-- A:17.23 -->
    <g transform="translate(748.276394 912.580235) scale(0.04 -0.04)">
     <use xlink:href="#DejaVuSans-41"/>
     <use xlink:href="#DejaVuSans-3a" x="66.658203"/>
     <use xlink:href="#DejaVuSans-31" x="100.349609"/>
     <use xlink:href="#DejaVuSans-37" x="163.972656"/>
     <use xlink:href="#DejaVuSans-2e" x="227.595703"/>
     <use xlink:href="#DejaVuSans-32" x="259.382812"/>
     <use xlink:href="#DejaVuSans-33" x="323.005859"/>
    </g>
   </g>
   <g id="text_76">
    <!-- A:17.23 -->
    <g transform="translate(748.276394 912.580235) scale(0.04 -0.04)">
     <use xlink:href="#DejaVuSans-41"/>
     <use xlink:href="#DejaVuSans-3a" x="66.658203"/>
     <use xlink:href="#DejaVuSans-31" x="100.349609"/>
     <use xlink:href="#DejaVuSans-37" x="163.972656"/>
     <use xlink:href="#DejaVuSans-2e" x="227.595703"/>
     <use xlink:href="#DejaVuSans-32" x="259.382812"/>
     <use xlink:href="#DejaVuSans-33" x="323.005859"/>
    </g>
   </g>
   <g id="text_77">
    <!-- D:1.91 -->
    <g transform="translate(568.207479 306.984452) scale(0.04 -0.04)">
     <use xlink:href="#DejaVuSans-44"/>
     <use xlink:href="#DejaVuSans-3a" x="77.001953"/>
     <use xlink:href="#DejaVuSans-31" x="110.693359"/>
     <use xlink:href="#DejaVuSans-2e" x="174.316406"/>
     <use xlink:href="#DejaVuSans-39" x="206.103516"/>
     <use xlink:href="#DejaVuSans-31" x="269.726562"/>
    </g>
    <!-- A:17.73 -->
    <g transform="translate(568.207479 311.463577) scale(0.04 -0.04)">
     <use xlink:href="#DejaVuSans-41"/>
     <use xlink:href="#DejaVuSans-3a" x="66.658203"/>
     <use xlink:href="#DejaVuSans-31" x="100.349609"/>
     <use xlink:href="#DejaVuSans-37" x="163.972656"/>
     <use xlink:href="#DejaVuSans-2e" x="227.595703"/>
     <use xlink:href="#DejaVuSans-37" x="259.382812"/>
     <use xlink:href="#DejaVuSans-33" x="323.005859"/>
    </g>
   </g>
   <g id="text_78">
    <!-- A:17.73 -->
    <g transform="translate(568.207479 311.463577) scale(0.04 -0.04)">
     <use xlink:href="#DejaVuSans-41"/>
     <use xlink:href="#DejaVuSans-3a" x="66.658203"/>
     <use xlink:href="#DejaVuSans-31" x="100.349609"/>
     <use xlink:href="#DejaVuSans-37" x="163.972656"/>
     <use xlink:href="#DejaVuSans-2e" x="227.595703"/>
     <use xlink:href="#DejaVuSans-37" x="259.382812"/>
     <use xlink:href="#DejaVuSans-33" x="323.005859"/>
    </g>
   </g>
   <g id="text_79">
    <!-- Instant Noodle Consumption Eurasia (n:27 k:72) -->
    <g transform="translate(593.369063 153.362625) scale(0.12 -0.12)">
     <defs>
      <path id="DejaVuSans-6e" d="M 3513 2113 
L 3513 0 
L 2938 0 
L 2938 2094 
Q 2938 2591 2744 2837 
Q 2550 3084 2163 3084 
Q 1697 3084 1428 2787 
Q 1159 2491 1159 1978 
L 1159 0 
L 581 0 
L 581 3500 
L 1159 3500 
L 1159 2956 
Q 1366 3272 1645 3428 
Q 1925 3584 2291 3584 
Q 2894 3584 3203 3211 
Q 3513 2838 3513 2113 
z
" transform="scale(0.015625)"/>
      <path id="DejaVuSans-73" d="M 2834 3397 
L 2834 2853 
Q 2591 2978 2328 3040 
Q 2066 3103 1784 3103 
Q 1356 3103 1142 2972 
Q 928 2841 928 2578 
Q 928 2378 1081 2264 
Q 1234 2150 1697 2047 
L 1894 2003 
Q 2506 1872 2764 1633 
Q 3022 1394 3022 966 
Q 3022 478 2636 193 
Q 2250 -91 1575 -91 
Q 1294 -91 989 -36 
Q 684 19 347 128 
L 347 722 
Q 666 556 975 473 
Q 1284 391 1588 391 
Q 1994 391 2212 530 
Q 2431 669 2431 922 
Q 2431 1156 2273 1281 
Q 2116 1406 1581 1522 
L 1381 1569 
Q 847 1681 609 1914 
Q 372 2147 372 2553 
Q 372 3047 722 3315 
Q 1072 3584 1716 3584 
Q 2034 3584 2315 3537 
Q 2597 3491 2834 3397 
z
" transform="scale(0.015625)"/>
      <path id="DejaVuSans-74" d="M 1172 4494 
L 1172 3500 
L 2356 3500 
L 2356 3053 
L 1172 3053 
L 1172 1153 
Q 1172 725 1289 603 
Q 1406 481 1766 481 
L 2356 481 
L 2356 0 
L 1766 0 
Q 1100 0 847 248 
Q 594 497 594 1153 
L 594 3053 
L 172 3053 
L 172 3500 
L 594 3500 
L 594 4494 
L 1172 4494 
z
" transform="scale(0.015625)"/>
      <path id="DejaVuSans-61" d="M 2194 1759 
Q 1497 1759 1228 1600 
Q 959 1441 959 1056 
Q 959 750 1161 570 
Q 1363 391 1709 391 
Q 2188 391 2477 730 
Q 2766 1069 2766 1631 
L 2766 1759 
L 2194 1759 
z
M 3341 1997 
L 3341 0 
L 2766 0 
L 2766 531 
Q 2569 213 2275 61 
Q 1981 -91 1556 -91 
Q 1019 -91 701 211 
Q 384 513 384 1019 
Q 384 1609 779 1909 
Q 1175 2209 1959 2209 
L 2766 2209 
L 2766 2266 
Q 2766 2663 2505 2880 
Q 2244 3097 1772 3097 
Q 1472 3097 1187 3025 
Q 903 2953 641 2809 
L 641 3341 
Q 956 3463 1253 3523 
Q 1550 3584 1831 3584 
Q 2591 3584 2966 3190 
Q 3341 2797 3341 1997 
z
" transform="scale(0.015625)"/>
      <path id="DejaVuSans-20" transform="scale(0.015625)"/>
      <path id="DejaVuSans-6f" d="M 1959 3097 
Q 1497 3097 1228 2736 
Q 959 2375 959 1747 
Q 959 1119 1226 758 
Q 1494 397 1959 397 
Q 2419 397 2687 759 
Q 2956 1122 2956 1747 
Q 2956 2369 2687 2733 
Q 2419 3097 1959 3097 
z
M 1959 3584 
Q 2709 3584 3137 3096 
Q 3566 2609 3566 1747 
Q 3566 888 3137 398 
Q 2709 -91 1959 -91 
Q 1206 -91 779 398 
Q 353 888 353 1747 
Q 353 2609 779 3096 
Q 1206 3584 1959 3584 
z
" transform="scale(0.015625)"/>
      <path id="DejaVuSans-64" d="M 2906 2969 
L 2906 4863 
L 3481 4863 
L 3481 0 
L 2906 0 
L 2906 525 
Q 2725 213 2448 61 
Q 2172 -91 1784 -91 
Q 1150 -91 751 415 
Q 353 922 353 1747 
Q 353 2572 751 3078 
Q 1150 3584 1784 3584 
Q 2172 3584 2448 3432 
Q 2725 3281 2906 2969 
z
M 947 1747 
Q 947 1113 1208 752 
Q 1469 391 1925 391 
Q 2381 391 2643 752 
Q 2906 1113 2906 1747 
Q 2906 2381 2643 2742 
Q 2381 3103 1925 3103 
Q 1469 3103 1208 2742 
Q 947 2381 947 1747 
z
" transform="scale(0.015625)"/>
      <path id="DejaVuSans-6c" d="M 603 4863 
L 1178 4863 
L 1178 0 
L 603 0 
L 603 4863 
z
" transform="scale(0.015625)"/>
      <path id="DejaVuSans-65" d="M 3597 1894 
L 3597 1613 
L 953 1613 
Q 991 1019 1311 708 
Q 1631 397 2203 397 
Q 2534 397 2845 478 
Q 3156 559 3463 722 
L 3463 178 
Q 3153 47 2828 -22 
Q 2503 -91 2169 -91 
Q 1331 -91 842 396 
Q 353 884 353 1716 
Q 353 2575 817 3079 
Q 1281 3584 2069 3584 
Q 2775 3584 3186 3129 
Q 3597 2675 3597 1894 
z
M 3022 2063 
Q 3016 2534 2758 2815 
Q 2500 3097 2075 3097 
Q 1594 3097 1305 2825 
Q 1016 2553 972 2059 
L 3022 2063 
z
" transform="scale(0.015625)"/>
      <path id="DejaVuSans-75" d="M 544 1381 
L 544 3500 
L 1119 3500 
L 1119 1403 
Q 1119 906 1312 657 
Q 1506 409 1894 409 
Q 2359 409 2629 706 
Q 2900 1003 2900 1516 
L 2900 3500 
L 3475 3500 
L 3475 0 
L 2900 0 
L 2900 538 
Q 2691 219 2414 64 
Q 2138 -91 1772 -91 
Q 1169 -91 856 284 
Q 544 659 544 1381 
z
M 1991 3584 
L 1991 3584 
z
" transform="scale(0.015625)"/>
      <path id="DejaVuSans-6d" d="M 3328 2828 
Q 3544 3216 3844 3400 
Q 4144 3584 4550 3584 
Q 5097 3584 5394 3201 
Q 5691 2819 5691 2113 
L 5691 0 
L 5113 0 
L 5113 2094 
Q 5113 2597 4934 2840 
Q 4756 3084 4391 3084 
Q 3944 3084 3684 2787 
Q 3425 2491 3425 1978 
L 3425 0 
L 2847 0 
L 2847 2094 
Q 2847 2600 2669 2842 
Q 2491 3084 2119 3084 
Q 1678 3084 1418 2786 
Q 1159 2488 1159 1978 
L 1159 0 
L 581 0 
L 581 3500 
L 1159 3500 
L 1159 2956 
Q 1356 3278 1631 3431 
Q 1906 3584 2284 3584 
Q 2666 3584 2933 3390 
Q 3200 3197 3328 2828 
z
" transform="scale(0.015625)"/>
      <path id="DejaVuSans-70" d="M 1159 525 
L 1159 -1331 
L 581 -1331 
L 581 3500 
L 1159 3500 
L 1159 2969 
Q 1341 3281 1617 3432 
Q 1894 3584 2278 3584 
Q 2916 3584 3314 3078 
Q 3713 2572 3713 1747 
Q 3713 922 3314 415 
Q 2916 -91 2278 -91 
Q 1894 -91 1617 61 
Q 1341 213 1159 525 
z
M 3116 1747 
Q 3116 2381 2855 2742 
Q 2594 3103 2138 3103 
Q 1681 3103 1420 2742 
Q 1159 2381 1159 1747 
Q 1159 1113 1420 752 
Q 1681 391 2138 391 
Q 2594 391 2855 752 
Q 3116 1113 3116 1747 
z
" transform="scale(0.015625)"/>
      <path id="DejaVuSans-69" d="M 603 3500 
L 1178 3500 
L 1178 0 
L 603 0 
L 603 3500 
z
M 603 4863 
L 1178 4863 
L 1178 4134 
L 603 4134 
L 603 4863 
z
" transform="scale(0.015625)"/>
      <path id="DejaVuSans-72" d="M 2631 2963 
Q 2534 3019 2420 3045 
Q 2306 3072 2169 3072 
Q 1681 3072 1420 2755 
Q 1159 2438 1159 1844 
L 1159 0 
L 581 0 
L 581 3500 
L 1159 3500 
L 1159 2956 
Q 1341 3275 1631 3429 
Q 1922 3584 2338 3584 
Q 2397 3584 2469 3576 
Q 2541 3569 2628 3553 
L 2631 2963 
z
" transform="scale(0.015625)"/>
      <path id="DejaVuSans-28" d="M 1984 4856 
Q 1566 4138 1362 3434 
Q 1159 2731 1159 2009 
Q 1159 1288 1364 580 
Q 1569 -128 1984 -844 
L 1484 -844 
Q 1016 -109 783 600 
Q 550 1309 550 2009 
Q 550 2706 781 3412 
Q 1013 4119 1484 4856 
L 1984 4856 
z
" transform="scale(0.015625)"/>
      <path id="DejaVuSans-6b" d="M 581 4863 
L 1159 4863 
L 1159 1991 
L 2875 3500 
L 3609 3500 
L 1753 1863 
L 3688 0 
L 2938 0 
L 1159 1709 
L 1159 0 
L 581 0 
L 581 4863 
z
" transform="scale(0.015625)"/>
      <path id="DejaVuSans-29" d="M 513 4856 
L 1013 4856 
Q 1481 4119 1714 3412 
Q 1947 2706 1947 2009 
Q 1947 1309 1714 600 
Q 1481 -109 1013 -844 
L 513 -844 
Q 928 -128 1133 580 
Q 1338 1288 1338 2009 
Q 1338 2731 1133 3434 
Q 928 4138 513 4856 
z
" transform="scale(0.015625)"/>
     </defs>
     <use xlink:href="#DejaVuSans-49"/>
     <use xlink:href="#DejaVuSans-6e" x="29.492188"/>
     <use xlink:href="#DejaVuSans-73" x="92.871094"/>
     <use xlink:href="#DejaVuSans-74" x="144.970703"/>
     <use xlink:href="#DejaVuSans-61" x="184.179688"/>
     <use xlink:href="#DejaVuSans-6e" x="245.458984"/>
     <use xlink:href="#DejaVuSans-74" x="308.837891"/>
     <use xlink:href="#DejaVuSans-20" x="348.046875"/>
     <use xlink:href="#DejaVuSans-4e" x="379.833984"/>
     <use xlink:href="#DejaVuSans-6f" x="454.638672"/>
     <use xlink:href="#DejaVuSans-6f" x="515.820312"/>
     <use xlink:href="#DejaVuSans-64" x="577.001953"/>
     <use xlink:href="#DejaVuSans-6c" x="640.478516"/>
     <use xlink:href="#DejaVuSans-65" x="668.261719"/>
     <use xlink:href="#DejaVuSans-20" x="729.785156"/>
     <use xlink:href="#DejaVuSans-43" x="761.572266"/>
     <use xlink:href="#DejaVuSans-6f" x="831.396484"/>
     <use xlink:href="#DejaVuSans-6e" x="892.578125"/>
     <use xlink:href="#DejaVuSans-73" x="955.957031"/>
     <use xlink:href="#DejaVuSans-75" x="1008.056641"/>
     <use xlink:href="#DejaVuSans-6d" x="1071.435547"/>
     <use xlink:href="#DejaVuSans-70" x="1168.847656"/>
     <use xlink:href="#DejaVuSans-74" x="1232.324219"/>
     <use xlink:href="#DejaVuSans-69" x="1271.533203"/>
     <use xlink:href="#DejaVuSans-6f" x="1299.316406"/>
     <use xlink:href="#DejaVuSans-6e" x="1360.498047"/>
     <use xlink:href="#DejaVuSans-20" x="1423.876953"/>
     <use xlink:href="#DejaVuSans-45" x="1455.664062"/>
     <use xlink:href="#DejaVuSans-75" x="1518.847656"/>
     <use xlink:href="#DejaVuSans-72" x="1582.226562"/>
     <use xlink:href="#DejaVuSans-61" x="1623.339844"/>
     <use xlink:href="#DejaVuSans-73" x="1684.619141"/>
     <use xlink:href="#DejaVuSans-69" x="1736.71875"/>
     <use xlink:href="#DejaVuSans-61" x="1764.501953"/>
     <use xlink:href="#DejaVuSans-20" x="1825.78125"/>
     <use xlink:href="#DejaVuSans-28" x="1857.568359"/>
     <use xlink:href="#DejaVuSans-6e" x="1896.582031"/>
     <use xlink:href="#DejaVuSans-3a" x="1959.960938"/>
     <use xlink:href="#DejaVuSans-32" x="1993.652344"/>
     <use xlink:href="#DejaVuSans-37" x="2057.275391"/>
     <use xlink:href="#DejaVuSans-20" x="2120.898438"/>
     <use xlink:href="#DejaVuSans-6b" x="2152.685547"/>
     <use xlink:href="#DejaVuSans-3a" x="2210.595703"/>
     <use xlink:href="#DejaVuSans-37" x="2244.287109"/>
     <use xlink:href="#DejaVuSans-32" x="2307.910156"/>
     <use xlink:href="#DejaVuSans-29" x="2371.533203"/>
    </g>
    <!-- Score: 16529.01, max. Overlap: 0.52, avg. Distance: 3.99, avg. Angle: 9.13 -->
    <g transform="translate(511.8525 166.8) scale(0.12 -0.12)">
     <defs>
      <path id="DejaVuSans-63" d="M 3122 3366 
L 3122 2828 
Q 2878 2963 2633 3030 
Q 2388 3097 2138 3097 
Q 1578 3097 1268 2742 
Q 959 2388 959 1747 
Q 959 1106 1268 751 
Q 1578 397 2138 397 
Q 2388 397 2633 464 
Q 2878 531 3122 666 
L 3122 134 
Q 2881 22 2623 -34 
Q 2366 -91 2075 -91 
Q 1284 -91 818 406 
Q 353 903 353 1747 
Q 353 2603 823 3093 
Q 1294 3584 2113 3584 
Q 2378 3584 2631 3529 
Q 2884 3475 3122 3366 
z
" transform="scale(0.015625)"/>
      <path id="DejaVuSans-2c" d="M 750 794 
L 1409 794 
L 1409 256 
L 897 -744 
L 494 -744 
L 750 256 
L 750 794 
z
" transform="scale(0.015625)"/>
      <path id="DejaVuSans-78" d="M 3513 3500 
L 2247 1797 
L 3578 0 
L 2900 0 
L 1881 1375 
L 863 0 
L 184 0 
L 1544 1831 
L 300 3500 
L 978 3500 
L 1906 2253 
L 2834 3500 
L 3513 3500 
z
" transform="scale(0.015625)"/>
      <path id="DejaVuSans-76" d="M 191 3500 
L 800 3500 
L 1894 563 
L 2988 3500 
L 3597 3500 
L 2284 0 
L 1503 0 
L 191 3500 
z
" transform="scale(0.015625)"/>
      <path id="DejaVuSans-67" d="M 2906 1791 
Q 2906 2416 2648 2759 
Q 2391 3103 1925 3103 
Q 1463 3103 1205 2759 
Q 947 2416 947 1791 
Q 947 1169 1205 825 
Q 1463 481 1925 481 
Q 2391 481 2648 825 
Q 2906 1169 2906 1791 
z
M 3481 434 
Q 3481 -459 3084 -895 
Q 2688 -1331 1869 -1331 
Q 1566 -1331 1297 -1286 
Q 1028 -1241 775 -1147 
L 775 -588 
Q 1028 -725 1275 -790 
Q 1522 -856 1778 -856 
Q 2344 -856 2625 -561 
Q 2906 -266 2906 331 
L 2906 616 
Q 2728 306 2450 153 
Q 2172 0 1784 0 
Q 1141 0 747 490 
Q 353 981 353 1791 
Q 353 2603 747 3093 
Q 1141 3584 1784 3584 
Q 2172 3584 2450 3431 
Q 2728 3278 2906 2969 
L 2906 3500 
L 3481 3500 
L 3481 434 
z
" transform="scale(0.015625)"/>
     </defs>
     <use xlink:href="#DejaVuSans-53"/>
     <use xlink:href="#DejaVuSans-63" x="63.476562"/>
     <use xlink:href="#DejaVuSans-6f" x="118.457031"/>
     <use xlink:href="#DejaVuSans-72" x="179.638672"/>
     <use xlink:href="#DejaVuSans-65" x="218.501953"/>
     <use xlink:href="#DejaVuSans-3a" x="280.025391"/>
     <use xlink:href="#DejaVuSans-20" x="313.716797"/>
     <use xlink:href="#DejaVuSans-31" x="345.503906"/>
     <use xlink:href="#DejaVuSans-36" x="409.126953"/>
     <use xlink:href="#DejaVuSans-35" x="472.75"/>
     <use xlink:href="#DejaVuSans-32" x="536.373047"/>
     <use xlink:href="#DejaVuSans-39" x="599.996094"/>
     <use xlink:href="#DejaVuSans-2e" x="663.619141"/>
     <use xlink:href="#DejaVuSans-30" x="695.40625"/>
     <use xlink:href="#DejaVuSans-31" x="759.029297"/>
     <use xlink:href="#DejaVuSans-2c" x="822.652344"/>
     <use xlink:href="#DejaVuSans-20" x="854.439453"/>
     <use xlink:href="#DejaVuSans-6d" x="886.226562"/>
     <use xlink:href="#DejaVuSans-61" x="983.638672"/>
     <use xlink:href="#DejaVuSans-78" x="1044.917969"/>
     <use xlink:href="#DejaVuSans-2e" x="1104.097656"/>
     <use xlink:href="#DejaVuSans-20" x="1135.884766"/>
     <use xlink:href="#DejaVuSans-4f" x="1167.671875"/>
     <use xlink:href="#DejaVuSans-76" x="1246.382812"/>
     <use xlink:href="#DejaVuSans-65" x="1305.5625"/>
     <use xlink:href="#DejaVuSans-72" x="1367.085938"/>
     <use xlink:href="#DejaVuSans-6c" x="1408.199219"/>
     <use xlink:href="#DejaVuSans-61" x="1435.982422"/>
     <use xlink:href="#DejaVuSans-70" x="1497.261719"/>
     <use xlink:href="#DejaVuSans-3a" x="1560.738281"/>
     <use xlink:href="#DejaVuSans-20" x="1594.429688"/>
     <use xlink:href="#DejaVuSans-30" x="1626.216797"/>
     <use xlink:href="#DejaVuSans-2e" x="1689.839844"/>
     <use xlink:href="#DejaVuSans-35" x="1721.626953"/>
     <use xlink:href="#DejaVuSans-32" x="1785.25"/>
     <use xlink:href="#DejaVuSans-2c" x="1848.873047"/>
     <use xlink:href="#DejaVuSans-20" x="1880.660156"/>
     <use xlink:href="#DejaVuSans-61" x="1912.447266"/>
     <use xlink:href="#DejaVuSans-76" x="1973.726562"/>
     <use xlink:href="#DejaVuSans-67" x="2032.90625"/>
     <use xlink:href="#DejaVuSans-2e" x="2096.382812"/>
     <use xlink:href="#DejaVuSans-20" x="2128.169922"/>
     <use xlink:href="#DejaVuSans-44" x="2159.957031"/>
     <use xlink:href="#DejaVuSans-69" x="2236.958984"/>
     <use xlink:href="#DejaVuSans-73" x="2264.742188"/>
     <use xlink:href="#DejaVuSans-74" x="2316.841797"/>
     <use xlink:href="#DejaVuSans-61" x="2356.050781"/>
     <use xlink:href="#DejaVuSans-6e" x="2417.330078"/>
     <use xlink:href="#DejaVuSans-63" x="2480.708984"/>
     <use xlink:href="#DejaVuSans-65" x="2535.689453"/>
     <use xlink:href="#DejaVuSans-3a" x="2597.212891"/>
     <use xlink:href="#DejaVuSans-20" x="2630.904297"/>
     <use xlink:href="#DejaVuSans-33" x="2662.691406"/>
     <use xlink:href="#DejaVuSans-2e" x="2726.314453"/>
     <use xlink:href="#DejaVuSans-39" x="2758.101562"/>
     <use xlink:href="#DejaVuSans-39" x="2821.724609"/>
     <use xlink:href="#DejaVuSans-2c" x="2885.347656"/>
     <use xlink:href="#DejaVuSans-20" x="2917.134766"/>
     <use xlink:href="#DejaVuSans-61" x="2948.921875"/>
     <use xlink:href="#DejaVuSans-76" x="3010.201172"/>
     <use xlink:href="#DejaVuSans-67" x="3069.380859"/>
     <use xlink:href="#DejaVuSans-2e" x="3132.857422"/>
     <use xlink:href="#DejaVuSans-20" x="3164.644531"/>
     <use xlink:href="#DejaVuSans-41" x="3196.431641"/>
     <use xlink:href="#DejaVuSans-6e" x="3264.839844"/>
     <use xlink:href="#DejaVuSans-67" x="3328.21875"/>
     <use xlink:href="#DejaVuSans-6c" x="3391.695312"/>
     <use xlink:href="#DejaVuSans-65" x="3419.478516"/>
     <use xlink:href="#DejaVuSans-3a" x="3481.001953"/>
     <use xlink:href="#DejaVuSans-20" x="3514.693359"/>
     <use xlink:href="#DejaVuSans-39" x="3546.480469"/>
     <use xlink:href="#DejaVuSans-2e" x="3610.103516"/>
     <use xlink:href="#DejaVuSans-31" x="3641.890625"/>
     <use xlink:href="#DejaVuSans-33" x="3705.513672"/>
    </g>
   </g>
  </g>
 </g>
 <defs>
  <clipPath id="pabd4736fef">
   <rect x="323.32067" y="172.8" width="829.358659" height="1108.8"/>
  </clipPath>
 </defs>
</svg>
