<?xml version="1.0" encoding="utf-8" standalone="no"?>
<!DOCTYPE svg PUBLIC "-//W3C//DTD SVG 1.1//EN"
  "http://www.w3.org/Graphics/SVG/1.1/DTD/svg11.dtd">
<svg xmlns:xlink="http://www.w3.org/1999/xlink" width="1440pt" height="1440pt" viewBox="0 0 1440 1440" xmlns="http://www.w3.org/2000/svg" version="1.1">
 <metadata>
  <rdf:RDF xmlns:dc="http://purl.org/dc/elements/1.1/" xmlns:cc="http://creativecommons.org/ns#" xmlns:rdf="http://www.w3.org/1999/02/22-rdf-syntax-ns#">
   <cc:Work>
    <dc:type rdf:resource="http://purl.org/dc/dcmitype/StillImage"/>
    <dc:date>2024-03-11T15:20:09.234365</dc:date>
    <dc:format>image/svg+xml</dc:format>
    <dc:creator>
     <cc:Agent>
      <dc:title>Matplotlib v3.8.3, https://matplotlib.org/</dc:title>
     </cc:Agent>
    </dc:creator>
   </cc:Work>
  </rdf:RDF>
 </metadata>
 <defs>
  <style type="text/css">*{stroke-linejoin: round; stroke-linecap: butt}</style>
 </defs>
 <g id="figure_1">
  <g id="patch_1">
   <path d="M 0 1440 
L 1440 1440 
L 1440 0 
L 0 0 
z
" style="fill: #ffffff"/>
  </g>
  <g id="axes_1">
   <g id="patch_2">
    <path d="M 449.181514 341.63818 
C 451.865316 341.63818 454.439557 340.571894 456.337291 338.67416 
C 458.235026 336.776426 459.301311 334.202184 459.301311 331.518383 
C 459.301311 328.834581 458.235026 326.26034 456.337291 324.362605 
C 454.439557 322.464871 451.865316 321.398585 449.181514 321.398585 
C 446.497713 321.398585 443.923471 322.464871 442.025737 324.362605 
C 440.128003 326.26034 439.061717 328.834581 439.061717 331.518383 
C 439.061717 334.202184 440.128003 336.776426 442.025737 338.67416 
C 443.923471 340.571894 446.497713 341.63818 449.181514 341.63818 
z
" clip-path="url(#pf657afec84)" style="fill: #9e0142; opacity: 0.5"/>
   </g>
   <g id="patch_3">
    <path d="M 556.791003 423.800349 
C 561.811936 423.800349 566.6279 421.805512 570.178236 418.255176 
C 573.728572 414.70484 575.72341 409.888875 575.72341 404.867942 
C 575.72341 399.847009 573.728572 395.031045 570.178236 391.480709 
C 566.6279 387.930373 561.811936 385.935535 556.791003 385.935535 
C 551.77007 385.935535 546.954105 387.930373 543.403769 391.480709 
C 539.853433 395.031045 537.858596 399.847009 537.858596 404.867942 
C 537.858596 409.888875 539.853433 414.70484 543.403769 418.255176 
C 546.954105 421.805512 551.77007 423.800349 556.791003 423.800349 
z
" clip-path="url(#pf657afec84)" style="fill: #b11747; opacity: 0.5"/>
   </g>
   <g id="patch_4">
    <path d="M 477.072449 389.103436 
C 479.263764 389.103436 481.365623 388.232817 482.915117 386.683324 
C 484.46461 385.13383 485.335229 383.031971 485.335229 380.840656 
C 485.335229 378.649341 484.46461 376.547482 482.915117 374.997989 
C 481.365623 373.448495 479.263764 372.577876 477.072449 372.577876 
C 474.881134 372.577876 472.779275 373.448495 471.229781 374.997989 
C 469.680288 376.547482 468.809669 378.649341 468.809669 380.840656 
C 468.809669 383.031971 469.680288 385.13383 471.229781 386.683324 
C 472.779275 388.232817 474.881134 389.103436 477.072449 389.103436 
z
" clip-path="url(#pf657afec84)" style="fill: #c72e4c; opacity: 0.5"/>
   </g>
   <g id="patch_5">
    <path d="M 447.075463 383.760951 
C 450.709347 383.760951 454.194886 382.317194 456.764431 379.747649 
C 459.333975 377.178105 460.777733 373.692566 460.777733 370.058681 
C 460.777733 366.424796 459.333975 362.939257 456.764431 360.369713 
C 454.194886 357.800168 450.709347 356.356411 447.075463 356.356411 
C 443.441578 356.356411 439.956039 357.800168 437.386494 360.369713 
C 434.81695 362.939257 433.373192 366.424796 433.373192 370.058681 
C 433.373192 373.692566 434.81695 377.178105 437.386494 379.747649 
C 439.956039 382.317194 443.441578 383.760951 447.075463 383.760951 
z
" clip-path="url(#pf657afec84)" style="fill: #d9444d; opacity: 0.5"/>
   </g>
   <g id="patch_6">
    <path d="M 482.578547 370.297489 
C 489.420926 370.297489 495.983979 367.578984 500.822271 362.740691 
C 505.660563 357.902399 508.379069 351.339346 508.379069 344.496967 
C 508.379069 337.654589 505.660563 331.091536 500.822271 326.253244 
C 495.983979 321.414951 489.420926 318.696446 482.578547 318.696446 
C 475.736169 318.696446 469.173116 321.414951 464.334823 326.253244 
C 459.496531 331.091536 456.778026 337.654589 456.778026 344.496967 
C 456.778026 351.339346 459.496531 357.902399 464.334823 362.740691 
C 469.173116 367.578984 475.736169 370.297489 482.578547 370.297489 
z
" clip-path="url(#pf657afec84)" style="fill: #e55749; opacity: 0.5"/>
   </g>
   <g id="patch_7">
    <path d="M 683.963393 977.814714 
C 705.517512 977.814714 726.191731 969.251172 741.432795 954.010109 
C 756.673858 938.769045 765.2374 918.094826 765.2374 896.540708 
C 765.2374 874.986589 756.673858 854.31237 741.432795 839.071307 
C 726.191731 823.830243 705.517512 815.266701 683.963393 815.266701 
C 662.409275 815.266701 641.735056 823.830243 626.493992 839.071307 
C 611.252929 854.31237 602.689387 874.986589 602.689387 896.540708 
C 602.689387 918.094826 611.252929 938.769045 626.493992 954.010109 
C 641.735056 969.251172 662.409275 977.814714 683.963393 977.814714 
z
" clip-path="url(#pf657afec84)" style="fill: #f26944; opacity: 0.5"/>
   </g>
   <g id="patch_8">
    <path d="M 837.250039 805.200692 
C 910.806116 805.200692 981.35943 775.976553 1033.371431 723.964552 
C 1085.383432 671.952551 1114.607571 601.399237 1114.607571 527.84316 
C 1114.607571 454.287082 1085.383432 383.733769 1033.371431 331.721768 
C 981.35943 279.709767 910.806116 250.485627 837.250039 250.485627 
C 763.693961 250.485627 693.140648 279.709767 641.128647 331.721768 
C 589.116646 383.733769 559.892506 454.287082 559.892506 527.84316 
C 559.892506 601.399237 589.116646 671.952551 641.128647 723.964552 
C 693.140648 775.976553 763.693961 805.200692 837.250039 805.200692 
z
" clip-path="url(#pf657afec84)" style="fill: #f7814c; opacity: 0.5"/>
   </g>
   <g id="patch_9">
    <path d="M 517.622921 620.022435 
C 522.990524 620.022435 528.139006 617.889864 531.934475 614.094395 
C 535.729944 610.298927 537.862515 605.150444 537.862515 599.782841 
C 537.862515 594.415238 535.729944 589.266755 531.934475 585.471286 
C 528.139006 581.675818 522.990524 579.543246 517.622921 579.543246 
C 512.255317 579.543246 507.106835 581.675818 503.311366 585.471286 
C 499.515897 589.266755 497.383326 594.415238 497.383326 599.782841 
C 497.383326 605.150444 499.515897 610.298927 503.311366 614.094395 
C 507.106835 617.889864 512.255317 620.022435 517.622921 620.022435 
z
" clip-path="url(#pf657afec84)" style="fill: #fa9857; opacity: 0.5"/>
   </g>
   <g id="patch_10">
    <path d="M 538.526293 248.898274 
C 541.210095 248.898274 543.784336 247.831988 545.68207 245.934254 
C 547.579805 244.03652 548.64609 241.462278 548.64609 238.778477 
C 548.64609 236.094675 547.579805 233.520434 545.68207 231.6227 
C 543.784336 229.724965 541.210095 228.65868 538.526293 228.65868 
C 535.842491 228.65868 533.26825 229.724965 531.370516 231.6227 
C 529.472781 233.520434 528.406496 236.094675 528.406496 238.778477 
C 528.406496 241.462278 529.472781 244.03652 531.370516 245.934254 
C 533.26825 247.831988 535.842491 248.898274 538.526293 248.898274 
z
" clip-path="url(#pf657afec84)" style="fill: #fdb163; opacity: 0.5"/>
   </g>
   <g id="patch_11">
    <path d="M 554.172913 241.581205 
C 555.722407 241.581205 557.208645 240.965585 558.304303 239.869927 
C 559.39996 238.77427 560.015581 237.288031 560.015581 235.738537 
C 560.015581 234.189044 559.39996 232.702805 558.304303 231.607147 
C 557.208645 230.51149 555.722407 229.89587 554.172913 229.89587 
C 552.623419 229.89587 551.13718 230.51149 550.041523 231.607147 
C 548.945866 232.702805 548.330245 234.189044 548.330245 235.738537 
C 548.330245 237.288031 548.945866 238.77427 550.041523 239.869927 
C 551.13718 240.965585 552.623419 241.581205 554.172913 241.581205 
z
" clip-path="url(#pf657afec84)" style="fill: #fdc574; opacity: 0.5"/>
   </g>
   <g id="patch_12">
    <path d="M 428.638019 400.89488 
C 431.924991 400.89488 435.07778 399.588952 437.40202 397.264712 
C 439.726261 394.940471 441.032189 391.787682 441.032189 388.50071 
C 441.032189 385.213738 439.726261 382.060949 437.40202 379.736709 
C 435.07778 377.412468 431.924991 376.10654 428.638019 376.10654 
C 425.351047 376.10654 422.198258 377.412468 419.874017 379.736709 
C 417.549777 382.060949 416.243849 385.213738 416.243849 388.50071 
C 416.243849 391.787682 417.549777 394.940471 419.874017 397.264712 
C 422.198258 399.588952 425.351047 400.89488 428.638019 400.89488 
z
" clip-path="url(#pf657afec84)" style="fill: #fed884; opacity: 0.5"/>
   </g>
   <g id="patch_13">
    <path d="M 655.863072 819.083971 
C 665.477427 819.083971 674.699297 815.264147 681.497673 808.465772 
C 688.296048 801.667397 692.115872 792.445526 692.115872 782.831172 
C 692.115872 773.216817 688.296048 763.994947 681.497673 757.196571 
C 674.699297 750.398196 665.477427 746.578372 655.863072 746.578372 
C 646.248718 746.578372 637.026847 750.398196 630.228472 757.196571 
C 623.430097 763.994947 619.610273 773.216817 619.610273 782.831172 
C 619.610273 792.445526 623.430097 801.667397 630.228472 808.465772 
C 637.026847 815.264147 646.248718 819.083971 655.863072 819.083971 
z
" clip-path="url(#pf657afec84)" style="fill: #fee797; opacity: 0.5"/>
   </g>
   <g id="patch_14">
    <path d="M 507.661309 579.241555 
C 521.735283 579.241555 535.234719 573.649906 545.186521 563.698103 
C 555.138324 553.746301 560.729973 540.246865 560.729973 526.172891 
C 560.729973 512.098917 555.138324 498.599481 545.186521 488.647678 
C 535.234719 478.695876 521.735283 473.104226 507.661309 473.104226 
C 493.587335 473.104226 480.087899 478.695876 470.136096 488.647678 
C 460.184294 498.599481 454.592644 512.098917 454.592644 526.172891 
C 454.592644 540.246865 460.184294 553.746301 470.136096 563.698103 
C 480.087899 573.649906 493.587335 579.241555 507.661309 579.241555 
z
" clip-path="url(#pf657afec84)" style="fill: #fff3ac; opacity: 0.5"/>
   </g>
   <g id="patch_15">
    <path d="M 488.750771 319.425986 
C 490.300264 319.425986 491.786503 318.810366 492.88216 317.714709 
C 493.977818 316.619051 494.593438 315.132812 494.593438 313.583319 
C 494.593438 312.033825 493.977818 310.547586 492.88216 309.451929 
C 491.786503 308.356271 490.300264 307.740651 488.750771 307.740651 
C 487.201277 307.740651 485.715038 308.356271 484.619381 309.451929 
C 483.523723 310.547586 482.908103 312.033825 482.908103 313.583319 
C 482.908103 315.132812 483.523723 316.619051 484.619381 317.714709 
C 485.715038 318.810366 487.201277 319.425986 488.750771 319.425986 
z
" clip-path="url(#pf657afec84)" style="fill: #ffffbe; opacity: 0.5"/>
   </g>
   <g id="patch_16">
    <path d="M 450.838364 353.250612 
C 452.387858 353.250612 453.874097 352.634991 454.969754 351.539334 
C 456.065411 350.443676 456.681032 348.957437 456.681032 347.407944 
C 456.681032 345.85845 456.065411 344.372211 454.969754 343.276554 
C 453.874097 342.180897 452.387858 341.565276 450.838364 341.565276 
C 449.28887 341.565276 447.802632 342.180897 446.706974 343.276554 
C 445.611317 344.372211 444.995696 345.85845 444.995696 347.407944 
C 444.995696 348.957437 445.611317 350.443676 446.706974 351.539334 
C 447.802632 352.634991 449.28887 353.250612 450.838364 353.250612 
z
" clip-path="url(#pf657afec84)" style="fill: #f6fbb0; opacity: 0.5"/>
   </g>
   <g id="patch_17">
    <path d="M 614.897992 761.899012 
C 622.165761 761.899012 629.13684 759.011497 634.275929 753.872408 
C 639.415017 748.733319 642.302533 741.762241 642.302533 734.494472 
C 642.302533 727.226703 639.415017 720.255624 634.275929 715.116535 
C 629.13684 709.977446 622.165761 707.089931 614.897992 707.089931 
C 607.630223 707.089931 600.659145 709.977446 595.520056 715.116535 
C 590.380967 720.255624 587.493452 727.226703 587.493452 734.494472 
C 587.493452 741.762241 590.380967 748.733319 595.520056 753.872408 
C 600.659145 759.011497 607.630223 761.899012 614.897992 761.899012 
z
" clip-path="url(#pf657afec84)" style="fill: #ecf7a1; opacity: 0.5"/>
   </g>
   <g id="patch_18">
    <path d="M 511.374606 378.284254 
C 514.273444 378.284254 517.053942 377.132534 519.103729 375.082746 
C 521.153517 373.032959 522.305237 370.252461 522.305237 367.353624 
C 522.305237 364.454787 521.153517 361.674288 519.103729 359.624501 
C 517.053942 357.574713 514.273444 356.422993 511.374606 356.422993 
C 508.475769 356.422993 505.695271 357.574713 503.645484 359.624501 
C 501.595696 361.674288 500.443976 364.454787 500.443976 367.353624 
C 500.443976 370.252461 501.595696 373.032959 503.645484 375.082746 
C 505.695271 377.132534 508.475769 378.284254 511.374606 378.284254 
z
" clip-path="url(#pf657afec84)" style="fill: #ddf19a; opacity: 0.5"/>
   </g>
   <g id="patch_19">
    <path d="M 486.771456 607.095027 
C 489.670293 607.095027 492.450791 605.943307 494.500579 603.893519 
C 496.550366 601.843732 497.702086 599.063233 497.702086 596.164396 
C 497.702086 593.265559 496.550366 590.485061 494.500579 588.435274 
C 492.450791 586.385486 489.670293 585.233766 486.771456 585.233766 
C 483.872619 585.233766 481.09212 586.385486 479.042333 588.435274 
C 476.992546 590.485061 475.840825 593.265559 475.840825 596.164396 
C 475.840825 599.063233 476.992546 601.843732 479.042333 603.893519 
C 481.09212 605.943307 483.872619 607.095027 486.771456 607.095027 
z
" clip-path="url(#pf657afec84)" style="fill: #c6e89f; opacity: 0.5"/>
   </g>
   <g id="patch_20">
    <path d="M 603.932082 345.756831 
C 620.183308 345.756831 635.771113 339.30015 647.262465 327.808798 
C 658.753817 316.317447 665.210498 300.729641 665.210498 284.478415 
C 665.210498 268.22719 658.753817 252.639384 647.262465 241.148032 
C 635.771113 229.65668 620.183308 223.2 603.932082 223.2 
C 587.680857 223.2 572.093051 229.65668 560.601699 241.148032 
C 549.110347 252.639384 542.653667 268.22719 542.653667 284.478415 
C 542.653667 300.729641 549.110347 316.317447 560.601699 327.808798 
C 572.093051 339.30015 587.680857 345.756831 603.932082 345.756831 
z
" clip-path="url(#pf657afec84)" style="fill: #aedea3; opacity: 0.5"/>
   </g>
   <g id="patch_21">
    <path d="M 812.839173 980.062153 
C 826.479997 980.062153 839.563966 974.642596 849.209486 964.997076 
C 858.855005 955.351557 864.274562 942.267588 864.274562 928.626763 
C 864.274562 914.985939 858.855005 901.90197 849.209486 892.25645 
C 839.563966 882.610931 826.479997 877.191374 812.839173 877.191374 
C 799.198348 877.191374 786.11438 882.610931 776.46886 892.25645 
C 766.82334 901.90197 761.403783 914.985939 761.403783 928.626763 
C 761.403783 942.267588 766.82334 955.351557 776.46886 964.997076 
C 786.11438 974.642596 799.198348 980.062153 812.839173 980.062153 
z
" clip-path="url(#pf657afec84)" style="fill: #94d4a4; opacity: 0.5"/>
   </g>
   <g id="patch_22">
    <path d="M 533.327971 363.925473 
C 540.082056 363.925473 546.560422 361.242046 551.336282 356.466186 
C 556.112142 351.690326 558.795568 345.211961 558.795568 338.457875 
C 558.795568 331.703789 556.112142 325.225424 551.336282 320.449564 
C 546.560422 315.673704 540.082056 312.990277 533.327971 312.990277 
C 526.573885 312.990277 520.095519 315.673704 515.319659 320.449564 
C 510.543799 325.225424 507.860373 331.703789 507.860373 338.457875 
C 507.860373 345.211961 510.543799 351.690326 515.319659 356.466186 
C 520.095519 361.242046 526.573885 363.925473 533.327971 363.925473 
z
" clip-path="url(#pf657afec84)" style="fill: #7ccaa5; opacity: 0.5"/>
   </g>
   <g id="patch_23">
    <path d="M 474.642532 840.196914 
C 504.807953 840.196914 533.741937 828.212066 555.07211 806.881892 
C 576.402284 785.551719 588.387132 756.617735 588.387132 726.452314 
C 588.387132 696.286893 576.402284 667.352909 555.07211 646.022736 
C 533.741937 624.692562 504.807953 612.707714 474.642532 612.707714 
C 444.477111 612.707714 415.543127 624.692562 394.212954 646.022736 
C 372.88278 667.352909 360.897932 696.286893 360.897932 726.452314 
C 360.897932 756.617735 372.88278 785.551719 394.212954 806.881892 
C 415.543127 828.212066 444.477111 840.196914 474.642532 840.196914 
z
" clip-path="url(#pf657afec84)" style="fill: #62bda7; opacity: 0.5"/>
   </g>
   <g id="patch_24">
    <path d="M 753.309454 1004.142356 
C 760.239 1004.142356 766.885663 1001.389219 771.785592 996.48929 
C 776.685521 991.589361 779.438659 984.942698 779.438659 978.013152 
C 779.438659 971.083606 776.685521 964.436944 771.785592 959.537015 
C 766.885663 954.637086 760.239 951.883948 753.309454 951.883948 
C 746.379908 951.883948 739.733246 954.637086 734.833317 959.537015 
C 729.933388 964.436944 727.18025 971.083606 727.18025 978.013152 
C 727.18025 984.942698 729.933388 991.589361 734.833317 996.48929 
C 739.733246 1001.389219 746.379908 1004.142356 753.309454 1004.142356 
z
" clip-path="url(#pf657afec84)" style="fill: #4ea7b0; opacity: 0.5"/>
   </g>
   <g id="patch_25">
    <path d="M 959.090807 1231.2 
C 1000.465477 1231.2 1040.151118 1214.761669 1069.407428 1185.505359 
C 1098.663738 1156.24905 1115.102068 1116.563409 1115.102068 1075.188738 
C 1115.102068 1033.814068 1098.663738 994.128427 1069.407428 964.872117 
C 1040.151118 935.615808 1000.465477 919.177477 959.090807 919.177477 
C 917.716136 919.177477 878.030496 935.615808 848.774186 964.872117 
C 819.517876 994.128427 803.079545 1033.814068 803.079545 1075.188738 
C 803.079545 1116.563409 819.517876 1156.24905 848.774186 1185.505359 
C 878.030496 1214.761669 917.716136 1231.2 959.090807 1231.2 
z
" clip-path="url(#pf657afec84)" style="fill: #3990ba; opacity: 0.5"/>
   </g>
   <g id="patch_26">
    <path d="M 466.509416 377.436255 
C 468.058909 377.436255 469.545148 376.820635 470.640806 375.724978 
C 471.736463 374.62932 472.352083 373.143081 472.352083 371.593588 
C 472.352083 370.044094 471.736463 368.557855 470.640806 367.462198 
C 469.545148 366.36654 468.058909 365.75092 466.509416 365.75092 
C 464.959922 365.75092 463.473683 366.36654 462.378026 367.462198 
C 461.282368 368.557855 460.666748 370.044094 460.666748 371.593588 
C 460.666748 373.143081 461.282368 374.62932 462.378026 375.724978 
C 463.473683 376.820635 464.959922 377.436255 466.509416 377.436255 
z
" clip-path="url(#pf657afec84)" style="fill: #3d79b6; opacity: 0.5"/>
   </g>
   <g id="patch_27">
    <path d="M 451.714072 609.540323 
C 458.814744 609.540323 465.625546 606.719196 470.646479 601.698263 
C 475.667412 596.67733 478.488539 589.866528 478.488539 582.765856 
C 478.488539 575.665185 475.667412 568.854382 470.646479 563.833449 
C 465.625546 558.812516 458.814744 555.99139 451.714072 555.99139 
C 444.613401 555.99139 437.802598 558.812516 432.781665 563.833449 
C 427.760732 568.854382 424.939605 575.665185 424.939605 582.765856 
C 424.939605 589.866528 427.760732 596.67733 432.781665 601.698263 
C 437.802598 606.719196 444.613401 609.540323 451.714072 609.540323 
z
" clip-path="url(#pf657afec84)" style="fill: #4e63ac; opacity: 0.5"/>
   </g>
   <g id="patch_28">
    <path d="M 578.090355 391.589239 
C 584.6643 391.589239 590.969877 388.977383 595.618358 384.328902 
C 600.266839 379.680422 602.878695 373.374844 602.878695 366.800899 
C 602.878695 360.226955 600.266839 353.921377 595.618358 349.272896 
C 590.969877 344.624416 584.6643 342.01256 578.090355 342.01256 
C 571.516411 342.01256 565.210833 344.624416 560.562352 349.272896 
C 555.913871 353.921377 553.302016 360.226955 553.302016 366.800899 
C 553.302016 373.374844 555.913871 379.680422 560.562352 384.328902 
C 565.210833 388.977383 571.516411 391.589239 578.090355 391.589239 
z
" clip-path="url(#pf657afec84)" style="fill: #5e4fa2; opacity: 0.5"/>
   </g>
   <g id="line2d_1">
    <path d="M 614.897992 734.494472 
L 474.642532 726.452314 
" clip-path="url(#pf657afec84)" style="fill: none; stroke: #808080; stroke-opacity: 0.3; stroke-width: 0.5; stroke-linecap: square"/>
   </g>
   <g id="line2d_2">
    <path d="M 614.897992 734.494472 
L 655.863072 782.831172 
" clip-path="url(#pf657afec84)" style="fill: none; stroke: #808080; stroke-opacity: 0.3; stroke-width: 0.5; stroke-linecap: square"/>
   </g>
   <g id="line2d_3">
    <path d="M 450.838364 347.407944 
L 447.075463 370.058681 
" clip-path="url(#pf657afec84)" style="fill: none; stroke: #808080; stroke-opacity: 0.3; stroke-width: 0.5; stroke-linecap: square"/>
   </g>
   <g id="line2d_4">
    <path d="M 450.838364 347.407944 
L 482.578547 344.496967 
" clip-path="url(#pf657afec84)" style="fill: none; stroke: #808080; stroke-opacity: 0.3; stroke-width: 0.5; stroke-linecap: square"/>
   </g>
   <g id="line2d_5">
    <path d="M 450.838364 347.407944 
L 449.181514 331.518383 
" clip-path="url(#pf657afec84)" style="fill: none; stroke: #808080; stroke-opacity: 0.3; stroke-width: 0.5; stroke-linecap: square"/>
   </g>
   <g id="line2d_6">
    <path d="M 466.509416 371.593588 
L 447.075463 370.058681 
" clip-path="url(#pf657afec84)" style="fill: none; stroke: #808080; stroke-opacity: 0.3; stroke-width: 0.5; stroke-linecap: square"/>
   </g>
   <g id="line2d_7">
    <path d="M 466.509416 371.593588 
L 482.578547 344.496967 
" clip-path="url(#pf657afec84)" style="fill: none; stroke: #808080; stroke-opacity: 0.3; stroke-width: 0.5; stroke-linecap: square"/>
   </g>
   <g id="line2d_8">
    <path d="M 466.509416 371.593588 
L 477.072449 380.840656 
" clip-path="url(#pf657afec84)" style="fill: none; stroke: #808080; stroke-opacity: 0.3; stroke-width: 0.5; stroke-linecap: square"/>
   </g>
   <g id="line2d_9">
    <path d="M 837.250039 527.84316 
L 474.642532 726.452314 
" clip-path="url(#pf657afec84)" style="fill: none; stroke: #808080; stroke-opacity: 0.3; stroke-width: 0.5; stroke-linecap: square"/>
   </g>
   <g id="line2d_10">
    <path d="M 837.250039 527.84316 
L 578.090355 366.800899 
" clip-path="url(#pf657afec84)" style="fill: none; stroke: #808080; stroke-opacity: 0.3; stroke-width: 0.5; stroke-linecap: square"/>
   </g>
   <g id="line2d_11">
    <path d="M 837.250039 527.84316 
L 655.863072 782.831172 
" clip-path="url(#pf657afec84)" style="fill: none; stroke: #808080; stroke-opacity: 0.3; stroke-width: 0.5; stroke-linecap: square"/>
   </g>
   <g id="line2d_12">
    <path d="M 837.250039 527.84316 
L 507.661309 526.172891 
" clip-path="url(#pf657afec84)" style="fill: none; stroke: #808080; stroke-opacity: 0.3; stroke-width: 0.5; stroke-linecap: square"/>
   </g>
   <g id="line2d_13">
    <path d="M 837.250039 527.84316 
L 517.622921 599.782841 
" clip-path="url(#pf657afec84)" style="fill: none; stroke: #808080; stroke-opacity: 0.3; stroke-width: 0.5; stroke-linecap: square"/>
   </g>
   <g id="line2d_14">
    <path d="M 837.250039 527.84316 
L 603.932082 284.478415 
" clip-path="url(#pf657afec84)" style="fill: none; stroke: #808080; stroke-opacity: 0.3; stroke-width: 0.5; stroke-linecap: square"/>
   </g>
   <g id="line2d_15">
    <path d="M 511.374606 367.353624 
L 482.578547 344.496967 
" clip-path="url(#pf657afec84)" style="fill: none; stroke: #808080; stroke-opacity: 0.3; stroke-width: 0.5; stroke-linecap: square"/>
   </g>
   <g id="line2d_16">
    <path d="M 511.374606 367.353624 
L 533.327971 338.457875 
" clip-path="url(#pf657afec84)" style="fill: none; stroke: #808080; stroke-opacity: 0.3; stroke-width: 0.5; stroke-linecap: square"/>
   </g>
   <g id="line2d_17">
    <path d="M 482.578547 344.496967 
L 488.750771 313.583319 
" clip-path="url(#pf657afec84)" style="fill: none; stroke: #808080; stroke-opacity: 0.3; stroke-width: 0.5; stroke-linecap: square"/>
   </g>
   <g id="line2d_18">
    <path d="M 482.578547 344.496967 
L 447.075463 370.058681 
" clip-path="url(#pf657afec84)" style="fill: none; stroke: #808080; stroke-opacity: 0.3; stroke-width: 0.5; stroke-linecap: square"/>
   </g>
   <g id="line2d_19">
    <path d="M 482.578547 344.496967 
L 449.181514 331.518383 
" clip-path="url(#pf657afec84)" style="fill: none; stroke: #808080; stroke-opacity: 0.3; stroke-width: 0.5; stroke-linecap: square"/>
   </g>
   <g id="line2d_20">
    <path d="M 482.578547 344.496967 
L 533.327971 338.457875 
" clip-path="url(#pf657afec84)" style="fill: none; stroke: #808080; stroke-opacity: 0.3; stroke-width: 0.5; stroke-linecap: square"/>
   </g>
   <g id="line2d_21">
    <path d="M 428.638019 388.50071 
L 447.075463 370.058681 
" clip-path="url(#pf657afec84)" style="fill: none; stroke: #808080; stroke-opacity: 0.3; stroke-width: 0.5; stroke-linecap: square"/>
   </g>
   <g id="line2d_22">
    <path d="M 554.172913 235.738537 
L 603.932082 284.478415 
" clip-path="url(#pf657afec84)" style="fill: none; stroke: #808080; stroke-opacity: 0.3; stroke-width: 0.5; stroke-linecap: square"/>
   </g>
   <g id="line2d_23">
    <path d="M 554.172913 235.738537 
L 538.526293 238.778477 
" clip-path="url(#pf657afec84)" style="fill: none; stroke: #808080; stroke-opacity: 0.3; stroke-width: 0.5; stroke-linecap: square"/>
   </g>
   <g id="line2d_24">
    <path d="M 447.075463 370.058681 
L 477.072449 380.840656 
" clip-path="url(#pf657afec84)" style="fill: none; stroke: #808080; stroke-opacity: 0.3; stroke-width: 0.5; stroke-linecap: square"/>
   </g>
   <g id="line2d_25">
    <path d="M 959.090807 1075.188738 
L 812.839173 928.626763 
" clip-path="url(#pf657afec84)" style="fill: none; stroke: #808080; stroke-opacity: 0.3; stroke-width: 0.5; stroke-linecap: square"/>
   </g>
   <g id="line2d_26">
    <path d="M 474.642532 726.452314 
L 655.863072 782.831172 
" clip-path="url(#pf657afec84)" style="fill: none; stroke: #808080; stroke-opacity: 0.3; stroke-width: 0.5; stroke-linecap: square"/>
   </g>
   <g id="line2d_27">
    <path d="M 474.642532 726.452314 
L 507.661309 526.172891 
" clip-path="url(#pf657afec84)" style="fill: none; stroke: #808080; stroke-opacity: 0.3; stroke-width: 0.5; stroke-linecap: square"/>
   </g>
   <g id="line2d_28">
    <path d="M 474.642532 726.452314 
L 517.622921 599.782841 
" clip-path="url(#pf657afec84)" style="fill: none; stroke: #808080; stroke-opacity: 0.3; stroke-width: 0.5; stroke-linecap: square"/>
   </g>
   <g id="line2d_29">
    <path d="M 486.771456 596.164396 
L 517.622921 599.782841 
" clip-path="url(#pf657afec84)" style="fill: none; stroke: #808080; stroke-opacity: 0.3; stroke-width: 0.5; stroke-linecap: square"/>
   </g>
   <g id="line2d_30">
    <path d="M 486.771456 596.164396 
L 451.714072 582.765856 
" clip-path="url(#pf657afec84)" style="fill: none; stroke: #808080; stroke-opacity: 0.3; stroke-width: 0.5; stroke-linecap: square"/>
   </g>
   <g id="line2d_31">
    <path d="M 753.309454 978.013152 
L 683.963393 896.540708 
" clip-path="url(#pf657afec84)" style="fill: none; stroke: #808080; stroke-opacity: 0.3; stroke-width: 0.5; stroke-linecap: square"/>
   </g>
   <g id="line2d_32">
    <path d="M 578.090355 366.800899 
L 603.932082 284.478415 
" clip-path="url(#pf657afec84)" style="fill: none; stroke: #808080; stroke-opacity: 0.3; stroke-width: 0.5; stroke-linecap: square"/>
   </g>
   <g id="line2d_33">
    <path d="M 578.090355 366.800899 
L 556.791003 404.867942 
" clip-path="url(#pf657afec84)" style="fill: none; stroke: #808080; stroke-opacity: 0.3; stroke-width: 0.5; stroke-linecap: square"/>
   </g>
   <g id="line2d_34">
    <path d="M 655.863072 782.831172 
L 683.963393 896.540708 
" clip-path="url(#pf657afec84)" style="fill: none; stroke: #808080; stroke-opacity: 0.3; stroke-width: 0.5; stroke-linecap: square"/>
   </g>
   <g id="line2d_35">
    <path d="M 812.839173 928.626763 
L 683.963393 896.540708 
" clip-path="url(#pf657afec84)" style="fill: none; stroke: #808080; stroke-opacity: 0.3; stroke-width: 0.5; stroke-linecap: square"/>
   </g>
   <g id="line2d_36">
    <path d="M 533.327971 338.457875 
L 603.932082 284.478415 
" clip-path="url(#pf657afec84)" style="fill: none; stroke: #808080; stroke-opacity: 0.3; stroke-width: 0.5; stroke-linecap: square"/>
   </g>
   <g id="text_1">
    <!-- NLD -->
    <g transform="translate(442.955577 333.174008) scale(0.06 -0.06)">
     <defs>
      <path id="DejaVuSans-4e" d="M 628 4666 
L 1478 4666 
L 3547 763 
L 3547 4666 
L 4159 4666 
L 4159 0 
L 3309 0 
L 1241 3903 
L 1241 0 
L 628 0 
L 628 4666 
z
" transform="scale(0.015625)"/>
      <path id="DejaVuSans-4c" d="M 628 4666 
L 1259 4666 
L 1259 531 
L 3531 531 
L 3531 0 
L 628 0 
L 628 4666 
z
" transform="scale(0.015625)"/>
      <path id="DejaVuSans-44" d="M 1259 4147 
L 1259 519 
L 2022 519 
Q 2988 519 3436 956 
Q 3884 1394 3884 2338 
Q 3884 3275 3436 3711 
Q 2988 4147 2022 4147 
L 1259 4147 
z
M 628 4666 
L 1925 4666 
Q 3281 4666 3915 4102 
Q 4550 3538 4550 2338 
Q 4550 1131 3912 565 
Q 3275 0 1925 0 
L 628 0 
L 628 4666 
z
" transform="scale(0.015625)"/>
     </defs>
     <use xlink:href="#DejaVuSans-4e"/>
     <use xlink:href="#DejaVuSans-4c" x="74.804688"/>
     <use xlink:href="#DejaVuSans-44" x="130.517578"/>
    </g>
   </g>
   <g id="text_2">
    <!-- UZB -->
    <g transform="translate(550.534596 406.523567) scale(0.06 -0.06)">
     <defs>
      <path id="DejaVuSans-55" d="M 556 4666 
L 1191 4666 
L 1191 1831 
Q 1191 1081 1462 751 
Q 1734 422 2344 422 
Q 2950 422 3222 751 
Q 3494 1081 3494 1831 
L 3494 4666 
L 4128 4666 
L 4128 1753 
Q 4128 841 3676 375 
Q 3225 -91 2344 -91 
Q 1459 -91 1007 375 
Q 556 841 556 1753 
L 556 4666 
z
" transform="scale(0.015625)"/>
      <path id="DejaVuSans-5a" d="M 359 4666 
L 4025 4666 
L 4025 4184 
L 1075 531 
L 4097 531 
L 4097 0 
L 288 0 
L 288 481 
L 3238 4134 
L 359 4134 
L 359 4666 
z
" transform="scale(0.015625)"/>
      <path id="DejaVuSans-42" d="M 1259 2228 
L 1259 519 
L 2272 519 
Q 2781 519 3026 730 
Q 3272 941 3272 1375 
Q 3272 1813 3026 2020 
Q 2781 2228 2272 2228 
L 1259 2228 
z
M 1259 4147 
L 1259 2741 
L 2194 2741 
Q 2656 2741 2882 2914 
Q 3109 3088 3109 3444 
Q 3109 3797 2882 3972 
Q 2656 4147 2194 4147 
L 1259 4147 
z
M 628 4666 
L 2241 4666 
Q 2963 4666 3353 4366 
Q 3744 4066 3744 3513 
Q 3744 3084 3544 2831 
Q 3344 2578 2956 2516 
Q 3422 2416 3680 2098 
Q 3938 1781 3938 1306 
Q 3938 681 3513 340 
Q 3088 0 2303 0 
L 628 0 
L 628 4666 
z
" transform="scale(0.015625)"/>
     </defs>
     <use xlink:href="#DejaVuSans-55"/>
     <use xlink:href="#DejaVuSans-5a" x="71.443359"/>
     <use xlink:href="#DejaVuSans-42" x="139.949219"/>
    </g>
   </g>
   <g id="text_3">
    <!-- ITA -->
    <g transform="translate(472.535418 382.496281) scale(0.06 -0.06)">
     <defs>
      <path id="DejaVuSans-49" d="M 628 4666 
L 1259 4666 
L 1259 0 
L 628 0 
L 628 4666 
z
" transform="scale(0.015625)"/>
      <path id="DejaVuSans-54" d="M -19 4666 
L 3928 4666 
L 3928 4134 
L 2272 4134 
L 2272 0 
L 1638 0 
L 1638 4134 
L -19 4134 
L -19 4666 
z
" transform="scale(0.015625)"/>
      <path id="DejaVuSans-41" d="M 2188 4044 
L 1331 1722 
L 3047 1722 
L 2188 4044 
z
M 1831 4666 
L 2547 4666 
L 4325 0 
L 3669 0 
L 3244 1197 
L 1141 1197 
L 716 0 
L 50 0 
L 1831 4666 
z
" transform="scale(0.015625)"/>
     </defs>
     <use xlink:href="#DejaVuSans-49"/>
     <use xlink:href="#DejaVuSans-54" x="29.492188"/>
     <use xlink:href="#DejaVuSans-41" x="82.826172"/>
    </g>
   </g>
   <g id="text_4">
    <!-- FRA -->
    <g transform="translate(441.333275 371.714306) scale(0.06 -0.06)">
     <defs>
      <path id="DejaVuSans-46" d="M 628 4666 
L 3309 4666 
L 3309 4134 
L 1259 4134 
L 1259 2759 
L 3109 2759 
L 3109 2228 
L 1259 2228 
L 1259 0 
L 628 0 
L 628 4666 
z
" transform="scale(0.015625)"/>
      <path id="DejaVuSans-52" d="M 2841 2188 
Q 3044 2119 3236 1894 
Q 3428 1669 3622 1275 
L 4263 0 
L 3584 0 
L 2988 1197 
Q 2756 1666 2539 1819 
Q 2322 1972 1947 1972 
L 1259 1972 
L 1259 0 
L 628 0 
L 628 4666 
L 2053 4666 
Q 2853 4666 3247 4331 
Q 3641 3997 3641 3322 
Q 3641 2881 3436 2590 
Q 3231 2300 2841 2188 
z
M 1259 4147 
L 1259 2491 
L 2053 2491 
Q 2509 2491 2742 2702 
Q 2975 2913 2975 3322 
Q 2975 3731 2742 3939 
Q 2509 4147 2053 4147 
L 1259 4147 
z
" transform="scale(0.015625)"/>
     </defs>
     <use xlink:href="#DejaVuSans-46"/>
     <use xlink:href="#DejaVuSans-52" x="57.519531"/>
     <use xlink:href="#DejaVuSans-41" x="123.001953"/>
    </g>
   </g>
   <g id="text_5">
    <!-- DEU -->
    <g transform="translate(476.177297 346.152592) scale(0.06 -0.06)">
     <defs>
      <path id="DejaVuSans-45" d="M 628 4666 
L 3578 4666 
L 3578 4134 
L 1259 4134 
L 1259 2753 
L 3481 2753 
L 3481 2222 
L 1259 2222 
L 1259 531 
L 3634 531 
L 3634 0 
L 628 0 
L 628 4666 
z
" transform="scale(0.015625)"/>
     </defs>
     <use xlink:href="#DejaVuSans-44"/>
     <use xlink:href="#DejaVuSans-45" x="77.001953"/>
     <use xlink:href="#DejaVuSans-55" x="140.185547"/>
    </g>
   </g>
   <g id="text_6">
    <!-- THA -->
    <g transform="translate(677.822768 898.196333) scale(0.06 -0.06)">
     <defs>
      <path id="DejaVuSans-48" d="M 628 4666 
L 1259 4666 
L 1259 2753 
L 3553 2753 
L 3553 4666 
L 4184 4666 
L 4184 0 
L 3553 0 
L 3553 2222 
L 1259 2222 
L 1259 0 
L 628 0 
L 628 4666 
z
" transform="scale(0.015625)"/>
     </defs>
     <use xlink:href="#DejaVuSans-54"/>
     <use xlink:href="#DejaVuSans-48" x="61.083984"/>
     <use xlink:href="#DejaVuSans-41" x="136.279297"/>
    </g>
   </g>
   <g id="text_7">
    <!-- CHN -->
    <g transform="translate(830.654726 529.498785) scale(0.06 -0.06)">
     <defs>
      <path id="DejaVuSans-43" d="M 4122 4306 
L 4122 3641 
Q 3803 3938 3442 4084 
Q 3081 4231 2675 4231 
Q 1875 4231 1450 3742 
Q 1025 3253 1025 2328 
Q 1025 1406 1450 917 
Q 1875 428 2675 428 
Q 3081 428 3442 575 
Q 3803 722 4122 1019 
L 4122 359 
Q 3791 134 3420 21 
Q 3050 -91 2638 -91 
Q 1578 -91 968 557 
Q 359 1206 359 2328 
Q 359 3453 968 4101 
Q 1578 4750 2638 4750 
Q 3056 4750 3426 4639 
Q 3797 4528 4122 4306 
z
" transform="scale(0.015625)"/>
     </defs>
     <use xlink:href="#DejaVuSans-43"/>
     <use xlink:href="#DejaVuSans-48" x="69.824219"/>
     <use xlink:href="#DejaVuSans-4e" x="145.019531"/>
    </g>
   </g>
   <g id="text_8">
    <!-- PAK -->
    <g transform="translate(511.985733 601.438466) scale(0.06 -0.06)">
     <defs>
      <path id="DejaVuSans-50" d="M 1259 4147 
L 1259 2394 
L 2053 2394 
Q 2494 2394 2734 2622 
Q 2975 2850 2975 3272 
Q 2975 3691 2734 3919 
Q 2494 4147 2053 4147 
L 1259 4147 
z
M 628 4666 
L 2053 4666 
Q 2838 4666 3239 4311 
Q 3641 3956 3641 3272 
Q 3641 2581 3239 2228 
Q 2838 1875 2053 1875 
L 1259 1875 
L 1259 0 
L 628 0 
L 628 4666 
z
" transform="scale(0.015625)"/>
      <path id="DejaVuSans-4b" d="M 628 4666 
L 1259 4666 
L 1259 2694 
L 3353 4666 
L 4166 4666 
L 1850 2491 
L 4331 0 
L 3500 0 
L 1259 2247 
L 1259 0 
L 628 0 
L 628 4666 
z
" transform="scale(0.015625)"/>
     </defs>
     <use xlink:href="#DejaVuSans-50"/>
     <use xlink:href="#DejaVuSans-41" x="53.927734"/>
     <use xlink:href="#DejaVuSans-4b" x="122.335938"/>
    </g>
   </g>
   <g id="text_9">
    <!-- SWE -->
    <g transform="translate(531.759887 240.434102) scale(0.06 -0.06)">
     <defs>
      <path id="DejaVuSans-53" d="M 3425 4513 
L 3425 3897 
Q 3066 4069 2747 4153 
Q 2428 4238 2131 4238 
Q 1616 4238 1336 4038 
Q 1056 3838 1056 3469 
Q 1056 3159 1242 3001 
Q 1428 2844 1947 2747 
L 2328 2669 
Q 3034 2534 3370 2195 
Q 3706 1856 3706 1288 
Q 3706 609 3251 259 
Q 2797 -91 1919 -91 
Q 1588 -91 1214 -16 
Q 841 59 441 206 
L 441 856 
Q 825 641 1194 531 
Q 1563 422 1919 422 
Q 2459 422 2753 634 
Q 3047 847 3047 1241 
Q 3047 1584 2836 1778 
Q 2625 1972 2144 2069 
L 1759 2144 
Q 1053 2284 737 2584 
Q 422 2884 422 3419 
Q 422 4038 858 4394 
Q 1294 4750 2059 4750 
Q 2388 4750 2728 4690 
Q 3069 4631 3425 4513 
z
" transform="scale(0.015625)"/>
      <path id="DejaVuSans-57" d="M 213 4666 
L 850 4666 
L 1831 722 
L 2809 4666 
L 3519 4666 
L 4500 722 
L 5478 4666 
L 6119 4666 
L 4947 0 
L 4153 0 
L 3169 4050 
L 2175 0 
L 1381 0 
L 213 4666 
z
" transform="scale(0.015625)"/>
     </defs>
     <use xlink:href="#DejaVuSans-53"/>
     <use xlink:href="#DejaVuSans-57" x="63.476562"/>
     <use xlink:href="#DejaVuSans-45" x="162.353516"/>
    </g>
   </g>
   <g id="text_10">
    <!-- FIN -->
    <g transform="translate(549.318069 237.394162) scale(0.06 -0.06)">
     <use xlink:href="#DejaVuSans-46"/>
     <use xlink:href="#DejaVuSans-49" x="57.519531"/>
     <use xlink:href="#DejaVuSans-4e" x="87.011719"/>
    </g>
   </g>
   <g id="text_11">
    <!-- ESP -->
    <g transform="translate(423.028956 390.156335) scale(0.06 -0.06)">
     <use xlink:href="#DejaVuSans-45"/>
     <use xlink:href="#DejaVuSans-53" x="63.183594"/>
     <use xlink:href="#DejaVuSans-50" x="126.660156"/>
    </g>
   </g>
   <g id="text_12">
    <!-- MMR -->
    <g transform="translate(648.601666 784.486797) scale(0.06 -0.06)">
     <defs>
      <path id="DejaVuSans-4d" d="M 628 4666 
L 1569 4666 
L 2759 1491 
L 3956 4666 
L 4897 4666 
L 4897 0 
L 4281 0 
L 4281 4097 
L 3078 897 
L 2444 897 
L 1241 4097 
L 1241 0 
L 628 0 
L 628 4666 
z
" transform="scale(0.015625)"/>
     </defs>
     <use xlink:href="#DejaVuSans-4d"/>
     <use xlink:href="#DejaVuSans-4d" x="86.279297"/>
     <use xlink:href="#DejaVuSans-52" x="172.558594"/>
    </g>
   </g>
   <g id="text_13">
    <!-- NPL -->
    <g transform="translate(501.936465 527.828516) scale(0.06 -0.06)">
     <use xlink:href="#DejaVuSans-4e"/>
     <use xlink:href="#DejaVuSans-50" x="74.804688"/>
     <use xlink:href="#DejaVuSans-4c" x="135.107422"/>
    </g>
   </g>
   <g id="text_14">
    <!-- DNK -->
    <g transform="translate(482.229052 315.238944) scale(0.06 -0.06)">
     <use xlink:href="#DejaVuSans-44"/>
     <use xlink:href="#DejaVuSans-4e" x="77.001953"/>
     <use xlink:href="#DejaVuSans-4b" x="151.806641"/>
    </g>
   </g>
   <g id="text_15">
    <!-- BEL -->
    <g transform="translate(445.212895 349.063569) scale(0.06 -0.06)">
     <use xlink:href="#DejaVuSans-42"/>
     <use xlink:href="#DejaVuSans-45" x="68.603516"/>
     <use xlink:href="#DejaVuSans-4c" x="131.787109"/>
    </g>
   </g>
   <g id="text_16">
    <!-- BGD -->
    <g transform="translate(608.25768 736.150097) scale(0.06 -0.06)">
     <defs>
      <path id="DejaVuSans-47" d="M 3809 666 
L 3809 1919 
L 2778 1919 
L 2778 2438 
L 4434 2438 
L 4434 434 
Q 4069 175 3628 42 
Q 3188 -91 2688 -91 
Q 1594 -91 976 548 
Q 359 1188 359 2328 
Q 359 3472 976 4111 
Q 1594 4750 2688 4750 
Q 3144 4750 3555 4637 
Q 3966 4525 4313 4306 
L 4313 3634 
Q 3963 3931 3569 4081 
Q 3175 4231 2741 4231 
Q 1884 4231 1454 3753 
Q 1025 3275 1025 2328 
Q 1025 1384 1454 906 
Q 1884 428 2741 428 
Q 3075 428 3337 486 
Q 3600 544 3809 666 
z
" transform="scale(0.015625)"/>
     </defs>
     <use xlink:href="#DejaVuSans-42"/>
     <use xlink:href="#DejaVuSans-47" x="66.853516"/>
     <use xlink:href="#DejaVuSans-44" x="144.34375"/>
    </g>
   </g>
   <g id="text_17">
    <!-- CZE -->
    <g transform="translate(505.329138 369.009249) scale(0.06 -0.06)">
     <use xlink:href="#DejaVuSans-43"/>
     <use xlink:href="#DejaVuSans-5a" x="69.824219"/>
     <use xlink:href="#DejaVuSans-45" x="138.330078"/>
    </g>
   </g>
   <g id="text_18">
    <!-- IRN -->
    <g transform="translate(481.557549 597.820021) scale(0.06 -0.06)">
     <use xlink:href="#DejaVuSans-49"/>
     <use xlink:href="#DejaVuSans-52" x="29.492188"/>
     <use xlink:href="#DejaVuSans-4e" x="98.974609"/>
    </g>
   </g>
   <g id="text_19">
    <!-- RUS -->
    <g transform="translate(597.747395 286.13404) scale(0.06 -0.06)">
     <use xlink:href="#DejaVuSans-52"/>
     <use xlink:href="#DejaVuSans-55" x="69.482422"/>
     <use xlink:href="#DejaVuSans-53" x="142.675781"/>
    </g>
   </g>
   <g id="text_20">
    <!-- MYS -->
    <g transform="translate(806.51386 930.282388) scale(0.06 -0.06)">
     <defs>
      <path id="DejaVuSans-59" d="M -13 4666 
L 666 4666 
L 1959 2747 
L 3244 4666 
L 3922 4666 
L 2272 2222 
L 2272 0 
L 1638 0 
L 1638 2222 
L -13 4666 
z
" transform="scale(0.015625)"/>
     </defs>
     <use xlink:href="#DejaVuSans-4d"/>
     <use xlink:href="#DejaVuSans-59" x="86.279297"/>
     <use xlink:href="#DejaVuSans-53" x="147.363281"/>
    </g>
   </g>
   <g id="text_21">
    <!-- POL -->
    <g transform="translate(527.485939 340.1135) scale(0.06 -0.06)">
     <defs>
      <path id="DejaVuSans-4f" d="M 2522 4238 
Q 1834 4238 1429 3725 
Q 1025 3213 1025 2328 
Q 1025 1447 1429 934 
Q 1834 422 2522 422 
Q 3209 422 3611 934 
Q 4013 1447 4013 2328 
Q 4013 3213 3611 3725 
Q 3209 4238 2522 4238 
z
M 2522 4750 
Q 3503 4750 4090 4092 
Q 4678 3434 4678 2328 
Q 4678 1225 4090 567 
Q 3503 -91 2522 -91 
Q 1538 -91 948 565 
Q 359 1222 359 2328 
Q 359 3434 948 4092 
Q 1538 4750 2522 4750 
z
" transform="scale(0.015625)"/>
     </defs>
     <use xlink:href="#DejaVuSans-50"/>
     <use xlink:href="#DejaVuSans-4f" x="60.302734"/>
     <use xlink:href="#DejaVuSans-4c" x="139.013672"/>
    </g>
   </g>
   <g id="text_22">
    <!-- IND -->
    <g transform="translate(469.203157 728.107939) scale(0.06 -0.06)">
     <use xlink:href="#DejaVuSans-49"/>
     <use xlink:href="#DejaVuSans-4e" x="29.492188"/>
     <use xlink:href="#DejaVuSans-44" x="104.296875"/>
    </g>
   </g>
   <g id="text_23">
    <!-- KHM -->
    <g transform="translate(746.497579 979.668777) scale(0.06 -0.06)">
     <use xlink:href="#DejaVuSans-4b"/>
     <use xlink:href="#DejaVuSans-48" x="65.576172"/>
     <use xlink:href="#DejaVuSans-4d" x="140.771484"/>
    </g>
   </g>
   <g id="text_24">
    <!-- IDN -->
    <g transform="translate(953.651432 1076.844363) scale(0.06 -0.06)">
     <use xlink:href="#DejaVuSans-49"/>
     <use xlink:href="#DejaVuSans-44" x="29.492188"/>
     <use xlink:href="#DejaVuSans-4e" x="106.494141"/>
    </g>
   </g>
   <g id="text_25">
    <!-- CHE -->
    <g transform="translate(460.262853 373.249213) scale(0.06 -0.06)">
     <use xlink:href="#DejaVuSans-43"/>
     <use xlink:href="#DejaVuSans-48" x="69.824219"/>
     <use xlink:href="#DejaVuSans-45" x="145.019531"/>
    </g>
   </g>
   <g id="text_26">
    <!-- TUR -->
    <g transform="translate(445.601572 584.421481) scale(0.06 -0.06)">
     <use xlink:href="#DejaVuSans-54"/>
     <use xlink:href="#DejaVuSans-55" x="61.083984"/>
     <use xlink:href="#DejaVuSans-52" x="134.277344"/>
    </g>
   </g>
   <g id="text_27">
    <!-- KAZ -->
    <g transform="translate(572.068324 368.456524) scale(0.06 -0.06)">
     <use xlink:href="#DejaVuSans-4b"/>
     <use xlink:href="#DejaVuSans-41" x="63.826172"/>
     <use xlink:href="#DejaVuSans-5a" x="132.234375"/>
    </g>
   </g>
   <g id="text_28">
    <!-- A:11.32 -->
    <g transform="translate(544.770262 730.473393) scale(0.04 -0.04)">
     <defs>
      <path id="DejaVuSans-3a" d="M 750 794 
L 1409 794 
L 1409 0 
L 750 0 
L 750 794 
z
M 750 3309 
L 1409 3309 
L 1409 2516 
L 750 2516 
L 750 3309 
z
" transform="scale(0.015625)"/>
      <path id="DejaVuSans-31" d="M 794 531 
L 1825 531 
L 1825 4091 
L 703 3866 
L 703 4441 
L 1819 4666 
L 2450 4666 
L 2450 531 
L 3481 531 
L 3481 0 
L 794 0 
L 794 531 
z
" transform="scale(0.015625)"/>
      <path id="DejaVuSans-2e" d="M 684 794 
L 1344 794 
L 1344 0 
L 684 0 
L 684 794 
z
" transform="scale(0.015625)"/>
      <path id="DejaVuSans-33" d="M 2597 2516 
Q 3050 2419 3304 2112 
Q 3559 1806 3559 1356 
Q 3559 666 3084 287 
Q 2609 -91 1734 -91 
Q 1441 -91 1130 -33 
Q 819 25 488 141 
L 488 750 
Q 750 597 1062 519 
Q 1375 441 1716 441 
Q 2309 441 2620 675 
Q 2931 909 2931 1356 
Q 2931 1769 2642 2001 
Q 2353 2234 1838 2234 
L 1294 2234 
L 1294 2753 
L 1863 2753 
Q 2328 2753 2575 2939 
Q 2822 3125 2822 3475 
Q 2822 3834 2567 4026 
Q 2313 4219 1838 4219 
Q 1578 4219 1281 4162 
Q 984 4106 628 3988 
L 628 4550 
Q 988 4650 1302 4700 
Q 1616 4750 1894 4750 
Q 2613 4750 3031 4423 
Q 3450 4097 3450 3541 
Q 3450 3153 3228 2886 
Q 3006 2619 2597 2516 
z
" transform="scale(0.015625)"/>
      <path id="DejaVuSans-32" d="M 1228 531 
L 3431 531 
L 3431 0 
L 469 0 
L 469 531 
Q 828 903 1448 1529 
Q 2069 2156 2228 2338 
Q 2531 2678 2651 2914 
Q 2772 3150 2772 3378 
Q 2772 3750 2511 3984 
Q 2250 4219 1831 4219 
Q 1534 4219 1204 4116 
Q 875 4013 500 3803 
L 500 4441 
Q 881 4594 1212 4672 
Q 1544 4750 1819 4750 
Q 2544 4750 2975 4387 
Q 3406 4025 3406 3419 
Q 3406 3131 3298 2873 
Q 3191 2616 2906 2266 
Q 2828 2175 2409 1742 
Q 1991 1309 1228 531 
z
" transform="scale(0.015625)"/>
     </defs>
     <use xlink:href="#DejaVuSans-41"/>
     <use xlink:href="#DejaVuSans-3a" x="66.658203"/>
     <use xlink:href="#DejaVuSans-31" x="100.349609"/>
     <use xlink:href="#DejaVuSans-31" x="163.972656"/>
     <use xlink:href="#DejaVuSans-2e" x="227.595703"/>
     <use xlink:href="#DejaVuSans-33" x="259.382812"/>
     <use xlink:href="#DejaVuSans-32" x="323.005859"/>
    </g>
   </g>
   <g id="text_29">
    <!-- A:19.82 -->
    <g transform="translate(635.380532 758.662822) scale(0.04 -0.04)">
     <defs>
      <path id="DejaVuSans-39" d="M 703 97 
L 703 672 
Q 941 559 1184 500 
Q 1428 441 1663 441 
Q 2288 441 2617 861 
Q 2947 1281 2994 2138 
Q 2813 1869 2534 1725 
Q 2256 1581 1919 1581 
Q 1219 1581 811 2004 
Q 403 2428 403 3163 
Q 403 3881 828 4315 
Q 1253 4750 1959 4750 
Q 2769 4750 3195 4129 
Q 3622 3509 3622 2328 
Q 3622 1225 3098 567 
Q 2575 -91 1691 -91 
Q 1453 -91 1209 -44 
Q 966 3 703 97 
z
M 1959 2075 
Q 2384 2075 2632 2365 
Q 2881 2656 2881 3163 
Q 2881 3666 2632 3958 
Q 2384 4250 1959 4250 
Q 1534 4250 1286 3958 
Q 1038 3666 1038 3163 
Q 1038 2656 1286 2365 
Q 1534 2075 1959 2075 
z
" transform="scale(0.015625)"/>
      <path id="DejaVuSans-38" d="M 2034 2216 
Q 1584 2216 1326 1975 
Q 1069 1734 1069 1313 
Q 1069 891 1326 650 
Q 1584 409 2034 409 
Q 2484 409 2743 651 
Q 3003 894 3003 1313 
Q 3003 1734 2745 1975 
Q 2488 2216 2034 2216 
z
M 1403 2484 
Q 997 2584 770 2862 
Q 544 3141 544 3541 
Q 544 4100 942 4425 
Q 1341 4750 2034 4750 
Q 2731 4750 3128 4425 
Q 3525 4100 3525 3541 
Q 3525 3141 3298 2862 
Q 3072 2584 2669 2484 
Q 3125 2378 3379 2068 
Q 3634 1759 3634 1313 
Q 3634 634 3220 271 
Q 2806 -91 2034 -91 
Q 1263 -91 848 271 
Q 434 634 434 1313 
Q 434 1759 690 2068 
Q 947 2378 1403 2484 
z
M 1172 3481 
Q 1172 3119 1398 2916 
Q 1625 2713 2034 2713 
Q 2441 2713 2670 2916 
Q 2900 3119 2900 3481 
Q 2900 3844 2670 4047 
Q 2441 4250 2034 4250 
Q 1625 4250 1398 4047 
Q 1172 3844 1172 3481 
z
" transform="scale(0.015625)"/>
     </defs>
     <use xlink:href="#DejaVuSans-41"/>
     <use xlink:href="#DejaVuSans-3a" x="66.658203"/>
     <use xlink:href="#DejaVuSans-31" x="100.349609"/>
     <use xlink:href="#DejaVuSans-39" x="163.972656"/>
     <use xlink:href="#DejaVuSans-2e" x="227.595703"/>
     <use xlink:href="#DejaVuSans-38" x="259.382812"/>
     <use xlink:href="#DejaVuSans-32" x="323.005859"/>
    </g>
   </g>
   <g id="text_30">
    <!-- D:17.48 -->
    <g transform="translate(448.956913 354.254187) scale(0.04 -0.04)">
     <defs>
      <path id="DejaVuSans-37" d="M 525 4666 
L 3525 4666 
L 3525 4397 
L 1831 0 
L 1172 0 
L 2766 4134 
L 525 4134 
L 525 4666 
z
" transform="scale(0.015625)"/>
      <path id="DejaVuSans-34" d="M 2419 4116 
L 825 1625 
L 2419 1625 
L 2419 4116 
z
M 2253 4666 
L 3047 4666 
L 3047 1625 
L 3713 1625 
L 3713 1100 
L 3047 1100 
L 3047 0 
L 2419 0 
L 2419 1100 
L 313 1100 
L 313 1709 
L 2253 4666 
z
" transform="scale(0.015625)"/>
     </defs>
     <use xlink:href="#DejaVuSans-44"/>
     <use xlink:href="#DejaVuSans-3a" x="77.001953"/>
     <use xlink:href="#DejaVuSans-31" x="110.693359"/>
     <use xlink:href="#DejaVuSans-37" x="174.316406"/>
     <use xlink:href="#DejaVuSans-2e" x="237.939453"/>
     <use xlink:href="#DejaVuSans-34" x="269.726562"/>
     <use xlink:href="#DejaVuSans-38" x="333.349609"/>
    </g>
    <!-- A:7.33 -->
    <g transform="translate(448.956913 358.733312) scale(0.04 -0.04)">
     <use xlink:href="#DejaVuSans-41"/>
     <use xlink:href="#DejaVuSans-3a" x="66.658203"/>
     <use xlink:href="#DejaVuSans-37" x="100.349609"/>
     <use xlink:href="#DejaVuSans-2e" x="163.972656"/>
     <use xlink:href="#DejaVuSans-33" x="195.759766"/>
     <use xlink:href="#DejaVuSans-33" x="259.382812"/>
    </g>
   </g>
   <g id="text_31">
    <!-- A:7.33 -->
    <g transform="translate(448.956913 358.733312) scale(0.04 -0.04)">
     <use xlink:href="#DejaVuSans-41"/>
     <use xlink:href="#DejaVuSans-3a" x="66.658203"/>
     <use xlink:href="#DejaVuSans-37" x="100.349609"/>
     <use xlink:href="#DejaVuSans-2e" x="163.972656"/>
     <use xlink:href="#DejaVuSans-33" x="195.759766"/>
     <use xlink:href="#DejaVuSans-33" x="259.382812"/>
    </g>
   </g>
   <g id="text_32">
    <!-- D:0.73 -->
    <g transform="translate(466.708456 341.473331) scale(0.04 -0.04)">
     <defs>
      <path id="DejaVuSans-30" d="M 2034 4250 
Q 1547 4250 1301 3770 
Q 1056 3291 1056 2328 
Q 1056 1369 1301 889 
Q 1547 409 2034 409 
Q 2525 409 2770 889 
Q 3016 1369 3016 2328 
Q 3016 3291 2770 3770 
Q 2525 4250 2034 4250 
z
M 2034 4750 
Q 2819 4750 3233 4129 
Q 3647 3509 3647 2328 
Q 3647 1150 3233 529 
Q 2819 -91 2034 -91 
Q 1250 -91 836 529 
Q 422 1150 422 2328 
Q 422 3509 836 4129 
Q 1250 4750 2034 4750 
z
" transform="scale(0.015625)"/>
     </defs>
     <use xlink:href="#DejaVuSans-44"/>
     <use xlink:href="#DejaVuSans-3a" x="77.001953"/>
     <use xlink:href="#DejaVuSans-30" x="110.693359"/>
     <use xlink:href="#DejaVuSans-2e" x="174.316406"/>
     <use xlink:href="#DejaVuSans-37" x="206.103516"/>
     <use xlink:href="#DejaVuSans-33" x="269.726562"/>
    </g>
    <!-- A:1.64 -->
    <g transform="translate(466.708456 345.952456) scale(0.04 -0.04)">
     <defs>
      <path id="DejaVuSans-36" d="M 2113 2584 
Q 1688 2584 1439 2293 
Q 1191 2003 1191 1497 
Q 1191 994 1439 701 
Q 1688 409 2113 409 
Q 2538 409 2786 701 
Q 3034 994 3034 1497 
Q 3034 2003 2786 2293 
Q 2538 2584 2113 2584 
z
M 3366 4563 
L 3366 3988 
Q 3128 4100 2886 4159 
Q 2644 4219 2406 4219 
Q 1781 4219 1451 3797 
Q 1122 3375 1075 2522 
Q 1259 2794 1537 2939 
Q 1816 3084 2150 3084 
Q 2853 3084 3261 2657 
Q 3669 2231 3669 1497 
Q 3669 778 3244 343 
Q 2819 -91 2113 -91 
Q 1303 -91 875 529 
Q 447 1150 447 2328 
Q 447 3434 972 4092 
Q 1497 4750 2381 4750 
Q 2619 4750 2861 4703 
Q 3103 4656 3366 4563 
z
" transform="scale(0.015625)"/>
     </defs>
     <use xlink:href="#DejaVuSans-41"/>
     <use xlink:href="#DejaVuSans-3a" x="66.658203"/>
     <use xlink:href="#DejaVuSans-31" x="100.349609"/>
     <use xlink:href="#DejaVuSans-2e" x="163.972656"/>
     <use xlink:href="#DejaVuSans-36" x="195.759766"/>
     <use xlink:href="#DejaVuSans-34" x="259.382812"/>
    </g>
   </g>
   <g id="text_33">
    <!-- A:1.64 -->
    <g transform="translate(466.708456 345.952456) scale(0.04 -0.04)">
     <use xlink:href="#DejaVuSans-41"/>
     <use xlink:href="#DejaVuSans-3a" x="66.658203"/>
     <use xlink:href="#DejaVuSans-31" x="100.349609"/>
     <use xlink:href="#DejaVuSans-2e" x="163.972656"/>
     <use xlink:href="#DejaVuSans-36" x="195.759766"/>
     <use xlink:href="#DejaVuSans-34" x="259.382812"/>
    </g>
   </g>
   <g id="text_34">
    <!-- D:0.08 -->
    <g transform="translate(450.009939 334.984038) scale(0.04 -0.04)">
     <use xlink:href="#DejaVuSans-44"/>
     <use xlink:href="#DejaVuSans-3a" x="77.001953"/>
     <use xlink:href="#DejaVuSans-30" x="110.693359"/>
     <use xlink:href="#DejaVuSans-2e" x="174.316406"/>
     <use xlink:href="#DejaVuSans-30" x="206.103516"/>
     <use xlink:href="#DejaVuSans-38" x="269.726562"/>
    </g>
    <!-- A:29.22 -->
    <g transform="translate(450.009939 339.463163) scale(0.04 -0.04)">
     <use xlink:href="#DejaVuSans-41"/>
     <use xlink:href="#DejaVuSans-3a" x="66.658203"/>
     <use xlink:href="#DejaVuSans-32" x="100.349609"/>
     <use xlink:href="#DejaVuSans-39" x="163.972656"/>
     <use xlink:href="#DejaVuSans-2e" x="227.595703"/>
     <use xlink:href="#DejaVuSans-32" x="259.382812"/>
     <use xlink:href="#DejaVuSans-32" x="323.005859"/>
    </g>
   </g>
   <g id="text_35">
    <!-- A:29.22 -->
    <g transform="translate(450.009939 339.463163) scale(0.04 -0.04)">
     <use xlink:href="#DejaVuSans-41"/>
     <use xlink:href="#DejaVuSans-3a" x="66.658203"/>
     <use xlink:href="#DejaVuSans-32" x="100.349609"/>
     <use xlink:href="#DejaVuSans-39" x="163.972656"/>
     <use xlink:href="#DejaVuSans-2e" x="227.595703"/>
     <use xlink:href="#DejaVuSans-32" x="259.382812"/>
     <use xlink:href="#DejaVuSans-32" x="323.005859"/>
    </g>
   </g>
   <g id="text_36">
    <!-- A:7.77 -->
    <g transform="translate(456.792439 370.826134) scale(0.04 -0.04)">
     <use xlink:href="#DejaVuSans-41"/>
     <use xlink:href="#DejaVuSans-3a" x="66.658203"/>
     <use xlink:href="#DejaVuSans-37" x="100.349609"/>
     <use xlink:href="#DejaVuSans-2e" x="163.972656"/>
     <use xlink:href="#DejaVuSans-37" x="195.759766"/>
     <use xlink:href="#DejaVuSans-37" x="259.382812"/>
    </g>
   </g>
   <g id="text_37">
    <!-- A:9.24 -->
    <g transform="translate(474.543982 358.045278) scale(0.04 -0.04)">
     <use xlink:href="#DejaVuSans-41"/>
     <use xlink:href="#DejaVuSans-3a" x="66.658203"/>
     <use xlink:href="#DejaVuSans-39" x="100.349609"/>
     <use xlink:href="#DejaVuSans-2e" x="163.972656"/>
     <use xlink:href="#DejaVuSans-32" x="195.759766"/>
     <use xlink:href="#DejaVuSans-34" x="259.382812"/>
    </g>
   </g>
   <g id="text_38">
    <!-- A:0.01 -->
    <g transform="translate(471.790932 376.217122) scale(0.04 -0.04)">
     <use xlink:href="#DejaVuSans-41"/>
     <use xlink:href="#DejaVuSans-3a" x="66.658203"/>
     <use xlink:href="#DejaVuSans-30" x="100.349609"/>
     <use xlink:href="#DejaVuSans-2e" x="163.972656"/>
     <use xlink:href="#DejaVuSans-30" x="195.759766"/>
     <use xlink:href="#DejaVuSans-31" x="259.382812"/>
    </g>
   </g>
   <g id="text_39">
    <!-- D:5.71 -->
    <g transform="translate(655.946285 622.668612) scale(0.04 -0.04)">
     <defs>
      <path id="DejaVuSans-35" d="M 691 4666 
L 3169 4666 
L 3169 4134 
L 1269 4134 
L 1269 2991 
Q 1406 3038 1543 3061 
Q 1681 3084 1819 3084 
Q 2600 3084 3056 2656 
Q 3513 2228 3513 1497 
Q 3513 744 3044 326 
Q 2575 -91 1722 -91 
Q 1428 -91 1123 -41 
Q 819 9 494 109 
L 494 744 
Q 775 591 1075 516 
Q 1375 441 1709 441 
Q 2250 441 2565 725 
Q 2881 1009 2881 1497 
Q 2881 1984 2565 2268 
Q 2250 2553 1709 2553 
Q 1456 2553 1204 2497 
Q 953 2441 691 2322 
L 691 4666 
z
" transform="scale(0.015625)"/>
     </defs>
     <use xlink:href="#DejaVuSans-44"/>
     <use xlink:href="#DejaVuSans-3a" x="77.001953"/>
     <use xlink:href="#DejaVuSans-35" x="110.693359"/>
     <use xlink:href="#DejaVuSans-2e" x="174.316406"/>
     <use xlink:href="#DejaVuSans-37" x="206.103516"/>
     <use xlink:href="#DejaVuSans-31" x="269.726562"/>
    </g>
    <!-- A:0.30 -->
    <g transform="translate(655.946285 627.147737) scale(0.04 -0.04)">
     <use xlink:href="#DejaVuSans-41"/>
     <use xlink:href="#DejaVuSans-3a" x="66.658203"/>
     <use xlink:href="#DejaVuSans-30" x="100.349609"/>
     <use xlink:href="#DejaVuSans-2e" x="163.972656"/>
     <use xlink:href="#DejaVuSans-33" x="195.759766"/>
     <use xlink:href="#DejaVuSans-30" x="259.382812"/>
    </g>
   </g>
   <g id="text_40">
    <!-- A:0.30 -->
    <g transform="translate(655.946285 627.147737) scale(0.04 -0.04)">
     <use xlink:href="#DejaVuSans-41"/>
     <use xlink:href="#DejaVuSans-3a" x="66.658203"/>
     <use xlink:href="#DejaVuSans-30" x="100.349609"/>
     <use xlink:href="#DejaVuSans-2e" x="163.972656"/>
     <use xlink:href="#DejaVuSans-33" x="195.759766"/>
     <use xlink:href="#DejaVuSans-30" x="259.382812"/>
    </g>
   </g>
   <g id="text_41">
    <!-- D:0.98 -->
    <g transform="translate(707.670197 442.842905) scale(0.04 -0.04)">
     <use xlink:href="#DejaVuSans-44"/>
     <use xlink:href="#DejaVuSans-3a" x="77.001953"/>
     <use xlink:href="#DejaVuSans-30" x="110.693359"/>
     <use xlink:href="#DejaVuSans-2e" x="174.316406"/>
     <use xlink:href="#DejaVuSans-39" x="206.103516"/>
     <use xlink:href="#DejaVuSans-38" x="269.726562"/>
    </g>
    <!-- A:6.94 -->
    <g transform="translate(707.670197 447.32203) scale(0.04 -0.04)">
     <use xlink:href="#DejaVuSans-41"/>
     <use xlink:href="#DejaVuSans-3a" x="66.658203"/>
     <use xlink:href="#DejaVuSans-36" x="100.349609"/>
     <use xlink:href="#DejaVuSans-2e" x="163.972656"/>
     <use xlink:href="#DejaVuSans-39" x="195.759766"/>
     <use xlink:href="#DejaVuSans-34" x="259.382812"/>
    </g>
   </g>
   <g id="text_42">
    <!-- A:6.94 -->
    <g transform="translate(707.670197 447.32203) scale(0.04 -0.04)">
     <use xlink:href="#DejaVuSans-41"/>
     <use xlink:href="#DejaVuSans-3a" x="66.658203"/>
     <use xlink:href="#DejaVuSans-36" x="100.349609"/>
     <use xlink:href="#DejaVuSans-2e" x="163.972656"/>
     <use xlink:href="#DejaVuSans-39" x="195.759766"/>
     <use xlink:href="#DejaVuSans-34" x="259.382812"/>
    </g>
   </g>
   <g id="text_43">
    <!-- A:3.96 -->
    <g transform="translate(746.556556 655.337166) scale(0.04 -0.04)">
     <use xlink:href="#DejaVuSans-41"/>
     <use xlink:href="#DejaVuSans-3a" x="66.658203"/>
     <use xlink:href="#DejaVuSans-33" x="100.349609"/>
     <use xlink:href="#DejaVuSans-2e" x="163.972656"/>
     <use xlink:href="#DejaVuSans-39" x="195.759766"/>
     <use xlink:href="#DejaVuSans-36" x="259.382812"/>
    </g>
   </g>
   <g id="text_44">
    <!-- A:10.40 -->
    <g transform="translate(672.455674 527.008025) scale(0.04 -0.04)">
     <use xlink:href="#DejaVuSans-41"/>
     <use xlink:href="#DejaVuSans-3a" x="66.658203"/>
     <use xlink:href="#DejaVuSans-31" x="100.349609"/>
     <use xlink:href="#DejaVuSans-30" x="163.972656"/>
     <use xlink:href="#DejaVuSans-2e" x="227.595703"/>
     <use xlink:href="#DejaVuSans-34" x="259.382812"/>
     <use xlink:href="#DejaVuSans-30" x="323.005859"/>
    </g>
   </g>
   <g id="text_45">
    <!-- D:10.09 -->
    <g transform="translate(677.43648 559.333875) scale(0.04 -0.04)">
     <use xlink:href="#DejaVuSans-44"/>
     <use xlink:href="#DejaVuSans-3a" x="77.001953"/>
     <use xlink:href="#DejaVuSans-31" x="110.693359"/>
     <use xlink:href="#DejaVuSans-30" x="174.316406"/>
     <use xlink:href="#DejaVuSans-2e" x="237.939453"/>
     <use xlink:href="#DejaVuSans-30" x="269.726562"/>
     <use xlink:href="#DejaVuSans-39" x="333.349609"/>
    </g>
    <!-- A:2.53 -->
    <g transform="translate(677.43648 563.813) scale(0.04 -0.04)">
     <use xlink:href="#DejaVuSans-41"/>
     <use xlink:href="#DejaVuSans-3a" x="66.658203"/>
     <use xlink:href="#DejaVuSans-32" x="100.349609"/>
     <use xlink:href="#DejaVuSans-2e" x="163.972656"/>
     <use xlink:href="#DejaVuSans-35" x="195.759766"/>
     <use xlink:href="#DejaVuSans-33" x="259.382812"/>
    </g>
   </g>
   <g id="text_46">
    <!-- A:2.53 -->
    <g transform="translate(677.43648 563.813) scale(0.04 -0.04)">
     <use xlink:href="#DejaVuSans-41"/>
     <use xlink:href="#DejaVuSans-3a" x="66.658203"/>
     <use xlink:href="#DejaVuSans-32" x="100.349609"/>
     <use xlink:href="#DejaVuSans-2e" x="163.972656"/>
     <use xlink:href="#DejaVuSans-35" x="195.759766"/>
     <use xlink:href="#DejaVuSans-33" x="259.382812"/>
    </g>
   </g>
   <g id="text_47">
    <!-- A:18.05 -->
    <g transform="translate(720.591061 406.160788) scale(0.04 -0.04)">
     <use xlink:href="#DejaVuSans-41"/>
     <use xlink:href="#DejaVuSans-3a" x="66.658203"/>
     <use xlink:href="#DejaVuSans-31" x="100.349609"/>
     <use xlink:href="#DejaVuSans-38" x="163.972656"/>
     <use xlink:href="#DejaVuSans-2e" x="227.595703"/>
     <use xlink:href="#DejaVuSans-30" x="259.382812"/>
     <use xlink:href="#DejaVuSans-35" x="323.005859"/>
    </g>
   </g>
   <g id="text_48">
    <!-- D:0.09 -->
    <g transform="translate(496.976577 351.446171) scale(0.04 -0.04)">
     <use xlink:href="#DejaVuSans-44"/>
     <use xlink:href="#DejaVuSans-3a" x="77.001953"/>
     <use xlink:href="#DejaVuSans-30" x="110.693359"/>
     <use xlink:href="#DejaVuSans-2e" x="174.316406"/>
     <use xlink:href="#DejaVuSans-30" x="206.103516"/>
     <use xlink:href="#DejaVuSans-39" x="269.726562"/>
    </g>
    <!-- A:15.54 -->
    <g transform="translate(496.976577 355.925296) scale(0.04 -0.04)">
     <use xlink:href="#DejaVuSans-41"/>
     <use xlink:href="#DejaVuSans-3a" x="66.658203"/>
     <use xlink:href="#DejaVuSans-31" x="100.349609"/>
     <use xlink:href="#DejaVuSans-35" x="163.972656"/>
     <use xlink:href="#DejaVuSans-2e" x="227.595703"/>
     <use xlink:href="#DejaVuSans-35" x="259.382812"/>
     <use xlink:href="#DejaVuSans-34" x="323.005859"/>
    </g>
   </g>
   <g id="text_49">
    <!-- A:15.54 -->
    <g transform="translate(496.976577 355.925296) scale(0.04 -0.04)">
     <use xlink:href="#DejaVuSans-41"/>
     <use xlink:href="#DejaVuSans-3a" x="66.658203"/>
     <use xlink:href="#DejaVuSans-31" x="100.349609"/>
     <use xlink:href="#DejaVuSans-35" x="163.972656"/>
     <use xlink:href="#DejaVuSans-2e" x="227.595703"/>
     <use xlink:href="#DejaVuSans-35" x="259.382812"/>
     <use xlink:href="#DejaVuSans-34" x="323.005859"/>
    </g>
   </g>
   <g id="text_50">
    <!-- A:14.84 -->
    <g transform="translate(522.351289 352.905749) scale(0.04 -0.04)">
     <use xlink:href="#DejaVuSans-41"/>
     <use xlink:href="#DejaVuSans-3a" x="66.658203"/>
     <use xlink:href="#DejaVuSans-31" x="100.349609"/>
     <use xlink:href="#DejaVuSans-34" x="163.972656"/>
     <use xlink:href="#DejaVuSans-2e" x="227.595703"/>
     <use xlink:href="#DejaVuSans-38" x="259.382812"/>
     <use xlink:href="#DejaVuSans-34" x="323.005859"/>
    </g>
   </g>
   <g id="text_51">
    <!-- A:0.01 -->
    <g transform="translate(485.664659 329.040143) scale(0.04 -0.04)">
     <use xlink:href="#DejaVuSans-41"/>
     <use xlink:href="#DejaVuSans-3a" x="66.658203"/>
     <use xlink:href="#DejaVuSans-30" x="100.349609"/>
     <use xlink:href="#DejaVuSans-2e" x="163.972656"/>
     <use xlink:href="#DejaVuSans-30" x="195.759766"/>
     <use xlink:href="#DejaVuSans-31" x="259.382812"/>
    </g>
   </g>
   <g id="text_52">
    <!-- D:10.75 -->
    <g transform="translate(464.827005 352.798699) scale(0.04 -0.04)">
     <use xlink:href="#DejaVuSans-44"/>
     <use xlink:href="#DejaVuSans-3a" x="77.001953"/>
     <use xlink:href="#DejaVuSans-31" x="110.693359"/>
     <use xlink:href="#DejaVuSans-30" x="174.316406"/>
     <use xlink:href="#DejaVuSans-2e" x="237.939453"/>
     <use xlink:href="#DejaVuSans-37" x="269.726562"/>
     <use xlink:href="#DejaVuSans-35" x="333.349609"/>
    </g>
    <!-- A:0.12 -->
    <g transform="translate(464.827005 357.277824) scale(0.04 -0.04)">
     <use xlink:href="#DejaVuSans-41"/>
     <use xlink:href="#DejaVuSans-3a" x="66.658203"/>
     <use xlink:href="#DejaVuSans-30" x="100.349609"/>
     <use xlink:href="#DejaVuSans-2e" x="163.972656"/>
     <use xlink:href="#DejaVuSans-31" x="195.759766"/>
     <use xlink:href="#DejaVuSans-32" x="259.382812"/>
    </g>
   </g>
   <g id="text_53">
    <!-- A:0.12 -->
    <g transform="translate(464.827005 357.277824) scale(0.04 -0.04)">
     <use xlink:href="#DejaVuSans-41"/>
     <use xlink:href="#DejaVuSans-3a" x="66.658203"/>
     <use xlink:href="#DejaVuSans-30" x="100.349609"/>
     <use xlink:href="#DejaVuSans-2e" x="163.972656"/>
     <use xlink:href="#DejaVuSans-31" x="195.759766"/>
     <use xlink:href="#DejaVuSans-32" x="259.382812"/>
    </g>
   </g>
   <g id="text_54">
    <!-- A:2.15 -->
    <g transform="translate(465.880031 338.007675) scale(0.04 -0.04)">
     <use xlink:href="#DejaVuSans-41"/>
     <use xlink:href="#DejaVuSans-3a" x="66.658203"/>
     <use xlink:href="#DejaVuSans-32" x="100.349609"/>
     <use xlink:href="#DejaVuSans-2e" x="163.972656"/>
     <use xlink:href="#DejaVuSans-31" x="195.759766"/>
     <use xlink:href="#DejaVuSans-35" x="259.382812"/>
    </g>
   </g>
   <g id="text_55">
    <!-- A:0.88 -->
    <g transform="translate(507.953259 341.477421) scale(0.04 -0.04)">
     <use xlink:href="#DejaVuSans-41"/>
     <use xlink:href="#DejaVuSans-3a" x="66.658203"/>
     <use xlink:href="#DejaVuSans-30" x="100.349609"/>
     <use xlink:href="#DejaVuSans-2e" x="163.972656"/>
     <use xlink:href="#DejaVuSans-38" x="195.759766"/>
     <use xlink:href="#DejaVuSans-38" x="259.382812"/>
    </g>
   </g>
   <g id="text_56">
    <!-- A:0.00 -->
    <g transform="translate(437.856741 379.279696) scale(0.04 -0.04)">
     <use xlink:href="#DejaVuSans-41"/>
     <use xlink:href="#DejaVuSans-3a" x="66.658203"/>
     <use xlink:href="#DejaVuSans-30" x="100.349609"/>
     <use xlink:href="#DejaVuSans-2e" x="163.972656"/>
     <use xlink:href="#DejaVuSans-30" x="195.759766"/>
     <use xlink:href="#DejaVuSans-30" x="259.382812"/>
    </g>
   </g>
   <g id="text_57">
    <!-- D:3.77 -->
    <g transform="translate(579.052498 255.629351) scale(0.04 -0.04)">
     <use xlink:href="#DejaVuSans-44"/>
     <use xlink:href="#DejaVuSans-3a" x="77.001953"/>
     <use xlink:href="#DejaVuSans-33" x="110.693359"/>
     <use xlink:href="#DejaVuSans-2e" x="174.316406"/>
     <use xlink:href="#DejaVuSans-37" x="206.103516"/>
     <use xlink:href="#DejaVuSans-37" x="269.726562"/>
    </g>
    <!-- A:22.95 -->
    <g transform="translate(579.052498 260.108476) scale(0.04 -0.04)">
     <use xlink:href="#DejaVuSans-41"/>
     <use xlink:href="#DejaVuSans-3a" x="66.658203"/>
     <use xlink:href="#DejaVuSans-32" x="100.349609"/>
     <use xlink:href="#DejaVuSans-32" x="163.972656"/>
     <use xlink:href="#DejaVuSans-2e" x="227.595703"/>
     <use xlink:href="#DejaVuSans-39" x="259.382812"/>
     <use xlink:href="#DejaVuSans-35" x="323.005859"/>
    </g>
   </g>
   <g id="text_58">
    <!-- A:22.95 -->
    <g transform="translate(579.052498 260.108476) scale(0.04 -0.04)">
     <use xlink:href="#DejaVuSans-41"/>
     <use xlink:href="#DejaVuSans-3a" x="66.658203"/>
     <use xlink:href="#DejaVuSans-32" x="100.349609"/>
     <use xlink:href="#DejaVuSans-32" x="163.972656"/>
     <use xlink:href="#DejaVuSans-2e" x="227.595703"/>
     <use xlink:href="#DejaVuSans-39" x="259.382812"/>
     <use xlink:href="#DejaVuSans-35" x="323.005859"/>
    </g>
   </g>
   <g id="text_59">
    <!-- A:0.38 -->
    <g transform="translate(546.349603 237.258507) scale(0.04 -0.04)">
     <use xlink:href="#DejaVuSans-41"/>
     <use xlink:href="#DejaVuSans-3a" x="66.658203"/>
     <use xlink:href="#DejaVuSans-30" x="100.349609"/>
     <use xlink:href="#DejaVuSans-2e" x="163.972656"/>
     <use xlink:href="#DejaVuSans-33" x="195.759766"/>
     <use xlink:href="#DejaVuSans-38" x="259.382812"/>
    </g>
   </g>
   <g id="text_60">
    <!-- D:45.12 -->
    <g transform="translate(462.073956 370.970544) scale(0.04 -0.04)">
     <use xlink:href="#DejaVuSans-44"/>
     <use xlink:href="#DejaVuSans-3a" x="77.001953"/>
     <use xlink:href="#DejaVuSans-34" x="110.693359"/>
     <use xlink:href="#DejaVuSans-35" x="174.316406"/>
     <use xlink:href="#DejaVuSans-2e" x="237.939453"/>
     <use xlink:href="#DejaVuSans-31" x="269.726562"/>
     <use xlink:href="#DejaVuSans-32" x="333.349609"/>
    </g>
    <!-- A:1.81 -->
    <g transform="translate(462.073956 375.449669) scale(0.04 -0.04)">
     <use xlink:href="#DejaVuSans-41"/>
     <use xlink:href="#DejaVuSans-3a" x="66.658203"/>
     <use xlink:href="#DejaVuSans-31" x="100.349609"/>
     <use xlink:href="#DejaVuSans-2e" x="163.972656"/>
     <use xlink:href="#DejaVuSans-38" x="195.759766"/>
     <use xlink:href="#DejaVuSans-31" x="259.382812"/>
    </g>
   </g>
   <g id="text_61">
    <!-- A:1.81 -->
    <g transform="translate(462.073956 375.449669) scale(0.04 -0.04)">
     <use xlink:href="#DejaVuSans-41"/>
     <use xlink:href="#DejaVuSans-3a" x="66.658203"/>
     <use xlink:href="#DejaVuSans-31" x="100.349609"/>
     <use xlink:href="#DejaVuSans-2e" x="163.972656"/>
     <use xlink:href="#DejaVuSans-38" x="195.759766"/>
     <use xlink:href="#DejaVuSans-31" x="259.382812"/>
    </g>
   </g>
   <g id="text_62">
    <!-- A:0.03 -->
    <g transform="translate(885.96499 1001.907751) scale(0.04 -0.04)">
     <use xlink:href="#DejaVuSans-41"/>
     <use xlink:href="#DejaVuSans-3a" x="66.658203"/>
     <use xlink:href="#DejaVuSans-30" x="100.349609"/>
     <use xlink:href="#DejaVuSans-2e" x="163.972656"/>
     <use xlink:href="#DejaVuSans-30" x="195.759766"/>
     <use xlink:href="#DejaVuSans-33" x="259.382812"/>
    </g>
   </g>
   <g id="text_63">
    <!-- D:26.53 -->
    <g transform="translate(565.252802 750.162618) scale(0.04 -0.04)">
     <use xlink:href="#DejaVuSans-44"/>
     <use xlink:href="#DejaVuSans-3a" x="77.001953"/>
     <use xlink:href="#DejaVuSans-32" x="110.693359"/>
     <use xlink:href="#DejaVuSans-36" x="174.316406"/>
     <use xlink:href="#DejaVuSans-2e" x="237.939453"/>
     <use xlink:href="#DejaVuSans-35" x="269.726562"/>
     <use xlink:href="#DejaVuSans-33" x="333.349609"/>
    </g>
    <!-- A:12.62 -->
    <g transform="translate(565.252802 754.641743) scale(0.04 -0.04)">
     <use xlink:href="#DejaVuSans-41"/>
     <use xlink:href="#DejaVuSans-3a" x="66.658203"/>
     <use xlink:href="#DejaVuSans-31" x="100.349609"/>
     <use xlink:href="#DejaVuSans-32" x="163.972656"/>
     <use xlink:href="#DejaVuSans-2e" x="227.595703"/>
     <use xlink:href="#DejaVuSans-36" x="259.382812"/>
     <use xlink:href="#DejaVuSans-32" x="323.005859"/>
    </g>
   </g>
   <g id="text_64">
    <!-- A:12.62 -->
    <g transform="translate(565.252802 754.641743) scale(0.04 -0.04)">
     <use xlink:href="#DejaVuSans-41"/>
     <use xlink:href="#DejaVuSans-3a" x="66.658203"/>
     <use xlink:href="#DejaVuSans-31" x="100.349609"/>
     <use xlink:href="#DejaVuSans-32" x="163.972656"/>
     <use xlink:href="#DejaVuSans-2e" x="227.595703"/>
     <use xlink:href="#DejaVuSans-36" x="259.382812"/>
     <use xlink:href="#DejaVuSans-32" x="323.005859"/>
    </g>
   </g>
   <g id="text_65">
    <!-- D:21.68 -->
    <g transform="translate(491.15192 621.833477) scale(0.04 -0.04)">
     <use xlink:href="#DejaVuSans-44"/>
     <use xlink:href="#DejaVuSans-3a" x="77.001953"/>
     <use xlink:href="#DejaVuSans-32" x="110.693359"/>
     <use xlink:href="#DejaVuSans-31" x="174.316406"/>
     <use xlink:href="#DejaVuSans-2e" x="237.939453"/>
     <use xlink:href="#DejaVuSans-36" x="269.726562"/>
     <use xlink:href="#DejaVuSans-38" x="333.349609"/>
    </g>
    <!-- A:17.68 -->
    <g transform="translate(491.15192 626.312602) scale(0.04 -0.04)">
     <use xlink:href="#DejaVuSans-41"/>
     <use xlink:href="#DejaVuSans-3a" x="66.658203"/>
     <use xlink:href="#DejaVuSans-31" x="100.349609"/>
     <use xlink:href="#DejaVuSans-37" x="163.972656"/>
     <use xlink:href="#DejaVuSans-2e" x="227.595703"/>
     <use xlink:href="#DejaVuSans-36" x="259.382812"/>
     <use xlink:href="#DejaVuSans-38" x="323.005859"/>
    </g>
   </g>
   <g id="text_66">
    <!-- A:17.68 -->
    <g transform="translate(491.15192 626.312602) scale(0.04 -0.04)">
     <use xlink:href="#DejaVuSans-41"/>
     <use xlink:href="#DejaVuSans-3a" x="66.658203"/>
     <use xlink:href="#DejaVuSans-31" x="100.349609"/>
     <use xlink:href="#DejaVuSans-37" x="163.972656"/>
     <use xlink:href="#DejaVuSans-2e" x="227.595703"/>
     <use xlink:href="#DejaVuSans-36" x="259.382812"/>
     <use xlink:href="#DejaVuSans-38" x="323.005859"/>
    </g>
   </g>
   <g id="text_67">
    <!-- A:29.85 -->
    <g transform="translate(496.132726 663.117577) scale(0.04 -0.04)">
     <use xlink:href="#DejaVuSans-41"/>
     <use xlink:href="#DejaVuSans-3a" x="66.658203"/>
     <use xlink:href="#DejaVuSans-32" x="100.349609"/>
     <use xlink:href="#DejaVuSans-39" x="163.972656"/>
     <use xlink:href="#DejaVuSans-2e" x="227.595703"/>
     <use xlink:href="#DejaVuSans-38" x="259.382812"/>
     <use xlink:href="#DejaVuSans-35" x="323.005859"/>
    </g>
   </g>
   <g id="text_68">
    <!-- A:0.01 -->
    <g transform="translate(502.197188 597.973619) scale(0.04 -0.04)">
     <use xlink:href="#DejaVuSans-41"/>
     <use xlink:href="#DejaVuSans-3a" x="66.658203"/>
     <use xlink:href="#DejaVuSans-30" x="100.349609"/>
     <use xlink:href="#DejaVuSans-2e" x="163.972656"/>
     <use xlink:href="#DejaVuSans-30" x="195.759766"/>
     <use xlink:href="#DejaVuSans-31" x="259.382812"/>
    </g>
   </g>
   <g id="text_69">
    <!-- A:0.19 -->
    <g transform="translate(469.242764 589.465126) scale(0.04 -0.04)">
     <use xlink:href="#DejaVuSans-41"/>
     <use xlink:href="#DejaVuSans-3a" x="66.658203"/>
     <use xlink:href="#DejaVuSans-30" x="100.349609"/>
     <use xlink:href="#DejaVuSans-2e" x="163.972656"/>
     <use xlink:href="#DejaVuSans-31" x="195.759766"/>
     <use xlink:href="#DejaVuSans-39" x="259.382812"/>
    </g>
   </g>
   <g id="text_70">
    <!-- A:15.44 -->
    <g transform="translate(718.636424 937.27693) scale(0.04 -0.04)">
     <use xlink:href="#DejaVuSans-41"/>
     <use xlink:href="#DejaVuSans-3a" x="66.658203"/>
     <use xlink:href="#DejaVuSans-31" x="100.349609"/>
     <use xlink:href="#DejaVuSans-35" x="163.972656"/>
     <use xlink:href="#DejaVuSans-2e" x="227.595703"/>
     <use xlink:href="#DejaVuSans-34" x="259.382812"/>
     <use xlink:href="#DejaVuSans-34" x="323.005859"/>
    </g>
   </g>
   <g id="text_71">
    <!-- D:0.25 -->
    <g transform="translate(591.011219 321.160532) scale(0.04 -0.04)">
     <use xlink:href="#DejaVuSans-44"/>
     <use xlink:href="#DejaVuSans-3a" x="77.001953"/>
     <use xlink:href="#DejaVuSans-30" x="110.693359"/>
     <use xlink:href="#DejaVuSans-2e" x="174.316406"/>
     <use xlink:href="#DejaVuSans-32" x="206.103516"/>
     <use xlink:href="#DejaVuSans-35" x="269.726562"/>
    </g>
    <!-- A:28.90 -->
    <g transform="translate(591.011219 325.639657) scale(0.04 -0.04)">
     <use xlink:href="#DejaVuSans-41"/>
     <use xlink:href="#DejaVuSans-3a" x="66.658203"/>
     <use xlink:href="#DejaVuSans-32" x="100.349609"/>
     <use xlink:href="#DejaVuSans-38" x="163.972656"/>
     <use xlink:href="#DejaVuSans-2e" x="227.595703"/>
     <use xlink:href="#DejaVuSans-39" x="259.382812"/>
     <use xlink:href="#DejaVuSans-30" x="323.005859"/>
    </g>
   </g>
   <g id="text_72">
    <!-- A:28.90 -->
    <g transform="translate(591.011219 325.639657) scale(0.04 -0.04)">
     <use xlink:href="#DejaVuSans-41"/>
     <use xlink:href="#DejaVuSans-3a" x="66.658203"/>
     <use xlink:href="#DejaVuSans-32" x="100.349609"/>
     <use xlink:href="#DejaVuSans-38" x="163.972656"/>
     <use xlink:href="#DejaVuSans-2e" x="227.595703"/>
     <use xlink:href="#DejaVuSans-39" x="259.382812"/>
     <use xlink:href="#DejaVuSans-30" x="323.005859"/>
    </g>
   </g>
   <g id="text_73">
    <!-- A:0.29 -->
    <g transform="translate(567.440679 385.834421) scale(0.04 -0.04)">
     <use xlink:href="#DejaVuSans-41"/>
     <use xlink:href="#DejaVuSans-3a" x="66.658203"/>
     <use xlink:href="#DejaVuSans-30" x="100.349609"/>
     <use xlink:href="#DejaVuSans-2e" x="163.972656"/>
     <use xlink:href="#DejaVuSans-32" x="195.759766"/>
     <use xlink:href="#DejaVuSans-39" x="259.382812"/>
    </g>
   </g>
   <g id="text_74">
    <!-- A:1.15 -->
    <g transform="translate(669.913233 839.68594) scale(0.04 -0.04)">
     <use xlink:href="#DejaVuSans-41"/>
     <use xlink:href="#DejaVuSans-3a" x="66.658203"/>
     <use xlink:href="#DejaVuSans-31" x="100.349609"/>
     <use xlink:href="#DejaVuSans-2e" x="163.972656"/>
     <use xlink:href="#DejaVuSans-31" x="195.759766"/>
     <use xlink:href="#DejaVuSans-35" x="259.382812"/>
    </g>
   </g>
   <g id="text_75">
    <!-- D:0.08 -->
    <g transform="translate(748.401283 908.10461) scale(0.04 -0.04)">
     <use xlink:href="#DejaVuSans-44"/>
     <use xlink:href="#DejaVuSans-3a" x="77.001953"/>
     <use xlink:href="#DejaVuSans-30" x="110.693359"/>
     <use xlink:href="#DejaVuSans-2e" x="174.316406"/>
     <use xlink:href="#DejaVuSans-30" x="206.103516"/>
     <use xlink:href="#DejaVuSans-38" x="269.726562"/>
    </g>
    <!-- A:17.23 -->
    <g transform="translate(748.401283 912.583735) scale(0.04 -0.04)">
     <use xlink:href="#DejaVuSans-41"/>
     <use xlink:href="#DejaVuSans-3a" x="66.658203"/>
     <use xlink:href="#DejaVuSans-31" x="100.349609"/>
     <use xlink:href="#DejaVuSans-37" x="163.972656"/>
     <use xlink:href="#DejaVuSans-2e" x="227.595703"/>
     <use xlink:href="#DejaVuSans-32" x="259.382812"/>
     <use xlink:href="#DejaVuSans-33" x="323.005859"/>
    </g>
   </g>
   <g id="text_76">
    <!-- A:17.23 -->
    <g transform="translate(748.401283 912.583735) scale(0.04 -0.04)">
     <use xlink:href="#DejaVuSans-41"/>
     <use xlink:href="#DejaVuSans-3a" x="66.658203"/>
     <use xlink:href="#DejaVuSans-31" x="100.349609"/>
     <use xlink:href="#DejaVuSans-37" x="163.972656"/>
     <use xlink:href="#DejaVuSans-2e" x="227.595703"/>
     <use xlink:href="#DejaVuSans-32" x="259.382812"/>
     <use xlink:href="#DejaVuSans-33" x="323.005859"/>
    </g>
   </g>
   <g id="text_77">
    <!-- D:2.45 -->
    <g transform="translate(568.630026 306.98902) scale(0.04 -0.04)">
     <use xlink:href="#DejaVuSans-44"/>
     <use xlink:href="#DejaVuSans-3a" x="77.001953"/>
     <use xlink:href="#DejaVuSans-32" x="110.693359"/>
     <use xlink:href="#DejaVuSans-2e" x="174.316406"/>
     <use xlink:href="#DejaVuSans-34" x="206.103516"/>
     <use xlink:href="#DejaVuSans-35" x="269.726562"/>
    </g>
    <!-- A:17.60 -->
    <g transform="translate(568.630026 311.468145) scale(0.04 -0.04)">
     <use xlink:href="#DejaVuSans-41"/>
     <use xlink:href="#DejaVuSans-3a" x="66.658203"/>
     <use xlink:href="#DejaVuSans-31" x="100.349609"/>
     <use xlink:href="#DejaVuSans-37" x="163.972656"/>
     <use xlink:href="#DejaVuSans-2e" x="227.595703"/>
     <use xlink:href="#DejaVuSans-36" x="259.382812"/>
     <use xlink:href="#DejaVuSans-30" x="323.005859"/>
    </g>
   </g>
   <g id="text_78">
    <!-- A:17.60 -->
    <g transform="translate(568.630026 311.468145) scale(0.04 -0.04)">
     <use xlink:href="#DejaVuSans-41"/>
     <use xlink:href="#DejaVuSans-3a" x="66.658203"/>
     <use xlink:href="#DejaVuSans-31" x="100.349609"/>
     <use xlink:href="#DejaVuSans-37" x="163.972656"/>
     <use xlink:href="#DejaVuSans-2e" x="227.595703"/>
     <use xlink:href="#DejaVuSans-36" x="259.382812"/>
     <use xlink:href="#DejaVuSans-30" x="323.005859"/>
    </g>
   </g>
   <g id="text_79">
    <!-- Instant Noodle Consumption Eurasia (n:27 k:72) -->
    <g transform="translate(593.369063 153.362625) scale(0.12 -0.12)">
     <defs>
      <path id="DejaVuSans-6e" d="M 3513 2113 
L 3513 0 
L 2938 0 
L 2938 2094 
Q 2938 2591 2744 2837 
Q 2550 3084 2163 3084 
Q 1697 3084 1428 2787 
Q 1159 2491 1159 1978 
L 1159 0 
L 581 0 
L 581 3500 
L 1159 3500 
L 1159 2956 
Q 1366 3272 1645 3428 
Q 1925 3584 2291 3584 
Q 2894 3584 3203 3211 
Q 3513 2838 3513 2113 
z
" transform="scale(0.015625)"/>
      <path id="DejaVuSans-73" d="M 2834 3397 
L 2834 2853 
Q 2591 2978 2328 3040 
Q 2066 3103 1784 3103 
Q 1356 3103 1142 2972 
Q 928 2841 928 2578 
Q 928 2378 1081 2264 
Q 1234 2150 1697 2047 
L 1894 2003 
Q 2506 1872 2764 1633 
Q 3022 1394 3022 966 
Q 3022 478 2636 193 
Q 2250 -91 1575 -91 
Q 1294 -91 989 -36 
Q 684 19 347 128 
L 347 722 
Q 666 556 975 473 
Q 1284 391 1588 391 
Q 1994 391 2212 530 
Q 2431 669 2431 922 
Q 2431 1156 2273 1281 
Q 2116 1406 1581 1522 
L 1381 1569 
Q 847 1681 609 1914 
Q 372 2147 372 2553 
Q 372 3047 722 3315 
Q 1072 3584 1716 3584 
Q 2034 3584 2315 3537 
Q 2597 3491 2834 3397 
z
" transform="scale(0.015625)"/>
      <path id="DejaVuSans-74" d="M 1172 4494 
L 1172 3500 
L 2356 3500 
L 2356 3053 
L 1172 3053 
L 1172 1153 
Q 1172 725 1289 603 
Q 1406 481 1766 481 
L 2356 481 
L 2356 0 
L 1766 0 
Q 1100 0 847 248 
Q 594 497 594 1153 
L 594 3053 
L 172 3053 
L 172 3500 
L 594 3500 
L 594 4494 
L 1172 4494 
z
" transform="scale(0.015625)"/>
      <path id="DejaVuSans-61" d="M 2194 1759 
Q 1497 1759 1228 1600 
Q 959 1441 959 1056 
Q 959 750 1161 570 
Q 1363 391 1709 391 
Q 2188 391 2477 730 
Q 2766 1069 2766 1631 
L 2766 1759 
L 2194 1759 
z
M 3341 1997 
L 3341 0 
L 2766 0 
L 2766 531 
Q 2569 213 2275 61 
Q 1981 -91 1556 -91 
Q 1019 -91 701 211 
Q 384 513 384 1019 
Q 384 1609 779 1909 
Q 1175 2209 1959 2209 
L 2766 2209 
L 2766 2266 
Q 2766 2663 2505 2880 
Q 2244 3097 1772 3097 
Q 1472 3097 1187 3025 
Q 903 2953 641 2809 
L 641 3341 
Q 956 3463 1253 3523 
Q 1550 3584 1831 3584 
Q 2591 3584 2966 3190 
Q 3341 2797 3341 1997 
z
" transform="scale(0.015625)"/>
      <path id="DejaVuSans-20" transform="scale(0.015625)"/>
      <path id="DejaVuSans-6f" d="M 1959 3097 
Q 1497 3097 1228 2736 
Q 959 2375 959 1747 
Q 959 1119 1226 758 
Q 1494 397 1959 397 
Q 2419 397 2687 759 
Q 2956 1122 2956 1747 
Q 2956 2369 2687 2733 
Q 2419 3097 1959 3097 
z
M 1959 3584 
Q 2709 3584 3137 3096 
Q 3566 2609 3566 1747 
Q 3566 888 3137 398 
Q 2709 -91 1959 -91 
Q 1206 -91 779 398 
Q 353 888 353 1747 
Q 353 2609 779 3096 
Q 1206 3584 1959 3584 
z
" transform="scale(0.015625)"/>
      <path id="DejaVuSans-64" d="M 2906 2969 
L 2906 4863 
L 3481 4863 
L 3481 0 
L 2906 0 
L 2906 525 
Q 2725 213 2448 61 
Q 2172 -91 1784 -91 
Q 1150 -91 751 415 
Q 353 922 353 1747 
Q 353 2572 751 3078 
Q 1150 3584 1784 3584 
Q 2172 3584 2448 3432 
Q 2725 3281 2906 2969 
z
M 947 1747 
Q 947 1113 1208 752 
Q 1469 391 1925 391 
Q 2381 391 2643 752 
Q 2906 1113 2906 1747 
Q 2906 2381 2643 2742 
Q 2381 3103 1925 3103 
Q 1469 3103 1208 2742 
Q 947 2381 947 1747 
z
" transform="scale(0.015625)"/>
      <path id="DejaVuSans-6c" d="M 603 4863 
L 1178 4863 
L 1178 0 
L 603 0 
L 603 4863 
z
" transform="scale(0.015625)"/>
      <path id="DejaVuSans-65" d="M 3597 1894 
L 3597 1613 
L 953 1613 
Q 991 1019 1311 708 
Q 1631 397 2203 397 
Q 2534 397 2845 478 
Q 3156 559 3463 722 
L 3463 178 
Q 3153 47 2828 -22 
Q 2503 -91 2169 -91 
Q 1331 -91 842 396 
Q 353 884 353 1716 
Q 353 2575 817 3079 
Q 1281 3584 2069 3584 
Q 2775 3584 3186 3129 
Q 3597 2675 3597 1894 
z
M 3022 2063 
Q 3016 2534 2758 2815 
Q 2500 3097 2075 3097 
Q 1594 3097 1305 2825 
Q 1016 2553 972 2059 
L 3022 2063 
z
" transform="scale(0.015625)"/>
      <path id="DejaVuSans-75" d="M 544 1381 
L 544 3500 
L 1119 3500 
L 1119 1403 
Q 1119 906 1312 657 
Q 1506 409 1894 409 
Q 2359 409 2629 706 
Q 2900 1003 2900 1516 
L 2900 3500 
L 3475 3500 
L 3475 0 
L 2900 0 
L 2900 538 
Q 2691 219 2414 64 
Q 2138 -91 1772 -91 
Q 1169 -91 856 284 
Q 544 659 544 1381 
z
M 1991 3584 
L 1991 3584 
z
" transform="scale(0.015625)"/>
      <path id="DejaVuSans-6d" d="M 3328 2828 
Q 3544 3216 3844 3400 
Q 4144 3584 4550 3584 
Q 5097 3584 5394 3201 
Q 5691 2819 5691 2113 
L 5691 0 
L 5113 0 
L 5113 2094 
Q 5113 2597 4934 2840 
Q 4756 3084 4391 3084 
Q 3944 3084 3684 2787 
Q 3425 2491 3425 1978 
L 3425 0 
L 2847 0 
L 2847 2094 
Q 2847 2600 2669 2842 
Q 2491 3084 2119 3084 
Q 1678 3084 1418 2786 
Q 1159 2488 1159 1978 
L 1159 0 
L 581 0 
L 581 3500 
L 1159 3500 
L 1159 2956 
Q 1356 3278 1631 3431 
Q 1906 3584 2284 3584 
Q 2666 3584 2933 3390 
Q 3200 3197 3328 2828 
z
" transform="scale(0.015625)"/>
      <path id="DejaVuSans-70" d="M 1159 525 
L 1159 -1331 
L 581 -1331 
L 581 3500 
L 1159 3500 
L 1159 2969 
Q 1341 3281 1617 3432 
Q 1894 3584 2278 3584 
Q 2916 3584 3314 3078 
Q 3713 2572 3713 1747 
Q 3713 922 3314 415 
Q 2916 -91 2278 -91 
Q 1894 -91 1617 61 
Q 1341 213 1159 525 
z
M 3116 1747 
Q 3116 2381 2855 2742 
Q 2594 3103 2138 3103 
Q 1681 3103 1420 2742 
Q 1159 2381 1159 1747 
Q 1159 1113 1420 752 
Q 1681 391 2138 391 
Q 2594 391 2855 752 
Q 3116 1113 3116 1747 
z
" transform="scale(0.015625)"/>
      <path id="DejaVuSans-69" d="M 603 3500 
L 1178 3500 
L 1178 0 
L 603 0 
L 603 3500 
z
M 603 4863 
L 1178 4863 
L 1178 4134 
L 603 4134 
L 603 4863 
z
" transform="scale(0.015625)"/>
      <path id="DejaVuSans-72" d="M 2631 2963 
Q 2534 3019 2420 3045 
Q 2306 3072 2169 3072 
Q 1681 3072 1420 2755 
Q 1159 2438 1159 1844 
L 1159 0 
L 581 0 
L 581 3500 
L 1159 3500 
L 1159 2956 
Q 1341 3275 1631 3429 
Q 1922 3584 2338 3584 
Q 2397 3584 2469 3576 
Q 2541 3569 2628 3553 
L 2631 2963 
z
" transform="scale(0.015625)"/>
      <path id="DejaVuSans-28" d="M 1984 4856 
Q 1566 4138 1362 3434 
Q 1159 2731 1159 2009 
Q 1159 1288 1364 580 
Q 1569 -128 1984 -844 
L 1484 -844 
Q 1016 -109 783 600 
Q 550 1309 550 2009 
Q 550 2706 781 3412 
Q 1013 4119 1484 4856 
L 1984 4856 
z
" transform="scale(0.015625)"/>
      <path id="DejaVuSans-6b" d="M 581 4863 
L 1159 4863 
L 1159 1991 
L 2875 3500 
L 3609 3500 
L 1753 1863 
L 3688 0 
L 2938 0 
L 1159 1709 
L 1159 0 
L 581 0 
L 581 4863 
z
" transform="scale(0.015625)"/>
      <path id="DejaVuSans-29" d="M 513 4856 
L 1013 4856 
Q 1481 4119 1714 3412 
Q 1947 2706 1947 2009 
Q 1947 1309 1714 600 
Q 1481 -109 1013 -844 
L 513 -844 
Q 928 -128 1133 580 
Q 1338 1288 1338 2009 
Q 1338 2731 1133 3434 
Q 928 4138 513 4856 
z
" transform="scale(0.015625)"/>
     </defs>
     <use xlink:href="#DejaVuSans-49"/>
     <use xlink:href="#DejaVuSans-6e" x="29.492188"/>
     <use xlink:href="#DejaVuSans-73" x="92.871094"/>
     <use xlink:href="#DejaVuSans-74" x="144.970703"/>
     <use xlink:href="#DejaVuSans-61" x="184.179688"/>
     <use xlink:href="#DejaVuSans-6e" x="245.458984"/>
     <use xlink:href="#DejaVuSans-74" x="308.837891"/>
     <use xlink:href="#DejaVuSans-20" x="348.046875"/>
     <use xlink:href="#DejaVuSans-4e" x="379.833984"/>
     <use xlink:href="#DejaVuSans-6f" x="454.638672"/>
     <use xlink:href="#DejaVuSans-6f" x="515.820312"/>
     <use xlink:href="#DejaVuSans-64" x="577.001953"/>
     <use xlink:href="#DejaVuSans-6c" x="640.478516"/>
     <use xlink:href="#DejaVuSans-65" x="668.261719"/>
     <use xlink:href="#DejaVuSans-20" x="729.785156"/>
     <use xlink:href="#DejaVuSans-43" x="761.572266"/>
     <use xlink:href="#DejaVuSans-6f" x="831.396484"/>
     <use xlink:href="#DejaVuSans-6e" x="892.578125"/>
     <use xlink:href="#DejaVuSans-73" x="955.957031"/>
     <use xlink:href="#DejaVuSans-75" x="1008.056641"/>
     <use xlink:href="#DejaVuSans-6d" x="1071.435547"/>
     <use xlink:href="#DejaVuSans-70" x="1168.847656"/>
     <use xlink:href="#DejaVuSans-74" x="1232.324219"/>
     <use xlink:href="#DejaVuSans-69" x="1271.533203"/>
     <use xlink:href="#DejaVuSans-6f" x="1299.316406"/>
     <use xlink:href="#DejaVuSans-6e" x="1360.498047"/>
     <use xlink:href="#DejaVuSans-20" x="1423.876953"/>
     <use xlink:href="#DejaVuSans-45" x="1455.664062"/>
     <use xlink:href="#DejaVuSans-75" x="1518.847656"/>
     <use xlink:href="#DejaVuSans-72" x="1582.226562"/>
     <use xlink:href="#DejaVuSans-61" x="1623.339844"/>
     <use xlink:href="#DejaVuSans-73" x="1684.619141"/>
     <use xlink:href="#DejaVuSans-69" x="1736.71875"/>
     <use xlink:href="#DejaVuSans-61" x="1764.501953"/>
     <use xlink:href="#DejaVuSans-20" x="1825.78125"/>
     <use xlink:href="#DejaVuSans-28" x="1857.568359"/>
     <use xlink:href="#DejaVuSans-6e" x="1896.582031"/>
     <use xlink:href="#DejaVuSans-3a" x="1959.960938"/>
     <use xlink:href="#DejaVuSans-32" x="1993.652344"/>
     <use xlink:href="#DejaVuSans-37" x="2057.275391"/>
     <use xlink:href="#DejaVuSans-20" x="2120.898438"/>
     <use xlink:href="#DejaVuSans-6b" x="2152.685547"/>
     <use xlink:href="#DejaVuSans-3a" x="2210.595703"/>
     <use xlink:href="#DejaVuSans-37" x="2244.287109"/>
     <use xlink:href="#DejaVuSans-32" x="2307.910156"/>
     <use xlink:href="#DejaVuSans-29" x="2371.533203"/>
    </g>
    <!-- Score: 16503.02, max. Overlap: 0.47, avg. Distance: 4.05, avg. Angle: 9.12 -->
    <g transform="translate(511.8525 166.8) scale(0.12 -0.12)">
     <defs>
      <path id="DejaVuSans-63" d="M 3122 3366 
L 3122 2828 
Q 2878 2963 2633 3030 
Q 2388 3097 2138 3097 
Q 1578 3097 1268 2742 
Q 959 2388 959 1747 
Q 959 1106 1268 751 
Q 1578 397 2138 397 
Q 2388 397 2633 464 
Q 2878 531 3122 666 
L 3122 134 
Q 2881 22 2623 -34 
Q 2366 -91 2075 -91 
Q 1284 -91 818 406 
Q 353 903 353 1747 
Q 353 2603 823 3093 
Q 1294 3584 2113 3584 
Q 2378 3584 2631 3529 
Q 2884 3475 3122 3366 
z
" transform="scale(0.015625)"/>
      <path id="DejaVuSans-2c" d="M 750 794 
L 1409 794 
L 1409 256 
L 897 -744 
L 494 -744 
L 750 256 
L 750 794 
z
" transform="scale(0.015625)"/>
      <path id="DejaVuSans-78" d="M 3513 3500 
L 2247 1797 
L 3578 0 
L 2900 0 
L 1881 1375 
L 863 0 
L 184 0 
L 1544 1831 
L 300 3500 
L 978 3500 
L 1906 2253 
L 2834 3500 
L 3513 3500 
z
" transform="scale(0.015625)"/>
      <path id="DejaVuSans-76" d="M 191 3500 
L 800 3500 
L 1894 563 
L 2988 3500 
L 3597 3500 
L 2284 0 
L 1503 0 
L 191 3500 
z
" transform="scale(0.015625)"/>
      <path id="DejaVuSans-67" d="M 2906 1791 
Q 2906 2416 2648 2759 
Q 2391 3103 1925 3103 
Q 1463 3103 1205 2759 
Q 947 2416 947 1791 
Q 947 1169 1205 825 
Q 1463 481 1925 481 
Q 2391 481 2648 825 
Q 2906 1169 2906 1791 
z
M 3481 434 
Q 3481 -459 3084 -895 
Q 2688 -1331 1869 -1331 
Q 1566 -1331 1297 -1286 
Q 1028 -1241 775 -1147 
L 775 -588 
Q 1028 -725 1275 -790 
Q 1522 -856 1778 -856 
Q 2344 -856 2625 -561 
Q 2906 -266 2906 331 
L 2906 616 
Q 2728 306 2450 153 
Q 2172 0 1784 0 
Q 1141 0 747 490 
Q 353 981 353 1791 
Q 353 2603 747 3093 
Q 1141 3584 1784 3584 
Q 2172 3584 2450 3431 
Q 2728 3278 2906 2969 
L 2906 3500 
L 3481 3500 
L 3481 434 
z
" transform="scale(0.015625)"/>
     </defs>
     <use xlink:href="#DejaVuSans-53"/>
     <use xlink:href="#DejaVuSans-63" x="63.476562"/>
     <use xlink:href="#DejaVuSans-6f" x="118.457031"/>
     <use xlink:href="#DejaVuSans-72" x="179.638672"/>
     <use xlink:href="#DejaVuSans-65" x="218.501953"/>
     <use xlink:href="#DejaVuSans-3a" x="280.025391"/>
     <use xlink:href="#DejaVuSans-20" x="313.716797"/>
     <use xlink:href="#DejaVuSans-31" x="345.503906"/>
     <use xlink:href="#DejaVuSans-36" x="409.126953"/>
     <use xlink:href="#DejaVuSans-35" x="472.75"/>
     <use xlink:href="#DejaVuSans-30" x="536.373047"/>
     <use xlink:href="#DejaVuSans-33" x="599.996094"/>
     <use xlink:href="#DejaVuSans-2e" x="663.619141"/>
     <use xlink:href="#DejaVuSans-30" x="695.40625"/>
     <use xlink:href="#DejaVuSans-32" x="759.029297"/>
     <use xlink:href="#DejaVuSans-2c" x="822.652344"/>
     <use xlink:href="#DejaVuSans-20" x="854.439453"/>
     <use xlink:href="#DejaVuSans-6d" x="886.226562"/>
     <use xlink:href="#DejaVuSans-61" x="983.638672"/>
     <use xlink:href="#DejaVuSans-78" x="1044.917969"/>
     <use xlink:href="#DejaVuSans-2e" x="1104.097656"/>
     <use xlink:href="#DejaVuSans-20" x="1135.884766"/>
     <use xlink:href="#DejaVuSans-4f" x="1167.671875"/>
     <use xlink:href="#DejaVuSans-76" x="1246.382812"/>
     <use xlink:href="#DejaVuSans-65" x="1305.5625"/>
     <use xlink:href="#DejaVuSans-72" x="1367.085938"/>
     <use xlink:href="#DejaVuSans-6c" x="1408.199219"/>
     <use xlink:href="#DejaVuSans-61" x="1435.982422"/>
     <use xlink:href="#DejaVuSans-70" x="1497.261719"/>
     <use xlink:href="#DejaVuSans-3a" x="1560.738281"/>
     <use xlink:href="#DejaVuSans-20" x="1594.429688"/>
     <use xlink:href="#DejaVuSans-30" x="1626.216797"/>
     <use xlink:href="#DejaVuSans-2e" x="1689.839844"/>
     <use xlink:href="#DejaVuSans-34" x="1721.626953"/>
     <use xlink:href="#DejaVuSans-37" x="1785.25"/>
     <use xlink:href="#DejaVuSans-2c" x="1848.873047"/>
     <use xlink:href="#DejaVuSans-20" x="1880.660156"/>
     <use xlink:href="#DejaVuSans-61" x="1912.447266"/>
     <use xlink:href="#DejaVuSans-76" x="1973.726562"/>
     <use xlink:href="#DejaVuSans-67" x="2032.90625"/>
     <use xlink:href="#DejaVuSans-2e" x="2096.382812"/>
     <use xlink:href="#DejaVuSans-20" x="2128.169922"/>
     <use xlink:href="#DejaVuSans-44" x="2159.957031"/>
     <use xlink:href="#DejaVuSans-69" x="2236.958984"/>
     <use xlink:href="#DejaVuSans-73" x="2264.742188"/>
     <use xlink:href="#DejaVuSans-74" x="2316.841797"/>
     <use xlink:href="#DejaVuSans-61" x="2356.050781"/>
     <use xlink:href="#DejaVuSans-6e" x="2417.330078"/>
     <use xlink:href="#DejaVuSans-63" x="2480.708984"/>
     <use xlink:href="#DejaVuSans-65" x="2535.689453"/>
     <use xlink:href="#DejaVuSans-3a" x="2597.212891"/>
     <use xlink:href="#DejaVuSans-20" x="2630.904297"/>
     <use xlink:href="#DejaVuSans-34" x="2662.691406"/>
     <use xlink:href="#DejaVuSans-2e" x="2726.314453"/>
     <use xlink:href="#DejaVuSans-30" x="2758.101562"/>
     <use xlink:href="#DejaVuSans-35" x="2821.724609"/>
     <use xlink:href="#DejaVuSans-2c" x="2885.347656"/>
     <use xlink:href="#DejaVuSans-20" x="2917.134766"/>
     <use xlink:href="#DejaVuSans-61" x="2948.921875"/>
     <use xlink:href="#DejaVuSans-76" x="3010.201172"/>
     <use xlink:href="#DejaVuSans-67" x="3069.380859"/>
     <use xlink:href="#DejaVuSans-2e" x="3132.857422"/>
     <use xlink:href="#DejaVuSans-20" x="3164.644531"/>
     <use xlink:href="#DejaVuSans-41" x="3196.431641"/>
     <use xlink:href="#DejaVuSans-6e" x="3264.839844"/>
     <use xlink:href="#DejaVuSans-67" x="3328.21875"/>
     <use xlink:href="#DejaVuSans-6c" x="3391.695312"/>
     <use xlink:href="#DejaVuSans-65" x="3419.478516"/>
     <use xlink:href="#DejaVuSans-3a" x="3481.001953"/>
     <use xlink:href="#DejaVuSans-20" x="3514.693359"/>
     <use xlink:href="#DejaVuSans-39" x="3546.480469"/>
     <use xlink:href="#DejaVuSans-2e" x="3610.103516"/>
     <use xlink:href="#DejaVuSans-31" x="3641.890625"/>
     <use xlink:href="#DejaVuSans-32" x="3705.513672"/>
    </g>
   </g>
  </g>
 </g>
 <defs>
  <clipPath id="pf657afec84">
   <rect x="323.187725" y="172.8" width="829.62455" height="1108.8"/>
  </clipPath>
 </defs>
</svg>
