<?xml version="1.0" encoding="utf-8" standalone="no"?>
<!DOCTYPE svg PUBLIC "-//W3C//DTD SVG 1.1//EN"
  "http://www.w3.org/Graphics/SVG/1.1/DTD/svg11.dtd">
<svg xmlns:xlink="http://www.w3.org/1999/xlink" width="1440pt" height="1440pt" viewBox="0 0 1440 1440" xmlns="http://www.w3.org/2000/svg" version="1.1">
 <metadata>
  <rdf:RDF xmlns:dc="http://purl.org/dc/elements/1.1/" xmlns:cc="http://creativecommons.org/ns#" xmlns:rdf="http://www.w3.org/1999/02/22-rdf-syntax-ns#">
   <cc:Work>
    <dc:type rdf:resource="http://purl.org/dc/dcmitype/StillImage"/>
    <dc:date>2024-03-06T23:58:33.727581</dc:date>
    <dc:format>image/svg+xml</dc:format>
    <dc:creator>
     <cc:Agent>
      <dc:title>Matplotlib v3.8.3, https://matplotlib.org/</dc:title>
     </cc:Agent>
    </dc:creator>
   </cc:Work>
  </rdf:RDF>
 </metadata>
 <defs>
  <style type="text/css">*{stroke-linejoin: round; stroke-linecap: butt}</style>
 </defs>
 <g id="figure_1">
  <g id="patch_1">
   <path d="M 0 1440 
L 1440 1440 
L 1440 0 
L 0 0 
z
" style="fill: #ffffff"/>
  </g>
  <g id="axes_1">
   <g id="patch_2">
    <path d="M 759.185814 1026.991387 
C 767.519313 1026.991387 775.512616 1023.680453 781.40529 1017.787779 
C 787.297963 1011.895106 790.608898 1003.901803 790.608898 995.568304 
C 790.608898 987.234805 787.297963 979.241502 781.40529 973.348829 
C 775.512616 967.456155 767.519313 964.14522 759.185814 964.14522 
C 750.852315 964.14522 742.859013 967.456155 736.966339 973.348829 
C 731.073665 979.241502 727.762731 987.234805 727.762731 995.568304 
C 727.762731 1003.901803 731.073665 1011.895106 736.966339 1017.787779 
C 742.859013 1023.680453 750.852315 1026.991387 759.185814 1026.991387 
z
" clip-path="url(#p4bfca1e56c)" style="fill: #9e0142; opacity: 0.5"/>
   </g>
   <g id="patch_3">
    <path d="M 957.588408 895.511481 
C 959.130824 895.511481 960.610274 894.898673 961.700927 893.80802 
C 962.79158 892.717367 963.404388 891.237917 963.404388 889.695501 
C 963.404388 888.153085 962.79158 886.673635 961.700927 885.582982 
C 960.610274 884.492329 959.130824 883.879521 957.588408 883.879521 
C 956.045992 883.879521 954.566542 884.492329 953.475889 885.582982 
C 952.385237 886.673635 951.772428 888.153085 951.772428 889.695501 
C 951.772428 891.237917 952.385237 892.717367 953.475889 893.80802 
C 954.566542 894.898673 956.045992 895.511481 957.588408 895.511481 
z
" clip-path="url(#p4bfca1e56c)" style="fill: #b61b48; opacity: 0.5"/>
   </g>
   <g id="patch_4">
    <path d="M 961.44279 1111.836507 
C 990.187305 1111.836507 1017.758389 1100.41619 1038.083831 1080.090748 
C 1058.409273 1059.765307 1069.82959 1032.194223 1069.82959 1003.449707 
C 1069.82959 974.705192 1058.409273 947.134108 1038.083831 926.808667 
C 1017.758389 906.483225 990.187305 895.062908 961.44279 895.062908 
C 932.698275 895.062908 905.127191 906.483225 884.801749 926.808667 
C 864.476308 947.134108 853.055991 974.705192 853.055991 1003.449707 
C 853.055991 1032.194223 864.476308 1059.765307 884.801749 1080.090748 
C 905.127191 1100.41619 932.698275 1111.836507 961.44279 1111.836507 
z
" clip-path="url(#p4bfca1e56c)" style="fill: #d0384e; opacity: 0.5"/>
   </g>
   <g id="patch_5">
    <path d="M 880.889664 1231.2 
C 894.109125 1231.2 906.788931 1225.947852 916.136502 1216.600282 
C 925.484072 1207.252711 930.73622 1194.572906 930.73622 1181.353445 
C 930.73622 1168.133984 925.484072 1155.454178 916.136502 1146.106608 
C 906.788931 1136.759037 894.109125 1131.50689 880.889664 1131.50689 
C 867.670203 1131.50689 854.990398 1136.759037 845.642827 1146.106608 
C 836.295257 1155.454178 831.043109 1168.133984 831.043109 1181.353445 
C 831.043109 1194.572906 836.295257 1207.252711 845.642827 1216.600282 
C 854.990398 1225.947852 867.670203 1231.2 880.889664 1231.2 
z
" clip-path="url(#p4bfca1e56c)" style="fill: #df4e4b; opacity: 0.5"/>
   </g>
   <g id="patch_6">
    <path d="M 688.441791 885.658622 
C 693.628431 885.658622 698.603337 883.597949 702.270845 879.930441 
C 705.938352 876.262933 707.999026 871.288027 707.999026 866.101388 
C 707.999026 860.914748 705.938352 855.939842 702.270845 852.272334 
C 698.603337 848.604827 693.628431 846.544153 688.441791 846.544153 
C 683.255152 846.544153 678.280246 848.604827 674.612738 852.272334 
C 670.94523 855.939842 668.884557 860.914748 668.884557 866.101388 
C 668.884557 871.288027 670.94523 876.262933 674.612738 879.930441 
C 678.280246 883.597949 683.255152 885.658622 688.441791 885.658622 
z
" clip-path="url(#p4bfca1e56c)" style="fill: #ee6445; opacity: 0.5"/>
   </g>
   <g id="patch_7">
    <path d="M 618.164305 788.713891 
C 619.416596 788.713891 620.617765 788.21635 621.503269 787.330847 
C 622.388772 786.445343 622.886313 785.244174 622.886313 783.991883 
C 622.886313 782.739592 622.388772 781.538423 621.503269 780.65292 
C 620.617765 779.767416 619.416596 779.269876 618.164305 779.269876 
C 616.912014 779.269876 615.710845 779.767416 614.825341 780.65292 
C 613.939838 781.538423 613.442297 782.739592 613.442297 783.991883 
C 613.442297 785.244174 613.939838 786.445343 614.825341 787.330847 
C 615.710845 788.21635 616.912014 788.713891 618.164305 788.713891 
z
" clip-path="url(#p4bfca1e56c)" style="fill: #f67f4b; opacity: 0.5"/>
   </g>
   <g id="patch_8">
    <path d="M 861.757691 1118.908495 
C 868.634912 1118.908495 875.231385 1116.176146 880.094315 1111.313217 
C 884.957244 1106.450287 887.689593 1099.853814 887.689593 1092.976593 
C 887.689593 1086.099372 884.957244 1079.502899 880.094315 1074.63997 
C 875.231385 1069.77704 868.634912 1067.044691 861.757691 1067.044691 
C 854.88047 1067.044691 848.283997 1069.77704 843.421068 1074.63997 
C 838.558138 1079.502899 835.825789 1086.099372 835.825789 1092.976593 
C 835.825789 1099.853814 838.558138 1106.450287 843.421068 1111.313217 
C 848.283997 1116.176146 854.88047 1118.908495 861.757691 1118.908495 
z
" clip-path="url(#p4bfca1e56c)" style="fill: #fa9b58; opacity: 0.5"/>
   </g>
   <g id="patch_9">
    <path d="M 651.448165 867.11686 
C 657.807709 867.11686 663.907638 864.590187 668.404515 860.09331 
C 672.901392 855.596434 675.428065 849.496504 675.428065 843.13696 
C 675.428065 836.777416 672.901392 830.677487 668.404515 826.18061 
C 663.907638 821.683734 657.807709 819.15706 651.448165 819.15706 
C 645.088621 819.15706 638.988692 821.683734 634.491815 826.18061 
C 629.994939 830.677487 627.468265 836.777416 627.468265 843.13696 
C 627.468265 849.496504 629.994939 855.596434 634.491815 860.09331 
C 638.988692 864.590187 645.088621 867.11686 651.448165 867.11686 
z
" clip-path="url(#p4bfca1e56c)" style="fill: #fdb768; opacity: 0.5"/>
   </g>
   <g id="patch_10">
    <path d="M 901.013594 1134.742736 
C 906.131721 1134.742736 911.040912 1132.709282 914.659975 1129.09022 
C 918.279037 1125.471157 920.31249 1120.561967 920.31249 1115.443839 
C 920.31249 1110.325712 918.279037 1105.416521 914.659975 1101.797459 
C 911.040912 1098.178397 906.131721 1096.144943 901.013594 1096.144943 
C 895.895467 1096.144943 890.986276 1098.178397 887.367214 1101.797459 
C 883.748151 1105.416521 881.714698 1110.325712 881.714698 1115.443839 
C 881.714698 1120.561967 883.748151 1125.471157 887.367214 1129.09022 
C 890.986276 1132.709282 895.895467 1134.742736 901.013594 1134.742736 
z
" clip-path="url(#p4bfca1e56c)" style="fill: #fece7c; opacity: 0.5"/>
   </g>
   <g id="patch_11">
    <path d="M 539.363854 314.962515 
C 551.531705 314.962515 563.202831 310.128176 571.806802 301.524205 
C 580.410772 292.920235 585.245111 281.249109 585.245111 269.081257 
C 585.245111 256.913406 580.410772 245.24228 571.806802 236.638309 
C 563.202831 228.034339 551.531705 223.2 539.363854 223.2 
C 527.196002 223.2 515.524876 228.034339 506.920905 236.638309 
C 498.316935 245.24228 493.482596 256.913406 493.482596 269.081257 
C 493.482596 281.249109 498.316935 292.920235 506.920905 301.524205 
C 515.524876 310.128176 527.196002 314.962515 539.363854 314.962515 
z
" clip-path="url(#p4bfca1e56c)" style="fill: #fee28f; opacity: 0.5"/>
   </g>
   <g id="patch_12">
    <path d="M 937.074424 1165.416305 
C 940.689386 1165.416305 944.156775 1163.980066 946.712939 1161.423902 
C 949.269103 1158.867738 950.705342 1155.400349 950.705342 1151.785387 
C 950.705342 1148.170425 949.269103 1144.703037 946.712939 1142.146873 
C 944.156775 1139.590709 940.689386 1138.154469 937.074424 1138.154469 
C 933.459462 1138.154469 929.992073 1139.590709 927.435909 1142.146873 
C 924.879745 1144.703037 923.443506 1148.170425 923.443506 1151.785387 
C 923.443506 1155.400349 924.879745 1158.867738 927.435909 1161.423902 
C 929.992073 1163.980066 933.459462 1165.416305 937.074424 1165.416305 
z
" clip-path="url(#p4bfca1e56c)" style="fill: #fff1a8; opacity: 0.5"/>
   </g>
   <g id="patch_13">
    <path d="M 617.14185 886.929178 
C 622.071423 886.929178 626.799757 884.970638 630.285491 881.484903 
C 633.771226 877.999169 635.729766 873.270835 635.729766 868.341262 
C 635.729766 863.411689 633.771226 858.683355 630.285491 855.19762 
C 626.799757 851.711886 622.071423 849.753346 617.14185 849.753346 
C 612.212277 849.753346 607.483943 851.711886 603.998209 855.19762 
C 600.512474 858.683355 598.553934 863.411689 598.553934 868.341262 
C 598.553934 873.270835 600.512474 877.999169 603.998209 881.484903 
C 607.483943 884.970638 612.212277 886.929178 617.14185 886.929178 
z
" clip-path="url(#p4bfca1e56c)" style="fill: #ffffbe; opacity: 0.5"/>
   </g>
   <g id="patch_14">
    <path d="M 539.974037 804.137399 
C 562.119283 804.137399 583.360499 795.338999 599.019553 779.679945 
C 614.678607 764.020891 623.477007 742.779675 623.477007 720.634428 
C 623.477007 698.489182 614.678607 677.247966 599.019553 661.588912 
C 583.360499 645.929858 562.119283 637.131458 539.974037 637.131458 
C 517.82879 637.131458 496.587574 645.929858 480.92852 661.588912 
C 465.269466 677.247966 456.471066 698.489182 456.471066 720.634428 
C 456.471066 742.779675 465.269466 764.020891 480.92852 779.679945 
C 496.587574 795.338999 517.82879 804.137399 539.974037 804.137399 
z
" clip-path="url(#p4bfca1e56c)" style="fill: #f4faad; opacity: 0.5"/>
   </g>
   <g id="patch_15">
    <path d="M 700.649974 917.228819 
C 705.110755 917.228819 709.389434 915.456532 712.543682 912.302284 
C 715.69793 909.148036 717.470217 904.869357 717.470217 900.408576 
C 717.470217 895.947796 715.69793 891.669117 712.543682 888.514869 
C 709.389434 885.360621 705.110755 883.588334 700.649974 883.588334 
C 696.189194 883.588334 691.910515 885.360621 688.756267 888.514869 
C 685.602019 891.669117 683.829732 895.947796 683.829732 900.408576 
C 683.829732 904.869357 685.602019 909.148036 688.756267 912.302284 
C 691.910515 915.456532 696.189194 917.228819 700.649974 917.228819 
z
" clip-path="url(#p4bfca1e56c)" style="fill: #e8f69b; opacity: 0.5"/>
   </g>
   <g id="patch_16">
    <path d="M 732.076857 923.838994 
C 736.207079 923.838994 740.168694 922.198039 743.089202 919.277531 
C 746.00971 916.357023 747.650665 912.395408 747.650665 908.265185 
C 747.650665 904.134963 746.00971 900.173348 743.089202 897.25284 
C 740.168694 894.332332 736.207079 892.691377 732.076857 892.691377 
C 727.946634 892.691377 723.985019 894.332332 721.064511 897.25284 
C 718.144003 900.173348 716.503048 904.134963 716.503048 908.265185 
C 716.503048 912.395408 718.144003 916.357023 721.064511 919.277531 
C 723.985019 922.198039 727.946634 923.838994 732.076857 923.838994 
z
" clip-path="url(#p4bfca1e56c)" style="fill: #d1ed9c; opacity: 0.5"/>
   </g>
   <g id="patch_17">
    <path d="M 602.655519 848.227149 
C 610.966443 848.227149 618.938093 844.925184 624.814804 839.048473 
C 630.691515 833.171762 633.99348 825.200113 633.99348 816.889188 
C 633.99348 808.578264 630.691515 800.606614 624.814804 794.729903 
C 618.938093 788.853192 610.966443 785.551227 602.655519 785.551227 
C 594.344594 785.551227 586.372945 788.853192 580.496234 794.729903 
C 574.619523 800.606614 571.317558 808.578264 571.317558 816.889188 
C 571.317558 825.200113 574.619523 833.171762 580.496234 839.048473 
C 586.372945 844.925184 594.344594 848.227149 602.655519 848.227149 
z
" clip-path="url(#p4bfca1e56c)" style="fill: #b5e1a2; opacity: 0.5"/>
   </g>
   <g id="patch_18">
    <path d="M 903.14745 907.149791 
C 913.64024 907.149791 923.704686 902.980961 931.124209 895.561438 
C 938.543733 888.141914 942.712563 878.077469 942.712563 867.584678 
C 942.712563 857.091888 938.543733 847.027442 931.124209 839.607919 
C 923.704686 832.188395 913.64024 828.019565 903.14745 828.019565 
C 892.654659 828.019565 882.590214 832.188395 875.17069 839.607919 
C 867.751167 847.027442 863.582337 857.091888 863.582337 867.584678 
C 863.582337 878.077469 867.751167 888.141914 875.17069 895.561438 
C 882.590214 902.980961 892.654659 907.149791 903.14745 907.149791 
z
" clip-path="url(#p4bfca1e56c)" style="fill: #97d5a4; opacity: 0.5"/>
   </g>
   <g id="patch_19">
    <path d="M 816.530003 1162.78327 
C 825.186848 1162.78327 833.490297 1159.343869 839.611611 1153.222556 
C 845.732925 1147.101242 849.172326 1138.797793 849.172326 1130.140948 
C 849.172326 1121.484103 845.732925 1113.180654 839.611611 1107.05934 
C 833.490297 1100.938026 825.186848 1097.498625 816.530003 1097.498625 
C 807.873158 1097.498625 799.56971 1100.938026 793.448396 1107.05934 
C 787.327082 1113.180654 783.887681 1121.484103 783.887681 1130.140948 
C 783.887681 1138.797793 787.327082 1147.101242 793.448396 1153.222556 
C 799.56971 1159.343869 807.873158 1162.78327 816.530003 1162.78327 
z
" clip-path="url(#p4bfca1e56c)" style="fill: #79c9a5; opacity: 0.5"/>
   </g>
   <g id="patch_20">
    <path d="M 803.750195 1098.583458 
C 815.202275 1098.583458 826.18685 1094.033499 834.284694 1085.935655 
C 842.382538 1077.837811 846.932498 1066.853236 846.932498 1055.401155 
C 846.932498 1043.949074 842.382538 1032.964499 834.284694 1024.866655 
C 826.18685 1016.768811 815.202275 1012.218851 803.750195 1012.218851 
C 792.298114 1012.218851 781.313539 1016.768811 773.215695 1024.866655 
C 765.117851 1032.964499 760.567891 1043.949074 760.567891 1055.401155 
C 760.567891 1066.853236 765.117851 1077.837811 773.215695 1085.935655 
C 781.313539 1094.033499 792.298114 1098.583458 803.750195 1098.583458 
z
" clip-path="url(#p4bfca1e56c)" style="fill: #5cb7aa; opacity: 0.5"/>
   </g>
   <g id="patch_21">
    <path d="M 542.021295 611.417364 
C 578.049371 611.417364 612.606681 597.103258 638.082377 571.627561 
C 663.558074 546.151865 677.87218 511.594555 677.87218 475.566479 
C 677.87218 439.538404 663.558074 404.981094 638.082377 379.505397 
C 612.606681 354.029701 578.049371 339.715595 542.021295 339.715595 
C 505.99322 339.715595 471.43591 354.029701 445.960213 379.505397 
C 420.484517 404.981094 406.17041 439.538404 406.17041 475.566479 
C 406.17041 511.594555 420.484517 546.151865 445.960213 571.627561 
C 471.43591 597.103258 505.99322 611.417364 542.021295 611.417364 
z
" clip-path="url(#p4bfca1e56c)" style="fill: #439bb5; opacity: 0.5"/>
   </g>
   <g id="patch_22">
    <path d="M 815.998738 986.445351 
C 830.100127 986.445351 843.625858 980.84281 853.597045 970.871622 
C 863.568233 960.900434 869.170774 947.374703 869.170774 933.273314 
C 869.170774 919.171926 863.568233 905.646195 853.597045 895.675007 
C 843.625858 885.703819 830.100127 880.101278 815.998738 880.101278 
C 801.897349 880.101278 788.371618 885.703819 778.400431 895.675007 
C 768.429243 905.646195 762.826702 919.171926 762.826702 933.273314 
C 762.826702 947.374703 768.429243 960.900434 778.400431 970.871622 
C 788.371618 980.84281 801.897349 986.445351 815.998738 986.445351 
z
" clip-path="url(#p4bfca1e56c)" style="fill: #3682ba; opacity: 0.5"/>
   </g>
   <g id="patch_23">
    <path d="M 967.521671 893.897695 
C 968.613683 893.897695 969.661115 893.463834 970.433284 892.691665 
C 971.205453 891.919496 971.639314 890.872063 971.639314 889.780051 
C 971.639314 888.688039 971.205453 887.640606 970.433284 886.868437 
C 969.661115 886.096268 968.613683 885.662407 967.521671 885.662407 
C 966.429659 885.662407 965.382226 886.096268 964.610057 886.868437 
C 963.837888 887.640606 963.404027 888.688039 963.404027 889.780051 
C 963.404027 890.872063 963.837888 891.919496 964.610057 892.691665 
C 965.382226 893.463834 966.429659 893.897695 967.521671 893.897695 
z
" clip-path="url(#p4bfca1e56c)" style="fill: #4b68ae; opacity: 0.5"/>
   </g>
   <g id="patch_24">
    <path d="M 945.732971 892.459577 
C 947.495584 892.459577 949.186241 891.759283 950.432596 890.512928 
C 951.678951 889.266573 952.379244 887.575916 952.379244 885.813304 
C 952.379244 884.050691 951.678951 882.360034 950.432596 881.113679 
C 949.186241 879.867324 947.495584 879.16703 945.732971 879.16703 
C 943.970359 879.16703 942.279702 879.867324 941.033346 881.113679 
C 939.786991 882.360034 939.086698 884.050691 939.086698 885.813304 
C 939.086698 887.575916 939.786991 889.266573 941.033346 890.512928 
C 942.279702 891.759283 943.970359 892.459577 945.732971 892.459577 
z
" clip-path="url(#p4bfca1e56c)" style="fill: #5e4fa2; opacity: 0.5"/>
   </g>
   <g id="line2d_1">
    <path d="M 880.889664 1181.353445 
L 861.757691 1092.976593 
" clip-path="url(#p4bfca1e56c)" style="fill: none; stroke: #808080; stroke-opacity: 0.3; stroke-width: 0.5; stroke-linecap: square"/>
   </g>
   <g id="line2d_2">
    <path d="M 880.889664 1181.353445 
L 961.44279 1003.449707 
" clip-path="url(#p4bfca1e56c)" style="fill: none; stroke: #808080; stroke-opacity: 0.3; stroke-width: 0.5; stroke-linecap: square"/>
   </g>
   <g id="line2d_3">
    <path d="M 880.889664 1181.353445 
L 816.530003 1130.140948 
" clip-path="url(#p4bfca1e56c)" style="fill: none; stroke: #808080; stroke-opacity: 0.3; stroke-width: 0.5; stroke-linecap: square"/>
   </g>
   <g id="line2d_4">
    <path d="M 880.889664 1181.353445 
L 901.013594 1115.443839 
" clip-path="url(#p4bfca1e56c)" style="fill: none; stroke: #808080; stroke-opacity: 0.3; stroke-width: 0.5; stroke-linecap: square"/>
   </g>
   <g id="line2d_5">
    <path d="M 880.889664 1181.353445 
L 937.074424 1151.785387 
" clip-path="url(#p4bfca1e56c)" style="fill: none; stroke: #808080; stroke-opacity: 0.3; stroke-width: 0.5; stroke-linecap: square"/>
   </g>
   <g id="line2d_6">
    <path d="M 861.757691 1092.976593 
L 961.44279 1003.449707 
" clip-path="url(#p4bfca1e56c)" style="fill: none; stroke: #808080; stroke-opacity: 0.3; stroke-width: 0.5; stroke-linecap: square"/>
   </g>
   <g id="line2d_7">
    <path d="M 861.757691 1092.976593 
L 816.530003 1130.140948 
" clip-path="url(#p4bfca1e56c)" style="fill: none; stroke: #808080; stroke-opacity: 0.3; stroke-width: 0.5; stroke-linecap: square"/>
   </g>
   <g id="line2d_8">
    <path d="M 861.757691 1092.976593 
L 901.013594 1115.443839 
" clip-path="url(#p4bfca1e56c)" style="fill: none; stroke: #808080; stroke-opacity: 0.3; stroke-width: 0.5; stroke-linecap: square"/>
   </g>
   <g id="line2d_9">
    <path d="M 861.757691 1092.976593 
L 803.750195 1055.401155 
" clip-path="url(#p4bfca1e56c)" style="fill: none; stroke: #808080; stroke-opacity: 0.3; stroke-width: 0.5; stroke-linecap: square"/>
   </g>
   <g id="line2d_10">
    <path d="M 961.44279 1003.449707 
L 815.998738 933.273314 
" clip-path="url(#p4bfca1e56c)" style="fill: none; stroke: #808080; stroke-opacity: 0.3; stroke-width: 0.5; stroke-linecap: square"/>
   </g>
   <g id="line2d_11">
    <path d="M 961.44279 1003.449707 
L 967.521671 889.780051 
" clip-path="url(#p4bfca1e56c)" style="fill: none; stroke: #808080; stroke-opacity: 0.3; stroke-width: 0.5; stroke-linecap: square"/>
   </g>
   <g id="line2d_12">
    <path d="M 961.44279 1003.449707 
L 945.732971 885.813304 
" clip-path="url(#p4bfca1e56c)" style="fill: none; stroke: #808080; stroke-opacity: 0.3; stroke-width: 0.5; stroke-linecap: square"/>
   </g>
   <g id="line2d_13">
    <path d="M 961.44279 1003.449707 
L 901.013594 1115.443839 
" clip-path="url(#p4bfca1e56c)" style="fill: none; stroke: #808080; stroke-opacity: 0.3; stroke-width: 0.5; stroke-linecap: square"/>
   </g>
   <g id="line2d_14">
    <path d="M 961.44279 1003.449707 
L 803.750195 1055.401155 
" clip-path="url(#p4bfca1e56c)" style="fill: none; stroke: #808080; stroke-opacity: 0.3; stroke-width: 0.5; stroke-linecap: square"/>
   </g>
   <g id="line2d_15">
    <path d="M 961.44279 1003.449707 
L 957.588408 889.695501 
" clip-path="url(#p4bfca1e56c)" style="fill: none; stroke: #808080; stroke-opacity: 0.3; stroke-width: 0.5; stroke-linecap: square"/>
   </g>
   <g id="line2d_16">
    <path d="M 961.44279 1003.449707 
L 937.074424 1151.785387 
" clip-path="url(#p4bfca1e56c)" style="fill: none; stroke: #808080; stroke-opacity: 0.3; stroke-width: 0.5; stroke-linecap: square"/>
   </g>
   <g id="line2d_17">
    <path d="M 961.44279 1003.449707 
L 903.14745 867.584678 
" clip-path="url(#p4bfca1e56c)" style="fill: none; stroke: #808080; stroke-opacity: 0.3; stroke-width: 0.5; stroke-linecap: square"/>
   </g>
   <g id="line2d_18">
    <path d="M 618.164305 783.991883 
L 602.655519 816.889188 
" clip-path="url(#p4bfca1e56c)" style="fill: none; stroke: #808080; stroke-opacity: 0.3; stroke-width: 0.5; stroke-linecap: square"/>
   </g>
   <g id="line2d_19">
    <path d="M 618.164305 783.991883 
L 539.974037 720.634428 
" clip-path="url(#p4bfca1e56c)" style="fill: none; stroke: #808080; stroke-opacity: 0.3; stroke-width: 0.5; stroke-linecap: square"/>
   </g>
   <g id="line2d_20">
    <path d="M 539.363854 269.081257 
L 542.021295 475.566479 
" clip-path="url(#p4bfca1e56c)" style="fill: none; stroke: #808080; stroke-opacity: 0.3; stroke-width: 0.5; stroke-linecap: square"/>
   </g>
   <g id="line2d_21">
    <path d="M 816.530003 1130.140948 
L 803.750195 1055.401155 
" clip-path="url(#p4bfca1e56c)" style="fill: none; stroke: #808080; stroke-opacity: 0.3; stroke-width: 0.5; stroke-linecap: square"/>
   </g>
   <g id="line2d_22">
    <path d="M 815.998738 933.273314 
L 759.185814 995.568304 
" clip-path="url(#p4bfca1e56c)" style="fill: none; stroke: #808080; stroke-opacity: 0.3; stroke-width: 0.5; stroke-linecap: square"/>
   </g>
   <g id="line2d_23">
    <path d="M 815.998738 933.273314 
L 732.076857 908.265185 
" clip-path="url(#p4bfca1e56c)" style="fill: none; stroke: #808080; stroke-opacity: 0.3; stroke-width: 0.5; stroke-linecap: square"/>
   </g>
   <g id="line2d_24">
    <path d="M 815.998738 933.273314 
L 803.750195 1055.401155 
" clip-path="url(#p4bfca1e56c)" style="fill: none; stroke: #808080; stroke-opacity: 0.3; stroke-width: 0.5; stroke-linecap: square"/>
   </g>
   <g id="line2d_25">
    <path d="M 815.998738 933.273314 
L 903.14745 867.584678 
" clip-path="url(#p4bfca1e56c)" style="fill: none; stroke: #808080; stroke-opacity: 0.3; stroke-width: 0.5; stroke-linecap: square"/>
   </g>
   <g id="line2d_26">
    <path d="M 700.649974 900.408576 
L 688.441791 866.101388 
" clip-path="url(#p4bfca1e56c)" style="fill: none; stroke: #808080; stroke-opacity: 0.3; stroke-width: 0.5; stroke-linecap: square"/>
   </g>
   <g id="line2d_27">
    <path d="M 700.649974 900.408576 
L 732.076857 908.265185 
" clip-path="url(#p4bfca1e56c)" style="fill: none; stroke: #808080; stroke-opacity: 0.3; stroke-width: 0.5; stroke-linecap: square"/>
   </g>
   <g id="line2d_28">
    <path d="M 759.185814 995.568304 
L 803.750195 1055.401155 
" clip-path="url(#p4bfca1e56c)" style="fill: none; stroke: #808080; stroke-opacity: 0.3; stroke-width: 0.5; stroke-linecap: square"/>
   </g>
   <g id="line2d_29">
    <path d="M 967.521671 889.780051 
L 957.588408 889.695501 
" clip-path="url(#p4bfca1e56c)" style="fill: none; stroke: #808080; stroke-opacity: 0.3; stroke-width: 0.5; stroke-linecap: square"/>
   </g>
   <g id="line2d_30">
    <path d="M 602.655519 816.889188 
L 617.14185 868.341262 
" clip-path="url(#p4bfca1e56c)" style="fill: none; stroke: #808080; stroke-opacity: 0.3; stroke-width: 0.5; stroke-linecap: square"/>
   </g>
   <g id="line2d_31">
    <path d="M 602.655519 816.889188 
L 651.448165 843.13696 
" clip-path="url(#p4bfca1e56c)" style="fill: none; stroke: #808080; stroke-opacity: 0.3; stroke-width: 0.5; stroke-linecap: square"/>
   </g>
   <g id="line2d_32">
    <path d="M 602.655519 816.889188 
L 539.974037 720.634428 
" clip-path="url(#p4bfca1e56c)" style="fill: none; stroke: #808080; stroke-opacity: 0.3; stroke-width: 0.5; stroke-linecap: square"/>
   </g>
   <g id="line2d_33">
    <path d="M 945.732971 885.813304 
L 957.588408 889.695501 
" clip-path="url(#p4bfca1e56c)" style="fill: none; stroke: #808080; stroke-opacity: 0.3; stroke-width: 0.5; stroke-linecap: square"/>
   </g>
   <g id="line2d_34">
    <path d="M 945.732971 885.813304 
L 903.14745 867.584678 
" clip-path="url(#p4bfca1e56c)" style="fill: none; stroke: #808080; stroke-opacity: 0.3; stroke-width: 0.5; stroke-linecap: square"/>
   </g>
   <g id="line2d_35">
    <path d="M 651.448165 843.13696 
L 617.14185 868.341262 
" clip-path="url(#p4bfca1e56c)" style="fill: none; stroke: #808080; stroke-opacity: 0.3; stroke-width: 0.5; stroke-linecap: square"/>
   </g>
   <g id="line2d_36">
    <path d="M 651.448165 843.13696 
L 688.441791 866.101388 
" clip-path="url(#p4bfca1e56c)" style="fill: none; stroke: #808080; stroke-opacity: 0.3; stroke-width: 0.5; stroke-linecap: square"/>
   </g>
   <g id="line2d_37">
    <path d="M 539.974037 720.634428 
L 542.021295 475.566479 
" clip-path="url(#p4bfca1e56c)" style="fill: none; stroke: #808080; stroke-opacity: 0.3; stroke-width: 0.5; stroke-linecap: square"/>
   </g>
   <g id="text_1">
    <!-- ECU -->
    <g transform="translate(752.999721 997.223929) scale(0.06 -0.06)">
     <defs>
      <path id="DejaVuSans-45" d="M 628 4666 
L 3578 4666 
L 3578 4134 
L 1259 4134 
L 1259 2753 
L 3481 2753 
L 3481 2222 
L 1259 2222 
L 1259 531 
L 3634 531 
L 3634 0 
L 628 0 
L 628 4666 
z
" transform="scale(0.015625)"/>
      <path id="DejaVuSans-43" d="M 4122 4306 
L 4122 3641 
Q 3803 3938 3442 4084 
Q 3081 4231 2675 4231 
Q 1875 4231 1450 3742 
Q 1025 3253 1025 2328 
Q 1025 1406 1450 917 
Q 1875 428 2675 428 
Q 3081 428 3442 575 
Q 3803 722 4122 1019 
L 4122 359 
Q 3791 134 3420 21 
Q 3050 -91 2638 -91 
Q 1578 -91 968 557 
Q 359 1206 359 2328 
Q 359 3453 968 4101 
Q 1578 4750 2638 4750 
Q 3056 4750 3426 4639 
Q 3797 4528 4122 4306 
z
" transform="scale(0.015625)"/>
      <path id="DejaVuSans-55" d="M 556 4666 
L 1191 4666 
L 1191 1831 
Q 1191 1081 1462 751 
Q 1734 422 2344 422 
Q 2950 422 3222 751 
Q 3494 1081 3494 1831 
L 3494 4666 
L 4128 4666 
L 4128 1753 
Q 4128 841 3676 375 
Q 3225 -91 2344 -91 
Q 1459 -91 1007 375 
Q 556 841 556 1753 
L 556 4666 
z
" transform="scale(0.015625)"/>
     </defs>
     <use xlink:href="#DejaVuSans-45"/>
     <use xlink:href="#DejaVuSans-43" x="63.183594"/>
     <use xlink:href="#DejaVuSans-55" x="133.007812"/>
    </g>
   </g>
   <g id="text_2">
    <!-- SUR -->
    <g transform="translate(951.403721 891.351126) scale(0.06 -0.06)">
     <defs>
      <path id="DejaVuSans-53" d="M 3425 4513 
L 3425 3897 
Q 3066 4069 2747 4153 
Q 2428 4238 2131 4238 
Q 1616 4238 1336 4038 
Q 1056 3838 1056 3469 
Q 1056 3159 1242 3001 
Q 1428 2844 1947 2747 
L 2328 2669 
Q 3034 2534 3370 2195 
Q 3706 1856 3706 1288 
Q 3706 609 3251 259 
Q 2797 -91 1919 -91 
Q 1588 -91 1214 -16 
Q 841 59 441 206 
L 441 856 
Q 825 641 1194 531 
Q 1563 422 1919 422 
Q 2459 422 2753 634 
Q 3047 847 3047 1241 
Q 3047 1584 2836 1778 
Q 2625 1972 2144 2069 
L 1759 2144 
Q 1053 2284 737 2584 
Q 422 2884 422 3419 
Q 422 4038 858 4394 
Q 1294 4750 2059 4750 
Q 2388 4750 2728 4690 
Q 3069 4631 3425 4513 
z
" transform="scale(0.015625)"/>
      <path id="DejaVuSans-52" d="M 2841 2188 
Q 3044 2119 3236 1894 
Q 3428 1669 3622 1275 
L 4263 0 
L 3584 0 
L 2988 1197 
Q 2756 1666 2539 1819 
Q 2322 1972 1947 1972 
L 1259 1972 
L 1259 0 
L 628 0 
L 628 4666 
L 2053 4666 
Q 2853 4666 3247 4331 
Q 3641 3997 3641 3322 
Q 3641 2881 3436 2590 
Q 3231 2300 2841 2188 
z
M 1259 4147 
L 1259 2491 
L 2053 2491 
Q 2509 2491 2742 2702 
Q 2975 2913 2975 3322 
Q 2975 3731 2742 3939 
Q 2509 4147 2053 4147 
L 1259 4147 
z
" transform="scale(0.015625)"/>
     </defs>
     <use xlink:href="#DejaVuSans-53"/>
     <use xlink:href="#DejaVuSans-55" x="63.476562"/>
     <use xlink:href="#DejaVuSans-52" x="136.669922"/>
    </g>
   </g>
   <g id="text_3">
    <!-- BRA -->
    <g transform="translate(955.36779 1005.105332) scale(0.06 -0.06)">
     <defs>
      <path id="DejaVuSans-42" d="M 1259 2228 
L 1259 519 
L 2272 519 
Q 2781 519 3026 730 
Q 3272 941 3272 1375 
Q 3272 1813 3026 2020 
Q 2781 2228 2272 2228 
L 1259 2228 
z
M 1259 4147 
L 1259 2741 
L 2194 2741 
Q 2656 2741 2882 2914 
Q 3109 3088 3109 3444 
Q 3109 3797 2882 3972 
Q 2656 4147 2194 4147 
L 1259 4147 
z
M 628 4666 
L 2241 4666 
Q 2963 4666 3353 4366 
Q 3744 4066 3744 3513 
Q 3744 3084 3544 2831 
Q 3344 2578 2956 2516 
Q 3422 2416 3680 2098 
Q 3938 1781 3938 1306 
Q 3938 681 3513 340 
Q 3088 0 2303 0 
L 628 0 
L 628 4666 
z
" transform="scale(0.015625)"/>
      <path id="DejaVuSans-41" d="M 2188 4044 
L 1331 1722 
L 3047 1722 
L 2188 4044 
z
M 1831 4666 
L 2547 4666 
L 4325 0 
L 3669 0 
L 3244 1197 
L 1141 1197 
L 716 0 
L 50 0 
L 1831 4666 
z
" transform="scale(0.015625)"/>
     </defs>
     <use xlink:href="#DejaVuSans-42"/>
     <use xlink:href="#DejaVuSans-52" x="68.603516"/>
     <use xlink:href="#DejaVuSans-41" x="134.085938"/>
    </g>
   </g>
   <g id="text_4">
    <!-- ARG -->
    <g transform="translate(874.428414 1183.00907) scale(0.06 -0.06)">
     <defs>
      <path id="DejaVuSans-47" d="M 3809 666 
L 3809 1919 
L 2778 1919 
L 2778 2438 
L 4434 2438 
L 4434 434 
Q 4069 175 3628 42 
Q 3188 -91 2688 -91 
Q 1594 -91 976 548 
Q 359 1188 359 2328 
Q 359 3472 976 4111 
Q 1594 4750 2688 4750 
Q 3144 4750 3555 4637 
Q 3966 4525 4313 4306 
L 4313 3634 
Q 3963 3931 3569 4081 
Q 3175 4231 2741 4231 
Q 1884 4231 1454 3753 
Q 1025 3275 1025 2328 
Q 1025 1384 1454 906 
Q 1884 428 2741 428 
Q 3075 428 3337 486 
Q 3600 544 3809 666 
z
" transform="scale(0.015625)"/>
     </defs>
     <use xlink:href="#DejaVuSans-41"/>
     <use xlink:href="#DejaVuSans-52" x="68.408203"/>
     <use xlink:href="#DejaVuSans-47" x="137.890625"/>
    </g>
   </g>
   <g id="text_5">
    <!-- NIC -->
    <g transform="translate(683.217573 867.757013) scale(0.06 -0.06)">
     <defs>
      <path id="DejaVuSans-4e" d="M 628 4666 
L 1478 4666 
L 3547 763 
L 3547 4666 
L 4159 4666 
L 4159 0 
L 3309 0 
L 1241 3903 
L 1241 0 
L 628 0 
L 628 4666 
z
" transform="scale(0.015625)"/>
      <path id="DejaVuSans-49" d="M 628 4666 
L 1259 4666 
L 1259 0 
L 628 0 
L 628 4666 
z
" transform="scale(0.015625)"/>
     </defs>
     <use xlink:href="#DejaVuSans-4e"/>
     <use xlink:href="#DejaVuSans-49" x="74.804688"/>
     <use xlink:href="#DejaVuSans-43" x="104.296875"/>
    </g>
   </g>
   <g id="text_6">
    <!-- BLZ -->
    <g transform="translate(612.379461 785.647508) scale(0.06 -0.06)">
     <defs>
      <path id="DejaVuSans-4c" d="M 628 4666 
L 1259 4666 
L 1259 531 
L 3531 531 
L 3531 0 
L 628 0 
L 628 4666 
z
" transform="scale(0.015625)"/>
      <path id="DejaVuSans-5a" d="M 359 4666 
L 4025 4666 
L 4025 4184 
L 1075 531 
L 4097 531 
L 4097 0 
L 288 0 
L 288 481 
L 3238 4134 
L 359 4134 
L 359 4666 
z
" transform="scale(0.015625)"/>
     </defs>
     <use xlink:href="#DejaVuSans-42"/>
     <use xlink:href="#DejaVuSans-4c" x="68.603516"/>
     <use xlink:href="#DejaVuSans-5a" x="124.316406"/>
    </g>
   </g>
   <g id="text_7">
    <!-- BOL -->
    <g transform="translate(855.718785 1094.632218) scale(0.06 -0.06)">
     <defs>
      <path id="DejaVuSans-4f" d="M 2522 4238 
Q 1834 4238 1429 3725 
Q 1025 3213 1025 2328 
Q 1025 1447 1429 934 
Q 1834 422 2522 422 
Q 3209 422 3611 934 
Q 4013 1447 4013 2328 
Q 4013 3213 3611 3725 
Q 3209 4238 2522 4238 
z
M 2522 4750 
Q 3503 4750 4090 4092 
Q 4678 3434 4678 2328 
Q 4678 1225 4090 567 
Q 3503 -91 2522 -91 
Q 1538 -91 948 565 
Q 359 1222 359 2328 
Q 359 3434 948 4092 
Q 1538 4750 2522 4750 
z
" transform="scale(0.015625)"/>
     </defs>
     <use xlink:href="#DejaVuSans-42"/>
     <use xlink:href="#DejaVuSans-4f" x="66.853516"/>
     <use xlink:href="#DejaVuSans-4c" x="145.564453"/>
    </g>
   </g>
   <g id="text_8">
    <!-- HND -->
    <g transform="translate(644.637696 844.792585) scale(0.06 -0.06)">
     <defs>
      <path id="DejaVuSans-48" d="M 628 4666 
L 1259 4666 
L 1259 2753 
L 3553 2753 
L 3553 4666 
L 4184 4666 
L 4184 0 
L 3553 0 
L 3553 2222 
L 1259 2222 
L 1259 0 
L 628 0 
L 628 4666 
z
" transform="scale(0.015625)"/>
      <path id="DejaVuSans-44" d="M 1259 4147 
L 1259 519 
L 2022 519 
Q 2988 519 3436 956 
Q 3884 1394 3884 2338 
Q 3884 3275 3436 3711 
Q 2988 4147 2022 4147 
L 1259 4147 
z
M 628 4666 
L 1925 4666 
Q 3281 4666 3915 4102 
Q 4550 3538 4550 2338 
Q 4550 1131 3912 565 
Q 3275 0 1925 0 
L 628 0 
L 628 4666 
z
" transform="scale(0.015625)"/>
     </defs>
     <use xlink:href="#DejaVuSans-48"/>
     <use xlink:href="#DejaVuSans-4e" x="75.195312"/>
     <use xlink:href="#DejaVuSans-44" x="150"/>
    </g>
   </g>
   <g id="text_9">
    <!-- PRY -->
    <g transform="translate(895.479063 1117.099464) scale(0.06 -0.06)">
     <defs>
      <path id="DejaVuSans-50" d="M 1259 4147 
L 1259 2394 
L 2053 2394 
Q 2494 2394 2734 2622 
Q 2975 2850 2975 3272 
Q 2975 3691 2734 3919 
Q 2494 4147 2053 4147 
L 1259 4147 
z
M 628 4666 
L 2053 4666 
Q 2838 4666 3239 4311 
Q 3641 3956 3641 3272 
Q 3641 2581 3239 2228 
Q 2838 1875 2053 1875 
L 1259 1875 
L 1259 0 
L 628 0 
L 628 4666 
z
" transform="scale(0.015625)"/>
      <path id="DejaVuSans-59" d="M -13 4666 
L 666 4666 
L 1959 2747 
L 3244 4666 
L 3922 4666 
L 2272 2222 
L 2272 0 
L 1638 0 
L 1638 2222 
L -13 4666 
z
" transform="scale(0.015625)"/>
     </defs>
     <use xlink:href="#DejaVuSans-50"/>
     <use xlink:href="#DejaVuSans-52" x="60.302734"/>
     <use xlink:href="#DejaVuSans-59" x="123.410156"/>
    </g>
   </g>
   <g id="text_10">
    <!-- CAN -->
    <g transform="translate(532.972447 270.736882) scale(0.06 -0.06)">
     <use xlink:href="#DejaVuSans-43"/>
     <use xlink:href="#DejaVuSans-41" x="69.824219"/>
     <use xlink:href="#DejaVuSans-4e" x="138.232422"/>
    </g>
   </g>
   <g id="text_11">
    <!-- URY -->
    <g transform="translate(931.153174 1153.441012) scale(0.06 -0.06)">
     <use xlink:href="#DejaVuSans-55"/>
     <use xlink:href="#DejaVuSans-52" x="73.193359"/>
     <use xlink:href="#DejaVuSans-59" x="136.300781"/>
    </g>
   </g>
   <g id="text_12">
    <!-- SLV -->
    <g transform="translate(611.843569 869.996887) scale(0.06 -0.06)">
     <defs>
      <path id="DejaVuSans-56" d="M 1831 0 
L 50 4666 
L 709 4666 
L 2188 738 
L 3669 4666 
L 4325 4666 
L 2547 0 
L 1831 0 
z
" transform="scale(0.015625)"/>
     </defs>
     <use xlink:href="#DejaVuSans-53"/>
     <use xlink:href="#DejaVuSans-4c" x="63.476562"/>
     <use xlink:href="#DejaVuSans-56" x="108.189453"/>
    </g>
   </g>
   <g id="text_13">
    <!-- MEX -->
    <g transform="translate(533.434974 722.290053) scale(0.06 -0.06)">
     <defs>
      <path id="DejaVuSans-4d" d="M 628 4666 
L 1569 4666 
L 2759 1491 
L 3956 4666 
L 4897 4666 
L 4897 0 
L 4281 0 
L 4281 4097 
L 3078 897 
L 2444 897 
L 1241 4097 
L 1241 0 
L 628 0 
L 628 4666 
z
" transform="scale(0.015625)"/>
      <path id="DejaVuSans-58" d="M 403 4666 
L 1081 4666 
L 2241 2931 
L 3406 4666 
L 4084 4666 
L 2584 2425 
L 4184 0 
L 3506 0 
L 2194 1984 
L 872 0 
L 191 0 
L 1856 2491 
L 403 4666 
z
" transform="scale(0.015625)"/>
     </defs>
     <use xlink:href="#DejaVuSans-4d"/>
     <use xlink:href="#DejaVuSans-45" x="86.279297"/>
     <use xlink:href="#DejaVuSans-58" x="149.462891"/>
    </g>
   </g>
   <g id="text_14">
    <!-- CRI -->
    <g transform="translate(695.585599 902.064201) scale(0.06 -0.06)">
     <use xlink:href="#DejaVuSans-43"/>
     <use xlink:href="#DejaVuSans-52" x="69.824219"/>
     <use xlink:href="#DejaVuSans-49" x="139.306641"/>
    </g>
   </g>
   <g id="text_15">
    <!-- PAN -->
    <g transform="translate(726.162638 909.92081) scale(0.06 -0.06)">
     <use xlink:href="#DejaVuSans-50"/>
     <use xlink:href="#DejaVuSans-41" x="53.927734"/>
     <use xlink:href="#DejaVuSans-4e" x="122.335938"/>
    </g>
   </g>
   <g id="text_16">
    <!-- GTM -->
    <g transform="translate(596.018956 818.544813) scale(0.06 -0.06)">
     <defs>
      <path id="DejaVuSans-54" d="M -19 4666 
L 3928 4666 
L 3928 4134 
L 2272 4134 
L 2272 0 
L 1638 0 
L 1638 4134 
L -19 4134 
L -19 4666 
z
" transform="scale(0.015625)"/>
     </defs>
     <use xlink:href="#DejaVuSans-47"/>
     <use xlink:href="#DejaVuSans-54" x="73.865234"/>
     <use xlink:href="#DejaVuSans-4d" x="134.949219"/>
    </g>
   </g>
   <g id="text_17">
    <!-- VEN -->
    <g transform="translate(896.955262 869.240303) scale(0.06 -0.06)">
     <use xlink:href="#DejaVuSans-56"/>
     <use xlink:href="#DejaVuSans-45" x="68.408203"/>
     <use xlink:href="#DejaVuSans-4e" x="131.591797"/>
    </g>
   </g>
   <g id="text_18">
    <!-- CHL -->
    <g transform="translate(810.507503 1131.796573) scale(0.06 -0.06)">
     <use xlink:href="#DejaVuSans-43"/>
     <use xlink:href="#DejaVuSans-48" x="69.824219"/>
     <use xlink:href="#DejaVuSans-4c" x="145.019531"/>
    </g>
   </g>
   <g id="text_19">
    <!-- PER -->
    <g transform="translate(797.961132 1057.05678) scale(0.06 -0.06)">
     <use xlink:href="#DejaVuSans-50"/>
     <use xlink:href="#DejaVuSans-45" x="60.302734"/>
     <use xlink:href="#DejaVuSans-52" x="123.486328"/>
    </g>
   </g>
   <g id="text_20">
    <!-- USA -->
    <g transform="translate(535.812702 477.222104) scale(0.06 -0.06)">
     <use xlink:href="#DejaVuSans-55"/>
     <use xlink:href="#DejaVuSans-53" x="73.193359"/>
     <use xlink:href="#DejaVuSans-41" x="138.544922"/>
    </g>
   </g>
   <g id="text_21">
    <!-- COL -->
    <g transform="translate(809.870769 934.928939) scale(0.06 -0.06)">
     <use xlink:href="#DejaVuSans-43"/>
     <use xlink:href="#DejaVuSans-4f" x="69.824219"/>
     <use xlink:href="#DejaVuSans-4c" x="148.535156"/>
    </g>
   </g>
   <g id="text_22">
    <!-- GUF -->
    <g transform="translate(961.276046 891.435676) scale(0.06 -0.06)">
     <defs>
      <path id="DejaVuSans-46" d="M 628 4666 
L 3309 4666 
L 3309 4134 
L 1259 4134 
L 1259 2759 
L 3109 2759 
L 3109 2228 
L 1259 2228 
L 1259 0 
L 628 0 
L 628 4666 
z
" transform="scale(0.015625)"/>
     </defs>
     <use xlink:href="#DejaVuSans-47"/>
     <use xlink:href="#DejaVuSans-55" x="77.490234"/>
     <use xlink:href="#DejaVuSans-46" x="150.683594"/>
    </g>
   </g>
   <g id="text_23">
    <!-- GUY -->
    <g transform="translate(939.380471 887.468929) scale(0.06 -0.06)">
     <use xlink:href="#DejaVuSans-47"/>
     <use xlink:href="#DejaVuSans-55" x="77.490234"/>
     <use xlink:href="#DejaVuSans-59" x="150.683594"/>
    </g>
   </g>
   <g id="text_24">
    <!-- D:18.68 -->
    <g transform="translate(871.323678 1132.685894) scale(0.04 -0.04)">
     <defs>
      <path id="DejaVuSans-3a" d="M 750 794 
L 1409 794 
L 1409 0 
L 750 0 
L 750 794 
z
M 750 3309 
L 1409 3309 
L 1409 2516 
L 750 2516 
L 750 3309 
z
" transform="scale(0.015625)"/>
      <path id="DejaVuSans-31" d="M 794 531 
L 1825 531 
L 1825 4091 
L 703 3866 
L 703 4441 
L 1819 4666 
L 2450 4666 
L 2450 531 
L 3481 531 
L 3481 0 
L 794 0 
L 794 531 
z
" transform="scale(0.015625)"/>
      <path id="DejaVuSans-38" d="M 2034 2216 
Q 1584 2216 1326 1975 
Q 1069 1734 1069 1313 
Q 1069 891 1326 650 
Q 1584 409 2034 409 
Q 2484 409 2743 651 
Q 3003 894 3003 1313 
Q 3003 1734 2745 1975 
Q 2488 2216 2034 2216 
z
M 1403 2484 
Q 997 2584 770 2862 
Q 544 3141 544 3541 
Q 544 4100 942 4425 
Q 1341 4750 2034 4750 
Q 2731 4750 3128 4425 
Q 3525 4100 3525 3541 
Q 3525 3141 3298 2862 
Q 3072 2584 2669 2484 
Q 3125 2378 3379 2068 
Q 3634 1759 3634 1313 
Q 3634 634 3220 271 
Q 2806 -91 2034 -91 
Q 1263 -91 848 271 
Q 434 634 434 1313 
Q 434 1759 690 2068 
Q 947 2378 1403 2484 
z
M 1172 3481 
Q 1172 3119 1398 2916 
Q 1625 2713 2034 2713 
Q 2441 2713 2670 2916 
Q 2900 3119 2900 3481 
Q 2900 3844 2670 4047 
Q 2441 4250 2034 4250 
Q 1625 4250 1398 4047 
Q 1172 3844 1172 3481 
z
" transform="scale(0.015625)"/>
      <path id="DejaVuSans-2e" d="M 684 794 
L 1344 794 
L 1344 0 
L 684 0 
L 684 794 
z
" transform="scale(0.015625)"/>
      <path id="DejaVuSans-36" d="M 2113 2584 
Q 1688 2584 1439 2293 
Q 1191 2003 1191 1497 
Q 1191 994 1439 701 
Q 1688 409 2113 409 
Q 2538 409 2786 701 
Q 3034 994 3034 1497 
Q 3034 2003 2786 2293 
Q 2538 2584 2113 2584 
z
M 3366 4563 
L 3366 3988 
Q 3128 4100 2886 4159 
Q 2644 4219 2406 4219 
Q 1781 4219 1451 3797 
Q 1122 3375 1075 2522 
Q 1259 2794 1537 2939 
Q 1816 3084 2150 3084 
Q 2853 3084 3261 2657 
Q 3669 2231 3669 1497 
Q 3669 778 3244 343 
Q 2819 -91 2113 -91 
Q 1303 -91 875 529 
Q 447 1150 447 2328 
Q 447 3434 972 4092 
Q 1497 4750 2381 4750 
Q 2619 4750 2861 4703 
Q 3103 4656 3366 4563 
z
" transform="scale(0.015625)"/>
     </defs>
     <use xlink:href="#DejaVuSans-44"/>
     <use xlink:href="#DejaVuSans-3a" x="77.001953"/>
     <use xlink:href="#DejaVuSans-31" x="110.693359"/>
     <use xlink:href="#DejaVuSans-38" x="174.316406"/>
     <use xlink:href="#DejaVuSans-2e" x="237.939453"/>
     <use xlink:href="#DejaVuSans-36" x="269.726562"/>
     <use xlink:href="#DejaVuSans-38" x="333.349609"/>
    </g>
    <!-- A:1.21 -->
    <g transform="translate(871.323678 1137.165019) scale(0.04 -0.04)">
     <defs>
      <path id="DejaVuSans-32" d="M 1228 531 
L 3431 531 
L 3431 0 
L 469 0 
L 469 531 
Q 828 903 1448 1529 
Q 2069 2156 2228 2338 
Q 2531 2678 2651 2914 
Q 2772 3150 2772 3378 
Q 2772 3750 2511 3984 
Q 2250 4219 1831 4219 
Q 1534 4219 1204 4116 
Q 875 4013 500 3803 
L 500 4441 
Q 881 4594 1212 4672 
Q 1544 4750 1819 4750 
Q 2544 4750 2975 4387 
Q 3406 4025 3406 3419 
Q 3406 3131 3298 2873 
Q 3191 2616 2906 2266 
Q 2828 2175 2409 1742 
Q 1991 1309 1228 531 
z
" transform="scale(0.015625)"/>
     </defs>
     <use xlink:href="#DejaVuSans-41"/>
     <use xlink:href="#DejaVuSans-3a" x="66.658203"/>
     <use xlink:href="#DejaVuSans-31" x="100.349609"/>
     <use xlink:href="#DejaVuSans-2e" x="163.972656"/>
     <use xlink:href="#DejaVuSans-32" x="195.759766"/>
     <use xlink:href="#DejaVuSans-31" x="259.382812"/>
    </g>
   </g>
   <g id="text_25">
    <!-- A:1.21 -->
    <g transform="translate(871.323678 1137.165019) scale(0.04 -0.04)">
     <use xlink:href="#DejaVuSans-41"/>
     <use xlink:href="#DejaVuSans-3a" x="66.658203"/>
     <use xlink:href="#DejaVuSans-31" x="100.349609"/>
     <use xlink:href="#DejaVuSans-2e" x="163.972656"/>
     <use xlink:href="#DejaVuSans-32" x="195.759766"/>
     <use xlink:href="#DejaVuSans-31" x="259.382812"/>
    </g>
   </g>
   <g id="text_26">
    <!-- D:27.42 -->
    <g transform="translate(921.166227 1087.922451) scale(0.04 -0.04)">
     <defs>
      <path id="DejaVuSans-37" d="M 525 4666 
L 3525 4666 
L 3525 4397 
L 1831 0 
L 1172 0 
L 2766 4134 
L 525 4134 
L 525 4666 
z
" transform="scale(0.015625)"/>
      <path id="DejaVuSans-34" d="M 2419 4116 
L 825 1625 
L 2419 1625 
L 2419 4116 
z
M 2253 4666 
L 3047 4666 
L 3047 1625 
L 3713 1625 
L 3713 1100 
L 3047 1100 
L 3047 0 
L 2419 0 
L 2419 1100 
L 313 1100 
L 313 1709 
L 2253 4666 
z
" transform="scale(0.015625)"/>
     </defs>
     <use xlink:href="#DejaVuSans-44"/>
     <use xlink:href="#DejaVuSans-3a" x="77.001953"/>
     <use xlink:href="#DejaVuSans-32" x="110.693359"/>
     <use xlink:href="#DejaVuSans-37" x="174.316406"/>
     <use xlink:href="#DejaVuSans-2e" x="237.939453"/>
     <use xlink:href="#DejaVuSans-34" x="269.726562"/>
     <use xlink:href="#DejaVuSans-32" x="333.349609"/>
    </g>
    <!-- A:0.22 -->
    <g transform="translate(921.166227 1092.401576) scale(0.04 -0.04)">
     <defs>
      <path id="DejaVuSans-30" d="M 2034 4250 
Q 1547 4250 1301 3770 
Q 1056 3291 1056 2328 
Q 1056 1369 1301 889 
Q 1547 409 2034 409 
Q 2525 409 2770 889 
Q 3016 1369 3016 2328 
Q 3016 3291 2770 3770 
Q 2525 4250 2034 4250 
z
M 2034 4750 
Q 2819 4750 3233 4129 
Q 3647 3509 3647 2328 
Q 3647 1150 3233 529 
Q 2819 -91 2034 -91 
Q 1250 -91 836 529 
Q 422 1150 422 2328 
Q 422 3509 836 4129 
Q 1250 4750 2034 4750 
z
" transform="scale(0.015625)"/>
     </defs>
     <use xlink:href="#DejaVuSans-41"/>
     <use xlink:href="#DejaVuSans-3a" x="66.658203"/>
     <use xlink:href="#DejaVuSans-30" x="100.349609"/>
     <use xlink:href="#DejaVuSans-2e" x="163.972656"/>
     <use xlink:href="#DejaVuSans-32" x="195.759766"/>
     <use xlink:href="#DejaVuSans-32" x="259.382812"/>
    </g>
   </g>
   <g id="text_27">
    <!-- A:0.22 -->
    <g transform="translate(921.166227 1092.401576) scale(0.04 -0.04)">
     <use xlink:href="#DejaVuSans-41"/>
     <use xlink:href="#DejaVuSans-3a" x="66.658203"/>
     <use xlink:href="#DejaVuSans-30" x="100.349609"/>
     <use xlink:href="#DejaVuSans-2e" x="163.972656"/>
     <use xlink:href="#DejaVuSans-32" x="195.759766"/>
     <use xlink:href="#DejaVuSans-32" x="259.382812"/>
    </g>
   </g>
   <g id="text_28">
    <!-- A:1.19 -->
    <g transform="translate(848.709834 1155.747196) scale(0.04 -0.04)">
     <defs>
      <path id="DejaVuSans-39" d="M 703 97 
L 703 672 
Q 941 559 1184 500 
Q 1428 441 1663 441 
Q 2288 441 2617 861 
Q 2947 1281 2994 2138 
Q 2813 1869 2534 1725 
Q 2256 1581 1919 1581 
Q 1219 1581 811 2004 
Q 403 2428 403 3163 
Q 403 3881 828 4315 
Q 1253 4750 1959 4750 
Q 2769 4750 3195 4129 
Q 3622 3509 3622 2328 
Q 3622 1225 3098 567 
Q 2575 -91 1691 -91 
Q 1453 -91 1209 -44 
Q 966 3 703 97 
z
M 1959 2075 
Q 2384 2075 2632 2365 
Q 2881 2656 2881 3163 
Q 2881 3666 2632 3958 
Q 2384 4250 1959 4250 
Q 1534 4250 1286 3958 
Q 1038 3666 1038 3163 
Q 1038 2656 1286 2365 
Q 1534 2075 1959 2075 
z
" transform="scale(0.015625)"/>
     </defs>
     <use xlink:href="#DejaVuSans-41"/>
     <use xlink:href="#DejaVuSans-3a" x="66.658203"/>
     <use xlink:href="#DejaVuSans-31" x="100.349609"/>
     <use xlink:href="#DejaVuSans-2e" x="163.972656"/>
     <use xlink:href="#DejaVuSans-31" x="195.759766"/>
     <use xlink:href="#DejaVuSans-39" x="259.382812"/>
    </g>
   </g>
   <g id="text_29">
    <!-- A:2.09 -->
    <g transform="translate(890.951629 1148.398642) scale(0.04 -0.04)">
     <use xlink:href="#DejaVuSans-41"/>
     <use xlink:href="#DejaVuSans-3a" x="66.658203"/>
     <use xlink:href="#DejaVuSans-32" x="100.349609"/>
     <use xlink:href="#DejaVuSans-2e" x="163.972656"/>
     <use xlink:href="#DejaVuSans-30" x="195.759766"/>
     <use xlink:href="#DejaVuSans-39" x="259.382812"/>
    </g>
   </g>
   <g id="text_30">
    <!-- D:0.00 -->
    <g transform="translate(908.982044 1162.090291) scale(0.04 -0.04)">
     <use xlink:href="#DejaVuSans-44"/>
     <use xlink:href="#DejaVuSans-3a" x="77.001953"/>
     <use xlink:href="#DejaVuSans-30" x="110.693359"/>
     <use xlink:href="#DejaVuSans-2e" x="174.316406"/>
     <use xlink:href="#DejaVuSans-30" x="206.103516"/>
     <use xlink:href="#DejaVuSans-30" x="269.726562"/>
    </g>
    <!-- A:6.57 -->
    <g transform="translate(908.982044 1166.569416) scale(0.04 -0.04)">
     <defs>
      <path id="DejaVuSans-35" d="M 691 4666 
L 3169 4666 
L 3169 4134 
L 1269 4134 
L 1269 2991 
Q 1406 3038 1543 3061 
Q 1681 3084 1819 3084 
Q 2600 3084 3056 2656 
Q 3513 2228 3513 1497 
Q 3513 744 3044 326 
Q 2575 -91 1722 -91 
Q 1428 -91 1123 -41 
Q 819 9 494 109 
L 494 744 
Q 775 591 1075 516 
Q 1375 441 1709 441 
Q 2250 441 2565 725 
Q 2881 1009 2881 1497 
Q 2881 1984 2565 2268 
Q 2250 2553 1709 2553 
Q 1456 2553 1204 2497 
Q 953 2441 691 2322 
L 691 4666 
z
" transform="scale(0.015625)"/>
     </defs>
     <use xlink:href="#DejaVuSans-41"/>
     <use xlink:href="#DejaVuSans-3a" x="66.658203"/>
     <use xlink:href="#DejaVuSans-36" x="100.349609"/>
     <use xlink:href="#DejaVuSans-2e" x="163.972656"/>
     <use xlink:href="#DejaVuSans-35" x="195.759766"/>
     <use xlink:href="#DejaVuSans-37" x="259.382812"/>
    </g>
   </g>
   <g id="text_31">
    <!-- A:6.57 -->
    <g transform="translate(908.982044 1166.569416) scale(0.04 -0.04)">
     <use xlink:href="#DejaVuSans-41"/>
     <use xlink:href="#DejaVuSans-3a" x="66.658203"/>
     <use xlink:href="#DejaVuSans-36" x="100.349609"/>
     <use xlink:href="#DejaVuSans-2e" x="163.972656"/>
     <use xlink:href="#DejaVuSans-35" x="195.759766"/>
     <use xlink:href="#DejaVuSans-37" x="259.382812"/>
    </g>
   </g>
   <g id="text_32">
    <!-- A:0.74 -->
    <g transform="translate(911.600241 1048.21315) scale(0.04 -0.04)">
     <use xlink:href="#DejaVuSans-41"/>
     <use xlink:href="#DejaVuSans-3a" x="66.658203"/>
     <use xlink:href="#DejaVuSans-30" x="100.349609"/>
     <use xlink:href="#DejaVuSans-2e" x="163.972656"/>
     <use xlink:href="#DejaVuSans-37" x="195.759766"/>
     <use xlink:href="#DejaVuSans-34" x="259.382812"/>
    </g>
   </g>
   <g id="text_33">
    <!-- A:10.28 -->
    <g transform="translate(839.143847 1111.558771) scale(0.04 -0.04)">
     <use xlink:href="#DejaVuSans-41"/>
     <use xlink:href="#DejaVuSans-3a" x="66.658203"/>
     <use xlink:href="#DejaVuSans-31" x="100.349609"/>
     <use xlink:href="#DejaVuSans-30" x="163.972656"/>
     <use xlink:href="#DejaVuSans-2e" x="227.595703"/>
     <use xlink:href="#DejaVuSans-32" x="259.382812"/>
     <use xlink:href="#DejaVuSans-38" x="323.005859"/>
    </g>
   </g>
   <g id="text_34">
    <!-- A:1.81 -->
    <g transform="translate(881.385643 1104.210216) scale(0.04 -0.04)">
     <use xlink:href="#DejaVuSans-41"/>
     <use xlink:href="#DejaVuSans-3a" x="66.658203"/>
     <use xlink:href="#DejaVuSans-31" x="100.349609"/>
     <use xlink:href="#DejaVuSans-2e" x="163.972656"/>
     <use xlink:href="#DejaVuSans-38" x="195.759766"/>
     <use xlink:href="#DejaVuSans-31" x="259.382812"/>
    </g>
   </g>
   <g id="text_35">
    <!-- D:0.00 -->
    <g transform="translate(832.753943 1069.709749) scale(0.04 -0.04)">
     <use xlink:href="#DejaVuSans-44"/>
     <use xlink:href="#DejaVuSans-3a" x="77.001953"/>
     <use xlink:href="#DejaVuSans-30" x="110.693359"/>
     <use xlink:href="#DejaVuSans-2e" x="174.316406"/>
     <use xlink:href="#DejaVuSans-30" x="206.103516"/>
     <use xlink:href="#DejaVuSans-30" x="269.726562"/>
    </g>
    <!-- A:0.00 -->
    <g transform="translate(832.753943 1074.188874) scale(0.04 -0.04)">
     <use xlink:href="#DejaVuSans-41"/>
     <use xlink:href="#DejaVuSans-3a" x="66.658203"/>
     <use xlink:href="#DejaVuSans-30" x="100.349609"/>
     <use xlink:href="#DejaVuSans-2e" x="163.972656"/>
     <use xlink:href="#DejaVuSans-30" x="195.759766"/>
     <use xlink:href="#DejaVuSans-30" x="259.382812"/>
    </g>
   </g>
   <g id="text_36">
    <!-- A:0.00 -->
    <g transform="translate(832.753943 1074.188874) scale(0.04 -0.04)">
     <use xlink:href="#DejaVuSans-41"/>
     <use xlink:href="#DejaVuSans-3a" x="66.658203"/>
     <use xlink:href="#DejaVuSans-30" x="100.349609"/>
     <use xlink:href="#DejaVuSans-2e" x="163.972656"/>
     <use xlink:href="#DejaVuSans-30" x="195.759766"/>
     <use xlink:href="#DejaVuSans-30" x="259.382812"/>
    </g>
   </g>
   <g id="text_37">
    <!-- A:2.90 -->
    <g transform="translate(888.720764 968.361511) scale(0.04 -0.04)">
     <use xlink:href="#DejaVuSans-41"/>
     <use xlink:href="#DejaVuSans-3a" x="66.658203"/>
     <use xlink:href="#DejaVuSans-32" x="100.349609"/>
     <use xlink:href="#DejaVuSans-2e" x="163.972656"/>
     <use xlink:href="#DejaVuSans-39" x="195.759766"/>
     <use xlink:href="#DejaVuSans-30" x="259.382812"/>
    </g>
   </g>
   <g id="text_38">
    <!-- D:0.07 -->
    <g transform="translate(964.48223 942.135754) scale(0.04 -0.04)">
     <use xlink:href="#DejaVuSans-44"/>
     <use xlink:href="#DejaVuSans-3a" x="77.001953"/>
     <use xlink:href="#DejaVuSans-30" x="110.693359"/>
     <use xlink:href="#DejaVuSans-2e" x="174.316406"/>
     <use xlink:href="#DejaVuSans-30" x="206.103516"/>
     <use xlink:href="#DejaVuSans-37" x="269.726562"/>
    </g>
    <!-- A:0.40 -->
    <g transform="translate(964.48223 946.614879) scale(0.04 -0.04)">
     <use xlink:href="#DejaVuSans-41"/>
     <use xlink:href="#DejaVuSans-3a" x="66.658203"/>
     <use xlink:href="#DejaVuSans-30" x="100.349609"/>
     <use xlink:href="#DejaVuSans-2e" x="163.972656"/>
     <use xlink:href="#DejaVuSans-34" x="195.759766"/>
     <use xlink:href="#DejaVuSans-30" x="259.382812"/>
    </g>
   </g>
   <g id="text_39">
    <!-- A:0.40 -->
    <g transform="translate(964.48223 946.614879) scale(0.04 -0.04)">
     <use xlink:href="#DejaVuSans-41"/>
     <use xlink:href="#DejaVuSans-3a" x="66.658203"/>
     <use xlink:href="#DejaVuSans-30" x="100.349609"/>
     <use xlink:href="#DejaVuSans-2e" x="163.972656"/>
     <use xlink:href="#DejaVuSans-34" x="195.759766"/>
     <use xlink:href="#DejaVuSans-30" x="259.382812"/>
    </g>
   </g>
   <g id="text_40">
    <!-- D:0.50 -->
    <g transform="translate(953.587881 940.152381) scale(0.04 -0.04)">
     <use xlink:href="#DejaVuSans-44"/>
     <use xlink:href="#DejaVuSans-3a" x="77.001953"/>
     <use xlink:href="#DejaVuSans-30" x="110.693359"/>
     <use xlink:href="#DejaVuSans-2e" x="174.316406"/>
     <use xlink:href="#DejaVuSans-35" x="206.103516"/>
     <use xlink:href="#DejaVuSans-30" x="269.726562"/>
    </g>
    <!-- A:0.83 -->
    <g transform="translate(953.587881 944.631506) scale(0.04 -0.04)">
     <defs>
      <path id="DejaVuSans-33" d="M 2597 2516 
Q 3050 2419 3304 2112 
Q 3559 1806 3559 1356 
Q 3559 666 3084 287 
Q 2609 -91 1734 -91 
Q 1441 -91 1130 -33 
Q 819 25 488 141 
L 488 750 
Q 750 597 1062 519 
Q 1375 441 1716 441 
Q 2309 441 2620 675 
Q 2931 909 2931 1356 
Q 2931 1769 2642 2001 
Q 2353 2234 1838 2234 
L 1294 2234 
L 1294 2753 
L 1863 2753 
Q 2328 2753 2575 2939 
Q 2822 3125 2822 3475 
Q 2822 3834 2567 4026 
Q 2313 4219 1838 4219 
Q 1578 4219 1281 4162 
Q 984 4106 628 3988 
L 628 4550 
Q 988 4650 1302 4700 
Q 1616 4750 1894 4750 
Q 2613 4750 3031 4423 
Q 3450 4097 3450 3541 
Q 3450 3153 3228 2886 
Q 3006 2619 2597 2516 
z
" transform="scale(0.015625)"/>
     </defs>
     <use xlink:href="#DejaVuSans-41"/>
     <use xlink:href="#DejaVuSans-3a" x="66.658203"/>
     <use xlink:href="#DejaVuSans-30" x="100.349609"/>
     <use xlink:href="#DejaVuSans-2e" x="163.972656"/>
     <use xlink:href="#DejaVuSans-38" x="195.759766"/>
     <use xlink:href="#DejaVuSans-33" x="259.382812"/>
    </g>
   </g>
   <g id="text_41">
    <!-- A:0.83 -->
    <g transform="translate(953.587881 944.631506) scale(0.04 -0.04)">
     <use xlink:href="#DejaVuSans-41"/>
     <use xlink:href="#DejaVuSans-3a" x="66.658203"/>
     <use xlink:href="#DejaVuSans-30" x="100.349609"/>
     <use xlink:href="#DejaVuSans-2e" x="163.972656"/>
     <use xlink:href="#DejaVuSans-38" x="195.759766"/>
     <use xlink:href="#DejaVuSans-33" x="259.382812"/>
    </g>
   </g>
   <g id="text_42">
    <!-- A:3.64 -->
    <g transform="translate(931.228192 1059.446773) scale(0.04 -0.04)">
     <use xlink:href="#DejaVuSans-41"/>
     <use xlink:href="#DejaVuSans-3a" x="66.658203"/>
     <use xlink:href="#DejaVuSans-33" x="100.349609"/>
     <use xlink:href="#DejaVuSans-2e" x="163.972656"/>
     <use xlink:href="#DejaVuSans-36" x="195.759766"/>
     <use xlink:href="#DejaVuSans-34" x="259.382812"/>
    </g>
   </g>
   <g id="text_43">
    <!-- D:4.55 -->
    <g transform="translate(882.596492 1024.946306) scale(0.04 -0.04)">
     <use xlink:href="#DejaVuSans-44"/>
     <use xlink:href="#DejaVuSans-3a" x="77.001953"/>
     <use xlink:href="#DejaVuSans-34" x="110.693359"/>
     <use xlink:href="#DejaVuSans-2e" x="174.316406"/>
     <use xlink:href="#DejaVuSans-35" x="206.103516"/>
     <use xlink:href="#DejaVuSans-35" x="269.726562"/>
    </g>
    <!-- A:5.13 -->
    <g transform="translate(882.596492 1029.425431) scale(0.04 -0.04)">
     <use xlink:href="#DejaVuSans-41"/>
     <use xlink:href="#DejaVuSans-3a" x="66.658203"/>
     <use xlink:href="#DejaVuSans-35" x="100.349609"/>
     <use xlink:href="#DejaVuSans-2e" x="163.972656"/>
     <use xlink:href="#DejaVuSans-31" x="195.759766"/>
     <use xlink:href="#DejaVuSans-33" x="259.382812"/>
    </g>
   </g>
   <g id="text_44">
    <!-- A:5.13 -->
    <g transform="translate(882.596492 1029.425431) scale(0.04 -0.04)">
     <use xlink:href="#DejaVuSans-41"/>
     <use xlink:href="#DejaVuSans-3a" x="66.658203"/>
     <use xlink:href="#DejaVuSans-35" x="100.349609"/>
     <use xlink:href="#DejaVuSans-2e" x="163.972656"/>
     <use xlink:href="#DejaVuSans-31" x="195.759766"/>
     <use xlink:href="#DejaVuSans-33" x="259.382812"/>
    </g>
   </g>
   <g id="text_45">
    <!-- A:0.07 -->
    <g transform="translate(959.515599 946.572604) scale(0.04 -0.04)">
     <use xlink:href="#DejaVuSans-41"/>
     <use xlink:href="#DejaVuSans-3a" x="66.658203"/>
     <use xlink:href="#DejaVuSans-30" x="100.349609"/>
     <use xlink:href="#DejaVuSans-2e" x="163.972656"/>
     <use xlink:href="#DejaVuSans-30" x="195.759766"/>
     <use xlink:href="#DejaVuSans-37" x="259.382812"/>
    </g>
   </g>
   <g id="text_46">
    <!-- D:26.91 -->
    <g transform="translate(949.258607 1073.138422) scale(0.04 -0.04)">
     <use xlink:href="#DejaVuSans-44"/>
     <use xlink:href="#DejaVuSans-3a" x="77.001953"/>
     <use xlink:href="#DejaVuSans-32" x="110.693359"/>
     <use xlink:href="#DejaVuSans-36" x="174.316406"/>
     <use xlink:href="#DejaVuSans-2e" x="237.939453"/>
     <use xlink:href="#DejaVuSans-39" x="269.726562"/>
     <use xlink:href="#DejaVuSans-31" x="333.349609"/>
    </g>
    <!-- A:0.72 -->
    <g transform="translate(949.258607 1077.617547) scale(0.04 -0.04)">
     <use xlink:href="#DejaVuSans-41"/>
     <use xlink:href="#DejaVuSans-3a" x="66.658203"/>
     <use xlink:href="#DejaVuSans-30" x="100.349609"/>
     <use xlink:href="#DejaVuSans-2e" x="163.972656"/>
     <use xlink:href="#DejaVuSans-37" x="195.759766"/>
     <use xlink:href="#DejaVuSans-32" x="259.382812"/>
    </g>
   </g>
   <g id="text_47">
    <!-- A:0.72 -->
    <g transform="translate(949.258607 1077.617547) scale(0.04 -0.04)">
     <use xlink:href="#DejaVuSans-41"/>
     <use xlink:href="#DejaVuSans-3a" x="66.658203"/>
     <use xlink:href="#DejaVuSans-30" x="100.349609"/>
     <use xlink:href="#DejaVuSans-2e" x="163.972656"/>
     <use xlink:href="#DejaVuSans-37" x="195.759766"/>
     <use xlink:href="#DejaVuSans-32" x="259.382812"/>
    </g>
   </g>
   <g id="text_48">
    <!-- A:1.04 -->
    <g transform="translate(932.29512 935.517193) scale(0.04 -0.04)">
     <use xlink:href="#DejaVuSans-41"/>
     <use xlink:href="#DejaVuSans-3a" x="66.658203"/>
     <use xlink:href="#DejaVuSans-31" x="100.349609"/>
     <use xlink:href="#DejaVuSans-2e" x="163.972656"/>
     <use xlink:href="#DejaVuSans-30" x="195.759766"/>
     <use xlink:href="#DejaVuSans-34" x="259.382812"/>
    </g>
   </g>
   <g id="text_49">
    <!-- D:0.04 -->
    <g transform="translate(610.409912 795.961411) scale(0.04 -0.04)">
     <use xlink:href="#DejaVuSans-44"/>
     <use xlink:href="#DejaVuSans-3a" x="77.001953"/>
     <use xlink:href="#DejaVuSans-30" x="110.693359"/>
     <use xlink:href="#DejaVuSans-2e" x="174.316406"/>
     <use xlink:href="#DejaVuSans-30" x="206.103516"/>
     <use xlink:href="#DejaVuSans-34" x="269.726562"/>
    </g>
    <!-- A:3.13 -->
    <g transform="translate(610.409912 800.440536) scale(0.04 -0.04)">
     <use xlink:href="#DejaVuSans-41"/>
     <use xlink:href="#DejaVuSans-3a" x="66.658203"/>
     <use xlink:href="#DejaVuSans-33" x="100.349609"/>
     <use xlink:href="#DejaVuSans-2e" x="163.972656"/>
     <use xlink:href="#DejaVuSans-31" x="195.759766"/>
     <use xlink:href="#DejaVuSans-33" x="259.382812"/>
    </g>
   </g>
   <g id="text_50">
    <!-- A:3.13 -->
    <g transform="translate(610.409912 800.440536) scale(0.04 -0.04)">
     <use xlink:href="#DejaVuSans-41"/>
     <use xlink:href="#DejaVuSans-3a" x="66.658203"/>
     <use xlink:href="#DejaVuSans-33" x="100.349609"/>
     <use xlink:href="#DejaVuSans-2e" x="163.972656"/>
     <use xlink:href="#DejaVuSans-31" x="195.759766"/>
     <use xlink:href="#DejaVuSans-33" x="259.382812"/>
    </g>
   </g>
   <g id="text_51">
    <!-- D:9.90 -->
    <g transform="translate(579.069171 747.834031) scale(0.04 -0.04)">
     <use xlink:href="#DejaVuSans-44"/>
     <use xlink:href="#DejaVuSans-3a" x="77.001953"/>
     <use xlink:href="#DejaVuSans-39" x="110.693359"/>
     <use xlink:href="#DejaVuSans-2e" x="174.316406"/>
     <use xlink:href="#DejaVuSans-39" x="206.103516"/>
     <use xlink:href="#DejaVuSans-30" x="269.726562"/>
    </g>
    <!-- A:3.61 -->
    <g transform="translate(579.069171 752.313156) scale(0.04 -0.04)">
     <use xlink:href="#DejaVuSans-41"/>
     <use xlink:href="#DejaVuSans-3a" x="66.658203"/>
     <use xlink:href="#DejaVuSans-33" x="100.349609"/>
     <use xlink:href="#DejaVuSans-2e" x="163.972656"/>
     <use xlink:href="#DejaVuSans-36" x="195.759766"/>
     <use xlink:href="#DejaVuSans-31" x="259.382812"/>
    </g>
   </g>
   <g id="text_52">
    <!-- A:3.61 -->
    <g transform="translate(579.069171 752.313156) scale(0.04 -0.04)">
     <use xlink:href="#DejaVuSans-41"/>
     <use xlink:href="#DejaVuSans-3a" x="66.658203"/>
     <use xlink:href="#DejaVuSans-33" x="100.349609"/>
     <use xlink:href="#DejaVuSans-2e" x="163.972656"/>
     <use xlink:href="#DejaVuSans-36" x="195.759766"/>
     <use xlink:href="#DejaVuSans-31" x="259.382812"/>
    </g>
   </g>
   <g id="text_53">
    <!-- D:9.29 -->
    <g transform="translate(540.692575 367.844743) scale(0.04 -0.04)">
     <use xlink:href="#DejaVuSans-44"/>
     <use xlink:href="#DejaVuSans-3a" x="77.001953"/>
     <use xlink:href="#DejaVuSans-39" x="110.693359"/>
     <use xlink:href="#DejaVuSans-2e" x="174.316406"/>
     <use xlink:href="#DejaVuSans-32" x="206.103516"/>
     <use xlink:href="#DejaVuSans-39" x="269.726562"/>
    </g>
    <!-- A:0.54 -->
    <g transform="translate(540.692575 372.323868) scale(0.04 -0.04)">
     <use xlink:href="#DejaVuSans-41"/>
     <use xlink:href="#DejaVuSans-3a" x="66.658203"/>
     <use xlink:href="#DejaVuSans-30" x="100.349609"/>
     <use xlink:href="#DejaVuSans-2e" x="163.972656"/>
     <use xlink:href="#DejaVuSans-35" x="195.759766"/>
     <use xlink:href="#DejaVuSans-34" x="259.382812"/>
    </g>
   </g>
   <g id="text_54">
    <!-- A:0.54 -->
    <g transform="translate(540.692575 372.323868) scale(0.04 -0.04)">
     <use xlink:href="#DejaVuSans-41"/>
     <use xlink:href="#DejaVuSans-3a" x="66.658203"/>
     <use xlink:href="#DejaVuSans-30" x="100.349609"/>
     <use xlink:href="#DejaVuSans-2e" x="163.972656"/>
     <use xlink:href="#DejaVuSans-35" x="195.759766"/>
     <use xlink:href="#DejaVuSans-34" x="259.382812"/>
    </g>
   </g>
   <g id="text_55">
    <!-- A:0.29 -->
    <g transform="translate(810.140099 1092.771051) scale(0.04 -0.04)">
     <use xlink:href="#DejaVuSans-41"/>
     <use xlink:href="#DejaVuSans-3a" x="66.658203"/>
     <use xlink:href="#DejaVuSans-30" x="100.349609"/>
     <use xlink:href="#DejaVuSans-2e" x="163.972656"/>
     <use xlink:href="#DejaVuSans-32" x="195.759766"/>
     <use xlink:href="#DejaVuSans-39" x="259.382812"/>
    </g>
   </g>
   <g id="text_56">
    <!-- A:0.00 -->
    <g transform="translate(787.592276 964.420809) scale(0.04 -0.04)">
     <use xlink:href="#DejaVuSans-41"/>
     <use xlink:href="#DejaVuSans-3a" x="66.658203"/>
     <use xlink:href="#DejaVuSans-30" x="100.349609"/>
     <use xlink:href="#DejaVuSans-2e" x="163.972656"/>
     <use xlink:href="#DejaVuSans-30" x="195.759766"/>
     <use xlink:href="#DejaVuSans-30" x="259.382812"/>
    </g>
   </g>
   <g id="text_57">
    <!-- D:37.48 -->
    <g transform="translate(774.037797 916.290125) scale(0.04 -0.04)">
     <use xlink:href="#DejaVuSans-44"/>
     <use xlink:href="#DejaVuSans-3a" x="77.001953"/>
     <use xlink:href="#DejaVuSans-33" x="110.693359"/>
     <use xlink:href="#DejaVuSans-37" x="174.316406"/>
     <use xlink:href="#DejaVuSans-2e" x="237.939453"/>
     <use xlink:href="#DejaVuSans-34" x="269.726562"/>
     <use xlink:href="#DejaVuSans-38" x="333.349609"/>
    </g>
    <!-- A:3.67 -->
    <g transform="translate(774.037797 920.76925) scale(0.04 -0.04)">
     <use xlink:href="#DejaVuSans-41"/>
     <use xlink:href="#DejaVuSans-3a" x="66.658203"/>
     <use xlink:href="#DejaVuSans-33" x="100.349609"/>
     <use xlink:href="#DejaVuSans-2e" x="163.972656"/>
     <use xlink:href="#DejaVuSans-36" x="195.759766"/>
     <use xlink:href="#DejaVuSans-37" x="259.382812"/>
    </g>
   </g>
   <g id="text_58">
    <!-- A:3.67 -->
    <g transform="translate(774.037797 920.76925) scale(0.04 -0.04)">
     <use xlink:href="#DejaVuSans-41"/>
     <use xlink:href="#DejaVuSans-3a" x="66.658203"/>
     <use xlink:href="#DejaVuSans-33" x="100.349609"/>
     <use xlink:href="#DejaVuSans-2e" x="163.972656"/>
     <use xlink:href="#DejaVuSans-36" x="195.759766"/>
     <use xlink:href="#DejaVuSans-37" x="259.382812"/>
    </g>
   </g>
   <g id="text_59">
    <!-- D:37.50 -->
    <g transform="translate(809.874466 989.85811) scale(0.04 -0.04)">
     <use xlink:href="#DejaVuSans-44"/>
     <use xlink:href="#DejaVuSans-3a" x="77.001953"/>
     <use xlink:href="#DejaVuSans-33" x="110.693359"/>
     <use xlink:href="#DejaVuSans-37" x="174.316406"/>
     <use xlink:href="#DejaVuSans-2e" x="237.939453"/>
     <use xlink:href="#DejaVuSans-35" x="269.726562"/>
     <use xlink:href="#DejaVuSans-30" x="333.349609"/>
    </g>
    <!-- A:1.61 -->
    <g transform="translate(809.874466 994.337235) scale(0.04 -0.04)">
     <use xlink:href="#DejaVuSans-41"/>
     <use xlink:href="#DejaVuSans-3a" x="66.658203"/>
     <use xlink:href="#DejaVuSans-31" x="100.349609"/>
     <use xlink:href="#DejaVuSans-2e" x="163.972656"/>
     <use xlink:href="#DejaVuSans-36" x="195.759766"/>
     <use xlink:href="#DejaVuSans-31" x="259.382812"/>
    </g>
   </g>
   <g id="text_60">
    <!-- A:1.61 -->
    <g transform="translate(809.874466 994.337235) scale(0.04 -0.04)">
     <use xlink:href="#DejaVuSans-41"/>
     <use xlink:href="#DejaVuSans-3a" x="66.658203"/>
     <use xlink:href="#DejaVuSans-31" x="100.349609"/>
     <use xlink:href="#DejaVuSans-2e" x="163.972656"/>
     <use xlink:href="#DejaVuSans-36" x="195.759766"/>
     <use xlink:href="#DejaVuSans-31" x="259.382812"/>
    </g>
   </g>
   <g id="text_61">
    <!-- D:15.63 -->
    <g transform="translate(859.573094 895.949871) scale(0.04 -0.04)">
     <use xlink:href="#DejaVuSans-44"/>
     <use xlink:href="#DejaVuSans-3a" x="77.001953"/>
     <use xlink:href="#DejaVuSans-31" x="110.693359"/>
     <use xlink:href="#DejaVuSans-35" x="174.316406"/>
     <use xlink:href="#DejaVuSans-2e" x="237.939453"/>
     <use xlink:href="#DejaVuSans-36" x="269.726562"/>
     <use xlink:href="#DejaVuSans-33" x="333.349609"/>
    </g>
    <!-- A:0.17 -->
    <g transform="translate(859.573094 900.428996) scale(0.04 -0.04)">
     <use xlink:href="#DejaVuSans-41"/>
     <use xlink:href="#DejaVuSans-3a" x="66.658203"/>
     <use xlink:href="#DejaVuSans-30" x="100.349609"/>
     <use xlink:href="#DejaVuSans-2e" x="163.972656"/>
     <use xlink:href="#DejaVuSans-31" x="195.759766"/>
     <use xlink:href="#DejaVuSans-37" x="259.382812"/>
    </g>
   </g>
   <g id="text_62">
    <!-- A:0.17 -->
    <g transform="translate(859.573094 900.428996) scale(0.04 -0.04)">
     <use xlink:href="#DejaVuSans-41"/>
     <use xlink:href="#DejaVuSans-3a" x="66.658203"/>
     <use xlink:href="#DejaVuSans-30" x="100.349609"/>
     <use xlink:href="#DejaVuSans-2e" x="163.972656"/>
     <use xlink:href="#DejaVuSans-31" x="195.759766"/>
     <use xlink:href="#DejaVuSans-37" x="259.382812"/>
    </g>
   </g>
   <g id="text_63">
    <!-- D:0.00 -->
    <g transform="translate(694.545883 878.775857) scale(0.04 -0.04)">
     <use xlink:href="#DejaVuSans-44"/>
     <use xlink:href="#DejaVuSans-3a" x="77.001953"/>
     <use xlink:href="#DejaVuSans-30" x="110.693359"/>
     <use xlink:href="#DejaVuSans-2e" x="174.316406"/>
     <use xlink:href="#DejaVuSans-30" x="206.103516"/>
     <use xlink:href="#DejaVuSans-30" x="269.726562"/>
    </g>
    <!-- A:0.02 -->
    <g transform="translate(694.545883 883.254982) scale(0.04 -0.04)">
     <use xlink:href="#DejaVuSans-41"/>
     <use xlink:href="#DejaVuSans-3a" x="66.658203"/>
     <use xlink:href="#DejaVuSans-30" x="100.349609"/>
     <use xlink:href="#DejaVuSans-2e" x="163.972656"/>
     <use xlink:href="#DejaVuSans-30" x="195.759766"/>
     <use xlink:href="#DejaVuSans-32" x="259.382812"/>
    </g>
   </g>
   <g id="text_64">
    <!-- A:0.02 -->
    <g transform="translate(694.545883 883.254982) scale(0.04 -0.04)">
     <use xlink:href="#DejaVuSans-41"/>
     <use xlink:href="#DejaVuSans-3a" x="66.658203"/>
     <use xlink:href="#DejaVuSans-30" x="100.349609"/>
     <use xlink:href="#DejaVuSans-2e" x="163.972656"/>
     <use xlink:href="#DejaVuSans-30" x="195.759766"/>
     <use xlink:href="#DejaVuSans-32" x="259.382812"/>
    </g>
   </g>
   <g id="text_65">
    <!-- D:0.00 -->
    <g transform="translate(716.363416 899.857756) scale(0.04 -0.04)">
     <use xlink:href="#DejaVuSans-44"/>
     <use xlink:href="#DejaVuSans-3a" x="77.001953"/>
     <use xlink:href="#DejaVuSans-30" x="110.693359"/>
     <use xlink:href="#DejaVuSans-2e" x="174.316406"/>
     <use xlink:href="#DejaVuSans-30" x="206.103516"/>
     <use xlink:href="#DejaVuSans-30" x="269.726562"/>
    </g>
    <!-- A:0.00 -->
    <g transform="translate(716.363416 904.336881) scale(0.04 -0.04)">
     <use xlink:href="#DejaVuSans-41"/>
     <use xlink:href="#DejaVuSans-3a" x="66.658203"/>
     <use xlink:href="#DejaVuSans-30" x="100.349609"/>
     <use xlink:href="#DejaVuSans-2e" x="163.972656"/>
     <use xlink:href="#DejaVuSans-30" x="195.759766"/>
     <use xlink:href="#DejaVuSans-30" x="259.382812"/>
    </g>
   </g>
   <g id="text_66">
    <!-- A:0.00 -->
    <g transform="translate(716.363416 904.336881) scale(0.04 -0.04)">
     <use xlink:href="#DejaVuSans-41"/>
     <use xlink:href="#DejaVuSans-3a" x="66.658203"/>
     <use xlink:href="#DejaVuSans-30" x="100.349609"/>
     <use xlink:href="#DejaVuSans-2e" x="163.972656"/>
     <use xlink:href="#DejaVuSans-30" x="195.759766"/>
     <use xlink:href="#DejaVuSans-30" x="259.382812"/>
    </g>
   </g>
   <g id="text_67">
    <!-- A:10.48 -->
    <g transform="translate(781.468005 1025.484729) scale(0.04 -0.04)">
     <use xlink:href="#DejaVuSans-41"/>
     <use xlink:href="#DejaVuSans-3a" x="66.658203"/>
     <use xlink:href="#DejaVuSans-31" x="100.349609"/>
     <use xlink:href="#DejaVuSans-30" x="163.972656"/>
     <use xlink:href="#DejaVuSans-2e" x="227.595703"/>
     <use xlink:href="#DejaVuSans-34" x="259.382812"/>
     <use xlink:href="#DejaVuSans-38" x="323.005859"/>
    </g>
   </g>
   <g id="text_68">
    <!-- A:0.00 -->
    <g transform="translate(962.55504 889.737776) scale(0.04 -0.04)">
     <use xlink:href="#DejaVuSans-41"/>
     <use xlink:href="#DejaVuSans-3a" x="66.658203"/>
     <use xlink:href="#DejaVuSans-30" x="100.349609"/>
     <use xlink:href="#DejaVuSans-2e" x="163.972656"/>
     <use xlink:href="#DejaVuSans-30" x="195.759766"/>
     <use xlink:href="#DejaVuSans-30" x="259.382812"/>
    </g>
   </g>
   <g id="text_69">
    <!-- D:2.49 -->
    <g transform="translate(609.898684 838.1361) scale(0.04 -0.04)">
     <use xlink:href="#DejaVuSans-44"/>
     <use xlink:href="#DejaVuSans-3a" x="77.001953"/>
     <use xlink:href="#DejaVuSans-32" x="110.693359"/>
     <use xlink:href="#DejaVuSans-2e" x="174.316406"/>
     <use xlink:href="#DejaVuSans-34" x="206.103516"/>
     <use xlink:href="#DejaVuSans-39" x="269.726562"/>
    </g>
    <!-- A:7.25 -->
    <g transform="translate(609.898684 842.615225) scale(0.04 -0.04)">
     <use xlink:href="#DejaVuSans-41"/>
     <use xlink:href="#DejaVuSans-3a" x="66.658203"/>
     <use xlink:href="#DejaVuSans-37" x="100.349609"/>
     <use xlink:href="#DejaVuSans-2e" x="163.972656"/>
     <use xlink:href="#DejaVuSans-32" x="195.759766"/>
     <use xlink:href="#DejaVuSans-35" x="259.382812"/>
    </g>
   </g>
   <g id="text_70">
    <!-- A:7.25 -->
    <g transform="translate(609.898684 842.615225) scale(0.04 -0.04)">
     <use xlink:href="#DejaVuSans-41"/>
     <use xlink:href="#DejaVuSans-3a" x="66.658203"/>
     <use xlink:href="#DejaVuSans-37" x="100.349609"/>
     <use xlink:href="#DejaVuSans-2e" x="163.972656"/>
     <use xlink:href="#DejaVuSans-32" x="195.759766"/>
     <use xlink:href="#DejaVuSans-35" x="259.382812"/>
    </g>
   </g>
   <g id="text_71">
    <!-- D:0.00 -->
    <g transform="translate(627.051842 825.533949) scale(0.04 -0.04)">
     <use xlink:href="#DejaVuSans-44"/>
     <use xlink:href="#DejaVuSans-3a" x="77.001953"/>
     <use xlink:href="#DejaVuSans-30" x="110.693359"/>
     <use xlink:href="#DejaVuSans-2e" x="174.316406"/>
     <use xlink:href="#DejaVuSans-30" x="206.103516"/>
     <use xlink:href="#DejaVuSans-30" x="269.726562"/>
    </g>
    <!-- A:6.54 -->
    <g transform="translate(627.051842 830.013074) scale(0.04 -0.04)">
     <use xlink:href="#DejaVuSans-41"/>
     <use xlink:href="#DejaVuSans-3a" x="66.658203"/>
     <use xlink:href="#DejaVuSans-36" x="100.349609"/>
     <use xlink:href="#DejaVuSans-2e" x="163.972656"/>
     <use xlink:href="#DejaVuSans-35" x="195.759766"/>
     <use xlink:href="#DejaVuSans-34" x="259.382812"/>
    </g>
   </g>
   <g id="text_72">
    <!-- A:6.54 -->
    <g transform="translate(627.051842 830.013074) scale(0.04 -0.04)">
     <use xlink:href="#DejaVuSans-41"/>
     <use xlink:href="#DejaVuSans-3a" x="66.658203"/>
     <use xlink:href="#DejaVuSans-36" x="100.349609"/>
     <use xlink:href="#DejaVuSans-2e" x="163.972656"/>
     <use xlink:href="#DejaVuSans-35" x="195.759766"/>
     <use xlink:href="#DejaVuSans-34" x="259.382812"/>
    </g>
   </g>
   <g id="text_73">
    <!-- D:0.00 -->
    <g transform="translate(571.314778 764.282683) scale(0.04 -0.04)">
     <use xlink:href="#DejaVuSans-44"/>
     <use xlink:href="#DejaVuSans-3a" x="77.001953"/>
     <use xlink:href="#DejaVuSans-30" x="110.693359"/>
     <use xlink:href="#DejaVuSans-2e" x="174.316406"/>
     <use xlink:href="#DejaVuSans-30" x="206.103516"/>
     <use xlink:href="#DejaVuSans-30" x="269.726562"/>
    </g>
    <!-- A:9.25 -->
    <g transform="translate(571.314778 768.761808) scale(0.04 -0.04)">
     <use xlink:href="#DejaVuSans-41"/>
     <use xlink:href="#DejaVuSans-3a" x="66.658203"/>
     <use xlink:href="#DejaVuSans-39" x="100.349609"/>
     <use xlink:href="#DejaVuSans-2e" x="163.972656"/>
     <use xlink:href="#DejaVuSans-32" x="195.759766"/>
     <use xlink:href="#DejaVuSans-35" x="259.382812"/>
    </g>
   </g>
   <g id="text_74">
    <!-- A:9.25 -->
    <g transform="translate(571.314778 768.761808) scale(0.04 -0.04)">
     <use xlink:href="#DejaVuSans-41"/>
     <use xlink:href="#DejaVuSans-3a" x="66.658203"/>
     <use xlink:href="#DejaVuSans-39" x="100.349609"/>
     <use xlink:href="#DejaVuSans-2e" x="163.972656"/>
     <use xlink:href="#DejaVuSans-32" x="195.759766"/>
     <use xlink:href="#DejaVuSans-35" x="259.382812"/>
    </g>
   </g>
   <g id="text_75">
    <!-- D:0.00 -->
    <g transform="translate(951.66069 883.275277) scale(0.04 -0.04)">
     <use xlink:href="#DejaVuSans-44"/>
     <use xlink:href="#DejaVuSans-3a" x="77.001953"/>
     <use xlink:href="#DejaVuSans-30" x="110.693359"/>
     <use xlink:href="#DejaVuSans-2e" x="174.316406"/>
     <use xlink:href="#DejaVuSans-30" x="206.103516"/>
     <use xlink:href="#DejaVuSans-30" x="269.726562"/>
    </g>
    <!-- A:0.00 -->
    <g transform="translate(951.66069 887.754402) scale(0.04 -0.04)">
     <use xlink:href="#DejaVuSans-41"/>
     <use xlink:href="#DejaVuSans-3a" x="66.658203"/>
     <use xlink:href="#DejaVuSans-30" x="100.349609"/>
     <use xlink:href="#DejaVuSans-2e" x="163.972656"/>
     <use xlink:href="#DejaVuSans-30" x="195.759766"/>
     <use xlink:href="#DejaVuSans-30" x="259.382812"/>
    </g>
   </g>
   <g id="text_76">
    <!-- A:0.00 -->
    <g transform="translate(951.66069 887.754402) scale(0.04 -0.04)">
     <use xlink:href="#DejaVuSans-41"/>
     <use xlink:href="#DejaVuSans-3a" x="66.658203"/>
     <use xlink:href="#DejaVuSans-30" x="100.349609"/>
     <use xlink:href="#DejaVuSans-2e" x="163.972656"/>
     <use xlink:href="#DejaVuSans-30" x="195.759766"/>
     <use xlink:href="#DejaVuSans-30" x="259.382812"/>
    </g>
   </g>
   <g id="text_77">
    <!-- D:0.00 -->
    <g transform="translate(924.440211 872.219866) scale(0.04 -0.04)">
     <use xlink:href="#DejaVuSans-44"/>
     <use xlink:href="#DejaVuSans-3a" x="77.001953"/>
     <use xlink:href="#DejaVuSans-30" x="110.693359"/>
     <use xlink:href="#DejaVuSans-2e" x="174.316406"/>
     <use xlink:href="#DejaVuSans-30" x="206.103516"/>
     <use xlink:href="#DejaVuSans-30" x="269.726562"/>
    </g>
    <!-- A:0.00 -->
    <g transform="translate(924.440211 876.698991) scale(0.04 -0.04)">
     <use xlink:href="#DejaVuSans-41"/>
     <use xlink:href="#DejaVuSans-3a" x="66.658203"/>
     <use xlink:href="#DejaVuSans-30" x="100.349609"/>
     <use xlink:href="#DejaVuSans-2e" x="163.972656"/>
     <use xlink:href="#DejaVuSans-30" x="195.759766"/>
     <use xlink:href="#DejaVuSans-30" x="259.382812"/>
    </g>
   </g>
   <g id="text_78">
    <!-- A:0.00 -->
    <g transform="translate(924.440211 876.698991) scale(0.04 -0.04)">
     <use xlink:href="#DejaVuSans-41"/>
     <use xlink:href="#DejaVuSans-3a" x="66.658203"/>
     <use xlink:href="#DejaVuSans-30" x="100.349609"/>
     <use xlink:href="#DejaVuSans-2e" x="163.972656"/>
     <use xlink:href="#DejaVuSans-30" x="195.759766"/>
     <use xlink:href="#DejaVuSans-30" x="259.382812"/>
    </g>
   </g>
   <g id="text_79">
    <!-- D:0.00 -->
    <g transform="translate(634.295008 851.259986) scale(0.04 -0.04)">
     <use xlink:href="#DejaVuSans-44"/>
     <use xlink:href="#DejaVuSans-3a" x="77.001953"/>
     <use xlink:href="#DejaVuSans-30" x="110.693359"/>
     <use xlink:href="#DejaVuSans-2e" x="174.316406"/>
     <use xlink:href="#DejaVuSans-30" x="206.103516"/>
     <use xlink:href="#DejaVuSans-30" x="269.726562"/>
    </g>
    <!-- A:1.46 -->
    <g transform="translate(634.295008 855.739111) scale(0.04 -0.04)">
     <use xlink:href="#DejaVuSans-41"/>
     <use xlink:href="#DejaVuSans-3a" x="66.658203"/>
     <use xlink:href="#DejaVuSans-31" x="100.349609"/>
     <use xlink:href="#DejaVuSans-2e" x="163.972656"/>
     <use xlink:href="#DejaVuSans-34" x="195.759766"/>
     <use xlink:href="#DejaVuSans-36" x="259.382812"/>
    </g>
   </g>
   <g id="text_80">
    <!-- A:1.46 -->
    <g transform="translate(634.295008 855.739111) scale(0.04 -0.04)">
     <use xlink:href="#DejaVuSans-41"/>
     <use xlink:href="#DejaVuSans-3a" x="66.658203"/>
     <use xlink:href="#DejaVuSans-31" x="100.349609"/>
     <use xlink:href="#DejaVuSans-2e" x="163.972656"/>
     <use xlink:href="#DejaVuSans-34" x="195.759766"/>
     <use xlink:href="#DejaVuSans-36" x="259.382812"/>
    </g>
   </g>
   <g id="text_81">
    <!-- D:0.00 -->
    <g transform="translate(669.944978 850.140049) scale(0.04 -0.04)">
     <use xlink:href="#DejaVuSans-44"/>
     <use xlink:href="#DejaVuSans-3a" x="77.001953"/>
     <use xlink:href="#DejaVuSans-30" x="110.693359"/>
     <use xlink:href="#DejaVuSans-2e" x="174.316406"/>
     <use xlink:href="#DejaVuSans-30" x="206.103516"/>
     <use xlink:href="#DejaVuSans-30" x="269.726562"/>
    </g>
    <!-- A:7.00 -->
    <g transform="translate(669.944978 854.619174) scale(0.04 -0.04)">
     <use xlink:href="#DejaVuSans-41"/>
     <use xlink:href="#DejaVuSans-3a" x="66.658203"/>
     <use xlink:href="#DejaVuSans-37" x="100.349609"/>
     <use xlink:href="#DejaVuSans-2e" x="163.972656"/>
     <use xlink:href="#DejaVuSans-30" x="195.759766"/>
     <use xlink:href="#DejaVuSans-30" x="259.382812"/>
    </g>
   </g>
   <g id="text_82">
    <!-- A:7.00 -->
    <g transform="translate(669.944978 854.619174) scale(0.04 -0.04)">
     <use xlink:href="#DejaVuSans-41"/>
     <use xlink:href="#DejaVuSans-3a" x="66.658203"/>
     <use xlink:href="#DejaVuSans-37" x="100.349609"/>
     <use xlink:href="#DejaVuSans-2e" x="163.972656"/>
     <use xlink:href="#DejaVuSans-30" x="195.759766"/>
     <use xlink:href="#DejaVuSans-30" x="259.382812"/>
    </g>
   </g>
   <g id="text_83">
    <!-- D:6.88 -->
    <g transform="translate(540.997666 593.621329) scale(0.04 -0.04)">
     <use xlink:href="#DejaVuSans-44"/>
     <use xlink:href="#DejaVuSans-3a" x="77.001953"/>
     <use xlink:href="#DejaVuSans-36" x="110.693359"/>
     <use xlink:href="#DejaVuSans-2e" x="174.316406"/>
     <use xlink:href="#DejaVuSans-38" x="206.103516"/>
     <use xlink:href="#DejaVuSans-38" x="269.726562"/>
    </g>
    <!-- A:4.98 -->
    <g transform="translate(540.997666 598.100454) scale(0.04 -0.04)">
     <use xlink:href="#DejaVuSans-41"/>
     <use xlink:href="#DejaVuSans-3a" x="66.658203"/>
     <use xlink:href="#DejaVuSans-34" x="100.349609"/>
     <use xlink:href="#DejaVuSans-2e" x="163.972656"/>
     <use xlink:href="#DejaVuSans-39" x="195.759766"/>
     <use xlink:href="#DejaVuSans-38" x="259.382812"/>
    </g>
   </g>
   <g id="text_84">
    <!-- A:4.98 -->
    <g transform="translate(540.997666 598.100454) scale(0.04 -0.04)">
     <use xlink:href="#DejaVuSans-41"/>
     <use xlink:href="#DejaVuSans-3a" x="66.658203"/>
     <use xlink:href="#DejaVuSans-34" x="100.349609"/>
     <use xlink:href="#DejaVuSans-2e" x="163.972656"/>
     <use xlink:href="#DejaVuSans-39" x="195.759766"/>
     <use xlink:href="#DejaVuSans-38" x="259.382812"/>
    </g>
   </g>
   <g id="text_85">
    <!-- Population Americas (n:23 k:74) -->
    <g transform="translate(641.612813 153.362625) scale(0.12 -0.12)">
     <defs>
      <path id="DejaVuSans-6f" d="M 1959 3097 
Q 1497 3097 1228 2736 
Q 959 2375 959 1747 
Q 959 1119 1226 758 
Q 1494 397 1959 397 
Q 2419 397 2687 759 
Q 2956 1122 2956 1747 
Q 2956 2369 2687 2733 
Q 2419 3097 1959 3097 
z
M 1959 3584 
Q 2709 3584 3137 3096 
Q 3566 2609 3566 1747 
Q 3566 888 3137 398 
Q 2709 -91 1959 -91 
Q 1206 -91 779 398 
Q 353 888 353 1747 
Q 353 2609 779 3096 
Q 1206 3584 1959 3584 
z
" transform="scale(0.015625)"/>
      <path id="DejaVuSans-70" d="M 1159 525 
L 1159 -1331 
L 581 -1331 
L 581 3500 
L 1159 3500 
L 1159 2969 
Q 1341 3281 1617 3432 
Q 1894 3584 2278 3584 
Q 2916 3584 3314 3078 
Q 3713 2572 3713 1747 
Q 3713 922 3314 415 
Q 2916 -91 2278 -91 
Q 1894 -91 1617 61 
Q 1341 213 1159 525 
z
M 3116 1747 
Q 3116 2381 2855 2742 
Q 2594 3103 2138 3103 
Q 1681 3103 1420 2742 
Q 1159 2381 1159 1747 
Q 1159 1113 1420 752 
Q 1681 391 2138 391 
Q 2594 391 2855 752 
Q 3116 1113 3116 1747 
z
" transform="scale(0.015625)"/>
      <path id="DejaVuSans-75" d="M 544 1381 
L 544 3500 
L 1119 3500 
L 1119 1403 
Q 1119 906 1312 657 
Q 1506 409 1894 409 
Q 2359 409 2629 706 
Q 2900 1003 2900 1516 
L 2900 3500 
L 3475 3500 
L 3475 0 
L 2900 0 
L 2900 538 
Q 2691 219 2414 64 
Q 2138 -91 1772 -91 
Q 1169 -91 856 284 
Q 544 659 544 1381 
z
M 1991 3584 
L 1991 3584 
z
" transform="scale(0.015625)"/>
      <path id="DejaVuSans-6c" d="M 603 4863 
L 1178 4863 
L 1178 0 
L 603 0 
L 603 4863 
z
" transform="scale(0.015625)"/>
      <path id="DejaVuSans-61" d="M 2194 1759 
Q 1497 1759 1228 1600 
Q 959 1441 959 1056 
Q 959 750 1161 570 
Q 1363 391 1709 391 
Q 2188 391 2477 730 
Q 2766 1069 2766 1631 
L 2766 1759 
L 2194 1759 
z
M 3341 1997 
L 3341 0 
L 2766 0 
L 2766 531 
Q 2569 213 2275 61 
Q 1981 -91 1556 -91 
Q 1019 -91 701 211 
Q 384 513 384 1019 
Q 384 1609 779 1909 
Q 1175 2209 1959 2209 
L 2766 2209 
L 2766 2266 
Q 2766 2663 2505 2880 
Q 2244 3097 1772 3097 
Q 1472 3097 1187 3025 
Q 903 2953 641 2809 
L 641 3341 
Q 956 3463 1253 3523 
Q 1550 3584 1831 3584 
Q 2591 3584 2966 3190 
Q 3341 2797 3341 1997 
z
" transform="scale(0.015625)"/>
      <path id="DejaVuSans-74" d="M 1172 4494 
L 1172 3500 
L 2356 3500 
L 2356 3053 
L 1172 3053 
L 1172 1153 
Q 1172 725 1289 603 
Q 1406 481 1766 481 
L 2356 481 
L 2356 0 
L 1766 0 
Q 1100 0 847 248 
Q 594 497 594 1153 
L 594 3053 
L 172 3053 
L 172 3500 
L 594 3500 
L 594 4494 
L 1172 4494 
z
" transform="scale(0.015625)"/>
      <path id="DejaVuSans-69" d="M 603 3500 
L 1178 3500 
L 1178 0 
L 603 0 
L 603 3500 
z
M 603 4863 
L 1178 4863 
L 1178 4134 
L 603 4134 
L 603 4863 
z
" transform="scale(0.015625)"/>
      <path id="DejaVuSans-6e" d="M 3513 2113 
L 3513 0 
L 2938 0 
L 2938 2094 
Q 2938 2591 2744 2837 
Q 2550 3084 2163 3084 
Q 1697 3084 1428 2787 
Q 1159 2491 1159 1978 
L 1159 0 
L 581 0 
L 581 3500 
L 1159 3500 
L 1159 2956 
Q 1366 3272 1645 3428 
Q 1925 3584 2291 3584 
Q 2894 3584 3203 3211 
Q 3513 2838 3513 2113 
z
" transform="scale(0.015625)"/>
      <path id="DejaVuSans-20" transform="scale(0.015625)"/>
      <path id="DejaVuSans-6d" d="M 3328 2828 
Q 3544 3216 3844 3400 
Q 4144 3584 4550 3584 
Q 5097 3584 5394 3201 
Q 5691 2819 5691 2113 
L 5691 0 
L 5113 0 
L 5113 2094 
Q 5113 2597 4934 2840 
Q 4756 3084 4391 3084 
Q 3944 3084 3684 2787 
Q 3425 2491 3425 1978 
L 3425 0 
L 2847 0 
L 2847 2094 
Q 2847 2600 2669 2842 
Q 2491 3084 2119 3084 
Q 1678 3084 1418 2786 
Q 1159 2488 1159 1978 
L 1159 0 
L 581 0 
L 581 3500 
L 1159 3500 
L 1159 2956 
Q 1356 3278 1631 3431 
Q 1906 3584 2284 3584 
Q 2666 3584 2933 3390 
Q 3200 3197 3328 2828 
z
" transform="scale(0.015625)"/>
      <path id="DejaVuSans-65" d="M 3597 1894 
L 3597 1613 
L 953 1613 
Q 991 1019 1311 708 
Q 1631 397 2203 397 
Q 2534 397 2845 478 
Q 3156 559 3463 722 
L 3463 178 
Q 3153 47 2828 -22 
Q 2503 -91 2169 -91 
Q 1331 -91 842 396 
Q 353 884 353 1716 
Q 353 2575 817 3079 
Q 1281 3584 2069 3584 
Q 2775 3584 3186 3129 
Q 3597 2675 3597 1894 
z
M 3022 2063 
Q 3016 2534 2758 2815 
Q 2500 3097 2075 3097 
Q 1594 3097 1305 2825 
Q 1016 2553 972 2059 
L 3022 2063 
z
" transform="scale(0.015625)"/>
      <path id="DejaVuSans-72" d="M 2631 2963 
Q 2534 3019 2420 3045 
Q 2306 3072 2169 3072 
Q 1681 3072 1420 2755 
Q 1159 2438 1159 1844 
L 1159 0 
L 581 0 
L 581 3500 
L 1159 3500 
L 1159 2956 
Q 1341 3275 1631 3429 
Q 1922 3584 2338 3584 
Q 2397 3584 2469 3576 
Q 2541 3569 2628 3553 
L 2631 2963 
z
" transform="scale(0.015625)"/>
      <path id="DejaVuSans-63" d="M 3122 3366 
L 3122 2828 
Q 2878 2963 2633 3030 
Q 2388 3097 2138 3097 
Q 1578 3097 1268 2742 
Q 959 2388 959 1747 
Q 959 1106 1268 751 
Q 1578 397 2138 397 
Q 2388 397 2633 464 
Q 2878 531 3122 666 
L 3122 134 
Q 2881 22 2623 -34 
Q 2366 -91 2075 -91 
Q 1284 -91 818 406 
Q 353 903 353 1747 
Q 353 2603 823 3093 
Q 1294 3584 2113 3584 
Q 2378 3584 2631 3529 
Q 2884 3475 3122 3366 
z
" transform="scale(0.015625)"/>
      <path id="DejaVuSans-73" d="M 2834 3397 
L 2834 2853 
Q 2591 2978 2328 3040 
Q 2066 3103 1784 3103 
Q 1356 3103 1142 2972 
Q 928 2841 928 2578 
Q 928 2378 1081 2264 
Q 1234 2150 1697 2047 
L 1894 2003 
Q 2506 1872 2764 1633 
Q 3022 1394 3022 966 
Q 3022 478 2636 193 
Q 2250 -91 1575 -91 
Q 1294 -91 989 -36 
Q 684 19 347 128 
L 347 722 
Q 666 556 975 473 
Q 1284 391 1588 391 
Q 1994 391 2212 530 
Q 2431 669 2431 922 
Q 2431 1156 2273 1281 
Q 2116 1406 1581 1522 
L 1381 1569 
Q 847 1681 609 1914 
Q 372 2147 372 2553 
Q 372 3047 722 3315 
Q 1072 3584 1716 3584 
Q 2034 3584 2315 3537 
Q 2597 3491 2834 3397 
z
" transform="scale(0.015625)"/>
      <path id="DejaVuSans-28" d="M 1984 4856 
Q 1566 4138 1362 3434 
Q 1159 2731 1159 2009 
Q 1159 1288 1364 580 
Q 1569 -128 1984 -844 
L 1484 -844 
Q 1016 -109 783 600 
Q 550 1309 550 2009 
Q 550 2706 781 3412 
Q 1013 4119 1484 4856 
L 1984 4856 
z
" transform="scale(0.015625)"/>
      <path id="DejaVuSans-6b" d="M 581 4863 
L 1159 4863 
L 1159 1991 
L 2875 3500 
L 3609 3500 
L 1753 1863 
L 3688 0 
L 2938 0 
L 1159 1709 
L 1159 0 
L 581 0 
L 581 4863 
z
" transform="scale(0.015625)"/>
      <path id="DejaVuSans-29" d="M 513 4856 
L 1013 4856 
Q 1481 4119 1714 3412 
Q 1947 2706 1947 2009 
Q 1947 1309 1714 600 
Q 1481 -109 1013 -844 
L 513 -844 
Q 928 -128 1133 580 
Q 1338 1288 1338 2009 
Q 1338 2731 1133 3434 
Q 928 4138 513 4856 
z
" transform="scale(0.015625)"/>
     </defs>
     <use xlink:href="#DejaVuSans-50"/>
     <use xlink:href="#DejaVuSans-6f" x="56.677734"/>
     <use xlink:href="#DejaVuSans-70" x="117.859375"/>
     <use xlink:href="#DejaVuSans-75" x="181.335938"/>
     <use xlink:href="#DejaVuSans-6c" x="244.714844"/>
     <use xlink:href="#DejaVuSans-61" x="272.498047"/>
     <use xlink:href="#DejaVuSans-74" x="333.777344"/>
     <use xlink:href="#DejaVuSans-69" x="372.986328"/>
     <use xlink:href="#DejaVuSans-6f" x="400.769531"/>
     <use xlink:href="#DejaVuSans-6e" x="461.951172"/>
     <use xlink:href="#DejaVuSans-20" x="525.330078"/>
     <use xlink:href="#DejaVuSans-41" x="557.117188"/>
     <use xlink:href="#DejaVuSans-6d" x="625.525391"/>
     <use xlink:href="#DejaVuSans-65" x="722.9375"/>
     <use xlink:href="#DejaVuSans-72" x="784.460938"/>
     <use xlink:href="#DejaVuSans-69" x="825.574219"/>
     <use xlink:href="#DejaVuSans-63" x="853.357422"/>
     <use xlink:href="#DejaVuSans-61" x="908.337891"/>
     <use xlink:href="#DejaVuSans-73" x="969.617188"/>
     <use xlink:href="#DejaVuSans-20" x="1021.716797"/>
     <use xlink:href="#DejaVuSans-28" x="1053.503906"/>
     <use xlink:href="#DejaVuSans-6e" x="1092.517578"/>
     <use xlink:href="#DejaVuSans-3a" x="1155.896484"/>
     <use xlink:href="#DejaVuSans-32" x="1189.587891"/>
     <use xlink:href="#DejaVuSans-33" x="1253.210938"/>
     <use xlink:href="#DejaVuSans-20" x="1316.833984"/>
     <use xlink:href="#DejaVuSans-6b" x="1348.621094"/>
     <use xlink:href="#DejaVuSans-3a" x="1406.53125"/>
     <use xlink:href="#DejaVuSans-37" x="1440.222656"/>
     <use xlink:href="#DejaVuSans-34" x="1503.845703"/>
     <use xlink:href="#DejaVuSans-29" x="1567.46875"/>
    </g>
    <!-- Score: 23278.41, max. Overlap: 0.34, avg. Distance: 5.41, avg. Angle: 5.81 -->
    <g transform="translate(511.8525 166.8) scale(0.12 -0.12)">
     <defs>
      <path id="DejaVuSans-2c" d="M 750 794 
L 1409 794 
L 1409 256 
L 897 -744 
L 494 -744 
L 750 256 
L 750 794 
z
" transform="scale(0.015625)"/>
      <path id="DejaVuSans-78" d="M 3513 3500 
L 2247 1797 
L 3578 0 
L 2900 0 
L 1881 1375 
L 863 0 
L 184 0 
L 1544 1831 
L 300 3500 
L 978 3500 
L 1906 2253 
L 2834 3500 
L 3513 3500 
z
" transform="scale(0.015625)"/>
      <path id="DejaVuSans-76" d="M 191 3500 
L 800 3500 
L 1894 563 
L 2988 3500 
L 3597 3500 
L 2284 0 
L 1503 0 
L 191 3500 
z
" transform="scale(0.015625)"/>
      <path id="DejaVuSans-67" d="M 2906 1791 
Q 2906 2416 2648 2759 
Q 2391 3103 1925 3103 
Q 1463 3103 1205 2759 
Q 947 2416 947 1791 
Q 947 1169 1205 825 
Q 1463 481 1925 481 
Q 2391 481 2648 825 
Q 2906 1169 2906 1791 
z
M 3481 434 
Q 3481 -459 3084 -895 
Q 2688 -1331 1869 -1331 
Q 1566 -1331 1297 -1286 
Q 1028 -1241 775 -1147 
L 775 -588 
Q 1028 -725 1275 -790 
Q 1522 -856 1778 -856 
Q 2344 -856 2625 -561 
Q 2906 -266 2906 331 
L 2906 616 
Q 2728 306 2450 153 
Q 2172 0 1784 0 
Q 1141 0 747 490 
Q 353 981 353 1791 
Q 353 2603 747 3093 
Q 1141 3584 1784 3584 
Q 2172 3584 2450 3431 
Q 2728 3278 2906 2969 
L 2906 3500 
L 3481 3500 
L 3481 434 
z
" transform="scale(0.015625)"/>
     </defs>
     <use xlink:href="#DejaVuSans-53"/>
     <use xlink:href="#DejaVuSans-63" x="63.476562"/>
     <use xlink:href="#DejaVuSans-6f" x="118.457031"/>
     <use xlink:href="#DejaVuSans-72" x="179.638672"/>
     <use xlink:href="#DejaVuSans-65" x="218.501953"/>
     <use xlink:href="#DejaVuSans-3a" x="280.025391"/>
     <use xlink:href="#DejaVuSans-20" x="313.716797"/>
     <use xlink:href="#DejaVuSans-32" x="345.503906"/>
     <use xlink:href="#DejaVuSans-33" x="409.126953"/>
     <use xlink:href="#DejaVuSans-32" x="472.75"/>
     <use xlink:href="#DejaVuSans-37" x="536.373047"/>
     <use xlink:href="#DejaVuSans-38" x="599.996094"/>
     <use xlink:href="#DejaVuSans-2e" x="663.619141"/>
     <use xlink:href="#DejaVuSans-34" x="695.40625"/>
     <use xlink:href="#DejaVuSans-31" x="759.029297"/>
     <use xlink:href="#DejaVuSans-2c" x="822.652344"/>
     <use xlink:href="#DejaVuSans-20" x="854.439453"/>
     <use xlink:href="#DejaVuSans-6d" x="886.226562"/>
     <use xlink:href="#DejaVuSans-61" x="983.638672"/>
     <use xlink:href="#DejaVuSans-78" x="1044.917969"/>
     <use xlink:href="#DejaVuSans-2e" x="1104.097656"/>
     <use xlink:href="#DejaVuSans-20" x="1135.884766"/>
     <use xlink:href="#DejaVuSans-4f" x="1167.671875"/>
     <use xlink:href="#DejaVuSans-76" x="1246.382812"/>
     <use xlink:href="#DejaVuSans-65" x="1305.5625"/>
     <use xlink:href="#DejaVuSans-72" x="1367.085938"/>
     <use xlink:href="#DejaVuSans-6c" x="1408.199219"/>
     <use xlink:href="#DejaVuSans-61" x="1435.982422"/>
     <use xlink:href="#DejaVuSans-70" x="1497.261719"/>
     <use xlink:href="#DejaVuSans-3a" x="1560.738281"/>
     <use xlink:href="#DejaVuSans-20" x="1594.429688"/>
     <use xlink:href="#DejaVuSans-30" x="1626.216797"/>
     <use xlink:href="#DejaVuSans-2e" x="1689.839844"/>
     <use xlink:href="#DejaVuSans-33" x="1721.626953"/>
     <use xlink:href="#DejaVuSans-34" x="1785.25"/>
     <use xlink:href="#DejaVuSans-2c" x="1848.873047"/>
     <use xlink:href="#DejaVuSans-20" x="1880.660156"/>
     <use xlink:href="#DejaVuSans-61" x="1912.447266"/>
     <use xlink:href="#DejaVuSans-76" x="1973.726562"/>
     <use xlink:href="#DejaVuSans-67" x="2032.90625"/>
     <use xlink:href="#DejaVuSans-2e" x="2096.382812"/>
     <use xlink:href="#DejaVuSans-20" x="2128.169922"/>
     <use xlink:href="#DejaVuSans-44" x="2159.957031"/>
     <use xlink:href="#DejaVuSans-69" x="2236.958984"/>
     <use xlink:href="#DejaVuSans-73" x="2264.742188"/>
     <use xlink:href="#DejaVuSans-74" x="2316.841797"/>
     <use xlink:href="#DejaVuSans-61" x="2356.050781"/>
     <use xlink:href="#DejaVuSans-6e" x="2417.330078"/>
     <use xlink:href="#DejaVuSans-63" x="2480.708984"/>
     <use xlink:href="#DejaVuSans-65" x="2535.689453"/>
     <use xlink:href="#DejaVuSans-3a" x="2597.212891"/>
     <use xlink:href="#DejaVuSans-20" x="2630.904297"/>
     <use xlink:href="#DejaVuSans-35" x="2662.691406"/>
     <use xlink:href="#DejaVuSans-2e" x="2726.314453"/>
     <use xlink:href="#DejaVuSans-34" x="2758.101562"/>
     <use xlink:href="#DejaVuSans-31" x="2821.724609"/>
     <use xlink:href="#DejaVuSans-2c" x="2885.347656"/>
     <use xlink:href="#DejaVuSans-20" x="2917.134766"/>
     <use xlink:href="#DejaVuSans-61" x="2948.921875"/>
     <use xlink:href="#DejaVuSans-76" x="3010.201172"/>
     <use xlink:href="#DejaVuSans-67" x="3069.380859"/>
     <use xlink:href="#DejaVuSans-2e" x="3132.857422"/>
     <use xlink:href="#DejaVuSans-20" x="3164.644531"/>
     <use xlink:href="#DejaVuSans-41" x="3196.431641"/>
     <use xlink:href="#DejaVuSans-6e" x="3264.839844"/>
     <use xlink:href="#DejaVuSans-67" x="3328.21875"/>
     <use xlink:href="#DejaVuSans-6c" x="3391.695312"/>
     <use xlink:href="#DejaVuSans-65" x="3419.478516"/>
     <use xlink:href="#DejaVuSans-3a" x="3481.001953"/>
     <use xlink:href="#DejaVuSans-20" x="3514.693359"/>
     <use xlink:href="#DejaVuSans-35" x="3546.480469"/>
     <use xlink:href="#DejaVuSans-2e" x="3610.103516"/>
     <use xlink:href="#DejaVuSans-38" x="3641.890625"/>
     <use xlink:href="#DejaVuSans-31" x="3705.513672"/>
    </g>
   </g>
  </g>
 </g>
 <defs>
  <clipPath id="p4bfca1e56c">
   <rect x="372.987452" y="172.8" width="730.025097" height="1108.8"/>
  </clipPath>
 </defs>
</svg>
