<?xml version="1.0" encoding="utf-8" standalone="no"?>
<!DOCTYPE svg PUBLIC "-//W3C//DTD SVG 1.1//EN"
  "http://www.w3.org/Graphics/SVG/1.1/DTD/svg11.dtd">
<svg xmlns:xlink="http://www.w3.org/1999/xlink" width="1440pt" height="1440pt" viewBox="0 0 1440 1440" xmlns="http://www.w3.org/2000/svg" version="1.1">
 <metadata>
  <rdf:RDF xmlns:dc="http://purl.org/dc/elements/1.1/" xmlns:cc="http://creativecommons.org/ns#" xmlns:rdf="http://www.w3.org/1999/02/22-rdf-syntax-ns#">
   <cc:Work>
    <dc:type rdf:resource="http://purl.org/dc/dcmitype/StillImage"/>
    <dc:date>2024-03-13T19:17:13.492522</dc:date>
    <dc:format>image/svg+xml</dc:format>
    <dc:creator>
     <cc:Agent>
      <dc:title>Matplotlib v3.8.3, https://matplotlib.org/</dc:title>
     </cc:Agent>
    </dc:creator>
   </cc:Work>
  </rdf:RDF>
 </metadata>
 <defs>
  <style type="text/css">*{stroke-linejoin: round; stroke-linecap: butt}</style>
 </defs>
 <g id="figure_1">
  <g id="patch_1">
   <path d="M 0 1440 
L 1440 1440 
L 1440 0 
L 0 0 
z
" style="fill: #ffffff"/>
  </g>
  <g id="axes_1">
   <g id="patch_2">
    <path d="M 871.649293 1119.224389 
C 889.154618 1119.224389 905.945328 1112.26945 918.323462 1099.891316 
C 930.701596 1087.513181 937.656536 1070.722472 937.656536 1053.217146 
C 937.656536 1035.711821 930.701596 1018.921112 918.323462 1006.542977 
C 905.945328 994.164843 889.154618 987.209903 871.649293 987.209903 
C 854.143967 987.209903 837.353258 994.164843 824.975124 1006.542977 
C 812.596989 1018.921112 805.64205 1035.711821 805.64205 1053.217146 
C 805.64205 1070.722472 812.596989 1087.513181 824.975124 1099.891316 
C 837.353258 1112.26945 854.143967 1119.224389 871.649293 1119.224389 
z
" clip-path="url(#pf3ca65f3df)" style="fill: #9e0142; opacity: 0.5"/>
   </g>
   <g id="patch_3">
    <path d="M 1076.095781 1038.296191 
C 1080.18671 1038.296191 1084.110636 1036.670848 1087.003359 1033.778124 
C 1089.896083 1030.885401 1091.521426 1026.961475 1091.521426 1022.870546 
C 1091.521426 1018.779617 1089.896083 1014.855691 1087.003359 1011.962968 
C 1084.110636 1009.070244 1080.18671 1007.444901 1076.095781 1007.444901 
C 1072.004852 1007.444901 1068.080927 1009.070244 1065.188203 1011.962968 
C 1062.29548 1014.855691 1060.670136 1018.779617 1060.670136 1022.870546 
C 1060.670136 1026.961475 1062.29548 1030.885401 1065.188203 1033.778124 
C 1068.080927 1036.670848 1072.004852 1038.296191 1076.095781 1038.296191 
z
" clip-path="url(#pf3ca65f3df)" style="fill: #b61b48; opacity: 0.5"/>
   </g>
   <g id="patch_4">
    <path d="M 1053.92039 1111.081211 
C 1064.336411 1111.081211 1074.327221 1106.942882 1081.69246 1099.577643 
C 1089.0577 1092.212404 1093.196029 1082.221593 1093.196029 1071.805572 
C 1093.196029 1061.389551 1089.0577 1051.398741 1081.69246 1044.033502 
C 1074.327221 1036.668262 1064.336411 1032.529933 1053.92039 1032.529933 
C 1043.504369 1032.529933 1033.513558 1036.668262 1026.148319 1044.033502 
C 1018.78308 1051.398741 1014.644751 1061.389551 1014.644751 1071.805572 
C 1014.644751 1082.221593 1018.78308 1092.212404 1026.148319 1099.577643 
C 1033.513558 1106.942882 1043.504369 1111.081211 1053.92039 1111.081211 
z
" clip-path="url(#pf3ca65f3df)" style="fill: #d0384e; opacity: 0.5"/>
   </g>
   <g id="patch_5">
    <path d="M 1039.891614 1217.096101 
C 1048.247944 1217.096101 1056.263146 1213.776095 1062.171964 1207.867277 
C 1068.080782 1201.958459 1071.400788 1193.943257 1071.400788 1185.586927 
C 1071.400788 1177.230596 1068.080782 1169.215394 1062.171964 1163.306576 
C 1056.263146 1157.397758 1048.247944 1154.077753 1039.891614 1154.077753 
C 1031.535283 1154.077753 1023.520081 1157.397758 1017.611263 1163.306576 
C 1011.702445 1169.215394 1008.38244 1177.230596 1008.38244 1185.586927 
C 1008.38244 1193.943257 1011.702445 1201.958459 1017.611263 1207.867277 
C 1023.520081 1213.776095 1031.535283 1217.096101 1039.891614 1217.096101 
z
" clip-path="url(#pf3ca65f3df)" style="fill: #df4e4b; opacity: 0.5"/>
   </g>
   <g id="patch_6">
    <path d="M 752.447051 773.930765 
C 768.08954 773.930765 783.093459 767.715938 794.154369 756.655028 
C 805.215279 745.594118 811.430106 730.590199 811.430106 714.94771 
C 811.430106 699.305221 805.215279 684.301302 794.154369 673.240392 
C 783.093459 662.179482 768.08954 655.964656 752.447051 655.964656 
C 736.804562 655.964656 721.800643 662.179482 710.739733 673.240392 
C 699.678823 684.301302 693.463996 699.305221 693.463996 714.94771 
C 693.463996 730.590199 699.678823 745.594118 710.739733 756.655028 
C 721.800643 767.715938 736.804562 773.930765 752.447051 773.930765 
z
" clip-path="url(#pf3ca65f3df)" style="fill: #ee6445; opacity: 0.5"/>
   </g>
   <g id="patch_7">
    <path d="M 493.581471 416.959389 
C 502.27625 416.959389 510.616085 413.504916 516.764222 407.356778 
C 522.91236 401.208641 526.366833 392.868806 526.366833 384.174027 
C 526.366833 375.479247 522.91236 367.139413 516.764222 360.991275 
C 510.616085 354.843137 502.27625 351.388665 493.581471 351.388665 
C 484.886691 351.388665 476.546857 354.843137 470.398719 360.991275 
C 464.250581 367.139413 460.796109 375.479247 460.796109 384.174027 
C 460.796109 392.868806 464.250581 401.208641 470.398719 407.356778 
C 476.546857 413.504916 484.886691 416.959389 493.581471 416.959389 
z
" clip-path="url(#pf3ca65f3df)" style="fill: #f67f4b; opacity: 0.5"/>
   </g>
   <g id="patch_8">
    <path d="M 1022.361593 1156.152423 
C 1029.282483 1156.152423 1035.920844 1153.402724 1040.814653 1148.508915 
C 1045.708461 1143.615107 1048.45816 1136.976746 1048.45816 1130.055856 
C 1048.45816 1123.134965 1045.708461 1116.496605 1040.814653 1111.602796 
C 1035.920844 1106.708988 1029.282483 1103.959289 1022.361593 1103.959289 
C 1015.440703 1103.959289 1008.802342 1106.708988 1003.908534 1111.602796 
C 999.014725 1116.496605 996.265026 1123.134965 996.265026 1130.055856 
C 996.265026 1136.976746 999.014725 1143.615107 1003.908534 1148.508915 
C 1008.802342 1153.402724 1015.440703 1156.152423 1022.361593 1156.152423 
z
" clip-path="url(#pf3ca65f3df)" style="fill: #fa9b58; opacity: 0.5"/>
   </g>
   <g id="patch_9">
    <path d="M 672.987902 681.881955 
C 692.884782 681.881955 711.969417 673.976841 726.038636 659.907622 
C 740.107855 645.838403 748.012969 626.753769 748.012969 606.856888 
C 748.012969 586.960008 740.107855 567.875374 726.038636 553.806155 
C 711.969417 539.736936 692.884782 531.831822 672.987902 531.831822 
C 653.091022 531.831822 634.006388 539.736936 619.937169 553.806155 
C 605.86795 567.875374 597.962835 586.960008 597.962835 606.856888 
C 597.962835 626.753769 605.86795 645.838403 619.937169 659.907622 
C 634.006388 673.976841 653.091022 681.881955 672.987902 681.881955 
z
" clip-path="url(#pf3ca65f3df)" style="fill: #fdb768; opacity: 0.5"/>
   </g>
   <g id="patch_10">
    <path d="M 1079.193363 1169.141414 
C 1087.686691 1169.141414 1095.833299 1165.766979 1101.838989 1159.761288 
C 1107.84468 1153.755598 1111.219115 1145.608991 1111.219115 1137.115662 
C 1111.219115 1128.622333 1107.84468 1120.475726 1101.838989 1114.470035 
C 1095.833299 1108.464345 1087.686691 1105.089909 1079.193363 1105.089909 
C 1070.700034 1105.089909 1062.553426 1108.464345 1056.547736 1114.470035 
C 1050.542046 1120.475726 1047.16761 1128.622333 1047.16761 1137.115662 
C 1047.16761 1145.608991 1050.542046 1153.755598 1056.547736 1159.761288 
C 1062.553426 1165.766979 1070.700034 1169.141414 1079.193363 1169.141414 
z
" clip-path="url(#pf3ca65f3df)" style="fill: #fece7c; opacity: 0.5"/>
   </g>
   <g id="patch_11">
    <path d="M 439.642458 255.097392 
C 443.872101 255.097392 447.929079 253.416937 450.919889 250.426127 
C 453.910698 247.435317 455.591154 243.37834 455.591154 239.148696 
C 455.591154 234.919052 453.910698 230.862075 450.919889 227.871265 
C 447.929079 224.880455 443.872101 223.2 439.642458 223.2 
C 435.412814 223.2 431.355836 224.880455 428.365027 227.871265 
C 425.374217 230.862075 423.693762 234.919052 423.693762 239.148696 
C 423.693762 243.37834 425.374217 247.435317 428.365027 250.426127 
C 431.355836 253.416937 435.412814 255.097392 439.642458 255.097392 
z
" clip-path="url(#pf3ca65f3df)" style="fill: #fee28f; opacity: 0.5"/>
   </g>
   <g id="patch_12">
    <path d="M 1104.258208 1231.2 
C 1113.310678 1231.2 1121.993601 1227.603415 1128.394664 1221.202352 
C 1134.795727 1214.801289 1138.392312 1206.118366 1138.392312 1197.065896 
C 1138.392312 1188.013426 1134.795727 1179.330503 1128.394664 1172.92944 
C 1121.993601 1166.528377 1113.310678 1162.931792 1104.258208 1162.931792 
C 1095.205738 1162.931792 1086.522815 1166.528377 1080.121751 1172.92944 
C 1073.720688 1179.330503 1070.124104 1188.013426 1070.124104 1197.065896 
C 1070.124104 1206.118366 1073.720688 1214.801289 1080.121751 1221.202352 
C 1086.522815 1227.603415 1095.205738 1231.2 1104.258208 1231.2 
z
" clip-path="url(#pf3ca65f3df)" style="fill: #fff1a8; opacity: 0.5"/>
   </g>
   <g id="patch_13">
    <path d="M 516.682817 878.175436 
C 552.524262 878.175436 586.90256 863.935479 612.246288 838.591751 
C 637.590017 813.248022 651.829974 778.869725 651.829974 743.02828 
C 651.829974 707.186835 637.590017 672.808538 612.246288 647.464809 
C 586.90256 622.12108 552.524262 607.881123 516.682817 607.881123 
C 480.841372 607.881123 446.463075 622.12108 421.119346 647.464809 
C 395.775618 672.808538 381.535661 707.186835 381.535661 743.02828 
C 381.535661 778.869725 395.775618 813.248022 421.119346 838.591751 
C 446.463075 863.935479 480.841372 878.175436 516.682817 878.175436 
z
" clip-path="url(#pf3ca65f3df)" style="fill: #ffffbe; opacity: 0.5"/>
   </g>
   <g id="patch_14">
    <path d="M 400.299683 467.120752 
C 416.925795 467.120752 432.873182 460.515128 444.629618 448.758692 
C 456.386054 437.002255 462.991678 421.054868 462.991678 404.428757 
C 462.991678 387.802645 456.386054 371.855258 444.629618 360.098822 
C 432.873182 348.342386 416.925795 341.736762 400.299683 341.736762 
C 383.673572 341.736762 367.726185 348.342386 355.969749 360.098822 
C 344.213312 371.855258 337.607688 387.802645 337.607688 404.428757 
C 337.607688 421.054868 344.213312 437.002255 355.969749 448.758692 
C 367.726185 460.515128 383.673572 467.120752 400.299683 467.120752 
z
" clip-path="url(#pf3ca65f3df)" style="fill: #f4faad; opacity: 0.5"/>
   </g>
   <g id="patch_15">
    <path d="M 789.383237 924.746884 
C 810.048398 924.746884 829.869949 916.536528 844.482424 901.924053 
C 859.0949 887.311578 867.305255 867.490026 867.305255 846.824865 
C 867.305255 826.159705 859.0949 806.338153 844.482424 791.725678 
C 829.869949 777.113202 810.048398 768.902847 789.383237 768.902847 
C 768.718076 768.902847 748.896524 777.113202 734.284049 791.725678 
C 719.671574 806.338153 711.461218 826.159705 711.461218 846.824865 
C 711.461218 867.490026 719.671574 887.311578 734.284049 901.924053 
C 748.896524 916.536528 768.718076 924.746884 789.383237 924.746884 
z
" clip-path="url(#pf3ca65f3df)" style="fill: #e8f69b; opacity: 0.5"/>
   </g>
   <g id="patch_16">
    <path d="M 901.607122 985.841613 
C 917.469422 985.841613 932.684179 979.539454 943.90052 968.323114 
C 955.11686 957.106773 961.419019 941.892016 961.419019 926.029715 
C 961.419019 910.167415 955.11686 894.952658 943.90052 883.736317 
C 932.684179 872.519977 917.469422 866.217818 901.607122 866.217818 
C 885.744821 866.217818 870.530064 872.519977 859.313723 883.736317 
C 848.097383 894.952658 841.795224 910.167415 841.795224 926.029715 
C 841.795224 941.892016 848.097383 957.106773 859.313723 968.323114 
C 870.530064 979.539454 885.744821 985.841613 901.607122 985.841613 
z
" clip-path="url(#pf3ca65f3df)" style="fill: #d1ed9c; opacity: 0.5"/>
   </g>
   <g id="patch_17">
    <path d="M 522.336221 612.137082 
C 548.902832 612.137082 574.38492 601.582055 593.170351 582.796625 
C 611.955782 564.011194 622.510808 538.529106 622.510808 511.962495 
C 622.510808 485.395884 611.955782 459.913796 593.170351 441.128365 
C 574.38492 422.342934 548.902832 411.787907 522.336221 411.787907 
C 495.76961 411.787907 470.287522 422.342934 451.502091 441.128365 
C 432.71666 459.913796 422.161634 485.395884 422.161634 511.962495 
C 422.161634 538.529106 432.71666 564.011194 451.502091 582.796625 
C 470.287522 601.582055 495.76961 612.137082 522.336221 612.137082 
z
" clip-path="url(#pf3ca65f3df)" style="fill: #b5e1a2; opacity: 0.5"/>
   </g>
   <g id="patch_18">
    <path d="M 1059.689743 1001.033385 
C 1071.384659 1001.033385 1082.602156 996.386945 1090.87171 988.117391 
C 1099.141264 979.847837 1103.787704 968.63034 1103.787704 956.935424 
C 1103.787704 945.240508 1099.141264 934.023011 1090.87171 925.753457 
C 1082.602156 917.483903 1071.384659 912.837463 1059.689743 912.837463 
C 1047.994827 912.837463 1036.77733 917.483903 1028.507776 925.753457 
C 1020.238222 934.023011 1015.591782 945.240508 1015.591782 956.935424 
C 1015.591782 968.63034 1020.238222 979.847837 1028.507776 988.117391 
C 1036.77733 996.386945 1047.994827 1001.033385 1059.689743 1001.033385 
z
" clip-path="url(#pf3ca65f3df)" style="fill: #97d5a4; opacity: 0.5"/>
   </g>
   <g id="patch_19">
    <path d="M 970.798681 1215.065151 
C 981.29748 1215.065151 991.367689 1210.893934 998.79146 1203.470162 
C 1006.215232 1196.04639 1010.386449 1185.976182 1010.386449 1175.477383 
C 1010.386449 1164.978584 1006.215232 1154.908376 998.79146 1147.484604 
C 991.367689 1140.060832 981.29748 1135.889615 970.798681 1135.889615 
C 960.299882 1135.889615 950.229674 1140.060832 942.805902 1147.484604 
C 935.38213 1154.908376 931.210913 1164.978584 931.210913 1175.477383 
C 931.210913 1185.976182 935.38213 1196.04639 942.805902 1203.470162 
C 950.229674 1210.893934 960.299882 1215.065151 970.798681 1215.065151 
z
" clip-path="url(#pf3ca65f3df)" style="fill: #79c9a5; opacity: 0.5"/>
   </g>
   <g id="patch_20">
    <path d="M 965.766416 1137.467636 
C 976.347345 1137.467636 986.49633 1133.263789 993.978177 1125.781942 
C 1001.460024 1118.300096 1005.663871 1108.15111 1005.663871 1097.570181 
C 1005.663871 1086.989252 1001.460024 1076.840266 993.978177 1069.35842 
C 986.49633 1061.876573 976.347345 1057.672726 965.766416 1057.672726 
C 955.185487 1057.672726 945.036501 1061.876573 937.554654 1069.35842 
C 930.072808 1076.840266 925.86896 1086.989252 925.86896 1097.570181 
C 925.86896 1108.15111 930.072808 1118.300096 937.554654 1125.781942 
C 945.036501 1133.263789 955.185487 1137.467636 965.766416 1137.467636 
z
" clip-path="url(#pf3ca65f3df)" style="fill: #5cb7aa; opacity: 0.5"/>
   </g>
   <g id="patch_21">
    <path d="M 434.544894 347.976395 
C 447.004349 347.976395 458.955175 343.026201 467.765341 334.216035 
C 476.575506 325.40587 481.525701 313.455044 481.525701 300.995588 
C 481.525701 288.536132 476.575506 276.585306 467.765341 267.775141 
C 458.955175 258.964975 447.004349 254.014781 434.544894 254.014781 
C 422.085438 254.014781 410.134612 258.964975 401.324446 267.775141 
C 392.514281 276.585306 387.564086 288.536132 387.564086 300.995588 
C 387.564086 313.455044 392.514281 325.40587 401.324446 334.216035 
C 410.134612 343.026201 422.085438 347.976395 434.544894 347.976395 
z
" clip-path="url(#pf3ca65f3df)" style="fill: #439bb5; opacity: 0.5"/>
   </g>
   <g id="patch_22">
    <path d="M 979.020438 1060.2973 
C 993.027995 1060.2973 1006.463724 1054.732038 1016.368562 1044.8272 
C 1026.273401 1034.922362 1031.838662 1021.486632 1031.838662 1007.479076 
C 1031.838662 993.471519 1026.273401 980.03579 1016.368562 970.130952 
C 1006.463724 960.226113 993.027995 954.660852 979.020438 954.660852 
C 965.012881 954.660852 951.577152 960.226113 941.672314 970.130952 
C 931.767476 980.03579 926.202214 993.471519 926.202214 1007.479076 
C 926.202214 1021.486632 931.767476 1034.922362 941.672314 1044.8272 
C 951.577152 1054.732038 965.012881 1060.2973 979.020438 1060.2973 
z
" clip-path="url(#pf3ca65f3df)" style="fill: #3682ba; opacity: 0.5"/>
   </g>
   <g id="patch_23">
    <path d="M 1105.865155 1037.982988 
C 1109.812497 1037.982988 1113.598698 1036.414692 1116.389891 1033.623499 
C 1119.181084 1030.832306 1120.749379 1027.046105 1120.749379 1023.098763 
C 1120.749379 1019.15142 1119.181084 1015.365219 1116.389891 1012.574027 
C 1113.598698 1009.782834 1109.812497 1008.214538 1105.865155 1008.214538 
C 1101.917812 1008.214538 1098.131611 1009.782834 1095.340419 1012.574027 
C 1092.549226 1015.365219 1090.98093 1019.15142 1090.98093 1023.098763 
C 1090.98093 1027.046105 1092.549226 1030.832306 1095.340419 1033.623499 
C 1098.131611 1036.414692 1101.917812 1037.982988 1105.865155 1037.982988 
z
" clip-path="url(#pf3ca65f3df)" style="fill: #4b68ae; opacity: 0.5"/>
   </g>
   <g id="patch_24">
    <path d="M 1046.50147 1030.924648 
C 1050.662334 1030.924648 1054.653341 1029.271519 1057.595516 1026.329343 
C 1060.537691 1023.387168 1062.19082 1019.396162 1062.19082 1015.235297 
C 1062.19082 1011.074433 1060.537691 1007.083427 1057.595516 1004.141251 
C 1054.653341 1001.199076 1050.662334 999.545947 1046.50147 999.545947 
C 1042.340606 999.545947 1038.349599 1001.199076 1035.407424 1004.141251 
C 1032.465249 1007.083427 1030.81212 1011.074433 1030.81212 1015.235297 
C 1030.81212 1019.396162 1032.465249 1023.387168 1035.407424 1026.329343 
C 1038.349599 1029.271519 1042.340606 1030.924648 1046.50147 1030.924648 
z
" clip-path="url(#pf3ca65f3df)" style="fill: #5e4fa2; opacity: 0.5"/>
   </g>
   <g id="line2d_1">
    <path d="M 1039.891614 1185.586927 
L 1022.361593 1130.055856 
" clip-path="url(#pf3ca65f3df)" style="fill: none; stroke: #808080; stroke-opacity: 0.3; stroke-width: 0.5; stroke-linecap: square"/>
   </g>
   <g id="line2d_2">
    <path d="M 1039.891614 1185.586927 
L 1053.92039 1071.805572 
" clip-path="url(#pf3ca65f3df)" style="fill: none; stroke: #808080; stroke-opacity: 0.3; stroke-width: 0.5; stroke-linecap: square"/>
   </g>
   <g id="line2d_3">
    <path d="M 1039.891614 1185.586927 
L 970.798681 1175.477383 
" clip-path="url(#pf3ca65f3df)" style="fill: none; stroke: #808080; stroke-opacity: 0.3; stroke-width: 0.5; stroke-linecap: square"/>
   </g>
   <g id="line2d_4">
    <path d="M 1039.891614 1185.586927 
L 1079.193363 1137.115662 
" clip-path="url(#pf3ca65f3df)" style="fill: none; stroke: #808080; stroke-opacity: 0.3; stroke-width: 0.5; stroke-linecap: square"/>
   </g>
   <g id="line2d_5">
    <path d="M 1039.891614 1185.586927 
L 1104.258208 1197.065896 
" clip-path="url(#pf3ca65f3df)" style="fill: none; stroke: #808080; stroke-opacity: 0.3; stroke-width: 0.5; stroke-linecap: square"/>
   </g>
   <g id="line2d_6">
    <path d="M 1022.361593 1130.055856 
L 1053.92039 1071.805572 
" clip-path="url(#pf3ca65f3df)" style="fill: none; stroke: #808080; stroke-opacity: 0.3; stroke-width: 0.5; stroke-linecap: square"/>
   </g>
   <g id="line2d_7">
    <path d="M 1022.361593 1130.055856 
L 970.798681 1175.477383 
" clip-path="url(#pf3ca65f3df)" style="fill: none; stroke: #808080; stroke-opacity: 0.3; stroke-width: 0.5; stroke-linecap: square"/>
   </g>
   <g id="line2d_8">
    <path d="M 1022.361593 1130.055856 
L 1079.193363 1137.115662 
" clip-path="url(#pf3ca65f3df)" style="fill: none; stroke: #808080; stroke-opacity: 0.3; stroke-width: 0.5; stroke-linecap: square"/>
   </g>
   <g id="line2d_9">
    <path d="M 1022.361593 1130.055856 
L 965.766416 1097.570181 
" clip-path="url(#pf3ca65f3df)" style="fill: none; stroke: #808080; stroke-opacity: 0.3; stroke-width: 0.5; stroke-linecap: square"/>
   </g>
   <g id="line2d_10">
    <path d="M 1053.92039 1071.805572 
L 979.020438 1007.479076 
" clip-path="url(#pf3ca65f3df)" style="fill: none; stroke: #808080; stroke-opacity: 0.3; stroke-width: 0.5; stroke-linecap: square"/>
   </g>
   <g id="line2d_11">
    <path d="M 1053.92039 1071.805572 
L 1105.865155 1023.098763 
" clip-path="url(#pf3ca65f3df)" style="fill: none; stroke: #808080; stroke-opacity: 0.3; stroke-width: 0.5; stroke-linecap: square"/>
   </g>
   <g id="line2d_12">
    <path d="M 1053.92039 1071.805572 
L 1046.50147 1015.235297 
" clip-path="url(#pf3ca65f3df)" style="fill: none; stroke: #808080; stroke-opacity: 0.3; stroke-width: 0.5; stroke-linecap: square"/>
   </g>
   <g id="line2d_13">
    <path d="M 1053.92039 1071.805572 
L 1079.193363 1137.115662 
" clip-path="url(#pf3ca65f3df)" style="fill: none; stroke: #808080; stroke-opacity: 0.3; stroke-width: 0.5; stroke-linecap: square"/>
   </g>
   <g id="line2d_14">
    <path d="M 1053.92039 1071.805572 
L 965.766416 1097.570181 
" clip-path="url(#pf3ca65f3df)" style="fill: none; stroke: #808080; stroke-opacity: 0.3; stroke-width: 0.5; stroke-linecap: square"/>
   </g>
   <g id="line2d_15">
    <path d="M 1053.92039 1071.805572 
L 1076.095781 1022.870546 
" clip-path="url(#pf3ca65f3df)" style="fill: none; stroke: #808080; stroke-opacity: 0.3; stroke-width: 0.5; stroke-linecap: square"/>
   </g>
   <g id="line2d_16">
    <path d="M 1053.92039 1071.805572 
L 1104.258208 1197.065896 
" clip-path="url(#pf3ca65f3df)" style="fill: none; stroke: #808080; stroke-opacity: 0.3; stroke-width: 0.5; stroke-linecap: square"/>
   </g>
   <g id="line2d_17">
    <path d="M 1053.92039 1071.805572 
L 1059.689743 956.935424 
" clip-path="url(#pf3ca65f3df)" style="fill: none; stroke: #808080; stroke-opacity: 0.3; stroke-width: 0.5; stroke-linecap: square"/>
   </g>
   <g id="line2d_18">
    <path d="M 493.581471 384.174027 
L 522.336221 511.962495 
" clip-path="url(#pf3ca65f3df)" style="fill: none; stroke: #808080; stroke-opacity: 0.3; stroke-width: 0.5; stroke-linecap: square"/>
   </g>
   <g id="line2d_19">
    <path d="M 493.581471 384.174027 
L 400.299683 404.428757 
" clip-path="url(#pf3ca65f3df)" style="fill: none; stroke: #808080; stroke-opacity: 0.3; stroke-width: 0.5; stroke-linecap: square"/>
   </g>
   <g id="line2d_20">
    <path d="M 439.642458 239.148696 
L 434.544894 300.995588 
" clip-path="url(#pf3ca65f3df)" style="fill: none; stroke: #808080; stroke-opacity: 0.3; stroke-width: 0.5; stroke-linecap: square"/>
   </g>
   <g id="line2d_21">
    <path d="M 970.798681 1175.477383 
L 965.766416 1097.570181 
" clip-path="url(#pf3ca65f3df)" style="fill: none; stroke: #808080; stroke-opacity: 0.3; stroke-width: 0.5; stroke-linecap: square"/>
   </g>
   <g id="line2d_22">
    <path d="M 979.020438 1007.479076 
L 871.649293 1053.217146 
" clip-path="url(#pf3ca65f3df)" style="fill: none; stroke: #808080; stroke-opacity: 0.3; stroke-width: 0.5; stroke-linecap: square"/>
   </g>
   <g id="line2d_23">
    <path d="M 979.020438 1007.479076 
L 901.607122 926.029715 
" clip-path="url(#pf3ca65f3df)" style="fill: none; stroke: #808080; stroke-opacity: 0.3; stroke-width: 0.5; stroke-linecap: square"/>
   </g>
   <g id="line2d_24">
    <path d="M 979.020438 1007.479076 
L 965.766416 1097.570181 
" clip-path="url(#pf3ca65f3df)" style="fill: none; stroke: #808080; stroke-opacity: 0.3; stroke-width: 0.5; stroke-linecap: square"/>
   </g>
   <g id="line2d_25">
    <path d="M 979.020438 1007.479076 
L 1059.689743 956.935424 
" clip-path="url(#pf3ca65f3df)" style="fill: none; stroke: #808080; stroke-opacity: 0.3; stroke-width: 0.5; stroke-linecap: square"/>
   </g>
   <g id="line2d_26">
    <path d="M 789.383237 846.824865 
L 752.447051 714.94771 
" clip-path="url(#pf3ca65f3df)" style="fill: none; stroke: #808080; stroke-opacity: 0.3; stroke-width: 0.5; stroke-linecap: square"/>
   </g>
   <g id="line2d_27">
    <path d="M 789.383237 846.824865 
L 901.607122 926.029715 
" clip-path="url(#pf3ca65f3df)" style="fill: none; stroke: #808080; stroke-opacity: 0.3; stroke-width: 0.5; stroke-linecap: square"/>
   </g>
   <g id="line2d_28">
    <path d="M 871.649293 1053.217146 
L 965.766416 1097.570181 
" clip-path="url(#pf3ca65f3df)" style="fill: none; stroke: #808080; stroke-opacity: 0.3; stroke-width: 0.5; stroke-linecap: square"/>
   </g>
   <g id="line2d_29">
    <path d="M 1105.865155 1023.098763 
L 1076.095781 1022.870546 
" clip-path="url(#pf3ca65f3df)" style="fill: none; stroke: #808080; stroke-opacity: 0.3; stroke-width: 0.5; stroke-linecap: square"/>
   </g>
   <g id="line2d_30">
    <path d="M 522.336221 511.962495 
L 516.682817 743.02828 
" clip-path="url(#pf3ca65f3df)" style="fill: none; stroke: #808080; stroke-opacity: 0.3; stroke-width: 0.5; stroke-linecap: square"/>
   </g>
   <g id="line2d_31">
    <path d="M 522.336221 511.962495 
L 672.987902 606.856888 
" clip-path="url(#pf3ca65f3df)" style="fill: none; stroke: #808080; stroke-opacity: 0.3; stroke-width: 0.5; stroke-linecap: square"/>
   </g>
   <g id="line2d_32">
    <path d="M 522.336221 511.962495 
L 400.299683 404.428757 
" clip-path="url(#pf3ca65f3df)" style="fill: none; stroke: #808080; stroke-opacity: 0.3; stroke-width: 0.5; stroke-linecap: square"/>
   </g>
   <g id="line2d_33">
    <path d="M 1046.50147 1015.235297 
L 1076.095781 1022.870546 
" clip-path="url(#pf3ca65f3df)" style="fill: none; stroke: #808080; stroke-opacity: 0.3; stroke-width: 0.5; stroke-linecap: square"/>
   </g>
   <g id="line2d_34">
    <path d="M 1046.50147 1015.235297 
L 1059.689743 956.935424 
" clip-path="url(#pf3ca65f3df)" style="fill: none; stroke: #808080; stroke-opacity: 0.3; stroke-width: 0.5; stroke-linecap: square"/>
   </g>
   <g id="line2d_35">
    <path d="M 672.987902 606.856888 
L 516.682817 743.02828 
" clip-path="url(#pf3ca65f3df)" style="fill: none; stroke: #808080; stroke-opacity: 0.3; stroke-width: 0.5; stroke-linecap: square"/>
   </g>
   <g id="line2d_36">
    <path d="M 672.987902 606.856888 
L 752.447051 714.94771 
" clip-path="url(#pf3ca65f3df)" style="fill: none; stroke: #808080; stroke-opacity: 0.3; stroke-width: 0.5; stroke-linecap: square"/>
   </g>
   <g id="line2d_37">
    <path d="M 400.299683 404.428757 
L 434.544894 300.995588 
" clip-path="url(#pf3ca65f3df)" style="fill: none; stroke: #808080; stroke-opacity: 0.3; stroke-width: 0.5; stroke-linecap: square"/>
   </g>
   <g id="text_1">
    <!-- ECU -->
    <g transform="translate(865.463199 1054.872771) scale(0.06 -0.06)">
     <defs>
      <path id="DejaVuSans-45" d="M 628 4666 
L 3578 4666 
L 3578 4134 
L 1259 4134 
L 1259 2753 
L 3481 2753 
L 3481 2222 
L 1259 2222 
L 1259 531 
L 3634 531 
L 3634 0 
L 628 0 
L 628 4666 
z
" transform="scale(0.015625)"/>
      <path id="DejaVuSans-43" d="M 4122 4306 
L 4122 3641 
Q 3803 3938 3442 4084 
Q 3081 4231 2675 4231 
Q 1875 4231 1450 3742 
Q 1025 3253 1025 2328 
Q 1025 1406 1450 917 
Q 1875 428 2675 428 
Q 3081 428 3442 575 
Q 3803 722 4122 1019 
L 4122 359 
Q 3791 134 3420 21 
Q 3050 -91 2638 -91 
Q 1578 -91 968 557 
Q 359 1206 359 2328 
Q 359 3453 968 4101 
Q 1578 4750 2638 4750 
Q 3056 4750 3426 4639 
Q 3797 4528 4122 4306 
z
" transform="scale(0.015625)"/>
      <path id="DejaVuSans-55" d="M 556 4666 
L 1191 4666 
L 1191 1831 
Q 1191 1081 1462 751 
Q 1734 422 2344 422 
Q 2950 422 3222 751 
Q 3494 1081 3494 1831 
L 3494 4666 
L 4128 4666 
L 4128 1753 
Q 4128 841 3676 375 
Q 3225 -91 2344 -91 
Q 1459 -91 1007 375 
Q 556 841 556 1753 
L 556 4666 
z
" transform="scale(0.015625)"/>
     </defs>
     <use xlink:href="#DejaVuSans-45"/>
     <use xlink:href="#DejaVuSans-43" x="63.183594"/>
     <use xlink:href="#DejaVuSans-55" x="133.007812"/>
    </g>
   </g>
   <g id="text_2">
    <!-- SUR -->
    <g transform="translate(1069.911094 1024.526171) scale(0.06 -0.06)">
     <defs>
      <path id="DejaVuSans-53" d="M 3425 4513 
L 3425 3897 
Q 3066 4069 2747 4153 
Q 2428 4238 2131 4238 
Q 1616 4238 1336 4038 
Q 1056 3838 1056 3469 
Q 1056 3159 1242 3001 
Q 1428 2844 1947 2747 
L 2328 2669 
Q 3034 2534 3370 2195 
Q 3706 1856 3706 1288 
Q 3706 609 3251 259 
Q 2797 -91 1919 -91 
Q 1588 -91 1214 -16 
Q 841 59 441 206 
L 441 856 
Q 825 641 1194 531 
Q 1563 422 1919 422 
Q 2459 422 2753 634 
Q 3047 847 3047 1241 
Q 3047 1584 2836 1778 
Q 2625 1972 2144 2069 
L 1759 2144 
Q 1053 2284 737 2584 
Q 422 2884 422 3419 
Q 422 4038 858 4394 
Q 1294 4750 2059 4750 
Q 2388 4750 2728 4690 
Q 3069 4631 3425 4513 
z
" transform="scale(0.015625)"/>
      <path id="DejaVuSans-52" d="M 2841 2188 
Q 3044 2119 3236 1894 
Q 3428 1669 3622 1275 
L 4263 0 
L 3584 0 
L 2988 1197 
Q 2756 1666 2539 1819 
Q 2322 1972 1947 1972 
L 1259 1972 
L 1259 0 
L 628 0 
L 628 4666 
L 2053 4666 
Q 2853 4666 3247 4331 
Q 3641 3997 3641 3322 
Q 3641 2881 3436 2590 
Q 3231 2300 2841 2188 
z
M 1259 4147 
L 1259 2491 
L 2053 2491 
Q 2509 2491 2742 2702 
Q 2975 2913 2975 3322 
Q 2975 3731 2742 3939 
Q 2509 4147 2053 4147 
L 1259 4147 
z
" transform="scale(0.015625)"/>
     </defs>
     <use xlink:href="#DejaVuSans-53"/>
     <use xlink:href="#DejaVuSans-55" x="63.476562"/>
     <use xlink:href="#DejaVuSans-52" x="136.669922"/>
    </g>
   </g>
   <g id="text_3">
    <!-- BRA -->
    <g transform="translate(1047.84539 1073.461197) scale(0.06 -0.06)">
     <defs>
      <path id="DejaVuSans-42" d="M 1259 2228 
L 1259 519 
L 2272 519 
Q 2781 519 3026 730 
Q 3272 941 3272 1375 
Q 3272 1813 3026 2020 
Q 2781 2228 2272 2228 
L 1259 2228 
z
M 1259 4147 
L 1259 2741 
L 2194 2741 
Q 2656 2741 2882 2914 
Q 3109 3088 3109 3444 
Q 3109 3797 2882 3972 
Q 2656 4147 2194 4147 
L 1259 4147 
z
M 628 4666 
L 2241 4666 
Q 2963 4666 3353 4366 
Q 3744 4066 3744 3513 
Q 3744 3084 3544 2831 
Q 3344 2578 2956 2516 
Q 3422 2416 3680 2098 
Q 3938 1781 3938 1306 
Q 3938 681 3513 340 
Q 3088 0 2303 0 
L 628 0 
L 628 4666 
z
" transform="scale(0.015625)"/>
      <path id="DejaVuSans-41" d="M 2188 4044 
L 1331 1722 
L 3047 1722 
L 2188 4044 
z
M 1831 4666 
L 2547 4666 
L 4325 0 
L 3669 0 
L 3244 1197 
L 1141 1197 
L 716 0 
L 50 0 
L 1831 4666 
z
" transform="scale(0.015625)"/>
     </defs>
     <use xlink:href="#DejaVuSans-42"/>
     <use xlink:href="#DejaVuSans-52" x="68.603516"/>
     <use xlink:href="#DejaVuSans-41" x="134.085938"/>
    </g>
   </g>
   <g id="text_4">
    <!-- ARG -->
    <g transform="translate(1033.430364 1187.242552) scale(0.06 -0.06)">
     <defs>
      <path id="DejaVuSans-47" d="M 3809 666 
L 3809 1919 
L 2778 1919 
L 2778 2438 
L 4434 2438 
L 4434 434 
Q 4069 175 3628 42 
Q 3188 -91 2688 -91 
Q 1594 -91 976 548 
Q 359 1188 359 2328 
Q 359 3472 976 4111 
Q 1594 4750 2688 4750 
Q 3144 4750 3555 4637 
Q 3966 4525 4313 4306 
L 4313 3634 
Q 3963 3931 3569 4081 
Q 3175 4231 2741 4231 
Q 1884 4231 1454 3753 
Q 1025 3275 1025 2328 
Q 1025 1384 1454 906 
Q 1884 428 2741 428 
Q 3075 428 3337 486 
Q 3600 544 3809 666 
z
" transform="scale(0.015625)"/>
     </defs>
     <use xlink:href="#DejaVuSans-41"/>
     <use xlink:href="#DejaVuSans-52" x="68.408203"/>
     <use xlink:href="#DejaVuSans-47" x="137.890625"/>
    </g>
   </g>
   <g id="text_5">
    <!-- NIC -->
    <g transform="translate(747.222832 716.603335) scale(0.06 -0.06)">
     <defs>
      <path id="DejaVuSans-4e" d="M 628 4666 
L 1478 4666 
L 3547 763 
L 3547 4666 
L 4159 4666 
L 4159 0 
L 3309 0 
L 1241 3903 
L 1241 0 
L 628 0 
L 628 4666 
z
" transform="scale(0.015625)"/>
      <path id="DejaVuSans-49" d="M 628 4666 
L 1259 4666 
L 1259 0 
L 628 0 
L 628 4666 
z
" transform="scale(0.015625)"/>
     </defs>
     <use xlink:href="#DejaVuSans-4e"/>
     <use xlink:href="#DejaVuSans-49" x="74.804688"/>
     <use xlink:href="#DejaVuSans-43" x="104.296875"/>
    </g>
   </g>
   <g id="text_6">
    <!-- BLZ -->
    <g transform="translate(487.796627 385.829652) scale(0.06 -0.06)">
     <defs>
      <path id="DejaVuSans-4c" d="M 628 4666 
L 1259 4666 
L 1259 531 
L 3531 531 
L 3531 0 
L 628 0 
L 628 4666 
z
" transform="scale(0.015625)"/>
      <path id="DejaVuSans-5a" d="M 359 4666 
L 4025 4666 
L 4025 4184 
L 1075 531 
L 4097 531 
L 4097 0 
L 288 0 
L 288 481 
L 3238 4134 
L 359 4134 
L 359 4666 
z
" transform="scale(0.015625)"/>
     </defs>
     <use xlink:href="#DejaVuSans-42"/>
     <use xlink:href="#DejaVuSans-4c" x="68.603516"/>
     <use xlink:href="#DejaVuSans-5a" x="124.316406"/>
    </g>
   </g>
   <g id="text_7">
    <!-- BOL -->
    <g transform="translate(1016.322687 1131.711481) scale(0.06 -0.06)">
     <defs>
      <path id="DejaVuSans-4f" d="M 2522 4238 
Q 1834 4238 1429 3725 
Q 1025 3213 1025 2328 
Q 1025 1447 1429 934 
Q 1834 422 2522 422 
Q 3209 422 3611 934 
Q 4013 1447 4013 2328 
Q 4013 3213 3611 3725 
Q 3209 4238 2522 4238 
z
M 2522 4750 
Q 3503 4750 4090 4092 
Q 4678 3434 4678 2328 
Q 4678 1225 4090 567 
Q 3503 -91 2522 -91 
Q 1538 -91 948 565 
Q 359 1222 359 2328 
Q 359 3434 948 4092 
Q 1538 4750 2522 4750 
z
" transform="scale(0.015625)"/>
     </defs>
     <use xlink:href="#DejaVuSans-42"/>
     <use xlink:href="#DejaVuSans-4f" x="66.853516"/>
     <use xlink:href="#DejaVuSans-4c" x="145.564453"/>
    </g>
   </g>
   <g id="text_8">
    <!-- HND -->
    <g transform="translate(666.177433 608.512513) scale(0.06 -0.06)">
     <defs>
      <path id="DejaVuSans-48" d="M 628 4666 
L 1259 4666 
L 1259 2753 
L 3553 2753 
L 3553 4666 
L 4184 4666 
L 4184 0 
L 3553 0 
L 3553 2222 
L 1259 2222 
L 1259 0 
L 628 0 
L 628 4666 
z
" transform="scale(0.015625)"/>
      <path id="DejaVuSans-44" d="M 1259 4147 
L 1259 519 
L 2022 519 
Q 2988 519 3436 956 
Q 3884 1394 3884 2338 
Q 3884 3275 3436 3711 
Q 2988 4147 2022 4147 
L 1259 4147 
z
M 628 4666 
L 1925 4666 
Q 3281 4666 3915 4102 
Q 4550 3538 4550 2338 
Q 4550 1131 3912 565 
Q 3275 0 1925 0 
L 628 0 
L 628 4666 
z
" transform="scale(0.015625)"/>
     </defs>
     <use xlink:href="#DejaVuSans-48"/>
     <use xlink:href="#DejaVuSans-4e" x="75.195312"/>
     <use xlink:href="#DejaVuSans-44" x="150"/>
    </g>
   </g>
   <g id="text_9">
    <!-- PRY -->
    <g transform="translate(1073.658831 1138.771287) scale(0.06 -0.06)">
     <defs>
      <path id="DejaVuSans-50" d="M 1259 4147 
L 1259 2394 
L 2053 2394 
Q 2494 2394 2734 2622 
Q 2975 2850 2975 3272 
Q 2975 3691 2734 3919 
Q 2494 4147 2053 4147 
L 1259 4147 
z
M 628 4666 
L 2053 4666 
Q 2838 4666 3239 4311 
Q 3641 3956 3641 3272 
Q 3641 2581 3239 2228 
Q 2838 1875 2053 1875 
L 1259 1875 
L 1259 0 
L 628 0 
L 628 4666 
z
" transform="scale(0.015625)"/>
      <path id="DejaVuSans-59" d="M -13 4666 
L 666 4666 
L 1959 2747 
L 3244 4666 
L 3922 4666 
L 2272 2222 
L 2272 0 
L 1638 0 
L 1638 2222 
L -13 4666 
z
" transform="scale(0.015625)"/>
     </defs>
     <use xlink:href="#DejaVuSans-50"/>
     <use xlink:href="#DejaVuSans-52" x="60.302734"/>
     <use xlink:href="#DejaVuSans-59" x="123.410156"/>
    </g>
   </g>
   <g id="text_10">
    <!-- CAN -->
    <g transform="translate(433.251051 240.804321) scale(0.06 -0.06)">
     <use xlink:href="#DejaVuSans-43"/>
     <use xlink:href="#DejaVuSans-41" x="69.824219"/>
     <use xlink:href="#DejaVuSans-4e" x="138.232422"/>
    </g>
   </g>
   <g id="text_11">
    <!-- URY -->
    <g transform="translate(1098.336958 1198.721521) scale(0.06 -0.06)">
     <use xlink:href="#DejaVuSans-55"/>
     <use xlink:href="#DejaVuSans-52" x="73.193359"/>
     <use xlink:href="#DejaVuSans-59" x="136.300781"/>
    </g>
   </g>
   <g id="text_12">
    <!-- SLV -->
    <g transform="translate(511.384536 744.683905) scale(0.06 -0.06)">
     <defs>
      <path id="DejaVuSans-56" d="M 1831 0 
L 50 4666 
L 709 4666 
L 2188 738 
L 3669 4666 
L 4325 4666 
L 2547 0 
L 1831 0 
z
" transform="scale(0.015625)"/>
     </defs>
     <use xlink:href="#DejaVuSans-53"/>
     <use xlink:href="#DejaVuSans-4c" x="63.476562"/>
     <use xlink:href="#DejaVuSans-56" x="108.189453"/>
    </g>
   </g>
   <g id="text_13">
    <!-- MEX -->
    <g transform="translate(393.760621 406.084382) scale(0.06 -0.06)">
     <defs>
      <path id="DejaVuSans-4d" d="M 628 4666 
L 1569 4666 
L 2759 1491 
L 3956 4666 
L 4897 4666 
L 4897 0 
L 4281 0 
L 4281 4097 
L 3078 897 
L 2444 897 
L 1241 4097 
L 1241 0 
L 628 0 
L 628 4666 
z
" transform="scale(0.015625)"/>
      <path id="DejaVuSans-58" d="M 403 4666 
L 1081 4666 
L 2241 2931 
L 3406 4666 
L 4084 4666 
L 2584 2425 
L 4184 0 
L 3506 0 
L 2194 1984 
L 872 0 
L 191 0 
L 1856 2491 
L 403 4666 
z
" transform="scale(0.015625)"/>
     </defs>
     <use xlink:href="#DejaVuSans-4d"/>
     <use xlink:href="#DejaVuSans-45" x="86.279297"/>
     <use xlink:href="#DejaVuSans-58" x="149.462891"/>
    </g>
   </g>
   <g id="text_14">
    <!-- CRI -->
    <g transform="translate(784.318862 848.48049) scale(0.06 -0.06)">
     <use xlink:href="#DejaVuSans-43"/>
     <use xlink:href="#DejaVuSans-52" x="69.824219"/>
     <use xlink:href="#DejaVuSans-49" x="139.306641"/>
    </g>
   </g>
   <g id="text_15">
    <!-- PAN -->
    <g transform="translate(895.692903 927.68534) scale(0.06 -0.06)">
     <use xlink:href="#DejaVuSans-50"/>
     <use xlink:href="#DejaVuSans-41" x="53.927734"/>
     <use xlink:href="#DejaVuSans-4e" x="122.335938"/>
    </g>
   </g>
   <g id="text_16">
    <!-- GTM -->
    <g transform="translate(515.699658 513.61812) scale(0.06 -0.06)">
     <defs>
      <path id="DejaVuSans-54" d="M -19 4666 
L 3928 4666 
L 3928 4134 
L 2272 4134 
L 2272 0 
L 1638 0 
L 1638 4134 
L -19 4134 
L -19 4666 
z
" transform="scale(0.015625)"/>
     </defs>
     <use xlink:href="#DejaVuSans-47"/>
     <use xlink:href="#DejaVuSans-54" x="73.865234"/>
     <use xlink:href="#DejaVuSans-4d" x="134.949219"/>
    </g>
   </g>
   <g id="text_17">
    <!-- VEN -->
    <g transform="translate(1053.497555 958.591049) scale(0.06 -0.06)">
     <use xlink:href="#DejaVuSans-56"/>
     <use xlink:href="#DejaVuSans-45" x="68.408203"/>
     <use xlink:href="#DejaVuSans-4e" x="131.591797"/>
    </g>
   </g>
   <g id="text_18">
    <!-- CHL -->
    <g transform="translate(964.776181 1177.133008) scale(0.06 -0.06)">
     <use xlink:href="#DejaVuSans-43"/>
     <use xlink:href="#DejaVuSans-48" x="69.824219"/>
     <use xlink:href="#DejaVuSans-4c" x="145.019531"/>
    </g>
   </g>
   <g id="text_19">
    <!-- PER -->
    <g transform="translate(959.977353 1099.225806) scale(0.06 -0.06)">
     <use xlink:href="#DejaVuSans-50"/>
     <use xlink:href="#DejaVuSans-45" x="60.302734"/>
     <use xlink:href="#DejaVuSans-52" x="123.486328"/>
    </g>
   </g>
   <g id="text_20">
    <!-- USA -->
    <g transform="translate(428.3363 302.651213) scale(0.06 -0.06)">
     <use xlink:href="#DejaVuSans-55"/>
     <use xlink:href="#DejaVuSans-53" x="73.193359"/>
     <use xlink:href="#DejaVuSans-41" x="138.544922"/>
    </g>
   </g>
   <g id="text_21">
    <!-- COL -->
    <g transform="translate(972.892469 1009.134701) scale(0.06 -0.06)">
     <use xlink:href="#DejaVuSans-43"/>
     <use xlink:href="#DejaVuSans-4f" x="69.824219"/>
     <use xlink:href="#DejaVuSans-4c" x="148.535156"/>
    </g>
   </g>
   <g id="text_22">
    <!-- GUF -->
    <g transform="translate(1099.61953 1024.754388) scale(0.06 -0.06)">
     <defs>
      <path id="DejaVuSans-46" d="M 628 4666 
L 3309 4666 
L 3309 4134 
L 1259 4134 
L 1259 2759 
L 3109 2759 
L 3109 2228 
L 1259 2228 
L 1259 0 
L 628 0 
L 628 4666 
z
" transform="scale(0.015625)"/>
     </defs>
     <use xlink:href="#DejaVuSans-47"/>
     <use xlink:href="#DejaVuSans-55" x="77.490234"/>
     <use xlink:href="#DejaVuSans-46" x="150.683594"/>
    </g>
   </g>
   <g id="text_23">
    <!-- GUY -->
    <g transform="translate(1040.14897 1016.890922) scale(0.06 -0.06)">
     <use xlink:href="#DejaVuSans-47"/>
     <use xlink:href="#DejaVuSans-55" x="77.490234"/>
     <use xlink:href="#DejaVuSans-59" x="150.683594"/>
    </g>
   </g>
   <g id="text_24">
    <!-- D:1.09 -->
    <g transform="translate(1031.126603 1153.342266) scale(0.04 -0.04)">
     <defs>
      <path id="DejaVuSans-3a" d="M 750 794 
L 1409 794 
L 1409 0 
L 750 0 
L 750 794 
z
M 750 3309 
L 1409 3309 
L 1409 2516 
L 750 2516 
L 750 3309 
z
" transform="scale(0.015625)"/>
      <path id="DejaVuSans-31" d="M 794 531 
L 1825 531 
L 1825 4091 
L 703 3866 
L 703 4441 
L 1819 4666 
L 2450 4666 
L 2450 531 
L 3481 531 
L 3481 0 
L 794 0 
L 794 531 
z
" transform="scale(0.015625)"/>
      <path id="DejaVuSans-2e" d="M 684 794 
L 1344 794 
L 1344 0 
L 684 0 
L 684 794 
z
" transform="scale(0.015625)"/>
      <path id="DejaVuSans-30" d="M 2034 4250 
Q 1547 4250 1301 3770 
Q 1056 3291 1056 2328 
Q 1056 1369 1301 889 
Q 1547 409 2034 409 
Q 2525 409 2770 889 
Q 3016 1369 3016 2328 
Q 3016 3291 2770 3770 
Q 2525 4250 2034 4250 
z
M 2034 4750 
Q 2819 4750 3233 4129 
Q 3647 3509 3647 2328 
Q 3647 1150 3233 529 
Q 2819 -91 2034 -91 
Q 1250 -91 836 529 
Q 422 1150 422 2328 
Q 422 3509 836 4129 
Q 1250 4750 2034 4750 
z
" transform="scale(0.015625)"/>
      <path id="DejaVuSans-39" d="M 703 97 
L 703 672 
Q 941 559 1184 500 
Q 1428 441 1663 441 
Q 2288 441 2617 861 
Q 2947 1281 2994 2138 
Q 2813 1869 2534 1725 
Q 2256 1581 1919 1581 
Q 1219 1581 811 2004 
Q 403 2428 403 3163 
Q 403 3881 828 4315 
Q 1253 4750 1959 4750 
Q 2769 4750 3195 4129 
Q 3622 3509 3622 2328 
Q 3622 1225 3098 567 
Q 2575 -91 1691 -91 
Q 1453 -91 1209 -44 
Q 966 3 703 97 
z
M 1959 2075 
Q 2384 2075 2632 2365 
Q 2881 2656 2881 3163 
Q 2881 3666 2632 3958 
Q 2384 4250 1959 4250 
Q 1534 4250 1286 3958 
Q 1038 3666 1038 3163 
Q 1038 2656 1286 2365 
Q 1534 2075 1959 2075 
z
" transform="scale(0.015625)"/>
     </defs>
     <use xlink:href="#DejaVuSans-44"/>
     <use xlink:href="#DejaVuSans-3a" x="77.001953"/>
     <use xlink:href="#DejaVuSans-31" x="110.693359"/>
     <use xlink:href="#DejaVuSans-2e" x="174.316406"/>
     <use xlink:href="#DejaVuSans-30" x="206.103516"/>
     <use xlink:href="#DejaVuSans-39" x="269.726562"/>
    </g>
    <!-- A:7.86 -->
    <g transform="translate(1031.126603 1157.821391) scale(0.04 -0.04)">
     <defs>
      <path id="DejaVuSans-37" d="M 525 4666 
L 3525 4666 
L 3525 4397 
L 1831 0 
L 1172 0 
L 2766 4134 
L 525 4134 
L 525 4666 
z
" transform="scale(0.015625)"/>
      <path id="DejaVuSans-38" d="M 2034 2216 
Q 1584 2216 1326 1975 
Q 1069 1734 1069 1313 
Q 1069 891 1326 650 
Q 1584 409 2034 409 
Q 2484 409 2743 651 
Q 3003 894 3003 1313 
Q 3003 1734 2745 1975 
Q 2488 2216 2034 2216 
z
M 1403 2484 
Q 997 2584 770 2862 
Q 544 3141 544 3541 
Q 544 4100 942 4425 
Q 1341 4750 2034 4750 
Q 2731 4750 3128 4425 
Q 3525 4100 3525 3541 
Q 3525 3141 3298 2862 
Q 3072 2584 2669 2484 
Q 3125 2378 3379 2068 
Q 3634 1759 3634 1313 
Q 3634 634 3220 271 
Q 2806 -91 2034 -91 
Q 1263 -91 848 271 
Q 434 634 434 1313 
Q 434 1759 690 2068 
Q 947 2378 1403 2484 
z
M 1172 3481 
Q 1172 3119 1398 2916 
Q 1625 2713 2034 2713 
Q 2441 2713 2670 2916 
Q 2900 3119 2900 3481 
Q 2900 3844 2670 4047 
Q 2441 4250 2034 4250 
Q 1625 4250 1398 4047 
Q 1172 3844 1172 3481 
z
" transform="scale(0.015625)"/>
      <path id="DejaVuSans-36" d="M 2113 2584 
Q 1688 2584 1439 2293 
Q 1191 2003 1191 1497 
Q 1191 994 1439 701 
Q 1688 409 2113 409 
Q 2538 409 2786 701 
Q 3034 994 3034 1497 
Q 3034 2003 2786 2293 
Q 2538 2584 2113 2584 
z
M 3366 4563 
L 3366 3988 
Q 3128 4100 2886 4159 
Q 2644 4219 2406 4219 
Q 1781 4219 1451 3797 
Q 1122 3375 1075 2522 
Q 1259 2794 1537 2939 
Q 1816 3084 2150 3084 
Q 2853 3084 3261 2657 
Q 3669 2231 3669 1497 
Q 3669 778 3244 343 
Q 2819 -91 2113 -91 
Q 1303 -91 875 529 
Q 447 1150 447 2328 
Q 447 3434 972 4092 
Q 1497 4750 2381 4750 
Q 2619 4750 2861 4703 
Q 3103 4656 3366 4563 
z
" transform="scale(0.015625)"/>
     </defs>
     <use xlink:href="#DejaVuSans-41"/>
     <use xlink:href="#DejaVuSans-3a" x="66.658203"/>
     <use xlink:href="#DejaVuSans-37" x="100.349609"/>
     <use xlink:href="#DejaVuSans-2e" x="163.972656"/>
     <use xlink:href="#DejaVuSans-38" x="195.759766"/>
     <use xlink:href="#DejaVuSans-36" x="259.382812"/>
    </g>
   </g>
   <g id="text_25">
    <!-- A:7.86 -->
    <g transform="translate(1031.126603 1157.821391) scale(0.04 -0.04)">
     <use xlink:href="#DejaVuSans-41"/>
     <use xlink:href="#DejaVuSans-3a" x="66.658203"/>
     <use xlink:href="#DejaVuSans-37" x="100.349609"/>
     <use xlink:href="#DejaVuSans-2e" x="163.972656"/>
     <use xlink:href="#DejaVuSans-38" x="195.759766"/>
     <use xlink:href="#DejaVuSans-36" x="259.382812"/>
    </g>
   </g>
   <g id="text_26">
    <!-- D:61.96 -->
    <g transform="translate(1046.906002 1124.217124) scale(0.04 -0.04)">
     <use xlink:href="#DejaVuSans-44"/>
     <use xlink:href="#DejaVuSans-3a" x="77.001953"/>
     <use xlink:href="#DejaVuSans-36" x="110.693359"/>
     <use xlink:href="#DejaVuSans-31" x="174.316406"/>
     <use xlink:href="#DejaVuSans-2e" x="237.939453"/>
     <use xlink:href="#DejaVuSans-39" x="269.726562"/>
     <use xlink:href="#DejaVuSans-36" x="333.349609"/>
    </g>
    <!-- A:7.52 -->
    <g transform="translate(1046.906002 1128.696249) scale(0.04 -0.04)">
     <defs>
      <path id="DejaVuSans-35" d="M 691 4666 
L 3169 4666 
L 3169 4134 
L 1269 4134 
L 1269 2991 
Q 1406 3038 1543 3061 
Q 1681 3084 1819 3084 
Q 2600 3084 3056 2656 
Q 3513 2228 3513 1497 
Q 3513 744 3044 326 
Q 2575 -91 1722 -91 
Q 1428 -91 1123 -41 
Q 819 9 494 109 
L 494 744 
Q 775 591 1075 516 
Q 1375 441 1709 441 
Q 2250 441 2565 725 
Q 2881 1009 2881 1497 
Q 2881 1984 2565 2268 
Q 2250 2553 1709 2553 
Q 1456 2553 1204 2497 
Q 953 2441 691 2322 
L 691 4666 
z
" transform="scale(0.015625)"/>
      <path id="DejaVuSans-32" d="M 1228 531 
L 3431 531 
L 3431 0 
L 469 0 
L 469 531 
Q 828 903 1448 1529 
Q 2069 2156 2228 2338 
Q 2531 2678 2651 2914 
Q 2772 3150 2772 3378 
Q 2772 3750 2511 3984 
Q 2250 4219 1831 4219 
Q 1534 4219 1204 4116 
Q 875 4013 500 3803 
L 500 4441 
Q 881 4594 1212 4672 
Q 1544 4750 1819 4750 
Q 2544 4750 2975 4387 
Q 3406 4025 3406 3419 
Q 3406 3131 3298 2873 
Q 3191 2616 2906 2266 
Q 2828 2175 2409 1742 
Q 1991 1309 1228 531 
z
" transform="scale(0.015625)"/>
     </defs>
     <use xlink:href="#DejaVuSans-41"/>
     <use xlink:href="#DejaVuSans-3a" x="66.658203"/>
     <use xlink:href="#DejaVuSans-37" x="100.349609"/>
     <use xlink:href="#DejaVuSans-2e" x="163.972656"/>
     <use xlink:href="#DejaVuSans-35" x="195.759766"/>
     <use xlink:href="#DejaVuSans-32" x="259.382812"/>
    </g>
   </g>
   <g id="text_27">
    <!-- A:7.52 -->
    <g transform="translate(1046.906002 1128.696249) scale(0.04 -0.04)">
     <use xlink:href="#DejaVuSans-41"/>
     <use xlink:href="#DejaVuSans-3a" x="66.658203"/>
     <use xlink:href="#DejaVuSans-37" x="100.349609"/>
     <use xlink:href="#DejaVuSans-2e" x="163.972656"/>
     <use xlink:href="#DejaVuSans-35" x="195.759766"/>
     <use xlink:href="#DejaVuSans-32" x="259.382812"/>
    </g>
   </g>
   <g id="text_28">
    <!-- A:11.90 -->
    <g transform="translate(1005.345147 1180.532155) scale(0.04 -0.04)">
     <use xlink:href="#DejaVuSans-41"/>
     <use xlink:href="#DejaVuSans-3a" x="66.658203"/>
     <use xlink:href="#DejaVuSans-31" x="100.349609"/>
     <use xlink:href="#DejaVuSans-31" x="163.972656"/>
     <use xlink:href="#DejaVuSans-2e" x="227.595703"/>
     <use xlink:href="#DejaVuSans-39" x="259.382812"/>
     <use xlink:href="#DejaVuSans-30" x="323.005859"/>
    </g>
   </g>
   <g id="text_29">
    <!-- A:5.79 -->
    <g transform="translate(1059.542488 1161.351294) scale(0.04 -0.04)">
     <use xlink:href="#DejaVuSans-41"/>
     <use xlink:href="#DejaVuSans-3a" x="66.658203"/>
     <use xlink:href="#DejaVuSans-35" x="100.349609"/>
     <use xlink:href="#DejaVuSans-2e" x="163.972656"/>
     <use xlink:href="#DejaVuSans-37" x="195.759766"/>
     <use xlink:href="#DejaVuSans-39" x="259.382812"/>
    </g>
   </g>
   <g id="text_30">
    <!-- A:9.58 -->
    <g transform="translate(1072.074911 1191.326411) scale(0.04 -0.04)">
     <use xlink:href="#DejaVuSans-41"/>
     <use xlink:href="#DejaVuSans-3a" x="66.658203"/>
     <use xlink:href="#DejaVuSans-39" x="100.349609"/>
     <use xlink:href="#DejaVuSans-2e" x="163.972656"/>
     <use xlink:href="#DejaVuSans-35" x="195.759766"/>
     <use xlink:href="#DejaVuSans-38" x="259.382812"/>
    </g>
   </g>
   <g id="text_31">
    <!-- D:1.34 -->
    <g transform="translate(1038.140991 1096.451589) scale(0.04 -0.04)">
     <defs>
      <path id="DejaVuSans-33" d="M 2597 2516 
Q 3050 2419 3304 2112 
Q 3559 1806 3559 1356 
Q 3559 666 3084 287 
Q 2609 -91 1734 -91 
Q 1441 -91 1130 -33 
Q 819 25 488 141 
L 488 750 
Q 750 597 1062 519 
Q 1375 441 1716 441 
Q 2309 441 2620 675 
Q 2931 909 2931 1356 
Q 2931 1769 2642 2001 
Q 2353 2234 1838 2234 
L 1294 2234 
L 1294 2753 
L 1863 2753 
Q 2328 2753 2575 2939 
Q 2822 3125 2822 3475 
Q 2822 3834 2567 4026 
Q 2313 4219 1838 4219 
Q 1578 4219 1281 4162 
Q 984 4106 628 3988 
L 628 4550 
Q 988 4650 1302 4700 
Q 1616 4750 1894 4750 
Q 2613 4750 3031 4423 
Q 3450 4097 3450 3541 
Q 3450 3153 3228 2886 
Q 3006 2619 2597 2516 
z
" transform="scale(0.015625)"/>
      <path id="DejaVuSans-34" d="M 2419 4116 
L 825 1625 
L 2419 1625 
L 2419 4116 
z
M 2253 4666 
L 3047 4666 
L 3047 1625 
L 3713 1625 
L 3713 1100 
L 3047 1100 
L 3047 0 
L 2419 0 
L 2419 1100 
L 313 1100 
L 313 1709 
L 2253 4666 
z
" transform="scale(0.015625)"/>
     </defs>
     <use xlink:href="#DejaVuSans-44"/>
     <use xlink:href="#DejaVuSans-3a" x="77.001953"/>
     <use xlink:href="#DejaVuSans-31" x="110.693359"/>
     <use xlink:href="#DejaVuSans-2e" x="174.316406"/>
     <use xlink:href="#DejaVuSans-33" x="206.103516"/>
     <use xlink:href="#DejaVuSans-34" x="269.726562"/>
    </g>
    <!-- A:14.76 -->
    <g transform="translate(1038.140991 1100.930714) scale(0.04 -0.04)">
     <use xlink:href="#DejaVuSans-41"/>
     <use xlink:href="#DejaVuSans-3a" x="66.658203"/>
     <use xlink:href="#DejaVuSans-31" x="100.349609"/>
     <use xlink:href="#DejaVuSans-34" x="163.972656"/>
     <use xlink:href="#DejaVuSans-2e" x="227.595703"/>
     <use xlink:href="#DejaVuSans-37" x="259.382812"/>
     <use xlink:href="#DejaVuSans-36" x="323.005859"/>
    </g>
   </g>
   <g id="text_32">
    <!-- A:14.76 -->
    <g transform="translate(1038.140991 1100.930714) scale(0.04 -0.04)">
     <use xlink:href="#DejaVuSans-41"/>
     <use xlink:href="#DejaVuSans-3a" x="66.658203"/>
     <use xlink:href="#DejaVuSans-31" x="100.349609"/>
     <use xlink:href="#DejaVuSans-34" x="163.972656"/>
     <use xlink:href="#DejaVuSans-2e" x="227.595703"/>
     <use xlink:href="#DejaVuSans-37" x="259.382812"/>
     <use xlink:href="#DejaVuSans-36" x="323.005859"/>
    </g>
   </g>
   <g id="text_33">
    <!-- D:4.62 -->
    <g transform="translate(996.580137 1148.287494) scale(0.04 -0.04)">
     <use xlink:href="#DejaVuSans-44"/>
     <use xlink:href="#DejaVuSans-3a" x="77.001953"/>
     <use xlink:href="#DejaVuSans-34" x="110.693359"/>
     <use xlink:href="#DejaVuSans-2e" x="174.316406"/>
     <use xlink:href="#DejaVuSans-36" x="206.103516"/>
     <use xlink:href="#DejaVuSans-32" x="269.726562"/>
    </g>
    <!-- A:13.25 -->
    <g transform="translate(996.580137 1152.766619) scale(0.04 -0.04)">
     <use xlink:href="#DejaVuSans-41"/>
     <use xlink:href="#DejaVuSans-3a" x="66.658203"/>
     <use xlink:href="#DejaVuSans-31" x="100.349609"/>
     <use xlink:href="#DejaVuSans-33" x="163.972656"/>
     <use xlink:href="#DejaVuSans-2e" x="227.595703"/>
     <use xlink:href="#DejaVuSans-32" x="259.382812"/>
     <use xlink:href="#DejaVuSans-35" x="323.005859"/>
    </g>
   </g>
   <g id="text_34">
    <!-- A:13.25 -->
    <g transform="translate(996.580137 1152.766619) scale(0.04 -0.04)">
     <use xlink:href="#DejaVuSans-41"/>
     <use xlink:href="#DejaVuSans-3a" x="66.658203"/>
     <use xlink:href="#DejaVuSans-31" x="100.349609"/>
     <use xlink:href="#DejaVuSans-33" x="163.972656"/>
     <use xlink:href="#DejaVuSans-2e" x="227.595703"/>
     <use xlink:href="#DejaVuSans-32" x="259.382812"/>
     <use xlink:href="#DejaVuSans-35" x="323.005859"/>
    </g>
   </g>
   <g id="text_35">
    <!-- A:18.62 -->
    <g transform="translate(1050.777478 1133.585759) scale(0.04 -0.04)">
     <use xlink:href="#DejaVuSans-41"/>
     <use xlink:href="#DejaVuSans-3a" x="66.658203"/>
     <use xlink:href="#DejaVuSans-31" x="100.349609"/>
     <use xlink:href="#DejaVuSans-38" x="163.972656"/>
     <use xlink:href="#DejaVuSans-2e" x="227.595703"/>
     <use xlink:href="#DejaVuSans-36" x="259.382812"/>
     <use xlink:href="#DejaVuSans-32" x="323.005859"/>
    </g>
   </g>
   <g id="text_36">
    <!-- A:1.45 -->
    <g transform="translate(994.064004 1113.813018) scale(0.04 -0.04)">
     <use xlink:href="#DejaVuSans-41"/>
     <use xlink:href="#DejaVuSans-3a" x="66.658203"/>
     <use xlink:href="#DejaVuSans-31" x="100.349609"/>
     <use xlink:href="#DejaVuSans-2e" x="163.972656"/>
     <use xlink:href="#DejaVuSans-34" x="195.759766"/>
     <use xlink:href="#DejaVuSans-35" x="259.382812"/>
    </g>
   </g>
   <g id="text_37">
    <!-- D:7.21 -->
    <g transform="translate(1016.470414 1035.163199) scale(0.04 -0.04)">
     <use xlink:href="#DejaVuSans-44"/>
     <use xlink:href="#DejaVuSans-3a" x="77.001953"/>
     <use xlink:href="#DejaVuSans-37" x="110.693359"/>
     <use xlink:href="#DejaVuSans-2e" x="174.316406"/>
     <use xlink:href="#DejaVuSans-32" x="206.103516"/>
     <use xlink:href="#DejaVuSans-31" x="269.726562"/>
    </g>
    <!-- A:0.66 -->
    <g transform="translate(1016.470414 1039.642324) scale(0.04 -0.04)">
     <use xlink:href="#DejaVuSans-41"/>
     <use xlink:href="#DejaVuSans-3a" x="66.658203"/>
     <use xlink:href="#DejaVuSans-30" x="100.349609"/>
     <use xlink:href="#DejaVuSans-2e" x="163.972656"/>
     <use xlink:href="#DejaVuSans-36" x="195.759766"/>
     <use xlink:href="#DejaVuSans-36" x="259.382812"/>
    </g>
   </g>
   <g id="text_38">
    <!-- A:0.66 -->
    <g transform="translate(1016.470414 1039.642324) scale(0.04 -0.04)">
     <use xlink:href="#DejaVuSans-41"/>
     <use xlink:href="#DejaVuSans-3a" x="66.658203"/>
     <use xlink:href="#DejaVuSans-30" x="100.349609"/>
     <use xlink:href="#DejaVuSans-2e" x="163.972656"/>
     <use xlink:href="#DejaVuSans-36" x="195.759766"/>
     <use xlink:href="#DejaVuSans-36" x="259.382812"/>
    </g>
   </g>
   <g id="text_39">
    <!-- D:31.48 -->
    <g transform="translate(1079.892772 1042.973043) scale(0.04 -0.04)">
     <use xlink:href="#DejaVuSans-44"/>
     <use xlink:href="#DejaVuSans-3a" x="77.001953"/>
     <use xlink:href="#DejaVuSans-33" x="110.693359"/>
     <use xlink:href="#DejaVuSans-31" x="174.316406"/>
     <use xlink:href="#DejaVuSans-2e" x="237.939453"/>
     <use xlink:href="#DejaVuSans-34" x="269.726562"/>
     <use xlink:href="#DejaVuSans-38" x="333.349609"/>
    </g>
    <!-- A:21.51 -->
    <g transform="translate(1079.892772 1047.452168) scale(0.04 -0.04)">
     <use xlink:href="#DejaVuSans-41"/>
     <use xlink:href="#DejaVuSans-3a" x="66.658203"/>
     <use xlink:href="#DejaVuSans-32" x="100.349609"/>
     <use xlink:href="#DejaVuSans-31" x="163.972656"/>
     <use xlink:href="#DejaVuSans-2e" x="227.595703"/>
     <use xlink:href="#DejaVuSans-35" x="259.382812"/>
     <use xlink:href="#DejaVuSans-31" x="323.005859"/>
    </g>
   </g>
   <g id="text_40">
    <!-- A:21.51 -->
    <g transform="translate(1079.892772 1047.452168) scale(0.04 -0.04)">
     <use xlink:href="#DejaVuSans-41"/>
     <use xlink:href="#DejaVuSans-3a" x="66.658203"/>
     <use xlink:href="#DejaVuSans-32" x="100.349609"/>
     <use xlink:href="#DejaVuSans-31" x="163.972656"/>
     <use xlink:href="#DejaVuSans-2e" x="227.595703"/>
     <use xlink:href="#DejaVuSans-35" x="259.382812"/>
     <use xlink:href="#DejaVuSans-31" x="323.005859"/>
    </g>
   </g>
   <g id="text_41">
    <!-- D:3.80 -->
    <g transform="translate(1050.21093 1039.04131) scale(0.04 -0.04)">
     <use xlink:href="#DejaVuSans-44"/>
     <use xlink:href="#DejaVuSans-3a" x="77.001953"/>
     <use xlink:href="#DejaVuSans-33" x="110.693359"/>
     <use xlink:href="#DejaVuSans-2e" x="174.316406"/>
     <use xlink:href="#DejaVuSans-38" x="206.103516"/>
     <use xlink:href="#DejaVuSans-30" x="269.726562"/>
    </g>
    <!-- A:4.14 -->
    <g transform="translate(1050.21093 1043.520435) scale(0.04 -0.04)">
     <use xlink:href="#DejaVuSans-41"/>
     <use xlink:href="#DejaVuSans-3a" x="66.658203"/>
     <use xlink:href="#DejaVuSans-34" x="100.349609"/>
     <use xlink:href="#DejaVuSans-2e" x="163.972656"/>
     <use xlink:href="#DejaVuSans-31" x="195.759766"/>
     <use xlink:href="#DejaVuSans-34" x="259.382812"/>
    </g>
   </g>
   <g id="text_42">
    <!-- A:4.14 -->
    <g transform="translate(1050.21093 1043.520435) scale(0.04 -0.04)">
     <use xlink:href="#DejaVuSans-41"/>
     <use xlink:href="#DejaVuSans-3a" x="66.658203"/>
     <use xlink:href="#DejaVuSans-34" x="100.349609"/>
     <use xlink:href="#DejaVuSans-2e" x="163.972656"/>
     <use xlink:href="#DejaVuSans-31" x="195.759766"/>
     <use xlink:href="#DejaVuSans-34" x="259.382812"/>
    </g>
   </g>
   <g id="text_43">
    <!-- A:18.97 -->
    <g transform="translate(1066.556876 1104.460617) scale(0.04 -0.04)">
     <use xlink:href="#DejaVuSans-41"/>
     <use xlink:href="#DejaVuSans-3a" x="66.658203"/>
     <use xlink:href="#DejaVuSans-31" x="100.349609"/>
     <use xlink:href="#DejaVuSans-38" x="163.972656"/>
     <use xlink:href="#DejaVuSans-2e" x="227.595703"/>
     <use xlink:href="#DejaVuSans-39" x="259.382812"/>
     <use xlink:href="#DejaVuSans-37" x="323.005859"/>
    </g>
   </g>
   <g id="text_44">
    <!-- D:16.00 -->
    <g transform="translate(1009.843403 1080.208752) scale(0.04 -0.04)">
     <use xlink:href="#DejaVuSans-44"/>
     <use xlink:href="#DejaVuSans-3a" x="77.001953"/>
     <use xlink:href="#DejaVuSans-31" x="110.693359"/>
     <use xlink:href="#DejaVuSans-36" x="174.316406"/>
     <use xlink:href="#DejaVuSans-2e" x="237.939453"/>
     <use xlink:href="#DejaVuSans-30" x="269.726562"/>
     <use xlink:href="#DejaVuSans-30" x="333.349609"/>
    </g>
    <!-- A:9.05 -->
    <g transform="translate(1009.843403 1084.687877) scale(0.04 -0.04)">
     <use xlink:href="#DejaVuSans-41"/>
     <use xlink:href="#DejaVuSans-3a" x="66.658203"/>
     <use xlink:href="#DejaVuSans-39" x="100.349609"/>
     <use xlink:href="#DejaVuSans-2e" x="163.972656"/>
     <use xlink:href="#DejaVuSans-30" x="195.759766"/>
     <use xlink:href="#DejaVuSans-35" x="259.382812"/>
    </g>
   </g>
   <g id="text_45">
    <!-- A:9.05 -->
    <g transform="translate(1009.843403 1084.687877) scale(0.04 -0.04)">
     <use xlink:href="#DejaVuSans-41"/>
     <use xlink:href="#DejaVuSans-3a" x="66.658203"/>
     <use xlink:href="#DejaVuSans-39" x="100.349609"/>
     <use xlink:href="#DejaVuSans-2e" x="163.972656"/>
     <use xlink:href="#DejaVuSans-30" x="195.759766"/>
     <use xlink:href="#DejaVuSans-35" x="259.382812"/>
    </g>
   </g>
   <g id="text_46">
    <!-- A:15.81 -->
    <g transform="translate(1065.008086 1047.338059) scale(0.04 -0.04)">
     <use xlink:href="#DejaVuSans-41"/>
     <use xlink:href="#DejaVuSans-3a" x="66.658203"/>
     <use xlink:href="#DejaVuSans-31" x="100.349609"/>
     <use xlink:href="#DejaVuSans-35" x="163.972656"/>
     <use xlink:href="#DejaVuSans-2e" x="227.595703"/>
     <use xlink:href="#DejaVuSans-38" x="259.382812"/>
     <use xlink:href="#DejaVuSans-31" x="323.005859"/>
    </g>
   </g>
   <g id="text_47">
    <!-- D:83.89 -->
    <g transform="translate(1079.089299 1129.956609) scale(0.04 -0.04)">
     <use xlink:href="#DejaVuSans-44"/>
     <use xlink:href="#DejaVuSans-3a" x="77.001953"/>
     <use xlink:href="#DejaVuSans-38" x="110.693359"/>
     <use xlink:href="#DejaVuSans-33" x="174.316406"/>
     <use xlink:href="#DejaVuSans-2e" x="237.939453"/>
     <use xlink:href="#DejaVuSans-38" x="269.726562"/>
     <use xlink:href="#DejaVuSans-39" x="333.349609"/>
    </g>
    <!-- A:13.55 -->
    <g transform="translate(1079.089299 1134.435734) scale(0.04 -0.04)">
     <use xlink:href="#DejaVuSans-41"/>
     <use xlink:href="#DejaVuSans-3a" x="66.658203"/>
     <use xlink:href="#DejaVuSans-31" x="100.349609"/>
     <use xlink:href="#DejaVuSans-33" x="163.972656"/>
     <use xlink:href="#DejaVuSans-2e" x="227.595703"/>
     <use xlink:href="#DejaVuSans-35" x="259.382812"/>
     <use xlink:href="#DejaVuSans-35" x="323.005859"/>
    </g>
   </g>
   <g id="text_48">
    <!-- A:13.55 -->
    <g transform="translate(1079.089299 1134.435734) scale(0.04 -0.04)">
     <use xlink:href="#DejaVuSans-41"/>
     <use xlink:href="#DejaVuSans-3a" x="66.658203"/>
     <use xlink:href="#DejaVuSans-31" x="100.349609"/>
     <use xlink:href="#DejaVuSans-33" x="163.972656"/>
     <use xlink:href="#DejaVuSans-2e" x="227.595703"/>
     <use xlink:href="#DejaVuSans-35" x="259.382812"/>
     <use xlink:href="#DejaVuSans-35" x="323.005859"/>
    </g>
   </g>
   <g id="text_49">
    <!-- D:37.95 -->
    <g transform="translate(1056.805066 1009.891373) scale(0.04 -0.04)">
     <use xlink:href="#DejaVuSans-44"/>
     <use xlink:href="#DejaVuSans-3a" x="77.001953"/>
     <use xlink:href="#DejaVuSans-33" x="110.693359"/>
     <use xlink:href="#DejaVuSans-37" x="174.316406"/>
     <use xlink:href="#DejaVuSans-2e" x="237.939453"/>
     <use xlink:href="#DejaVuSans-39" x="269.726562"/>
     <use xlink:href="#DejaVuSans-35" x="333.349609"/>
    </g>
    <!-- A:19.06 -->
    <g transform="translate(1056.805066 1014.370498) scale(0.04 -0.04)">
     <use xlink:href="#DejaVuSans-41"/>
     <use xlink:href="#DejaVuSans-3a" x="66.658203"/>
     <use xlink:href="#DejaVuSans-31" x="100.349609"/>
     <use xlink:href="#DejaVuSans-39" x="163.972656"/>
     <use xlink:href="#DejaVuSans-2e" x="227.595703"/>
     <use xlink:href="#DejaVuSans-30" x="259.382812"/>
     <use xlink:href="#DejaVuSans-36" x="323.005859"/>
    </g>
   </g>
   <g id="text_50">
    <!-- A:19.06 -->
    <g transform="translate(1056.805066 1014.370498) scale(0.04 -0.04)">
     <use xlink:href="#DejaVuSans-41"/>
     <use xlink:href="#DejaVuSans-3a" x="66.658203"/>
     <use xlink:href="#DejaVuSans-31" x="100.349609"/>
     <use xlink:href="#DejaVuSans-39" x="163.972656"/>
     <use xlink:href="#DejaVuSans-2e" x="227.595703"/>
     <use xlink:href="#DejaVuSans-30" x="259.382812"/>
     <use xlink:href="#DejaVuSans-36" x="323.005859"/>
    </g>
   </g>
   <g id="text_51">
    <!-- A:28.97 -->
    <g transform="translate(507.958846 448.068261) scale(0.04 -0.04)">
     <use xlink:href="#DejaVuSans-41"/>
     <use xlink:href="#DejaVuSans-3a" x="66.658203"/>
     <use xlink:href="#DejaVuSans-32" x="100.349609"/>
     <use xlink:href="#DejaVuSans-38" x="163.972656"/>
     <use xlink:href="#DejaVuSans-2e" x="227.595703"/>
     <use xlink:href="#DejaVuSans-39" x="259.382812"/>
     <use xlink:href="#DejaVuSans-37" x="323.005859"/>
    </g>
   </g>
   <g id="text_52">
    <!-- A:19.98 -->
    <g transform="translate(446.940577 394.301392) scale(0.04 -0.04)">
     <use xlink:href="#DejaVuSans-41"/>
     <use xlink:href="#DejaVuSans-3a" x="66.658203"/>
     <use xlink:href="#DejaVuSans-31" x="100.349609"/>
     <use xlink:href="#DejaVuSans-39" x="163.972656"/>
     <use xlink:href="#DejaVuSans-2e" x="227.595703"/>
     <use xlink:href="#DejaVuSans-39" x="259.382812"/>
     <use xlink:href="#DejaVuSans-38" x="323.005859"/>
    </g>
   </g>
   <g id="text_53">
    <!-- A:0.27 -->
    <g transform="translate(437.093676 270.072142) scale(0.04 -0.04)">
     <use xlink:href="#DejaVuSans-41"/>
     <use xlink:href="#DejaVuSans-3a" x="66.658203"/>
     <use xlink:href="#DejaVuSans-30" x="100.349609"/>
     <use xlink:href="#DejaVuSans-2e" x="163.972656"/>
     <use xlink:href="#DejaVuSans-32" x="195.759766"/>
     <use xlink:href="#DejaVuSans-37" x="259.382812"/>
    </g>
   </g>
   <g id="text_54">
    <!-- A:5.74 -->
    <g transform="translate(968.282548 1136.523782) scale(0.04 -0.04)">
     <use xlink:href="#DejaVuSans-41"/>
     <use xlink:href="#DejaVuSans-3a" x="66.658203"/>
     <use xlink:href="#DejaVuSans-35" x="100.349609"/>
     <use xlink:href="#DejaVuSans-2e" x="163.972656"/>
     <use xlink:href="#DejaVuSans-37" x="195.759766"/>
     <use xlink:href="#DejaVuSans-34" x="259.382812"/>
    </g>
   </g>
   <g id="text_55">
    <!-- A:13.56 -->
    <g transform="translate(925.334865 1030.348111) scale(0.04 -0.04)">
     <use xlink:href="#DejaVuSans-41"/>
     <use xlink:href="#DejaVuSans-3a" x="66.658203"/>
     <use xlink:href="#DejaVuSans-31" x="100.349609"/>
     <use xlink:href="#DejaVuSans-33" x="163.972656"/>
     <use xlink:href="#DejaVuSans-2e" x="227.595703"/>
     <use xlink:href="#DejaVuSans-35" x="259.382812"/>
     <use xlink:href="#DejaVuSans-36" x="323.005859"/>
    </g>
   </g>
   <g id="text_56">
    <!-- A:8.03 -->
    <g transform="translate(940.31378 966.754396) scale(0.04 -0.04)">
     <use xlink:href="#DejaVuSans-41"/>
     <use xlink:href="#DejaVuSans-3a" x="66.658203"/>
     <use xlink:href="#DejaVuSans-38" x="100.349609"/>
     <use xlink:href="#DejaVuSans-2e" x="163.972656"/>
     <use xlink:href="#DejaVuSans-30" x="195.759766"/>
     <use xlink:href="#DejaVuSans-33" x="259.382812"/>
    </g>
   </g>
   <g id="text_57">
    <!-- A:4.21 -->
    <g transform="translate(972.393427 1052.524628) scale(0.04 -0.04)">
     <use xlink:href="#DejaVuSans-41"/>
     <use xlink:href="#DejaVuSans-3a" x="66.658203"/>
     <use xlink:href="#DejaVuSans-34" x="100.349609"/>
     <use xlink:href="#DejaVuSans-2e" x="163.972656"/>
     <use xlink:href="#DejaVuSans-32" x="195.759766"/>
     <use xlink:href="#DejaVuSans-31" x="259.382812"/>
    </g>
   </g>
   <g id="text_58">
    <!-- A:0.90 -->
    <g transform="translate(1019.355091 982.20725) scale(0.04 -0.04)">
     <use xlink:href="#DejaVuSans-41"/>
     <use xlink:href="#DejaVuSans-3a" x="66.658203"/>
     <use xlink:href="#DejaVuSans-30" x="100.349609"/>
     <use xlink:href="#DejaVuSans-2e" x="163.972656"/>
     <use xlink:href="#DejaVuSans-39" x="195.759766"/>
     <use xlink:href="#DejaVuSans-30" x="259.382812"/>
    </g>
   </g>
   <g id="text_59">
    <!-- D:0.03 -->
    <g transform="translate(770.915144 776.407163) scale(0.04 -0.04)">
     <use xlink:href="#DejaVuSans-44"/>
     <use xlink:href="#DejaVuSans-3a" x="77.001953"/>
     <use xlink:href="#DejaVuSans-30" x="110.693359"/>
     <use xlink:href="#DejaVuSans-2e" x="174.316406"/>
     <use xlink:href="#DejaVuSans-30" x="206.103516"/>
     <use xlink:href="#DejaVuSans-33" x="269.726562"/>
    </g>
    <!-- A:1.55 -->
    <g transform="translate(770.915144 780.886288) scale(0.04 -0.04)">
     <use xlink:href="#DejaVuSans-41"/>
     <use xlink:href="#DejaVuSans-3a" x="66.658203"/>
     <use xlink:href="#DejaVuSans-31" x="100.349609"/>
     <use xlink:href="#DejaVuSans-2e" x="163.972656"/>
     <use xlink:href="#DejaVuSans-35" x="195.759766"/>
     <use xlink:href="#DejaVuSans-35" x="259.382812"/>
    </g>
   </g>
   <g id="text_60">
    <!-- A:1.55 -->
    <g transform="translate(770.915144 780.886288) scale(0.04 -0.04)">
     <use xlink:href="#DejaVuSans-41"/>
     <use xlink:href="#DejaVuSans-3a" x="66.658203"/>
     <use xlink:href="#DejaVuSans-31" x="100.349609"/>
     <use xlink:href="#DejaVuSans-2e" x="163.972656"/>
     <use xlink:href="#DejaVuSans-35" x="195.759766"/>
     <use xlink:href="#DejaVuSans-35" x="259.382812"/>
    </g>
   </g>
   <g id="text_61">
    <!-- A:11.77 -->
    <g transform="translate(845.495179 886.42729) scale(0.04 -0.04)">
     <use xlink:href="#DejaVuSans-41"/>
     <use xlink:href="#DejaVuSans-3a" x="66.658203"/>
     <use xlink:href="#DejaVuSans-31" x="100.349609"/>
     <use xlink:href="#DejaVuSans-31" x="163.972656"/>
     <use xlink:href="#DejaVuSans-2e" x="227.595703"/>
     <use xlink:href="#DejaVuSans-37" x="259.382812"/>
     <use xlink:href="#DejaVuSans-37" x="323.005859"/>
    </g>
   </g>
   <g id="text_62">
    <!-- A:30.08 -->
    <g transform="translate(918.707854 1075.393664) scale(0.04 -0.04)">
     <use xlink:href="#DejaVuSans-41"/>
     <use xlink:href="#DejaVuSans-3a" x="66.658203"/>
     <use xlink:href="#DejaVuSans-33" x="100.349609"/>
     <use xlink:href="#DejaVuSans-30" x="163.972656"/>
     <use xlink:href="#DejaVuSans-2e" x="227.595703"/>
     <use xlink:href="#DejaVuSans-30" x="259.382812"/>
     <use xlink:href="#DejaVuSans-38" x="323.005859"/>
    </g>
   </g>
   <g id="text_63">
    <!-- A:0.24 -->
    <g transform="translate(1090.980468 1022.984654) scale(0.04 -0.04)">
     <use xlink:href="#DejaVuSans-41"/>
     <use xlink:href="#DejaVuSans-3a" x="66.658203"/>
     <use xlink:href="#DejaVuSans-30" x="100.349609"/>
     <use xlink:href="#DejaVuSans-2e" x="163.972656"/>
     <use xlink:href="#DejaVuSans-32" x="195.759766"/>
     <use xlink:href="#DejaVuSans-34" x="259.382812"/>
    </g>
   </g>
   <g id="text_64">
    <!-- A:21.56 -->
    <g transform="translate(519.509519 627.495387) scale(0.04 -0.04)">
     <use xlink:href="#DejaVuSans-41"/>
     <use xlink:href="#DejaVuSans-3a" x="66.658203"/>
     <use xlink:href="#DejaVuSans-32" x="100.349609"/>
     <use xlink:href="#DejaVuSans-31" x="163.972656"/>
     <use xlink:href="#DejaVuSans-2e" x="227.595703"/>
     <use xlink:href="#DejaVuSans-35" x="259.382812"/>
     <use xlink:href="#DejaVuSans-36" x="323.005859"/>
    </g>
   </g>
   <g id="text_65">
    <!-- D:1.63 -->
    <g transform="translate(597.662062 554.930567) scale(0.04 -0.04)">
     <use xlink:href="#DejaVuSans-44"/>
     <use xlink:href="#DejaVuSans-3a" x="77.001953"/>
     <use xlink:href="#DejaVuSans-31" x="110.693359"/>
     <use xlink:href="#DejaVuSans-2e" x="174.316406"/>
     <use xlink:href="#DejaVuSans-36" x="206.103516"/>
     <use xlink:href="#DejaVuSans-33" x="269.726562"/>
    </g>
    <!-- A:13.62 -->
    <g transform="translate(597.662062 559.409692) scale(0.04 -0.04)">
     <use xlink:href="#DejaVuSans-41"/>
     <use xlink:href="#DejaVuSans-3a" x="66.658203"/>
     <use xlink:href="#DejaVuSans-31" x="100.349609"/>
     <use xlink:href="#DejaVuSans-33" x="163.972656"/>
     <use xlink:href="#DejaVuSans-2e" x="227.595703"/>
     <use xlink:href="#DejaVuSans-36" x="259.382812"/>
     <use xlink:href="#DejaVuSans-32" x="323.005859"/>
    </g>
   </g>
   <g id="text_66">
    <!-- A:13.62 -->
    <g transform="translate(597.662062 559.409692) scale(0.04 -0.04)">
     <use xlink:href="#DejaVuSans-41"/>
     <use xlink:href="#DejaVuSans-3a" x="66.658203"/>
     <use xlink:href="#DejaVuSans-31" x="100.349609"/>
     <use xlink:href="#DejaVuSans-33" x="163.972656"/>
     <use xlink:href="#DejaVuSans-2e" x="227.595703"/>
     <use xlink:href="#DejaVuSans-36" x="259.382812"/>
     <use xlink:href="#DejaVuSans-32" x="323.005859"/>
    </g>
   </g>
   <g id="text_67">
    <!-- A:4.97 -->
    <g transform="translate(461.317952 458.195626) scale(0.04 -0.04)">
     <use xlink:href="#DejaVuSans-41"/>
     <use xlink:href="#DejaVuSans-3a" x="66.658203"/>
     <use xlink:href="#DejaVuSans-34" x="100.349609"/>
     <use xlink:href="#DejaVuSans-2e" x="163.972656"/>
     <use xlink:href="#DejaVuSans-39" x="195.759766"/>
     <use xlink:href="#DejaVuSans-37" x="259.382812"/>
    </g>
   </g>
   <g id="text_68">
    <!-- A:2.20 -->
    <g transform="translate(1061.298626 1019.052922) scale(0.04 -0.04)">
     <use xlink:href="#DejaVuSans-41"/>
     <use xlink:href="#DejaVuSans-3a" x="66.658203"/>
     <use xlink:href="#DejaVuSans-32" x="100.349609"/>
     <use xlink:href="#DejaVuSans-2e" x="163.972656"/>
     <use xlink:href="#DejaVuSans-32" x="195.759766"/>
     <use xlink:href="#DejaVuSans-30" x="259.382812"/>
    </g>
   </g>
   <g id="text_69">
    <!-- A:44.19 -->
    <g transform="translate(1053.095606 986.085361) scale(0.04 -0.04)">
     <use xlink:href="#DejaVuSans-41"/>
     <use xlink:href="#DejaVuSans-3a" x="66.658203"/>
     <use xlink:href="#DejaVuSans-34" x="100.349609"/>
     <use xlink:href="#DejaVuSans-34" x="163.972656"/>
     <use xlink:href="#DejaVuSans-2e" x="227.595703"/>
     <use xlink:href="#DejaVuSans-31" x="259.382812"/>
     <use xlink:href="#DejaVuSans-39" x="323.005859"/>
    </g>
   </g>
   <g id="text_70">
    <!-- A:8.05 -->
    <g transform="translate(594.83536 674.942584) scale(0.04 -0.04)">
     <use xlink:href="#DejaVuSans-41"/>
     <use xlink:href="#DejaVuSans-3a" x="66.658203"/>
     <use xlink:href="#DejaVuSans-38" x="100.349609"/>
     <use xlink:href="#DejaVuSans-2e" x="163.972656"/>
     <use xlink:href="#DejaVuSans-30" x="195.759766"/>
     <use xlink:href="#DejaVuSans-35" x="259.382812"/>
    </g>
   </g>
   <g id="text_71">
    <!-- D:0.11 -->
    <g transform="translate(712.717477 656.423174) scale(0.04 -0.04)">
     <use xlink:href="#DejaVuSans-44"/>
     <use xlink:href="#DejaVuSans-3a" x="77.001953"/>
     <use xlink:href="#DejaVuSans-30" x="110.693359"/>
     <use xlink:href="#DejaVuSans-2e" x="174.316406"/>
     <use xlink:href="#DejaVuSans-31" x="206.103516"/>
     <use xlink:href="#DejaVuSans-31" x="269.726562"/>
    </g>
    <!-- A:0.31 -->
    <g transform="translate(712.717477 660.902299) scale(0.04 -0.04)">
     <use xlink:href="#DejaVuSans-41"/>
     <use xlink:href="#DejaVuSans-3a" x="66.658203"/>
     <use xlink:href="#DejaVuSans-30" x="100.349609"/>
     <use xlink:href="#DejaVuSans-2e" x="163.972656"/>
     <use xlink:href="#DejaVuSans-33" x="195.759766"/>
     <use xlink:href="#DejaVuSans-31" x="259.382812"/>
    </g>
   </g>
   <g id="text_72">
    <!-- A:0.31 -->
    <g transform="translate(712.717477 660.902299) scale(0.04 -0.04)">
     <use xlink:href="#DejaVuSans-41"/>
     <use xlink:href="#DejaVuSans-3a" x="66.658203"/>
     <use xlink:href="#DejaVuSans-30" x="100.349609"/>
     <use xlink:href="#DejaVuSans-2e" x="163.972656"/>
     <use xlink:href="#DejaVuSans-33" x="195.759766"/>
     <use xlink:href="#DejaVuSans-31" x="259.382812"/>
    </g>
   </g>
   <g id="text_73">
    <!-- A:0.06 -->
    <g transform="translate(417.422288 352.712172) scale(0.04 -0.04)">
     <use xlink:href="#DejaVuSans-41"/>
     <use xlink:href="#DejaVuSans-3a" x="66.658203"/>
     <use xlink:href="#DejaVuSans-30" x="100.349609"/>
     <use xlink:href="#DejaVuSans-2e" x="163.972656"/>
     <use xlink:href="#DejaVuSans-30" x="195.759766"/>
     <use xlink:href="#DejaVuSans-36" x="259.382812"/>
    </g>
   </g>
   <g id="text_74">
    <!-- Population Density Americas (n:23 k:74) -->
    <g transform="translate(616.895625 153.362625) scale(0.12 -0.12)">
     <defs>
      <path id="DejaVuSans-6f" d="M 1959 3097 
Q 1497 3097 1228 2736 
Q 959 2375 959 1747 
Q 959 1119 1226 758 
Q 1494 397 1959 397 
Q 2419 397 2687 759 
Q 2956 1122 2956 1747 
Q 2956 2369 2687 2733 
Q 2419 3097 1959 3097 
z
M 1959 3584 
Q 2709 3584 3137 3096 
Q 3566 2609 3566 1747 
Q 3566 888 3137 398 
Q 2709 -91 1959 -91 
Q 1206 -91 779 398 
Q 353 888 353 1747 
Q 353 2609 779 3096 
Q 1206 3584 1959 3584 
z
" transform="scale(0.015625)"/>
      <path id="DejaVuSans-70" d="M 1159 525 
L 1159 -1331 
L 581 -1331 
L 581 3500 
L 1159 3500 
L 1159 2969 
Q 1341 3281 1617 3432 
Q 1894 3584 2278 3584 
Q 2916 3584 3314 3078 
Q 3713 2572 3713 1747 
Q 3713 922 3314 415 
Q 2916 -91 2278 -91 
Q 1894 -91 1617 61 
Q 1341 213 1159 525 
z
M 3116 1747 
Q 3116 2381 2855 2742 
Q 2594 3103 2138 3103 
Q 1681 3103 1420 2742 
Q 1159 2381 1159 1747 
Q 1159 1113 1420 752 
Q 1681 391 2138 391 
Q 2594 391 2855 752 
Q 3116 1113 3116 1747 
z
" transform="scale(0.015625)"/>
      <path id="DejaVuSans-75" d="M 544 1381 
L 544 3500 
L 1119 3500 
L 1119 1403 
Q 1119 906 1312 657 
Q 1506 409 1894 409 
Q 2359 409 2629 706 
Q 2900 1003 2900 1516 
L 2900 3500 
L 3475 3500 
L 3475 0 
L 2900 0 
L 2900 538 
Q 2691 219 2414 64 
Q 2138 -91 1772 -91 
Q 1169 -91 856 284 
Q 544 659 544 1381 
z
M 1991 3584 
L 1991 3584 
z
" transform="scale(0.015625)"/>
      <path id="DejaVuSans-6c" d="M 603 4863 
L 1178 4863 
L 1178 0 
L 603 0 
L 603 4863 
z
" transform="scale(0.015625)"/>
      <path id="DejaVuSans-61" d="M 2194 1759 
Q 1497 1759 1228 1600 
Q 959 1441 959 1056 
Q 959 750 1161 570 
Q 1363 391 1709 391 
Q 2188 391 2477 730 
Q 2766 1069 2766 1631 
L 2766 1759 
L 2194 1759 
z
M 3341 1997 
L 3341 0 
L 2766 0 
L 2766 531 
Q 2569 213 2275 61 
Q 1981 -91 1556 -91 
Q 1019 -91 701 211 
Q 384 513 384 1019 
Q 384 1609 779 1909 
Q 1175 2209 1959 2209 
L 2766 2209 
L 2766 2266 
Q 2766 2663 2505 2880 
Q 2244 3097 1772 3097 
Q 1472 3097 1187 3025 
Q 903 2953 641 2809 
L 641 3341 
Q 956 3463 1253 3523 
Q 1550 3584 1831 3584 
Q 2591 3584 2966 3190 
Q 3341 2797 3341 1997 
z
" transform="scale(0.015625)"/>
      <path id="DejaVuSans-74" d="M 1172 4494 
L 1172 3500 
L 2356 3500 
L 2356 3053 
L 1172 3053 
L 1172 1153 
Q 1172 725 1289 603 
Q 1406 481 1766 481 
L 2356 481 
L 2356 0 
L 1766 0 
Q 1100 0 847 248 
Q 594 497 594 1153 
L 594 3053 
L 172 3053 
L 172 3500 
L 594 3500 
L 594 4494 
L 1172 4494 
z
" transform="scale(0.015625)"/>
      <path id="DejaVuSans-69" d="M 603 3500 
L 1178 3500 
L 1178 0 
L 603 0 
L 603 3500 
z
M 603 4863 
L 1178 4863 
L 1178 4134 
L 603 4134 
L 603 4863 
z
" transform="scale(0.015625)"/>
      <path id="DejaVuSans-6e" d="M 3513 2113 
L 3513 0 
L 2938 0 
L 2938 2094 
Q 2938 2591 2744 2837 
Q 2550 3084 2163 3084 
Q 1697 3084 1428 2787 
Q 1159 2491 1159 1978 
L 1159 0 
L 581 0 
L 581 3500 
L 1159 3500 
L 1159 2956 
Q 1366 3272 1645 3428 
Q 1925 3584 2291 3584 
Q 2894 3584 3203 3211 
Q 3513 2838 3513 2113 
z
" transform="scale(0.015625)"/>
      <path id="DejaVuSans-20" transform="scale(0.015625)"/>
      <path id="DejaVuSans-65" d="M 3597 1894 
L 3597 1613 
L 953 1613 
Q 991 1019 1311 708 
Q 1631 397 2203 397 
Q 2534 397 2845 478 
Q 3156 559 3463 722 
L 3463 178 
Q 3153 47 2828 -22 
Q 2503 -91 2169 -91 
Q 1331 -91 842 396 
Q 353 884 353 1716 
Q 353 2575 817 3079 
Q 1281 3584 2069 3584 
Q 2775 3584 3186 3129 
Q 3597 2675 3597 1894 
z
M 3022 2063 
Q 3016 2534 2758 2815 
Q 2500 3097 2075 3097 
Q 1594 3097 1305 2825 
Q 1016 2553 972 2059 
L 3022 2063 
z
" transform="scale(0.015625)"/>
      <path id="DejaVuSans-73" d="M 2834 3397 
L 2834 2853 
Q 2591 2978 2328 3040 
Q 2066 3103 1784 3103 
Q 1356 3103 1142 2972 
Q 928 2841 928 2578 
Q 928 2378 1081 2264 
Q 1234 2150 1697 2047 
L 1894 2003 
Q 2506 1872 2764 1633 
Q 3022 1394 3022 966 
Q 3022 478 2636 193 
Q 2250 -91 1575 -91 
Q 1294 -91 989 -36 
Q 684 19 347 128 
L 347 722 
Q 666 556 975 473 
Q 1284 391 1588 391 
Q 1994 391 2212 530 
Q 2431 669 2431 922 
Q 2431 1156 2273 1281 
Q 2116 1406 1581 1522 
L 1381 1569 
Q 847 1681 609 1914 
Q 372 2147 372 2553 
Q 372 3047 722 3315 
Q 1072 3584 1716 3584 
Q 2034 3584 2315 3537 
Q 2597 3491 2834 3397 
z
" transform="scale(0.015625)"/>
      <path id="DejaVuSans-79" d="M 2059 -325 
Q 1816 -950 1584 -1140 
Q 1353 -1331 966 -1331 
L 506 -1331 
L 506 -850 
L 844 -850 
Q 1081 -850 1212 -737 
Q 1344 -625 1503 -206 
L 1606 56 
L 191 3500 
L 800 3500 
L 1894 763 
L 2988 3500 
L 3597 3500 
L 2059 -325 
z
" transform="scale(0.015625)"/>
      <path id="DejaVuSans-6d" d="M 3328 2828 
Q 3544 3216 3844 3400 
Q 4144 3584 4550 3584 
Q 5097 3584 5394 3201 
Q 5691 2819 5691 2113 
L 5691 0 
L 5113 0 
L 5113 2094 
Q 5113 2597 4934 2840 
Q 4756 3084 4391 3084 
Q 3944 3084 3684 2787 
Q 3425 2491 3425 1978 
L 3425 0 
L 2847 0 
L 2847 2094 
Q 2847 2600 2669 2842 
Q 2491 3084 2119 3084 
Q 1678 3084 1418 2786 
Q 1159 2488 1159 1978 
L 1159 0 
L 581 0 
L 581 3500 
L 1159 3500 
L 1159 2956 
Q 1356 3278 1631 3431 
Q 1906 3584 2284 3584 
Q 2666 3584 2933 3390 
Q 3200 3197 3328 2828 
z
" transform="scale(0.015625)"/>
      <path id="DejaVuSans-72" d="M 2631 2963 
Q 2534 3019 2420 3045 
Q 2306 3072 2169 3072 
Q 1681 3072 1420 2755 
Q 1159 2438 1159 1844 
L 1159 0 
L 581 0 
L 581 3500 
L 1159 3500 
L 1159 2956 
Q 1341 3275 1631 3429 
Q 1922 3584 2338 3584 
Q 2397 3584 2469 3576 
Q 2541 3569 2628 3553 
L 2631 2963 
z
" transform="scale(0.015625)"/>
      <path id="DejaVuSans-63" d="M 3122 3366 
L 3122 2828 
Q 2878 2963 2633 3030 
Q 2388 3097 2138 3097 
Q 1578 3097 1268 2742 
Q 959 2388 959 1747 
Q 959 1106 1268 751 
Q 1578 397 2138 397 
Q 2388 397 2633 464 
Q 2878 531 3122 666 
L 3122 134 
Q 2881 22 2623 -34 
Q 2366 -91 2075 -91 
Q 1284 -91 818 406 
Q 353 903 353 1747 
Q 353 2603 823 3093 
Q 1294 3584 2113 3584 
Q 2378 3584 2631 3529 
Q 2884 3475 3122 3366 
z
" transform="scale(0.015625)"/>
      <path id="DejaVuSans-28" d="M 1984 4856 
Q 1566 4138 1362 3434 
Q 1159 2731 1159 2009 
Q 1159 1288 1364 580 
Q 1569 -128 1984 -844 
L 1484 -844 
Q 1016 -109 783 600 
Q 550 1309 550 2009 
Q 550 2706 781 3412 
Q 1013 4119 1484 4856 
L 1984 4856 
z
" transform="scale(0.015625)"/>
      <path id="DejaVuSans-6b" d="M 581 4863 
L 1159 4863 
L 1159 1991 
L 2875 3500 
L 3609 3500 
L 1753 1863 
L 3688 0 
L 2938 0 
L 1159 1709 
L 1159 0 
L 581 0 
L 581 4863 
z
" transform="scale(0.015625)"/>
      <path id="DejaVuSans-29" d="M 513 4856 
L 1013 4856 
Q 1481 4119 1714 3412 
Q 1947 2706 1947 2009 
Q 1947 1309 1714 600 
Q 1481 -109 1013 -844 
L 513 -844 
Q 928 -128 1133 580 
Q 1338 1288 1338 2009 
Q 1338 2731 1133 3434 
Q 928 4138 513 4856 
z
" transform="scale(0.015625)"/>
     </defs>
     <use xlink:href="#DejaVuSans-50"/>
     <use xlink:href="#DejaVuSans-6f" x="56.677734"/>
     <use xlink:href="#DejaVuSans-70" x="117.859375"/>
     <use xlink:href="#DejaVuSans-75" x="181.335938"/>
     <use xlink:href="#DejaVuSans-6c" x="244.714844"/>
     <use xlink:href="#DejaVuSans-61" x="272.498047"/>
     <use xlink:href="#DejaVuSans-74" x="333.777344"/>
     <use xlink:href="#DejaVuSans-69" x="372.986328"/>
     <use xlink:href="#DejaVuSans-6f" x="400.769531"/>
     <use xlink:href="#DejaVuSans-6e" x="461.951172"/>
     <use xlink:href="#DejaVuSans-20" x="525.330078"/>
     <use xlink:href="#DejaVuSans-44" x="557.117188"/>
     <use xlink:href="#DejaVuSans-65" x="634.119141"/>
     <use xlink:href="#DejaVuSans-6e" x="695.642578"/>
     <use xlink:href="#DejaVuSans-73" x="759.021484"/>
     <use xlink:href="#DejaVuSans-69" x="811.121094"/>
     <use xlink:href="#DejaVuSans-74" x="838.904297"/>
     <use xlink:href="#DejaVuSans-79" x="878.113281"/>
     <use xlink:href="#DejaVuSans-20" x="937.292969"/>
     <use xlink:href="#DejaVuSans-41" x="969.080078"/>
     <use xlink:href="#DejaVuSans-6d" x="1037.488281"/>
     <use xlink:href="#DejaVuSans-65" x="1134.900391"/>
     <use xlink:href="#DejaVuSans-72" x="1196.423828"/>
     <use xlink:href="#DejaVuSans-69" x="1237.537109"/>
     <use xlink:href="#DejaVuSans-63" x="1265.320312"/>
     <use xlink:href="#DejaVuSans-61" x="1320.300781"/>
     <use xlink:href="#DejaVuSans-73" x="1381.580078"/>
     <use xlink:href="#DejaVuSans-20" x="1433.679688"/>
     <use xlink:href="#DejaVuSans-28" x="1465.466797"/>
     <use xlink:href="#DejaVuSans-6e" x="1504.480469"/>
     <use xlink:href="#DejaVuSans-3a" x="1567.859375"/>
     <use xlink:href="#DejaVuSans-32" x="1601.550781"/>
     <use xlink:href="#DejaVuSans-33" x="1665.173828"/>
     <use xlink:href="#DejaVuSans-20" x="1728.796875"/>
     <use xlink:href="#DejaVuSans-6b" x="1760.583984"/>
     <use xlink:href="#DejaVuSans-3a" x="1818.494141"/>
     <use xlink:href="#DejaVuSans-37" x="1852.185547"/>
     <use xlink:href="#DejaVuSans-34" x="1915.808594"/>
     <use xlink:href="#DejaVuSans-29" x="1979.431641"/>
    </g>
    <!-- Score: 9823.67, max. Overlap: 1.78, avg. Distance: 6.79, avg. Angle: 11.18 -->
    <g transform="translate(511.8525 166.8) scale(0.12 -0.12)">
     <defs>
      <path id="DejaVuSans-2c" d="M 750 794 
L 1409 794 
L 1409 256 
L 897 -744 
L 494 -744 
L 750 256 
L 750 794 
z
" transform="scale(0.015625)"/>
      <path id="DejaVuSans-78" d="M 3513 3500 
L 2247 1797 
L 3578 0 
L 2900 0 
L 1881 1375 
L 863 0 
L 184 0 
L 1544 1831 
L 300 3500 
L 978 3500 
L 1906 2253 
L 2834 3500 
L 3513 3500 
z
" transform="scale(0.015625)"/>
      <path id="DejaVuSans-76" d="M 191 3500 
L 800 3500 
L 1894 563 
L 2988 3500 
L 3597 3500 
L 2284 0 
L 1503 0 
L 191 3500 
z
" transform="scale(0.015625)"/>
      <path id="DejaVuSans-67" d="M 2906 1791 
Q 2906 2416 2648 2759 
Q 2391 3103 1925 3103 
Q 1463 3103 1205 2759 
Q 947 2416 947 1791 
Q 947 1169 1205 825 
Q 1463 481 1925 481 
Q 2391 481 2648 825 
Q 2906 1169 2906 1791 
z
M 3481 434 
Q 3481 -459 3084 -895 
Q 2688 -1331 1869 -1331 
Q 1566 -1331 1297 -1286 
Q 1028 -1241 775 -1147 
L 775 -588 
Q 1028 -725 1275 -790 
Q 1522 -856 1778 -856 
Q 2344 -856 2625 -561 
Q 2906 -266 2906 331 
L 2906 616 
Q 2728 306 2450 153 
Q 2172 0 1784 0 
Q 1141 0 747 490 
Q 353 981 353 1791 
Q 353 2603 747 3093 
Q 1141 3584 1784 3584 
Q 2172 3584 2450 3431 
Q 2728 3278 2906 2969 
L 2906 3500 
L 3481 3500 
L 3481 434 
z
" transform="scale(0.015625)"/>
     </defs>
     <use xlink:href="#DejaVuSans-53"/>
     <use xlink:href="#DejaVuSans-63" x="63.476562"/>
     <use xlink:href="#DejaVuSans-6f" x="118.457031"/>
     <use xlink:href="#DejaVuSans-72" x="179.638672"/>
     <use xlink:href="#DejaVuSans-65" x="218.501953"/>
     <use xlink:href="#DejaVuSans-3a" x="280.025391"/>
     <use xlink:href="#DejaVuSans-20" x="313.716797"/>
     <use xlink:href="#DejaVuSans-39" x="345.503906"/>
     <use xlink:href="#DejaVuSans-38" x="409.126953"/>
     <use xlink:href="#DejaVuSans-32" x="472.75"/>
     <use xlink:href="#DejaVuSans-33" x="536.373047"/>
     <use xlink:href="#DejaVuSans-2e" x="599.996094"/>
     <use xlink:href="#DejaVuSans-36" x="631.783203"/>
     <use xlink:href="#DejaVuSans-37" x="695.40625"/>
     <use xlink:href="#DejaVuSans-2c" x="759.029297"/>
     <use xlink:href="#DejaVuSans-20" x="790.816406"/>
     <use xlink:href="#DejaVuSans-6d" x="822.603516"/>
     <use xlink:href="#DejaVuSans-61" x="920.015625"/>
     <use xlink:href="#DejaVuSans-78" x="981.294922"/>
     <use xlink:href="#DejaVuSans-2e" x="1040.474609"/>
     <use xlink:href="#DejaVuSans-20" x="1072.261719"/>
     <use xlink:href="#DejaVuSans-4f" x="1104.048828"/>
     <use xlink:href="#DejaVuSans-76" x="1182.759766"/>
     <use xlink:href="#DejaVuSans-65" x="1241.939453"/>
     <use xlink:href="#DejaVuSans-72" x="1303.462891"/>
     <use xlink:href="#DejaVuSans-6c" x="1344.576172"/>
     <use xlink:href="#DejaVuSans-61" x="1372.359375"/>
     <use xlink:href="#DejaVuSans-70" x="1433.638672"/>
     <use xlink:href="#DejaVuSans-3a" x="1497.115234"/>
     <use xlink:href="#DejaVuSans-20" x="1530.806641"/>
     <use xlink:href="#DejaVuSans-31" x="1562.59375"/>
     <use xlink:href="#DejaVuSans-2e" x="1626.216797"/>
     <use xlink:href="#DejaVuSans-37" x="1658.003906"/>
     <use xlink:href="#DejaVuSans-38" x="1721.626953"/>
     <use xlink:href="#DejaVuSans-2c" x="1785.25"/>
     <use xlink:href="#DejaVuSans-20" x="1817.037109"/>
     <use xlink:href="#DejaVuSans-61" x="1848.824219"/>
     <use xlink:href="#DejaVuSans-76" x="1910.103516"/>
     <use xlink:href="#DejaVuSans-67" x="1969.283203"/>
     <use xlink:href="#DejaVuSans-2e" x="2032.759766"/>
     <use xlink:href="#DejaVuSans-20" x="2064.546875"/>
     <use xlink:href="#DejaVuSans-44" x="2096.333984"/>
     <use xlink:href="#DejaVuSans-69" x="2173.335938"/>
     <use xlink:href="#DejaVuSans-73" x="2201.119141"/>
     <use xlink:href="#DejaVuSans-74" x="2253.21875"/>
     <use xlink:href="#DejaVuSans-61" x="2292.427734"/>
     <use xlink:href="#DejaVuSans-6e" x="2353.707031"/>
     <use xlink:href="#DejaVuSans-63" x="2417.085938"/>
     <use xlink:href="#DejaVuSans-65" x="2472.066406"/>
     <use xlink:href="#DejaVuSans-3a" x="2533.589844"/>
     <use xlink:href="#DejaVuSans-20" x="2567.28125"/>
     <use xlink:href="#DejaVuSans-36" x="2599.068359"/>
     <use xlink:href="#DejaVuSans-2e" x="2662.691406"/>
     <use xlink:href="#DejaVuSans-37" x="2694.478516"/>
     <use xlink:href="#DejaVuSans-39" x="2758.101562"/>
     <use xlink:href="#DejaVuSans-2c" x="2821.724609"/>
     <use xlink:href="#DejaVuSans-20" x="2853.511719"/>
     <use xlink:href="#DejaVuSans-61" x="2885.298828"/>
     <use xlink:href="#DejaVuSans-76" x="2946.578125"/>
     <use xlink:href="#DejaVuSans-67" x="3005.757812"/>
     <use xlink:href="#DejaVuSans-2e" x="3069.234375"/>
     <use xlink:href="#DejaVuSans-20" x="3101.021484"/>
     <use xlink:href="#DejaVuSans-41" x="3132.808594"/>
     <use xlink:href="#DejaVuSans-6e" x="3201.216797"/>
     <use xlink:href="#DejaVuSans-67" x="3264.595703"/>
     <use xlink:href="#DejaVuSans-6c" x="3328.072266"/>
     <use xlink:href="#DejaVuSans-65" x="3355.855469"/>
     <use xlink:href="#DejaVuSans-3a" x="3417.378906"/>
     <use xlink:href="#DejaVuSans-20" x="3451.070312"/>
     <use xlink:href="#DejaVuSans-31" x="3482.857422"/>
     <use xlink:href="#DejaVuSans-31" x="3546.480469"/>
     <use xlink:href="#DejaVuSans-2e" x="3610.103516"/>
     <use xlink:href="#DejaVuSans-31" x="3641.890625"/>
     <use xlink:href="#DejaVuSans-38" x="3705.513672"/>
    </g>
   </g>
  </g>
 </g>
 <defs>
  <clipPath id="pf3ca65f3df">
   <rect x="297.568457" y="172.8" width="880.863086" height="1108.8"/>
  </clipPath>
 </defs>
</svg>
