<?xml version="1.0" encoding="utf-8" standalone="no"?>
<!DOCTYPE svg PUBLIC "-//W3C//DTD SVG 1.1//EN"
  "http://www.w3.org/Graphics/SVG/1.1/DTD/svg11.dtd">
<svg xmlns:xlink="http://www.w3.org/1999/xlink" width="1440pt" height="1440pt" viewBox="0 0 1440 1440" xmlns="http://www.w3.org/2000/svg" version="1.1">
 <metadata>
  <rdf:RDF xmlns:dc="http://purl.org/dc/elements/1.1/" xmlns:cc="http://creativecommons.org/ns#" xmlns:rdf="http://www.w3.org/1999/02/22-rdf-syntax-ns#">
   <cc:Work>
    <dc:type rdf:resource="http://purl.org/dc/dcmitype/StillImage"/>
    <dc:date>2024-03-18T21:05:13.273803</dc:date>
    <dc:format>image/svg+xml</dc:format>
    <dc:creator>
     <cc:Agent>
      <dc:title>Matplotlib v3.8.3, https://matplotlib.org/</dc:title>
     </cc:Agent>
    </dc:creator>
   </cc:Work>
  </rdf:RDF>
 </metadata>
 <defs>
  <style type="text/css">*{stroke-linejoin: round; stroke-linecap: butt}</style>
 </defs>
 <g id="figure_1">
  <g id="patch_1">
   <path d="M 0 1440 
L 1440 1440 
L 1440 0 
L 0 0 
z
" style="fill: #ffffff"/>
  </g>
  <g id="axes_1">
   <g id="patch_2">
    <path d="M 734.365954 1012.895511 
C 743.256153 1012.895511 751.783429 1009.363397 758.069749 1003.077077 
C 764.356069 996.790757 767.888183 988.263481 767.888183 979.373282 
C 767.888183 970.483082 764.356069 961.955806 758.069749 955.669486 
C 751.783429 949.383166 743.256153 945.851052 734.365954 945.851052 
C 725.475755 945.851052 716.948478 949.383166 710.662158 955.669486 
C 704.375838 961.955806 700.843725 970.483082 700.843725 979.373282 
C 700.843725 988.263481 704.375838 996.790757 710.662158 1003.077077 
C 716.948478 1009.363397 725.475755 1012.895511 734.365954 1012.895511 
z
" clip-path="url(#p4d384f97a3)" style="fill: #9e0142; opacity: 0.5"/>
   </g>
   <g id="patch_3">
    <path d="M 945.337087 873.190777 
C 946.98254 873.190777 948.560822 872.537032 949.724333 871.37352 
C 950.887844 870.210009 951.54159 868.631728 951.54159 866.986274 
C 951.54159 865.340821 950.887844 863.762539 949.724333 862.599028 
C 948.560822 861.435517 946.98254 860.781771 945.337087 860.781771 
C 943.691633 860.781771 942.113352 861.435517 940.949841 862.599028 
C 939.786329 863.762539 939.132584 865.340821 939.132584 866.986274 
C 939.132584 868.631728 939.786329 870.210009 940.949841 871.37352 
C 942.113352 872.537032 943.691633 873.190777 945.337087 873.190777 
z
" clip-path="url(#p4d384f97a3)" style="fill: #b61b48; opacity: 0.5"/>
   </g>
   <g id="patch_4">
    <path d="M 949.626807 1103.906817 
C 980.291532 1103.906817 1009.704438 1091.723593 1031.387673 1070.040358 
C 1053.070909 1048.357123 1065.254133 1018.944217 1065.254133 988.279491 
C 1065.254133 957.614766 1053.070909 928.20186 1031.387673 906.518625 
C 1009.704438 884.83539 980.291532 872.652165 949.626807 872.652165 
C 918.962082 872.652165 889.549176 884.83539 867.865941 906.518625 
C 846.182705 928.20186 833.999481 957.614766 833.999481 988.279491 
C 833.999481 1018.944217 846.182705 1048.357123 867.865941 1070.040358 
C 889.549176 1091.723593 918.962082 1103.906817 949.626807 1103.906817 
z
" clip-path="url(#p4d384f97a3)" style="fill: #d0384e; opacity: 0.5"/>
   </g>
   <g id="patch_5">
    <path d="M 864.050908 1231.2 
C 878.153465 1231.2 891.680315 1225.596995 901.652328 1215.624982 
C 911.624341 1205.652969 917.227346 1192.126118 917.227346 1178.023562 
C 917.227346 1163.921006 911.624341 1150.394155 901.652328 1140.422142 
C 891.680315 1130.450129 878.153465 1124.847124 864.050908 1124.847124 
C 849.948352 1124.847124 836.421502 1130.450129 826.449489 1140.422142 
C 816.477476 1150.394155 810.874471 1163.921006 810.874471 1178.023562 
C 810.874471 1192.126118 816.477476 1205.652969 826.449489 1215.624982 
C 836.421502 1225.596995 849.948352 1231.2 864.050908 1231.2 
z
" clip-path="url(#p4d384f97a3)" style="fill: #df4e4b; opacity: 0.5"/>
   </g>
   <g id="patch_6">
    <path d="M 658.212854 862.715391 
C 663.745975 862.715391 669.053218 860.517059 672.965725 856.604552 
C 676.878232 852.692045 679.076564 847.384802 679.076564 841.851682 
C 679.076564 836.318561 676.878232 831.011318 672.965725 827.098811 
C 669.053218 823.186304 663.745975 820.987972 658.212854 820.987972 
C 652.679734 820.987972 647.372491 823.186304 643.459984 827.098811 
C 639.547476 831.011318 637.349144 836.318561 637.349144 841.851682 
C 637.349144 847.384802 639.547476 852.692045 643.459984 856.604552 
C 647.372491 860.517059 652.679734 862.715391 658.212854 862.715391 
z
" clip-path="url(#p4d384f97a3)" style="fill: #ee6445; opacity: 0.5"/>
   </g>
   <g id="patch_7">
    <path d="M 582.388289 759.436312 
C 583.724236 759.436312 585.005646 758.905535 585.950304 757.960877 
C 586.894961 757.01622 587.425739 755.734809 587.425739 754.398862 
C 587.425739 753.062914 586.894961 751.781504 585.950304 750.836847 
C 585.005646 749.892189 583.724236 749.361412 582.388289 749.361412 
C 581.052341 749.361412 579.770931 749.892189 578.826273 750.836847 
C 577.881616 751.781504 577.350838 753.062914 577.350838 754.398862 
C 577.350838 755.734809 577.881616 757.01622 578.826273 757.960877 
C 579.770931 758.905535 581.052341 759.436312 582.388289 759.436312 
z
" clip-path="url(#p4d384f97a3)" style="fill: #f67f4b; opacity: 0.5"/>
   </g>
   <g id="patch_8">
    <path d="M 843.213143 1111.084928 
C 850.549781 1111.084928 857.586916 1108.170051 862.774702 1102.982265 
C 867.962488 1097.794479 870.877365 1090.757344 870.877365 1083.420707 
C 870.877365 1076.084069 867.962488 1069.046934 862.774702 1063.859148 
C 857.586916 1058.671362 850.549781 1055.756485 843.213143 1055.756485 
C 835.876506 1055.756485 828.83937 1058.671362 823.651584 1063.859148 
C 818.463798 1069.046934 815.548921 1076.084069 815.548921 1083.420707 
C 815.548921 1090.757344 818.463798 1097.794479 823.651584 1102.982265 
C 828.83937 1108.170051 835.876506 1111.084928 843.213143 1111.084928 
z
" clip-path="url(#p4d384f97a3)" style="fill: #fa9b58; opacity: 0.5"/>
   </g>
   <g id="patch_9">
    <path d="M 618.747955 842.934991 
C 625.532334 842.934991 632.039755 840.239529 636.837035 835.442249 
C 641.634314 830.644969 644.329777 824.137548 644.329777 817.353169 
C 644.329777 810.568791 641.634314 804.06137 636.837035 799.26409 
C 632.039755 794.46681 625.532334 791.771348 618.747955 791.771348 
C 611.963577 791.771348 605.456156 794.46681 600.658876 799.26409 
C 595.861596 804.06137 593.166134 810.568791 593.166134 817.353169 
C 593.166134 824.137548 595.861596 830.644969 600.658876 835.442249 
C 605.456156 840.239529 611.963577 842.934991 618.747955 842.934991 
z
" clip-path="url(#p4d384f97a3)" style="fill: #fdb768; opacity: 0.5"/>
   </g>
   <g id="patch_10">
    <path d="M 884.974657 1128.170501 
C 890.434688 1128.170501 895.671826 1126.001208 899.532652 1122.140382 
C 903.393477 1118.279557 905.562771 1113.042419 905.562771 1107.582388 
C 905.562771 1102.122356 903.393477 1096.885218 899.532652 1093.024393 
C 895.671826 1089.163567 890.434688 1086.994274 884.974657 1086.994274 
C 879.514625 1086.994274 874.277487 1089.163567 870.416662 1093.024393 
C 866.555837 1096.885218 864.386543 1102.122356 864.386543 1107.582388 
C 864.386543 1113.042419 866.555837 1118.279557 870.416662 1122.140382 
C 874.277487 1126.001208 879.514625 1128.170501 884.974657 1128.170501 
z
" clip-path="url(#p4d384f97a3)" style="fill: #fece7c; opacity: 0.5"/>
   </g>
   <g id="patch_11">
    <path d="M 596.761593 321.092495 
C 609.74229 321.092495 622.193078 315.935209 631.371817 306.756471 
C 640.550555 297.577732 645.707841 285.126944 645.707841 272.146247 
C 645.707841 259.165551 640.550555 246.714763 631.371817 237.536024 
C 622.193078 228.357285 609.74229 223.2 596.761593 223.2 
C 583.780897 223.2 571.330109 228.357285 562.15137 237.536024 
C 552.972631 246.714763 547.815346 259.165551 547.815346 272.146247 
C 547.815346 285.126944 552.972631 297.577732 562.15137 306.756471 
C 571.330109 315.935209 583.780897 321.092495 596.761593 321.092495 
z
" clip-path="url(#p4d384f97a3)" style="fill: #fee28f; opacity: 0.5"/>
   </g>
   <g id="patch_12">
    <path d="M 927.165587 1168.025979 
C 931.022038 1168.025979 934.721058 1166.493795 937.44798 1163.766872 
C 940.174903 1161.03995 941.707087 1157.34093 941.707087 1153.484479 
C 941.707087 1149.628028 940.174903 1145.929008 937.44798 1143.202086 
C 934.721058 1140.475163 931.022038 1138.942979 927.165587 1138.942979 
C 923.309136 1138.942979 919.610117 1140.475163 916.883194 1143.202086 
C 914.156271 1145.929008 912.624087 1149.628028 912.624087 1153.484479 
C 912.624087 1157.34093 914.156271 1161.03995 916.883194 1163.766872 
C 919.610117 1166.493795 923.309136 1168.025979 927.165587 1168.025979 
z
" clip-path="url(#p4d384f97a3)" style="fill: #fff1a8; opacity: 0.5"/>
   </g>
   <g id="patch_13">
    <path d="M 580.095034 860.883604 
C 585.353916 860.883604 590.398115 858.794228 594.116706 855.075637 
C 597.835296 851.357046 599.924672 846.312847 599.924672 841.053966 
C 599.924672 835.795084 597.835296 830.750885 594.116706 827.032294 
C 590.398115 823.313703 585.353916 821.224328 580.095034 821.224328 
C 574.836153 821.224328 569.791953 823.313703 566.073363 827.032294 
C 562.354772 830.750885 560.265396 835.795084 560.265396 841.053966 
C 560.265396 846.312847 562.354772 851.357046 566.073363 855.075637 
C 569.791953 858.794228 574.836153 860.883604 580.095034 860.883604 
z
" clip-path="url(#p4d384f97a3)" style="fill: #ffffbe; opacity: 0.5"/>
   </g>
   <g id="patch_14">
    <path d="M 499.827058 775.748334 
C 523.451666 775.748334 546.111852 766.362177 562.816973 749.657057 
C 579.522093 732.951936 588.90825 710.29175 588.90825 686.667142 
C 588.90825 663.042534 579.522093 640.382348 562.816973 623.677228 
C 546.111852 606.972107 523.451666 597.585951 499.827058 597.585951 
C 476.20245 597.585951 453.542264 606.972107 436.837144 623.677228 
C 420.132023 640.382348 410.745867 663.042534 410.745867 686.667142 
C 410.745867 710.29175 420.132023 732.951936 436.837144 749.657057 
C 453.542264 766.362177 476.20245 775.748334 499.827058 775.748334 
z
" clip-path="url(#p4d384f97a3)" style="fill: #f4faad; opacity: 0.5"/>
   </g>
   <g id="patch_15">
    <path d="M 671.236576 896.394561 
C 675.995349 896.394561 680.559855 894.503881 683.924815 891.138921 
C 687.289775 887.77396 689.180456 883.209454 689.180456 878.450682 
C 689.180456 873.691909 687.289775 869.127403 683.924815 865.762443 
C 680.559855 862.397483 675.995349 860.506802 671.236576 860.506802 
C 666.477804 860.506802 661.913298 862.397483 658.548337 865.762443 
C 655.183377 869.127403 653.292697 873.691909 653.292697 878.450682 
C 653.292697 883.209454 655.183377 887.77396 658.548337 891.138921 
C 661.913298 894.503881 666.477804 896.394561 671.236576 896.394561 
z
" clip-path="url(#p4d384f97a3)" style="fill: #e8f69b; opacity: 0.5"/>
   </g>
   <g id="patch_16">
    <path d="M 704.763091 903.443744 
C 709.169223 903.443744 713.395484 901.693169 716.51109 898.577564 
C 719.626696 895.461958 721.377271 891.235696 721.377271 886.829564 
C 721.377271 882.423432 719.626696 878.197171 716.51109 875.081565 
C 713.395484 871.965959 709.169223 870.215384 704.763091 870.215384 
C 700.356959 870.215384 696.130697 871.965959 693.015091 875.081565 
C 689.899486 878.197171 688.148911 882.423432 688.148911 886.829564 
C 688.148911 891.235696 689.899486 895.461958 693.015091 898.577564 
C 696.130697 901.693169 700.356959 903.443744 704.763091 903.443744 
z
" clip-path="url(#p4d384f97a3)" style="fill: #d1ed9c; opacity: 0.5"/>
   </g>
   <g id="patch_17">
    <path d="M 566.668314 822.837287 
C 575.53443 822.837287 584.038607 819.314742 590.307898 813.045451 
C 596.577189 806.77616 600.099734 798.271983 600.099734 789.405867 
C 600.099734 780.539751 596.577189 772.035574 590.307898 765.766283 
C 584.038607 759.496992 575.53443 755.974447 566.668314 755.974447 
C 557.802197 755.974447 549.298021 759.496992 543.02873 765.766283 
C 536.759439 772.035574 533.236893 780.539751 533.236893 789.405867 
C 533.236893 798.271983 536.759439 806.77616 543.02873 813.045451 
C 549.298021 819.314742 557.802197 822.837287 566.668314 822.837287 
z
" clip-path="url(#p4d384f97a3)" style="fill: #b5e1a2; opacity: 0.5"/>
   </g>
   <g id="patch_18">
    <path d="M 887.261422 885.642227 
C 898.455159 885.642227 909.191937 881.194909 917.107104 873.279741 
C 925.022271 865.364574 929.46959 854.627797 929.46959 843.43406 
C 929.46959 832.240323 925.022271 821.503546 917.107104 813.588378 
C 909.191937 805.673211 898.455159 801.225892 887.261422 801.225892 
C 876.067685 801.225892 865.330908 805.673211 857.415741 813.588378 
C 849.500574 821.503546 845.053255 832.240323 845.053255 843.43406 
C 845.053255 854.627797 849.500574 865.364574 857.415741 873.279741 
C 865.330908 881.194909 876.067685 885.642227 887.261422 885.642227 
z
" clip-path="url(#p4d384f97a3)" style="fill: #97d5a4; opacity: 0.5"/>
   </g>
   <g id="patch_19">
    <path d="M 795.471539 1158.239965 
C 804.706684 1158.239965 813.564825 1154.570803 820.095059 1148.040569 
C 826.625293 1141.510335 830.294455 1132.652194 830.294455 1123.417049 
C 830.294455 1114.181903 826.625293 1105.323762 820.095059 1098.793528 
C 813.564825 1092.263294 804.706684 1088.594132 795.471539 1088.594132 
C 786.236393 1088.594132 777.378252 1092.263294 770.848018 1098.793528 
C 764.317784 1105.323762 760.648622 1114.181903 760.648622 1123.417049 
C 760.648622 1132.652194 764.317784 1141.510335 770.848018 1148.040569 
C 777.378252 1154.570803 786.236393 1158.239965 795.471539 1158.239965 
z
" clip-path="url(#p4d384f97a3)" style="fill: #79c9a5; opacity: 0.5"/>
   </g>
   <g id="patch_20">
    <path d="M 781.0107 1089.899689 
C 793.22781 1089.899689 804.946184 1085.04578 813.584985 1076.406978 
C 822.223787 1067.768177 827.077696 1056.049803 827.077696 1043.832693 
C 827.077696 1031.615582 822.223787 1019.897209 813.584985 1011.258407 
C 804.946184 1002.619606 793.22781 997.765696 781.0107 997.765696 
C 768.793589 997.765696 757.075216 1002.619606 748.436414 1011.258407 
C 739.797613 1019.897209 734.943703 1031.615582 734.943703 1043.832693 
C 734.943703 1056.049803 739.797613 1067.768177 748.436414 1076.406978 
C 757.075216 1085.04578 768.793589 1089.899689 781.0107 1089.899689 
z
" clip-path="url(#p4d384f97a3)" style="fill: #5cb7aa; opacity: 0.5"/>
   </g>
   <g id="patch_21">
    <path d="M 574.047275 609.68363 
C 612.482122 609.68363 649.347952 594.413303 676.525493 567.235762 
C 703.703034 540.058221 718.973361 503.192391 718.973361 464.757544 
C 718.973361 426.322697 703.703034 389.456867 676.525493 362.279326 
C 649.347952 335.101785 612.482122 319.831458 574.047275 319.831458 
C 535.612428 319.831458 498.746598 335.101785 471.569057 362.279326 
C 444.391516 389.456867 429.121189 426.322697 429.121189 464.757544 
C 429.121189 503.192391 444.391516 540.058221 471.569057 567.235762 
C 498.746598 594.413303 535.612428 609.68363 574.047275 609.68363 
z
" clip-path="url(#p4d384f97a3)" style="fill: #439bb5; opacity: 0.5"/>
   </g>
   <g id="patch_22">
    <path d="M 794.749846 969.492764 
C 809.793245 969.492764 824.22253 963.515959 834.85982 952.878669 
C 845.49711 942.241379 851.473915 927.812094 851.473915 912.768695 
C 851.473915 897.725295 845.49711 883.29601 834.85982 872.65872 
C 824.22253 862.021431 809.793245 856.044625 794.749846 856.044625 
C 779.706446 856.044625 765.277161 862.021431 754.639871 872.65872 
C 744.002582 883.29601 738.025776 897.725295 738.025776 912.768695 
C 738.025776 927.812094 744.002582 942.241379 754.639871 952.878669 
C 765.277161 963.515959 779.706446 969.492764 794.749846 969.492764 
z
" clip-path="url(#p4d384f97a3)" style="fill: #3682ba; opacity: 0.5"/>
   </g>
   <g id="patch_23">
    <path d="M 955.936012 871.504856 
C 957.100974 871.504856 958.218378 871.042012 959.04213 870.21826 
C 959.865882 869.394508 960.328726 868.277104 960.328726 867.112143 
C 960.328726 865.947182 959.865882 864.829777 959.04213 864.006026 
C 958.218378 863.182274 957.100974 862.71943 955.936012 862.71943 
C 954.771051 862.71943 953.653647 863.182274 952.829895 864.006026 
C 952.006143 864.829777 951.543299 865.947182 951.543299 867.112143 
C 951.543299 868.277104 952.006143 869.394508 952.829895 870.21826 
C 953.653647 871.042012 954.771051 871.504856 955.936012 871.504856 
z
" clip-path="url(#p4d384f97a3)" style="fill: #4b68ae; opacity: 0.5"/>
   </g>
   <g id="patch_24">
    <path d="M 932.69177 869.970668 
C 934.572129 869.970668 936.375727 869.223593 937.705342 867.893978 
C 939.034957 866.564363 939.782032 864.760765 939.782032 862.880406 
C 939.782032 861.000047 939.034957 859.196449 937.705342 857.866834 
C 936.375727 856.537219 934.572129 855.790144 932.69177 855.790144 
C 930.811411 855.790144 929.007813 856.537219 927.678198 857.866834 
C 926.348583 859.196449 925.601508 861.000047 925.601508 862.880406 
C 925.601508 864.760765 926.348583 866.564363 927.678198 867.893978 
C 929.007813 869.223593 930.811411 869.970668 932.69177 869.970668 
z
" clip-path="url(#p4d384f97a3)" style="fill: #5e4fa2; opacity: 0.5"/>
   </g>
   <g id="line2d_1">
    <path d="M 864.050908 1178.023562 
L 843.213143 1083.420707 
" clip-path="url(#p4d384f97a3)" style="fill: none; stroke: #808080; stroke-opacity: 0.3; stroke-width: 0.5; stroke-linecap: square"/>
   </g>
   <g id="line2d_2">
    <path d="M 864.050908 1178.023562 
L 949.626807 988.279491 
" clip-path="url(#p4d384f97a3)" style="fill: none; stroke: #808080; stroke-opacity: 0.3; stroke-width: 0.5; stroke-linecap: square"/>
   </g>
   <g id="line2d_3">
    <path d="M 864.050908 1178.023562 
L 795.471539 1123.417049 
" clip-path="url(#p4d384f97a3)" style="fill: none; stroke: #808080; stroke-opacity: 0.3; stroke-width: 0.5; stroke-linecap: square"/>
   </g>
   <g id="line2d_4">
    <path d="M 864.050908 1178.023562 
L 884.974657 1107.582388 
" clip-path="url(#p4d384f97a3)" style="fill: none; stroke: #808080; stroke-opacity: 0.3; stroke-width: 0.5; stroke-linecap: square"/>
   </g>
   <g id="line2d_5">
    <path d="M 864.050908 1178.023562 
L 927.165587 1153.484479 
" clip-path="url(#p4d384f97a3)" style="fill: none; stroke: #808080; stroke-opacity: 0.3; stroke-width: 0.5; stroke-linecap: square"/>
   </g>
   <g id="line2d_6">
    <path d="M 843.213143 1083.420707 
L 949.626807 988.279491 
" clip-path="url(#p4d384f97a3)" style="fill: none; stroke: #808080; stroke-opacity: 0.3; stroke-width: 0.5; stroke-linecap: square"/>
   </g>
   <g id="line2d_7">
    <path d="M 843.213143 1083.420707 
L 795.471539 1123.417049 
" clip-path="url(#p4d384f97a3)" style="fill: none; stroke: #808080; stroke-opacity: 0.3; stroke-width: 0.5; stroke-linecap: square"/>
   </g>
   <g id="line2d_8">
    <path d="M 843.213143 1083.420707 
L 884.974657 1107.582388 
" clip-path="url(#p4d384f97a3)" style="fill: none; stroke: #808080; stroke-opacity: 0.3; stroke-width: 0.5; stroke-linecap: square"/>
   </g>
   <g id="line2d_9">
    <path d="M 843.213143 1083.420707 
L 781.0107 1043.832693 
" clip-path="url(#p4d384f97a3)" style="fill: none; stroke: #808080; stroke-opacity: 0.3; stroke-width: 0.5; stroke-linecap: square"/>
   </g>
   <g id="line2d_10">
    <path d="M 949.626807 988.279491 
L 794.749846 912.768695 
" clip-path="url(#p4d384f97a3)" style="fill: none; stroke: #808080; stroke-opacity: 0.3; stroke-width: 0.5; stroke-linecap: square"/>
   </g>
   <g id="line2d_11">
    <path d="M 949.626807 988.279491 
L 955.936012 867.112143 
" clip-path="url(#p4d384f97a3)" style="fill: none; stroke: #808080; stroke-opacity: 0.3; stroke-width: 0.5; stroke-linecap: square"/>
   </g>
   <g id="line2d_12">
    <path d="M 949.626807 988.279491 
L 932.69177 862.880406 
" clip-path="url(#p4d384f97a3)" style="fill: none; stroke: #808080; stroke-opacity: 0.3; stroke-width: 0.5; stroke-linecap: square"/>
   </g>
   <g id="line2d_13">
    <path d="M 949.626807 988.279491 
L 884.974657 1107.582388 
" clip-path="url(#p4d384f97a3)" style="fill: none; stroke: #808080; stroke-opacity: 0.3; stroke-width: 0.5; stroke-linecap: square"/>
   </g>
   <g id="line2d_14">
    <path d="M 949.626807 988.279491 
L 781.0107 1043.832693 
" clip-path="url(#p4d384f97a3)" style="fill: none; stroke: #808080; stroke-opacity: 0.3; stroke-width: 0.5; stroke-linecap: square"/>
   </g>
   <g id="line2d_15">
    <path d="M 949.626807 988.279491 
L 945.337087 866.986274 
" clip-path="url(#p4d384f97a3)" style="fill: none; stroke: #808080; stroke-opacity: 0.3; stroke-width: 0.5; stroke-linecap: square"/>
   </g>
   <g id="line2d_16">
    <path d="M 949.626807 988.279491 
L 927.165587 1153.484479 
" clip-path="url(#p4d384f97a3)" style="fill: none; stroke: #808080; stroke-opacity: 0.3; stroke-width: 0.5; stroke-linecap: square"/>
   </g>
   <g id="line2d_17">
    <path d="M 949.626807 988.279491 
L 887.261422 843.43406 
" clip-path="url(#p4d384f97a3)" style="fill: none; stroke: #808080; stroke-opacity: 0.3; stroke-width: 0.5; stroke-linecap: square"/>
   </g>
   <g id="line2d_18">
    <path d="M 582.388289 754.398862 
L 566.668314 789.405867 
" clip-path="url(#p4d384f97a3)" style="fill: none; stroke: #808080; stroke-opacity: 0.3; stroke-width: 0.5; stroke-linecap: square"/>
   </g>
   <g id="line2d_19">
    <path d="M 582.388289 754.398862 
L 499.827058 686.667142 
" clip-path="url(#p4d384f97a3)" style="fill: none; stroke: #808080; stroke-opacity: 0.3; stroke-width: 0.5; stroke-linecap: square"/>
   </g>
   <g id="line2d_20">
    <path d="M 596.761593 272.146247 
L 574.047275 464.757544 
" clip-path="url(#p4d384f97a3)" style="fill: none; stroke: #808080; stroke-opacity: 0.3; stroke-width: 0.5; stroke-linecap: square"/>
   </g>
   <g id="line2d_21">
    <path d="M 795.471539 1123.417049 
L 781.0107 1043.832693 
" clip-path="url(#p4d384f97a3)" style="fill: none; stroke: #808080; stroke-opacity: 0.3; stroke-width: 0.5; stroke-linecap: square"/>
   </g>
   <g id="line2d_22">
    <path d="M 794.749846 912.768695 
L 734.365954 979.373282 
" clip-path="url(#p4d384f97a3)" style="fill: none; stroke: #808080; stroke-opacity: 0.3; stroke-width: 0.5; stroke-linecap: square"/>
   </g>
   <g id="line2d_23">
    <path d="M 794.749846 912.768695 
L 704.763091 886.829564 
" clip-path="url(#p4d384f97a3)" style="fill: none; stroke: #808080; stroke-opacity: 0.3; stroke-width: 0.5; stroke-linecap: square"/>
   </g>
   <g id="line2d_24">
    <path d="M 794.749846 912.768695 
L 781.0107 1043.832693 
" clip-path="url(#p4d384f97a3)" style="fill: none; stroke: #808080; stroke-opacity: 0.3; stroke-width: 0.5; stroke-linecap: square"/>
   </g>
   <g id="line2d_25">
    <path d="M 794.749846 912.768695 
L 887.261422 843.43406 
" clip-path="url(#p4d384f97a3)" style="fill: none; stroke: #808080; stroke-opacity: 0.3; stroke-width: 0.5; stroke-linecap: square"/>
   </g>
   <g id="line2d_26">
    <path d="M 671.236576 878.450682 
L 658.212854 841.851682 
" clip-path="url(#p4d384f97a3)" style="fill: none; stroke: #808080; stroke-opacity: 0.3; stroke-width: 0.5; stroke-linecap: square"/>
   </g>
   <g id="line2d_27">
    <path d="M 671.236576 878.450682 
L 704.763091 886.829564 
" clip-path="url(#p4d384f97a3)" style="fill: none; stroke: #808080; stroke-opacity: 0.3; stroke-width: 0.5; stroke-linecap: square"/>
   </g>
   <g id="line2d_28">
    <path d="M 734.365954 979.373282 
L 781.0107 1043.832693 
" clip-path="url(#p4d384f97a3)" style="fill: none; stroke: #808080; stroke-opacity: 0.3; stroke-width: 0.5; stroke-linecap: square"/>
   </g>
   <g id="line2d_29">
    <path d="M 955.936012 867.112143 
L 945.337087 866.986274 
" clip-path="url(#p4d384f97a3)" style="fill: none; stroke: #808080; stroke-opacity: 0.3; stroke-width: 0.5; stroke-linecap: square"/>
   </g>
   <g id="line2d_30">
    <path d="M 566.668314 789.405867 
L 580.095034 841.053966 
" clip-path="url(#p4d384f97a3)" style="fill: none; stroke: #808080; stroke-opacity: 0.3; stroke-width: 0.5; stroke-linecap: square"/>
   </g>
   <g id="line2d_31">
    <path d="M 566.668314 789.405867 
L 618.747955 817.353169 
" clip-path="url(#p4d384f97a3)" style="fill: none; stroke: #808080; stroke-opacity: 0.3; stroke-width: 0.5; stroke-linecap: square"/>
   </g>
   <g id="line2d_32">
    <path d="M 566.668314 789.405867 
L 499.827058 686.667142 
" clip-path="url(#p4d384f97a3)" style="fill: none; stroke: #808080; stroke-opacity: 0.3; stroke-width: 0.5; stroke-linecap: square"/>
   </g>
   <g id="line2d_33">
    <path d="M 932.69177 862.880406 
L 945.337087 866.986274 
" clip-path="url(#p4d384f97a3)" style="fill: none; stroke: #808080; stroke-opacity: 0.3; stroke-width: 0.5; stroke-linecap: square"/>
   </g>
   <g id="line2d_34">
    <path d="M 932.69177 862.880406 
L 887.261422 843.43406 
" clip-path="url(#p4d384f97a3)" style="fill: none; stroke: #808080; stroke-opacity: 0.3; stroke-width: 0.5; stroke-linecap: square"/>
   </g>
   <g id="line2d_35">
    <path d="M 618.747955 817.353169 
L 580.095034 841.053966 
" clip-path="url(#p4d384f97a3)" style="fill: none; stroke: #808080; stroke-opacity: 0.3; stroke-width: 0.5; stroke-linecap: square"/>
   </g>
   <g id="line2d_36">
    <path d="M 618.747955 817.353169 
L 658.212854 841.851682 
" clip-path="url(#p4d384f97a3)" style="fill: none; stroke: #808080; stroke-opacity: 0.3; stroke-width: 0.5; stroke-linecap: square"/>
   </g>
   <g id="line2d_37">
    <path d="M 499.827058 686.667142 
L 574.047275 464.757544 
" clip-path="url(#p4d384f97a3)" style="fill: none; stroke: #808080; stroke-opacity: 0.3; stroke-width: 0.5; stroke-linecap: square"/>
   </g>
   <g id="text_1">
    <!-- ECU -->
    <g transform="translate(728.17986 981.028907) scale(0.06 -0.06)">
     <defs>
      <path id="DejaVuSans-45" d="M 628 4666 
L 3578 4666 
L 3578 4134 
L 1259 4134 
L 1259 2753 
L 3481 2753 
L 3481 2222 
L 1259 2222 
L 1259 531 
L 3634 531 
L 3634 0 
L 628 0 
L 628 4666 
z
" transform="scale(0.015625)"/>
      <path id="DejaVuSans-43" d="M 4122 4306 
L 4122 3641 
Q 3803 3938 3442 4084 
Q 3081 4231 2675 4231 
Q 1875 4231 1450 3742 
Q 1025 3253 1025 2328 
Q 1025 1406 1450 917 
Q 1875 428 2675 428 
Q 3081 428 3442 575 
Q 3803 722 4122 1019 
L 4122 359 
Q 3791 134 3420 21 
Q 3050 -91 2638 -91 
Q 1578 -91 968 557 
Q 359 1206 359 2328 
Q 359 3453 968 4101 
Q 1578 4750 2638 4750 
Q 3056 4750 3426 4639 
Q 3797 4528 4122 4306 
z
" transform="scale(0.015625)"/>
      <path id="DejaVuSans-55" d="M 556 4666 
L 1191 4666 
L 1191 1831 
Q 1191 1081 1462 751 
Q 1734 422 2344 422 
Q 2950 422 3222 751 
Q 3494 1081 3494 1831 
L 3494 4666 
L 4128 4666 
L 4128 1753 
Q 4128 841 3676 375 
Q 3225 -91 2344 -91 
Q 1459 -91 1007 375 
Q 556 841 556 1753 
L 556 4666 
z
" transform="scale(0.015625)"/>
     </defs>
     <use xlink:href="#DejaVuSans-45"/>
     <use xlink:href="#DejaVuSans-43" x="63.183594"/>
     <use xlink:href="#DejaVuSans-55" x="133.007812"/>
    </g>
   </g>
   <g id="text_2">
    <!-- SUR -->
    <g transform="translate(939.152399 868.641899) scale(0.06 -0.06)">
     <defs>
      <path id="DejaVuSans-53" d="M 3425 4513 
L 3425 3897 
Q 3066 4069 2747 4153 
Q 2428 4238 2131 4238 
Q 1616 4238 1336 4038 
Q 1056 3838 1056 3469 
Q 1056 3159 1242 3001 
Q 1428 2844 1947 2747 
L 2328 2669 
Q 3034 2534 3370 2195 
Q 3706 1856 3706 1288 
Q 3706 609 3251 259 
Q 2797 -91 1919 -91 
Q 1588 -91 1214 -16 
Q 841 59 441 206 
L 441 856 
Q 825 641 1194 531 
Q 1563 422 1919 422 
Q 2459 422 2753 634 
Q 3047 847 3047 1241 
Q 3047 1584 2836 1778 
Q 2625 1972 2144 2069 
L 1759 2144 
Q 1053 2284 737 2584 
Q 422 2884 422 3419 
Q 422 4038 858 4394 
Q 1294 4750 2059 4750 
Q 2388 4750 2728 4690 
Q 3069 4631 3425 4513 
z
" transform="scale(0.015625)"/>
      <path id="DejaVuSans-52" d="M 2841 2188 
Q 3044 2119 3236 1894 
Q 3428 1669 3622 1275 
L 4263 0 
L 3584 0 
L 2988 1197 
Q 2756 1666 2539 1819 
Q 2322 1972 1947 1972 
L 1259 1972 
L 1259 0 
L 628 0 
L 628 4666 
L 2053 4666 
Q 2853 4666 3247 4331 
Q 3641 3997 3641 3322 
Q 3641 2881 3436 2590 
Q 3231 2300 2841 2188 
z
M 1259 4147 
L 1259 2491 
L 2053 2491 
Q 2509 2491 2742 2702 
Q 2975 2913 2975 3322 
Q 2975 3731 2742 3939 
Q 2509 4147 2053 4147 
L 1259 4147 
z
" transform="scale(0.015625)"/>
     </defs>
     <use xlink:href="#DejaVuSans-53"/>
     <use xlink:href="#DejaVuSans-55" x="63.476562"/>
     <use xlink:href="#DejaVuSans-52" x="136.669922"/>
    </g>
   </g>
   <g id="text_3">
    <!-- BRA -->
    <g transform="translate(943.551807 989.935116) scale(0.06 -0.06)">
     <defs>
      <path id="DejaVuSans-42" d="M 1259 2228 
L 1259 519 
L 2272 519 
Q 2781 519 3026 730 
Q 3272 941 3272 1375 
Q 3272 1813 3026 2020 
Q 2781 2228 2272 2228 
L 1259 2228 
z
M 1259 4147 
L 1259 2741 
L 2194 2741 
Q 2656 2741 2882 2914 
Q 3109 3088 3109 3444 
Q 3109 3797 2882 3972 
Q 2656 4147 2194 4147 
L 1259 4147 
z
M 628 4666 
L 2241 4666 
Q 2963 4666 3353 4366 
Q 3744 4066 3744 3513 
Q 3744 3084 3544 2831 
Q 3344 2578 2956 2516 
Q 3422 2416 3680 2098 
Q 3938 1781 3938 1306 
Q 3938 681 3513 340 
Q 3088 0 2303 0 
L 628 0 
L 628 4666 
z
" transform="scale(0.015625)"/>
      <path id="DejaVuSans-41" d="M 2188 4044 
L 1331 1722 
L 3047 1722 
L 2188 4044 
z
M 1831 4666 
L 2547 4666 
L 4325 0 
L 3669 0 
L 3244 1197 
L 1141 1197 
L 716 0 
L 50 0 
L 1831 4666 
z
" transform="scale(0.015625)"/>
     </defs>
     <use xlink:href="#DejaVuSans-42"/>
     <use xlink:href="#DejaVuSans-52" x="68.603516"/>
     <use xlink:href="#DejaVuSans-41" x="134.085938"/>
    </g>
   </g>
   <g id="text_4">
    <!-- ARG -->
    <g transform="translate(857.589658 1179.679187) scale(0.06 -0.06)">
     <defs>
      <path id="DejaVuSans-47" d="M 3809 666 
L 3809 1919 
L 2778 1919 
L 2778 2438 
L 4434 2438 
L 4434 434 
Q 4069 175 3628 42 
Q 3188 -91 2688 -91 
Q 1594 -91 976 548 
Q 359 1188 359 2328 
Q 359 3472 976 4111 
Q 1594 4750 2688 4750 
Q 3144 4750 3555 4637 
Q 3966 4525 4313 4306 
L 4313 3634 
Q 3963 3931 3569 4081 
Q 3175 4231 2741 4231 
Q 1884 4231 1454 3753 
Q 1025 3275 1025 2328 
Q 1025 1384 1454 906 
Q 1884 428 2741 428 
Q 3075 428 3337 486 
Q 3600 544 3809 666 
z
" transform="scale(0.015625)"/>
     </defs>
     <use xlink:href="#DejaVuSans-41"/>
     <use xlink:href="#DejaVuSans-52" x="68.408203"/>
     <use xlink:href="#DejaVuSans-47" x="137.890625"/>
    </g>
   </g>
   <g id="text_5">
    <!-- NIC -->
    <g transform="translate(652.988636 843.507307) scale(0.06 -0.06)">
     <defs>
      <path id="DejaVuSans-4e" d="M 628 4666 
L 1478 4666 
L 3547 763 
L 3547 4666 
L 4159 4666 
L 4159 0 
L 3309 0 
L 1241 3903 
L 1241 0 
L 628 0 
L 628 4666 
z
" transform="scale(0.015625)"/>
      <path id="DejaVuSans-49" d="M 628 4666 
L 1259 4666 
L 1259 0 
L 628 0 
L 628 4666 
z
" transform="scale(0.015625)"/>
     </defs>
     <use xlink:href="#DejaVuSans-4e"/>
     <use xlink:href="#DejaVuSans-49" x="74.804688"/>
     <use xlink:href="#DejaVuSans-43" x="104.296875"/>
    </g>
   </g>
   <g id="text_6">
    <!-- BLZ -->
    <g transform="translate(576.603445 756.054487) scale(0.06 -0.06)">
     <defs>
      <path id="DejaVuSans-4c" d="M 628 4666 
L 1259 4666 
L 1259 531 
L 3531 531 
L 3531 0 
L 628 0 
L 628 4666 
z
" transform="scale(0.015625)"/>
      <path id="DejaVuSans-5a" d="M 359 4666 
L 4025 4666 
L 4025 4184 
L 1075 531 
L 4097 531 
L 4097 0 
L 288 0 
L 288 481 
L 3238 4134 
L 359 4134 
L 359 4666 
z
" transform="scale(0.015625)"/>
     </defs>
     <use xlink:href="#DejaVuSans-42"/>
     <use xlink:href="#DejaVuSans-4c" x="68.603516"/>
     <use xlink:href="#DejaVuSans-5a" x="124.316406"/>
    </g>
   </g>
   <g id="text_7">
    <!-- BOL -->
    <g transform="translate(837.174237 1085.076332) scale(0.06 -0.06)">
     <defs>
      <path id="DejaVuSans-4f" d="M 2522 4238 
Q 1834 4238 1429 3725 
Q 1025 3213 1025 2328 
Q 1025 1447 1429 934 
Q 1834 422 2522 422 
Q 3209 422 3611 934 
Q 4013 1447 4013 2328 
Q 4013 3213 3611 3725 
Q 3209 4238 2522 4238 
z
M 2522 4750 
Q 3503 4750 4090 4092 
Q 4678 3434 4678 2328 
Q 4678 1225 4090 567 
Q 3503 -91 2522 -91 
Q 1538 -91 948 565 
Q 359 1222 359 2328 
Q 359 3434 948 4092 
Q 1538 4750 2522 4750 
z
" transform="scale(0.015625)"/>
     </defs>
     <use xlink:href="#DejaVuSans-42"/>
     <use xlink:href="#DejaVuSans-4f" x="66.853516"/>
     <use xlink:href="#DejaVuSans-4c" x="145.564453"/>
    </g>
   </g>
   <g id="text_8">
    <!-- HND -->
    <g transform="translate(611.937487 819.008794) scale(0.06 -0.06)">
     <defs>
      <path id="DejaVuSans-48" d="M 628 4666 
L 1259 4666 
L 1259 2753 
L 3553 2753 
L 3553 4666 
L 4184 4666 
L 4184 0 
L 3553 0 
L 3553 2222 
L 1259 2222 
L 1259 0 
L 628 0 
L 628 4666 
z
" transform="scale(0.015625)"/>
      <path id="DejaVuSans-44" d="M 1259 4147 
L 1259 519 
L 2022 519 
Q 2988 519 3436 956 
Q 3884 1394 3884 2338 
Q 3884 3275 3436 3711 
Q 2988 4147 2022 4147 
L 1259 4147 
z
M 628 4666 
L 1925 4666 
Q 3281 4666 3915 4102 
Q 4550 3538 4550 2338 
Q 4550 1131 3912 565 
Q 3275 0 1925 0 
L 628 0 
L 628 4666 
z
" transform="scale(0.015625)"/>
     </defs>
     <use xlink:href="#DejaVuSans-48"/>
     <use xlink:href="#DejaVuSans-4e" x="75.195312"/>
     <use xlink:href="#DejaVuSans-44" x="150"/>
    </g>
   </g>
   <g id="text_9">
    <!-- PRY -->
    <g transform="translate(879.440126 1109.238013) scale(0.06 -0.06)">
     <defs>
      <path id="DejaVuSans-50" d="M 1259 4147 
L 1259 2394 
L 2053 2394 
Q 2494 2394 2734 2622 
Q 2975 2850 2975 3272 
Q 2975 3691 2734 3919 
Q 2494 4147 2053 4147 
L 1259 4147 
z
M 628 4666 
L 2053 4666 
Q 2838 4666 3239 4311 
Q 3641 3956 3641 3272 
Q 3641 2581 3239 2228 
Q 2838 1875 2053 1875 
L 1259 1875 
L 1259 0 
L 628 0 
L 628 4666 
z
" transform="scale(0.015625)"/>
      <path id="DejaVuSans-59" d="M -13 4666 
L 666 4666 
L 1959 2747 
L 3244 4666 
L 3922 4666 
L 2272 2222 
L 2272 0 
L 1638 0 
L 1638 2222 
L -13 4666 
z
" transform="scale(0.015625)"/>
     </defs>
     <use xlink:href="#DejaVuSans-50"/>
     <use xlink:href="#DejaVuSans-52" x="60.302734"/>
     <use xlink:href="#DejaVuSans-59" x="123.410156"/>
    </g>
   </g>
   <g id="text_10">
    <!-- CAN -->
    <g transform="translate(590.370187 273.801872) scale(0.06 -0.06)">
     <use xlink:href="#DejaVuSans-43"/>
     <use xlink:href="#DejaVuSans-41" x="69.824219"/>
     <use xlink:href="#DejaVuSans-4e" x="138.232422"/>
    </g>
   </g>
   <g id="text_11">
    <!-- URY -->
    <g transform="translate(921.244337 1155.140104) scale(0.06 -0.06)">
     <use xlink:href="#DejaVuSans-55"/>
     <use xlink:href="#DejaVuSans-52" x="73.193359"/>
     <use xlink:href="#DejaVuSans-59" x="136.300781"/>
    </g>
   </g>
   <g id="text_12">
    <!-- SLV -->
    <g transform="translate(574.796753 842.709591) scale(0.06 -0.06)">
     <defs>
      <path id="DejaVuSans-56" d="M 1831 0 
L 50 4666 
L 709 4666 
L 2188 738 
L 3669 4666 
L 4325 4666 
L 2547 0 
L 1831 0 
z
" transform="scale(0.015625)"/>
     </defs>
     <use xlink:href="#DejaVuSans-53"/>
     <use xlink:href="#DejaVuSans-4c" x="63.476562"/>
     <use xlink:href="#DejaVuSans-56" x="108.189453"/>
    </g>
   </g>
   <g id="text_13">
    <!-- MEX -->
    <g transform="translate(493.287996 688.322767) scale(0.06 -0.06)">
     <defs>
      <path id="DejaVuSans-4d" d="M 628 4666 
L 1569 4666 
L 2759 1491 
L 3956 4666 
L 4897 4666 
L 4897 0 
L 4281 0 
L 4281 4097 
L 3078 897 
L 2444 897 
L 1241 4097 
L 1241 0 
L 628 0 
L 628 4666 
z
" transform="scale(0.015625)"/>
      <path id="DejaVuSans-58" d="M 403 4666 
L 1081 4666 
L 2241 2931 
L 3406 4666 
L 4084 4666 
L 2584 2425 
L 4184 0 
L 3506 0 
L 2194 1984 
L 872 0 
L 191 0 
L 1856 2491 
L 403 4666 
z
" transform="scale(0.015625)"/>
     </defs>
     <use xlink:href="#DejaVuSans-4d"/>
     <use xlink:href="#DejaVuSans-45" x="86.279297"/>
     <use xlink:href="#DejaVuSans-58" x="149.462891"/>
    </g>
   </g>
   <g id="text_14">
    <!-- CRI -->
    <g transform="translate(666.172201 880.106307) scale(0.06 -0.06)">
     <use xlink:href="#DejaVuSans-43"/>
     <use xlink:href="#DejaVuSans-52" x="69.824219"/>
     <use xlink:href="#DejaVuSans-49" x="139.306641"/>
    </g>
   </g>
   <g id="text_15">
    <!-- PAN -->
    <g transform="translate(698.848872 888.485189) scale(0.06 -0.06)">
     <use xlink:href="#DejaVuSans-50"/>
     <use xlink:href="#DejaVuSans-41" x="53.927734"/>
     <use xlink:href="#DejaVuSans-4e" x="122.335938"/>
    </g>
   </g>
   <g id="text_16">
    <!-- GTM -->
    <g transform="translate(560.031751 791.061492) scale(0.06 -0.06)">
     <defs>
      <path id="DejaVuSans-54" d="M -19 4666 
L 3928 4666 
L 3928 4134 
L 2272 4134 
L 2272 0 
L 1638 0 
L 1638 4134 
L -19 4134 
L -19 4666 
z
" transform="scale(0.015625)"/>
     </defs>
     <use xlink:href="#DejaVuSans-47"/>
     <use xlink:href="#DejaVuSans-54" x="73.865234"/>
     <use xlink:href="#DejaVuSans-4d" x="134.949219"/>
    </g>
   </g>
   <g id="text_17">
    <!-- VEN -->
    <g transform="translate(881.069235 845.089685) scale(0.06 -0.06)">
     <use xlink:href="#DejaVuSans-56"/>
     <use xlink:href="#DejaVuSans-45" x="68.408203"/>
     <use xlink:href="#DejaVuSans-4e" x="131.591797"/>
    </g>
   </g>
   <g id="text_18">
    <!-- CHL -->
    <g transform="translate(789.449039 1125.072674) scale(0.06 -0.06)">
     <use xlink:href="#DejaVuSans-43"/>
     <use xlink:href="#DejaVuSans-48" x="69.824219"/>
     <use xlink:href="#DejaVuSans-4c" x="145.019531"/>
    </g>
   </g>
   <g id="text_19">
    <!-- PER -->
    <g transform="translate(775.221637 1045.488318) scale(0.06 -0.06)">
     <use xlink:href="#DejaVuSans-50"/>
     <use xlink:href="#DejaVuSans-45" x="60.302734"/>
     <use xlink:href="#DejaVuSans-52" x="123.486328"/>
    </g>
   </g>
   <g id="text_20">
    <!-- USA -->
    <g transform="translate(567.838681 466.413169) scale(0.06 -0.06)">
     <use xlink:href="#DejaVuSans-55"/>
     <use xlink:href="#DejaVuSans-53" x="73.193359"/>
     <use xlink:href="#DejaVuSans-41" x="138.544922"/>
    </g>
   </g>
   <g id="text_21">
    <!-- COL -->
    <g transform="translate(788.621877 914.42432) scale(0.06 -0.06)">
     <use xlink:href="#DejaVuSans-43"/>
     <use xlink:href="#DejaVuSans-4f" x="69.824219"/>
     <use xlink:href="#DejaVuSans-4c" x="148.535156"/>
    </g>
   </g>
   <g id="text_22">
    <!-- GUF -->
    <g transform="translate(949.690387 868.767768) scale(0.06 -0.06)">
     <defs>
      <path id="DejaVuSans-46" d="M 628 4666 
L 3309 4666 
L 3309 4134 
L 1259 4134 
L 1259 2759 
L 3109 2759 
L 3109 2228 
L 1259 2228 
L 1259 0 
L 628 0 
L 628 4666 
z
" transform="scale(0.015625)"/>
     </defs>
     <use xlink:href="#DejaVuSans-47"/>
     <use xlink:href="#DejaVuSans-55" x="77.490234"/>
     <use xlink:href="#DejaVuSans-46" x="150.683594"/>
    </g>
   </g>
   <g id="text_23">
    <!-- GUY -->
    <g transform="translate(926.33927 864.536031) scale(0.06 -0.06)">
     <use xlink:href="#DejaVuSans-47"/>
     <use xlink:href="#DejaVuSans-55" x="77.490234"/>
     <use xlink:href="#DejaVuSans-59" x="150.683594"/>
    </g>
   </g>
   <g id="text_24">
    <!-- D:19.83 -->
    <g transform="translate(853.632026 1126.243009) scale(0.04 -0.04)">
     <defs>
      <path id="DejaVuSans-3a" d="M 750 794 
L 1409 794 
L 1409 0 
L 750 0 
L 750 794 
z
M 750 3309 
L 1409 3309 
L 1409 2516 
L 750 2516 
L 750 3309 
z
" transform="scale(0.015625)"/>
      <path id="DejaVuSans-31" d="M 794 531 
L 1825 531 
L 1825 4091 
L 703 3866 
L 703 4441 
L 1819 4666 
L 2450 4666 
L 2450 531 
L 3481 531 
L 3481 0 
L 794 0 
L 794 531 
z
" transform="scale(0.015625)"/>
      <path id="DejaVuSans-39" d="M 703 97 
L 703 672 
Q 941 559 1184 500 
Q 1428 441 1663 441 
Q 2288 441 2617 861 
Q 2947 1281 2994 2138 
Q 2813 1869 2534 1725 
Q 2256 1581 1919 1581 
Q 1219 1581 811 2004 
Q 403 2428 403 3163 
Q 403 3881 828 4315 
Q 1253 4750 1959 4750 
Q 2769 4750 3195 4129 
Q 3622 3509 3622 2328 
Q 3622 1225 3098 567 
Q 2575 -91 1691 -91 
Q 1453 -91 1209 -44 
Q 966 3 703 97 
z
M 1959 2075 
Q 2384 2075 2632 2365 
Q 2881 2656 2881 3163 
Q 2881 3666 2632 3958 
Q 2384 4250 1959 4250 
Q 1534 4250 1286 3958 
Q 1038 3666 1038 3163 
Q 1038 2656 1286 2365 
Q 1534 2075 1959 2075 
z
" transform="scale(0.015625)"/>
      <path id="DejaVuSans-2e" d="M 684 794 
L 1344 794 
L 1344 0 
L 684 0 
L 684 794 
z
" transform="scale(0.015625)"/>
      <path id="DejaVuSans-38" d="M 2034 2216 
Q 1584 2216 1326 1975 
Q 1069 1734 1069 1313 
Q 1069 891 1326 650 
Q 1584 409 2034 409 
Q 2484 409 2743 651 
Q 3003 894 3003 1313 
Q 3003 1734 2745 1975 
Q 2488 2216 2034 2216 
z
M 1403 2484 
Q 997 2584 770 2862 
Q 544 3141 544 3541 
Q 544 4100 942 4425 
Q 1341 4750 2034 4750 
Q 2731 4750 3128 4425 
Q 3525 4100 3525 3541 
Q 3525 3141 3298 2862 
Q 3072 2584 2669 2484 
Q 3125 2378 3379 2068 
Q 3634 1759 3634 1313 
Q 3634 634 3220 271 
Q 2806 -91 2034 -91 
Q 1263 -91 848 271 
Q 434 634 434 1313 
Q 434 1759 690 2068 
Q 947 2378 1403 2484 
z
M 1172 3481 
Q 1172 3119 1398 2916 
Q 1625 2713 2034 2713 
Q 2441 2713 2670 2916 
Q 2900 3119 2900 3481 
Q 2900 3844 2670 4047 
Q 2441 4250 2034 4250 
Q 1625 4250 1398 4047 
Q 1172 3844 1172 3481 
z
" transform="scale(0.015625)"/>
      <path id="DejaVuSans-33" d="M 2597 2516 
Q 3050 2419 3304 2112 
Q 3559 1806 3559 1356 
Q 3559 666 3084 287 
Q 2609 -91 1734 -91 
Q 1441 -91 1130 -33 
Q 819 25 488 141 
L 488 750 
Q 750 597 1062 519 
Q 1375 441 1716 441 
Q 2309 441 2620 675 
Q 2931 909 2931 1356 
Q 2931 1769 2642 2001 
Q 2353 2234 1838 2234 
L 1294 2234 
L 1294 2753 
L 1863 2753 
Q 2328 2753 2575 2939 
Q 2822 3125 2822 3475 
Q 2822 3834 2567 4026 
Q 2313 4219 1838 4219 
Q 1578 4219 1281 4162 
Q 984 4106 628 3988 
L 628 4550 
Q 988 4650 1302 4700 
Q 1616 4750 1894 4750 
Q 2613 4750 3031 4423 
Q 3450 4097 3450 3541 
Q 3450 3153 3228 2886 
Q 3006 2619 2597 2516 
z
" transform="scale(0.015625)"/>
     </defs>
     <use xlink:href="#DejaVuSans-44"/>
     <use xlink:href="#DejaVuSans-3a" x="77.001953"/>
     <use xlink:href="#DejaVuSans-31" x="110.693359"/>
     <use xlink:href="#DejaVuSans-39" x="174.316406"/>
     <use xlink:href="#DejaVuSans-2e" x="237.939453"/>
     <use xlink:href="#DejaVuSans-38" x="269.726562"/>
     <use xlink:href="#DejaVuSans-33" x="333.349609"/>
    </g>
    <!-- A:5.03 -->
    <g transform="translate(853.632026 1130.722134) scale(0.04 -0.04)">
     <defs>
      <path id="DejaVuSans-35" d="M 691 4666 
L 3169 4666 
L 3169 4134 
L 1269 4134 
L 1269 2991 
Q 1406 3038 1543 3061 
Q 1681 3084 1819 3084 
Q 2600 3084 3056 2656 
Q 3513 2228 3513 1497 
Q 3513 744 3044 326 
Q 2575 -91 1722 -91 
Q 1428 -91 1123 -41 
Q 819 9 494 109 
L 494 744 
Q 775 591 1075 516 
Q 1375 441 1709 441 
Q 2250 441 2565 725 
Q 2881 1009 2881 1497 
Q 2881 1984 2565 2268 
Q 2250 2553 1709 2553 
Q 1456 2553 1204 2497 
Q 953 2441 691 2322 
L 691 4666 
z
" transform="scale(0.015625)"/>
      <path id="DejaVuSans-30" d="M 2034 4250 
Q 1547 4250 1301 3770 
Q 1056 3291 1056 2328 
Q 1056 1369 1301 889 
Q 1547 409 2034 409 
Q 2525 409 2770 889 
Q 3016 1369 3016 2328 
Q 3016 3291 2770 3770 
Q 2525 4250 2034 4250 
z
M 2034 4750 
Q 2819 4750 3233 4129 
Q 3647 3509 3647 2328 
Q 3647 1150 3233 529 
Q 2819 -91 2034 -91 
Q 1250 -91 836 529 
Q 422 1150 422 2328 
Q 422 3509 836 4129 
Q 1250 4750 2034 4750 
z
" transform="scale(0.015625)"/>
     </defs>
     <use xlink:href="#DejaVuSans-41"/>
     <use xlink:href="#DejaVuSans-3a" x="66.658203"/>
     <use xlink:href="#DejaVuSans-35" x="100.349609"/>
     <use xlink:href="#DejaVuSans-2e" x="163.972656"/>
     <use xlink:href="#DejaVuSans-30" x="195.759766"/>
     <use xlink:href="#DejaVuSans-33" x="259.382812"/>
    </g>
   </g>
   <g id="text_25">
    <!-- A:5.03 -->
    <g transform="translate(853.632026 1130.722134) scale(0.04 -0.04)">
     <use xlink:href="#DejaVuSans-41"/>
     <use xlink:href="#DejaVuSans-3a" x="66.658203"/>
     <use xlink:href="#DejaVuSans-35" x="100.349609"/>
     <use xlink:href="#DejaVuSans-2e" x="163.972656"/>
     <use xlink:href="#DejaVuSans-30" x="195.759766"/>
     <use xlink:href="#DejaVuSans-33" x="259.382812"/>
    </g>
   </g>
   <g id="text_26">
    <!-- D:23.31 -->
    <g transform="translate(906.838858 1078.672402) scale(0.04 -0.04)">
     <defs>
      <path id="DejaVuSans-32" d="M 1228 531 
L 3431 531 
L 3431 0 
L 469 0 
L 469 531 
Q 828 903 1448 1529 
Q 2069 2156 2228 2338 
Q 2531 2678 2651 2914 
Q 2772 3150 2772 3378 
Q 2772 3750 2511 3984 
Q 2250 4219 1831 4219 
Q 1534 4219 1204 4116 
Q 875 4013 500 3803 
L 500 4441 
Q 881 4594 1212 4672 
Q 1544 4750 1819 4750 
Q 2544 4750 2975 4387 
Q 3406 4025 3406 3419 
Q 3406 3131 3298 2873 
Q 3191 2616 2906 2266 
Q 2828 2175 2409 1742 
Q 1991 1309 1228 531 
z
" transform="scale(0.015625)"/>
     </defs>
     <use xlink:href="#DejaVuSans-44"/>
     <use xlink:href="#DejaVuSans-3a" x="77.001953"/>
     <use xlink:href="#DejaVuSans-32" x="110.693359"/>
     <use xlink:href="#DejaVuSans-33" x="174.316406"/>
     <use xlink:href="#DejaVuSans-2e" x="237.939453"/>
     <use xlink:href="#DejaVuSans-33" x="269.726562"/>
     <use xlink:href="#DejaVuSans-31" x="333.349609"/>
    </g>
    <!-- A:2.07 -->
    <g transform="translate(906.838858 1083.151527) scale(0.04 -0.04)">
     <defs>
      <path id="DejaVuSans-37" d="M 525 4666 
L 3525 4666 
L 3525 4397 
L 1831 0 
L 1172 0 
L 2766 4134 
L 525 4134 
L 525 4666 
z
" transform="scale(0.015625)"/>
     </defs>
     <use xlink:href="#DejaVuSans-41"/>
     <use xlink:href="#DejaVuSans-3a" x="66.658203"/>
     <use xlink:href="#DejaVuSans-32" x="100.349609"/>
     <use xlink:href="#DejaVuSans-2e" x="163.972656"/>
     <use xlink:href="#DejaVuSans-30" x="195.759766"/>
     <use xlink:href="#DejaVuSans-37" x="259.382812"/>
    </g>
   </g>
   <g id="text_27">
    <!-- A:2.07 -->
    <g transform="translate(906.838858 1083.151527) scale(0.04 -0.04)">
     <use xlink:href="#DejaVuSans-41"/>
     <use xlink:href="#DejaVuSans-3a" x="66.658203"/>
     <use xlink:href="#DejaVuSans-32" x="100.349609"/>
     <use xlink:href="#DejaVuSans-2e" x="163.972656"/>
     <use xlink:href="#DejaVuSans-30" x="195.759766"/>
     <use xlink:href="#DejaVuSans-37" x="259.382812"/>
    </g>
   </g>
   <g id="text_28">
    <!-- A:4.88 -->
    <g transform="translate(829.761224 1150.720305) scale(0.04 -0.04)">
     <defs>
      <path id="DejaVuSans-34" d="M 2419 4116 
L 825 1625 
L 2419 1625 
L 2419 4116 
z
M 2253 4666 
L 3047 4666 
L 3047 1625 
L 3713 1625 
L 3713 1100 
L 3047 1100 
L 3047 0 
L 2419 0 
L 2419 1100 
L 313 1100 
L 313 1709 
L 2253 4666 
z
" transform="scale(0.015625)"/>
     </defs>
     <use xlink:href="#DejaVuSans-41"/>
     <use xlink:href="#DejaVuSans-3a" x="66.658203"/>
     <use xlink:href="#DejaVuSans-34" x="100.349609"/>
     <use xlink:href="#DejaVuSans-2e" x="163.972656"/>
     <use xlink:href="#DejaVuSans-38" x="195.759766"/>
     <use xlink:href="#DejaVuSans-38" x="259.382812"/>
    </g>
   </g>
   <g id="text_29">
    <!-- A:6.70 -->
    <g transform="translate(874.512783 1142.802975) scale(0.04 -0.04)">
     <defs>
      <path id="DejaVuSans-36" d="M 2113 2584 
Q 1688 2584 1439 2293 
Q 1191 2003 1191 1497 
Q 1191 994 1439 701 
Q 1688 409 2113 409 
Q 2538 409 2786 701 
Q 3034 994 3034 1497 
Q 3034 2003 2786 2293 
Q 2538 2584 2113 2584 
z
M 3366 4563 
L 3366 3988 
Q 3128 4100 2886 4159 
Q 2644 4219 2406 4219 
Q 1781 4219 1451 3797 
Q 1122 3375 1075 2522 
Q 1259 2794 1537 2939 
Q 1816 3084 2150 3084 
Q 2853 3084 3261 2657 
Q 3669 2231 3669 1497 
Q 3669 778 3244 343 
Q 2819 -91 2113 -91 
Q 1303 -91 875 529 
Q 447 1150 447 2328 
Q 447 3434 972 4092 
Q 1497 4750 2381 4750 
Q 2619 4750 2861 4703 
Q 3103 4656 3366 4563 
z
" transform="scale(0.015625)"/>
     </defs>
     <use xlink:href="#DejaVuSans-41"/>
     <use xlink:href="#DejaVuSans-3a" x="66.658203"/>
     <use xlink:href="#DejaVuSans-36" x="100.349609"/>
     <use xlink:href="#DejaVuSans-2e" x="163.972656"/>
     <use xlink:href="#DejaVuSans-37" x="195.759766"/>
     <use xlink:href="#DejaVuSans-30" x="259.382812"/>
    </g>
   </g>
   <g id="text_30">
    <!-- A:7.85 -->
    <g transform="translate(895.608248 1165.754021) scale(0.04 -0.04)">
     <use xlink:href="#DejaVuSans-41"/>
     <use xlink:href="#DejaVuSans-3a" x="66.658203"/>
     <use xlink:href="#DejaVuSans-37" x="100.349609"/>
     <use xlink:href="#DejaVuSans-2e" x="163.972656"/>
     <use xlink:href="#DejaVuSans-38" x="195.759766"/>
     <use xlink:href="#DejaVuSans-35" x="259.382812"/>
    </g>
   </g>
   <g id="text_31">
    <!-- A:3.78 -->
    <g transform="translate(896.419975 1035.850099) scale(0.04 -0.04)">
     <use xlink:href="#DejaVuSans-41"/>
     <use xlink:href="#DejaVuSans-3a" x="66.658203"/>
     <use xlink:href="#DejaVuSans-33" x="100.349609"/>
     <use xlink:href="#DejaVuSans-2e" x="163.972656"/>
     <use xlink:href="#DejaVuSans-37" x="195.759766"/>
     <use xlink:href="#DejaVuSans-38" x="259.382812"/>
    </g>
   </g>
   <g id="text_32">
    <!-- A:14.04 -->
    <g transform="translate(819.342341 1103.418878) scale(0.04 -0.04)">
     <use xlink:href="#DejaVuSans-41"/>
     <use xlink:href="#DejaVuSans-3a" x="66.658203"/>
     <use xlink:href="#DejaVuSans-31" x="100.349609"/>
     <use xlink:href="#DejaVuSans-34" x="163.972656"/>
     <use xlink:href="#DejaVuSans-2e" x="227.595703"/>
     <use xlink:href="#DejaVuSans-30" x="259.382812"/>
     <use xlink:href="#DejaVuSans-34" x="323.005859"/>
    </g>
   </g>
   <g id="text_33">
    <!-- A:5.86 -->
    <g transform="translate(864.0939 1095.501547) scale(0.04 -0.04)">
     <use xlink:href="#DejaVuSans-41"/>
     <use xlink:href="#DejaVuSans-3a" x="66.658203"/>
     <use xlink:href="#DejaVuSans-35" x="100.349609"/>
     <use xlink:href="#DejaVuSans-2e" x="163.972656"/>
     <use xlink:href="#DejaVuSans-38" x="195.759766"/>
     <use xlink:href="#DejaVuSans-36" x="259.382812"/>
    </g>
   </g>
   <g id="text_34">
    <!-- D:0.00 -->
    <g transform="translate(812.111921 1059.147575) scale(0.04 -0.04)">
     <use xlink:href="#DejaVuSans-44"/>
     <use xlink:href="#DejaVuSans-3a" x="77.001953"/>
     <use xlink:href="#DejaVuSans-30" x="110.693359"/>
     <use xlink:href="#DejaVuSans-2e" x="174.316406"/>
     <use xlink:href="#DejaVuSans-30" x="206.103516"/>
     <use xlink:href="#DejaVuSans-30" x="269.726562"/>
    </g>
    <!-- A:0.00 -->
    <g transform="translate(812.111921 1063.6267) scale(0.04 -0.04)">
     <use xlink:href="#DejaVuSans-41"/>
     <use xlink:href="#DejaVuSans-3a" x="66.658203"/>
     <use xlink:href="#DejaVuSans-30" x="100.349609"/>
     <use xlink:href="#DejaVuSans-2e" x="163.972656"/>
     <use xlink:href="#DejaVuSans-30" x="195.759766"/>
     <use xlink:href="#DejaVuSans-30" x="259.382812"/>
    </g>
   </g>
   <g id="text_35">
    <!-- A:0.00 -->
    <g transform="translate(812.111921 1063.6267) scale(0.04 -0.04)">
     <use xlink:href="#DejaVuSans-41"/>
     <use xlink:href="#DejaVuSans-3a" x="66.658203"/>
     <use xlink:href="#DejaVuSans-30" x="100.349609"/>
     <use xlink:href="#DejaVuSans-2e" x="163.972656"/>
     <use xlink:href="#DejaVuSans-30" x="195.759766"/>
     <use xlink:href="#DejaVuSans-30" x="259.382812"/>
    </g>
   </g>
   <g id="text_36">
    <!-- A:7.49 -->
    <g transform="translate(872.188326 950.524093) scale(0.04 -0.04)">
     <use xlink:href="#DejaVuSans-41"/>
     <use xlink:href="#DejaVuSans-3a" x="66.658203"/>
     <use xlink:href="#DejaVuSans-37" x="100.349609"/>
     <use xlink:href="#DejaVuSans-2e" x="163.972656"/>
     <use xlink:href="#DejaVuSans-34" x="195.759766"/>
     <use xlink:href="#DejaVuSans-39" x="259.382812"/>
    </g>
   </g>
   <g id="text_37">
    <!-- D:1.09 -->
    <g transform="translate(952.78141 923.216692) scale(0.04 -0.04)">
     <use xlink:href="#DejaVuSans-44"/>
     <use xlink:href="#DejaVuSans-3a" x="77.001953"/>
     <use xlink:href="#DejaVuSans-31" x="110.693359"/>
     <use xlink:href="#DejaVuSans-2e" x="174.316406"/>
     <use xlink:href="#DejaVuSans-30" x="206.103516"/>
     <use xlink:href="#DejaVuSans-39" x="269.726562"/>
    </g>
    <!-- A:2.86 -->
    <g transform="translate(952.78141 927.695817) scale(0.04 -0.04)">
     <use xlink:href="#DejaVuSans-41"/>
     <use xlink:href="#DejaVuSans-3a" x="66.658203"/>
     <use xlink:href="#DejaVuSans-32" x="100.349609"/>
     <use xlink:href="#DejaVuSans-2e" x="163.972656"/>
     <use xlink:href="#DejaVuSans-38" x="195.759766"/>
     <use xlink:href="#DejaVuSans-36" x="259.382812"/>
    </g>
   </g>
   <g id="text_38">
    <!-- A:2.86 -->
    <g transform="translate(952.78141 927.695817) scale(0.04 -0.04)">
     <use xlink:href="#DejaVuSans-41"/>
     <use xlink:href="#DejaVuSans-3a" x="66.658203"/>
     <use xlink:href="#DejaVuSans-32" x="100.349609"/>
     <use xlink:href="#DejaVuSans-2e" x="163.972656"/>
     <use xlink:href="#DejaVuSans-38" x="195.759766"/>
     <use xlink:href="#DejaVuSans-36" x="259.382812"/>
    </g>
   </g>
   <g id="text_39">
    <!-- D:3.11 -->
    <g transform="translate(941.159288 921.100824) scale(0.04 -0.04)">
     <use xlink:href="#DejaVuSans-44"/>
     <use xlink:href="#DejaVuSans-3a" x="77.001953"/>
     <use xlink:href="#DejaVuSans-33" x="110.693359"/>
     <use xlink:href="#DejaVuSans-2e" x="174.316406"/>
     <use xlink:href="#DejaVuSans-31" x="206.103516"/>
     <use xlink:href="#DejaVuSans-31" x="269.726562"/>
    </g>
    <!-- A:4.02 -->
    <g transform="translate(941.159288 925.579949) scale(0.04 -0.04)">
     <use xlink:href="#DejaVuSans-41"/>
     <use xlink:href="#DejaVuSans-3a" x="66.658203"/>
     <use xlink:href="#DejaVuSans-34" x="100.349609"/>
     <use xlink:href="#DejaVuSans-2e" x="163.972656"/>
     <use xlink:href="#DejaVuSans-30" x="195.759766"/>
     <use xlink:href="#DejaVuSans-32" x="259.382812"/>
    </g>
   </g>
   <g id="text_40">
    <!-- A:4.02 -->
    <g transform="translate(941.159288 925.579949) scale(0.04 -0.04)">
     <use xlink:href="#DejaVuSans-41"/>
     <use xlink:href="#DejaVuSans-3a" x="66.658203"/>
     <use xlink:href="#DejaVuSans-34" x="100.349609"/>
     <use xlink:href="#DejaVuSans-2e" x="163.972656"/>
     <use xlink:href="#DejaVuSans-30" x="195.759766"/>
     <use xlink:href="#DejaVuSans-32" x="259.382812"/>
    </g>
   </g>
   <g id="text_41">
    <!-- A:8.59 -->
    <g transform="translate(917.300732 1047.930939) scale(0.04 -0.04)">
     <use xlink:href="#DejaVuSans-41"/>
     <use xlink:href="#DejaVuSans-3a" x="66.658203"/>
     <use xlink:href="#DejaVuSans-38" x="100.349609"/>
     <use xlink:href="#DejaVuSans-2e" x="163.972656"/>
     <use xlink:href="#DejaVuSans-35" x="195.759766"/>
     <use xlink:href="#DejaVuSans-39" x="259.382812"/>
    </g>
   </g>
   <g id="text_42">
    <!-- D:9.79 -->
    <g transform="translate(865.318753 1011.576967) scale(0.04 -0.04)">
     <use xlink:href="#DejaVuSans-44"/>
     <use xlink:href="#DejaVuSans-3a" x="77.001953"/>
     <use xlink:href="#DejaVuSans-39" x="110.693359"/>
     <use xlink:href="#DejaVuSans-2e" x="174.316406"/>
     <use xlink:href="#DejaVuSans-37" x="206.103516"/>
     <use xlink:href="#DejaVuSans-39" x="269.726562"/>
    </g>
    <!-- A:10.13 -->
    <g transform="translate(865.318753 1016.056092) scale(0.04 -0.04)">
     <use xlink:href="#DejaVuSans-41"/>
     <use xlink:href="#DejaVuSans-3a" x="66.658203"/>
     <use xlink:href="#DejaVuSans-31" x="100.349609"/>
     <use xlink:href="#DejaVuSans-30" x="163.972656"/>
     <use xlink:href="#DejaVuSans-2e" x="227.595703"/>
     <use xlink:href="#DejaVuSans-31" x="259.382812"/>
     <use xlink:href="#DejaVuSans-33" x="323.005859"/>
    </g>
   </g>
   <g id="text_43">
    <!-- A:10.13 -->
    <g transform="translate(865.318753 1016.056092) scale(0.04 -0.04)">
     <use xlink:href="#DejaVuSans-41"/>
     <use xlink:href="#DejaVuSans-3a" x="66.658203"/>
     <use xlink:href="#DejaVuSans-31" x="100.349609"/>
     <use xlink:href="#DejaVuSans-30" x="163.972656"/>
     <use xlink:href="#DejaVuSans-2e" x="227.595703"/>
     <use xlink:href="#DejaVuSans-31" x="259.382812"/>
     <use xlink:href="#DejaVuSans-33" x="323.005859"/>
    </g>
   </g>
   <g id="text_44">
    <!-- A:1.14 -->
    <g transform="translate(947.481947 927.632883) scale(0.04 -0.04)">
     <use xlink:href="#DejaVuSans-41"/>
     <use xlink:href="#DejaVuSans-3a" x="66.658203"/>
     <use xlink:href="#DejaVuSans-31" x="100.349609"/>
     <use xlink:href="#DejaVuSans-2e" x="163.972656"/>
     <use xlink:href="#DejaVuSans-31" x="195.759766"/>
     <use xlink:href="#DejaVuSans-34" x="259.382812"/>
    </g>
   </g>
   <g id="text_45">
    <!-- D:28.08 -->
    <g transform="translate(938.396197 1066.40286) scale(0.04 -0.04)">
     <use xlink:href="#DejaVuSans-44"/>
     <use xlink:href="#DejaVuSans-3a" x="77.001953"/>
     <use xlink:href="#DejaVuSans-32" x="110.693359"/>
     <use xlink:href="#DejaVuSans-38" x="174.316406"/>
     <use xlink:href="#DejaVuSans-2e" x="237.939453"/>
     <use xlink:href="#DejaVuSans-30" x="269.726562"/>
     <use xlink:href="#DejaVuSans-38" x="333.349609"/>
    </g>
    <!-- A:2.92 -->
    <g transform="translate(938.396197 1070.881985) scale(0.04 -0.04)">
     <use xlink:href="#DejaVuSans-41"/>
     <use xlink:href="#DejaVuSans-3a" x="66.658203"/>
     <use xlink:href="#DejaVuSans-32" x="100.349609"/>
     <use xlink:href="#DejaVuSans-2e" x="163.972656"/>
     <use xlink:href="#DejaVuSans-39" x="195.759766"/>
     <use xlink:href="#DejaVuSans-32" x="259.382812"/>
    </g>
   </g>
   <g id="text_46">
    <!-- A:2.92 -->
    <g transform="translate(938.396197 1070.881985) scale(0.04 -0.04)">
     <use xlink:href="#DejaVuSans-41"/>
     <use xlink:href="#DejaVuSans-3a" x="66.658203"/>
     <use xlink:href="#DejaVuSans-32" x="100.349609"/>
     <use xlink:href="#DejaVuSans-2e" x="163.972656"/>
     <use xlink:href="#DejaVuSans-39" x="195.759766"/>
     <use xlink:href="#DejaVuSans-32" x="259.382812"/>
    </g>
   </g>
   <g id="text_47">
    <!-- A:4.52 -->
    <g transform="translate(918.444115 915.856776) scale(0.04 -0.04)">
     <use xlink:href="#DejaVuSans-41"/>
     <use xlink:href="#DejaVuSans-3a" x="66.658203"/>
     <use xlink:href="#DejaVuSans-34" x="100.349609"/>
     <use xlink:href="#DejaVuSans-2e" x="163.972656"/>
     <use xlink:href="#DejaVuSans-35" x="195.759766"/>
     <use xlink:href="#DejaVuSans-32" x="259.382812"/>
    </g>
   </g>
   <g id="text_48">
    <!-- A:8.49 -->
    <g transform="translate(574.528301 771.902364) scale(0.04 -0.04)">
     <use xlink:href="#DejaVuSans-41"/>
     <use xlink:href="#DejaVuSans-3a" x="66.658203"/>
     <use xlink:href="#DejaVuSans-38" x="100.349609"/>
     <use xlink:href="#DejaVuSans-2e" x="163.972656"/>
     <use xlink:href="#DejaVuSans-34" x="195.759766"/>
     <use xlink:href="#DejaVuSans-39" x="259.382812"/>
    </g>
   </g>
   <g id="text_49">
    <!-- D:13.46 -->
    <g transform="translate(541.107673 716.053877) scale(0.04 -0.04)">
     <use xlink:href="#DejaVuSans-44"/>
     <use xlink:href="#DejaVuSans-3a" x="77.001953"/>
     <use xlink:href="#DejaVuSans-31" x="110.693359"/>
     <use xlink:href="#DejaVuSans-33" x="174.316406"/>
     <use xlink:href="#DejaVuSans-2e" x="237.939453"/>
     <use xlink:href="#DejaVuSans-34" x="269.726562"/>
     <use xlink:href="#DejaVuSans-36" x="333.349609"/>
    </g>
    <!-- A:8.69 -->
    <g transform="translate(541.107673 720.533002) scale(0.04 -0.04)">
     <use xlink:href="#DejaVuSans-41"/>
     <use xlink:href="#DejaVuSans-3a" x="66.658203"/>
     <use xlink:href="#DejaVuSans-38" x="100.349609"/>
     <use xlink:href="#DejaVuSans-2e" x="163.972656"/>
     <use xlink:href="#DejaVuSans-36" x="195.759766"/>
     <use xlink:href="#DejaVuSans-39" x="259.382812"/>
    </g>
   </g>
   <g id="text_50">
    <!-- A:8.69 -->
    <g transform="translate(541.107673 720.533002) scale(0.04 -0.04)">
     <use xlink:href="#DejaVuSans-41"/>
     <use xlink:href="#DejaVuSans-3a" x="66.658203"/>
     <use xlink:href="#DejaVuSans-38" x="100.349609"/>
     <use xlink:href="#DejaVuSans-2e" x="163.972656"/>
     <use xlink:href="#DejaVuSans-36" x="195.759766"/>
     <use xlink:href="#DejaVuSans-39" x="259.382812"/>
    </g>
   </g>
   <g id="text_51">
    <!-- D:0.04 -->
    <g transform="translate(585.404434 363.972771) scale(0.04 -0.04)">
     <use xlink:href="#DejaVuSans-44"/>
     <use xlink:href="#DejaVuSans-3a" x="77.001953"/>
     <use xlink:href="#DejaVuSans-30" x="110.693359"/>
     <use xlink:href="#DejaVuSans-2e" x="174.316406"/>
     <use xlink:href="#DejaVuSans-30" x="206.103516"/>
     <use xlink:href="#DejaVuSans-34" x="269.726562"/>
    </g>
    <!-- A:0.85 -->
    <g transform="translate(585.404434 368.451896) scale(0.04 -0.04)">
     <use xlink:href="#DejaVuSans-41"/>
     <use xlink:href="#DejaVuSans-3a" x="66.658203"/>
     <use xlink:href="#DejaVuSans-30" x="100.349609"/>
     <use xlink:href="#DejaVuSans-2e" x="163.972656"/>
     <use xlink:href="#DejaVuSans-38" x="195.759766"/>
     <use xlink:href="#DejaVuSans-35" x="259.382812"/>
    </g>
   </g>
   <g id="text_52">
    <!-- A:0.85 -->
    <g transform="translate(585.404434 368.451896) scale(0.04 -0.04)">
     <use xlink:href="#DejaVuSans-41"/>
     <use xlink:href="#DejaVuSans-3a" x="66.658203"/>
     <use xlink:href="#DejaVuSans-30" x="100.349609"/>
     <use xlink:href="#DejaVuSans-2e" x="163.972656"/>
     <use xlink:href="#DejaVuSans-38" x="195.759766"/>
     <use xlink:href="#DejaVuSans-35" x="259.382812"/>
    </g>
   </g>
   <g id="text_53">
    <!-- A:2.08 -->
    <g transform="translate(788.241119 1083.624871) scale(0.04 -0.04)">
     <use xlink:href="#DejaVuSans-41"/>
     <use xlink:href="#DejaVuSans-3a" x="66.658203"/>
     <use xlink:href="#DejaVuSans-32" x="100.349609"/>
     <use xlink:href="#DejaVuSans-2e" x="163.972656"/>
     <use xlink:href="#DejaVuSans-30" x="195.759766"/>
     <use xlink:href="#DejaVuSans-38" x="259.382812"/>
    </g>
   </g>
   <g id="text_54">
    <!-- A:0.17 -->
    <g transform="translate(764.5579 946.070988) scale(0.04 -0.04)">
     <use xlink:href="#DejaVuSans-41"/>
     <use xlink:href="#DejaVuSans-3a" x="66.658203"/>
     <use xlink:href="#DejaVuSans-30" x="100.349609"/>
     <use xlink:href="#DejaVuSans-2e" x="163.972656"/>
     <use xlink:href="#DejaVuSans-31" x="195.759766"/>
     <use xlink:href="#DejaVuSans-37" x="259.382812"/>
    </g>
   </g>
   <g id="text_55">
    <!-- D:27.70 -->
    <g transform="translate(749.756468 895.320004) scale(0.04 -0.04)">
     <use xlink:href="#DejaVuSans-44"/>
     <use xlink:href="#DejaVuSans-3a" x="77.001953"/>
     <use xlink:href="#DejaVuSans-32" x="110.693359"/>
     <use xlink:href="#DejaVuSans-37" x="174.316406"/>
     <use xlink:href="#DejaVuSans-2e" x="237.939453"/>
     <use xlink:href="#DejaVuSans-37" x="269.726562"/>
     <use xlink:href="#DejaVuSans-30" x="333.349609"/>
    </g>
    <!-- A:8.85 -->
    <g transform="translate(749.756468 899.799129) scale(0.04 -0.04)">
     <use xlink:href="#DejaVuSans-41"/>
     <use xlink:href="#DejaVuSans-3a" x="66.658203"/>
     <use xlink:href="#DejaVuSans-38" x="100.349609"/>
     <use xlink:href="#DejaVuSans-2e" x="163.972656"/>
     <use xlink:href="#DejaVuSans-38" x="195.759766"/>
     <use xlink:href="#DejaVuSans-35" x="259.382812"/>
    </g>
   </g>
   <g id="text_56">
    <!-- A:8.85 -->
    <g transform="translate(749.756468 899.799129) scale(0.04 -0.04)">
     <use xlink:href="#DejaVuSans-41"/>
     <use xlink:href="#DejaVuSans-3a" x="66.658203"/>
     <use xlink:href="#DejaVuSans-38" x="100.349609"/>
     <use xlink:href="#DejaVuSans-2e" x="163.972656"/>
     <use xlink:href="#DejaVuSans-38" x="195.759766"/>
     <use xlink:href="#DejaVuSans-35" x="259.382812"/>
    </g>
   </g>
   <g id="text_57">
    <!-- D:28.20 -->
    <g transform="translate(787.880273 973.821569) scale(0.04 -0.04)">
     <use xlink:href="#DejaVuSans-44"/>
     <use xlink:href="#DejaVuSans-3a" x="77.001953"/>
     <use xlink:href="#DejaVuSans-32" x="110.693359"/>
     <use xlink:href="#DejaVuSans-38" x="174.316406"/>
     <use xlink:href="#DejaVuSans-2e" x="237.939453"/>
     <use xlink:href="#DejaVuSans-32" x="269.726562"/>
     <use xlink:href="#DejaVuSans-30" x="333.349609"/>
    </g>
    <!-- A:5.53 -->
    <g transform="translate(787.880273 978.300694) scale(0.04 -0.04)">
     <use xlink:href="#DejaVuSans-41"/>
     <use xlink:href="#DejaVuSans-3a" x="66.658203"/>
     <use xlink:href="#DejaVuSans-35" x="100.349609"/>
     <use xlink:href="#DejaVuSans-2e" x="163.972656"/>
     <use xlink:href="#DejaVuSans-35" x="195.759766"/>
     <use xlink:href="#DejaVuSans-33" x="259.382812"/>
    </g>
   </g>
   <g id="text_58">
    <!-- A:5.53 -->
    <g transform="translate(787.880273 978.300694) scale(0.04 -0.04)">
     <use xlink:href="#DejaVuSans-41"/>
     <use xlink:href="#DejaVuSans-3a" x="66.658203"/>
     <use xlink:href="#DejaVuSans-35" x="100.349609"/>
     <use xlink:href="#DejaVuSans-2e" x="163.972656"/>
     <use xlink:href="#DejaVuSans-35" x="195.759766"/>
     <use xlink:href="#DejaVuSans-33" x="259.382812"/>
    </g>
   </g>
   <g id="text_59">
    <!-- D:16.86 -->
    <g transform="translate(841.005634 873.622252) scale(0.04 -0.04)">
     <use xlink:href="#DejaVuSans-44"/>
     <use xlink:href="#DejaVuSans-3a" x="77.001953"/>
     <use xlink:href="#DejaVuSans-31" x="110.693359"/>
     <use xlink:href="#DejaVuSans-36" x="174.316406"/>
     <use xlink:href="#DejaVuSans-2e" x="237.939453"/>
     <use xlink:href="#DejaVuSans-38" x="269.726562"/>
     <use xlink:href="#DejaVuSans-36" x="333.349609"/>
    </g>
    <!-- A:1.76 -->
    <g transform="translate(841.005634 878.101377) scale(0.04 -0.04)">
     <use xlink:href="#DejaVuSans-41"/>
     <use xlink:href="#DejaVuSans-3a" x="66.658203"/>
     <use xlink:href="#DejaVuSans-31" x="100.349609"/>
     <use xlink:href="#DejaVuSans-2e" x="163.972656"/>
     <use xlink:href="#DejaVuSans-37" x="195.759766"/>
     <use xlink:href="#DejaVuSans-36" x="259.382812"/>
    </g>
   </g>
   <g id="text_60">
    <!-- A:1.76 -->
    <g transform="translate(841.005634 878.101377) scale(0.04 -0.04)">
     <use xlink:href="#DejaVuSans-41"/>
     <use xlink:href="#DejaVuSans-3a" x="66.658203"/>
     <use xlink:href="#DejaVuSans-31" x="100.349609"/>
     <use xlink:href="#DejaVuSans-2e" x="163.972656"/>
     <use xlink:href="#DejaVuSans-37" x="195.759766"/>
     <use xlink:href="#DejaVuSans-36" x="259.382812"/>
    </g>
   </g>
   <g id="text_61">
    <!-- D:0.10 -->
    <g transform="translate(664.724715 855.672057) scale(0.04 -0.04)">
     <use xlink:href="#DejaVuSans-44"/>
     <use xlink:href="#DejaVuSans-3a" x="77.001953"/>
     <use xlink:href="#DejaVuSans-30" x="110.693359"/>
     <use xlink:href="#DejaVuSans-2e" x="174.316406"/>
     <use xlink:href="#DejaVuSans-31" x="206.103516"/>
     <use xlink:href="#DejaVuSans-30" x="269.726562"/>
    </g>
    <!-- A:0.64 -->
    <g transform="translate(664.724715 860.151182) scale(0.04 -0.04)">
     <use xlink:href="#DejaVuSans-41"/>
     <use xlink:href="#DejaVuSans-3a" x="66.658203"/>
     <use xlink:href="#DejaVuSans-30" x="100.349609"/>
     <use xlink:href="#DejaVuSans-2e" x="163.972656"/>
     <use xlink:href="#DejaVuSans-36" x="195.759766"/>
     <use xlink:href="#DejaVuSans-34" x="259.382812"/>
    </g>
   </g>
   <g id="text_62">
    <!-- A:0.64 -->
    <g transform="translate(664.724715 860.151182) scale(0.04 -0.04)">
     <use xlink:href="#DejaVuSans-41"/>
     <use xlink:href="#DejaVuSans-3a" x="66.658203"/>
     <use xlink:href="#DejaVuSans-30" x="100.349609"/>
     <use xlink:href="#DejaVuSans-2e" x="163.972656"/>
     <use xlink:href="#DejaVuSans-36" x="195.759766"/>
     <use xlink:href="#DejaVuSans-34" x="259.382812"/>
    </g>
   </g>
   <g id="text_63">
    <!-- A:0.00 -->
    <g transform="translate(687.999834 882.640123) scale(0.04 -0.04)">
     <use xlink:href="#DejaVuSans-41"/>
     <use xlink:href="#DejaVuSans-3a" x="66.658203"/>
     <use xlink:href="#DejaVuSans-30" x="100.349609"/>
     <use xlink:href="#DejaVuSans-2e" x="163.972656"/>
     <use xlink:href="#DejaVuSans-30" x="195.759766"/>
     <use xlink:href="#DejaVuSans-30" x="259.382812"/>
    </g>
   </g>
   <g id="text_64">
    <!-- A:14.04 -->
    <g transform="translate(757.688327 1011.602987) scale(0.04 -0.04)">
     <use xlink:href="#DejaVuSans-41"/>
     <use xlink:href="#DejaVuSans-3a" x="66.658203"/>
     <use xlink:href="#DejaVuSans-31" x="100.349609"/>
     <use xlink:href="#DejaVuSans-34" x="163.972656"/>
     <use xlink:href="#DejaVuSans-2e" x="227.595703"/>
     <use xlink:href="#DejaVuSans-30" x="259.382812"/>
     <use xlink:href="#DejaVuSans-34" x="323.005859"/>
    </g>
   </g>
   <g id="text_65">
    <!-- D:0.02 -->
    <g transform="translate(950.63655 862.570083) scale(0.04 -0.04)">
     <use xlink:href="#DejaVuSans-44"/>
     <use xlink:href="#DejaVuSans-3a" x="77.001953"/>
     <use xlink:href="#DejaVuSans-30" x="110.693359"/>
     <use xlink:href="#DejaVuSans-2e" x="174.316406"/>
     <use xlink:href="#DejaVuSans-30" x="206.103516"/>
     <use xlink:href="#DejaVuSans-32" x="269.726562"/>
    </g>
    <!-- A:0.38 -->
    <g transform="translate(950.63655 867.049208) scale(0.04 -0.04)">
     <use xlink:href="#DejaVuSans-41"/>
     <use xlink:href="#DejaVuSans-3a" x="66.658203"/>
     <use xlink:href="#DejaVuSans-30" x="100.349609"/>
     <use xlink:href="#DejaVuSans-2e" x="163.972656"/>
     <use xlink:href="#DejaVuSans-33" x="195.759766"/>
     <use xlink:href="#DejaVuSans-38" x="259.382812"/>
    </g>
   </g>
   <g id="text_66">
    <!-- A:0.38 -->
    <g transform="translate(950.63655 867.049208) scale(0.04 -0.04)">
     <use xlink:href="#DejaVuSans-41"/>
     <use xlink:href="#DejaVuSans-3a" x="66.658203"/>
     <use xlink:href="#DejaVuSans-30" x="100.349609"/>
     <use xlink:href="#DejaVuSans-2e" x="163.972656"/>
     <use xlink:href="#DejaVuSans-33" x="195.759766"/>
     <use xlink:href="#DejaVuSans-38" x="259.382812"/>
    </g>
   </g>
   <g id="text_67">
    <!-- D:0.19 -->
    <g transform="translate(573.381674 810.750791) scale(0.04 -0.04)">
     <use xlink:href="#DejaVuSans-44"/>
     <use xlink:href="#DejaVuSans-3a" x="77.001953"/>
     <use xlink:href="#DejaVuSans-30" x="110.693359"/>
     <use xlink:href="#DejaVuSans-2e" x="174.316406"/>
     <use xlink:href="#DejaVuSans-31" x="206.103516"/>
     <use xlink:href="#DejaVuSans-39" x="269.726562"/>
    </g>
    <!-- A:12.68 -->
    <g transform="translate(573.381674 815.229916) scale(0.04 -0.04)">
     <use xlink:href="#DejaVuSans-41"/>
     <use xlink:href="#DejaVuSans-3a" x="66.658203"/>
     <use xlink:href="#DejaVuSans-31" x="100.349609"/>
     <use xlink:href="#DejaVuSans-32" x="163.972656"/>
     <use xlink:href="#DejaVuSans-2e" x="227.595703"/>
     <use xlink:href="#DejaVuSans-36" x="259.382812"/>
     <use xlink:href="#DejaVuSans-38" x="323.005859"/>
    </g>
   </g>
   <g id="text_68">
    <!-- A:12.68 -->
    <g transform="translate(573.381674 815.229916) scale(0.04 -0.04)">
     <use xlink:href="#DejaVuSans-41"/>
     <use xlink:href="#DejaVuSans-3a" x="66.658203"/>
     <use xlink:href="#DejaVuSans-31" x="100.349609"/>
     <use xlink:href="#DejaVuSans-32" x="163.972656"/>
     <use xlink:href="#DejaVuSans-2e" x="227.595703"/>
     <use xlink:href="#DejaVuSans-36" x="259.382812"/>
     <use xlink:href="#DejaVuSans-38" x="323.005859"/>
    </g>
   </g>
   <g id="text_69">
    <!-- D:0.15 -->
    <g transform="translate(592.708134 798.900393) scale(0.04 -0.04)">
     <use xlink:href="#DejaVuSans-44"/>
     <use xlink:href="#DejaVuSans-3a" x="77.001953"/>
     <use xlink:href="#DejaVuSans-30" x="110.693359"/>
     <use xlink:href="#DejaVuSans-2e" x="174.316406"/>
     <use xlink:href="#DejaVuSans-31" x="206.103516"/>
     <use xlink:href="#DejaVuSans-35" x="269.726562"/>
    </g>
    <!-- A:11.40 -->
    <g transform="translate(592.708134 803.379518) scale(0.04 -0.04)">
     <use xlink:href="#DejaVuSans-41"/>
     <use xlink:href="#DejaVuSans-3a" x="66.658203"/>
     <use xlink:href="#DejaVuSans-31" x="100.349609"/>
     <use xlink:href="#DejaVuSans-31" x="163.972656"/>
     <use xlink:href="#DejaVuSans-2e" x="227.595703"/>
     <use xlink:href="#DejaVuSans-34" x="259.382812"/>
     <use xlink:href="#DejaVuSans-30" x="323.005859"/>
    </g>
   </g>
   <g id="text_70">
    <!-- A:11.40 -->
    <g transform="translate(592.708134 803.379518) scale(0.04 -0.04)">
     <use xlink:href="#DejaVuSans-41"/>
     <use xlink:href="#DejaVuSans-3a" x="66.658203"/>
     <use xlink:href="#DejaVuSans-31" x="100.349609"/>
     <use xlink:href="#DejaVuSans-31" x="163.972656"/>
     <use xlink:href="#DejaVuSans-2e" x="227.595703"/>
     <use xlink:href="#DejaVuSans-34" x="259.382812"/>
     <use xlink:href="#DejaVuSans-30" x="323.005859"/>
    </g>
   </g>
   <g id="text_71">
    <!-- D:0.05 -->
    <g transform="translate(533.247686 733.55738) scale(0.04 -0.04)">
     <use xlink:href="#DejaVuSans-44"/>
     <use xlink:href="#DejaVuSans-3a" x="77.001953"/>
     <use xlink:href="#DejaVuSans-30" x="110.693359"/>
     <use xlink:href="#DejaVuSans-2e" x="174.316406"/>
     <use xlink:href="#DejaVuSans-30" x="206.103516"/>
     <use xlink:href="#DejaVuSans-35" x="269.726562"/>
    </g>
    <!-- A:13.62 -->
    <g transform="translate(533.247686 738.036505) scale(0.04 -0.04)">
     <use xlink:href="#DejaVuSans-41"/>
     <use xlink:href="#DejaVuSans-3a" x="66.658203"/>
     <use xlink:href="#DejaVuSans-31" x="100.349609"/>
     <use xlink:href="#DejaVuSans-33" x="163.972656"/>
     <use xlink:href="#DejaVuSans-2e" x="227.595703"/>
     <use xlink:href="#DejaVuSans-36" x="259.382812"/>
     <use xlink:href="#DejaVuSans-32" x="323.005859"/>
    </g>
   </g>
   <g id="text_72">
    <!-- A:13.62 -->
    <g transform="translate(533.247686 738.036505) scale(0.04 -0.04)">
     <use xlink:href="#DejaVuSans-41"/>
     <use xlink:href="#DejaVuSans-3a" x="66.658203"/>
     <use xlink:href="#DejaVuSans-31" x="100.349609"/>
     <use xlink:href="#DejaVuSans-33" x="163.972656"/>
     <use xlink:href="#DejaVuSans-2e" x="227.595703"/>
     <use xlink:href="#DejaVuSans-36" x="259.382812"/>
     <use xlink:href="#DejaVuSans-32" x="323.005859"/>
    </g>
   </g>
   <g id="text_73">
    <!-- D:0.00 -->
    <g transform="translate(939.014428 860.454215) scale(0.04 -0.04)">
     <use xlink:href="#DejaVuSans-44"/>
     <use xlink:href="#DejaVuSans-3a" x="77.001953"/>
     <use xlink:href="#DejaVuSans-30" x="110.693359"/>
     <use xlink:href="#DejaVuSans-2e" x="174.316406"/>
     <use xlink:href="#DejaVuSans-30" x="206.103516"/>
     <use xlink:href="#DejaVuSans-30" x="269.726562"/>
    </g>
    <!-- A:0.25 -->
    <g transform="translate(939.014428 864.93334) scale(0.04 -0.04)">
     <use xlink:href="#DejaVuSans-41"/>
     <use xlink:href="#DejaVuSans-3a" x="66.658203"/>
     <use xlink:href="#DejaVuSans-30" x="100.349609"/>
     <use xlink:href="#DejaVuSans-2e" x="163.972656"/>
     <use xlink:href="#DejaVuSans-32" x="195.759766"/>
     <use xlink:href="#DejaVuSans-35" x="259.382812"/>
    </g>
   </g>
   <g id="text_74">
    <!-- A:0.25 -->
    <g transform="translate(939.014428 864.93334) scale(0.04 -0.04)">
     <use xlink:href="#DejaVuSans-41"/>
     <use xlink:href="#DejaVuSans-3a" x="66.658203"/>
     <use xlink:href="#DejaVuSans-30" x="100.349609"/>
     <use xlink:href="#DejaVuSans-2e" x="163.972656"/>
     <use xlink:href="#DejaVuSans-32" x="195.759766"/>
     <use xlink:href="#DejaVuSans-35" x="259.382812"/>
    </g>
   </g>
   <g id="text_75">
    <!-- D:0.24 -->
    <g transform="translate(909.976596 848.678108) scale(0.04 -0.04)">
     <use xlink:href="#DejaVuSans-44"/>
     <use xlink:href="#DejaVuSans-3a" x="77.001953"/>
     <use xlink:href="#DejaVuSans-30" x="110.693359"/>
     <use xlink:href="#DejaVuSans-2e" x="174.316406"/>
     <use xlink:href="#DejaVuSans-32" x="206.103516"/>
     <use xlink:href="#DejaVuSans-34" x="269.726562"/>
    </g>
    <!-- A:0.01 -->
    <g transform="translate(909.976596 853.157233) scale(0.04 -0.04)">
     <use xlink:href="#DejaVuSans-41"/>
     <use xlink:href="#DejaVuSans-3a" x="66.658203"/>
     <use xlink:href="#DejaVuSans-30" x="100.349609"/>
     <use xlink:href="#DejaVuSans-2e" x="163.972656"/>
     <use xlink:href="#DejaVuSans-30" x="195.759766"/>
     <use xlink:href="#DejaVuSans-31" x="259.382812"/>
    </g>
   </g>
   <g id="text_76">
    <!-- A:0.01 -->
    <g transform="translate(909.976596 853.157233) scale(0.04 -0.04)">
     <use xlink:href="#DejaVuSans-41"/>
     <use xlink:href="#DejaVuSans-3a" x="66.658203"/>
     <use xlink:href="#DejaVuSans-30" x="100.349609"/>
     <use xlink:href="#DejaVuSans-2e" x="163.972656"/>
     <use xlink:href="#DejaVuSans-30" x="195.759766"/>
     <use xlink:href="#DejaVuSans-31" x="259.382812"/>
    </g>
   </g>
   <g id="text_77">
    <!-- A:2.75 -->
    <g transform="translate(599.421495 829.203568) scale(0.04 -0.04)">
     <use xlink:href="#DejaVuSans-41"/>
     <use xlink:href="#DejaVuSans-3a" x="66.658203"/>
     <use xlink:href="#DejaVuSans-32" x="100.349609"/>
     <use xlink:href="#DejaVuSans-2e" x="163.972656"/>
     <use xlink:href="#DejaVuSans-37" x="195.759766"/>
     <use xlink:href="#DejaVuSans-35" x="259.382812"/>
    </g>
   </g>
   <g id="text_78">
    <!-- D:0.01 -->
    <g transform="translate(638.480405 825.1233) scale(0.04 -0.04)">
     <use xlink:href="#DejaVuSans-44"/>
     <use xlink:href="#DejaVuSans-3a" x="77.001953"/>
     <use xlink:href="#DejaVuSans-30" x="110.693359"/>
     <use xlink:href="#DejaVuSans-2e" x="174.316406"/>
     <use xlink:href="#DejaVuSans-30" x="206.103516"/>
     <use xlink:href="#DejaVuSans-31" x="269.726562"/>
    </g>
    <!-- A:11.83 -->
    <g transform="translate(638.480405 829.602425) scale(0.04 -0.04)">
     <use xlink:href="#DejaVuSans-41"/>
     <use xlink:href="#DejaVuSans-3a" x="66.658203"/>
     <use xlink:href="#DejaVuSans-31" x="100.349609"/>
     <use xlink:href="#DejaVuSans-31" x="163.972656"/>
     <use xlink:href="#DejaVuSans-2e" x="227.595703"/>
     <use xlink:href="#DejaVuSans-38" x="259.382812"/>
     <use xlink:href="#DejaVuSans-33" x="323.005859"/>
    </g>
   </g>
   <g id="text_79">
    <!-- A:11.83 -->
    <g transform="translate(638.480405 829.602425) scale(0.04 -0.04)">
     <use xlink:href="#DejaVuSans-41"/>
     <use xlink:href="#DejaVuSans-3a" x="66.658203"/>
     <use xlink:href="#DejaVuSans-31" x="100.349609"/>
     <use xlink:href="#DejaVuSans-31" x="163.972656"/>
     <use xlink:href="#DejaVuSans-2e" x="227.595703"/>
     <use xlink:href="#DejaVuSans-38" x="259.382812"/>
     <use xlink:href="#DejaVuSans-33" x="323.005859"/>
    </g>
   </g>
   <g id="text_80">
    <!-- A:0.03 -->
    <g transform="translate(536.937167 575.712343) scale(0.04 -0.04)">
     <use xlink:href="#DejaVuSans-41"/>
     <use xlink:href="#DejaVuSans-3a" x="66.658203"/>
     <use xlink:href="#DejaVuSans-30" x="100.349609"/>
     <use xlink:href="#DejaVuSans-2e" x="163.972656"/>
     <use xlink:href="#DejaVuSans-30" x="195.759766"/>
     <use xlink:href="#DejaVuSans-33" x="259.382812"/>
    </g>
   </g>
   <g id="text_81">
    <!-- Population Americas (n:23 k:74) -->
    <g transform="translate(641.612813 153.362625) scale(0.12 -0.12)">
     <defs>
      <path id="DejaVuSans-6f" d="M 1959 3097 
Q 1497 3097 1228 2736 
Q 959 2375 959 1747 
Q 959 1119 1226 758 
Q 1494 397 1959 397 
Q 2419 397 2687 759 
Q 2956 1122 2956 1747 
Q 2956 2369 2687 2733 
Q 2419 3097 1959 3097 
z
M 1959 3584 
Q 2709 3584 3137 3096 
Q 3566 2609 3566 1747 
Q 3566 888 3137 398 
Q 2709 -91 1959 -91 
Q 1206 -91 779 398 
Q 353 888 353 1747 
Q 353 2609 779 3096 
Q 1206 3584 1959 3584 
z
" transform="scale(0.015625)"/>
      <path id="DejaVuSans-70" d="M 1159 525 
L 1159 -1331 
L 581 -1331 
L 581 3500 
L 1159 3500 
L 1159 2969 
Q 1341 3281 1617 3432 
Q 1894 3584 2278 3584 
Q 2916 3584 3314 3078 
Q 3713 2572 3713 1747 
Q 3713 922 3314 415 
Q 2916 -91 2278 -91 
Q 1894 -91 1617 61 
Q 1341 213 1159 525 
z
M 3116 1747 
Q 3116 2381 2855 2742 
Q 2594 3103 2138 3103 
Q 1681 3103 1420 2742 
Q 1159 2381 1159 1747 
Q 1159 1113 1420 752 
Q 1681 391 2138 391 
Q 2594 391 2855 752 
Q 3116 1113 3116 1747 
z
" transform="scale(0.015625)"/>
      <path id="DejaVuSans-75" d="M 544 1381 
L 544 3500 
L 1119 3500 
L 1119 1403 
Q 1119 906 1312 657 
Q 1506 409 1894 409 
Q 2359 409 2629 706 
Q 2900 1003 2900 1516 
L 2900 3500 
L 3475 3500 
L 3475 0 
L 2900 0 
L 2900 538 
Q 2691 219 2414 64 
Q 2138 -91 1772 -91 
Q 1169 -91 856 284 
Q 544 659 544 1381 
z
M 1991 3584 
L 1991 3584 
z
" transform="scale(0.015625)"/>
      <path id="DejaVuSans-6c" d="M 603 4863 
L 1178 4863 
L 1178 0 
L 603 0 
L 603 4863 
z
" transform="scale(0.015625)"/>
      <path id="DejaVuSans-61" d="M 2194 1759 
Q 1497 1759 1228 1600 
Q 959 1441 959 1056 
Q 959 750 1161 570 
Q 1363 391 1709 391 
Q 2188 391 2477 730 
Q 2766 1069 2766 1631 
L 2766 1759 
L 2194 1759 
z
M 3341 1997 
L 3341 0 
L 2766 0 
L 2766 531 
Q 2569 213 2275 61 
Q 1981 -91 1556 -91 
Q 1019 -91 701 211 
Q 384 513 384 1019 
Q 384 1609 779 1909 
Q 1175 2209 1959 2209 
L 2766 2209 
L 2766 2266 
Q 2766 2663 2505 2880 
Q 2244 3097 1772 3097 
Q 1472 3097 1187 3025 
Q 903 2953 641 2809 
L 641 3341 
Q 956 3463 1253 3523 
Q 1550 3584 1831 3584 
Q 2591 3584 2966 3190 
Q 3341 2797 3341 1997 
z
" transform="scale(0.015625)"/>
      <path id="DejaVuSans-74" d="M 1172 4494 
L 1172 3500 
L 2356 3500 
L 2356 3053 
L 1172 3053 
L 1172 1153 
Q 1172 725 1289 603 
Q 1406 481 1766 481 
L 2356 481 
L 2356 0 
L 1766 0 
Q 1100 0 847 248 
Q 594 497 594 1153 
L 594 3053 
L 172 3053 
L 172 3500 
L 594 3500 
L 594 4494 
L 1172 4494 
z
" transform="scale(0.015625)"/>
      <path id="DejaVuSans-69" d="M 603 3500 
L 1178 3500 
L 1178 0 
L 603 0 
L 603 3500 
z
M 603 4863 
L 1178 4863 
L 1178 4134 
L 603 4134 
L 603 4863 
z
" transform="scale(0.015625)"/>
      <path id="DejaVuSans-6e" d="M 3513 2113 
L 3513 0 
L 2938 0 
L 2938 2094 
Q 2938 2591 2744 2837 
Q 2550 3084 2163 3084 
Q 1697 3084 1428 2787 
Q 1159 2491 1159 1978 
L 1159 0 
L 581 0 
L 581 3500 
L 1159 3500 
L 1159 2956 
Q 1366 3272 1645 3428 
Q 1925 3584 2291 3584 
Q 2894 3584 3203 3211 
Q 3513 2838 3513 2113 
z
" transform="scale(0.015625)"/>
      <path id="DejaVuSans-20" transform="scale(0.015625)"/>
      <path id="DejaVuSans-6d" d="M 3328 2828 
Q 3544 3216 3844 3400 
Q 4144 3584 4550 3584 
Q 5097 3584 5394 3201 
Q 5691 2819 5691 2113 
L 5691 0 
L 5113 0 
L 5113 2094 
Q 5113 2597 4934 2840 
Q 4756 3084 4391 3084 
Q 3944 3084 3684 2787 
Q 3425 2491 3425 1978 
L 3425 0 
L 2847 0 
L 2847 2094 
Q 2847 2600 2669 2842 
Q 2491 3084 2119 3084 
Q 1678 3084 1418 2786 
Q 1159 2488 1159 1978 
L 1159 0 
L 581 0 
L 581 3500 
L 1159 3500 
L 1159 2956 
Q 1356 3278 1631 3431 
Q 1906 3584 2284 3584 
Q 2666 3584 2933 3390 
Q 3200 3197 3328 2828 
z
" transform="scale(0.015625)"/>
      <path id="DejaVuSans-65" d="M 3597 1894 
L 3597 1613 
L 953 1613 
Q 991 1019 1311 708 
Q 1631 397 2203 397 
Q 2534 397 2845 478 
Q 3156 559 3463 722 
L 3463 178 
Q 3153 47 2828 -22 
Q 2503 -91 2169 -91 
Q 1331 -91 842 396 
Q 353 884 353 1716 
Q 353 2575 817 3079 
Q 1281 3584 2069 3584 
Q 2775 3584 3186 3129 
Q 3597 2675 3597 1894 
z
M 3022 2063 
Q 3016 2534 2758 2815 
Q 2500 3097 2075 3097 
Q 1594 3097 1305 2825 
Q 1016 2553 972 2059 
L 3022 2063 
z
" transform="scale(0.015625)"/>
      <path id="DejaVuSans-72" d="M 2631 2963 
Q 2534 3019 2420 3045 
Q 2306 3072 2169 3072 
Q 1681 3072 1420 2755 
Q 1159 2438 1159 1844 
L 1159 0 
L 581 0 
L 581 3500 
L 1159 3500 
L 1159 2956 
Q 1341 3275 1631 3429 
Q 1922 3584 2338 3584 
Q 2397 3584 2469 3576 
Q 2541 3569 2628 3553 
L 2631 2963 
z
" transform="scale(0.015625)"/>
      <path id="DejaVuSans-63" d="M 3122 3366 
L 3122 2828 
Q 2878 2963 2633 3030 
Q 2388 3097 2138 3097 
Q 1578 3097 1268 2742 
Q 959 2388 959 1747 
Q 959 1106 1268 751 
Q 1578 397 2138 397 
Q 2388 397 2633 464 
Q 2878 531 3122 666 
L 3122 134 
Q 2881 22 2623 -34 
Q 2366 -91 2075 -91 
Q 1284 -91 818 406 
Q 353 903 353 1747 
Q 353 2603 823 3093 
Q 1294 3584 2113 3584 
Q 2378 3584 2631 3529 
Q 2884 3475 3122 3366 
z
" transform="scale(0.015625)"/>
      <path id="DejaVuSans-73" d="M 2834 3397 
L 2834 2853 
Q 2591 2978 2328 3040 
Q 2066 3103 1784 3103 
Q 1356 3103 1142 2972 
Q 928 2841 928 2578 
Q 928 2378 1081 2264 
Q 1234 2150 1697 2047 
L 1894 2003 
Q 2506 1872 2764 1633 
Q 3022 1394 3022 966 
Q 3022 478 2636 193 
Q 2250 -91 1575 -91 
Q 1294 -91 989 -36 
Q 684 19 347 128 
L 347 722 
Q 666 556 975 473 
Q 1284 391 1588 391 
Q 1994 391 2212 530 
Q 2431 669 2431 922 
Q 2431 1156 2273 1281 
Q 2116 1406 1581 1522 
L 1381 1569 
Q 847 1681 609 1914 
Q 372 2147 372 2553 
Q 372 3047 722 3315 
Q 1072 3584 1716 3584 
Q 2034 3584 2315 3537 
Q 2597 3491 2834 3397 
z
" transform="scale(0.015625)"/>
      <path id="DejaVuSans-28" d="M 1984 4856 
Q 1566 4138 1362 3434 
Q 1159 2731 1159 2009 
Q 1159 1288 1364 580 
Q 1569 -128 1984 -844 
L 1484 -844 
Q 1016 -109 783 600 
Q 550 1309 550 2009 
Q 550 2706 781 3412 
Q 1013 4119 1484 4856 
L 1984 4856 
z
" transform="scale(0.015625)"/>
      <path id="DejaVuSans-6b" d="M 581 4863 
L 1159 4863 
L 1159 1991 
L 2875 3500 
L 3609 3500 
L 1753 1863 
L 3688 0 
L 2938 0 
L 1159 1709 
L 1159 0 
L 581 0 
L 581 4863 
z
" transform="scale(0.015625)"/>
      <path id="DejaVuSans-29" d="M 513 4856 
L 1013 4856 
Q 1481 4119 1714 3412 
Q 1947 2706 1947 2009 
Q 1947 1309 1714 600 
Q 1481 -109 1013 -844 
L 513 -844 
Q 928 -128 1133 580 
Q 1338 1288 1338 2009 
Q 1338 2731 1133 3434 
Q 928 4138 513 4856 
z
" transform="scale(0.015625)"/>
     </defs>
     <use xlink:href="#DejaVuSans-50"/>
     <use xlink:href="#DejaVuSans-6f" x="56.677734"/>
     <use xlink:href="#DejaVuSans-70" x="117.859375"/>
     <use xlink:href="#DejaVuSans-75" x="181.335938"/>
     <use xlink:href="#DejaVuSans-6c" x="244.714844"/>
     <use xlink:href="#DejaVuSans-61" x="272.498047"/>
     <use xlink:href="#DejaVuSans-74" x="333.777344"/>
     <use xlink:href="#DejaVuSans-69" x="372.986328"/>
     <use xlink:href="#DejaVuSans-6f" x="400.769531"/>
     <use xlink:href="#DejaVuSans-6e" x="461.951172"/>
     <use xlink:href="#DejaVuSans-20" x="525.330078"/>
     <use xlink:href="#DejaVuSans-41" x="557.117188"/>
     <use xlink:href="#DejaVuSans-6d" x="625.525391"/>
     <use xlink:href="#DejaVuSans-65" x="722.9375"/>
     <use xlink:href="#DejaVuSans-72" x="784.460938"/>
     <use xlink:href="#DejaVuSans-69" x="825.574219"/>
     <use xlink:href="#DejaVuSans-63" x="853.357422"/>
     <use xlink:href="#DejaVuSans-61" x="908.337891"/>
     <use xlink:href="#DejaVuSans-73" x="969.617188"/>
     <use xlink:href="#DejaVuSans-20" x="1021.716797"/>
     <use xlink:href="#DejaVuSans-28" x="1053.503906"/>
     <use xlink:href="#DejaVuSans-6e" x="1092.517578"/>
     <use xlink:href="#DejaVuSans-3a" x="1155.896484"/>
     <use xlink:href="#DejaVuSans-32" x="1189.587891"/>
     <use xlink:href="#DejaVuSans-33" x="1253.210938"/>
     <use xlink:href="#DejaVuSans-20" x="1316.833984"/>
     <use xlink:href="#DejaVuSans-6b" x="1348.621094"/>
     <use xlink:href="#DejaVuSans-3a" x="1406.53125"/>
     <use xlink:href="#DejaVuSans-37" x="1440.222656"/>
     <use xlink:href="#DejaVuSans-34" x="1503.845703"/>
     <use xlink:href="#DejaVuSans-29" x="1567.46875"/>
    </g>
    <!-- Score: 27708.72, max. Overlap: 0.38, avg. Distance: 4.66, avg. Angle: 5.30 -->
    <g transform="translate(511.8525 166.8) scale(0.12 -0.12)">
     <defs>
      <path id="DejaVuSans-2c" d="M 750 794 
L 1409 794 
L 1409 256 
L 897 -744 
L 494 -744 
L 750 256 
L 750 794 
z
" transform="scale(0.015625)"/>
      <path id="DejaVuSans-78" d="M 3513 3500 
L 2247 1797 
L 3578 0 
L 2900 0 
L 1881 1375 
L 863 0 
L 184 0 
L 1544 1831 
L 300 3500 
L 978 3500 
L 1906 2253 
L 2834 3500 
L 3513 3500 
z
" transform="scale(0.015625)"/>
      <path id="DejaVuSans-76" d="M 191 3500 
L 800 3500 
L 1894 563 
L 2988 3500 
L 3597 3500 
L 2284 0 
L 1503 0 
L 191 3500 
z
" transform="scale(0.015625)"/>
      <path id="DejaVuSans-67" d="M 2906 1791 
Q 2906 2416 2648 2759 
Q 2391 3103 1925 3103 
Q 1463 3103 1205 2759 
Q 947 2416 947 1791 
Q 947 1169 1205 825 
Q 1463 481 1925 481 
Q 2391 481 2648 825 
Q 2906 1169 2906 1791 
z
M 3481 434 
Q 3481 -459 3084 -895 
Q 2688 -1331 1869 -1331 
Q 1566 -1331 1297 -1286 
Q 1028 -1241 775 -1147 
L 775 -588 
Q 1028 -725 1275 -790 
Q 1522 -856 1778 -856 
Q 2344 -856 2625 -561 
Q 2906 -266 2906 331 
L 2906 616 
Q 2728 306 2450 153 
Q 2172 0 1784 0 
Q 1141 0 747 490 
Q 353 981 353 1791 
Q 353 2603 747 3093 
Q 1141 3584 1784 3584 
Q 2172 3584 2450 3431 
Q 2728 3278 2906 2969 
L 2906 3500 
L 3481 3500 
L 3481 434 
z
" transform="scale(0.015625)"/>
     </defs>
     <use xlink:href="#DejaVuSans-53"/>
     <use xlink:href="#DejaVuSans-63" x="63.476562"/>
     <use xlink:href="#DejaVuSans-6f" x="118.457031"/>
     <use xlink:href="#DejaVuSans-72" x="179.638672"/>
     <use xlink:href="#DejaVuSans-65" x="218.501953"/>
     <use xlink:href="#DejaVuSans-3a" x="280.025391"/>
     <use xlink:href="#DejaVuSans-20" x="313.716797"/>
     <use xlink:href="#DejaVuSans-32" x="345.503906"/>
     <use xlink:href="#DejaVuSans-37" x="409.126953"/>
     <use xlink:href="#DejaVuSans-37" x="472.75"/>
     <use xlink:href="#DejaVuSans-30" x="536.373047"/>
     <use xlink:href="#DejaVuSans-38" x="599.996094"/>
     <use xlink:href="#DejaVuSans-2e" x="663.619141"/>
     <use xlink:href="#DejaVuSans-37" x="695.40625"/>
     <use xlink:href="#DejaVuSans-32" x="759.029297"/>
     <use xlink:href="#DejaVuSans-2c" x="822.652344"/>
     <use xlink:href="#DejaVuSans-20" x="854.439453"/>
     <use xlink:href="#DejaVuSans-6d" x="886.226562"/>
     <use xlink:href="#DejaVuSans-61" x="983.638672"/>
     <use xlink:href="#DejaVuSans-78" x="1044.917969"/>
     <use xlink:href="#DejaVuSans-2e" x="1104.097656"/>
     <use xlink:href="#DejaVuSans-20" x="1135.884766"/>
     <use xlink:href="#DejaVuSans-4f" x="1167.671875"/>
     <use xlink:href="#DejaVuSans-76" x="1246.382812"/>
     <use xlink:href="#DejaVuSans-65" x="1305.5625"/>
     <use xlink:href="#DejaVuSans-72" x="1367.085938"/>
     <use xlink:href="#DejaVuSans-6c" x="1408.199219"/>
     <use xlink:href="#DejaVuSans-61" x="1435.982422"/>
     <use xlink:href="#DejaVuSans-70" x="1497.261719"/>
     <use xlink:href="#DejaVuSans-3a" x="1560.738281"/>
     <use xlink:href="#DejaVuSans-20" x="1594.429688"/>
     <use xlink:href="#DejaVuSans-30" x="1626.216797"/>
     <use xlink:href="#DejaVuSans-2e" x="1689.839844"/>
     <use xlink:href="#DejaVuSans-33" x="1721.626953"/>
     <use xlink:href="#DejaVuSans-38" x="1785.25"/>
     <use xlink:href="#DejaVuSans-2c" x="1848.873047"/>
     <use xlink:href="#DejaVuSans-20" x="1880.660156"/>
     <use xlink:href="#DejaVuSans-61" x="1912.447266"/>
     <use xlink:href="#DejaVuSans-76" x="1973.726562"/>
     <use xlink:href="#DejaVuSans-67" x="2032.90625"/>
     <use xlink:href="#DejaVuSans-2e" x="2096.382812"/>
     <use xlink:href="#DejaVuSans-20" x="2128.169922"/>
     <use xlink:href="#DejaVuSans-44" x="2159.957031"/>
     <use xlink:href="#DejaVuSans-69" x="2236.958984"/>
     <use xlink:href="#DejaVuSans-73" x="2264.742188"/>
     <use xlink:href="#DejaVuSans-74" x="2316.841797"/>
     <use xlink:href="#DejaVuSans-61" x="2356.050781"/>
     <use xlink:href="#DejaVuSans-6e" x="2417.330078"/>
     <use xlink:href="#DejaVuSans-63" x="2480.708984"/>
     <use xlink:href="#DejaVuSans-65" x="2535.689453"/>
     <use xlink:href="#DejaVuSans-3a" x="2597.212891"/>
     <use xlink:href="#DejaVuSans-20" x="2630.904297"/>
     <use xlink:href="#DejaVuSans-34" x="2662.691406"/>
     <use xlink:href="#DejaVuSans-2e" x="2726.314453"/>
     <use xlink:href="#DejaVuSans-36" x="2758.101562"/>
     <use xlink:href="#DejaVuSans-36" x="2821.724609"/>
     <use xlink:href="#DejaVuSans-2c" x="2885.347656"/>
     <use xlink:href="#DejaVuSans-20" x="2917.134766"/>
     <use xlink:href="#DejaVuSans-61" x="2948.921875"/>
     <use xlink:href="#DejaVuSans-76" x="3010.201172"/>
     <use xlink:href="#DejaVuSans-67" x="3069.380859"/>
     <use xlink:href="#DejaVuSans-2e" x="3132.857422"/>
     <use xlink:href="#DejaVuSans-20" x="3164.644531"/>
     <use xlink:href="#DejaVuSans-41" x="3196.431641"/>
     <use xlink:href="#DejaVuSans-6e" x="3264.839844"/>
     <use xlink:href="#DejaVuSans-67" x="3328.21875"/>
     <use xlink:href="#DejaVuSans-6c" x="3391.695312"/>
     <use xlink:href="#DejaVuSans-65" x="3419.478516"/>
     <use xlink:href="#DejaVuSans-3a" x="3481.001953"/>
     <use xlink:href="#DejaVuSans-20" x="3514.693359"/>
     <use xlink:href="#DejaVuSans-35" x="3546.480469"/>
     <use xlink:href="#DejaVuSans-2e" x="3610.103516"/>
     <use xlink:href="#DejaVuSans-33" x="3641.890625"/>
     <use xlink:href="#DejaVuSans-30" x="3705.513672"/>
    </g>
   </g>
  </g>
 </g>
 <defs>
  <clipPath id="p4d384f97a3">
   <rect x="378.020454" y="172.8" width="719.959093" height="1108.8"/>
  </clipPath>
 </defs>
</svg>
