<?xml version="1.0" encoding="utf-8" standalone="no"?>
<!DOCTYPE svg PUBLIC "-//W3C//DTD SVG 1.1//EN"
  "http://www.w3.org/Graphics/SVG/1.1/DTD/svg11.dtd">
<svg xmlns:xlink="http://www.w3.org/1999/xlink" width="1440pt" height="1440pt" viewBox="0 0 1440 1440" xmlns="http://www.w3.org/2000/svg" version="1.1">
 <metadata>
  <rdf:RDF xmlns:dc="http://purl.org/dc/elements/1.1/" xmlns:cc="http://creativecommons.org/ns#" xmlns:rdf="http://www.w3.org/1999/02/22-rdf-syntax-ns#">
   <cc:Work>
    <dc:type rdf:resource="http://purl.org/dc/dcmitype/StillImage"/>
    <dc:date>2024-03-18T21:05:16.768643</dc:date>
    <dc:format>image/svg+xml</dc:format>
    <dc:creator>
     <cc:Agent>
      <dc:title>Matplotlib v3.8.3, https://matplotlib.org/</dc:title>
     </cc:Agent>
    </dc:creator>
   </cc:Work>
  </rdf:RDF>
 </metadata>
 <defs>
  <style type="text/css">*{stroke-linejoin: round; stroke-linecap: butt}</style>
 </defs>
 <g id="figure_1">
  <g id="patch_1">
   <path d="M 0 1440 
L 1440 1440 
L 1440 0 
L 0 0 
z
" style="fill: #ffffff"/>
  </g>
  <g id="axes_1">
   <g id="patch_2">
    <path d="M 871.383163 1118.913347 
C 888.882283 1118.913347 905.66704 1111.960873 918.040786 1099.587127 
C 930.414533 1087.213381 937.367007 1070.428623 937.367007 1052.929504 
C 937.367007 1035.430384 930.414533 1018.645627 918.040786 1006.27188 
C 905.66704 993.898134 888.882283 986.94566 871.383163 986.94566 
C 853.884043 986.94566 837.099286 993.898134 824.72554 1006.27188 
C 812.351794 1018.645627 805.39932 1035.430384 805.39932 1052.929504 
C 805.39932 1070.428623 812.351794 1087.213381 824.72554 1099.587127 
C 837.099286 1111.960873 853.884043 1118.913347 871.383163 1118.913347 
z
" clip-path="url(#p939cb4480a)" style="fill: #9e0142; opacity: 0.5"/>
   </g>
   <g id="patch_3">
    <path d="M 1075.906667 1037.746531 
C 1079.996146 1037.746531 1083.91868 1036.121764 1086.810379 1033.230066 
C 1089.702077 1030.338368 1091.326844 1026.415833 1091.326844 1022.326355 
C 1091.326844 1018.236876 1089.702077 1014.314341 1086.810379 1011.422643 
C 1083.91868 1008.530945 1079.996146 1006.906178 1075.906667 1006.906178 
C 1071.817188 1006.906178 1067.894654 1008.530945 1065.002956 1011.422643 
C 1062.111258 1014.314341 1060.486491 1018.236876 1060.486491 1022.326355 
C 1060.486491 1026.415833 1062.111258 1030.338368 1065.002956 1033.230066 
C 1067.894654 1036.121764 1071.817188 1037.746531 1075.906667 1037.746531 
z
" clip-path="url(#p939cb4480a)" style="fill: #b61b48; opacity: 0.5"/>
   </g>
   <g id="patch_4">
    <path d="M 1054.375149 1110.832762 
C 1064.787478 1110.832762 1074.774746 1106.6959 1082.137375 1099.333272 
C 1089.500003 1091.970644 1093.636865 1081.983375 1093.636865 1071.571046 
C 1093.636865 1061.158718 1089.500003 1051.171449 1082.137375 1043.808821 
C 1074.774746 1036.446193 1064.787478 1032.309331 1054.375149 1032.309331 
C 1043.962821 1032.309331 1033.975552 1036.446193 1026.612924 1043.808821 
C 1019.250296 1051.171449 1015.113434 1061.158718 1015.113434 1071.571046 
C 1015.113434 1081.983375 1019.250296 1091.970644 1026.612924 1099.333272 
C 1033.975552 1106.6959 1043.962821 1110.832762 1054.375149 1110.832762 
z
" clip-path="url(#p939cb4480a)" style="fill: #d0384e; opacity: 0.5"/>
   </g>
   <g id="patch_5">
    <path d="M 1039.670554 1216.869532 
C 1048.023922 1216.869532 1056.036283 1213.550703 1061.943006 1207.64398 
C 1067.84973 1201.737256 1071.168558 1193.724896 1071.168558 1185.371527 
C 1071.168558 1177.018159 1067.84973 1169.005799 1061.943006 1163.099075 
C 1056.036283 1157.192352 1048.023922 1153.873523 1039.670554 1153.873523 
C 1031.317186 1153.873523 1023.304825 1157.192352 1017.398102 1163.099075 
C 1011.491379 1169.005799 1008.17255 1177.018159 1008.17255 1185.371527 
C 1008.17255 1193.724896 1011.491379 1201.737256 1017.398102 1207.64398 
C 1023.304825 1213.550703 1031.317186 1216.869532 1039.670554 1216.869532 
z
" clip-path="url(#p939cb4480a)" style="fill: #df4e4b; opacity: 0.5"/>
   </g>
   <g id="patch_6">
    <path d="M 752.343101 773.735531 
C 767.980045 773.735531 782.978645 767.522908 794.035634 756.465919 
C 805.092623 745.40893 811.305247 730.41033 811.305247 714.773386 
C 811.305247 699.136442 805.092623 684.137842 794.035634 673.080853 
C 782.978645 662.023864 767.980045 655.811241 752.343101 655.811241 
C 736.706158 655.811241 721.707557 662.023864 710.650568 673.080853 
C 699.59358 684.137842 693.380956 699.136442 693.380956 714.773386 
C 693.380956 730.41033 699.59358 745.40893 710.650568 756.465919 
C 721.707557 767.522908 736.706158 773.735531 752.343101 773.735531 
z
" clip-path="url(#p939cb4480a)" style="fill: #ee6445; opacity: 0.5"/>
   </g>
   <g id="patch_7">
    <path d="M 493.569289 416.890701 
C 502.260986 416.890701 510.597864 413.437453 516.743822 407.291495 
C 522.88978 401.145537 526.343028 392.808659 526.343028 384.116961 
C 526.343028 375.425264 522.88978 367.088386 516.743822 360.942428 
C 510.597864 354.79647 502.260986 351.343222 493.569289 351.343222 
C 484.877592 351.343222 476.540714 354.79647 470.394755 360.942428 
C 464.248797 367.088386 460.795549 375.425264 460.795549 384.116961 
C 460.795549 392.808659 464.248797 401.145537 470.394755 407.291495 
C 476.540714 413.437453 484.877592 416.890701 493.569289 416.890701 
z
" clip-path="url(#p939cb4480a)" style="fill: #f67f4b; opacity: 0.5"/>
   </g>
   <g id="patch_8">
    <path d="M 1022.161959 1155.821691 
C 1029.080396 1155.821691 1035.716403 1153.072967 1040.608477 1148.180894 
C 1045.50055 1143.28882 1048.249274 1136.652813 1048.249274 1129.734376 
C 1048.249274 1122.815939 1045.50055 1116.179932 1040.608477 1111.287858 
C 1035.716403 1106.395784 1029.080396 1103.64706 1022.161959 1103.64706 
C 1015.243522 1103.64706 1008.607515 1106.395784 1003.715441 1111.287858 
C 998.823367 1116.179932 996.074643 1122.815939 996.074643 1129.734376 
C 996.074643 1136.652813 998.823367 1143.28882 1003.715441 1148.180894 
C 1008.607515 1153.072967 1015.243522 1155.821691 1022.161959 1155.821691 
z
" clip-path="url(#p939cb4480a)" style="fill: #fa9b58; opacity: 0.5"/>
   </g>
   <g id="patch_9">
    <path d="M 672.912121 681.719353 
C 692.801948 681.719353 711.879816 673.817041 725.944048 659.752809 
C 740.008279 645.688578 747.910591 626.610709 747.910591 606.720882 
C 747.910591 586.831055 740.008279 567.753186 725.944048 553.688955 
C 711.879816 539.624724 692.801948 531.722412 672.912121 531.722412 
C 653.022294 531.722412 633.944425 539.624724 619.880194 553.688955 
C 605.815962 567.753186 597.91365 586.831055 597.91365 606.720882 
C 597.91365 626.610709 605.815962 645.688578 619.880194 659.752809 
C 633.944425 673.817041 653.022294 681.719353 672.912121 681.719353 
z
" clip-path="url(#p939cb4480a)" style="fill: #fdb768; opacity: 0.5"/>
   </g>
   <g id="patch_10">
    <path d="M 1079.221835 1169.088455 
C 1087.712153 1169.088455 1095.855873 1165.715216 1101.859434 1159.711654 
C 1107.862995 1153.708093 1111.236234 1145.564373 1111.236234 1137.074056 
C 1111.236234 1128.583738 1107.862995 1120.440018 1101.859434 1114.436457 
C 1095.855873 1108.432895 1087.712153 1105.059656 1079.221835 1105.059656 
C 1070.731517 1105.059656 1062.587798 1108.432895 1056.584236 1114.436457 
C 1050.580675 1120.440018 1047.207436 1128.583738 1047.207436 1137.074056 
C 1047.207436 1145.564373 1050.580675 1153.708093 1056.584236 1159.711654 
C 1062.587798 1165.715216 1070.731517 1169.088455 1079.221835 1169.088455 
z
" clip-path="url(#p939cb4480a)" style="fill: #fece7c; opacity: 0.5"/>
   </g>
   <g id="patch_11">
    <path d="M 439.649397 255.086084 
C 443.877541 255.086084 447.933081 253.406225 450.92283 250.416475 
C 453.91258 247.426726 455.592439 243.371186 455.592439 239.143042 
C 455.592439 234.914898 453.91258 230.859358 450.92283 227.869609 
C 447.933081 224.87986 443.877541 223.2 439.649397 223.2 
C 435.421253 223.2 431.365713 224.87986 428.375964 227.869609 
C 425.386214 230.859358 423.706355 234.914898 423.706355 239.143042 
C 423.706355 243.371186 425.386214 247.426726 428.375964 250.416475 
C 431.365713 253.406225 435.421253 255.086084 439.649397 255.086084 
z
" clip-path="url(#p939cb4480a)" style="fill: #fee28f; opacity: 0.5"/>
   </g>
   <g id="patch_12">
    <path d="M 1104.227198 1231.2 
C 1113.276459 1231.2 1121.956304 1227.60469 1128.355097 1221.205897 
C 1134.753891 1214.807103 1138.349201 1206.127258 1138.349201 1197.077997 
C 1138.349201 1188.028736 1134.753891 1179.348891 1128.355097 1172.950097 
C 1121.956304 1166.551303 1113.276459 1162.955993 1104.227198 1162.955993 
C 1095.177936 1162.955993 1086.498091 1166.551303 1080.099298 1172.950097 
C 1073.700504 1179.348891 1070.105194 1188.028736 1070.105194 1197.077997 
C 1070.105194 1206.127258 1073.700504 1214.807103 1080.099298 1221.205897 
C 1086.498091 1227.60469 1095.177936 1231.2 1104.227198 1231.2 
z
" clip-path="url(#p939cb4480a)" style="fill: #fff1a8; opacity: 0.5"/>
   </g>
   <g id="patch_13">
    <path d="M 516.664147 878.034896 
C 552.492886 878.034896 586.858996 863.799987 612.19374 838.465243 
C 637.528485 813.130498 651.763394 778.764388 651.763394 742.935649 
C 651.763394 707.10691 637.528485 672.7408 612.19374 647.406055 
C 586.858996 622.071311 552.492886 607.836402 516.664147 607.836402 
C 480.835408 607.836402 446.469297 622.071311 421.134553 647.406055 
C 395.799809 672.7408 381.5649 707.10691 381.5649 742.935649 
C 381.5649 778.764388 395.799809 813.130498 421.134553 838.465243 
C 446.469297 863.799987 480.835408 878.034896 516.664147 878.034896 
z
" clip-path="url(#p939cb4480a)" style="fill: #ffffbe; opacity: 0.5"/>
   </g>
   <g id="patch_14">
    <path d="M 400.32057 467.034282 
C 416.940787 467.034282 432.882521 460.430999 444.63479 448.678731 
C 456.387058 436.926463 462.99034 420.984729 462.99034 404.364511 
C 462.99034 387.744294 456.387058 371.80256 444.63479 360.050291 
C 432.882521 348.298023 416.940787 341.694741 400.32057 341.694741 
C 383.700352 341.694741 367.758618 348.298023 356.00635 360.050291 
C 344.254082 371.80256 337.650799 387.744294 337.650799 404.364511 
C 337.650799 420.984729 344.254082 436.926463 356.00635 448.678731 
C 367.758618 460.430999 383.700352 467.034282 400.32057 467.034282 
z
" clip-path="url(#p939cb4480a)" style="fill: #f4faad; opacity: 0.5"/>
   </g>
   <g id="patch_15">
    <path d="M 789.266193 924.498186 
C 809.924028 924.498186 829.738553 916.290741 844.345848 901.683445 
C 858.953143 887.07615 867.160588 867.261626 867.160588 846.603791 
C 867.160588 825.945955 858.953143 806.131431 844.345848 791.524136 
C 829.738553 776.91684 809.924028 768.709395 789.266193 768.709395 
C 768.608358 768.709395 748.793833 776.91684 734.186538 791.524136 
C 719.579243 806.131431 711.371798 825.945955 711.371798 846.603791 
C 711.371798 867.261626 719.579243 887.07615 734.186538 901.683445 
C 748.793833 916.290741 768.608358 924.498186 789.266193 924.498186 
z
" clip-path="url(#p939cb4480a)" style="fill: #e8f69b; opacity: 0.5"/>
   </g>
   <g id="patch_16">
    <path d="M 901.450295 985.571256 
C 917.306972 985.571256 932.516336 979.271332 943.7287 968.058968 
C 954.941064 956.846603 961.240988 941.63724 961.240988 925.780562 
C 961.240988 909.923885 954.941064 894.714521 943.7287 883.502157 
C 932.516336 872.289793 917.306972 865.989869 901.450295 865.989869 
C 885.593617 865.989869 870.384254 872.289793 859.17189 883.502157 
C 847.959525 894.714521 841.659601 909.923885 841.659601 925.780562 
C 841.659601 941.63724 847.959525 956.846603 859.17189 968.058968 
C 870.384254 979.271332 885.593617 985.571256 901.450295 985.571256 
z
" clip-path="url(#p939cb4480a)" style="fill: #d1ed9c; opacity: 0.5"/>
   </g>
   <g id="patch_17">
    <path d="M 522.309401 611.917387 
C 548.866594 611.917387 574.339649 601.366102 593.11842 582.587331 
C 611.897192 563.808559 622.448477 538.335505 622.448477 511.778311 
C 622.448477 485.221118 611.897192 459.748064 593.11842 440.969292 
C 574.339649 422.190521 548.866594 411.639236 522.309401 411.639236 
C 495.752208 411.639236 470.279153 422.190521 451.500382 440.969292 
C 432.72161 459.748064 422.170326 485.221118 422.170326 511.778311 
C 422.170326 538.335505 432.72161 563.808559 451.500382 582.587331 
C 470.279153 601.366102 495.752208 611.917387 522.309401 611.917387 
z
" clip-path="url(#p939cb4480a)" style="fill: #b5e1a2; opacity: 0.5"/>
   </g>
   <g id="patch_18">
    <path d="M 1059.496047 1000.679166 
C 1071.186817 1000.679166 1082.400338 996.034374 1090.66696 987.767751 
C 1098.933583 979.501128 1103.578375 968.287608 1103.578375 956.596838 
C 1103.578375 944.906068 1098.933583 933.692547 1090.66696 925.425925 
C 1082.400338 917.159302 1071.186817 912.51451 1059.496047 912.51451 
C 1047.805277 912.51451 1036.591757 917.159302 1028.325134 925.425925 
C 1020.058511 933.692547 1015.413719 944.906068 1015.413719 956.596838 
C 1015.413719 968.287608 1020.058511 979.501128 1028.325134 987.767751 
C 1036.591757 996.034374 1047.805277 1000.679166 1059.496047 1000.679166 
z
" clip-path="url(#p939cb4480a)" style="fill: #97d5a4; opacity: 0.5"/>
   </g>
   <g id="patch_19">
    <path d="M 970.557059 1214.767873 
C 981.052136 1214.767873 991.118774 1210.598135 998.539915 1203.176995 
C 1005.961055 1195.755855 1010.130793 1185.689216 1010.130793 1175.194139 
C 1010.130793 1164.699062 1005.961055 1154.632423 998.539915 1147.211283 
C 991.118774 1139.790143 981.052136 1135.620405 970.557059 1135.620405 
C 960.061982 1135.620405 949.995343 1139.790143 942.574203 1147.211283 
C 935.153063 1154.632423 930.983325 1164.699062 930.983325 1175.194139 
C 930.983325 1185.689216 935.153063 1195.755855 942.574203 1203.176995 
C 949.995343 1210.598135 960.061982 1214.767873 970.557059 1214.767873 
z
" clip-path="url(#p939cb4480a)" style="fill: #79c9a5; opacity: 0.5"/>
   </g>
   <g id="patch_20">
    <path d="M 965.543311 1137.140211 
C 976.120489 1137.140211 986.265877 1132.937854 993.745072 1125.45866 
C 1001.224266 1117.979465 1005.426623 1107.834077 1005.426623 1097.256899 
C 1005.426623 1086.679722 1001.224266 1076.534333 993.745072 1069.055139 
C 986.265877 1061.575945 976.120489 1057.373588 965.543311 1057.373588 
C 954.966134 1057.373588 944.820746 1061.575945 937.341551 1069.055139 
C 929.862357 1076.534333 925.66 1086.679722 925.66 1097.256899 
C 925.66 1107.834077 929.862357 1117.979465 937.341551 1125.45866 
C 944.820746 1132.937854 954.966134 1137.140211 965.543311 1137.140211 
z
" clip-path="url(#p939cb4480a)" style="fill: #5cb7aa; opacity: 0.5"/>
   </g>
   <g id="patch_21">
    <path d="M 434.55364 347.932162 
C 447.008679 347.932162 458.955268 342.983722 467.762311 334.17668 
C 476.569353 325.369638 481.517793 313.423048 481.517793 300.968009 
C 481.517793 288.512971 476.569353 276.566381 467.762311 267.759339 
C 458.955268 258.952296 447.008679 254.003857 434.55364 254.003857 
C 422.098601 254.003857 410.152012 258.952296 401.344969 267.759339 
C 392.537927 276.566381 387.589488 288.512971 387.589488 300.968009 
C 387.589488 313.423048 392.537927 325.369638 401.344969 334.17668 
C 410.152012 342.983722 422.098601 347.932162 434.55364 347.932162 
z
" clip-path="url(#p939cb4480a)" style="fill: #439bb5; opacity: 0.5"/>
   </g>
   <g id="patch_22">
    <path d="M 978.779229 1059.921741 
C 992.78182 1059.921741 1006.212787 1054.358453 1016.114114 1044.457126 
C 1026.015441 1034.555799 1031.578729 1021.124833 1031.578729 1007.122242 
C 1031.578729 993.119651 1026.015441 979.688684 1016.114114 969.787357 
C 1006.212787 959.88603 992.78182 954.322742 978.779229 954.322742 
C 964.776638 954.322742 951.345672 959.88603 941.444345 969.787357 
C 931.543018 979.688684 925.97973 993.119651 925.97973 1007.122242 
C 925.97973 1021.124833 931.543018 1034.555799 941.444345 1044.457126 
C 951.345672 1054.358453 964.776638 1059.921741 978.779229 1059.921741 
z
" clip-path="url(#p939cb4480a)" style="fill: #3682ba; opacity: 0.5"/>
   </g>
   <g id="patch_23">
    <path d="M 1105.684622 1037.670094 
C 1109.630565 1037.670094 1113.415424 1036.102354 1116.205627 1033.312151 
C 1118.99583 1030.521948 1120.56357 1026.737089 1120.56357 1022.791146 
C 1120.56357 1018.845203 1118.99583 1015.060344 1116.205627 1012.270141 
C 1113.415424 1009.479938 1109.630565 1007.912198 1105.684622 1007.912198 
C 1101.738679 1007.912198 1097.95382 1009.479938 1095.163617 1012.270141 
C 1092.373413 1015.060344 1090.805674 1018.845203 1090.805674 1022.791146 
C 1090.805674 1026.737089 1092.373413 1030.521948 1095.163617 1033.312151 
C 1097.95382 1036.102354 1101.738679 1037.670094 1105.684622 1037.670094 
z
" clip-path="url(#p939cb4480a)" style="fill: #4b68ae; opacity: 0.5"/>
   </g>
   <g id="patch_24">
    <path d="M 1046.254249 1030.565631 
C 1050.413638 1030.565631 1054.40323 1028.913088 1057.344362 1025.971955 
C 1060.285495 1023.030823 1061.938038 1019.041231 1061.938038 1014.881842 
C 1061.938038 1010.722453 1060.285495 1006.732861 1057.344362 1003.791729 
C 1054.40323 1000.850596 1050.413638 999.198054 1046.254249 999.198054 
C 1042.09486 999.198054 1038.105268 1000.850596 1035.164136 1003.791729 
C 1032.223004 1006.732861 1030.570461 1010.722453 1030.570461 1014.881842 
C 1030.570461 1019.041231 1032.223004 1023.030823 1035.164136 1025.971955 
C 1038.105268 1028.913088 1042.09486 1030.565631 1046.254249 1030.565631 
z
" clip-path="url(#p939cb4480a)" style="fill: #5e4fa2; opacity: 0.5"/>
   </g>
   <g id="line2d_1">
    <path d="M 1039.670554 1185.371527 
L 1022.161959 1129.734376 
" clip-path="url(#p939cb4480a)" style="fill: none; stroke: #808080; stroke-opacity: 0.3; stroke-width: 0.5; stroke-linecap: square"/>
   </g>
   <g id="line2d_2">
    <path d="M 1039.670554 1185.371527 
L 1054.375149 1071.571046 
" clip-path="url(#p939cb4480a)" style="fill: none; stroke: #808080; stroke-opacity: 0.3; stroke-width: 0.5; stroke-linecap: square"/>
   </g>
   <g id="line2d_3">
    <path d="M 1039.670554 1185.371527 
L 970.557059 1175.194139 
" clip-path="url(#p939cb4480a)" style="fill: none; stroke: #808080; stroke-opacity: 0.3; stroke-width: 0.5; stroke-linecap: square"/>
   </g>
   <g id="line2d_4">
    <path d="M 1039.670554 1185.371527 
L 1079.221835 1137.074056 
" clip-path="url(#p939cb4480a)" style="fill: none; stroke: #808080; stroke-opacity: 0.3; stroke-width: 0.5; stroke-linecap: square"/>
   </g>
   <g id="line2d_5">
    <path d="M 1039.670554 1185.371527 
L 1104.227198 1197.077997 
" clip-path="url(#p939cb4480a)" style="fill: none; stroke: #808080; stroke-opacity: 0.3; stroke-width: 0.5; stroke-linecap: square"/>
   </g>
   <g id="line2d_6">
    <path d="M 1022.161959 1129.734376 
L 1054.375149 1071.571046 
" clip-path="url(#p939cb4480a)" style="fill: none; stroke: #808080; stroke-opacity: 0.3; stroke-width: 0.5; stroke-linecap: square"/>
   </g>
   <g id="line2d_7">
    <path d="M 1022.161959 1129.734376 
L 970.557059 1175.194139 
" clip-path="url(#p939cb4480a)" style="fill: none; stroke: #808080; stroke-opacity: 0.3; stroke-width: 0.5; stroke-linecap: square"/>
   </g>
   <g id="line2d_8">
    <path d="M 1022.161959 1129.734376 
L 1079.221835 1137.074056 
" clip-path="url(#p939cb4480a)" style="fill: none; stroke: #808080; stroke-opacity: 0.3; stroke-width: 0.5; stroke-linecap: square"/>
   </g>
   <g id="line2d_9">
    <path d="M 1022.161959 1129.734376 
L 965.543311 1097.256899 
" clip-path="url(#p939cb4480a)" style="fill: none; stroke: #808080; stroke-opacity: 0.3; stroke-width: 0.5; stroke-linecap: square"/>
   </g>
   <g id="line2d_10">
    <path d="M 1054.375149 1071.571046 
L 978.779229 1007.122242 
" clip-path="url(#p939cb4480a)" style="fill: none; stroke: #808080; stroke-opacity: 0.3; stroke-width: 0.5; stroke-linecap: square"/>
   </g>
   <g id="line2d_11">
    <path d="M 1054.375149 1071.571046 
L 1105.684622 1022.791146 
" clip-path="url(#p939cb4480a)" style="fill: none; stroke: #808080; stroke-opacity: 0.3; stroke-width: 0.5; stroke-linecap: square"/>
   </g>
   <g id="line2d_12">
    <path d="M 1054.375149 1071.571046 
L 1046.254249 1014.881842 
" clip-path="url(#p939cb4480a)" style="fill: none; stroke: #808080; stroke-opacity: 0.3; stroke-width: 0.5; stroke-linecap: square"/>
   </g>
   <g id="line2d_13">
    <path d="M 1054.375149 1071.571046 
L 1079.221835 1137.074056 
" clip-path="url(#p939cb4480a)" style="fill: none; stroke: #808080; stroke-opacity: 0.3; stroke-width: 0.5; stroke-linecap: square"/>
   </g>
   <g id="line2d_14">
    <path d="M 1054.375149 1071.571046 
L 965.543311 1097.256899 
" clip-path="url(#p939cb4480a)" style="fill: none; stroke: #808080; stroke-opacity: 0.3; stroke-width: 0.5; stroke-linecap: square"/>
   </g>
   <g id="line2d_15">
    <path d="M 1054.375149 1071.571046 
L 1075.906667 1022.326355 
" clip-path="url(#p939cb4480a)" style="fill: none; stroke: #808080; stroke-opacity: 0.3; stroke-width: 0.5; stroke-linecap: square"/>
   </g>
   <g id="line2d_16">
    <path d="M 1054.375149 1071.571046 
L 1104.227198 1197.077997 
" clip-path="url(#p939cb4480a)" style="fill: none; stroke: #808080; stroke-opacity: 0.3; stroke-width: 0.5; stroke-linecap: square"/>
   </g>
   <g id="line2d_17">
    <path d="M 1054.375149 1071.571046 
L 1059.496047 956.596838 
" clip-path="url(#p939cb4480a)" style="fill: none; stroke: #808080; stroke-opacity: 0.3; stroke-width: 0.5; stroke-linecap: square"/>
   </g>
   <g id="line2d_18">
    <path d="M 493.569289 384.116961 
L 522.309401 511.778311 
" clip-path="url(#p939cb4480a)" style="fill: none; stroke: #808080; stroke-opacity: 0.3; stroke-width: 0.5; stroke-linecap: square"/>
   </g>
   <g id="line2d_19">
    <path d="M 493.569289 384.116961 
L 400.32057 404.364511 
" clip-path="url(#p939cb4480a)" style="fill: none; stroke: #808080; stroke-opacity: 0.3; stroke-width: 0.5; stroke-linecap: square"/>
   </g>
   <g id="line2d_20">
    <path d="M 439.649397 239.143042 
L 434.55364 300.968009 
" clip-path="url(#p939cb4480a)" style="fill: none; stroke: #808080; stroke-opacity: 0.3; stroke-width: 0.5; stroke-linecap: square"/>
   </g>
   <g id="line2d_21">
    <path d="M 970.557059 1175.194139 
L 965.543311 1097.256899 
" clip-path="url(#p939cb4480a)" style="fill: none; stroke: #808080; stroke-opacity: 0.3; stroke-width: 0.5; stroke-linecap: square"/>
   </g>
   <g id="line2d_22">
    <path d="M 978.779229 1007.122242 
L 871.383163 1052.929504 
" clip-path="url(#p939cb4480a)" style="fill: none; stroke: #808080; stroke-opacity: 0.3; stroke-width: 0.5; stroke-linecap: square"/>
   </g>
   <g id="line2d_23">
    <path d="M 978.779229 1007.122242 
L 901.450295 925.780562 
" clip-path="url(#p939cb4480a)" style="fill: none; stroke: #808080; stroke-opacity: 0.3; stroke-width: 0.5; stroke-linecap: square"/>
   </g>
   <g id="line2d_24">
    <path d="M 978.779229 1007.122242 
L 965.543311 1097.256899 
" clip-path="url(#p939cb4480a)" style="fill: none; stroke: #808080; stroke-opacity: 0.3; stroke-width: 0.5; stroke-linecap: square"/>
   </g>
   <g id="line2d_25">
    <path d="M 978.779229 1007.122242 
L 1059.496047 956.596838 
" clip-path="url(#p939cb4480a)" style="fill: none; stroke: #808080; stroke-opacity: 0.3; stroke-width: 0.5; stroke-linecap: square"/>
   </g>
   <g id="line2d_26">
    <path d="M 789.266193 846.603791 
L 752.343101 714.773386 
" clip-path="url(#p939cb4480a)" style="fill: none; stroke: #808080; stroke-opacity: 0.3; stroke-width: 0.5; stroke-linecap: square"/>
   </g>
   <g id="line2d_27">
    <path d="M 789.266193 846.603791 
L 901.450295 925.780562 
" clip-path="url(#p939cb4480a)" style="fill: none; stroke: #808080; stroke-opacity: 0.3; stroke-width: 0.5; stroke-linecap: square"/>
   </g>
   <g id="line2d_28">
    <path d="M 871.383163 1052.929504 
L 965.543311 1097.256899 
" clip-path="url(#p939cb4480a)" style="fill: none; stroke: #808080; stroke-opacity: 0.3; stroke-width: 0.5; stroke-linecap: square"/>
   </g>
   <g id="line2d_29">
    <path d="M 1105.684622 1022.791146 
L 1075.906667 1022.326355 
" clip-path="url(#p939cb4480a)" style="fill: none; stroke: #808080; stroke-opacity: 0.3; stroke-width: 0.5; stroke-linecap: square"/>
   </g>
   <g id="line2d_30">
    <path d="M 522.309401 511.778311 
L 516.664147 742.935649 
" clip-path="url(#p939cb4480a)" style="fill: none; stroke: #808080; stroke-opacity: 0.3; stroke-width: 0.5; stroke-linecap: square"/>
   </g>
   <g id="line2d_31">
    <path d="M 522.309401 511.778311 
L 672.912121 606.720882 
" clip-path="url(#p939cb4480a)" style="fill: none; stroke: #808080; stroke-opacity: 0.3; stroke-width: 0.5; stroke-linecap: square"/>
   </g>
   <g id="line2d_32">
    <path d="M 522.309401 511.778311 
L 400.32057 404.364511 
" clip-path="url(#p939cb4480a)" style="fill: none; stroke: #808080; stroke-opacity: 0.3; stroke-width: 0.5; stroke-linecap: square"/>
   </g>
   <g id="line2d_33">
    <path d="M 1046.254249 1014.881842 
L 1075.906667 1022.326355 
" clip-path="url(#p939cb4480a)" style="fill: none; stroke: #808080; stroke-opacity: 0.3; stroke-width: 0.5; stroke-linecap: square"/>
   </g>
   <g id="line2d_34">
    <path d="M 1046.254249 1014.881842 
L 1059.496047 956.596838 
" clip-path="url(#p939cb4480a)" style="fill: none; stroke: #808080; stroke-opacity: 0.3; stroke-width: 0.5; stroke-linecap: square"/>
   </g>
   <g id="line2d_35">
    <path d="M 672.912121 606.720882 
L 516.664147 742.935649 
" clip-path="url(#p939cb4480a)" style="fill: none; stroke: #808080; stroke-opacity: 0.3; stroke-width: 0.5; stroke-linecap: square"/>
   </g>
   <g id="line2d_36">
    <path d="M 672.912121 606.720882 
L 752.343101 714.773386 
" clip-path="url(#p939cb4480a)" style="fill: none; stroke: #808080; stroke-opacity: 0.3; stroke-width: 0.5; stroke-linecap: square"/>
   </g>
   <g id="line2d_37">
    <path d="M 400.32057 404.364511 
L 434.55364 300.968009 
" clip-path="url(#p939cb4480a)" style="fill: none; stroke: #808080; stroke-opacity: 0.3; stroke-width: 0.5; stroke-linecap: square"/>
   </g>
   <g id="text_1">
    <!-- ECU -->
    <g transform="translate(865.197069 1054.585129) scale(0.06 -0.06)">
     <defs>
      <path id="DejaVuSans-45" d="M 628 4666 
L 3578 4666 
L 3578 4134 
L 1259 4134 
L 1259 2753 
L 3481 2753 
L 3481 2222 
L 1259 2222 
L 1259 531 
L 3634 531 
L 3634 0 
L 628 0 
L 628 4666 
z
" transform="scale(0.015625)"/>
      <path id="DejaVuSans-43" d="M 4122 4306 
L 4122 3641 
Q 3803 3938 3442 4084 
Q 3081 4231 2675 4231 
Q 1875 4231 1450 3742 
Q 1025 3253 1025 2328 
Q 1025 1406 1450 917 
Q 1875 428 2675 428 
Q 3081 428 3442 575 
Q 3803 722 4122 1019 
L 4122 359 
Q 3791 134 3420 21 
Q 3050 -91 2638 -91 
Q 1578 -91 968 557 
Q 359 1206 359 2328 
Q 359 3453 968 4101 
Q 1578 4750 2638 4750 
Q 3056 4750 3426 4639 
Q 3797 4528 4122 4306 
z
" transform="scale(0.015625)"/>
      <path id="DejaVuSans-55" d="M 556 4666 
L 1191 4666 
L 1191 1831 
Q 1191 1081 1462 751 
Q 1734 422 2344 422 
Q 2950 422 3222 751 
Q 3494 1081 3494 1831 
L 3494 4666 
L 4128 4666 
L 4128 1753 
Q 4128 841 3676 375 
Q 3225 -91 2344 -91 
Q 1459 -91 1007 375 
Q 556 841 556 1753 
L 556 4666 
z
" transform="scale(0.015625)"/>
     </defs>
     <use xlink:href="#DejaVuSans-45"/>
     <use xlink:href="#DejaVuSans-43" x="63.183594"/>
     <use xlink:href="#DejaVuSans-55" x="133.007812"/>
    </g>
   </g>
   <g id="text_2">
    <!-- SUR -->
    <g transform="translate(1069.72198 1023.98198) scale(0.06 -0.06)">
     <defs>
      <path id="DejaVuSans-53" d="M 3425 4513 
L 3425 3897 
Q 3066 4069 2747 4153 
Q 2428 4238 2131 4238 
Q 1616 4238 1336 4038 
Q 1056 3838 1056 3469 
Q 1056 3159 1242 3001 
Q 1428 2844 1947 2747 
L 2328 2669 
Q 3034 2534 3370 2195 
Q 3706 1856 3706 1288 
Q 3706 609 3251 259 
Q 2797 -91 1919 -91 
Q 1588 -91 1214 -16 
Q 841 59 441 206 
L 441 856 
Q 825 641 1194 531 
Q 1563 422 1919 422 
Q 2459 422 2753 634 
Q 3047 847 3047 1241 
Q 3047 1584 2836 1778 
Q 2625 1972 2144 2069 
L 1759 2144 
Q 1053 2284 737 2584 
Q 422 2884 422 3419 
Q 422 4038 858 4394 
Q 1294 4750 2059 4750 
Q 2388 4750 2728 4690 
Q 3069 4631 3425 4513 
z
" transform="scale(0.015625)"/>
      <path id="DejaVuSans-52" d="M 2841 2188 
Q 3044 2119 3236 1894 
Q 3428 1669 3622 1275 
L 4263 0 
L 3584 0 
L 2988 1197 
Q 2756 1666 2539 1819 
Q 2322 1972 1947 1972 
L 1259 1972 
L 1259 0 
L 628 0 
L 628 4666 
L 2053 4666 
Q 2853 4666 3247 4331 
Q 3641 3997 3641 3322 
Q 3641 2881 3436 2590 
Q 3231 2300 2841 2188 
z
M 1259 4147 
L 1259 2491 
L 2053 2491 
Q 2509 2491 2742 2702 
Q 2975 2913 2975 3322 
Q 2975 3731 2742 3939 
Q 2509 4147 2053 4147 
L 1259 4147 
z
" transform="scale(0.015625)"/>
     </defs>
     <use xlink:href="#DejaVuSans-53"/>
     <use xlink:href="#DejaVuSans-55" x="63.476562"/>
     <use xlink:href="#DejaVuSans-52" x="136.669922"/>
    </g>
   </g>
   <g id="text_3">
    <!-- BRA -->
    <g transform="translate(1048.300149 1073.226671) scale(0.06 -0.06)">
     <defs>
      <path id="DejaVuSans-42" d="M 1259 2228 
L 1259 519 
L 2272 519 
Q 2781 519 3026 730 
Q 3272 941 3272 1375 
Q 3272 1813 3026 2020 
Q 2781 2228 2272 2228 
L 1259 2228 
z
M 1259 4147 
L 1259 2741 
L 2194 2741 
Q 2656 2741 2882 2914 
Q 3109 3088 3109 3444 
Q 3109 3797 2882 3972 
Q 2656 4147 2194 4147 
L 1259 4147 
z
M 628 4666 
L 2241 4666 
Q 2963 4666 3353 4366 
Q 3744 4066 3744 3513 
Q 3744 3084 3544 2831 
Q 3344 2578 2956 2516 
Q 3422 2416 3680 2098 
Q 3938 1781 3938 1306 
Q 3938 681 3513 340 
Q 3088 0 2303 0 
L 628 0 
L 628 4666 
z
" transform="scale(0.015625)"/>
      <path id="DejaVuSans-41" d="M 2188 4044 
L 1331 1722 
L 3047 1722 
L 2188 4044 
z
M 1831 4666 
L 2547 4666 
L 4325 0 
L 3669 0 
L 3244 1197 
L 1141 1197 
L 716 0 
L 50 0 
L 1831 4666 
z
" transform="scale(0.015625)"/>
     </defs>
     <use xlink:href="#DejaVuSans-42"/>
     <use xlink:href="#DejaVuSans-52" x="68.603516"/>
     <use xlink:href="#DejaVuSans-41" x="134.085938"/>
    </g>
   </g>
   <g id="text_4">
    <!-- ARG -->
    <g transform="translate(1033.209304 1187.027152) scale(0.06 -0.06)">
     <defs>
      <path id="DejaVuSans-47" d="M 3809 666 
L 3809 1919 
L 2778 1919 
L 2778 2438 
L 4434 2438 
L 4434 434 
Q 4069 175 3628 42 
Q 3188 -91 2688 -91 
Q 1594 -91 976 548 
Q 359 1188 359 2328 
Q 359 3472 976 4111 
Q 1594 4750 2688 4750 
Q 3144 4750 3555 4637 
Q 3966 4525 4313 4306 
L 4313 3634 
Q 3963 3931 3569 4081 
Q 3175 4231 2741 4231 
Q 1884 4231 1454 3753 
Q 1025 3275 1025 2328 
Q 1025 1384 1454 906 
Q 1884 428 2741 428 
Q 3075 428 3337 486 
Q 3600 544 3809 666 
z
" transform="scale(0.015625)"/>
     </defs>
     <use xlink:href="#DejaVuSans-41"/>
     <use xlink:href="#DejaVuSans-52" x="68.408203"/>
     <use xlink:href="#DejaVuSans-47" x="137.890625"/>
    </g>
   </g>
   <g id="text_5">
    <!-- NIC -->
    <g transform="translate(747.118883 716.429011) scale(0.06 -0.06)">
     <defs>
      <path id="DejaVuSans-4e" d="M 628 4666 
L 1478 4666 
L 3547 763 
L 3547 4666 
L 4159 4666 
L 4159 0 
L 3309 0 
L 1241 3903 
L 1241 0 
L 628 0 
L 628 4666 
z
" transform="scale(0.015625)"/>
      <path id="DejaVuSans-49" d="M 628 4666 
L 1259 4666 
L 1259 0 
L 628 0 
L 628 4666 
z
" transform="scale(0.015625)"/>
     </defs>
     <use xlink:href="#DejaVuSans-4e"/>
     <use xlink:href="#DejaVuSans-49" x="74.804688"/>
     <use xlink:href="#DejaVuSans-43" x="104.296875"/>
    </g>
   </g>
   <g id="text_6">
    <!-- BLZ -->
    <g transform="translate(487.784445 385.772586) scale(0.06 -0.06)">
     <defs>
      <path id="DejaVuSans-4c" d="M 628 4666 
L 1259 4666 
L 1259 531 
L 3531 531 
L 3531 0 
L 628 0 
L 628 4666 
z
" transform="scale(0.015625)"/>
      <path id="DejaVuSans-5a" d="M 359 4666 
L 4025 4666 
L 4025 4184 
L 1075 531 
L 4097 531 
L 4097 0 
L 288 0 
L 288 481 
L 3238 4134 
L 359 4134 
L 359 4666 
z
" transform="scale(0.015625)"/>
     </defs>
     <use xlink:href="#DejaVuSans-42"/>
     <use xlink:href="#DejaVuSans-4c" x="68.603516"/>
     <use xlink:href="#DejaVuSans-5a" x="124.316406"/>
    </g>
   </g>
   <g id="text_7">
    <!-- BOL -->
    <g transform="translate(1016.123052 1131.390001) scale(0.06 -0.06)">
     <defs>
      <path id="DejaVuSans-4f" d="M 2522 4238 
Q 1834 4238 1429 3725 
Q 1025 3213 1025 2328 
Q 1025 1447 1429 934 
Q 1834 422 2522 422 
Q 3209 422 3611 934 
Q 4013 1447 4013 2328 
Q 4013 3213 3611 3725 
Q 3209 4238 2522 4238 
z
M 2522 4750 
Q 3503 4750 4090 4092 
Q 4678 3434 4678 2328 
Q 4678 1225 4090 567 
Q 3503 -91 2522 -91 
Q 1538 -91 948 565 
Q 359 1222 359 2328 
Q 359 3434 948 4092 
Q 1538 4750 2522 4750 
z
" transform="scale(0.015625)"/>
     </defs>
     <use xlink:href="#DejaVuSans-42"/>
     <use xlink:href="#DejaVuSans-4f" x="66.853516"/>
     <use xlink:href="#DejaVuSans-4c" x="145.564453"/>
    </g>
   </g>
   <g id="text_8">
    <!-- HND -->
    <g transform="translate(666.101652 608.376507) scale(0.06 -0.06)">
     <defs>
      <path id="DejaVuSans-48" d="M 628 4666 
L 1259 4666 
L 1259 2753 
L 3553 2753 
L 3553 4666 
L 4184 4666 
L 4184 0 
L 3553 0 
L 3553 2222 
L 1259 2222 
L 1259 0 
L 628 0 
L 628 4666 
z
" transform="scale(0.015625)"/>
      <path id="DejaVuSans-44" d="M 1259 4147 
L 1259 519 
L 2022 519 
Q 2988 519 3436 956 
Q 3884 1394 3884 2338 
Q 3884 3275 3436 3711 
Q 2988 4147 2022 4147 
L 1259 4147 
z
M 628 4666 
L 1925 4666 
Q 3281 4666 3915 4102 
Q 4550 3538 4550 2338 
Q 4550 1131 3912 565 
Q 3275 0 1925 0 
L 628 0 
L 628 4666 
z
" transform="scale(0.015625)"/>
     </defs>
     <use xlink:href="#DejaVuSans-48"/>
     <use xlink:href="#DejaVuSans-4e" x="75.195312"/>
     <use xlink:href="#DejaVuSans-44" x="150"/>
    </g>
   </g>
   <g id="text_9">
    <!-- PRY -->
    <g transform="translate(1073.687304 1138.729681) scale(0.06 -0.06)">
     <defs>
      <path id="DejaVuSans-50" d="M 1259 4147 
L 1259 2394 
L 2053 2394 
Q 2494 2394 2734 2622 
Q 2975 2850 2975 3272 
Q 2975 3691 2734 3919 
Q 2494 4147 2053 4147 
L 1259 4147 
z
M 628 4666 
L 2053 4666 
Q 2838 4666 3239 4311 
Q 3641 3956 3641 3272 
Q 3641 2581 3239 2228 
Q 2838 1875 2053 1875 
L 1259 1875 
L 1259 0 
L 628 0 
L 628 4666 
z
" transform="scale(0.015625)"/>
      <path id="DejaVuSans-59" d="M -13 4666 
L 666 4666 
L 1959 2747 
L 3244 4666 
L 3922 4666 
L 2272 2222 
L 2272 0 
L 1638 0 
L 1638 2222 
L -13 4666 
z
" transform="scale(0.015625)"/>
     </defs>
     <use xlink:href="#DejaVuSans-50"/>
     <use xlink:href="#DejaVuSans-52" x="60.302734"/>
     <use xlink:href="#DejaVuSans-59" x="123.410156"/>
    </g>
   </g>
   <g id="text_10">
    <!-- CAN -->
    <g transform="translate(433.257991 240.798667) scale(0.06 -0.06)">
     <use xlink:href="#DejaVuSans-43"/>
     <use xlink:href="#DejaVuSans-41" x="69.824219"/>
     <use xlink:href="#DejaVuSans-4e" x="138.232422"/>
    </g>
   </g>
   <g id="text_11">
    <!-- URY -->
    <g transform="translate(1098.305948 1198.733622) scale(0.06 -0.06)">
     <use xlink:href="#DejaVuSans-55"/>
     <use xlink:href="#DejaVuSans-52" x="73.193359"/>
     <use xlink:href="#DejaVuSans-59" x="136.300781"/>
    </g>
   </g>
   <g id="text_12">
    <!-- SLV -->
    <g transform="translate(511.365865 744.591274) scale(0.06 -0.06)">
     <defs>
      <path id="DejaVuSans-56" d="M 1831 0 
L 50 4666 
L 709 4666 
L 2188 738 
L 3669 4666 
L 4325 4666 
L 2547 0 
L 1831 0 
z
" transform="scale(0.015625)"/>
     </defs>
     <use xlink:href="#DejaVuSans-53"/>
     <use xlink:href="#DejaVuSans-4c" x="63.476562"/>
     <use xlink:href="#DejaVuSans-56" x="108.189453"/>
    </g>
   </g>
   <g id="text_13">
    <!-- MEX -->
    <g transform="translate(393.781507 406.020136) scale(0.06 -0.06)">
     <defs>
      <path id="DejaVuSans-4d" d="M 628 4666 
L 1569 4666 
L 2759 1491 
L 3956 4666 
L 4897 4666 
L 4897 0 
L 4281 0 
L 4281 4097 
L 3078 897 
L 2444 897 
L 1241 4097 
L 1241 0 
L 628 0 
L 628 4666 
z
" transform="scale(0.015625)"/>
      <path id="DejaVuSans-58" d="M 403 4666 
L 1081 4666 
L 2241 2931 
L 3406 4666 
L 4084 4666 
L 2584 2425 
L 4184 0 
L 3506 0 
L 2194 1984 
L 872 0 
L 191 0 
L 1856 2491 
L 403 4666 
z
" transform="scale(0.015625)"/>
     </defs>
     <use xlink:href="#DejaVuSans-4d"/>
     <use xlink:href="#DejaVuSans-45" x="86.279297"/>
     <use xlink:href="#DejaVuSans-58" x="149.462891"/>
    </g>
   </g>
   <g id="text_14">
    <!-- CRI -->
    <g transform="translate(784.201818 848.259416) scale(0.06 -0.06)">
     <use xlink:href="#DejaVuSans-43"/>
     <use xlink:href="#DejaVuSans-52" x="69.824219"/>
     <use xlink:href="#DejaVuSans-49" x="139.306641"/>
    </g>
   </g>
   <g id="text_15">
    <!-- PAN -->
    <g transform="translate(895.536076 927.436187) scale(0.06 -0.06)">
     <use xlink:href="#DejaVuSans-50"/>
     <use xlink:href="#DejaVuSans-41" x="53.927734"/>
     <use xlink:href="#DejaVuSans-4e" x="122.335938"/>
    </g>
   </g>
   <g id="text_16">
    <!-- GTM -->
    <g transform="translate(515.672839 513.433936) scale(0.06 -0.06)">
     <defs>
      <path id="DejaVuSans-54" d="M -19 4666 
L 3928 4666 
L 3928 4134 
L 2272 4134 
L 2272 0 
L 1638 0 
L 1638 4134 
L -19 4134 
L -19 4666 
z
" transform="scale(0.015625)"/>
     </defs>
     <use xlink:href="#DejaVuSans-47"/>
     <use xlink:href="#DejaVuSans-54" x="73.865234"/>
     <use xlink:href="#DejaVuSans-4d" x="134.949219"/>
    </g>
   </g>
   <g id="text_17">
    <!-- VEN -->
    <g transform="translate(1053.30386 958.252463) scale(0.06 -0.06)">
     <use xlink:href="#DejaVuSans-56"/>
     <use xlink:href="#DejaVuSans-45" x="68.408203"/>
     <use xlink:href="#DejaVuSans-4e" x="131.591797"/>
    </g>
   </g>
   <g id="text_18">
    <!-- CHL -->
    <g transform="translate(964.534559 1176.849764) scale(0.06 -0.06)">
     <use xlink:href="#DejaVuSans-43"/>
     <use xlink:href="#DejaVuSans-48" x="69.824219"/>
     <use xlink:href="#DejaVuSans-4c" x="145.019531"/>
    </g>
   </g>
   <g id="text_19">
    <!-- PER -->
    <g transform="translate(959.754249 1098.912524) scale(0.06 -0.06)">
     <use xlink:href="#DejaVuSans-50"/>
     <use xlink:href="#DejaVuSans-45" x="60.302734"/>
     <use xlink:href="#DejaVuSans-52" x="123.486328"/>
    </g>
   </g>
   <g id="text_20">
    <!-- USA -->
    <g transform="translate(428.345046 302.623634) scale(0.06 -0.06)">
     <use xlink:href="#DejaVuSans-55"/>
     <use xlink:href="#DejaVuSans-53" x="73.193359"/>
     <use xlink:href="#DejaVuSans-41" x="138.544922"/>
    </g>
   </g>
   <g id="text_21">
    <!-- COL -->
    <g transform="translate(972.651261 1008.777867) scale(0.06 -0.06)">
     <use xlink:href="#DejaVuSans-43"/>
     <use xlink:href="#DejaVuSans-4f" x="69.824219"/>
     <use xlink:href="#DejaVuSans-4c" x="148.535156"/>
    </g>
   </g>
   <g id="text_22">
    <!-- GUF -->
    <g transform="translate(1099.438997 1024.446771) scale(0.06 -0.06)">
     <defs>
      <path id="DejaVuSans-46" d="M 628 4666 
L 3309 4666 
L 3309 4134 
L 1259 4134 
L 1259 2759 
L 3109 2759 
L 3109 2228 
L 1259 2228 
L 1259 0 
L 628 0 
L 628 4666 
z
" transform="scale(0.015625)"/>
     </defs>
     <use xlink:href="#DejaVuSans-47"/>
     <use xlink:href="#DejaVuSans-55" x="77.490234"/>
     <use xlink:href="#DejaVuSans-46" x="150.683594"/>
    </g>
   </g>
   <g id="text_23">
    <!-- GUY -->
    <g transform="translate(1039.901749 1016.537467) scale(0.06 -0.06)">
     <use xlink:href="#DejaVuSans-47"/>
     <use xlink:href="#DejaVuSans-55" x="77.490234"/>
     <use xlink:href="#DejaVuSans-59" x="150.683594"/>
    </g>
   </g>
   <g id="text_24">
    <!-- D:1.29 -->
    <g transform="translate(1030.916256 1153.073827) scale(0.04 -0.04)">
     <defs>
      <path id="DejaVuSans-3a" d="M 750 794 
L 1409 794 
L 1409 0 
L 750 0 
L 750 794 
z
M 750 3309 
L 1409 3309 
L 1409 2516 
L 750 2516 
L 750 3309 
z
" transform="scale(0.015625)"/>
      <path id="DejaVuSans-31" d="M 794 531 
L 1825 531 
L 1825 4091 
L 703 3866 
L 703 4441 
L 1819 4666 
L 2450 4666 
L 2450 531 
L 3481 531 
L 3481 0 
L 794 0 
L 794 531 
z
" transform="scale(0.015625)"/>
      <path id="DejaVuSans-2e" d="M 684 794 
L 1344 794 
L 1344 0 
L 684 0 
L 684 794 
z
" transform="scale(0.015625)"/>
      <path id="DejaVuSans-32" d="M 1228 531 
L 3431 531 
L 3431 0 
L 469 0 
L 469 531 
Q 828 903 1448 1529 
Q 2069 2156 2228 2338 
Q 2531 2678 2651 2914 
Q 2772 3150 2772 3378 
Q 2772 3750 2511 3984 
Q 2250 4219 1831 4219 
Q 1534 4219 1204 4116 
Q 875 4013 500 3803 
L 500 4441 
Q 881 4594 1212 4672 
Q 1544 4750 1819 4750 
Q 2544 4750 2975 4387 
Q 3406 4025 3406 3419 
Q 3406 3131 3298 2873 
Q 3191 2616 2906 2266 
Q 2828 2175 2409 1742 
Q 1991 1309 1228 531 
z
" transform="scale(0.015625)"/>
      <path id="DejaVuSans-39" d="M 703 97 
L 703 672 
Q 941 559 1184 500 
Q 1428 441 1663 441 
Q 2288 441 2617 861 
Q 2947 1281 2994 2138 
Q 2813 1869 2534 1725 
Q 2256 1581 1919 1581 
Q 1219 1581 811 2004 
Q 403 2428 403 3163 
Q 403 3881 828 4315 
Q 1253 4750 1959 4750 
Q 2769 4750 3195 4129 
Q 3622 3509 3622 2328 
Q 3622 1225 3098 567 
Q 2575 -91 1691 -91 
Q 1453 -91 1209 -44 
Q 966 3 703 97 
z
M 1959 2075 
Q 2384 2075 2632 2365 
Q 2881 2656 2881 3163 
Q 2881 3666 2632 3958 
Q 2384 4250 1959 4250 
Q 1534 4250 1286 3958 
Q 1038 3666 1038 3163 
Q 1038 2656 1286 2365 
Q 1534 2075 1959 2075 
z
" transform="scale(0.015625)"/>
     </defs>
     <use xlink:href="#DejaVuSans-44"/>
     <use xlink:href="#DejaVuSans-3a" x="77.001953"/>
     <use xlink:href="#DejaVuSans-31" x="110.693359"/>
     <use xlink:href="#DejaVuSans-2e" x="174.316406"/>
     <use xlink:href="#DejaVuSans-32" x="206.103516"/>
     <use xlink:href="#DejaVuSans-39" x="269.726562"/>
    </g>
    <!-- A:7.83 -->
    <g transform="translate(1030.916256 1157.552952) scale(0.04 -0.04)">
     <defs>
      <path id="DejaVuSans-37" d="M 525 4666 
L 3525 4666 
L 3525 4397 
L 1831 0 
L 1172 0 
L 2766 4134 
L 525 4134 
L 525 4666 
z
" transform="scale(0.015625)"/>
      <path id="DejaVuSans-38" d="M 2034 2216 
Q 1584 2216 1326 1975 
Q 1069 1734 1069 1313 
Q 1069 891 1326 650 
Q 1584 409 2034 409 
Q 2484 409 2743 651 
Q 3003 894 3003 1313 
Q 3003 1734 2745 1975 
Q 2488 2216 2034 2216 
z
M 1403 2484 
Q 997 2584 770 2862 
Q 544 3141 544 3541 
Q 544 4100 942 4425 
Q 1341 4750 2034 4750 
Q 2731 4750 3128 4425 
Q 3525 4100 3525 3541 
Q 3525 3141 3298 2862 
Q 3072 2584 2669 2484 
Q 3125 2378 3379 2068 
Q 3634 1759 3634 1313 
Q 3634 634 3220 271 
Q 2806 -91 2034 -91 
Q 1263 -91 848 271 
Q 434 634 434 1313 
Q 434 1759 690 2068 
Q 947 2378 1403 2484 
z
M 1172 3481 
Q 1172 3119 1398 2916 
Q 1625 2713 2034 2713 
Q 2441 2713 2670 2916 
Q 2900 3119 2900 3481 
Q 2900 3844 2670 4047 
Q 2441 4250 2034 4250 
Q 1625 4250 1398 4047 
Q 1172 3844 1172 3481 
z
" transform="scale(0.015625)"/>
      <path id="DejaVuSans-33" d="M 2597 2516 
Q 3050 2419 3304 2112 
Q 3559 1806 3559 1356 
Q 3559 666 3084 287 
Q 2609 -91 1734 -91 
Q 1441 -91 1130 -33 
Q 819 25 488 141 
L 488 750 
Q 750 597 1062 519 
Q 1375 441 1716 441 
Q 2309 441 2620 675 
Q 2931 909 2931 1356 
Q 2931 1769 2642 2001 
Q 2353 2234 1838 2234 
L 1294 2234 
L 1294 2753 
L 1863 2753 
Q 2328 2753 2575 2939 
Q 2822 3125 2822 3475 
Q 2822 3834 2567 4026 
Q 2313 4219 1838 4219 
Q 1578 4219 1281 4162 
Q 984 4106 628 3988 
L 628 4550 
Q 988 4650 1302 4700 
Q 1616 4750 1894 4750 
Q 2613 4750 3031 4423 
Q 3450 4097 3450 3541 
Q 3450 3153 3228 2886 
Q 3006 2619 2597 2516 
z
" transform="scale(0.015625)"/>
     </defs>
     <use xlink:href="#DejaVuSans-41"/>
     <use xlink:href="#DejaVuSans-3a" x="66.658203"/>
     <use xlink:href="#DejaVuSans-37" x="100.349609"/>
     <use xlink:href="#DejaVuSans-2e" x="163.972656"/>
     <use xlink:href="#DejaVuSans-38" x="195.759766"/>
     <use xlink:href="#DejaVuSans-33" x="259.382812"/>
    </g>
   </g>
   <g id="text_25">
    <!-- A:7.83 -->
    <g transform="translate(1030.916256 1157.552952) scale(0.04 -0.04)">
     <use xlink:href="#DejaVuSans-41"/>
     <use xlink:href="#DejaVuSans-3a" x="66.658203"/>
     <use xlink:href="#DejaVuSans-37" x="100.349609"/>
     <use xlink:href="#DejaVuSans-2e" x="163.972656"/>
     <use xlink:href="#DejaVuSans-38" x="195.759766"/>
     <use xlink:href="#DejaVuSans-33" x="259.382812"/>
    </g>
   </g>
   <g id="text_26">
    <!-- D:62.16 -->
    <g transform="translate(1047.022852 1123.992162) scale(0.04 -0.04)">
     <defs>
      <path id="DejaVuSans-36" d="M 2113 2584 
Q 1688 2584 1439 2293 
Q 1191 2003 1191 1497 
Q 1191 994 1439 701 
Q 1688 409 2113 409 
Q 2538 409 2786 701 
Q 3034 994 3034 1497 
Q 3034 2003 2786 2293 
Q 2538 2584 2113 2584 
z
M 3366 4563 
L 3366 3988 
Q 3128 4100 2886 4159 
Q 2644 4219 2406 4219 
Q 1781 4219 1451 3797 
Q 1122 3375 1075 2522 
Q 1259 2794 1537 2939 
Q 1816 3084 2150 3084 
Q 2853 3084 3261 2657 
Q 3669 2231 3669 1497 
Q 3669 778 3244 343 
Q 2819 -91 2113 -91 
Q 1303 -91 875 529 
Q 447 1150 447 2328 
Q 447 3434 972 4092 
Q 1497 4750 2381 4750 
Q 2619 4750 2861 4703 
Q 3103 4656 3366 4563 
z
" transform="scale(0.015625)"/>
     </defs>
     <use xlink:href="#DejaVuSans-44"/>
     <use xlink:href="#DejaVuSans-3a" x="77.001953"/>
     <use xlink:href="#DejaVuSans-36" x="110.693359"/>
     <use xlink:href="#DejaVuSans-32" x="174.316406"/>
     <use xlink:href="#DejaVuSans-2e" x="237.939453"/>
     <use xlink:href="#DejaVuSans-31" x="269.726562"/>
     <use xlink:href="#DejaVuSans-36" x="333.349609"/>
    </g>
    <!-- A:7.33 -->
    <g transform="translate(1047.022852 1128.471287) scale(0.04 -0.04)">
     <use xlink:href="#DejaVuSans-41"/>
     <use xlink:href="#DejaVuSans-3a" x="66.658203"/>
     <use xlink:href="#DejaVuSans-37" x="100.349609"/>
     <use xlink:href="#DejaVuSans-2e" x="163.972656"/>
     <use xlink:href="#DejaVuSans-33" x="195.759766"/>
     <use xlink:href="#DejaVuSans-33" x="259.382812"/>
    </g>
   </g>
   <g id="text_27">
    <!-- A:7.33 -->
    <g transform="translate(1047.022852 1128.471287) scale(0.04 -0.04)">
     <use xlink:href="#DejaVuSans-41"/>
     <use xlink:href="#DejaVuSans-3a" x="66.658203"/>
     <use xlink:href="#DejaVuSans-37" x="100.349609"/>
     <use xlink:href="#DejaVuSans-2e" x="163.972656"/>
     <use xlink:href="#DejaVuSans-33" x="195.759766"/>
     <use xlink:href="#DejaVuSans-33" x="259.382812"/>
    </g>
   </g>
   <g id="text_28">
    <!-- A:11.87 -->
    <g transform="translate(1005.113806 1180.282833) scale(0.04 -0.04)">
     <use xlink:href="#DejaVuSans-41"/>
     <use xlink:href="#DejaVuSans-3a" x="66.658203"/>
     <use xlink:href="#DejaVuSans-31" x="100.349609"/>
     <use xlink:href="#DejaVuSans-31" x="163.972656"/>
     <use xlink:href="#DejaVuSans-2e" x="227.595703"/>
     <use xlink:href="#DejaVuSans-38" x="259.382812"/>
     <use xlink:href="#DejaVuSans-37" x="323.005859"/>
    </g>
   </g>
   <g id="text_29">
    <!-- A:5.95 -->
    <g transform="translate(1059.446195 1161.222792) scale(0.04 -0.04)">
     <defs>
      <path id="DejaVuSans-35" d="M 691 4666 
L 3169 4666 
L 3169 4134 
L 1269 4134 
L 1269 2991 
Q 1406 3038 1543 3061 
Q 1681 3084 1819 3084 
Q 2600 3084 3056 2656 
Q 3513 2228 3513 1497 
Q 3513 744 3044 326 
Q 2575 -91 1722 -91 
Q 1428 -91 1123 -41 
Q 819 9 494 109 
L 494 744 
Q 775 591 1075 516 
Q 1375 441 1709 441 
Q 2250 441 2565 725 
Q 2881 1009 2881 1497 
Q 2881 1984 2565 2268 
Q 2250 2553 1709 2553 
Q 1456 2553 1204 2497 
Q 953 2441 691 2322 
L 691 4666 
z
" transform="scale(0.015625)"/>
     </defs>
     <use xlink:href="#DejaVuSans-41"/>
     <use xlink:href="#DejaVuSans-3a" x="66.658203"/>
     <use xlink:href="#DejaVuSans-35" x="100.349609"/>
     <use xlink:href="#DejaVuSans-2e" x="163.972656"/>
     <use xlink:href="#DejaVuSans-39" x="195.759766"/>
     <use xlink:href="#DejaVuSans-35" x="259.382812"/>
    </g>
   </g>
   <g id="text_30">
    <!-- A:9.67 -->
    <g transform="translate(1071.948876 1191.224762) scale(0.04 -0.04)">
     <use xlink:href="#DejaVuSans-41"/>
     <use xlink:href="#DejaVuSans-3a" x="66.658203"/>
     <use xlink:href="#DejaVuSans-39" x="100.349609"/>
     <use xlink:href="#DejaVuSans-2e" x="163.972656"/>
     <use xlink:href="#DejaVuSans-36" x="195.759766"/>
     <use xlink:href="#DejaVuSans-37" x="259.382812"/>
    </g>
   </g>
   <g id="text_31">
    <!-- D:1.74 -->
    <g transform="translate(1038.268554 1096.173586) scale(0.04 -0.04)">
     <defs>
      <path id="DejaVuSans-34" d="M 2419 4116 
L 825 1625 
L 2419 1625 
L 2419 4116 
z
M 2253 4666 
L 3047 4666 
L 3047 1625 
L 3713 1625 
L 3713 1100 
L 3047 1100 
L 3047 0 
L 2419 0 
L 2419 1100 
L 313 1100 
L 313 1709 
L 2253 4666 
z
" transform="scale(0.015625)"/>
     </defs>
     <use xlink:href="#DejaVuSans-44"/>
     <use xlink:href="#DejaVuSans-3a" x="77.001953"/>
     <use xlink:href="#DejaVuSans-31" x="110.693359"/>
     <use xlink:href="#DejaVuSans-2e" x="174.316406"/>
     <use xlink:href="#DejaVuSans-37" x="206.103516"/>
     <use xlink:href="#DejaVuSans-34" x="269.726562"/>
    </g>
    <!-- A:14.46 -->
    <g transform="translate(1038.268554 1100.652711) scale(0.04 -0.04)">
     <use xlink:href="#DejaVuSans-41"/>
     <use xlink:href="#DejaVuSans-3a" x="66.658203"/>
     <use xlink:href="#DejaVuSans-31" x="100.349609"/>
     <use xlink:href="#DejaVuSans-34" x="163.972656"/>
     <use xlink:href="#DejaVuSans-2e" x="227.595703"/>
     <use xlink:href="#DejaVuSans-34" x="259.382812"/>
     <use xlink:href="#DejaVuSans-36" x="323.005859"/>
    </g>
   </g>
   <g id="text_32">
    <!-- A:14.46 -->
    <g transform="translate(1038.268554 1100.652711) scale(0.04 -0.04)">
     <use xlink:href="#DejaVuSans-41"/>
     <use xlink:href="#DejaVuSans-3a" x="66.658203"/>
     <use xlink:href="#DejaVuSans-31" x="100.349609"/>
     <use xlink:href="#DejaVuSans-34" x="163.972656"/>
     <use xlink:href="#DejaVuSans-2e" x="227.595703"/>
     <use xlink:href="#DejaVuSans-34" x="259.382812"/>
     <use xlink:href="#DejaVuSans-36" x="323.005859"/>
    </g>
   </g>
   <g id="text_33">
    <!-- D:4.74 -->
    <g transform="translate(996.359509 1147.985132) scale(0.04 -0.04)">
     <use xlink:href="#DejaVuSans-44"/>
     <use xlink:href="#DejaVuSans-3a" x="77.001953"/>
     <use xlink:href="#DejaVuSans-34" x="110.693359"/>
     <use xlink:href="#DejaVuSans-2e" x="174.316406"/>
     <use xlink:href="#DejaVuSans-37" x="206.103516"/>
     <use xlink:href="#DejaVuSans-34" x="269.726562"/>
    </g>
    <!-- A:13.25 -->
    <g transform="translate(996.359509 1152.464257) scale(0.04 -0.04)">
     <use xlink:href="#DejaVuSans-41"/>
     <use xlink:href="#DejaVuSans-3a" x="66.658203"/>
     <use xlink:href="#DejaVuSans-31" x="100.349609"/>
     <use xlink:href="#DejaVuSans-33" x="163.972656"/>
     <use xlink:href="#DejaVuSans-2e" x="227.595703"/>
     <use xlink:href="#DejaVuSans-32" x="259.382812"/>
     <use xlink:href="#DejaVuSans-35" x="323.005859"/>
    </g>
   </g>
   <g id="text_34">
    <!-- A:13.25 -->
    <g transform="translate(996.359509 1152.464257) scale(0.04 -0.04)">
     <use xlink:href="#DejaVuSans-41"/>
     <use xlink:href="#DejaVuSans-3a" x="66.658203"/>
     <use xlink:href="#DejaVuSans-31" x="100.349609"/>
     <use xlink:href="#DejaVuSans-33" x="163.972656"/>
     <use xlink:href="#DejaVuSans-2e" x="227.595703"/>
     <use xlink:href="#DejaVuSans-32" x="259.382812"/>
     <use xlink:href="#DejaVuSans-35" x="323.005859"/>
    </g>
   </g>
   <g id="text_35">
    <!-- A:18.48 -->
    <g transform="translate(1050.691897 1133.404216) scale(0.04 -0.04)">
     <use xlink:href="#DejaVuSans-41"/>
     <use xlink:href="#DejaVuSans-3a" x="66.658203"/>
     <use xlink:href="#DejaVuSans-31" x="100.349609"/>
     <use xlink:href="#DejaVuSans-38" x="163.972656"/>
     <use xlink:href="#DejaVuSans-2e" x="227.595703"/>
     <use xlink:href="#DejaVuSans-34" x="259.382812"/>
     <use xlink:href="#DejaVuSans-38" x="323.005859"/>
    </g>
   </g>
   <g id="text_36">
    <!-- A:1.46 -->
    <g transform="translate(993.852635 1113.495638) scale(0.04 -0.04)">
     <use xlink:href="#DejaVuSans-41"/>
     <use xlink:href="#DejaVuSans-3a" x="66.658203"/>
     <use xlink:href="#DejaVuSans-31" x="100.349609"/>
     <use xlink:href="#DejaVuSans-2e" x="163.972656"/>
     <use xlink:href="#DejaVuSans-34" x="195.759766"/>
     <use xlink:href="#DejaVuSans-36" x="259.382812"/>
    </g>
   </g>
   <g id="text_37">
    <!-- D:7.91 -->
    <g transform="translate(1016.577189 1034.867519) scale(0.04 -0.04)">
     <use xlink:href="#DejaVuSans-44"/>
     <use xlink:href="#DejaVuSans-3a" x="77.001953"/>
     <use xlink:href="#DejaVuSans-37" x="110.693359"/>
     <use xlink:href="#DejaVuSans-2e" x="174.316406"/>
     <use xlink:href="#DejaVuSans-39" x="206.103516"/>
     <use xlink:href="#DejaVuSans-31" x="269.726562"/>
    </g>
    <!-- A:0.54 -->
    <g transform="translate(1016.577189 1039.346644) scale(0.04 -0.04)">
     <defs>
      <path id="DejaVuSans-30" d="M 2034 4250 
Q 1547 4250 1301 3770 
Q 1056 3291 1056 2328 
Q 1056 1369 1301 889 
Q 1547 409 2034 409 
Q 2525 409 2770 889 
Q 3016 1369 3016 2328 
Q 3016 3291 2770 3770 
Q 2525 4250 2034 4250 
z
M 2034 4750 
Q 2819 4750 3233 4129 
Q 3647 3509 3647 2328 
Q 3647 1150 3233 529 
Q 2819 -91 2034 -91 
Q 1250 -91 836 529 
Q 422 1150 422 2328 
Q 422 3509 836 4129 
Q 1250 4750 2034 4750 
z
" transform="scale(0.015625)"/>
     </defs>
     <use xlink:href="#DejaVuSans-41"/>
     <use xlink:href="#DejaVuSans-3a" x="66.658203"/>
     <use xlink:href="#DejaVuSans-30" x="100.349609"/>
     <use xlink:href="#DejaVuSans-2e" x="163.972656"/>
     <use xlink:href="#DejaVuSans-35" x="195.759766"/>
     <use xlink:href="#DejaVuSans-34" x="259.382812"/>
    </g>
   </g>
   <g id="text_38">
    <!-- A:0.54 -->
    <g transform="translate(1016.577189 1039.346644) scale(0.04 -0.04)">
     <use xlink:href="#DejaVuSans-41"/>
     <use xlink:href="#DejaVuSans-3a" x="66.658203"/>
     <use xlink:href="#DejaVuSans-30" x="100.349609"/>
     <use xlink:href="#DejaVuSans-2e" x="163.972656"/>
     <use xlink:href="#DejaVuSans-35" x="195.759766"/>
     <use xlink:href="#DejaVuSans-34" x="259.382812"/>
    </g>
   </g>
   <g id="text_39">
    <!-- D:30.76 -->
    <g transform="translate(1080.029886 1042.701971) scale(0.04 -0.04)">
     <use xlink:href="#DejaVuSans-44"/>
     <use xlink:href="#DejaVuSans-3a" x="77.001953"/>
     <use xlink:href="#DejaVuSans-33" x="110.693359"/>
     <use xlink:href="#DejaVuSans-30" x="174.316406"/>
     <use xlink:href="#DejaVuSans-2e" x="237.939453"/>
     <use xlink:href="#DejaVuSans-37" x="269.726562"/>
     <use xlink:href="#DejaVuSans-36" x="333.349609"/>
    </g>
    <!-- A:21.29 -->
    <g transform="translate(1080.029886 1047.181096) scale(0.04 -0.04)">
     <use xlink:href="#DejaVuSans-41"/>
     <use xlink:href="#DejaVuSans-3a" x="66.658203"/>
     <use xlink:href="#DejaVuSans-32" x="100.349609"/>
     <use xlink:href="#DejaVuSans-31" x="163.972656"/>
     <use xlink:href="#DejaVuSans-2e" x="227.595703"/>
     <use xlink:href="#DejaVuSans-32" x="259.382812"/>
     <use xlink:href="#DejaVuSans-39" x="323.005859"/>
    </g>
   </g>
   <g id="text_40">
    <!-- A:21.29 -->
    <g transform="translate(1080.029886 1047.181096) scale(0.04 -0.04)">
     <use xlink:href="#DejaVuSans-41"/>
     <use xlink:href="#DejaVuSans-3a" x="66.658203"/>
     <use xlink:href="#DejaVuSans-32" x="100.349609"/>
     <use xlink:href="#DejaVuSans-31" x="163.972656"/>
     <use xlink:href="#DejaVuSans-2e" x="227.595703"/>
     <use xlink:href="#DejaVuSans-32" x="259.382812"/>
     <use xlink:href="#DejaVuSans-39" x="323.005859"/>
    </g>
   </g>
   <g id="text_41">
    <!-- D:4.23 -->
    <g transform="translate(1050.314699 1038.747319) scale(0.04 -0.04)">
     <use xlink:href="#DejaVuSans-44"/>
     <use xlink:href="#DejaVuSans-3a" x="77.001953"/>
     <use xlink:href="#DejaVuSans-34" x="110.693359"/>
     <use xlink:href="#DejaVuSans-2e" x="174.316406"/>
     <use xlink:href="#DejaVuSans-32" x="206.103516"/>
     <use xlink:href="#DejaVuSans-33" x="269.726562"/>
    </g>
    <!-- A:3.77 -->
    <g transform="translate(1050.314699 1043.226444) scale(0.04 -0.04)">
     <use xlink:href="#DejaVuSans-41"/>
     <use xlink:href="#DejaVuSans-3a" x="66.658203"/>
     <use xlink:href="#DejaVuSans-33" x="100.349609"/>
     <use xlink:href="#DejaVuSans-2e" x="163.972656"/>
     <use xlink:href="#DejaVuSans-37" x="195.759766"/>
     <use xlink:href="#DejaVuSans-37" x="259.382812"/>
    </g>
   </g>
   <g id="text_42">
    <!-- A:3.77 -->
    <g transform="translate(1050.314699 1043.226444) scale(0.04 -0.04)">
     <use xlink:href="#DejaVuSans-41"/>
     <use xlink:href="#DejaVuSans-3a" x="66.658203"/>
     <use xlink:href="#DejaVuSans-33" x="100.349609"/>
     <use xlink:href="#DejaVuSans-2e" x="163.972656"/>
     <use xlink:href="#DejaVuSans-37" x="195.759766"/>
     <use xlink:href="#DejaVuSans-37" x="259.382812"/>
    </g>
   </g>
   <g id="text_43">
    <!-- A:18.76 -->
    <g transform="translate(1066.798492 1104.322551) scale(0.04 -0.04)">
     <use xlink:href="#DejaVuSans-41"/>
     <use xlink:href="#DejaVuSans-3a" x="66.658203"/>
     <use xlink:href="#DejaVuSans-31" x="100.349609"/>
     <use xlink:href="#DejaVuSans-38" x="163.972656"/>
     <use xlink:href="#DejaVuSans-2e" x="227.595703"/>
     <use xlink:href="#DejaVuSans-37" x="259.382812"/>
     <use xlink:href="#DejaVuSans-36" x="323.005859"/>
    </g>
   </g>
   <g id="text_44">
    <!-- D:16.84 -->
    <g transform="translate(1009.95923 1079.934848) scale(0.04 -0.04)">
     <use xlink:href="#DejaVuSans-44"/>
     <use xlink:href="#DejaVuSans-3a" x="77.001953"/>
     <use xlink:href="#DejaVuSans-31" x="110.693359"/>
     <use xlink:href="#DejaVuSans-36" x="174.316406"/>
     <use xlink:href="#DejaVuSans-2e" x="237.939453"/>
     <use xlink:href="#DejaVuSans-38" x="269.726562"/>
     <use xlink:href="#DejaVuSans-34" x="333.349609"/>
    </g>
    <!-- A:8.96 -->
    <g transform="translate(1009.95923 1084.413973) scale(0.04 -0.04)">
     <use xlink:href="#DejaVuSans-41"/>
     <use xlink:href="#DejaVuSans-3a" x="66.658203"/>
     <use xlink:href="#DejaVuSans-38" x="100.349609"/>
     <use xlink:href="#DejaVuSans-2e" x="163.972656"/>
     <use xlink:href="#DejaVuSans-39" x="195.759766"/>
     <use xlink:href="#DejaVuSans-36" x="259.382812"/>
    </g>
   </g>
   <g id="text_45">
    <!-- A:8.96 -->
    <g transform="translate(1009.95923 1084.413973) scale(0.04 -0.04)">
     <use xlink:href="#DejaVuSans-41"/>
     <use xlink:href="#DejaVuSans-3a" x="66.658203"/>
     <use xlink:href="#DejaVuSans-38" x="100.349609"/>
     <use xlink:href="#DejaVuSans-2e" x="163.972656"/>
     <use xlink:href="#DejaVuSans-39" x="195.759766"/>
     <use xlink:href="#DejaVuSans-36" x="259.382812"/>
    </g>
   </g>
   <g id="text_46">
    <!-- A:15.39 -->
    <g transform="translate(1065.140908 1046.948701) scale(0.04 -0.04)">
     <use xlink:href="#DejaVuSans-41"/>
     <use xlink:href="#DejaVuSans-3a" x="66.658203"/>
     <use xlink:href="#DejaVuSans-31" x="100.349609"/>
     <use xlink:href="#DejaVuSans-35" x="163.972656"/>
     <use xlink:href="#DejaVuSans-2e" x="227.595703"/>
     <use xlink:href="#DejaVuSans-33" x="259.382812"/>
     <use xlink:href="#DejaVuSans-39" x="323.005859"/>
    </g>
   </g>
   <g id="text_47">
    <!-- D:84.03 -->
    <g transform="translate(1079.301173 1129.845397) scale(0.04 -0.04)">
     <use xlink:href="#DejaVuSans-44"/>
     <use xlink:href="#DejaVuSans-3a" x="77.001953"/>
     <use xlink:href="#DejaVuSans-38" x="110.693359"/>
     <use xlink:href="#DejaVuSans-34" x="174.316406"/>
     <use xlink:href="#DejaVuSans-2e" x="237.939453"/>
     <use xlink:href="#DejaVuSans-30" x="269.726562"/>
     <use xlink:href="#DejaVuSans-33" x="333.349609"/>
    </g>
    <!-- A:13.42 -->
    <g transform="translate(1079.301173 1134.324522) scale(0.04 -0.04)">
     <use xlink:href="#DejaVuSans-41"/>
     <use xlink:href="#DejaVuSans-3a" x="66.658203"/>
     <use xlink:href="#DejaVuSans-31" x="100.349609"/>
     <use xlink:href="#DejaVuSans-33" x="163.972656"/>
     <use xlink:href="#DejaVuSans-2e" x="227.595703"/>
     <use xlink:href="#DejaVuSans-34" x="259.382812"/>
     <use xlink:href="#DejaVuSans-32" x="323.005859"/>
    </g>
   </g>
   <g id="text_48">
    <!-- A:13.42 -->
    <g transform="translate(1079.301173 1134.324522) scale(0.04 -0.04)">
     <use xlink:href="#DejaVuSans-41"/>
     <use xlink:href="#DejaVuSans-3a" x="66.658203"/>
     <use xlink:href="#DejaVuSans-31" x="100.349609"/>
     <use xlink:href="#DejaVuSans-33" x="163.972656"/>
     <use xlink:href="#DejaVuSans-2e" x="227.595703"/>
     <use xlink:href="#DejaVuSans-34" x="259.382812"/>
     <use xlink:href="#DejaVuSans-32" x="323.005859"/>
    </g>
   </g>
   <g id="text_49">
    <!-- D:38.09 -->
    <g transform="translate(1056.935598 1009.604817) scale(0.04 -0.04)">
     <use xlink:href="#DejaVuSans-44"/>
     <use xlink:href="#DejaVuSans-3a" x="77.001953"/>
     <use xlink:href="#DejaVuSans-33" x="110.693359"/>
     <use xlink:href="#DejaVuSans-38" x="174.316406"/>
     <use xlink:href="#DejaVuSans-2e" x="237.939453"/>
     <use xlink:href="#DejaVuSans-30" x="269.726562"/>
     <use xlink:href="#DejaVuSans-39" x="333.349609"/>
    </g>
    <!-- A:18.88 -->
    <g transform="translate(1056.935598 1014.083942) scale(0.04 -0.04)">
     <use xlink:href="#DejaVuSans-41"/>
     <use xlink:href="#DejaVuSans-3a" x="66.658203"/>
     <use xlink:href="#DejaVuSans-31" x="100.349609"/>
     <use xlink:href="#DejaVuSans-38" x="163.972656"/>
     <use xlink:href="#DejaVuSans-2e" x="227.595703"/>
     <use xlink:href="#DejaVuSans-38" x="259.382812"/>
     <use xlink:href="#DejaVuSans-38" x="323.005859"/>
    </g>
   </g>
   <g id="text_50">
    <!-- A:18.88 -->
    <g transform="translate(1056.935598 1014.083942) scale(0.04 -0.04)">
     <use xlink:href="#DejaVuSans-41"/>
     <use xlink:href="#DejaVuSans-3a" x="66.658203"/>
     <use xlink:href="#DejaVuSans-31" x="100.349609"/>
     <use xlink:href="#DejaVuSans-38" x="163.972656"/>
     <use xlink:href="#DejaVuSans-2e" x="227.595703"/>
     <use xlink:href="#DejaVuSans-38" x="259.382812"/>
     <use xlink:href="#DejaVuSans-38" x="323.005859"/>
    </g>
   </g>
   <g id="text_51">
    <!-- A:28.98 -->
    <g transform="translate(507.939345 447.947636) scale(0.04 -0.04)">
     <use xlink:href="#DejaVuSans-41"/>
     <use xlink:href="#DejaVuSans-3a" x="66.658203"/>
     <use xlink:href="#DejaVuSans-32" x="100.349609"/>
     <use xlink:href="#DejaVuSans-38" x="163.972656"/>
     <use xlink:href="#DejaVuSans-2e" x="227.595703"/>
     <use xlink:href="#DejaVuSans-39" x="259.382812"/>
     <use xlink:href="#DejaVuSans-38" x="323.005859"/>
    </g>
   </g>
   <g id="text_52">
    <!-- A:19.98 -->
    <g transform="translate(446.944929 394.240736) scale(0.04 -0.04)">
     <use xlink:href="#DejaVuSans-41"/>
     <use xlink:href="#DejaVuSans-3a" x="66.658203"/>
     <use xlink:href="#DejaVuSans-31" x="100.349609"/>
     <use xlink:href="#DejaVuSans-39" x="163.972656"/>
     <use xlink:href="#DejaVuSans-2e" x="227.595703"/>
     <use xlink:href="#DejaVuSans-39" x="259.382812"/>
     <use xlink:href="#DejaVuSans-38" x="323.005859"/>
    </g>
   </g>
   <g id="text_53">
    <!-- A:0.27 -->
    <g transform="translate(437.101519 270.055526) scale(0.04 -0.04)">
     <use xlink:href="#DejaVuSans-41"/>
     <use xlink:href="#DejaVuSans-3a" x="66.658203"/>
     <use xlink:href="#DejaVuSans-30" x="100.349609"/>
     <use xlink:href="#DejaVuSans-2e" x="163.972656"/>
     <use xlink:href="#DejaVuSans-32" x="195.759766"/>
     <use xlink:href="#DejaVuSans-37" x="259.382812"/>
    </g>
   </g>
   <g id="text_54">
    <!-- A:5.75 -->
    <g transform="translate(968.050185 1136.225519) scale(0.04 -0.04)">
     <use xlink:href="#DejaVuSans-41"/>
     <use xlink:href="#DejaVuSans-3a" x="66.658203"/>
     <use xlink:href="#DejaVuSans-35" x="100.349609"/>
     <use xlink:href="#DejaVuSans-2e" x="163.972656"/>
     <use xlink:href="#DejaVuSans-37" x="195.759766"/>
     <use xlink:href="#DejaVuSans-35" x="259.382812"/>
    </g>
   </g>
   <g id="text_55">
    <!-- A:13.55 -->
    <g transform="translate(925.081196 1030.025873) scale(0.04 -0.04)">
     <use xlink:href="#DejaVuSans-41"/>
     <use xlink:href="#DejaVuSans-3a" x="66.658203"/>
     <use xlink:href="#DejaVuSans-31" x="100.349609"/>
     <use xlink:href="#DejaVuSans-33" x="163.972656"/>
     <use xlink:href="#DejaVuSans-2e" x="227.595703"/>
     <use xlink:href="#DejaVuSans-35" x="259.382812"/>
     <use xlink:href="#DejaVuSans-35" x="323.005859"/>
    </g>
   </g>
   <g id="text_56">
    <!-- A:8.02 -->
    <g transform="translate(940.114762 966.451402) scale(0.04 -0.04)">
     <use xlink:href="#DejaVuSans-41"/>
     <use xlink:href="#DejaVuSans-3a" x="66.658203"/>
     <use xlink:href="#DejaVuSans-38" x="100.349609"/>
     <use xlink:href="#DejaVuSans-2e" x="163.972656"/>
     <use xlink:href="#DejaVuSans-30" x="195.759766"/>
     <use xlink:href="#DejaVuSans-32" x="259.382812"/>
    </g>
   </g>
   <g id="text_57">
    <!-- A:4.22 -->
    <g transform="translate(972.16127 1052.18957) scale(0.04 -0.04)">
     <use xlink:href="#DejaVuSans-41"/>
     <use xlink:href="#DejaVuSans-3a" x="66.658203"/>
     <use xlink:href="#DejaVuSans-34" x="100.349609"/>
     <use xlink:href="#DejaVuSans-2e" x="163.972656"/>
     <use xlink:href="#DejaVuSans-32" x="195.759766"/>
     <use xlink:href="#DejaVuSans-32" x="259.382812"/>
    </g>
   </g>
   <g id="text_58">
    <!-- A:0.91 -->
    <g transform="translate(1019.137638 981.85954) scale(0.04 -0.04)">
     <use xlink:href="#DejaVuSans-41"/>
     <use xlink:href="#DejaVuSans-3a" x="66.658203"/>
     <use xlink:href="#DejaVuSans-30" x="100.349609"/>
     <use xlink:href="#DejaVuSans-2e" x="163.972656"/>
     <use xlink:href="#DejaVuSans-39" x="195.759766"/>
     <use xlink:href="#DejaVuSans-31" x="259.382812"/>
    </g>
   </g>
   <g id="text_59">
    <!-- D:0.03 -->
    <g transform="translate(770.804647 776.209463) scale(0.04 -0.04)">
     <use xlink:href="#DejaVuSans-44"/>
     <use xlink:href="#DejaVuSans-3a" x="77.001953"/>
     <use xlink:href="#DejaVuSans-30" x="110.693359"/>
     <use xlink:href="#DejaVuSans-2e" x="174.316406"/>
     <use xlink:href="#DejaVuSans-30" x="206.103516"/>
     <use xlink:href="#DejaVuSans-33" x="269.726562"/>
    </g>
    <!-- A:1.55 -->
    <g transform="translate(770.804647 780.688588) scale(0.04 -0.04)">
     <use xlink:href="#DejaVuSans-41"/>
     <use xlink:href="#DejaVuSans-3a" x="66.658203"/>
     <use xlink:href="#DejaVuSans-31" x="100.349609"/>
     <use xlink:href="#DejaVuSans-2e" x="163.972656"/>
     <use xlink:href="#DejaVuSans-35" x="195.759766"/>
     <use xlink:href="#DejaVuSans-35" x="259.382812"/>
    </g>
   </g>
   <g id="text_60">
    <!-- A:1.55 -->
    <g transform="translate(770.804647 780.688588) scale(0.04 -0.04)">
     <use xlink:href="#DejaVuSans-41"/>
     <use xlink:href="#DejaVuSans-3a" x="66.658203"/>
     <use xlink:href="#DejaVuSans-31" x="100.349609"/>
     <use xlink:href="#DejaVuSans-2e" x="163.972656"/>
     <use xlink:href="#DejaVuSans-35" x="195.759766"/>
     <use xlink:href="#DejaVuSans-35" x="259.382812"/>
    </g>
   </g>
   <g id="text_61">
    <!-- A:11.77 -->
    <g transform="translate(845.358244 886.192176) scale(0.04 -0.04)">
     <use xlink:href="#DejaVuSans-41"/>
     <use xlink:href="#DejaVuSans-3a" x="66.658203"/>
     <use xlink:href="#DejaVuSans-31" x="100.349609"/>
     <use xlink:href="#DejaVuSans-31" x="163.972656"/>
     <use xlink:href="#DejaVuSans-2e" x="227.595703"/>
     <use xlink:href="#DejaVuSans-37" x="259.382812"/>
     <use xlink:href="#DejaVuSans-37" x="323.005859"/>
    </g>
   </g>
   <g id="text_62">
    <!-- A:30.09 -->
    <g transform="translate(918.463237 1075.093202) scale(0.04 -0.04)">
     <use xlink:href="#DejaVuSans-41"/>
     <use xlink:href="#DejaVuSans-3a" x="66.658203"/>
     <use xlink:href="#DejaVuSans-33" x="100.349609"/>
     <use xlink:href="#DejaVuSans-30" x="163.972656"/>
     <use xlink:href="#DejaVuSans-2e" x="227.595703"/>
     <use xlink:href="#DejaVuSans-30" x="259.382812"/>
     <use xlink:href="#DejaVuSans-39" x="323.005859"/>
    </g>
   </g>
   <g id="text_63">
    <!-- A:0.50 -->
    <g transform="translate(1090.795644 1022.55875) scale(0.04 -0.04)">
     <use xlink:href="#DejaVuSans-41"/>
     <use xlink:href="#DejaVuSans-3a" x="66.658203"/>
     <use xlink:href="#DejaVuSans-30" x="100.349609"/>
     <use xlink:href="#DejaVuSans-2e" x="163.972656"/>
     <use xlink:href="#DejaVuSans-35" x="195.759766"/>
     <use xlink:href="#DejaVuSans-30" x="259.382812"/>
    </g>
   </g>
   <g id="text_64">
    <!-- A:21.56 -->
    <g transform="translate(519.486774 627.35698) scale(0.04 -0.04)">
     <use xlink:href="#DejaVuSans-41"/>
     <use xlink:href="#DejaVuSans-3a" x="66.658203"/>
     <use xlink:href="#DejaVuSans-32" x="100.349609"/>
     <use xlink:href="#DejaVuSans-31" x="163.972656"/>
     <use xlink:href="#DejaVuSans-2e" x="227.595703"/>
     <use xlink:href="#DejaVuSans-35" x="259.382812"/>
     <use xlink:href="#DejaVuSans-36" x="323.005859"/>
    </g>
   </g>
   <g id="text_65">
    <!-- D:1.65 -->
    <g transform="translate(597.610761 554.770472) scale(0.04 -0.04)">
     <use xlink:href="#DejaVuSans-44"/>
     <use xlink:href="#DejaVuSans-3a" x="77.001953"/>
     <use xlink:href="#DejaVuSans-31" x="110.693359"/>
     <use xlink:href="#DejaVuSans-2e" x="174.316406"/>
     <use xlink:href="#DejaVuSans-36" x="206.103516"/>
     <use xlink:href="#DejaVuSans-35" x="269.726562"/>
    </g>
    <!-- A:13.63 -->
    <g transform="translate(597.610761 559.249597) scale(0.04 -0.04)">
     <use xlink:href="#DejaVuSans-41"/>
     <use xlink:href="#DejaVuSans-3a" x="66.658203"/>
     <use xlink:href="#DejaVuSans-31" x="100.349609"/>
     <use xlink:href="#DejaVuSans-33" x="163.972656"/>
     <use xlink:href="#DejaVuSans-2e" x="227.595703"/>
     <use xlink:href="#DejaVuSans-36" x="259.382812"/>
     <use xlink:href="#DejaVuSans-33" x="323.005859"/>
    </g>
   </g>
   <g id="text_66">
    <!-- A:13.63 -->
    <g transform="translate(597.610761 559.249597) scale(0.04 -0.04)">
     <use xlink:href="#DejaVuSans-41"/>
     <use xlink:href="#DejaVuSans-3a" x="66.658203"/>
     <use xlink:href="#DejaVuSans-31" x="100.349609"/>
     <use xlink:href="#DejaVuSans-33" x="163.972656"/>
     <use xlink:href="#DejaVuSans-2e" x="227.595703"/>
     <use xlink:href="#DejaVuSans-36" x="259.382812"/>
     <use xlink:href="#DejaVuSans-33" x="323.005859"/>
    </g>
   </g>
   <g id="text_67">
    <!-- A:4.96 -->
    <g transform="translate(461.314985 458.071411) scale(0.04 -0.04)">
     <use xlink:href="#DejaVuSans-41"/>
     <use xlink:href="#DejaVuSans-3a" x="66.658203"/>
     <use xlink:href="#DejaVuSans-34" x="100.349609"/>
     <use xlink:href="#DejaVuSans-2e" x="163.972656"/>
     <use xlink:href="#DejaVuSans-39" x="195.759766"/>
     <use xlink:href="#DejaVuSans-36" x="259.382812"/>
    </g>
   </g>
   <g id="text_68">
    <!-- A:2.41 -->
    <g transform="translate(1061.080458 1018.604098) scale(0.04 -0.04)">
     <use xlink:href="#DejaVuSans-41"/>
     <use xlink:href="#DejaVuSans-3a" x="66.658203"/>
     <use xlink:href="#DejaVuSans-32" x="100.349609"/>
     <use xlink:href="#DejaVuSans-2e" x="163.972656"/>
     <use xlink:href="#DejaVuSans-34" x="195.759766"/>
     <use xlink:href="#DejaVuSans-31" x="259.382812"/>
    </g>
   </g>
   <g id="text_69">
    <!-- D:0.01 -->
    <g transform="translate(1052.875148 981.260215) scale(0.04 -0.04)">
     <use xlink:href="#DejaVuSans-44"/>
     <use xlink:href="#DejaVuSans-3a" x="77.001953"/>
     <use xlink:href="#DejaVuSans-30" x="110.693359"/>
     <use xlink:href="#DejaVuSans-2e" x="174.316406"/>
     <use xlink:href="#DejaVuSans-30" x="206.103516"/>
     <use xlink:href="#DejaVuSans-31" x="269.726562"/>
    </g>
    <!-- A:44.22 -->
    <g transform="translate(1052.875148 985.73934) scale(0.04 -0.04)">
     <use xlink:href="#DejaVuSans-41"/>
     <use xlink:href="#DejaVuSans-3a" x="66.658203"/>
     <use xlink:href="#DejaVuSans-34" x="100.349609"/>
     <use xlink:href="#DejaVuSans-34" x="163.972656"/>
     <use xlink:href="#DejaVuSans-2e" x="227.595703"/>
     <use xlink:href="#DejaVuSans-32" x="259.382812"/>
     <use xlink:href="#DejaVuSans-32" x="323.005859"/>
    </g>
   </g>
   <g id="text_70">
    <!-- A:44.22 -->
    <g transform="translate(1052.875148 985.73934) scale(0.04 -0.04)">
     <use xlink:href="#DejaVuSans-41"/>
     <use xlink:href="#DejaVuSans-3a" x="66.658203"/>
     <use xlink:href="#DejaVuSans-34" x="100.349609"/>
     <use xlink:href="#DejaVuSans-34" x="163.972656"/>
     <use xlink:href="#DejaVuSans-2e" x="227.595703"/>
     <use xlink:href="#DejaVuSans-32" x="259.382812"/>
     <use xlink:href="#DejaVuSans-32" x="323.005859"/>
    </g>
   </g>
   <g id="text_71">
    <!-- A:8.06 -->
    <g transform="translate(594.788134 674.828266) scale(0.04 -0.04)">
     <use xlink:href="#DejaVuSans-41"/>
     <use xlink:href="#DejaVuSans-3a" x="66.658203"/>
     <use xlink:href="#DejaVuSans-38" x="100.349609"/>
     <use xlink:href="#DejaVuSans-2e" x="163.972656"/>
     <use xlink:href="#DejaVuSans-30" x="195.759766"/>
     <use xlink:href="#DejaVuSans-36" x="259.382812"/>
    </g>
   </g>
   <g id="text_72">
    <!-- D:0.11 -->
    <g transform="translate(712.627611 656.268009) scale(0.04 -0.04)">
     <use xlink:href="#DejaVuSans-44"/>
     <use xlink:href="#DejaVuSans-3a" x="77.001953"/>
     <use xlink:href="#DejaVuSans-30" x="110.693359"/>
     <use xlink:href="#DejaVuSans-2e" x="174.316406"/>
     <use xlink:href="#DejaVuSans-31" x="206.103516"/>
     <use xlink:href="#DejaVuSans-31" x="269.726562"/>
    </g>
    <!-- A:0.31 -->
    <g transform="translate(712.627611 660.747134) scale(0.04 -0.04)">
     <use xlink:href="#DejaVuSans-41"/>
     <use xlink:href="#DejaVuSans-3a" x="66.658203"/>
     <use xlink:href="#DejaVuSans-30" x="100.349609"/>
     <use xlink:href="#DejaVuSans-2e" x="163.972656"/>
     <use xlink:href="#DejaVuSans-33" x="195.759766"/>
     <use xlink:href="#DejaVuSans-31" x="259.382812"/>
    </g>
   </g>
   <g id="text_73">
    <!-- A:0.31 -->
    <g transform="translate(712.627611 660.747134) scale(0.04 -0.04)">
     <use xlink:href="#DejaVuSans-41"/>
     <use xlink:href="#DejaVuSans-3a" x="66.658203"/>
     <use xlink:href="#DejaVuSans-30" x="100.349609"/>
     <use xlink:href="#DejaVuSans-2e" x="163.972656"/>
     <use xlink:href="#DejaVuSans-33" x="195.759766"/>
     <use xlink:href="#DejaVuSans-31" x="259.382812"/>
    </g>
   </g>
   <g id="text_74">
    <!-- A:0.06 -->
    <g transform="translate(417.437105 352.66626) scale(0.04 -0.04)">
     <use xlink:href="#DejaVuSans-41"/>
     <use xlink:href="#DejaVuSans-3a" x="66.658203"/>
     <use xlink:href="#DejaVuSans-30" x="100.349609"/>
     <use xlink:href="#DejaVuSans-2e" x="163.972656"/>
     <use xlink:href="#DejaVuSans-30" x="195.759766"/>
     <use xlink:href="#DejaVuSans-36" x="259.382812"/>
    </g>
   </g>
   <g id="text_75">
    <!-- Population Density Americas (n:23 k:74) -->
    <g transform="translate(616.895625 153.362625) scale(0.12 -0.12)">
     <defs>
      <path id="DejaVuSans-6f" d="M 1959 3097 
Q 1497 3097 1228 2736 
Q 959 2375 959 1747 
Q 959 1119 1226 758 
Q 1494 397 1959 397 
Q 2419 397 2687 759 
Q 2956 1122 2956 1747 
Q 2956 2369 2687 2733 
Q 2419 3097 1959 3097 
z
M 1959 3584 
Q 2709 3584 3137 3096 
Q 3566 2609 3566 1747 
Q 3566 888 3137 398 
Q 2709 -91 1959 -91 
Q 1206 -91 779 398 
Q 353 888 353 1747 
Q 353 2609 779 3096 
Q 1206 3584 1959 3584 
z
" transform="scale(0.015625)"/>
      <path id="DejaVuSans-70" d="M 1159 525 
L 1159 -1331 
L 581 -1331 
L 581 3500 
L 1159 3500 
L 1159 2969 
Q 1341 3281 1617 3432 
Q 1894 3584 2278 3584 
Q 2916 3584 3314 3078 
Q 3713 2572 3713 1747 
Q 3713 922 3314 415 
Q 2916 -91 2278 -91 
Q 1894 -91 1617 61 
Q 1341 213 1159 525 
z
M 3116 1747 
Q 3116 2381 2855 2742 
Q 2594 3103 2138 3103 
Q 1681 3103 1420 2742 
Q 1159 2381 1159 1747 
Q 1159 1113 1420 752 
Q 1681 391 2138 391 
Q 2594 391 2855 752 
Q 3116 1113 3116 1747 
z
" transform="scale(0.015625)"/>
      <path id="DejaVuSans-75" d="M 544 1381 
L 544 3500 
L 1119 3500 
L 1119 1403 
Q 1119 906 1312 657 
Q 1506 409 1894 409 
Q 2359 409 2629 706 
Q 2900 1003 2900 1516 
L 2900 3500 
L 3475 3500 
L 3475 0 
L 2900 0 
L 2900 538 
Q 2691 219 2414 64 
Q 2138 -91 1772 -91 
Q 1169 -91 856 284 
Q 544 659 544 1381 
z
M 1991 3584 
L 1991 3584 
z
" transform="scale(0.015625)"/>
      <path id="DejaVuSans-6c" d="M 603 4863 
L 1178 4863 
L 1178 0 
L 603 0 
L 603 4863 
z
" transform="scale(0.015625)"/>
      <path id="DejaVuSans-61" d="M 2194 1759 
Q 1497 1759 1228 1600 
Q 959 1441 959 1056 
Q 959 750 1161 570 
Q 1363 391 1709 391 
Q 2188 391 2477 730 
Q 2766 1069 2766 1631 
L 2766 1759 
L 2194 1759 
z
M 3341 1997 
L 3341 0 
L 2766 0 
L 2766 531 
Q 2569 213 2275 61 
Q 1981 -91 1556 -91 
Q 1019 -91 701 211 
Q 384 513 384 1019 
Q 384 1609 779 1909 
Q 1175 2209 1959 2209 
L 2766 2209 
L 2766 2266 
Q 2766 2663 2505 2880 
Q 2244 3097 1772 3097 
Q 1472 3097 1187 3025 
Q 903 2953 641 2809 
L 641 3341 
Q 956 3463 1253 3523 
Q 1550 3584 1831 3584 
Q 2591 3584 2966 3190 
Q 3341 2797 3341 1997 
z
" transform="scale(0.015625)"/>
      <path id="DejaVuSans-74" d="M 1172 4494 
L 1172 3500 
L 2356 3500 
L 2356 3053 
L 1172 3053 
L 1172 1153 
Q 1172 725 1289 603 
Q 1406 481 1766 481 
L 2356 481 
L 2356 0 
L 1766 0 
Q 1100 0 847 248 
Q 594 497 594 1153 
L 594 3053 
L 172 3053 
L 172 3500 
L 594 3500 
L 594 4494 
L 1172 4494 
z
" transform="scale(0.015625)"/>
      <path id="DejaVuSans-69" d="M 603 3500 
L 1178 3500 
L 1178 0 
L 603 0 
L 603 3500 
z
M 603 4863 
L 1178 4863 
L 1178 4134 
L 603 4134 
L 603 4863 
z
" transform="scale(0.015625)"/>
      <path id="DejaVuSans-6e" d="M 3513 2113 
L 3513 0 
L 2938 0 
L 2938 2094 
Q 2938 2591 2744 2837 
Q 2550 3084 2163 3084 
Q 1697 3084 1428 2787 
Q 1159 2491 1159 1978 
L 1159 0 
L 581 0 
L 581 3500 
L 1159 3500 
L 1159 2956 
Q 1366 3272 1645 3428 
Q 1925 3584 2291 3584 
Q 2894 3584 3203 3211 
Q 3513 2838 3513 2113 
z
" transform="scale(0.015625)"/>
      <path id="DejaVuSans-20" transform="scale(0.015625)"/>
      <path id="DejaVuSans-65" d="M 3597 1894 
L 3597 1613 
L 953 1613 
Q 991 1019 1311 708 
Q 1631 397 2203 397 
Q 2534 397 2845 478 
Q 3156 559 3463 722 
L 3463 178 
Q 3153 47 2828 -22 
Q 2503 -91 2169 -91 
Q 1331 -91 842 396 
Q 353 884 353 1716 
Q 353 2575 817 3079 
Q 1281 3584 2069 3584 
Q 2775 3584 3186 3129 
Q 3597 2675 3597 1894 
z
M 3022 2063 
Q 3016 2534 2758 2815 
Q 2500 3097 2075 3097 
Q 1594 3097 1305 2825 
Q 1016 2553 972 2059 
L 3022 2063 
z
" transform="scale(0.015625)"/>
      <path id="DejaVuSans-73" d="M 2834 3397 
L 2834 2853 
Q 2591 2978 2328 3040 
Q 2066 3103 1784 3103 
Q 1356 3103 1142 2972 
Q 928 2841 928 2578 
Q 928 2378 1081 2264 
Q 1234 2150 1697 2047 
L 1894 2003 
Q 2506 1872 2764 1633 
Q 3022 1394 3022 966 
Q 3022 478 2636 193 
Q 2250 -91 1575 -91 
Q 1294 -91 989 -36 
Q 684 19 347 128 
L 347 722 
Q 666 556 975 473 
Q 1284 391 1588 391 
Q 1994 391 2212 530 
Q 2431 669 2431 922 
Q 2431 1156 2273 1281 
Q 2116 1406 1581 1522 
L 1381 1569 
Q 847 1681 609 1914 
Q 372 2147 372 2553 
Q 372 3047 722 3315 
Q 1072 3584 1716 3584 
Q 2034 3584 2315 3537 
Q 2597 3491 2834 3397 
z
" transform="scale(0.015625)"/>
      <path id="DejaVuSans-79" d="M 2059 -325 
Q 1816 -950 1584 -1140 
Q 1353 -1331 966 -1331 
L 506 -1331 
L 506 -850 
L 844 -850 
Q 1081 -850 1212 -737 
Q 1344 -625 1503 -206 
L 1606 56 
L 191 3500 
L 800 3500 
L 1894 763 
L 2988 3500 
L 3597 3500 
L 2059 -325 
z
" transform="scale(0.015625)"/>
      <path id="DejaVuSans-6d" d="M 3328 2828 
Q 3544 3216 3844 3400 
Q 4144 3584 4550 3584 
Q 5097 3584 5394 3201 
Q 5691 2819 5691 2113 
L 5691 0 
L 5113 0 
L 5113 2094 
Q 5113 2597 4934 2840 
Q 4756 3084 4391 3084 
Q 3944 3084 3684 2787 
Q 3425 2491 3425 1978 
L 3425 0 
L 2847 0 
L 2847 2094 
Q 2847 2600 2669 2842 
Q 2491 3084 2119 3084 
Q 1678 3084 1418 2786 
Q 1159 2488 1159 1978 
L 1159 0 
L 581 0 
L 581 3500 
L 1159 3500 
L 1159 2956 
Q 1356 3278 1631 3431 
Q 1906 3584 2284 3584 
Q 2666 3584 2933 3390 
Q 3200 3197 3328 2828 
z
" transform="scale(0.015625)"/>
      <path id="DejaVuSans-72" d="M 2631 2963 
Q 2534 3019 2420 3045 
Q 2306 3072 2169 3072 
Q 1681 3072 1420 2755 
Q 1159 2438 1159 1844 
L 1159 0 
L 581 0 
L 581 3500 
L 1159 3500 
L 1159 2956 
Q 1341 3275 1631 3429 
Q 1922 3584 2338 3584 
Q 2397 3584 2469 3576 
Q 2541 3569 2628 3553 
L 2631 2963 
z
" transform="scale(0.015625)"/>
      <path id="DejaVuSans-63" d="M 3122 3366 
L 3122 2828 
Q 2878 2963 2633 3030 
Q 2388 3097 2138 3097 
Q 1578 3097 1268 2742 
Q 959 2388 959 1747 
Q 959 1106 1268 751 
Q 1578 397 2138 397 
Q 2388 397 2633 464 
Q 2878 531 3122 666 
L 3122 134 
Q 2881 22 2623 -34 
Q 2366 -91 2075 -91 
Q 1284 -91 818 406 
Q 353 903 353 1747 
Q 353 2603 823 3093 
Q 1294 3584 2113 3584 
Q 2378 3584 2631 3529 
Q 2884 3475 3122 3366 
z
" transform="scale(0.015625)"/>
      <path id="DejaVuSans-28" d="M 1984 4856 
Q 1566 4138 1362 3434 
Q 1159 2731 1159 2009 
Q 1159 1288 1364 580 
Q 1569 -128 1984 -844 
L 1484 -844 
Q 1016 -109 783 600 
Q 550 1309 550 2009 
Q 550 2706 781 3412 
Q 1013 4119 1484 4856 
L 1984 4856 
z
" transform="scale(0.015625)"/>
      <path id="DejaVuSans-6b" d="M 581 4863 
L 1159 4863 
L 1159 1991 
L 2875 3500 
L 3609 3500 
L 1753 1863 
L 3688 0 
L 2938 0 
L 1159 1709 
L 1159 0 
L 581 0 
L 581 4863 
z
" transform="scale(0.015625)"/>
      <path id="DejaVuSans-29" d="M 513 4856 
L 1013 4856 
Q 1481 4119 1714 3412 
Q 1947 2706 1947 2009 
Q 1947 1309 1714 600 
Q 1481 -109 1013 -844 
L 513 -844 
Q 928 -128 1133 580 
Q 1338 1288 1338 2009 
Q 1338 2731 1133 3434 
Q 928 4138 513 4856 
z
" transform="scale(0.015625)"/>
     </defs>
     <use xlink:href="#DejaVuSans-50"/>
     <use xlink:href="#DejaVuSans-6f" x="56.677734"/>
     <use xlink:href="#DejaVuSans-70" x="117.859375"/>
     <use xlink:href="#DejaVuSans-75" x="181.335938"/>
     <use xlink:href="#DejaVuSans-6c" x="244.714844"/>
     <use xlink:href="#DejaVuSans-61" x="272.498047"/>
     <use xlink:href="#DejaVuSans-74" x="333.777344"/>
     <use xlink:href="#DejaVuSans-69" x="372.986328"/>
     <use xlink:href="#DejaVuSans-6f" x="400.769531"/>
     <use xlink:href="#DejaVuSans-6e" x="461.951172"/>
     <use xlink:href="#DejaVuSans-20" x="525.330078"/>
     <use xlink:href="#DejaVuSans-44" x="557.117188"/>
     <use xlink:href="#DejaVuSans-65" x="634.119141"/>
     <use xlink:href="#DejaVuSans-6e" x="695.642578"/>
     <use xlink:href="#DejaVuSans-73" x="759.021484"/>
     <use xlink:href="#DejaVuSans-69" x="811.121094"/>
     <use xlink:href="#DejaVuSans-74" x="838.904297"/>
     <use xlink:href="#DejaVuSans-79" x="878.113281"/>
     <use xlink:href="#DejaVuSans-20" x="937.292969"/>
     <use xlink:href="#DejaVuSans-41" x="969.080078"/>
     <use xlink:href="#DejaVuSans-6d" x="1037.488281"/>
     <use xlink:href="#DejaVuSans-65" x="1134.900391"/>
     <use xlink:href="#DejaVuSans-72" x="1196.423828"/>
     <use xlink:href="#DejaVuSans-69" x="1237.537109"/>
     <use xlink:href="#DejaVuSans-63" x="1265.320312"/>
     <use xlink:href="#DejaVuSans-61" x="1320.300781"/>
     <use xlink:href="#DejaVuSans-73" x="1381.580078"/>
     <use xlink:href="#DejaVuSans-20" x="1433.679688"/>
     <use xlink:href="#DejaVuSans-28" x="1465.466797"/>
     <use xlink:href="#DejaVuSans-6e" x="1504.480469"/>
     <use xlink:href="#DejaVuSans-3a" x="1567.859375"/>
     <use xlink:href="#DejaVuSans-32" x="1601.550781"/>
     <use xlink:href="#DejaVuSans-33" x="1665.173828"/>
     <use xlink:href="#DejaVuSans-20" x="1728.796875"/>
     <use xlink:href="#DejaVuSans-6b" x="1760.583984"/>
     <use xlink:href="#DejaVuSans-3a" x="1818.494141"/>
     <use xlink:href="#DejaVuSans-37" x="1852.185547"/>
     <use xlink:href="#DejaVuSans-34" x="1915.808594"/>
     <use xlink:href="#DejaVuSans-29" x="1979.431641"/>
    </g>
    <!-- Score: 9853.20, max. Overlap: 1.71, avg. Distance: 6.85, avg. Angle: 11.14 -->
    <g transform="translate(511.8525 166.8) scale(0.12 -0.12)">
     <defs>
      <path id="DejaVuSans-2c" d="M 750 794 
L 1409 794 
L 1409 256 
L 897 -744 
L 494 -744 
L 750 256 
L 750 794 
z
" transform="scale(0.015625)"/>
      <path id="DejaVuSans-78" d="M 3513 3500 
L 2247 1797 
L 3578 0 
L 2900 0 
L 1881 1375 
L 863 0 
L 184 0 
L 1544 1831 
L 300 3500 
L 978 3500 
L 1906 2253 
L 2834 3500 
L 3513 3500 
z
" transform="scale(0.015625)"/>
      <path id="DejaVuSans-76" d="M 191 3500 
L 800 3500 
L 1894 563 
L 2988 3500 
L 3597 3500 
L 2284 0 
L 1503 0 
L 191 3500 
z
" transform="scale(0.015625)"/>
      <path id="DejaVuSans-67" d="M 2906 1791 
Q 2906 2416 2648 2759 
Q 2391 3103 1925 3103 
Q 1463 3103 1205 2759 
Q 947 2416 947 1791 
Q 947 1169 1205 825 
Q 1463 481 1925 481 
Q 2391 481 2648 825 
Q 2906 1169 2906 1791 
z
M 3481 434 
Q 3481 -459 3084 -895 
Q 2688 -1331 1869 -1331 
Q 1566 -1331 1297 -1286 
Q 1028 -1241 775 -1147 
L 775 -588 
Q 1028 -725 1275 -790 
Q 1522 -856 1778 -856 
Q 2344 -856 2625 -561 
Q 2906 -266 2906 331 
L 2906 616 
Q 2728 306 2450 153 
Q 2172 0 1784 0 
Q 1141 0 747 490 
Q 353 981 353 1791 
Q 353 2603 747 3093 
Q 1141 3584 1784 3584 
Q 2172 3584 2450 3431 
Q 2728 3278 2906 2969 
L 2906 3500 
L 3481 3500 
L 3481 434 
z
" transform="scale(0.015625)"/>
     </defs>
     <use xlink:href="#DejaVuSans-53"/>
     <use xlink:href="#DejaVuSans-63" x="63.476562"/>
     <use xlink:href="#DejaVuSans-6f" x="118.457031"/>
     <use xlink:href="#DejaVuSans-72" x="179.638672"/>
     <use xlink:href="#DejaVuSans-65" x="218.501953"/>
     <use xlink:href="#DejaVuSans-3a" x="280.025391"/>
     <use xlink:href="#DejaVuSans-20" x="313.716797"/>
     <use xlink:href="#DejaVuSans-39" x="345.503906"/>
     <use xlink:href="#DejaVuSans-38" x="409.126953"/>
     <use xlink:href="#DejaVuSans-35" x="472.75"/>
     <use xlink:href="#DejaVuSans-33" x="536.373047"/>
     <use xlink:href="#DejaVuSans-2e" x="599.996094"/>
     <use xlink:href="#DejaVuSans-32" x="631.783203"/>
     <use xlink:href="#DejaVuSans-30" x="695.40625"/>
     <use xlink:href="#DejaVuSans-2c" x="759.029297"/>
     <use xlink:href="#DejaVuSans-20" x="790.816406"/>
     <use xlink:href="#DejaVuSans-6d" x="822.603516"/>
     <use xlink:href="#DejaVuSans-61" x="920.015625"/>
     <use xlink:href="#DejaVuSans-78" x="981.294922"/>
     <use xlink:href="#DejaVuSans-2e" x="1040.474609"/>
     <use xlink:href="#DejaVuSans-20" x="1072.261719"/>
     <use xlink:href="#DejaVuSans-4f" x="1104.048828"/>
     <use xlink:href="#DejaVuSans-76" x="1182.759766"/>
     <use xlink:href="#DejaVuSans-65" x="1241.939453"/>
     <use xlink:href="#DejaVuSans-72" x="1303.462891"/>
     <use xlink:href="#DejaVuSans-6c" x="1344.576172"/>
     <use xlink:href="#DejaVuSans-61" x="1372.359375"/>
     <use xlink:href="#DejaVuSans-70" x="1433.638672"/>
     <use xlink:href="#DejaVuSans-3a" x="1497.115234"/>
     <use xlink:href="#DejaVuSans-20" x="1530.806641"/>
     <use xlink:href="#DejaVuSans-31" x="1562.59375"/>
     <use xlink:href="#DejaVuSans-2e" x="1626.216797"/>
     <use xlink:href="#DejaVuSans-37" x="1658.003906"/>
     <use xlink:href="#DejaVuSans-31" x="1721.626953"/>
     <use xlink:href="#DejaVuSans-2c" x="1785.25"/>
     <use xlink:href="#DejaVuSans-20" x="1817.037109"/>
     <use xlink:href="#DejaVuSans-61" x="1848.824219"/>
     <use xlink:href="#DejaVuSans-76" x="1910.103516"/>
     <use xlink:href="#DejaVuSans-67" x="1969.283203"/>
     <use xlink:href="#DejaVuSans-2e" x="2032.759766"/>
     <use xlink:href="#DejaVuSans-20" x="2064.546875"/>
     <use xlink:href="#DejaVuSans-44" x="2096.333984"/>
     <use xlink:href="#DejaVuSans-69" x="2173.335938"/>
     <use xlink:href="#DejaVuSans-73" x="2201.119141"/>
     <use xlink:href="#DejaVuSans-74" x="2253.21875"/>
     <use xlink:href="#DejaVuSans-61" x="2292.427734"/>
     <use xlink:href="#DejaVuSans-6e" x="2353.707031"/>
     <use xlink:href="#DejaVuSans-63" x="2417.085938"/>
     <use xlink:href="#DejaVuSans-65" x="2472.066406"/>
     <use xlink:href="#DejaVuSans-3a" x="2533.589844"/>
     <use xlink:href="#DejaVuSans-20" x="2567.28125"/>
     <use xlink:href="#DejaVuSans-36" x="2599.068359"/>
     <use xlink:href="#DejaVuSans-2e" x="2662.691406"/>
     <use xlink:href="#DejaVuSans-38" x="2694.478516"/>
     <use xlink:href="#DejaVuSans-35" x="2758.101562"/>
     <use xlink:href="#DejaVuSans-2c" x="2821.724609"/>
     <use xlink:href="#DejaVuSans-20" x="2853.511719"/>
     <use xlink:href="#DejaVuSans-61" x="2885.298828"/>
     <use xlink:href="#DejaVuSans-76" x="2946.578125"/>
     <use xlink:href="#DejaVuSans-67" x="3005.757812"/>
     <use xlink:href="#DejaVuSans-2e" x="3069.234375"/>
     <use xlink:href="#DejaVuSans-20" x="3101.021484"/>
     <use xlink:href="#DejaVuSans-41" x="3132.808594"/>
     <use xlink:href="#DejaVuSans-6e" x="3201.216797"/>
     <use xlink:href="#DejaVuSans-67" x="3264.595703"/>
     <use xlink:href="#DejaVuSans-6c" x="3328.072266"/>
     <use xlink:href="#DejaVuSans-65" x="3355.855469"/>
     <use xlink:href="#DejaVuSans-3a" x="3417.378906"/>
     <use xlink:href="#DejaVuSans-20" x="3451.070312"/>
     <use xlink:href="#DejaVuSans-31" x="3482.857422"/>
     <use xlink:href="#DejaVuSans-31" x="3546.480469"/>
     <use xlink:href="#DejaVuSans-2e" x="3610.103516"/>
     <use xlink:href="#DejaVuSans-31" x="3641.890625"/>
     <use xlink:href="#DejaVuSans-34" x="3705.513672"/>
    </g>
   </g>
  </g>
 </g>
 <defs>
  <clipPath id="p939cb4480a">
   <rect x="297.615879" y="172.8" width="880.768242" height="1108.8"/>
  </clipPath>
 </defs>
</svg>
