<?xml version="1.0" encoding="utf-8" standalone="no"?>
<!DOCTYPE svg PUBLIC "-//W3C//DTD SVG 1.1//EN"
  "http://www.w3.org/Graphics/SVG/1.1/DTD/svg11.dtd">
<svg xmlns:xlink="http://www.w3.org/1999/xlink" width="1440pt" height="1440pt" viewBox="0 0 1440 1440" xmlns="http://www.w3.org/2000/svg" version="1.1">
 <metadata>
  <rdf:RDF xmlns:dc="http://purl.org/dc/elements/1.1/" xmlns:cc="http://creativecommons.org/ns#" xmlns:rdf="http://www.w3.org/1999/02/22-rdf-syntax-ns#">
   <cc:Work>
    <dc:type rdf:resource="http://purl.org/dc/dcmitype/StillImage"/>
    <dc:date>2024-03-09T15:31:23.553631</dc:date>
    <dc:format>image/svg+xml</dc:format>
    <dc:creator>
     <cc:Agent>
      <dc:title>Matplotlib v3.8.3, https://matplotlib.org/</dc:title>
     </cc:Agent>
    </dc:creator>
   </cc:Work>
  </rdf:RDF>
 </metadata>
 <defs>
  <style type="text/css">*{stroke-linejoin: round; stroke-linecap: butt}</style>
 </defs>
 <g id="figure_1">
  <g id="patch_1">
   <path d="M 0 1440 
L 1440 1440 
L 1440 0 
L 0 0 
z
" style="fill: #ffffff"/>
  </g>
  <g id="axes_1">
   <g id="patch_2">
    <path d="M 889.973895 1130.996233 
C 906.84019 1130.996233 923.017955 1124.295183 934.944226 1112.368912 
C 946.870498 1100.442641 953.571548 1084.264875 953.571548 1067.398581 
C 953.571548 1050.532286 946.870498 1034.354521 934.944226 1022.428249 
C 923.017955 1010.501978 906.84019 1003.800928 889.973895 1003.800928 
C 873.107601 1003.800928 856.929835 1010.501978 845.003564 1022.428249 
C 833.077293 1034.354521 826.376243 1050.532286 826.376243 1067.398581 
C 826.376243 1084.264875 833.077293 1100.442641 845.003564 1112.368912 
C 856.929835 1124.295183 873.107601 1130.996233 889.973895 1130.996233 
z
" clip-path="url(#p58e82da090)" style="fill: #9e0142; opacity: 0.5"/>
   </g>
   <g id="patch_3">
    <path d="M 1103.82707 1030.138052 
C 1107.76866 1030.138052 1111.549343 1028.572042 1114.336468 1025.784917 
C 1117.123593 1022.997792 1118.689603 1019.217109 1118.689603 1015.275519 
C 1118.689603 1011.333929 1117.123593 1007.553246 1114.336468 1004.766121 
C 1111.549343 1001.978996 1107.76866 1000.412986 1103.82707 1000.412986 
C 1099.88548 1000.412986 1096.104797 1001.978996 1093.317672 1004.766121 
C 1090.530548 1007.553246 1088.964537 1011.333929 1088.964537 1015.275519 
C 1088.964537 1019.217109 1090.530548 1022.997792 1093.317672 1025.784917 
C 1096.104797 1028.572042 1099.88548 1030.138052 1103.82707 1030.138052 
z
" clip-path="url(#p58e82da090)" style="fill: #b61b48; opacity: 0.5"/>
   </g>
   <g id="patch_4">
    <path d="M 1089.71424 1113.757903 
C 1099.750025 1113.757903 1109.376121 1109.770643 1116.472493 1102.674272 
C 1123.568865 1095.5779 1127.556124 1085.951804 1127.556124 1075.916019 
C 1127.556124 1065.880234 1123.568865 1056.254138 1116.472493 1049.157766 
C 1109.376121 1042.061395 1099.750025 1038.074135 1089.71424 1038.074135 
C 1079.678455 1038.074135 1070.052359 1042.061395 1062.955987 1049.157766 
C 1055.859616 1056.254138 1051.872356 1065.880234 1051.872356 1075.916019 
C 1051.872356 1085.951804 1055.859616 1095.5779 1062.955987 1102.674272 
C 1070.052359 1109.770643 1079.678455 1113.757903 1089.71424 1113.757903 
z
" clip-path="url(#p58e82da090)" style="fill: #d0384e; opacity: 0.5"/>
   </g>
   <g id="patch_5">
    <path d="M 1051.74205 1220.548734 
C 1059.793334 1220.548734 1067.515941 1217.349925 1073.209058 1211.656808 
C 1078.902175 1205.963691 1082.100984 1198.241084 1082.100984 1190.1898 
C 1082.100984 1182.138517 1078.902175 1174.41591 1073.209058 1168.722793 
C 1067.515941 1163.029676 1059.793334 1159.830867 1051.74205 1159.830867 
C 1043.690767 1159.830867 1035.96816 1163.029676 1030.275043 1168.722793 
C 1024.581926 1174.41591 1021.383117 1182.138517 1021.383117 1190.1898 
C 1021.383117 1198.241084 1024.581926 1205.963691 1030.275043 1211.656808 
C 1035.96816 1217.349925 1043.690767 1220.548734 1051.74205 1220.548734 
z
" clip-path="url(#p58e82da090)" style="fill: #df4e4b; opacity: 0.5"/>
   </g>
   <g id="patch_6">
    <path d="M 770.654074 758.222 
C 785.725535 758.222 800.181736 752.234045 810.838869 741.576913 
C 821.496001 730.919781 827.483956 716.463579 827.483956 701.392118 
C 827.483956 686.320657 821.496001 671.864456 810.838869 661.207323 
C 800.181736 650.550191 785.725535 644.562236 770.654074 644.562236 
C 755.582613 644.562236 741.126411 650.550191 730.469279 661.207323 
C 719.812147 671.864456 713.824192 686.320657 713.824192 701.392118 
C 713.824192 716.463579 719.812147 730.919781 730.469279 741.576913 
C 741.126411 752.234045 755.582613 758.222 770.654074 758.222 
z
" clip-path="url(#p58e82da090)" style="fill: #ee6445; opacity: 0.5"/>
   </g>
   <g id="patch_7">
    <path d="M 485.761589 393.739903 
C 494.138966 393.739903 502.174356 390.411535 508.098056 384.487835 
C 514.021756 378.564135 517.350123 370.528746 517.350123 362.151368 
C 517.350123 353.773991 514.021756 345.738602 508.098056 339.814902 
C 502.174356 333.891202 494.138966 330.562834 485.761589 330.562834 
C 477.384212 330.562834 469.348823 333.891202 463.425123 339.814902 
C 457.501422 345.738602 454.173055 353.773991 454.173055 362.151368 
C 454.173055 370.528746 457.501422 378.564135 463.425123 384.487835 
C 469.348823 390.411535 477.384212 393.739903 485.761589 393.739903 
z
" clip-path="url(#p58e82da090)" style="fill: #f67f4b; opacity: 0.5"/>
   </g>
   <g id="patch_8">
    <path d="M 1033.245728 1164.698555 
C 1039.913971 1164.698555 1046.309999 1162.049234 1051.025159 1157.334074 
C 1055.74032 1152.618913 1058.389641 1146.222886 1058.389641 1139.554642 
C 1058.389641 1132.886398 1055.74032 1126.490371 1051.025159 1121.77521 
C 1046.309999 1117.06005 1039.913971 1114.410729 1033.245728 1114.410729 
C 1026.577484 1114.410729 1020.181456 1117.06005 1015.466296 1121.77521 
C 1010.751136 1126.490371 1008.101814 1132.886398 1008.101814 1139.554642 
C 1008.101814 1146.222886 1010.751136 1152.618913 1015.466296 1157.334074 
C 1020.181456 1162.049234 1026.577484 1164.698555 1033.245728 1164.698555 
z
" clip-path="url(#p58e82da090)" style="fill: #fa9b58; opacity: 0.5"/>
   </g>
   <g id="patch_9">
    <path d="M 683.315152 682.415374 
C 702.485698 682.415374 720.873649 674.798835 734.429272 661.243212 
C 747.984894 647.687589 755.601433 629.299638 755.601433 610.129093 
C 755.601433 590.958547 747.984894 572.570596 734.429272 559.014973 
C 720.873649 545.45935 702.485698 537.842811 683.315152 537.842811 
C 664.144606 537.842811 645.756655 545.45935 632.201032 559.014973 
C 618.645409 572.570596 611.028871 590.958547 611.028871 610.129093 
C 611.028871 629.299638 618.645409 647.687589 632.201032 661.243212 
C 645.756655 674.798835 664.144606 682.415374 683.315152 682.415374 
z
" clip-path="url(#p58e82da090)" style="fill: #fdb768; opacity: 0.5"/>
   </g>
   <g id="patch_10">
    <path d="M 1087.543438 1173.45121 
C 1095.726719 1173.45121 1103.575935 1170.199958 1109.362388 1164.413505 
C 1115.148841 1158.627052 1118.400092 1150.777836 1118.400092 1142.594556 
C 1118.400092 1134.411276 1115.148841 1126.56206 1109.362388 1120.775607 
C 1103.575935 1114.989154 1095.726719 1111.737902 1087.543438 1111.737902 
C 1079.360158 1111.737902 1071.510942 1114.989154 1065.724489 1120.775607 
C 1059.938036 1126.56206 1056.686784 1134.411276 1056.686784 1142.594556 
C 1056.686784 1150.777836 1059.938036 1158.627052 1065.724489 1164.413505 
C 1071.510942 1170.199958 1079.360158 1173.45121 1087.543438 1173.45121 
z
" clip-path="url(#p58e82da090)" style="fill: #fece7c; opacity: 0.5"/>
   </g>
   <g id="patch_11">
    <path d="M 499.826172 253.93298 
C 503.901413 253.93298 507.810291 252.313869 510.691921 249.432239 
C 513.573552 246.550609 515.192662 242.641731 515.192662 238.56649 
C 515.192662 234.491249 513.573552 230.582371 510.691921 227.700741 
C 507.810291 224.81911 503.901413 223.2 499.826172 223.2 
C 495.750932 223.2 491.842054 224.81911 488.960423 227.700741 
C 486.078793 230.582371 484.459683 234.491249 484.459683 238.56649 
C 484.459683 242.641731 486.078793 246.550609 488.960423 249.432239 
C 491.842054 252.313869 495.750932 253.93298 499.826172 253.93298 
z
" clip-path="url(#p58e82da090)" style="fill: #fee28f; opacity: 0.5"/>
   </g>
   <g id="patch_12">
    <path d="M 1114.516986 1231.2 
C 1123.238996 1231.2 1131.60495 1227.734709 1137.772343 1221.567316 
C 1143.939735 1215.399923 1147.405027 1207.03397 1147.405027 1198.31196 
C 1147.405027 1189.589949 1143.939735 1181.223996 1137.772343 1175.056603 
C 1131.60495 1168.889211 1123.238996 1165.423919 1114.516986 1165.423919 
C 1105.794976 1165.423919 1097.429022 1168.889211 1091.26163 1175.056603 
C 1085.094237 1181.223996 1081.628946 1189.589949 1081.628946 1198.31196 
C 1081.628946 1207.03397 1085.094237 1215.399923 1091.26163 1221.567316 
C 1097.429022 1227.734709 1105.794976 1231.2 1114.516986 1231.2 
z
" clip-path="url(#p58e82da090)" style="fill: #fff1a8; opacity: 0.5"/>
   </g>
   <g id="patch_13">
    <path d="M 547.705991 885.77801 
C 582.239047 885.77801 615.362366 872.057882 639.780923 847.639324 
C 664.199481 823.220767 677.919609 790.097448 677.919609 755.564392 
C 677.919609 721.031337 664.199481 687.908018 639.780923 663.48946 
C 615.362366 639.070903 582.239047 625.350775 547.705991 625.350775 
C 513.172936 625.350775 480.049617 639.070903 455.631059 663.48946 
C 431.212502 687.908018 417.492374 721.031337 417.492374 755.564392 
C 417.492374 790.097448 431.212502 823.220767 455.631059 847.639324 
C 480.049617 872.057882 513.172936 885.77801 547.705991 885.77801 
z
" clip-path="url(#p58e82da090)" style="fill: #ffffbe; opacity: 0.5"/>
   </g>
   <g id="patch_14">
    <path d="M 388.998401 413.77352 
C 405.017577 413.77352 420.382806 407.409033 431.710074 396.081765 
C 443.037342 384.754497 449.401828 369.389269 449.401828 353.370092 
C 449.401828 337.350916 443.037342 321.985687 431.710074 310.658419 
C 420.382806 299.331151 405.017577 292.966665 388.998401 292.966665 
C 372.979225 292.966665 357.613996 299.331151 346.286728 310.658419 
C 334.95946 321.985687 328.594973 337.350916 328.594973 353.370092 
C 328.594973 369.389269 334.95946 384.754497 346.286728 396.081765 
C 357.613996 407.409033 372.979225 413.77352 388.998401 413.77352 
z
" clip-path="url(#p58e82da090)" style="fill: #f4faad; opacity: 0.5"/>
   </g>
   <g id="patch_15">
    <path d="M 771.907594 904.665235 
C 791.818374 904.665235 810.916341 896.754598 824.995389 882.675551 
C 839.074436 868.596503 846.985073 849.498536 846.985073 829.587756 
C 846.985073 809.676975 839.074436 790.579008 824.995389 776.499961 
C 810.916341 762.420913 791.818374 754.510276 771.907594 754.510276 
C 751.996813 754.510276 732.898847 762.420913 718.819799 776.499961 
C 704.740751 790.579008 696.830114 809.676975 696.830114 829.587756 
C 696.830114 849.498536 704.740751 868.596503 718.819799 882.675551 
C 732.898847 896.754598 751.996813 904.665235 771.907594 904.665235 
z
" clip-path="url(#p58e82da090)" style="fill: #e8f69b; opacity: 0.5"/>
   </g>
   <g id="patch_16">
    <path d="M 885.295998 965.63384 
C 900.579246 965.63384 915.23859 959.561741 926.045478 948.754853 
C 936.852366 937.947965 942.924465 923.288621 942.924465 908.005373 
C 942.924465 892.722125 936.852366 878.062781 926.045478 867.255893 
C 915.23859 856.449005 900.579246 850.376906 885.295998 850.376906 
C 870.01275 850.376906 855.353406 856.449005 844.546518 867.255893 
C 833.739629 878.062781 827.667531 892.722125 827.667531 908.005373 
C 827.667531 923.288621 833.739629 937.947965 844.546518 948.754853 
C 855.353406 959.561741 870.01275 965.63384 885.295998 965.63384 
z
" clip-path="url(#p58e82da090)" style="fill: #d1ed9c; opacity: 0.5"/>
   </g>
   <g id="patch_17">
    <path d="M 486.680356 583.071082 
C 512.277155 583.071082 536.829021 572.901366 554.928691 554.801696 
C 573.02836 536.702026 583.198076 512.15016 583.198076 486.553362 
C 583.198076 460.956563 573.02836 436.404698 554.928691 418.305028 
C 536.829021 400.205358 512.277155 390.035642 486.680356 390.035642 
C 461.083558 390.035642 436.531692 400.205358 418.432022 418.305028 
C 400.332352 436.404698 390.162637 460.956563 390.162637 486.553362 
C 390.162637 512.15016 400.332352 536.702026 418.432022 554.801696 
C 436.531692 572.901366 461.083558 583.071082 486.680356 583.071082 
z
" clip-path="url(#p58e82da090)" style="fill: #b5e1a2; opacity: 0.5"/>
   </g>
   <g id="patch_18">
    <path d="M 1066.072374 1012.314918 
C 1077.340368 1012.314918 1088.148371 1007.838097 1096.116046 999.870422 
C 1104.08372 991.902747 1108.560542 981.094744 1108.560542 969.826751 
C 1108.560542 958.558757 1104.08372 947.750754 1096.116046 939.78308 
C 1088.148371 931.815405 1077.340368 927.338583 1066.072374 927.338583 
C 1054.804381 927.338583 1043.996378 931.815405 1036.028703 939.78308 
C 1028.061029 947.750754 1023.584207 958.558757 1023.584207 969.826751 
C 1023.584207 981.094744 1028.061029 991.902747 1036.028703 999.870422 
C 1043.996378 1007.838097 1054.804381 1012.314918 1066.072374 1012.314918 
z
" clip-path="url(#p58e82da090)" style="fill: #97d5a4; opacity: 0.5"/>
   </g>
   <g id="patch_19">
    <path d="M 979.685602 1219.314228 
C 989.801142 1219.314228 999.503739 1215.295281 1006.656506 1208.142513 
C 1013.809274 1200.989746 1017.82822 1191.28715 1017.82822 1181.171609 
C 1017.82822 1171.056068 1013.809274 1161.353472 1006.656506 1154.200704 
C 999.503739 1147.047937 989.801142 1143.02899 979.685602 1143.02899 
C 969.570061 1143.02899 959.867465 1147.047937 952.714697 1154.200704 
C 945.56193 1161.353472 941.542983 1171.056068 941.542983 1181.171609 
C 941.542983 1191.28715 945.56193 1200.989746 952.714697 1208.142513 
C 959.867465 1215.295281 969.570061 1219.314228 979.685602 1219.314228 
z
" clip-path="url(#p58e82da090)" style="fill: #79c9a5; opacity: 0.5"/>
   </g>
   <g id="patch_20">
    <path d="M 981.171516 1144.812858 
C 991.366189 1144.812858 1001.144687 1140.762471 1008.353409 1133.553749 
C 1015.562131 1126.345027 1019.612517 1116.566529 1019.612517 1106.371857 
C 1019.612517 1096.177184 1015.562131 1086.398686 1008.353409 1079.189964 
C 1001.144687 1071.981242 991.366189 1067.930855 981.171516 1067.930855 
C 970.976844 1067.930855 961.198346 1071.981242 953.989624 1079.189964 
C 946.780901 1086.398686 942.730515 1096.177184 942.730515 1106.371857 
C 942.730515 1116.566529 946.780901 1126.345027 953.989624 1133.553749 
C 961.198346 1140.762471 970.976844 1144.812858 981.171516 1144.812858 
z
" clip-path="url(#p58e82da090)" style="fill: #5cb7aa; opacity: 0.5"/>
   </g>
   <g id="patch_21">
    <path d="M 469.834799 334.502303 
C 481.839423 334.502303 493.353985 329.732815 501.842536 321.244264 
C 510.331087 312.755713 515.100575 301.241152 515.100575 289.236528 
C 515.100575 277.231904 510.331087 265.717342 501.842536 257.228791 
C 493.353985 248.74024 481.839423 243.970752 469.834799 243.970752 
C 457.830175 243.970752 446.315613 248.74024 437.827062 257.228791 
C 429.338511 265.717342 424.569024 277.231904 424.569024 289.236528 
C 424.569024 301.241152 429.338511 312.755713 437.827062 321.244264 
C 446.315613 329.732815 457.830175 334.502303 469.834799 334.502303 
z
" clip-path="url(#p58e82da090)" style="fill: #439bb5; opacity: 0.5"/>
   </g>
   <g id="patch_22">
    <path d="M 990.629068 1071.028671 
C 1004.125279 1071.028671 1017.070538 1065.666569 1026.613801 1056.123307 
C 1036.157064 1046.580044 1041.519165 1033.634785 1041.519165 1020.138573 
C 1041.519165 1006.642362 1036.157064 993.697103 1026.613801 984.15384 
C 1017.070538 974.610578 1004.125279 969.248476 990.629068 969.248476 
C 977.132856 969.248476 964.187597 974.610578 954.644335 984.15384 
C 945.101072 993.697103 939.73897 1006.642362 939.73897 1020.138573 
C 939.73897 1033.634785 945.101072 1046.580044 954.644335 1056.123307 
C 964.187597 1065.666569 977.132856 1071.028671 990.629068 1071.028671 
z
" clip-path="url(#p58e82da090)" style="fill: #3682ba; opacity: 0.5"/>
   </g>
   <g id="patch_23">
    <path d="M 1123.358494 1050.368546 
C 1127.161739 1050.368546 1130.809725 1048.857501 1133.499025 1046.168201 
C 1136.188326 1043.4789 1137.699371 1039.830914 1137.699371 1036.027669 
C 1137.699371 1032.224424 1136.188326 1028.576438 1133.499025 1025.887138 
C 1130.809725 1023.197838 1127.161739 1021.686792 1123.358494 1021.686792 
C 1119.555249 1021.686792 1115.907263 1023.197838 1113.217963 1025.887138 
C 1110.528663 1028.576438 1109.017617 1032.224424 1109.017617 1036.027669 
C 1109.017617 1039.830914 1110.528663 1043.4789 1113.217963 1046.168201 
C 1115.907263 1048.857501 1119.555249 1050.368546 1123.358494 1050.368546 
z
" clip-path="url(#p58e82da090)" style="fill: #4b68ae; opacity: 0.5"/>
   </g>
   <g id="patch_24">
    <path d="M 1076.249092 1039.950506 
C 1080.258064 1039.950506 1084.103379 1038.357725 1086.938151 1035.522953 
C 1089.772922 1032.688182 1091.365704 1028.842867 1091.365704 1024.833895 
C 1091.365704 1020.824922 1089.772922 1016.979608 1086.938151 1014.144836 
C 1084.103379 1011.310065 1080.258064 1009.717283 1076.249092 1009.717283 
C 1072.24012 1009.717283 1068.394805 1011.310065 1065.560034 1014.144836 
C 1062.725262 1016.979608 1061.132481 1020.824922 1061.132481 1024.833895 
C 1061.132481 1028.842867 1062.725262 1032.688182 1065.560034 1035.522953 
C 1068.394805 1038.357725 1072.24012 1039.950506 1076.249092 1039.950506 
z
" clip-path="url(#p58e82da090)" style="fill: #5e4fa2; opacity: 0.5"/>
   </g>
   <g id="line2d_1">
    <path d="M 1051.74205 1190.1898 
L 1033.245728 1139.554642 
" clip-path="url(#p58e82da090)" style="fill: none; stroke: #808080; stroke-opacity: 0.3; stroke-width: 0.5; stroke-linecap: square"/>
   </g>
   <g id="line2d_2">
    <path d="M 1051.74205 1190.1898 
L 1089.71424 1075.916019 
" clip-path="url(#p58e82da090)" style="fill: none; stroke: #808080; stroke-opacity: 0.3; stroke-width: 0.5; stroke-linecap: square"/>
   </g>
   <g id="line2d_3">
    <path d="M 1051.74205 1190.1898 
L 979.685602 1181.171609 
" clip-path="url(#p58e82da090)" style="fill: none; stroke: #808080; stroke-opacity: 0.3; stroke-width: 0.5; stroke-linecap: square"/>
   </g>
   <g id="line2d_4">
    <path d="M 1051.74205 1190.1898 
L 1087.543438 1142.594556 
" clip-path="url(#p58e82da090)" style="fill: none; stroke: #808080; stroke-opacity: 0.3; stroke-width: 0.5; stroke-linecap: square"/>
   </g>
   <g id="line2d_5">
    <path d="M 1051.74205 1190.1898 
L 1114.516986 1198.31196 
" clip-path="url(#p58e82da090)" style="fill: none; stroke: #808080; stroke-opacity: 0.3; stroke-width: 0.5; stroke-linecap: square"/>
   </g>
   <g id="line2d_6">
    <path d="M 1033.245728 1139.554642 
L 1089.71424 1075.916019 
" clip-path="url(#p58e82da090)" style="fill: none; stroke: #808080; stroke-opacity: 0.3; stroke-width: 0.5; stroke-linecap: square"/>
   </g>
   <g id="line2d_7">
    <path d="M 1033.245728 1139.554642 
L 979.685602 1181.171609 
" clip-path="url(#p58e82da090)" style="fill: none; stroke: #808080; stroke-opacity: 0.3; stroke-width: 0.5; stroke-linecap: square"/>
   </g>
   <g id="line2d_8">
    <path d="M 1033.245728 1139.554642 
L 1087.543438 1142.594556 
" clip-path="url(#p58e82da090)" style="fill: none; stroke: #808080; stroke-opacity: 0.3; stroke-width: 0.5; stroke-linecap: square"/>
   </g>
   <g id="line2d_9">
    <path d="M 1033.245728 1139.554642 
L 981.171516 1106.371857 
" clip-path="url(#p58e82da090)" style="fill: none; stroke: #808080; stroke-opacity: 0.3; stroke-width: 0.5; stroke-linecap: square"/>
   </g>
   <g id="line2d_10">
    <path d="M 1089.71424 1075.916019 
L 990.629068 1020.138573 
" clip-path="url(#p58e82da090)" style="fill: none; stroke: #808080; stroke-opacity: 0.3; stroke-width: 0.5; stroke-linecap: square"/>
   </g>
   <g id="line2d_11">
    <path d="M 1089.71424 1075.916019 
L 1123.358494 1036.027669 
" clip-path="url(#p58e82da090)" style="fill: none; stroke: #808080; stroke-opacity: 0.3; stroke-width: 0.5; stroke-linecap: square"/>
   </g>
   <g id="line2d_12">
    <path d="M 1089.71424 1075.916019 
L 1076.249092 1024.833895 
" clip-path="url(#p58e82da090)" style="fill: none; stroke: #808080; stroke-opacity: 0.3; stroke-width: 0.5; stroke-linecap: square"/>
   </g>
   <g id="line2d_13">
    <path d="M 1089.71424 1075.916019 
L 1087.543438 1142.594556 
" clip-path="url(#p58e82da090)" style="fill: none; stroke: #808080; stroke-opacity: 0.3; stroke-width: 0.5; stroke-linecap: square"/>
   </g>
   <g id="line2d_14">
    <path d="M 1089.71424 1075.916019 
L 981.171516 1106.371857 
" clip-path="url(#p58e82da090)" style="fill: none; stroke: #808080; stroke-opacity: 0.3; stroke-width: 0.5; stroke-linecap: square"/>
   </g>
   <g id="line2d_15">
    <path d="M 1089.71424 1075.916019 
L 1103.82707 1015.275519 
" clip-path="url(#p58e82da090)" style="fill: none; stroke: #808080; stroke-opacity: 0.3; stroke-width: 0.5; stroke-linecap: square"/>
   </g>
   <g id="line2d_16">
    <path d="M 1089.71424 1075.916019 
L 1114.516986 1198.31196 
" clip-path="url(#p58e82da090)" style="fill: none; stroke: #808080; stroke-opacity: 0.3; stroke-width: 0.5; stroke-linecap: square"/>
   </g>
   <g id="line2d_17">
    <path d="M 1089.71424 1075.916019 
L 1066.072374 969.826751 
" clip-path="url(#p58e82da090)" style="fill: none; stroke: #808080; stroke-opacity: 0.3; stroke-width: 0.5; stroke-linecap: square"/>
   </g>
   <g id="line2d_18">
    <path d="M 485.761589 362.151368 
L 486.680356 486.553362 
" clip-path="url(#p58e82da090)" style="fill: none; stroke: #808080; stroke-opacity: 0.3; stroke-width: 0.5; stroke-linecap: square"/>
   </g>
   <g id="line2d_19">
    <path d="M 485.761589 362.151368 
L 388.998401 353.370092 
" clip-path="url(#p58e82da090)" style="fill: none; stroke: #808080; stroke-opacity: 0.3; stroke-width: 0.5; stroke-linecap: square"/>
   </g>
   <g id="line2d_20">
    <path d="M 499.826172 238.56649 
L 469.834799 289.236528 
" clip-path="url(#p58e82da090)" style="fill: none; stroke: #808080; stroke-opacity: 0.3; stroke-width: 0.5; stroke-linecap: square"/>
   </g>
   <g id="line2d_21">
    <path d="M 979.685602 1181.171609 
L 981.171516 1106.371857 
" clip-path="url(#p58e82da090)" style="fill: none; stroke: #808080; stroke-opacity: 0.3; stroke-width: 0.5; stroke-linecap: square"/>
   </g>
   <g id="line2d_22">
    <path d="M 990.629068 1020.138573 
L 889.973895 1067.398581 
" clip-path="url(#p58e82da090)" style="fill: none; stroke: #808080; stroke-opacity: 0.3; stroke-width: 0.5; stroke-linecap: square"/>
   </g>
   <g id="line2d_23">
    <path d="M 990.629068 1020.138573 
L 885.295998 908.005373 
" clip-path="url(#p58e82da090)" style="fill: none; stroke: #808080; stroke-opacity: 0.3; stroke-width: 0.5; stroke-linecap: square"/>
   </g>
   <g id="line2d_24">
    <path d="M 990.629068 1020.138573 
L 981.171516 1106.371857 
" clip-path="url(#p58e82da090)" style="fill: none; stroke: #808080; stroke-opacity: 0.3; stroke-width: 0.5; stroke-linecap: square"/>
   </g>
   <g id="line2d_25">
    <path d="M 990.629068 1020.138573 
L 1066.072374 969.826751 
" clip-path="url(#p58e82da090)" style="fill: none; stroke: #808080; stroke-opacity: 0.3; stroke-width: 0.5; stroke-linecap: square"/>
   </g>
   <g id="line2d_26">
    <path d="M 771.907594 829.587756 
L 770.654074 701.392118 
" clip-path="url(#p58e82da090)" style="fill: none; stroke: #808080; stroke-opacity: 0.3; stroke-width: 0.5; stroke-linecap: square"/>
   </g>
   <g id="line2d_27">
    <path d="M 771.907594 829.587756 
L 885.295998 908.005373 
" clip-path="url(#p58e82da090)" style="fill: none; stroke: #808080; stroke-opacity: 0.3; stroke-width: 0.5; stroke-linecap: square"/>
   </g>
   <g id="line2d_28">
    <path d="M 889.973895 1067.398581 
L 981.171516 1106.371857 
" clip-path="url(#p58e82da090)" style="fill: none; stroke: #808080; stroke-opacity: 0.3; stroke-width: 0.5; stroke-linecap: square"/>
   </g>
   <g id="line2d_29">
    <path d="M 1123.358494 1036.027669 
L 1103.82707 1015.275519 
" clip-path="url(#p58e82da090)" style="fill: none; stroke: #808080; stroke-opacity: 0.3; stroke-width: 0.5; stroke-linecap: square"/>
   </g>
   <g id="line2d_30">
    <path d="M 486.680356 486.553362 
L 547.705991 755.564392 
" clip-path="url(#p58e82da090)" style="fill: none; stroke: #808080; stroke-opacity: 0.3; stroke-width: 0.5; stroke-linecap: square"/>
   </g>
   <g id="line2d_31">
    <path d="M 486.680356 486.553362 
L 683.315152 610.129093 
" clip-path="url(#p58e82da090)" style="fill: none; stroke: #808080; stroke-opacity: 0.3; stroke-width: 0.5; stroke-linecap: square"/>
   </g>
   <g id="line2d_32">
    <path d="M 486.680356 486.553362 
L 388.998401 353.370092 
" clip-path="url(#p58e82da090)" style="fill: none; stroke: #808080; stroke-opacity: 0.3; stroke-width: 0.5; stroke-linecap: square"/>
   </g>
   <g id="line2d_33">
    <path d="M 1076.249092 1024.833895 
L 1103.82707 1015.275519 
" clip-path="url(#p58e82da090)" style="fill: none; stroke: #808080; stroke-opacity: 0.3; stroke-width: 0.5; stroke-linecap: square"/>
   </g>
   <g id="line2d_34">
    <path d="M 1076.249092 1024.833895 
L 1066.072374 969.826751 
" clip-path="url(#p58e82da090)" style="fill: none; stroke: #808080; stroke-opacity: 0.3; stroke-width: 0.5; stroke-linecap: square"/>
   </g>
   <g id="line2d_35">
    <path d="M 683.315152 610.129093 
L 547.705991 755.564392 
" clip-path="url(#p58e82da090)" style="fill: none; stroke: #808080; stroke-opacity: 0.3; stroke-width: 0.5; stroke-linecap: square"/>
   </g>
   <g id="line2d_36">
    <path d="M 683.315152 610.129093 
L 770.654074 701.392118 
" clip-path="url(#p58e82da090)" style="fill: none; stroke: #808080; stroke-opacity: 0.3; stroke-width: 0.5; stroke-linecap: square"/>
   </g>
   <g id="line2d_37">
    <path d="M 388.998401 353.370092 
L 469.834799 289.236528 
" clip-path="url(#p58e82da090)" style="fill: none; stroke: #808080; stroke-opacity: 0.3; stroke-width: 0.5; stroke-linecap: square"/>
   </g>
   <g id="text_1">
    <!-- ECU -->
    <g transform="translate(883.787801 1069.054206) scale(0.06 -0.06)">
     <defs>
      <path id="DejaVuSans-45" d="M 628 4666 
L 3578 4666 
L 3578 4134 
L 1259 4134 
L 1259 2753 
L 3481 2753 
L 3481 2222 
L 1259 2222 
L 1259 531 
L 3634 531 
L 3634 0 
L 628 0 
L 628 4666 
z
" transform="scale(0.015625)"/>
      <path id="DejaVuSans-43" d="M 4122 4306 
L 4122 3641 
Q 3803 3938 3442 4084 
Q 3081 4231 2675 4231 
Q 1875 4231 1450 3742 
Q 1025 3253 1025 2328 
Q 1025 1406 1450 917 
Q 1875 428 2675 428 
Q 3081 428 3442 575 
Q 3803 722 4122 1019 
L 4122 359 
Q 3791 134 3420 21 
Q 3050 -91 2638 -91 
Q 1578 -91 968 557 
Q 359 1206 359 2328 
Q 359 3453 968 4101 
Q 1578 4750 2638 4750 
Q 3056 4750 3426 4639 
Q 3797 4528 4122 4306 
z
" transform="scale(0.015625)"/>
      <path id="DejaVuSans-55" d="M 556 4666 
L 1191 4666 
L 1191 1831 
Q 1191 1081 1462 751 
Q 1734 422 2344 422 
Q 2950 422 3222 751 
Q 3494 1081 3494 1831 
L 3494 4666 
L 4128 4666 
L 4128 1753 
Q 4128 841 3676 375 
Q 3225 -91 2344 -91 
Q 1459 -91 1007 375 
Q 556 841 556 1753 
L 556 4666 
z
" transform="scale(0.015625)"/>
     </defs>
     <use xlink:href="#DejaVuSans-45"/>
     <use xlink:href="#DejaVuSans-43" x="63.183594"/>
     <use xlink:href="#DejaVuSans-55" x="133.007812"/>
    </g>
   </g>
   <g id="text_2">
    <!-- SUR -->
    <g transform="translate(1097.642383 1016.931144) scale(0.06 -0.06)">
     <defs>
      <path id="DejaVuSans-53" d="M 3425 4513 
L 3425 3897 
Q 3066 4069 2747 4153 
Q 2428 4238 2131 4238 
Q 1616 4238 1336 4038 
Q 1056 3838 1056 3469 
Q 1056 3159 1242 3001 
Q 1428 2844 1947 2747 
L 2328 2669 
Q 3034 2534 3370 2195 
Q 3706 1856 3706 1288 
Q 3706 609 3251 259 
Q 2797 -91 1919 -91 
Q 1588 -91 1214 -16 
Q 841 59 441 206 
L 441 856 
Q 825 641 1194 531 
Q 1563 422 1919 422 
Q 2459 422 2753 634 
Q 3047 847 3047 1241 
Q 3047 1584 2836 1778 
Q 2625 1972 2144 2069 
L 1759 2144 
Q 1053 2284 737 2584 
Q 422 2884 422 3419 
Q 422 4038 858 4394 
Q 1294 4750 2059 4750 
Q 2388 4750 2728 4690 
Q 3069 4631 3425 4513 
z
" transform="scale(0.015625)"/>
      <path id="DejaVuSans-52" d="M 2841 2188 
Q 3044 2119 3236 1894 
Q 3428 1669 3622 1275 
L 4263 0 
L 3584 0 
L 2988 1197 
Q 2756 1666 2539 1819 
Q 2322 1972 1947 1972 
L 1259 1972 
L 1259 0 
L 628 0 
L 628 4666 
L 2053 4666 
Q 2853 4666 3247 4331 
Q 3641 3997 3641 3322 
Q 3641 2881 3436 2590 
Q 3231 2300 2841 2188 
z
M 1259 4147 
L 1259 2491 
L 2053 2491 
Q 2509 2491 2742 2702 
Q 2975 2913 2975 3322 
Q 2975 3731 2742 3939 
Q 2509 4147 2053 4147 
L 1259 4147 
z
" transform="scale(0.015625)"/>
     </defs>
     <use xlink:href="#DejaVuSans-53"/>
     <use xlink:href="#DejaVuSans-55" x="63.476562"/>
     <use xlink:href="#DejaVuSans-52" x="136.669922"/>
    </g>
   </g>
   <g id="text_3">
    <!-- BRA -->
    <g transform="translate(1083.63924 1077.571644) scale(0.06 -0.06)">
     <defs>
      <path id="DejaVuSans-42" d="M 1259 2228 
L 1259 519 
L 2272 519 
Q 2781 519 3026 730 
Q 3272 941 3272 1375 
Q 3272 1813 3026 2020 
Q 2781 2228 2272 2228 
L 1259 2228 
z
M 1259 4147 
L 1259 2741 
L 2194 2741 
Q 2656 2741 2882 2914 
Q 3109 3088 3109 3444 
Q 3109 3797 2882 3972 
Q 2656 4147 2194 4147 
L 1259 4147 
z
M 628 4666 
L 2241 4666 
Q 2963 4666 3353 4366 
Q 3744 4066 3744 3513 
Q 3744 3084 3544 2831 
Q 3344 2578 2956 2516 
Q 3422 2416 3680 2098 
Q 3938 1781 3938 1306 
Q 3938 681 3513 340 
Q 3088 0 2303 0 
L 628 0 
L 628 4666 
z
" transform="scale(0.015625)"/>
      <path id="DejaVuSans-41" d="M 2188 4044 
L 1331 1722 
L 3047 1722 
L 2188 4044 
z
M 1831 4666 
L 2547 4666 
L 4325 0 
L 3669 0 
L 3244 1197 
L 1141 1197 
L 716 0 
L 50 0 
L 1831 4666 
z
" transform="scale(0.015625)"/>
     </defs>
     <use xlink:href="#DejaVuSans-42"/>
     <use xlink:href="#DejaVuSans-52" x="68.603516"/>
     <use xlink:href="#DejaVuSans-41" x="134.085938"/>
    </g>
   </g>
   <g id="text_4">
    <!-- ARG -->
    <g transform="translate(1045.2808 1191.845425) scale(0.06 -0.06)">
     <defs>
      <path id="DejaVuSans-47" d="M 3809 666 
L 3809 1919 
L 2778 1919 
L 2778 2438 
L 4434 2438 
L 4434 434 
Q 4069 175 3628 42 
Q 3188 -91 2688 -91 
Q 1594 -91 976 548 
Q 359 1188 359 2328 
Q 359 3472 976 4111 
Q 1594 4750 2688 4750 
Q 3144 4750 3555 4637 
Q 3966 4525 4313 4306 
L 4313 3634 
Q 3963 3931 3569 4081 
Q 3175 4231 2741 4231 
Q 1884 4231 1454 3753 
Q 1025 3275 1025 2328 
Q 1025 1384 1454 906 
Q 1884 428 2741 428 
Q 3075 428 3337 486 
Q 3600 544 3809 666 
z
" transform="scale(0.015625)"/>
     </defs>
     <use xlink:href="#DejaVuSans-41"/>
     <use xlink:href="#DejaVuSans-52" x="68.408203"/>
     <use xlink:href="#DejaVuSans-47" x="137.890625"/>
    </g>
   </g>
   <g id="text_5">
    <!-- NIC -->
    <g transform="translate(765.429855 703.047743) scale(0.06 -0.06)">
     <defs>
      <path id="DejaVuSans-4e" d="M 628 4666 
L 1478 4666 
L 3547 763 
L 3547 4666 
L 4159 4666 
L 4159 0 
L 3309 0 
L 1241 3903 
L 1241 0 
L 628 0 
L 628 4666 
z
" transform="scale(0.015625)"/>
      <path id="DejaVuSans-49" d="M 628 4666 
L 1259 4666 
L 1259 0 
L 628 0 
L 628 4666 
z
" transform="scale(0.015625)"/>
     </defs>
     <use xlink:href="#DejaVuSans-4e"/>
     <use xlink:href="#DejaVuSans-49" x="74.804688"/>
     <use xlink:href="#DejaVuSans-43" x="104.296875"/>
    </g>
   </g>
   <g id="text_6">
    <!-- BLZ -->
    <g transform="translate(479.976745 363.806993) scale(0.06 -0.06)">
     <defs>
      <path id="DejaVuSans-4c" d="M 628 4666 
L 1259 4666 
L 1259 531 
L 3531 531 
L 3531 0 
L 628 0 
L 628 4666 
z
" transform="scale(0.015625)"/>
      <path id="DejaVuSans-5a" d="M 359 4666 
L 4025 4666 
L 4025 4184 
L 1075 531 
L 4097 531 
L 4097 0 
L 288 0 
L 288 481 
L 3238 4134 
L 359 4134 
L 359 4666 
z
" transform="scale(0.015625)"/>
     </defs>
     <use xlink:href="#DejaVuSans-42"/>
     <use xlink:href="#DejaVuSans-4c" x="68.603516"/>
     <use xlink:href="#DejaVuSans-5a" x="124.316406"/>
    </g>
   </g>
   <g id="text_7">
    <!-- BOL -->
    <g transform="translate(1027.206821 1141.210267) scale(0.06 -0.06)">
     <defs>
      <path id="DejaVuSans-4f" d="M 2522 4238 
Q 1834 4238 1429 3725 
Q 1025 3213 1025 2328 
Q 1025 1447 1429 934 
Q 1834 422 2522 422 
Q 3209 422 3611 934 
Q 4013 1447 4013 2328 
Q 4013 3213 3611 3725 
Q 3209 4238 2522 4238 
z
M 2522 4750 
Q 3503 4750 4090 4092 
Q 4678 3434 4678 2328 
Q 4678 1225 4090 567 
Q 3503 -91 2522 -91 
Q 1538 -91 948 565 
Q 359 1222 359 2328 
Q 359 3434 948 4092 
Q 1538 4750 2522 4750 
z
" transform="scale(0.015625)"/>
     </defs>
     <use xlink:href="#DejaVuSans-42"/>
     <use xlink:href="#DejaVuSans-4f" x="66.853516"/>
     <use xlink:href="#DejaVuSans-4c" x="145.564453"/>
    </g>
   </g>
   <g id="text_8">
    <!-- HND -->
    <g transform="translate(676.504683 611.784718) scale(0.06 -0.06)">
     <defs>
      <path id="DejaVuSans-48" d="M 628 4666 
L 1259 4666 
L 1259 2753 
L 3553 2753 
L 3553 4666 
L 4184 4666 
L 4184 0 
L 3553 0 
L 3553 2222 
L 1259 2222 
L 1259 0 
L 628 0 
L 628 4666 
z
" transform="scale(0.015625)"/>
      <path id="DejaVuSans-44" d="M 1259 4147 
L 1259 519 
L 2022 519 
Q 2988 519 3436 956 
Q 3884 1394 3884 2338 
Q 3884 3275 3436 3711 
Q 2988 4147 2022 4147 
L 1259 4147 
z
M 628 4666 
L 1925 4666 
Q 3281 4666 3915 4102 
Q 4550 3538 4550 2338 
Q 4550 1131 3912 565 
Q 3275 0 1925 0 
L 628 0 
L 628 4666 
z
" transform="scale(0.015625)"/>
     </defs>
     <use xlink:href="#DejaVuSans-48"/>
     <use xlink:href="#DejaVuSans-4e" x="75.195312"/>
     <use xlink:href="#DejaVuSans-44" x="150"/>
    </g>
   </g>
   <g id="text_9">
    <!-- PRY -->
    <g transform="translate(1082.008907 1144.250181) scale(0.06 -0.06)">
     <defs>
      <path id="DejaVuSans-50" d="M 1259 4147 
L 1259 2394 
L 2053 2394 
Q 2494 2394 2734 2622 
Q 2975 2850 2975 3272 
Q 2975 3691 2734 3919 
Q 2494 4147 2053 4147 
L 1259 4147 
z
M 628 4666 
L 2053 4666 
Q 2838 4666 3239 4311 
Q 3641 3956 3641 3272 
Q 3641 2581 3239 2228 
Q 2838 1875 2053 1875 
L 1259 1875 
L 1259 0 
L 628 0 
L 628 4666 
z
" transform="scale(0.015625)"/>
      <path id="DejaVuSans-59" d="M -13 4666 
L 666 4666 
L 1959 2747 
L 3244 4666 
L 3922 4666 
L 2272 2222 
L 2272 0 
L 1638 0 
L 1638 2222 
L -13 4666 
z
" transform="scale(0.015625)"/>
     </defs>
     <use xlink:href="#DejaVuSans-50"/>
     <use xlink:href="#DejaVuSans-52" x="60.302734"/>
     <use xlink:href="#DejaVuSans-59" x="123.410156"/>
    </g>
   </g>
   <g id="text_10">
    <!-- CAN -->
    <g transform="translate(493.434766 240.222115) scale(0.06 -0.06)">
     <use xlink:href="#DejaVuSans-43"/>
     <use xlink:href="#DejaVuSans-41" x="69.824219"/>
     <use xlink:href="#DejaVuSans-4e" x="138.232422"/>
    </g>
   </g>
   <g id="text_11">
    <!-- URY -->
    <g transform="translate(1108.595736 1199.967585) scale(0.06 -0.06)">
     <use xlink:href="#DejaVuSans-55"/>
     <use xlink:href="#DejaVuSans-52" x="73.193359"/>
     <use xlink:href="#DejaVuSans-59" x="136.300781"/>
    </g>
   </g>
   <g id="text_12">
    <!-- SLV -->
    <g transform="translate(542.40771 757.220017) scale(0.06 -0.06)">
     <defs>
      <path id="DejaVuSans-56" d="M 1831 0 
L 50 4666 
L 709 4666 
L 2188 738 
L 3669 4666 
L 4325 4666 
L 2547 0 
L 1831 0 
z
" transform="scale(0.015625)"/>
     </defs>
     <use xlink:href="#DejaVuSans-53"/>
     <use xlink:href="#DejaVuSans-4c" x="63.476562"/>
     <use xlink:href="#DejaVuSans-56" x="108.189453"/>
    </g>
   </g>
   <g id="text_13">
    <!-- MEX -->
    <g transform="translate(382.459338 355.025717) scale(0.06 -0.06)">
     <defs>
      <path id="DejaVuSans-4d" d="M 628 4666 
L 1569 4666 
L 2759 1491 
L 3956 4666 
L 4897 4666 
L 4897 0 
L 4281 0 
L 4281 4097 
L 3078 897 
L 2444 897 
L 1241 4097 
L 1241 0 
L 628 0 
L 628 4666 
z
" transform="scale(0.015625)"/>
      <path id="DejaVuSans-58" d="M 403 4666 
L 1081 4666 
L 2241 2931 
L 3406 4666 
L 4084 4666 
L 2584 2425 
L 4184 0 
L 3506 0 
L 2194 1984 
L 872 0 
L 191 0 
L 1856 2491 
L 403 4666 
z
" transform="scale(0.015625)"/>
     </defs>
     <use xlink:href="#DejaVuSans-4d"/>
     <use xlink:href="#DejaVuSans-45" x="86.279297"/>
     <use xlink:href="#DejaVuSans-58" x="149.462891"/>
    </g>
   </g>
   <g id="text_14">
    <!-- CRI -->
    <g transform="translate(766.843219 831.243381) scale(0.06 -0.06)">
     <use xlink:href="#DejaVuSans-43"/>
     <use xlink:href="#DejaVuSans-52" x="69.824219"/>
     <use xlink:href="#DejaVuSans-49" x="139.306641"/>
    </g>
   </g>
   <g id="text_15">
    <!-- PAN -->
    <g transform="translate(879.381779 909.660998) scale(0.06 -0.06)">
     <use xlink:href="#DejaVuSans-50"/>
     <use xlink:href="#DejaVuSans-41" x="53.927734"/>
     <use xlink:href="#DejaVuSans-4e" x="122.335938"/>
    </g>
   </g>
   <g id="text_16">
    <!-- GTM -->
    <g transform="translate(480.043794 488.208987) scale(0.06 -0.06)">
     <defs>
      <path id="DejaVuSans-54" d="M -19 4666 
L 3928 4666 
L 3928 4134 
L 2272 4134 
L 2272 0 
L 1638 0 
L 1638 4134 
L -19 4134 
L -19 4666 
z
" transform="scale(0.015625)"/>
     </defs>
     <use xlink:href="#DejaVuSans-47"/>
     <use xlink:href="#DejaVuSans-54" x="73.865234"/>
     <use xlink:href="#DejaVuSans-4d" x="134.949219"/>
    </g>
   </g>
   <g id="text_17">
    <!-- VEN -->
    <g transform="translate(1059.880187 971.482376) scale(0.06 -0.06)">
     <use xlink:href="#DejaVuSans-56"/>
     <use xlink:href="#DejaVuSans-45" x="68.408203"/>
     <use xlink:href="#DejaVuSans-4e" x="131.591797"/>
    </g>
   </g>
   <g id="text_18">
    <!-- CHL -->
    <g transform="translate(973.663102 1182.827234) scale(0.06 -0.06)">
     <use xlink:href="#DejaVuSans-43"/>
     <use xlink:href="#DejaVuSans-48" x="69.824219"/>
     <use xlink:href="#DejaVuSans-4c" x="145.019531"/>
    </g>
   </g>
   <g id="text_19">
    <!-- PER -->
    <g transform="translate(975.382454 1108.027482) scale(0.06 -0.06)">
     <use xlink:href="#DejaVuSans-50"/>
     <use xlink:href="#DejaVuSans-45" x="60.302734"/>
     <use xlink:href="#DejaVuSans-52" x="123.486328"/>
    </g>
   </g>
   <g id="text_20">
    <!-- USA -->
    <g transform="translate(463.626205 290.892153) scale(0.06 -0.06)">
     <use xlink:href="#DejaVuSans-55"/>
     <use xlink:href="#DejaVuSans-53" x="73.193359"/>
     <use xlink:href="#DejaVuSans-41" x="138.544922"/>
    </g>
   </g>
   <g id="text_21">
    <!-- COL -->
    <g transform="translate(984.501099 1021.794198) scale(0.06 -0.06)">
     <use xlink:href="#DejaVuSans-43"/>
     <use xlink:href="#DejaVuSans-4f" x="69.824219"/>
     <use xlink:href="#DejaVuSans-4c" x="148.535156"/>
    </g>
   </g>
   <g id="text_22">
    <!-- GUF -->
    <g transform="translate(1117.112869 1037.683294) scale(0.06 -0.06)">
     <defs>
      <path id="DejaVuSans-46" d="M 628 4666 
L 3309 4666 
L 3309 4134 
L 1259 4134 
L 1259 2759 
L 3109 2759 
L 3109 2228 
L 1259 2228 
L 1259 0 
L 628 0 
L 628 4666 
z
" transform="scale(0.015625)"/>
     </defs>
     <use xlink:href="#DejaVuSans-47"/>
     <use xlink:href="#DejaVuSans-55" x="77.490234"/>
     <use xlink:href="#DejaVuSans-46" x="150.683594"/>
    </g>
   </g>
   <g id="text_23">
    <!-- GUY -->
    <g transform="translate(1069.896592 1026.48952) scale(0.06 -0.06)">
     <use xlink:href="#DejaVuSans-47"/>
     <use xlink:href="#DejaVuSans-55" x="77.490234"/>
     <use xlink:href="#DejaVuSans-59" x="150.683594"/>
    </g>
   </g>
   <g id="text_24">
    <!-- A:9.28 -->
    <g transform="translate(1042.493889 1164.872221) scale(0.04 -0.04)">
     <defs>
      <path id="DejaVuSans-3a" d="M 750 794 
L 1409 794 
L 1409 0 
L 750 0 
L 750 794 
z
M 750 3309 
L 1409 3309 
L 1409 2516 
L 750 2516 
L 750 3309 
z
" transform="scale(0.015625)"/>
      <path id="DejaVuSans-39" d="M 703 97 
L 703 672 
Q 941 559 1184 500 
Q 1428 441 1663 441 
Q 2288 441 2617 861 
Q 2947 1281 2994 2138 
Q 2813 1869 2534 1725 
Q 2256 1581 1919 1581 
Q 1219 1581 811 2004 
Q 403 2428 403 3163 
Q 403 3881 828 4315 
Q 1253 4750 1959 4750 
Q 2769 4750 3195 4129 
Q 3622 3509 3622 2328 
Q 3622 1225 3098 567 
Q 2575 -91 1691 -91 
Q 1453 -91 1209 -44 
Q 966 3 703 97 
z
M 1959 2075 
Q 2384 2075 2632 2365 
Q 2881 2656 2881 3163 
Q 2881 3666 2632 3958 
Q 2384 4250 1959 4250 
Q 1534 4250 1286 3958 
Q 1038 3666 1038 3163 
Q 1038 2656 1286 2365 
Q 1534 2075 1959 2075 
z
" transform="scale(0.015625)"/>
      <path id="DejaVuSans-2e" d="M 684 794 
L 1344 794 
L 1344 0 
L 684 0 
L 684 794 
z
" transform="scale(0.015625)"/>
      <path id="DejaVuSans-32" d="M 1228 531 
L 3431 531 
L 3431 0 
L 469 0 
L 469 531 
Q 828 903 1448 1529 
Q 2069 2156 2228 2338 
Q 2531 2678 2651 2914 
Q 2772 3150 2772 3378 
Q 2772 3750 2511 3984 
Q 2250 4219 1831 4219 
Q 1534 4219 1204 4116 
Q 875 4013 500 3803 
L 500 4441 
Q 881 4594 1212 4672 
Q 1544 4750 1819 4750 
Q 2544 4750 2975 4387 
Q 3406 4025 3406 3419 
Q 3406 3131 3298 2873 
Q 3191 2616 2906 2266 
Q 2828 2175 2409 1742 
Q 1991 1309 1228 531 
z
" transform="scale(0.015625)"/>
      <path id="DejaVuSans-38" d="M 2034 2216 
Q 1584 2216 1326 1975 
Q 1069 1734 1069 1313 
Q 1069 891 1326 650 
Q 1584 409 2034 409 
Q 2484 409 2743 651 
Q 3003 894 3003 1313 
Q 3003 1734 2745 1975 
Q 2488 2216 2034 2216 
z
M 1403 2484 
Q 997 2584 770 2862 
Q 544 3141 544 3541 
Q 544 4100 942 4425 
Q 1341 4750 2034 4750 
Q 2731 4750 3128 4425 
Q 3525 4100 3525 3541 
Q 3525 3141 3298 2862 
Q 3072 2584 2669 2484 
Q 3125 2378 3379 2068 
Q 3634 1759 3634 1313 
Q 3634 634 3220 271 
Q 2806 -91 2034 -91 
Q 1263 -91 848 271 
Q 434 634 434 1313 
Q 434 1759 690 2068 
Q 947 2378 1403 2484 
z
M 1172 3481 
Q 1172 3119 1398 2916 
Q 1625 2713 2034 2713 
Q 2441 2713 2670 2916 
Q 2900 3119 2900 3481 
Q 2900 3844 2670 4047 
Q 2441 4250 2034 4250 
Q 1625 4250 1398 4047 
Q 1172 3844 1172 3481 
z
" transform="scale(0.015625)"/>
     </defs>
     <use xlink:href="#DejaVuSans-41"/>
     <use xlink:href="#DejaVuSans-3a" x="66.658203"/>
     <use xlink:href="#DejaVuSans-39" x="100.349609"/>
     <use xlink:href="#DejaVuSans-2e" x="163.972656"/>
     <use xlink:href="#DejaVuSans-32" x="195.759766"/>
     <use xlink:href="#DejaVuSans-38" x="259.382812"/>
    </g>
   </g>
   <g id="text_25">
    <!-- D:76.56 -->
    <g transform="translate(1070.728145 1128.573785) scale(0.04 -0.04)">
     <defs>
      <path id="DejaVuSans-37" d="M 525 4666 
L 3525 4666 
L 3525 4397 
L 1831 0 
L 1172 0 
L 2766 4134 
L 525 4134 
L 525 4666 
z
" transform="scale(0.015625)"/>
      <path id="DejaVuSans-36" d="M 2113 2584 
Q 1688 2584 1439 2293 
Q 1191 2003 1191 1497 
Q 1191 994 1439 701 
Q 1688 409 2113 409 
Q 2538 409 2786 701 
Q 3034 994 3034 1497 
Q 3034 2003 2786 2293 
Q 2538 2584 2113 2584 
z
M 3366 4563 
L 3366 3988 
Q 3128 4100 2886 4159 
Q 2644 4219 2406 4219 
Q 1781 4219 1451 3797 
Q 1122 3375 1075 2522 
Q 1259 2794 1537 2939 
Q 1816 3084 2150 3084 
Q 2853 3084 3261 2657 
Q 3669 2231 3669 1497 
Q 3669 778 3244 343 
Q 2819 -91 2113 -91 
Q 1303 -91 875 529 
Q 447 1150 447 2328 
Q 447 3434 972 4092 
Q 1497 4750 2381 4750 
Q 2619 4750 2861 4703 
Q 3103 4656 3366 4563 
z
" transform="scale(0.015625)"/>
      <path id="DejaVuSans-35" d="M 691 4666 
L 3169 4666 
L 3169 4134 
L 1269 4134 
L 1269 2991 
Q 1406 3038 1543 3061 
Q 1681 3084 1819 3084 
Q 2600 3084 3056 2656 
Q 3513 2228 3513 1497 
Q 3513 744 3044 326 
Q 2575 -91 1722 -91 
Q 1428 -91 1123 -41 
Q 819 9 494 109 
L 494 744 
Q 775 591 1075 516 
Q 1375 441 1709 441 
Q 2250 441 2565 725 
Q 2881 1009 2881 1497 
Q 2881 1984 2565 2268 
Q 2250 2553 1709 2553 
Q 1456 2553 1204 2497 
Q 953 2441 691 2322 
L 691 4666 
z
" transform="scale(0.015625)"/>
     </defs>
     <use xlink:href="#DejaVuSans-44"/>
     <use xlink:href="#DejaVuSans-3a" x="77.001953"/>
     <use xlink:href="#DejaVuSans-37" x="110.693359"/>
     <use xlink:href="#DejaVuSans-36" x="174.316406"/>
     <use xlink:href="#DejaVuSans-2e" x="237.939453"/>
     <use xlink:href="#DejaVuSans-35" x="269.726562"/>
     <use xlink:href="#DejaVuSans-36" x="333.349609"/>
    </g>
    <!-- A:1.21 -->
    <g transform="translate(1070.728145 1133.05291) scale(0.04 -0.04)">
     <defs>
      <path id="DejaVuSans-31" d="M 794 531 
L 1825 531 
L 1825 4091 
L 703 3866 
L 703 4441 
L 1819 4666 
L 2450 4666 
L 2450 531 
L 3481 531 
L 3481 0 
L 794 0 
L 794 531 
z
" transform="scale(0.015625)"/>
     </defs>
     <use xlink:href="#DejaVuSans-41"/>
     <use xlink:href="#DejaVuSans-3a" x="66.658203"/>
     <use xlink:href="#DejaVuSans-31" x="100.349609"/>
     <use xlink:href="#DejaVuSans-2e" x="163.972656"/>
     <use xlink:href="#DejaVuSans-32" x="195.759766"/>
     <use xlink:href="#DejaVuSans-31" x="259.382812"/>
    </g>
   </g>
   <g id="text_26">
    <!-- A:1.21 -->
    <g transform="translate(1070.728145 1133.05291) scale(0.04 -0.04)">
     <use xlink:href="#DejaVuSans-41"/>
     <use xlink:href="#DejaVuSans-3a" x="66.658203"/>
     <use xlink:href="#DejaVuSans-31" x="100.349609"/>
     <use xlink:href="#DejaVuSans-2e" x="163.972656"/>
     <use xlink:href="#DejaVuSans-32" x="195.759766"/>
     <use xlink:href="#DejaVuSans-31" x="259.382812"/>
    </g>
   </g>
   <g id="text_27">
    <!-- D:6.01 -->
    <g transform="translate(1015.713826 1181.20158) scale(0.04 -0.04)">
     <defs>
      <path id="DejaVuSans-30" d="M 2034 4250 
Q 1547 4250 1301 3770 
Q 1056 3291 1056 2328 
Q 1056 1369 1301 889 
Q 1547 409 2034 409 
Q 2525 409 2770 889 
Q 3016 1369 3016 2328 
Q 3016 3291 2770 3770 
Q 2525 4250 2034 4250 
z
M 2034 4750 
Q 2819 4750 3233 4129 
Q 3647 3509 3647 2328 
Q 3647 1150 3233 529 
Q 2819 -91 2034 -91 
Q 1250 -91 836 529 
Q 422 1150 422 2328 
Q 422 3509 836 4129 
Q 1250 4750 2034 4750 
z
" transform="scale(0.015625)"/>
     </defs>
     <use xlink:href="#DejaVuSans-44"/>
     <use xlink:href="#DejaVuSans-3a" x="77.001953"/>
     <use xlink:href="#DejaVuSans-36" x="110.693359"/>
     <use xlink:href="#DejaVuSans-2e" x="174.316406"/>
     <use xlink:href="#DejaVuSans-30" x="206.103516"/>
     <use xlink:href="#DejaVuSans-31" x="269.726562"/>
    </g>
    <!-- A:12.56 -->
    <g transform="translate(1015.713826 1185.680705) scale(0.04 -0.04)">
     <use xlink:href="#DejaVuSans-41"/>
     <use xlink:href="#DejaVuSans-3a" x="66.658203"/>
     <use xlink:href="#DejaVuSans-31" x="100.349609"/>
     <use xlink:href="#DejaVuSans-32" x="163.972656"/>
     <use xlink:href="#DejaVuSans-2e" x="227.595703"/>
     <use xlink:href="#DejaVuSans-35" x="259.382812"/>
     <use xlink:href="#DejaVuSans-36" x="323.005859"/>
    </g>
   </g>
   <g id="text_28">
    <!-- A:12.56 -->
    <g transform="translate(1015.713826 1185.680705) scale(0.04 -0.04)">
     <use xlink:href="#DejaVuSans-41"/>
     <use xlink:href="#DejaVuSans-3a" x="66.658203"/>
     <use xlink:href="#DejaVuSans-31" x="100.349609"/>
     <use xlink:href="#DejaVuSans-32" x="163.972656"/>
     <use xlink:href="#DejaVuSans-2e" x="227.595703"/>
     <use xlink:href="#DejaVuSans-35" x="259.382812"/>
     <use xlink:href="#DejaVuSans-36" x="323.005859"/>
    </g>
   </g>
   <g id="text_29">
    <!-- A:4.63 -->
    <g transform="translate(1069.642744 1166.392178) scale(0.04 -0.04)">
     <defs>
      <path id="DejaVuSans-34" d="M 2419 4116 
L 825 1625 
L 2419 1625 
L 2419 4116 
z
M 2253 4666 
L 3047 4666 
L 3047 1625 
L 3713 1625 
L 3713 1100 
L 3047 1100 
L 3047 0 
L 2419 0 
L 2419 1100 
L 313 1100 
L 313 1709 
L 2253 4666 
z
" transform="scale(0.015625)"/>
      <path id="DejaVuSans-33" d="M 2597 2516 
Q 3050 2419 3304 2112 
Q 3559 1806 3559 1356 
Q 3559 666 3084 287 
Q 2609 -91 1734 -91 
Q 1441 -91 1130 -33 
Q 819 25 488 141 
L 488 750 
Q 750 597 1062 519 
Q 1375 441 1716 441 
Q 2309 441 2620 675 
Q 2931 909 2931 1356 
Q 2931 1769 2642 2001 
Q 2353 2234 1838 2234 
L 1294 2234 
L 1294 2753 
L 1863 2753 
Q 2328 2753 2575 2939 
Q 2822 3125 2822 3475 
Q 2822 3834 2567 4026 
Q 2313 4219 1838 4219 
Q 1578 4219 1281 4162 
Q 984 4106 628 3988 
L 628 4550 
Q 988 4650 1302 4700 
Q 1616 4750 1894 4750 
Q 2613 4750 3031 4423 
Q 3450 4097 3450 3541 
Q 3450 3153 3228 2886 
Q 3006 2619 2597 2516 
z
" transform="scale(0.015625)"/>
     </defs>
     <use xlink:href="#DejaVuSans-41"/>
     <use xlink:href="#DejaVuSans-3a" x="66.658203"/>
     <use xlink:href="#DejaVuSans-34" x="100.349609"/>
     <use xlink:href="#DejaVuSans-2e" x="163.972656"/>
     <use xlink:href="#DejaVuSans-36" x="195.759766"/>
     <use xlink:href="#DejaVuSans-33" x="259.382812"/>
    </g>
   </g>
   <g id="text_30">
    <!-- D:0.08 -->
    <g transform="translate(1083.129518 1189.771755) scale(0.04 -0.04)">
     <use xlink:href="#DejaVuSans-44"/>
     <use xlink:href="#DejaVuSans-3a" x="77.001953"/>
     <use xlink:href="#DejaVuSans-30" x="110.693359"/>
     <use xlink:href="#DejaVuSans-2e" x="174.316406"/>
     <use xlink:href="#DejaVuSans-30" x="206.103516"/>
     <use xlink:href="#DejaVuSans-38" x="269.726562"/>
    </g>
    <!-- A:8.05 -->
    <g transform="translate(1083.129518 1194.25088) scale(0.04 -0.04)">
     <use xlink:href="#DejaVuSans-41"/>
     <use xlink:href="#DejaVuSans-3a" x="66.658203"/>
     <use xlink:href="#DejaVuSans-38" x="100.349609"/>
     <use xlink:href="#DejaVuSans-2e" x="163.972656"/>
     <use xlink:href="#DejaVuSans-30" x="195.759766"/>
     <use xlink:href="#DejaVuSans-35" x="259.382812"/>
    </g>
   </g>
   <g id="text_31">
    <!-- A:8.05 -->
    <g transform="translate(1083.129518 1194.25088) scale(0.04 -0.04)">
     <use xlink:href="#DejaVuSans-41"/>
     <use xlink:href="#DejaVuSans-3a" x="66.658203"/>
     <use xlink:href="#DejaVuSans-38" x="100.349609"/>
     <use xlink:href="#DejaVuSans-2e" x="163.972656"/>
     <use xlink:href="#DejaVuSans-30" x="195.759766"/>
     <use xlink:href="#DejaVuSans-35" x="259.382812"/>
    </g>
   </g>
   <g id="text_32">
    <!-- D:35.08 -->
    <g transform="translate(1061.479984 1103.256205) scale(0.04 -0.04)">
     <use xlink:href="#DejaVuSans-44"/>
     <use xlink:href="#DejaVuSans-3a" x="77.001953"/>
     <use xlink:href="#DejaVuSans-33" x="110.693359"/>
     <use xlink:href="#DejaVuSans-35" x="174.316406"/>
     <use xlink:href="#DejaVuSans-2e" x="237.939453"/>
     <use xlink:href="#DejaVuSans-30" x="269.726562"/>
     <use xlink:href="#DejaVuSans-38" x="333.349609"/>
    </g>
    <!-- A:7.46 -->
    <g transform="translate(1061.479984 1107.73533) scale(0.04 -0.04)">
     <use xlink:href="#DejaVuSans-41"/>
     <use xlink:href="#DejaVuSans-3a" x="66.658203"/>
     <use xlink:href="#DejaVuSans-37" x="100.349609"/>
     <use xlink:href="#DejaVuSans-2e" x="163.972656"/>
     <use xlink:href="#DejaVuSans-34" x="195.759766"/>
     <use xlink:href="#DejaVuSans-36" x="259.382812"/>
    </g>
   </g>
   <g id="text_33">
    <!-- A:7.46 -->
    <g transform="translate(1061.479984 1107.73533) scale(0.04 -0.04)">
     <use xlink:href="#DejaVuSans-41"/>
     <use xlink:href="#DejaVuSans-3a" x="66.658203"/>
     <use xlink:href="#DejaVuSans-37" x="100.349609"/>
     <use xlink:href="#DejaVuSans-2e" x="163.972656"/>
     <use xlink:href="#DejaVuSans-34" x="195.759766"/>
     <use xlink:href="#DejaVuSans-36" x="259.382812"/>
    </g>
   </g>
   <g id="text_34">
    <!-- D:7.18 -->
    <g transform="translate(1006.465665 1155.884) scale(0.04 -0.04)">
     <use xlink:href="#DejaVuSans-44"/>
     <use xlink:href="#DejaVuSans-3a" x="77.001953"/>
     <use xlink:href="#DejaVuSans-37" x="110.693359"/>
     <use xlink:href="#DejaVuSans-2e" x="174.316406"/>
     <use xlink:href="#DejaVuSans-31" x="206.103516"/>
     <use xlink:href="#DejaVuSans-38" x="269.726562"/>
    </g>
    <!-- A:15.21 -->
    <g transform="translate(1006.465665 1160.363125) scale(0.04 -0.04)">
     <use xlink:href="#DejaVuSans-41"/>
     <use xlink:href="#DejaVuSans-3a" x="66.658203"/>
     <use xlink:href="#DejaVuSans-31" x="100.349609"/>
     <use xlink:href="#DejaVuSans-35" x="163.972656"/>
     <use xlink:href="#DejaVuSans-2e" x="227.595703"/>
     <use xlink:href="#DejaVuSans-32" x="259.382812"/>
     <use xlink:href="#DejaVuSans-31" x="323.005859"/>
    </g>
   </g>
   <g id="text_35">
    <!-- A:15.21 -->
    <g transform="translate(1006.465665 1160.363125) scale(0.04 -0.04)">
     <use xlink:href="#DejaVuSans-41"/>
     <use xlink:href="#DejaVuSans-3a" x="66.658203"/>
     <use xlink:href="#DejaVuSans-31" x="100.349609"/>
     <use xlink:href="#DejaVuSans-35" x="163.972656"/>
     <use xlink:href="#DejaVuSans-2e" x="227.595703"/>
     <use xlink:href="#DejaVuSans-32" x="259.382812"/>
     <use xlink:href="#DejaVuSans-31" x="323.005859"/>
    </g>
   </g>
   <g id="text_36">
    <!-- A:20.78 -->
    <g transform="translate(1060.394583 1141.074599) scale(0.04 -0.04)">
     <use xlink:href="#DejaVuSans-41"/>
     <use xlink:href="#DejaVuSans-3a" x="66.658203"/>
     <use xlink:href="#DejaVuSans-32" x="100.349609"/>
     <use xlink:href="#DejaVuSans-30" x="163.972656"/>
     <use xlink:href="#DejaVuSans-2e" x="227.595703"/>
     <use xlink:href="#DejaVuSans-37" x="259.382812"/>
     <use xlink:href="#DejaVuSans-38" x="323.005859"/>
    </g>
   </g>
   <g id="text_37">
    <!-- A:0.02 -->
    <g transform="translate(1007.208622 1122.963249) scale(0.04 -0.04)">
     <use xlink:href="#DejaVuSans-41"/>
     <use xlink:href="#DejaVuSans-3a" x="66.658203"/>
     <use xlink:href="#DejaVuSans-30" x="100.349609"/>
     <use xlink:href="#DejaVuSans-2e" x="163.972656"/>
     <use xlink:href="#DejaVuSans-30" x="195.759766"/>
     <use xlink:href="#DejaVuSans-32" x="259.382812"/>
    </g>
   </g>
   <g id="text_38">
    <!-- D:28.15 -->
    <g transform="translate(1040.171654 1043.548171) scale(0.04 -0.04)">
     <use xlink:href="#DejaVuSans-44"/>
     <use xlink:href="#DejaVuSans-3a" x="77.001953"/>
     <use xlink:href="#DejaVuSans-32" x="110.693359"/>
     <use xlink:href="#DejaVuSans-38" x="174.316406"/>
     <use xlink:href="#DejaVuSans-2e" x="237.939453"/>
     <use xlink:href="#DejaVuSans-31" x="269.726562"/>
     <use xlink:href="#DejaVuSans-35" x="333.349609"/>
    </g>
    <!-- A:5.61 -->
    <g transform="translate(1040.171654 1048.027296) scale(0.04 -0.04)">
     <use xlink:href="#DejaVuSans-41"/>
     <use xlink:href="#DejaVuSans-3a" x="66.658203"/>
     <use xlink:href="#DejaVuSans-35" x="100.349609"/>
     <use xlink:href="#DejaVuSans-2e" x="163.972656"/>
     <use xlink:href="#DejaVuSans-36" x="195.759766"/>
     <use xlink:href="#DejaVuSans-31" x="259.382812"/>
    </g>
   </g>
   <g id="text_39">
    <!-- A:5.61 -->
    <g transform="translate(1040.171654 1048.027296) scale(0.04 -0.04)">
     <use xlink:href="#DejaVuSans-41"/>
     <use xlink:href="#DejaVuSans-3a" x="66.658203"/>
     <use xlink:href="#DejaVuSans-35" x="100.349609"/>
     <use xlink:href="#DejaVuSans-2e" x="163.972656"/>
     <use xlink:href="#DejaVuSans-36" x="195.759766"/>
     <use xlink:href="#DejaVuSans-31" x="259.382812"/>
    </g>
   </g>
   <g id="text_40">
    <!-- A:17.79 -->
    <g transform="translate(1106.536367 1055.971844) scale(0.04 -0.04)">
     <use xlink:href="#DejaVuSans-41"/>
     <use xlink:href="#DejaVuSans-3a" x="66.658203"/>
     <use xlink:href="#DejaVuSans-31" x="100.349609"/>
     <use xlink:href="#DejaVuSans-37" x="163.972656"/>
     <use xlink:href="#DejaVuSans-2e" x="227.595703"/>
     <use xlink:href="#DejaVuSans-37" x="259.382812"/>
     <use xlink:href="#DejaVuSans-39" x="323.005859"/>
    </g>
   </g>
   <g id="text_41">
    <!-- A:0.09 -->
    <g transform="translate(1082.981666 1050.374957) scale(0.04 -0.04)">
     <use xlink:href="#DejaVuSans-41"/>
     <use xlink:href="#DejaVuSans-3a" x="66.658203"/>
     <use xlink:href="#DejaVuSans-30" x="100.349609"/>
     <use xlink:href="#DejaVuSans-2e" x="163.972656"/>
     <use xlink:href="#DejaVuSans-30" x="195.759766"/>
     <use xlink:href="#DejaVuSans-39" x="259.382812"/>
    </g>
   </g>
   <g id="text_42">
    <!-- A:6.18 -->
    <g transform="translate(1088.628839 1109.255287) scale(0.04 -0.04)">
     <use xlink:href="#DejaVuSans-41"/>
     <use xlink:href="#DejaVuSans-3a" x="66.658203"/>
     <use xlink:href="#DejaVuSans-36" x="100.349609"/>
     <use xlink:href="#DejaVuSans-2e" x="163.972656"/>
     <use xlink:href="#DejaVuSans-31" x="195.759766"/>
     <use xlink:href="#DejaVuSans-38" x="259.382812"/>
    </g>
   </g>
   <g id="text_43">
    <!-- D:47.78 -->
    <g transform="translate(1035.442878 1086.664813) scale(0.04 -0.04)">
     <use xlink:href="#DejaVuSans-44"/>
     <use xlink:href="#DejaVuSans-3a" x="77.001953"/>
     <use xlink:href="#DejaVuSans-34" x="110.693359"/>
     <use xlink:href="#DejaVuSans-37" x="174.316406"/>
     <use xlink:href="#DejaVuSans-2e" x="237.939453"/>
     <use xlink:href="#DejaVuSans-37" x="269.726562"/>
     <use xlink:href="#DejaVuSans-38" x="333.349609"/>
    </g>
    <!-- A:8.71 -->
    <g transform="translate(1035.442878 1091.143938) scale(0.04 -0.04)">
     <use xlink:href="#DejaVuSans-41"/>
     <use xlink:href="#DejaVuSans-3a" x="66.658203"/>
     <use xlink:href="#DejaVuSans-38" x="100.349609"/>
     <use xlink:href="#DejaVuSans-2e" x="163.972656"/>
     <use xlink:href="#DejaVuSans-37" x="195.759766"/>
     <use xlink:href="#DejaVuSans-31" x="259.382812"/>
    </g>
   </g>
   <g id="text_44">
    <!-- A:8.71 -->
    <g transform="translate(1035.442878 1091.143938) scale(0.04 -0.04)">
     <use xlink:href="#DejaVuSans-41"/>
     <use xlink:href="#DejaVuSans-3a" x="66.658203"/>
     <use xlink:href="#DejaVuSans-38" x="100.349609"/>
     <use xlink:href="#DejaVuSans-2e" x="163.972656"/>
     <use xlink:href="#DejaVuSans-37" x="195.759766"/>
     <use xlink:href="#DejaVuSans-31" x="259.382812"/>
    </g>
   </g>
   <g id="text_45">
    <!-- D:18.13 -->
    <g transform="translate(1096.770655 1041.116644) scale(0.04 -0.04)">
     <use xlink:href="#DejaVuSans-44"/>
     <use xlink:href="#DejaVuSans-3a" x="77.001953"/>
     <use xlink:href="#DejaVuSans-31" x="110.693359"/>
     <use xlink:href="#DejaVuSans-38" x="174.316406"/>
     <use xlink:href="#DejaVuSans-2e" x="237.939453"/>
     <use xlink:href="#DejaVuSans-31" x="269.726562"/>
     <use xlink:href="#DejaVuSans-33" x="333.349609"/>
    </g>
    <!-- A:9.55 -->
    <g transform="translate(1096.770655 1045.595769) scale(0.04 -0.04)">
     <use xlink:href="#DejaVuSans-41"/>
     <use xlink:href="#DejaVuSans-3a" x="66.658203"/>
     <use xlink:href="#DejaVuSans-39" x="100.349609"/>
     <use xlink:href="#DejaVuSans-2e" x="163.972656"/>
     <use xlink:href="#DejaVuSans-35" x="195.759766"/>
     <use xlink:href="#DejaVuSans-35" x="259.382812"/>
    </g>
   </g>
   <g id="text_46">
    <!-- A:9.55 -->
    <g transform="translate(1096.770655 1045.595769) scale(0.04 -0.04)">
     <use xlink:href="#DejaVuSans-41"/>
     <use xlink:href="#DejaVuSans-3a" x="66.658203"/>
     <use xlink:href="#DejaVuSans-39" x="100.349609"/>
     <use xlink:href="#DejaVuSans-2e" x="163.972656"/>
     <use xlink:href="#DejaVuSans-35" x="195.759766"/>
     <use xlink:href="#DejaVuSans-35" x="259.382812"/>
    </g>
   </g>
   <g id="text_47">
    <!-- D:76.56 -->
    <g transform="translate(1102.115613 1132.634864) scale(0.04 -0.04)">
     <use xlink:href="#DejaVuSans-44"/>
     <use xlink:href="#DejaVuSans-3a" x="77.001953"/>
     <use xlink:href="#DejaVuSans-37" x="110.693359"/>
     <use xlink:href="#DejaVuSans-36" x="174.316406"/>
     <use xlink:href="#DejaVuSans-2e" x="237.939453"/>
     <use xlink:href="#DejaVuSans-35" x="269.726562"/>
     <use xlink:href="#DejaVuSans-36" x="333.349609"/>
    </g>
    <!-- A:7.75 -->
    <g transform="translate(1102.115613 1137.113989) scale(0.04 -0.04)">
     <use xlink:href="#DejaVuSans-41"/>
     <use xlink:href="#DejaVuSans-3a" x="66.658203"/>
     <use xlink:href="#DejaVuSans-37" x="100.349609"/>
     <use xlink:href="#DejaVuSans-2e" x="163.972656"/>
     <use xlink:href="#DejaVuSans-37" x="195.759766"/>
     <use xlink:href="#DejaVuSans-35" x="259.382812"/>
    </g>
   </g>
   <g id="text_48">
    <!-- A:7.75 -->
    <g transform="translate(1102.115613 1137.113989) scale(0.04 -0.04)">
     <use xlink:href="#DejaVuSans-41"/>
     <use xlink:href="#DejaVuSans-3a" x="66.658203"/>
     <use xlink:href="#DejaVuSans-37" x="100.349609"/>
     <use xlink:href="#DejaVuSans-2e" x="163.972656"/>
     <use xlink:href="#DejaVuSans-37" x="195.759766"/>
     <use xlink:href="#DejaVuSans-35" x="259.382812"/>
    </g>
   </g>
   <g id="text_49">
    <!-- D:35.31 -->
    <g transform="translate(1077.893307 1018.39226) scale(0.04 -0.04)">
     <use xlink:href="#DejaVuSans-44"/>
     <use xlink:href="#DejaVuSans-3a" x="77.001953"/>
     <use xlink:href="#DejaVuSans-33" x="110.693359"/>
     <use xlink:href="#DejaVuSans-35" x="174.316406"/>
     <use xlink:href="#DejaVuSans-2e" x="237.939453"/>
     <use xlink:href="#DejaVuSans-33" x="269.726562"/>
     <use xlink:href="#DejaVuSans-31" x="333.349609"/>
    </g>
    <!-- A:10.48 -->
    <g transform="translate(1077.893307 1022.871385) scale(0.04 -0.04)">
     <use xlink:href="#DejaVuSans-41"/>
     <use xlink:href="#DejaVuSans-3a" x="66.658203"/>
     <use xlink:href="#DejaVuSans-31" x="100.349609"/>
     <use xlink:href="#DejaVuSans-30" x="163.972656"/>
     <use xlink:href="#DejaVuSans-2e" x="227.595703"/>
     <use xlink:href="#DejaVuSans-34" x="259.382812"/>
     <use xlink:href="#DejaVuSans-38" x="323.005859"/>
    </g>
   </g>
   <g id="text_50">
    <!-- A:10.48 -->
    <g transform="translate(1077.893307 1022.871385) scale(0.04 -0.04)">
     <use xlink:href="#DejaVuSans-41"/>
     <use xlink:href="#DejaVuSans-3a" x="66.658203"/>
     <use xlink:href="#DejaVuSans-31" x="100.349609"/>
     <use xlink:href="#DejaVuSans-30" x="163.972656"/>
     <use xlink:href="#DejaVuSans-2e" x="227.595703"/>
     <use xlink:href="#DejaVuSans-34" x="259.382812"/>
     <use xlink:href="#DejaVuSans-38" x="323.005859"/>
    </g>
   </g>
   <g id="text_51">
    <!-- A:22.16 -->
    <g transform="translate(486.220973 424.352365) scale(0.04 -0.04)">
     <use xlink:href="#DejaVuSans-41"/>
     <use xlink:href="#DejaVuSans-3a" x="66.658203"/>
     <use xlink:href="#DejaVuSans-32" x="100.349609"/>
     <use xlink:href="#DejaVuSans-32" x="163.972656"/>
     <use xlink:href="#DejaVuSans-2e" x="227.595703"/>
     <use xlink:href="#DejaVuSans-31" x="259.382812"/>
     <use xlink:href="#DejaVuSans-36" x="323.005859"/>
    </g>
   </g>
   <g id="text_52">
    <!-- D:5.62 -->
    <g transform="translate(437.379995 353.281605) scale(0.04 -0.04)">
     <use xlink:href="#DejaVuSans-44"/>
     <use xlink:href="#DejaVuSans-3a" x="77.001953"/>
     <use xlink:href="#DejaVuSans-35" x="110.693359"/>
     <use xlink:href="#DejaVuSans-2e" x="174.316406"/>
     <use xlink:href="#DejaVuSans-36" x="206.103516"/>
     <use xlink:href="#DejaVuSans-32" x="269.726562"/>
    </g>
    <!-- A:10.30 -->
    <g transform="translate(437.379995 357.76073) scale(0.04 -0.04)">
     <use xlink:href="#DejaVuSans-41"/>
     <use xlink:href="#DejaVuSans-3a" x="66.658203"/>
     <use xlink:href="#DejaVuSans-31" x="100.349609"/>
     <use xlink:href="#DejaVuSans-30" x="163.972656"/>
     <use xlink:href="#DejaVuSans-2e" x="227.595703"/>
     <use xlink:href="#DejaVuSans-33" x="259.382812"/>
     <use xlink:href="#DejaVuSans-30" x="323.005859"/>
    </g>
   </g>
   <g id="text_53">
    <!-- A:10.30 -->
    <g transform="translate(437.379995 357.76073) scale(0.04 -0.04)">
     <use xlink:href="#DejaVuSans-41"/>
     <use xlink:href="#DejaVuSans-3a" x="66.658203"/>
     <use xlink:href="#DejaVuSans-31" x="100.349609"/>
     <use xlink:href="#DejaVuSans-30" x="163.972656"/>
     <use xlink:href="#DejaVuSans-2e" x="227.595703"/>
     <use xlink:href="#DejaVuSans-33" x="259.382812"/>
     <use xlink:href="#DejaVuSans-30" x="323.005859"/>
    </g>
   </g>
   <g id="text_54">
    <!-- A:14.13 -->
    <g transform="translate(484.830486 263.901509) scale(0.04 -0.04)">
     <use xlink:href="#DejaVuSans-41"/>
     <use xlink:href="#DejaVuSans-3a" x="66.658203"/>
     <use xlink:href="#DejaVuSans-31" x="100.349609"/>
     <use xlink:href="#DejaVuSans-34" x="163.972656"/>
     <use xlink:href="#DejaVuSans-2e" x="227.595703"/>
     <use xlink:href="#DejaVuSans-31" x="259.382812"/>
     <use xlink:href="#DejaVuSans-33" x="323.005859"/>
    </g>
   </g>
   <g id="text_55">
    <!-- A:8.43 -->
    <g transform="translate(980.428559 1143.771733) scale(0.04 -0.04)">
     <use xlink:href="#DejaVuSans-41"/>
     <use xlink:href="#DejaVuSans-3a" x="66.658203"/>
     <use xlink:href="#DejaVuSans-38" x="100.349609"/>
     <use xlink:href="#DejaVuSans-2e" x="163.972656"/>
     <use xlink:href="#DejaVuSans-34" x="195.759766"/>
     <use xlink:href="#DejaVuSans-33" x="259.382812"/>
    </g>
   </g>
   <g id="text_56">
    <!-- A:12.41 -->
    <g transform="translate(940.301481 1043.768577) scale(0.04 -0.04)">
     <use xlink:href="#DejaVuSans-41"/>
     <use xlink:href="#DejaVuSans-3a" x="66.658203"/>
     <use xlink:href="#DejaVuSans-31" x="100.349609"/>
     <use xlink:href="#DejaVuSans-32" x="163.972656"/>
     <use xlink:href="#DejaVuSans-2e" x="227.595703"/>
     <use xlink:href="#DejaVuSans-34" x="259.382812"/>
     <use xlink:href="#DejaVuSans-31" x="323.005859"/>
    </g>
   </g>
   <g id="text_57">
    <!-- D:41.77 -->
    <g transform="translate(937.962533 959.592848) scale(0.04 -0.04)">
     <use xlink:href="#DejaVuSans-44"/>
     <use xlink:href="#DejaVuSans-3a" x="77.001953"/>
     <use xlink:href="#DejaVuSans-34" x="110.693359"/>
     <use xlink:href="#DejaVuSans-31" x="174.316406"/>
     <use xlink:href="#DejaVuSans-2e" x="237.939453"/>
     <use xlink:href="#DejaVuSans-37" x="269.726562"/>
     <use xlink:href="#DejaVuSans-37" x="333.349609"/>
    </g>
    <!-- A:8.21 -->
    <g transform="translate(937.962533 964.071973) scale(0.04 -0.04)">
     <use xlink:href="#DejaVuSans-41"/>
     <use xlink:href="#DejaVuSans-3a" x="66.658203"/>
     <use xlink:href="#DejaVuSans-38" x="100.349609"/>
     <use xlink:href="#DejaVuSans-2e" x="163.972656"/>
     <use xlink:href="#DejaVuSans-32" x="195.759766"/>
     <use xlink:href="#DejaVuSans-31" x="259.382812"/>
    </g>
   </g>
   <g id="text_58">
    <!-- A:8.21 -->
    <g transform="translate(937.962533 964.071973) scale(0.04 -0.04)">
     <use xlink:href="#DejaVuSans-41"/>
     <use xlink:href="#DejaVuSans-3a" x="66.658203"/>
     <use xlink:href="#DejaVuSans-38" x="100.349609"/>
     <use xlink:href="#DejaVuSans-2e" x="163.972656"/>
     <use xlink:href="#DejaVuSans-32" x="195.759766"/>
     <use xlink:href="#DejaVuSans-31" x="259.382812"/>
    </g>
   </g>
   <g id="text_59">
    <!-- A:5.38 -->
    <g transform="translate(985.900292 1063.255215) scale(0.04 -0.04)">
     <use xlink:href="#DejaVuSans-41"/>
     <use xlink:href="#DejaVuSans-3a" x="66.658203"/>
     <use xlink:href="#DejaVuSans-35" x="100.349609"/>
     <use xlink:href="#DejaVuSans-2e" x="163.972656"/>
     <use xlink:href="#DejaVuSans-33" x="195.759766"/>
     <use xlink:href="#DejaVuSans-38" x="259.382812"/>
    </g>
   </g>
   <g id="text_60">
    <!-- A:0.00 -->
    <g transform="translate(1028.350721 994.982662) scale(0.04 -0.04)">
     <use xlink:href="#DejaVuSans-41"/>
     <use xlink:href="#DejaVuSans-3a" x="66.658203"/>
     <use xlink:href="#DejaVuSans-30" x="100.349609"/>
     <use xlink:href="#DejaVuSans-2e" x="163.972656"/>
     <use xlink:href="#DejaVuSans-30" x="195.759766"/>
     <use xlink:href="#DejaVuSans-30" x="259.382812"/>
    </g>
   </g>
   <g id="text_61">
    <!-- A:9.93 -->
    <g transform="translate(771.280834 765.489937) scale(0.04 -0.04)">
     <use xlink:href="#DejaVuSans-41"/>
     <use xlink:href="#DejaVuSans-3a" x="66.658203"/>
     <use xlink:href="#DejaVuSans-39" x="100.349609"/>
     <use xlink:href="#DejaVuSans-2e" x="163.972656"/>
     <use xlink:href="#DejaVuSans-39" x="195.759766"/>
     <use xlink:href="#DejaVuSans-33" x="259.382812"/>
    </g>
   </g>
   <g id="text_62">
    <!-- D:3.89 -->
    <g transform="translate(828.601796 864.317439) scale(0.04 -0.04)">
     <use xlink:href="#DejaVuSans-44"/>
     <use xlink:href="#DejaVuSans-3a" x="77.001953"/>
     <use xlink:href="#DejaVuSans-33" x="110.693359"/>
     <use xlink:href="#DejaVuSans-2e" x="174.316406"/>
     <use xlink:href="#DejaVuSans-38" x="206.103516"/>
     <use xlink:href="#DejaVuSans-39" x="269.726562"/>
    </g>
    <!-- A:11.46 -->
    <g transform="translate(828.601796 868.796564) scale(0.04 -0.04)">
     <use xlink:href="#DejaVuSans-41"/>
     <use xlink:href="#DejaVuSans-3a" x="66.658203"/>
     <use xlink:href="#DejaVuSans-31" x="100.349609"/>
     <use xlink:href="#DejaVuSans-31" x="163.972656"/>
     <use xlink:href="#DejaVuSans-2e" x="227.595703"/>
     <use xlink:href="#DejaVuSans-34" x="259.382812"/>
     <use xlink:href="#DejaVuSans-36" x="323.005859"/>
    </g>
   </g>
   <g id="text_63">
    <!-- A:11.46 -->
    <g transform="translate(828.601796 868.796564) scale(0.04 -0.04)">
     <use xlink:href="#DejaVuSans-41"/>
     <use xlink:href="#DejaVuSans-3a" x="66.658203"/>
     <use xlink:href="#DejaVuSans-31" x="100.349609"/>
     <use xlink:href="#DejaVuSans-31" x="163.972656"/>
     <use xlink:href="#DejaVuSans-2e" x="227.595703"/>
     <use xlink:href="#DejaVuSans-34" x="259.382812"/>
     <use xlink:href="#DejaVuSans-36" x="323.005859"/>
    </g>
   </g>
   <g id="text_64">
    <!-- A:31.24 -->
    <g transform="translate(935.572706 1086.885219) scale(0.04 -0.04)">
     <use xlink:href="#DejaVuSans-41"/>
     <use xlink:href="#DejaVuSans-3a" x="66.658203"/>
     <use xlink:href="#DejaVuSans-33" x="100.349609"/>
     <use xlink:href="#DejaVuSans-31" x="163.972656"/>
     <use xlink:href="#DejaVuSans-2e" x="227.595703"/>
     <use xlink:href="#DejaVuSans-32" x="259.382812"/>
     <use xlink:href="#DejaVuSans-34" x="323.005859"/>
    </g>
   </g>
   <g id="text_65">
    <!-- A:25.96 -->
    <g transform="translate(1113.592782 1025.651594) scale(0.04 -0.04)">
     <use xlink:href="#DejaVuSans-41"/>
     <use xlink:href="#DejaVuSans-3a" x="66.658203"/>
     <use xlink:href="#DejaVuSans-32" x="100.349609"/>
     <use xlink:href="#DejaVuSans-35" x="163.972656"/>
     <use xlink:href="#DejaVuSans-2e" x="227.595703"/>
     <use xlink:href="#DejaVuSans-39" x="259.382812"/>
     <use xlink:href="#DejaVuSans-36" x="323.005859"/>
    </g>
   </g>
   <g id="text_66">
    <!-- D:21.66 -->
    <g transform="translate(517.193174 616.579752) scale(0.04 -0.04)">
     <use xlink:href="#DejaVuSans-44"/>
     <use xlink:href="#DejaVuSans-3a" x="77.001953"/>
     <use xlink:href="#DejaVuSans-32" x="110.693359"/>
     <use xlink:href="#DejaVuSans-31" x="174.316406"/>
     <use xlink:href="#DejaVuSans-2e" x="237.939453"/>
     <use xlink:href="#DejaVuSans-36" x="269.726562"/>
     <use xlink:href="#DejaVuSans-36" x="333.349609"/>
    </g>
    <!-- A:13.68 -->
    <g transform="translate(517.193174 621.058877) scale(0.04 -0.04)">
     <use xlink:href="#DejaVuSans-41"/>
     <use xlink:href="#DejaVuSans-3a" x="66.658203"/>
     <use xlink:href="#DejaVuSans-31" x="100.349609"/>
     <use xlink:href="#DejaVuSans-33" x="163.972656"/>
     <use xlink:href="#DejaVuSans-2e" x="227.595703"/>
     <use xlink:href="#DejaVuSans-36" x="259.382812"/>
     <use xlink:href="#DejaVuSans-38" x="323.005859"/>
    </g>
   </g>
   <g id="text_67">
    <!-- A:13.68 -->
    <g transform="translate(517.193174 621.058877) scale(0.04 -0.04)">
     <use xlink:href="#DejaVuSans-41"/>
     <use xlink:href="#DejaVuSans-3a" x="66.658203"/>
     <use xlink:href="#DejaVuSans-31" x="100.349609"/>
     <use xlink:href="#DejaVuSans-33" x="163.972656"/>
     <use xlink:href="#DejaVuSans-2e" x="227.595703"/>
     <use xlink:href="#DejaVuSans-36" x="259.382812"/>
     <use xlink:href="#DejaVuSans-38" x="323.005859"/>
    </g>
   </g>
   <g id="text_68">
    <!-- D:37.58 -->
    <g transform="translate(584.997754 543.862102) scale(0.04 -0.04)">
     <use xlink:href="#DejaVuSans-44"/>
     <use xlink:href="#DejaVuSans-3a" x="77.001953"/>
     <use xlink:href="#DejaVuSans-33" x="110.693359"/>
     <use xlink:href="#DejaVuSans-37" x="174.316406"/>
     <use xlink:href="#DejaVuSans-2e" x="237.939453"/>
     <use xlink:href="#DejaVuSans-35" x="269.726562"/>
     <use xlink:href="#DejaVuSans-38" x="333.349609"/>
    </g>
    <!-- A:13.58 -->
    <g transform="translate(584.997754 548.341227) scale(0.04 -0.04)">
     <use xlink:href="#DejaVuSans-41"/>
     <use xlink:href="#DejaVuSans-3a" x="66.658203"/>
     <use xlink:href="#DejaVuSans-31" x="100.349609"/>
     <use xlink:href="#DejaVuSans-33" x="163.972656"/>
     <use xlink:href="#DejaVuSans-2e" x="227.595703"/>
     <use xlink:href="#DejaVuSans-35" x="259.382812"/>
     <use xlink:href="#DejaVuSans-38" x="323.005859"/>
    </g>
   </g>
   <g id="text_69">
    <!-- A:13.58 -->
    <g transform="translate(584.997754 548.341227) scale(0.04 -0.04)">
     <use xlink:href="#DejaVuSans-41"/>
     <use xlink:href="#DejaVuSans-3a" x="66.658203"/>
     <use xlink:href="#DejaVuSans-31" x="100.349609"/>
     <use xlink:href="#DejaVuSans-33" x="163.972656"/>
     <use xlink:href="#DejaVuSans-2e" x="227.595703"/>
     <use xlink:href="#DejaVuSans-35" x="259.382812"/>
     <use xlink:href="#DejaVuSans-38" x="323.005859"/>
    </g>
   </g>
   <g id="text_70">
    <!-- D:5.25 -->
    <g transform="translate(437.839379 415.482602) scale(0.04 -0.04)">
     <use xlink:href="#DejaVuSans-44"/>
     <use xlink:href="#DejaVuSans-3a" x="77.001953"/>
     <use xlink:href="#DejaVuSans-35" x="110.693359"/>
     <use xlink:href="#DejaVuSans-2e" x="174.316406"/>
     <use xlink:href="#DejaVuSans-32" x="206.103516"/>
     <use xlink:href="#DejaVuSans-35" x="269.726562"/>
    </g>
    <!-- A:11.83 -->
    <g transform="translate(437.839379 419.961727) scale(0.04 -0.04)">
     <use xlink:href="#DejaVuSans-41"/>
     <use xlink:href="#DejaVuSans-3a" x="66.658203"/>
     <use xlink:href="#DejaVuSans-31" x="100.349609"/>
     <use xlink:href="#DejaVuSans-31" x="163.972656"/>
     <use xlink:href="#DejaVuSans-2e" x="227.595703"/>
     <use xlink:href="#DejaVuSans-38" x="259.382812"/>
     <use xlink:href="#DejaVuSans-33" x="323.005859"/>
    </g>
   </g>
   <g id="text_71">
    <!-- A:11.83 -->
    <g transform="translate(437.839379 419.961727) scale(0.04 -0.04)">
     <use xlink:href="#DejaVuSans-41"/>
     <use xlink:href="#DejaVuSans-3a" x="66.658203"/>
     <use xlink:href="#DejaVuSans-31" x="100.349609"/>
     <use xlink:href="#DejaVuSans-31" x="163.972656"/>
     <use xlink:href="#DejaVuSans-2e" x="227.595703"/>
     <use xlink:href="#DejaVuSans-38" x="259.382812"/>
     <use xlink:href="#DejaVuSans-33" x="323.005859"/>
    </g>
   </g>
   <g id="text_72">
    <!-- A:20.86 -->
    <g transform="translate(1090.038081 1020.054707) scale(0.04 -0.04)">
     <use xlink:href="#DejaVuSans-41"/>
     <use xlink:href="#DejaVuSans-3a" x="66.658203"/>
     <use xlink:href="#DejaVuSans-32" x="100.349609"/>
     <use xlink:href="#DejaVuSans-30" x="163.972656"/>
     <use xlink:href="#DejaVuSans-2e" x="227.595703"/>
     <use xlink:href="#DejaVuSans-38" x="259.382812"/>
     <use xlink:href="#DejaVuSans-36" x="323.005859"/>
    </g>
   </g>
   <g id="text_73">
    <!-- A:31.29 -->
    <g transform="translate(1071.160733 997.330323) scale(0.04 -0.04)">
     <use xlink:href="#DejaVuSans-41"/>
     <use xlink:href="#DejaVuSans-3a" x="66.658203"/>
     <use xlink:href="#DejaVuSans-33" x="100.349609"/>
     <use xlink:href="#DejaVuSans-31" x="163.972656"/>
     <use xlink:href="#DejaVuSans-2e" x="227.595703"/>
     <use xlink:href="#DejaVuSans-32" x="259.382812"/>
     <use xlink:href="#DejaVuSans-39" x="323.005859"/>
    </g>
   </g>
   <g id="text_74">
    <!-- A:11.35 -->
    <g transform="translate(615.510572 682.846743) scale(0.04 -0.04)">
     <use xlink:href="#DejaVuSans-41"/>
     <use xlink:href="#DejaVuSans-3a" x="66.658203"/>
     <use xlink:href="#DejaVuSans-31" x="100.349609"/>
     <use xlink:href="#DejaVuSans-31" x="163.972656"/>
     <use xlink:href="#DejaVuSans-2e" x="227.595703"/>
     <use xlink:href="#DejaVuSans-33" x="259.382812"/>
     <use xlink:href="#DejaVuSans-35" x="323.005859"/>
    </g>
   </g>
   <g id="text_75">
    <!-- A:3.82 -->
    <g transform="translate(726.984613 655.760605) scale(0.04 -0.04)">
     <use xlink:href="#DejaVuSans-41"/>
     <use xlink:href="#DejaVuSans-3a" x="66.658203"/>
     <use xlink:href="#DejaVuSans-33" x="100.349609"/>
     <use xlink:href="#DejaVuSans-2e" x="163.972656"/>
     <use xlink:href="#DejaVuSans-38" x="195.759766"/>
     <use xlink:href="#DejaVuSans-32" x="259.382812"/>
    </g>
   </g>
   <g id="text_76">
    <!-- A:18.41 -->
    <g transform="translate(429.4166 321.30331) scale(0.04 -0.04)">
     <use xlink:href="#DejaVuSans-41"/>
     <use xlink:href="#DejaVuSans-3a" x="66.658203"/>
     <use xlink:href="#DejaVuSans-31" x="100.349609"/>
     <use xlink:href="#DejaVuSans-38" x="163.972656"/>
     <use xlink:href="#DejaVuSans-2e" x="227.595703"/>
     <use xlink:href="#DejaVuSans-34" x="259.382812"/>
     <use xlink:href="#DejaVuSans-31" x="323.005859"/>
    </g>
   </g>
   <g id="text_77">
    <!-- Population Density Americas (n:23 k:74) -->
    <g transform="translate(616.895625 153.362625) scale(0.12 -0.12)">
     <defs>
      <path id="DejaVuSans-6f" d="M 1959 3097 
Q 1497 3097 1228 2736 
Q 959 2375 959 1747 
Q 959 1119 1226 758 
Q 1494 397 1959 397 
Q 2419 397 2687 759 
Q 2956 1122 2956 1747 
Q 2956 2369 2687 2733 
Q 2419 3097 1959 3097 
z
M 1959 3584 
Q 2709 3584 3137 3096 
Q 3566 2609 3566 1747 
Q 3566 888 3137 398 
Q 2709 -91 1959 -91 
Q 1206 -91 779 398 
Q 353 888 353 1747 
Q 353 2609 779 3096 
Q 1206 3584 1959 3584 
z
" transform="scale(0.015625)"/>
      <path id="DejaVuSans-70" d="M 1159 525 
L 1159 -1331 
L 581 -1331 
L 581 3500 
L 1159 3500 
L 1159 2969 
Q 1341 3281 1617 3432 
Q 1894 3584 2278 3584 
Q 2916 3584 3314 3078 
Q 3713 2572 3713 1747 
Q 3713 922 3314 415 
Q 2916 -91 2278 -91 
Q 1894 -91 1617 61 
Q 1341 213 1159 525 
z
M 3116 1747 
Q 3116 2381 2855 2742 
Q 2594 3103 2138 3103 
Q 1681 3103 1420 2742 
Q 1159 2381 1159 1747 
Q 1159 1113 1420 752 
Q 1681 391 2138 391 
Q 2594 391 2855 752 
Q 3116 1113 3116 1747 
z
" transform="scale(0.015625)"/>
      <path id="DejaVuSans-75" d="M 544 1381 
L 544 3500 
L 1119 3500 
L 1119 1403 
Q 1119 906 1312 657 
Q 1506 409 1894 409 
Q 2359 409 2629 706 
Q 2900 1003 2900 1516 
L 2900 3500 
L 3475 3500 
L 3475 0 
L 2900 0 
L 2900 538 
Q 2691 219 2414 64 
Q 2138 -91 1772 -91 
Q 1169 -91 856 284 
Q 544 659 544 1381 
z
M 1991 3584 
L 1991 3584 
z
" transform="scale(0.015625)"/>
      <path id="DejaVuSans-6c" d="M 603 4863 
L 1178 4863 
L 1178 0 
L 603 0 
L 603 4863 
z
" transform="scale(0.015625)"/>
      <path id="DejaVuSans-61" d="M 2194 1759 
Q 1497 1759 1228 1600 
Q 959 1441 959 1056 
Q 959 750 1161 570 
Q 1363 391 1709 391 
Q 2188 391 2477 730 
Q 2766 1069 2766 1631 
L 2766 1759 
L 2194 1759 
z
M 3341 1997 
L 3341 0 
L 2766 0 
L 2766 531 
Q 2569 213 2275 61 
Q 1981 -91 1556 -91 
Q 1019 -91 701 211 
Q 384 513 384 1019 
Q 384 1609 779 1909 
Q 1175 2209 1959 2209 
L 2766 2209 
L 2766 2266 
Q 2766 2663 2505 2880 
Q 2244 3097 1772 3097 
Q 1472 3097 1187 3025 
Q 903 2953 641 2809 
L 641 3341 
Q 956 3463 1253 3523 
Q 1550 3584 1831 3584 
Q 2591 3584 2966 3190 
Q 3341 2797 3341 1997 
z
" transform="scale(0.015625)"/>
      <path id="DejaVuSans-74" d="M 1172 4494 
L 1172 3500 
L 2356 3500 
L 2356 3053 
L 1172 3053 
L 1172 1153 
Q 1172 725 1289 603 
Q 1406 481 1766 481 
L 2356 481 
L 2356 0 
L 1766 0 
Q 1100 0 847 248 
Q 594 497 594 1153 
L 594 3053 
L 172 3053 
L 172 3500 
L 594 3500 
L 594 4494 
L 1172 4494 
z
" transform="scale(0.015625)"/>
      <path id="DejaVuSans-69" d="M 603 3500 
L 1178 3500 
L 1178 0 
L 603 0 
L 603 3500 
z
M 603 4863 
L 1178 4863 
L 1178 4134 
L 603 4134 
L 603 4863 
z
" transform="scale(0.015625)"/>
      <path id="DejaVuSans-6e" d="M 3513 2113 
L 3513 0 
L 2938 0 
L 2938 2094 
Q 2938 2591 2744 2837 
Q 2550 3084 2163 3084 
Q 1697 3084 1428 2787 
Q 1159 2491 1159 1978 
L 1159 0 
L 581 0 
L 581 3500 
L 1159 3500 
L 1159 2956 
Q 1366 3272 1645 3428 
Q 1925 3584 2291 3584 
Q 2894 3584 3203 3211 
Q 3513 2838 3513 2113 
z
" transform="scale(0.015625)"/>
      <path id="DejaVuSans-20" transform="scale(0.015625)"/>
      <path id="DejaVuSans-65" d="M 3597 1894 
L 3597 1613 
L 953 1613 
Q 991 1019 1311 708 
Q 1631 397 2203 397 
Q 2534 397 2845 478 
Q 3156 559 3463 722 
L 3463 178 
Q 3153 47 2828 -22 
Q 2503 -91 2169 -91 
Q 1331 -91 842 396 
Q 353 884 353 1716 
Q 353 2575 817 3079 
Q 1281 3584 2069 3584 
Q 2775 3584 3186 3129 
Q 3597 2675 3597 1894 
z
M 3022 2063 
Q 3016 2534 2758 2815 
Q 2500 3097 2075 3097 
Q 1594 3097 1305 2825 
Q 1016 2553 972 2059 
L 3022 2063 
z
" transform="scale(0.015625)"/>
      <path id="DejaVuSans-73" d="M 2834 3397 
L 2834 2853 
Q 2591 2978 2328 3040 
Q 2066 3103 1784 3103 
Q 1356 3103 1142 2972 
Q 928 2841 928 2578 
Q 928 2378 1081 2264 
Q 1234 2150 1697 2047 
L 1894 2003 
Q 2506 1872 2764 1633 
Q 3022 1394 3022 966 
Q 3022 478 2636 193 
Q 2250 -91 1575 -91 
Q 1294 -91 989 -36 
Q 684 19 347 128 
L 347 722 
Q 666 556 975 473 
Q 1284 391 1588 391 
Q 1994 391 2212 530 
Q 2431 669 2431 922 
Q 2431 1156 2273 1281 
Q 2116 1406 1581 1522 
L 1381 1569 
Q 847 1681 609 1914 
Q 372 2147 372 2553 
Q 372 3047 722 3315 
Q 1072 3584 1716 3584 
Q 2034 3584 2315 3537 
Q 2597 3491 2834 3397 
z
" transform="scale(0.015625)"/>
      <path id="DejaVuSans-79" d="M 2059 -325 
Q 1816 -950 1584 -1140 
Q 1353 -1331 966 -1331 
L 506 -1331 
L 506 -850 
L 844 -850 
Q 1081 -850 1212 -737 
Q 1344 -625 1503 -206 
L 1606 56 
L 191 3500 
L 800 3500 
L 1894 763 
L 2988 3500 
L 3597 3500 
L 2059 -325 
z
" transform="scale(0.015625)"/>
      <path id="DejaVuSans-6d" d="M 3328 2828 
Q 3544 3216 3844 3400 
Q 4144 3584 4550 3584 
Q 5097 3584 5394 3201 
Q 5691 2819 5691 2113 
L 5691 0 
L 5113 0 
L 5113 2094 
Q 5113 2597 4934 2840 
Q 4756 3084 4391 3084 
Q 3944 3084 3684 2787 
Q 3425 2491 3425 1978 
L 3425 0 
L 2847 0 
L 2847 2094 
Q 2847 2600 2669 2842 
Q 2491 3084 2119 3084 
Q 1678 3084 1418 2786 
Q 1159 2488 1159 1978 
L 1159 0 
L 581 0 
L 581 3500 
L 1159 3500 
L 1159 2956 
Q 1356 3278 1631 3431 
Q 1906 3584 2284 3584 
Q 2666 3584 2933 3390 
Q 3200 3197 3328 2828 
z
" transform="scale(0.015625)"/>
      <path id="DejaVuSans-72" d="M 2631 2963 
Q 2534 3019 2420 3045 
Q 2306 3072 2169 3072 
Q 1681 3072 1420 2755 
Q 1159 2438 1159 1844 
L 1159 0 
L 581 0 
L 581 3500 
L 1159 3500 
L 1159 2956 
Q 1341 3275 1631 3429 
Q 1922 3584 2338 3584 
Q 2397 3584 2469 3576 
Q 2541 3569 2628 3553 
L 2631 2963 
z
" transform="scale(0.015625)"/>
      <path id="DejaVuSans-63" d="M 3122 3366 
L 3122 2828 
Q 2878 2963 2633 3030 
Q 2388 3097 2138 3097 
Q 1578 3097 1268 2742 
Q 959 2388 959 1747 
Q 959 1106 1268 751 
Q 1578 397 2138 397 
Q 2388 397 2633 464 
Q 2878 531 3122 666 
L 3122 134 
Q 2881 22 2623 -34 
Q 2366 -91 2075 -91 
Q 1284 -91 818 406 
Q 353 903 353 1747 
Q 353 2603 823 3093 
Q 1294 3584 2113 3584 
Q 2378 3584 2631 3529 
Q 2884 3475 3122 3366 
z
" transform="scale(0.015625)"/>
      <path id="DejaVuSans-28" d="M 1984 4856 
Q 1566 4138 1362 3434 
Q 1159 2731 1159 2009 
Q 1159 1288 1364 580 
Q 1569 -128 1984 -844 
L 1484 -844 
Q 1016 -109 783 600 
Q 550 1309 550 2009 
Q 550 2706 781 3412 
Q 1013 4119 1484 4856 
L 1984 4856 
z
" transform="scale(0.015625)"/>
      <path id="DejaVuSans-6b" d="M 581 4863 
L 1159 4863 
L 1159 1991 
L 2875 3500 
L 3609 3500 
L 1753 1863 
L 3688 0 
L 2938 0 
L 1159 1709 
L 1159 0 
L 581 0 
L 581 4863 
z
" transform="scale(0.015625)"/>
      <path id="DejaVuSans-29" d="M 513 4856 
L 1013 4856 
Q 1481 4119 1714 3412 
Q 1947 2706 1947 2009 
Q 1947 1309 1714 600 
Q 1481 -109 1013 -844 
L 513 -844 
Q 928 -128 1133 580 
Q 1338 1288 1338 2009 
Q 1338 2731 1133 3434 
Q 928 4138 513 4856 
z
" transform="scale(0.015625)"/>
     </defs>
     <use xlink:href="#DejaVuSans-50"/>
     <use xlink:href="#DejaVuSans-6f" x="56.677734"/>
     <use xlink:href="#DejaVuSans-70" x="117.859375"/>
     <use xlink:href="#DejaVuSans-75" x="181.335938"/>
     <use xlink:href="#DejaVuSans-6c" x="244.714844"/>
     <use xlink:href="#DejaVuSans-61" x="272.498047"/>
     <use xlink:href="#DejaVuSans-74" x="333.777344"/>
     <use xlink:href="#DejaVuSans-69" x="372.986328"/>
     <use xlink:href="#DejaVuSans-6f" x="400.769531"/>
     <use xlink:href="#DejaVuSans-6e" x="461.951172"/>
     <use xlink:href="#DejaVuSans-20" x="525.330078"/>
     <use xlink:href="#DejaVuSans-44" x="557.117188"/>
     <use xlink:href="#DejaVuSans-65" x="634.119141"/>
     <use xlink:href="#DejaVuSans-6e" x="695.642578"/>
     <use xlink:href="#DejaVuSans-73" x="759.021484"/>
     <use xlink:href="#DejaVuSans-69" x="811.121094"/>
     <use xlink:href="#DejaVuSans-74" x="838.904297"/>
     <use xlink:href="#DejaVuSans-79" x="878.113281"/>
     <use xlink:href="#DejaVuSans-20" x="937.292969"/>
     <use xlink:href="#DejaVuSans-41" x="969.080078"/>
     <use xlink:href="#DejaVuSans-6d" x="1037.488281"/>
     <use xlink:href="#DejaVuSans-65" x="1134.900391"/>
     <use xlink:href="#DejaVuSans-72" x="1196.423828"/>
     <use xlink:href="#DejaVuSans-69" x="1237.537109"/>
     <use xlink:href="#DejaVuSans-63" x="1265.320312"/>
     <use xlink:href="#DejaVuSans-61" x="1320.300781"/>
     <use xlink:href="#DejaVuSans-73" x="1381.580078"/>
     <use xlink:href="#DejaVuSans-20" x="1433.679688"/>
     <use xlink:href="#DejaVuSans-28" x="1465.466797"/>
     <use xlink:href="#DejaVuSans-6e" x="1504.480469"/>
     <use xlink:href="#DejaVuSans-3a" x="1567.859375"/>
     <use xlink:href="#DejaVuSans-32" x="1601.550781"/>
     <use xlink:href="#DejaVuSans-33" x="1665.173828"/>
     <use xlink:href="#DejaVuSans-20" x="1728.796875"/>
     <use xlink:href="#DejaVuSans-6b" x="1760.583984"/>
     <use xlink:href="#DejaVuSans-3a" x="1818.494141"/>
     <use xlink:href="#DejaVuSans-37" x="1852.185547"/>
     <use xlink:href="#DejaVuSans-34" x="1915.808594"/>
     <use xlink:href="#DejaVuSans-29" x="1979.431641"/>
    </g>
    <!-- Score: 6113.38, max. Overlap: 2.89, avg. Distance: 12.07, avg. Angle: 11.62 -->
    <g transform="translate(508.035 166.8) scale(0.12 -0.12)">
     <defs>
      <path id="DejaVuSans-2c" d="M 750 794 
L 1409 794 
L 1409 256 
L 897 -744 
L 494 -744 
L 750 256 
L 750 794 
z
" transform="scale(0.015625)"/>
      <path id="DejaVuSans-78" d="M 3513 3500 
L 2247 1797 
L 3578 0 
L 2900 0 
L 1881 1375 
L 863 0 
L 184 0 
L 1544 1831 
L 300 3500 
L 978 3500 
L 1906 2253 
L 2834 3500 
L 3513 3500 
z
" transform="scale(0.015625)"/>
      <path id="DejaVuSans-76" d="M 191 3500 
L 800 3500 
L 1894 563 
L 2988 3500 
L 3597 3500 
L 2284 0 
L 1503 0 
L 191 3500 
z
" transform="scale(0.015625)"/>
      <path id="DejaVuSans-67" d="M 2906 1791 
Q 2906 2416 2648 2759 
Q 2391 3103 1925 3103 
Q 1463 3103 1205 2759 
Q 947 2416 947 1791 
Q 947 1169 1205 825 
Q 1463 481 1925 481 
Q 2391 481 2648 825 
Q 2906 1169 2906 1791 
z
M 3481 434 
Q 3481 -459 3084 -895 
Q 2688 -1331 1869 -1331 
Q 1566 -1331 1297 -1286 
Q 1028 -1241 775 -1147 
L 775 -588 
Q 1028 -725 1275 -790 
Q 1522 -856 1778 -856 
Q 2344 -856 2625 -561 
Q 2906 -266 2906 331 
L 2906 616 
Q 2728 306 2450 153 
Q 2172 0 1784 0 
Q 1141 0 747 490 
Q 353 981 353 1791 
Q 353 2603 747 3093 
Q 1141 3584 1784 3584 
Q 2172 3584 2450 3431 
Q 2728 3278 2906 2969 
L 2906 3500 
L 3481 3500 
L 3481 434 
z
" transform="scale(0.015625)"/>
     </defs>
     <use xlink:href="#DejaVuSans-53"/>
     <use xlink:href="#DejaVuSans-63" x="63.476562"/>
     <use xlink:href="#DejaVuSans-6f" x="118.457031"/>
     <use xlink:href="#DejaVuSans-72" x="179.638672"/>
     <use xlink:href="#DejaVuSans-65" x="218.501953"/>
     <use xlink:href="#DejaVuSans-3a" x="280.025391"/>
     <use xlink:href="#DejaVuSans-20" x="313.716797"/>
     <use xlink:href="#DejaVuSans-36" x="345.503906"/>
     <use xlink:href="#DejaVuSans-31" x="409.126953"/>
     <use xlink:href="#DejaVuSans-31" x="472.75"/>
     <use xlink:href="#DejaVuSans-33" x="536.373047"/>
     <use xlink:href="#DejaVuSans-2e" x="599.996094"/>
     <use xlink:href="#DejaVuSans-33" x="631.783203"/>
     <use xlink:href="#DejaVuSans-38" x="695.40625"/>
     <use xlink:href="#DejaVuSans-2c" x="759.029297"/>
     <use xlink:href="#DejaVuSans-20" x="790.816406"/>
     <use xlink:href="#DejaVuSans-6d" x="822.603516"/>
     <use xlink:href="#DejaVuSans-61" x="920.015625"/>
     <use xlink:href="#DejaVuSans-78" x="981.294922"/>
     <use xlink:href="#DejaVuSans-2e" x="1040.474609"/>
     <use xlink:href="#DejaVuSans-20" x="1072.261719"/>
     <use xlink:href="#DejaVuSans-4f" x="1104.048828"/>
     <use xlink:href="#DejaVuSans-76" x="1182.759766"/>
     <use xlink:href="#DejaVuSans-65" x="1241.939453"/>
     <use xlink:href="#DejaVuSans-72" x="1303.462891"/>
     <use xlink:href="#DejaVuSans-6c" x="1344.576172"/>
     <use xlink:href="#DejaVuSans-61" x="1372.359375"/>
     <use xlink:href="#DejaVuSans-70" x="1433.638672"/>
     <use xlink:href="#DejaVuSans-3a" x="1497.115234"/>
     <use xlink:href="#DejaVuSans-20" x="1530.806641"/>
     <use xlink:href="#DejaVuSans-32" x="1562.59375"/>
     <use xlink:href="#DejaVuSans-2e" x="1626.216797"/>
     <use xlink:href="#DejaVuSans-38" x="1658.003906"/>
     <use xlink:href="#DejaVuSans-39" x="1721.626953"/>
     <use xlink:href="#DejaVuSans-2c" x="1785.25"/>
     <use xlink:href="#DejaVuSans-20" x="1817.037109"/>
     <use xlink:href="#DejaVuSans-61" x="1848.824219"/>
     <use xlink:href="#DejaVuSans-76" x="1910.103516"/>
     <use xlink:href="#DejaVuSans-67" x="1969.283203"/>
     <use xlink:href="#DejaVuSans-2e" x="2032.759766"/>
     <use xlink:href="#DejaVuSans-20" x="2064.546875"/>
     <use xlink:href="#DejaVuSans-44" x="2096.333984"/>
     <use xlink:href="#DejaVuSans-69" x="2173.335938"/>
     <use xlink:href="#DejaVuSans-73" x="2201.119141"/>
     <use xlink:href="#DejaVuSans-74" x="2253.21875"/>
     <use xlink:href="#DejaVuSans-61" x="2292.427734"/>
     <use xlink:href="#DejaVuSans-6e" x="2353.707031"/>
     <use xlink:href="#DejaVuSans-63" x="2417.085938"/>
     <use xlink:href="#DejaVuSans-65" x="2472.066406"/>
     <use xlink:href="#DejaVuSans-3a" x="2533.589844"/>
     <use xlink:href="#DejaVuSans-20" x="2567.28125"/>
     <use xlink:href="#DejaVuSans-31" x="2599.068359"/>
     <use xlink:href="#DejaVuSans-32" x="2662.691406"/>
     <use xlink:href="#DejaVuSans-2e" x="2726.314453"/>
     <use xlink:href="#DejaVuSans-30" x="2758.101562"/>
     <use xlink:href="#DejaVuSans-37" x="2821.724609"/>
     <use xlink:href="#DejaVuSans-2c" x="2885.347656"/>
     <use xlink:href="#DejaVuSans-20" x="2917.134766"/>
     <use xlink:href="#DejaVuSans-61" x="2948.921875"/>
     <use xlink:href="#DejaVuSans-76" x="3010.201172"/>
     <use xlink:href="#DejaVuSans-67" x="3069.380859"/>
     <use xlink:href="#DejaVuSans-2e" x="3132.857422"/>
     <use xlink:href="#DejaVuSans-20" x="3164.644531"/>
     <use xlink:href="#DejaVuSans-41" x="3196.431641"/>
     <use xlink:href="#DejaVuSans-6e" x="3264.839844"/>
     <use xlink:href="#DejaVuSans-67" x="3328.21875"/>
     <use xlink:href="#DejaVuSans-6c" x="3391.695312"/>
     <use xlink:href="#DejaVuSans-65" x="3419.478516"/>
     <use xlink:href="#DejaVuSans-3a" x="3481.001953"/>
     <use xlink:href="#DejaVuSans-20" x="3514.693359"/>
     <use xlink:href="#DejaVuSans-31" x="3546.480469"/>
     <use xlink:href="#DejaVuSans-31" x="3610.103516"/>
     <use xlink:href="#DejaVuSans-2e" x="3673.726562"/>
     <use xlink:href="#DejaVuSans-36" x="3705.513672"/>
     <use xlink:href="#DejaVuSans-32" x="3769.136719"/>
    </g>
   </g>
  </g>
 </g>
 <defs>
  <clipPath id="p58e82da090">
   <rect x="287.654471" y="172.8" width="900.691058" height="1108.8"/>
  </clipPath>
 </defs>
</svg>
